<?xml version="1.0" encoding="UTF-8"?>
<svg width="24px" height="24px" viewBox="0 0 24 24" version="1.1" xmlns="http://www.w3.org/2000/svg" xmlns:xlink="http://www.w3.org/1999/xlink">
    <title>bicycle</title>
    <g id="bicycle" stroke="none" stroke-width="1" fill="none" fill-rule="evenodd">
        <path d="M18.875,13 C21.6364237,13 23.875,15.2385763 23.875,18 C23.875,20.7614237 21.6364237,23 18.875,23 C16.1135763,23 13.875,20.7614237 13.875,18 C13.875,15.2385763 16.1135763,13 18.875,13 Z M5,13 C7.76142375,13 10,15.2385763 10,18 C10,20.7614237 7.76142375,23 5,23 C2.23857625,23 0,20.7614237 0,18 C0,15.2385763 2.23857625,13 5,13 Z M18.875,15 C17.2181458,15 15.875,16.3431458 15.875,18 C15.875,19.6568542 17.2181458,21 18.875,21 C20.5318542,21 21.875,19.6568542 21.875,18 C21.875,16.3431458 20.5318542,15 18.875,15 Z M5,15 C3.34314575,15 2,16.3431458 2,18 C2,19.6568542 3.34314575,21 5,21 C6.65685425,21 8,19.6568542 8,18 C8,16.3431458 6.65685425,15 5,15 Z M13.6,5.2 L17.333,7.99999893 L19,7.99999893 C19.5128358,7.99999893 19.9355072,8.38604019 19.9932723,8.88337887 L20,8.99999893 C20,9.55228475 19.5522847,9.99999893 19,9.99999893 L17,9.99999893 C16.7836298,9.99999893 16.5730962,9.92982213 16.4,9.8 L13.032,7.274 L8.815,10.789 L13.4472136,13.1055728 C13.8041753,13.2840537 14.0173655,13.6552094 13.9989535,14.0465603 L13.9863939,14.164399 L12.9863939,20.164399 C12.8955989,20.7091693 12.3803713,21.077189 11.835601,20.9863939 C11.2908307,20.8955989 10.922811,20.3803713 11.0136061,19.835601 L11.892,14.564 L6.5527864,11.8944272 C5.94571107,11.5908895 5.81968571,10.7948743 6.2688365,10.3173785 L6.3598156,10.2317787 L12.3598156,5.23177872 C12.7158889,4.93505095 13.2291971,4.92189784 13.6,5.2 Z M16,1.5 C17.1045695,1.5 18,2.3954305 18,3.5 C18,4.6045695 17.1045695,5.5 16,5.5 C14.8954305,5.5 14,4.6045695 14,3.5 C14,2.3954305 14.8954305,1.5 16,1.5 Z" id="Shape" fill="#0D0E10" fill-rule="nonzero"></path>
    </g>
</svg>