<?xml version="1.0" encoding="UTF-8"?>
<svg width="32px" height="24px" viewBox="0 0 32 24" version="1.1" xmlns="http://www.w3.org/2000/svg" xmlns:xlink="http://www.w3.org/1999/xlink">
    <title>vehicle-car-mpv</title>
    <g id="vehicle-car-mpv" stroke="none" stroke-width="1" fill="none" fill-rule="evenodd">
        <path d="M3,2.06615503 L3.09600607,2.06769161 L17.4023612,2.98322592 C18.0370616,3.02391184 18.6424095,3.26525805 19.1310006,3.67241731 L20.0803688,4.46355744 C20.6479912,4.93657609 20.9596066,5.60284593 20.9992312,6.28654256 C21.0899041,6.32757932 21.1793781,6.37524609 21.2665033,6.42752122 L25.891,9.202 L30.114172,10.8916029 C31.1932011,11.3232145 31.9202977,12.3359944 31.9938452,13.4844447 L32,13.677033 L32,16 C32,17.6568542 30.6568542,19 29,19 L28.8740452,18.9997565 C28.4300871,20.7251073 26.8639271,22 25,22 C23.1360729,22 21.5699129,20.7251073 21.1259548,18.9997565 L10.8740452,18.9997565 C10.4300871,20.7251073 8.86392711,22 7,22 C5.13607289,22 3.56991294,20.7251073 3.12595483,18.9997565 L3,19 C1.34314575,19 0,17.6568542 0,16 L0,10.5351838 C0,9.65887246 0.382616795,8.83321429 1.03582092,8.26753823 C0.4012518,7.71746101 0,6.90558919 0,6 L0,5.06615503 C0,3.40930078 1.34314575,2.06615503 3,2.06615503 Z M7,16 L6.88255255,16.0033912 L6.72707151,16.0184665 L6.57206909,16.0458861 L6.46291948,16.0729359 L6.35145834,16.1074956 L6.18544715,16.1728453 L6.04662178,16.2414215 L5.91810956,16.3176031 L5.76619609,16.4258103 L5.6553106,16.5195043 L5.5475591,16.6250694 L5.42659917,16.7651916 L5.34056902,16.883262 L5.28590504,16.9689445 L5.26818814,16.9989225 C5.09785457,17.2925613 5,17.6348531 5,18 C5,18.3648427 5.09769155,18.7068682 5.26834339,19.0013454 L5.32182804,19.0884298 L5.42148711,19.2282759 L5.51575171,19.3405487 L5.60737462,19.4354816 L5.717998,19.5351419 L5.79637954,19.5974206 L5.91681285,19.6815676 L6.01665293,19.7419681 L6.1462017,19.8091178 L6.238847,19.8500667 L6.37110086,19.8991193 L6.53688416,19.9461092 L6.68560515,19.9754309 L6.83390913,19.9932018 C6.88843098,19.997694 6.94394619,20 7,20 C7.0628002,20 7.12492437,19.9971055 7.18624637,19.9914427 L7.31473663,19.9753769 L7.46276946,19.9461913 L7.6698546,19.8850664 L7.87882534,19.7970726 C7.94992165,19.7622132 8.01815955,19.7235733 8.08375872,19.6811985 L8.23422797,19.5738568 L8.35118637,19.4745652 L8.50420351,19.3181353 L8.61985109,19.1733102 L8.69788257,19.0574847 L8.73224343,19.0003321 C8.90230845,18.7068682 9,18.3648427 9,18 C9,17.6348531 8.90214543,17.2925613 8.73122948,16.9979178 L8.68113,16.9161352 L8.57315539,16.7648794 L8.49410222,16.6704363 L8.39510935,16.5669278 L8.3284074,16.504868 L8.20362046,16.4025794 L8.08196029,16.3176411 L7.91668919,16.221981 L7.72617503,16.135913 L7.53699108,16.072911 L7.39287984,16.0385755 L7.23281346,16.0134057 L7.15303864,16.0057679 C7.10202869,16.0019269 7.05123937,16 7,16 Z M25,16 L24.8825526,16.0033912 L24.7270715,16.0184665 L24.5720691,16.0458861 L24.4629195,16.0729359 L24.3514583,16.1074956 L24.1854471,16.1728453 L24.0466218,16.2414215 L23.9181096,16.3176031 L23.7661961,16.4258103 L23.6553106,16.5195043 L23.5475591,16.6250694 L23.4265992,16.7651916 L23.340569,16.883262 L23.285905,16.9689445 L23.2681881,16.9989225 C23.0978546,17.2925613 23,17.6348531 23,18 C23,18.3648427 23.0976915,18.7068682 23.2683434,19.0013454 L23.321828,19.0884298 L23.4214871,19.2282759 L23.5157517,19.3405487 L23.6073746,19.4354816 L23.717998,19.5351419 L23.7963795,19.5974206 L23.9168128,19.6815676 L24.0166529,19.7419681 L24.1462017,19.8091178 L24.238847,19.8500667 L24.3711009,19.8991193 L24.5368842,19.9461092 L24.6856051,19.9754309 L24.8339091,19.9932018 C24.888431,19.997694 24.9439462,20 25,20 C25.0628002,20 25.1249244,19.9971055 25.1862464,19.9914427 L25.3147366,19.9753769 L25.4627695,19.9461913 L25.6698546,19.8850664 L25.8788253,19.7970726 C25.9499216,19.7622132 26.0181595,19.7235733 26.0837587,19.6811985 L26.234228,19.5738568 L26.3511864,19.4745652 L26.5042035,19.3181353 L26.6198511,19.1733102 L26.6978826,19.0574847 L26.7322434,19.0003321 C26.9023085,18.7068682 27,18.3648427 27,18 C27,17.6348531 26.9021454,17.2925613 26.7312295,16.9979178 L26.68113,16.9161352 L26.5731554,16.7648794 L26.4941022,16.6704363 L26.3951094,16.5669278 L26.3284074,16.504868 L26.2036205,16.4025794 L26.0819603,16.3176411 L25.9166892,16.221981 L25.726175,16.135913 L25.5369911,16.072911 L25.3928798,16.0385755 L25.2328135,16.0134057 L25.1530386,16.0057679 C25.1020287,16.0019269 25.0512394,16 25,16 Z M24.9312913,10.9587748 L20.31,8.18615503 L20.4088525,8.07687866 C19.9214158,8.66180278 19.1993506,9 18.4379501,9 L3.5,8.99915503 L2.4452998,9.70313346 C2.16710114,9.88859924 2,10.2008306 2,10.5351838 L2,16 C2,16.5522847 2.44771525,17 3,17 L3.12621352,16.9992387 C3.57052105,15.2743978 5.13643475,14 7,14 C8.86356525,14 10.429479,15.2743978 10.8737865,16.9992387 L21.1262135,16.9992387 C21.570521,15.2743978 23.1364348,14 25,14 C26.8635652,14 28.429479,15.2743978 28.8737865,16.9992387 L29,17 C29.5522847,17 30,16.5522847 30,16 L30,13.677033 C30,13.2681284 29.7510491,12.9004196 29.3713907,12.7485563 L25.0743964,11.0297586 C25.0248782,11.0099513 24.9770238,10.9862143 24.9312913,10.9587748 Z M2.32852124,6.74103392 L2.37455101,6.78031123 L2.49314792,6.86221769 L2.57897109,6.90731384 L2.69053626,6.95119614 L2.80016097,6.98002904 L2.902,6.99415503 L3,7 L18.4379501,7 C18.605791,7 18.7649609,6.9254488 18.87241,6.79650986 C19.0723646,6.55656427 19.0399456,6.19995466 18.8,6 L17.8506318,5.20885987 C17.6877681,5.07314011 17.4859855,4.99269138 17.2744187,4.9791294 L3.03200202,4.06666722 L3,4.06615503 C2.44771525,4.06615503 2,4.51387028 2,5.06615503 L2,6 C2,6.11834673 2.02055835,6.2318918 2.05829863,6.33725878 C2.07980684,6.396582 2.10475624,6.44987226 2.13399546,6.50036848 C2.17804296,6.57636249 2.23149458,6.64570814 2.29289322,6.70710678 L2.32852124,6.74103392 Z" id="Shape" fill="#000000" fill-rule="nonzero"></path>
    </g>
</svg>