<?xml version="1.0" encoding="UTF-8"?>
<svg width="32px" height="24px" viewBox="0 0 32 24" version="1.1" xmlns="http://www.w3.org/2000/svg" xmlns:xlink="http://www.w3.org/1999/xlink">
    <title>vehicle-motorhome-standard</title>
    <g id="vehicle-motorhome-standard" stroke="none" stroke-width="1" fill="none" fill-rule="evenodd">
        <path d="M18.5857864,3 C19.3814359,3 20.1444976,3.31607052 20.7071068,3.87867966 L25.183,8.355 L28.3416408,9.93475242 C29.2982075,10.4130357 29.9231744,11.3613433 29.99339,12.4186081 L30,12.618034 L30,16 C30,17.6568542 28.6568542,19 27,19 L26.8737865,19.0007613 C26.429479,20.7256022 24.8635652,22 23,22 C21.1364348,22 19.570521,20.7256022 19.1262135,19.0007613 L12.8737865,19.0007613 C12.429479,20.7256022 10.8635652,22 9,22 C7.13643475,22 5.57052105,20.7256022 5.12621352,19.0007613 L5,19 C3.34314575,19 2,17.6568542 2,16 L2,6 C2,4.34314575 3.34314575,3 5,3 L18.5857864,3 Z M9,16 C8.93753581,16 8.87574044,16.0028636 8.81473801,16.0084666 L8.68526337,16.0246231 L8.53723054,16.0538087 L8.33005441,16.114966 L8.13366661,16.1968595 L8.04614498,16.2416806 L7.91804996,16.3176355 L7.76562434,16.4262592 L7.71799679,16.4648557 L7.65481316,16.5199565 L7.52792983,16.6460972 L7.42367344,16.7689235 L7.35698534,16.8592919 L7.26760632,16.9999275 C7.0976323,17.2933392 7,17.635268 7,18 C7,18.3651469 7.09785457,18.7074387 7.26877052,19.0020822 L7.31887,19.0838648 L7.42684461,19.2351206 L7.50680857,19.3305857 L7.60037613,19.4286552 L7.6715926,19.495132 L7.79637954,19.5974206 L7.91803971,19.6823589 L8.08331081,19.778019 L8.22825444,19.8456682 L8.37134755,19.8992009 L8.53706957,19.9461532 L8.68561354,19.9754322 L8.75403682,19.9850273 L8.82344927,19.9923144 C8.88774983,19.9976656 8.9436023,20 9,20 C9.0563977,20 9.11225017,19.9976656 9.16746608,19.9930883 L9,20 L9.08900888,19.9980548 L9.24606582,19.9850153 L9.42793091,19.9541139 L9.58034841,19.9145001 L9.66959336,19.8851592 L9.81455285,19.8271547 L9.95337822,19.7585785 L10.0818904,19.6823969 L10.2338039,19.5741897 L10.346761,19.4786104 L10.4542731,19.3729932 L10.5734008,19.2348084 L10.659431,19.116738 L10.714095,19.0310555 L10.7318119,19.0010775 C10.9021454,18.7074387 11,18.3651469 11,18 C11,17.635268 10.9023677,17.2933392 10.7318119,16.9989225 L10.6796896,16.9139089 L10.5763207,16.768916 L10.4349904,16.6068712 L10.3290016,16.5053966 L10.2820212,16.4648752 L10.2036205,16.4025794 L10.0819603,16.3176411 L9.91715119,16.2222197 L9.7721451,16.1544991 L9.62898506,16.1009091 L9.46318043,16.0539061 L9.31443935,16.0245762 L9.1660972,16.0067987 C9.11156902,16.002306 9.05605381,16 9,16 Z M21.7963795,16.4025794 L21.6548132,16.5199565 L21.5279298,16.6460972 L21.4236734,16.7689235 L21.3569853,16.8592919 L21.2676063,16.9999275 C21.0976323,17.2933392 21,17.635268 21,18 C21,18.3651469 21.0978546,18.7074387 21.2687705,19.0020822 L21.31887,19.0838648 L21.4268446,19.2351206 L21.5068086,19.3305857 L21.6003761,19.4286552 L21.6715926,19.495132 L21.7963795,19.5974206 L21.9180397,19.6823589 L22.0833108,19.778019 L22.2282544,19.8456682 L22.3713476,19.8992009 L22.5370696,19.9461532 L22.6856135,19.9754322 L22.7540368,19.9850273 L22.8234493,19.9923144 C22.8877498,19.9976656 22.9436023,20 23,20 C23.0563977,20 23.1122502,19.9976656 23.1674661,19.9930883 L23,20 L23.0890089,19.9980548 L23.2460658,19.9850153 L23.4279309,19.9541139 L23.5803484,19.9145001 L23.6695934,19.8851592 L23.8145529,19.8271547 L23.9533782,19.7585785 L24.0818904,19.6823969 L24.2338039,19.5741897 L24.346761,19.4786104 L24.4542731,19.3729932 L24.5734008,19.2348084 L24.659431,19.116738 L24.714095,19.0310555 L24.7318119,19.0010775 C24.9021454,18.7074387 25,18.3651469 25,18 C25,17.635268 24.9023677,17.2933392 24.7318119,16.9989225 L24.6796896,16.9139089 L24.5763207,16.768916 L24.4349904,16.6068712 L24.3290016,16.5053966 L24.2820212,16.4648752 L24.2036205,16.4025794 L24.0819603,16.3176411 L23.9171512,16.2222197 L23.7721451,16.1544991 L23.6289851,16.1009091 L23.4631804,16.0539061 L23.3144394,16.0245762 L23.1660972,16.0067987 L23.0836207,16.0017146 L23,16 C22.9375358,16 22.8757404,16.0028636 22.814738,16.0084666 L22.6852634,16.0246231 L22.5372305,16.0538087 L22.3300544,16.114966 L22.1336666,16.1968595 L22.046145,16.2416806 C21.9586955,16.289226 21.8752629,16.3430488 21.7963795,16.4025794 Z M18.5857864,5 L5,5 C4.44771525,5 4,5.44771525 4,6 L4,16 C4,16.5522847 4.44771525,17 5,17 L5.12595483,17.0002435 C5.56991294,15.2748927 7.13607289,14 9,14 C10.8639271,14 12.4300871,15.2748927 12.8740452,17.0002435 L19.1259548,17.0002435 C19.5699129,15.2748927 21.1360729,14 23,14 C24.8639271,14 26.4300871,15.2748927 26.8740452,17.0002435 L27,17 C27.5522847,17 28,16.5522847 28,16 L28,12.618034 C28,12.2392619 27.7859976,11.8929988 27.4472136,11.7236068 L24.1451456,10.0725728 C24.0490106,10.0245053 23.9612537,9.96125368 23.8852524,9.88525237 L19.2928932,5.29289322 C19.1053568,5.10535684 18.8510029,5 18.5857864,5 Z" id="Shape" fill="#000000" fill-rule="nonzero"></path>
    </g>
</svg>