<?xml version="1.0" encoding="UTF-8"?>
<svg width="32px" height="24px" viewBox="0 0 32 24" version="1.1" xmlns="http://www.w3.org/2000/svg" xmlns:xlink="http://www.w3.org/1999/xlink">
    <title>vehicle-motorcycle</title>
    <g id="vehicle-motorcycle" stroke="none" stroke-width="1" fill="none" fill-rule="evenodd">
        <path d="M27.6075334,2.66393392 C29.0498075,3.32959891 29.884834,4.44884029 30,6 L30,8 C30,8.55228475 29.5522847,9 29,9 C28.4477153,9 28,8.55228475 28,8 L28.0028838,6.07589009 C27.9477271,5.35118916 27.5750705,4.85169275 26.769417,4.47985269 C26.1397702,4.18924647 25.4228124,4.02899328 24.6135233,4.00352799 L24.241,4.002 L24.2424429,4.08667721 C24.2596355,6.25850078 23.9049586,7.89109843 23.1260954,8.99501361 L22.9995843,9.16492406 C22.3731806,9.96216518 21.7203684,10.1645705 20.2624624,10.2260593 L19.1837159,10.2588227 C18.7326815,10.277198 18.4528356,10.3057007 18.1346192,10.3652067 C17.2597989,10.5287967 16.604074,10.9011785 16.0448661,11.6388276 C14.9944669,13.0244052 14.3547739,14.3920809 14.1118954,15.7495842 L14.072,16 L19.0224767,15.9993879 C19.2753789,13.1964302 21.6311875,11 24.5,11 C27.5375661,11 30,13.4624339 30,16.5 C30,19.5375661 27.5375661,22 24.5,22 C21.982143,22 19.8594509,20.308098 19.206797,17.9991672 L13.793203,17.9991672 C13.1405491,20.308098 11.017857,22 8.5,22 C5.46243388,22 3,19.5375661 3,16.5 C3,13.4624339 5.46243388,11 8.5,11 C10.2661231,11 11.8378185,11.832444 12.8441263,13.1263722 C13.2395006,12.2193165 13.7765826,11.3203138 14.4510801,10.4305867 C15.3279864,9.27386281 16.4266835,8.64991997 17.7669948,8.39928391 C18.2935215,8.30082426 18.7036249,8.26884412 19.4837403,8.24785257 L19.7293618,8.24182928 C20.9039492,8.21537148 21.2621789,8.13898664 21.4269476,7.92928096 C22.0542618,7.13088113 22.3461882,5.52528572 22.2099237,3.13119752 C22.1799697,2.60492345 22.5636752,2.14576567 23.0869019,2.08176945 C24.7915511,1.8732726 26.304076,2.06233821 27.6075334,2.66393392 Z M8.5,13 C6.56700338,13 5,14.5670034 5,16.5 C5,18.4329966 6.56700338,20 8.5,20 C10.4329966,20 12,18.4329966 12,16.5 C12,14.6314366 10.5357224,13.1048736 8.6920352,13.0051789 L8.5,13 Z M24.5,13 C22.5670034,13 21,14.5670034 21,16.5 C21,18.4329966 22.5670034,20 24.5,20 C26.4329966,20 28,18.4329966 28,16.5 C28,14.6314366 26.5357224,13.1048736 24.6920352,13.0051789 L24.5,13 Z M19.3474265,4.06229277 C19.8653079,4.25417111 20.1295856,4.82954506 19.9377072,5.34742646 C19.7458289,5.86530787 19.1704549,6.12958557 18.6525735,5.93770723 C16.9039001,5.28981265 15.4564111,5.28981265 14.2529652,5.89376416 C13.0737548,6.48555313 12.3327667,7.55367953 12.0107648,9.19276734 C11.9186288,9.66176772 11.5074851,10 11.0295203,10 L7.48708487,10 C7.34265111,10 7.19993139,9.96871254 7.06874365,9.90828995 L2.58165878,7.84162328 C2.0800241,7.6105798 1.86066658,7.0166268 2.09171005,6.51499211 C2.32275353,6.01335743 2.91670653,5.79399991 3.41834122,6.02504339 L7.705,7.99929341 L10.245,7.99929341 L10.2640148,7.93477349 C10.7704157,6.25989411 11.7257689,5.00812768 13.1195383,4.23130055 L13.3558908,4.10623584 C15.0946498,3.23363644 17.1108754,3.23363644 19.3474265,4.06229277 Z" id="Shape" fill="#0D0E10" fill-rule="nonzero"></path>
    </g>
</svg>