<?xml version="1.0" encoding="UTF-8"?>
<svg width="32px" height="24px" viewBox="0 0 32 24" version="1.1" xmlns="http://www.w3.org/2000/svg" xmlns:xlink="http://www.w3.org/1999/xlink">
    <title>vehicle-motorhome-standard</title>
    <g id="vehicle-motorhome-standard" stroke="none" stroke-width="1" fill="none" fill-rule="evenodd">
        <path d="M20.5857864,3 C21.3814359,3 22.1444976,3.31607052 22.7071068,3.87867966 L25.183,8.355 L27.3416408,9.93475242 C28.2982075,10.4130357 28.9231744,11.3613433 28.99339,12.4186081 L29,12.618034 L29,16 C29,17.6568542 27.6568542,19 26,19 L25.8737865,19.0007613 C25.429479,20.7256022 23.8635652,22 22,22 C20.1364348,22 18.570521,20.7256022 18.1262135,19.0007613 L13.8737865,19.0007613 C13.429479,20.7256022 11.8635652,22 10,22 C8.13643475,22 6.57052105,20.7256022 6.12621352,19.0007613 L6,19 C4.34314575,19 3,17.6568542 3,16 L3,6 C3,4.34314575 4.34314575,3 6,3 L20.5857864,3 Z M10,16 C9.93753581,16 9.87574044,16.0028636 9.81473801,16.0084666 L9.68526337,16.0246231 L9.53723054,16.0538087 L9.33005441,16.114966 L9.13366661,16.1968595 L9.04614498,16.2416806 L8.91804996,16.3176355 L8.76562434,16.4262592 L8.71799679,16.4648557 L8.65481316,16.5199565 L8.52792983,16.6460972 L8.42367344,16.7689235 L8.35698534,16.8592919 L8.26760632,16.9999275 C8.0976323,17.2933392 8,17.635268 8,18 C8,18.3651469 8.09785457,18.7074387 8.26877052,19.0020822 L8.31887,19.0838648 L8.42684461,19.2351206 L8.50680857,19.3305857 L8.60037613,19.4286552 L8.6715926,19.495132 L8.79637954,19.5974206 L8.91803971,19.6823589 L9.08331081,19.778019 L9.22825444,19.8456682 L9.37134755,19.8992009 L9.53706957,19.9461532 L9.68561354,19.9754322 L9.75403682,19.9850273 L9.82344927,19.9923144 C9.88774983,19.9976656 9.9436023,20 10,20 L10.131,19.994 L10.2460658,19.9850153 L10.4279309,19.9541139 L10.5803484,19.9145001 L10.6695934,19.8851592 L10.8145529,19.8271547 L10.9533782,19.7585785 L11.0818904,19.6823969 L11.2338039,19.5741897 L11.346761,19.4786104 L11.4542731,19.3729932 L11.5734008,19.2348084 L11.659431,19.116738 L11.714095,19.0310555 L11.7318119,19.0010775 C11.9021454,18.7074387 12,18.3651469 12,18 C12,17.635268 11.9023677,17.2933392 11.7318119,16.9989225 L11.6796896,16.9139089 L11.5763207,16.768916 L11.4349904,16.6068712 L11.3290016,16.5053966 L11.2820212,16.4648752 L11.2036205,16.4025794 L11.0819603,16.3176411 L10.9171512,16.2222197 L10.7721451,16.1544991 L10.6289851,16.1009091 L10.4631804,16.0539061 L10.3144394,16.0245762 L10.1660972,16.0067987 C10.111569,16.002306 10.0560538,16 10,16 Z M22,16 C21.9375358,16 21.8757404,16.0028636 21.814738,16.0084666 L21.6852634,16.0246231 L21.5372305,16.0538087 L21.3300544,16.114966 L21.1336666,16.1968595 L21.046145,16.2416806 C20.9586955,16.289226 20.8752629,16.3430488 20.7963795,16.4025794 L20.6548132,16.5199565 L20.5279298,16.6460972 L20.4236734,16.7689235 L20.3569853,16.8592919 L20.2676063,16.9999275 C20.0976323,17.2933392 20,17.635268 20,18 C20,18.3651469 20.0978546,18.7074387 20.2687705,19.0020822 L20.31887,19.0838648 L20.4268446,19.2351206 L20.5068086,19.3305857 L20.6003761,19.4286552 L20.6715926,19.495132 L20.7963795,19.5974206 L20.9180397,19.6823589 L21.0833108,19.778019 L21.2282544,19.8456682 L21.3713476,19.8992009 L21.5370696,19.9461532 L21.6856135,19.9754322 L21.7540368,19.9850273 L21.8234493,19.9923144 C21.8877498,19.9976656 21.9436023,20 22,20 L22.131,19.994 L22.2460658,19.9850153 L22.4279309,19.9541139 L22.5803484,19.9145001 L22.6695934,19.8851592 L22.8145529,19.8271547 L22.9533782,19.7585785 L23.0818904,19.6823969 L23.2338039,19.5741897 L23.346761,19.4786104 L23.4542731,19.3729932 L23.5734008,19.2348084 L23.659431,19.116738 L23.714095,19.0310555 L23.7318119,19.0010775 C23.9021454,18.7074387 24,18.3651469 24,18 C24,17.635268 23.9023677,17.2933392 23.7318119,16.9989225 L23.6796896,16.9139089 L23.5763207,16.768916 L23.4349904,16.6068712 L23.3290016,16.5053966 L23.2820212,16.4648752 L23.2036205,16.4025794 L23.0819603,16.3176411 L22.9171512,16.2222197 L22.7721451,16.1544991 L22.6289851,16.1009091 L22.4631804,16.0539061 L22.3144394,16.0245762 L22.1660972,16.0067987 L22.0836207,16.0017146 L22,16 Z M20.5857864,5 L6,5 C5.44771525,5 5,5.44771525 5,6 L5,16 C5,16.5522847 5.44771525,17 6,17 L6.12595483,17.0002435 C6.56991294,15.2748927 8.13607289,14 10,14 C11.8639271,14 13.4300871,15.2748927 13.8740452,17.0002435 L18.1259548,17.0002435 C18.5699129,15.2748927 20.1360729,14 22,14 C23.8639271,14 25.4300871,15.2748927 25.8740452,17.0002435 L26,17 C26.5522847,17 27,16.5522847 27,16 L27,12.618034 C27,12.2392619 26.7859976,11.8929988 26.4472136,11.7236068 L24.1451456,10.0725728 C24.0490106,10.0245053 23.9612537,9.96125368 23.8852524,9.88525237 L21.2928932,5.29289322 C21.1053568,5.10535684 20.8510029,5 20.5857864,5 Z M19,7 C19.5522847,7 20,7.44771525 20,8 L20,10 C20,10.5522847 19.5522847,11 19,11 C18.4477153,11 18,10.5522847 18,10 L18,8 C18,7.44771525 18.4477153,7 19,7 Z" id="Shape" fill="#0D0E10" fill-rule="nonzero"></path>
    </g>
</svg>