<?xml version="1.0" encoding="UTF-8"?>
<svg width="32px" height="24px" viewBox="0 0 32 24" version="1.1" xmlns="http://www.w3.org/2000/svg" xmlns:xlink="http://www.w3.org/1999/xlink">
    <title>vehicle-motorhome-extralarge</title>
    <g id="vehicle-motorhome-extralarge" stroke="none" stroke-width="1" fill="none" fill-rule="evenodd">
        <path d="M4.1571267,0.0579396065 L21.8918011,0.98807987 C22.4404832,1.01685691 22.9707256,1.19576254 23.4246848,1.50528022 L24.660007,2.34754531 C25.6376406,3.01411367 26.0051715,4.24104507 25.625909,5.30583075 L27.646,10.693 L29.6641006,12.0390329 C30.4430569,12.5583371 30.9316782,13.4089219 30.9933657,14.3355497 L31,14.5351838 L31,18 C31,19.6568542 29.6568542,21 28,21 L27.8737865,21.0007613 C27.429479,22.7256022 25.8635652,24 24,24 C22.1364348,24 20.570521,22.7256022 20.1262135,21.0007613 L11.8737865,21.0007613 C11.429479,22.7256022 9.86356525,24 8,24 C6.13643475,24 4.57052105,22.7256022 4.12621352,21.0007613 L4,21 C2.34314575,21 1,19.6568542 1,18 L1,5 C1,4.82974681 1.01418225,4.66280605 1.0414298,4.50029469 C1.01423316,4.33779272 1,4.17055853 1,4 L1,3.05382198 C1,1.39696773 2.34314575,0.0538219808 4,0.0538219808 L4.1571267,0.0579396065 Z M3,6.82932572 L3,18 C3,18.5522847 3.44771525,19 4,19 L4.12595483,19.0002435 C4.56991294,17.2748927 6.13607289,16 8,16 C9.86392711,16 11.4300871,17.2748927 11.8740452,19.0002435 L20.1259548,19.0002435 C20.5699129,17.2748927 22.1360729,16 24,16 C25.8639271,16 27.4300871,17.2748927 27.8740452,19.0002435 L28,19 C28.5522847,19 29,18.5522847 29,18 L29,14.5351838 C29,14.2008306 28.8328989,13.8885992 28.5547002,13.7031335 L26.2683752,12.1789168 C26.0938845,12.0625897 25.9603809,11.8943492 25.8867462,11.69799 L24.0710205,6.85539396 C23.8027257,6.94989423 23.5170711,7 23.2248631,7 L4,7 C3.64939781,7 3.31284272,6.93985718 3,6.82932572 Z M20,9 C20.5522847,9 21,9.44771525 21,10 L21,12 C21,12.5522847 20.5522847,13 20,13 C19.4477153,13 19,12.5522847 19,12 L19,10 C19,9.44771525 19.4477153,9 20,9 Z M21.7870499,2.98533479 L4,2.05382198 C3.44771525,2.05382198 3,2.50153723 3,3.05382198 L3,4 C3,4.25545575 3.09578713,4.48853922 3.25340382,4.66529284 L3.30725983,4.72109851 L3.39189159,4.79386079 L3.50579413,4.86954372 L3.58084917,4.90818201 C3.64032027,4.93559333 3.70268683,4.95736387 3.76749757,4.97281184 C3.84220651,4.99060738 3.92000638,5 4,5 L23.2248631,5 L23.2685942,4.99825449 L23.3213815,4.99143471 L23.368171,4.98092232 C23.4926485,4.94716139 23.6028859,4.8700137 23.6772861,4.76089331 C23.8476495,4.51102696 23.7831997,4.17036342 23.5333333,4 L22.2980112,3.1577349 C22.1466914,3.05456234 21.969944,2.99492713 21.7870499,2.98533479 Z M8.08361774,18.0017143 L7.91633444,18.0017143 L7.81476451,18.0084642 L7.68526337,18.0246231 L7.53723054,18.0538087 L7.3301454,18.1149336 L7.12117466,18.2029274 L7.03299433,18.2488938 L6.91188939,18.3216177 L6.76577203,18.4261432 L6.65496748,18.5198162 L6.49579649,18.6818647 L6.38014891,18.8266898 L6.30335654,18.9405325 L6.26775657,18.9996679 C6.09769155,19.2931318 6,19.6351573 6,20 C6,20.3651469 6.09785457,20.7074387 6.26877052,21.0020822 L6.31887,21.0838648 L6.42684461,21.2351206 L6.50680857,21.3305857 L6.60037613,21.4286552 L6.6715926,21.495132 L6.79637954,21.5974206 L6.91803971,21.6823589 L7.08331081,21.778019 L7.27382497,21.864087 L7.46300892,21.927089 L7.57204148,21.9541077 L7.72714629,21.9815438 L7.84686697,21.9942249 L8,22 L8.13,21.994822 L8.23310895,21.98656 L8.42793091,21.9541139 L8.53708052,21.9270641 L8.61002101,21.9052629 L8.7261765,21.8640853 L8.86628106,21.8031638 L8.95337822,21.7585785 L9.08189044,21.6823969 L9.25210648,21.5596518 L9.34676103,21.4786104 L9.45427306,21.3729932 L9.57340083,21.2348084 L9.65943098,21.116738 L9.71409496,21.0310555 L9.73181186,21.0010775 C9.90214543,20.7074387 10,20.3651469 10,20 C10,19.6959645 9.93215865,19.4077741 9.81078801,19.149741 L9.731,18.997822 L9.675,18.905822 L9.57851289,18.7717241 L9.48424829,18.6594513 L9.38967593,18.5616621 L9.282002,18.4648581 L9.20362046,18.4025794 C9.12860682,18.3459691 9.04947943,18.2945205 8.96676638,18.2487614 L8.761153,18.1499333 L8.62889914,18.1008807 L8.46311584,18.0538908 L8.31439485,18.0245691 L8.16607341,18.0067968 L8.08361774,18.0017143 Z M24.0836177,18.0017143 L23.9163344,18.0017143 L23.8147645,18.0084642 L23.6852634,18.0246231 L23.5372305,18.0538087 L23.3301454,18.1149336 L23.1211747,18.2029274 L23.0329943,18.2488938 L22.9118894,18.3216177 L22.765772,18.4261432 L22.6549675,18.5198162 L22.4957965,18.6818647 L22.3801489,18.8266898 L22.3033565,18.9405325 L22.2677566,18.9996679 C22.0976915,19.2931318 22,19.6351573 22,20 C22,20.3651469 22.0978546,20.7074387 22.2687705,21.0020822 L22.31887,21.0838648 L22.4268446,21.2351206 L22.5068086,21.3305857 L22.6003761,21.4286552 L22.6715926,21.495132 L22.7963795,21.5974206 L22.9180397,21.6823589 L23.0833108,21.778019 L23.273825,21.864087 L23.4630089,21.927089 L23.5720415,21.9541077 L23.7271463,21.9815438 L23.846867,21.9942249 L24,22 L24.13,21.994822 L24.233109,21.98656 L24.4279309,21.9541139 L24.5370805,21.9270641 L24.610021,21.9052629 L24.7261765,21.8640853 L24.8662811,21.8031638 L24.9533782,21.7585785 L25.0818904,21.6823969 L25.2521065,21.5596518 L25.346761,21.4786104 L25.4542731,21.3729932 L25.5734008,21.2348084 L25.659431,21.116738 L25.714095,21.0310555 L25.7318119,21.0010775 C25.9021454,20.7074387 26,20.3651469 26,20 C26,19.6959645 25.9321586,19.4077741 25.810788,19.149741 L25.731,18.997822 L25.675,18.905822 L25.5785129,18.7717241 L25.4842483,18.6594513 L25.3896759,18.5616621 L25.282002,18.4648581 L25.2036205,18.4025794 C25.1286068,18.3459691 25.0494794,18.2945205 24.9667664,18.2487614 L24.761153,18.1499333 L24.6288991,18.1008807 L24.4631158,18.0538908 L24.3143949,18.0245691 L24.1660734,18.0067968 L24.0836177,18.0017143 Z" id="Shape" fill="#0D0E10" fill-rule="nonzero"></path>
    </g>
</svg>