<?xml version="1.0" encoding="UTF-8"?>
<svg width="32px" height="24px" viewBox="0 0 32 24" version="1.1" xmlns="http://www.w3.org/2000/svg" xmlns:xlink="http://www.w3.org/1999/xlink">
    <title>vehicle-caravan</title>
    <g id="vehicle-caravan" stroke="none" stroke-width="1" fill="none" fill-rule="evenodd">
        <path d="M14.4535994,21.018647 L14.4001801,21.1067493 L14.3455161,21.1924317 L14.2758552,21.294521 L14.1898251,21.4125913 L14.0882051,21.5407058 L13.9690773,21.6788906 L13.8558577,21.799724 L13.7483456,21.9053411 L13.6386475,22.0053813 L13.5256903,22.1009606 L13.3941316,22.2031893 L13.2422181,22.3113965 L13.1017552,22.4028258 L12.973243,22.4790074 L12.839151,22.551734 L12.7003256,22.6203101 L12.557563,22.6840165 L12.4126035,22.742021 L12.2942386,22.7851114 L12.2049936,22.8144523 L12.0834406,22.8501908 L11.9310231,22.8898046 L11.7629559,22.9258538 L11.5810909,22.9567552 L11.4115448,22.9781577 L11.332,22.985 L11.2544879,22.9911972 L11.227,22.992 L11.1666772,22.9965583 L11.139,22.997 L11.043698,22.9995226 L11,23 C10.8862985,23 10.7751272,22.9952069 10.6146319,22.9813834 L10.4762904,22.9656477 L10.4078672,22.9560525 L10.2988417,22.9376777 L10.1502977,22.9083987 L9.99188955,22.8704137 L9.82616753,22.8234615 L9.67056077,22.7724062 L9.52746766,22.7188735 L9.3823927,22.6579921 L9.23744908,22.5903429 L9.08141985,22.5089767 L8.91614875,22.4133166 L8.77314107,22.3222391 L8.6514809,22.2373009 L8.52849175,22.1441787 L8.4037048,22.04189 L8.30686754,21.9571598 L8.23565107,21.8906831 L8.15333949,21.8092656 L8.05977193,21.7111961 L7.97360681,21.6148335 L7.89364285,21.5193684 L7.79904562,21.397132 L7.69107102,21.2458762 L7.61343171,21.1286041 L7.53876616,21.0056183 C7.35611513,20.6907447 7.2176239,20.3530499 7.12681497,20.0012148 L5.99999946,20 C3.23857625,20 0.99999946,17.7614237 0.99999946,15 L0.99999946,6.5273727 C0.998505254,4.00304556 2.87885324,1.87353154 5.38396761,1.56267435 C8.395206,1.18729597 11.6008125,1 14.9999995,1 C18.3991875,1 21.604794,1.18729597 24.6160324,1.56267435 C27.1211468,1.87353154 29.0014947,4.00304556 28.9999995,6.52618815 L28.9999995,15 C28.9999995,16.1261445 28.6276987,17.1653335 27.9994646,18.0011995 L31,18 C31.5522847,18 32,18.4477153 32,19 C32,19.5522847 31.5522847,20 31,20 L14.8728682,20.0006195 C14.7811759,20.3546659 14.6406206,20.6963091 14.4535994,21.018647 Z M11,17 C10.9375358,17 10.8757404,17.0028636 10.814738,17.0084666 L10.6852634,17.0246231 L10.5372305,17.0538087 L10.3300544,17.114966 L10.1336666,17.1968595 L10.046145,17.2416806 C9.95869546,17.289226 9.87526293,17.3430488 9.79637954,17.4025794 L9.65481316,17.5199565 L9.52792983,17.6460972 L9.42367344,17.7689235 L9.35698534,17.8592919 L9.26760632,17.9999275 C9.0976323,18.2933392 9,18.635268 9,19 C9,19.3651469 9.09785457,19.7074387 9.26877052,20.0020822 L9.31887,20.0838648 L9.42684461,20.2351206 L9.50680857,20.3305857 L9.60037613,20.4286552 L9.6715926,20.495132 L9.79637954,20.5974206 L9.91803971,20.6823589 L10.0833108,20.778019 L10.2282544,20.8456682 L10.3713476,20.8992009 L10.5370696,20.9461532 L10.6856135,20.9754322 L10.7540368,20.9850273 L10.8234493,20.9923144 C10.8877498,20.9976656 10.9436023,21 11,21 L11.0890089,20.9980548 L11.102,20.997 L11.1674661,20.9930883 L11.131,20.994 L11.2460658,20.9850153 L11.4279309,20.9541139 L11.5803484,20.9145001 L11.6695934,20.8851592 L11.8145529,20.8271547 L11.9533782,20.7585785 L12.0818904,20.6823969 L12.2338039,20.5741897 L12.346761,20.4786104 L12.4542731,20.3729932 L12.5734008,20.2348084 L12.659431,20.116738 L12.714095,20.0310555 L12.7318119,20.0010775 C12.9021454,19.7074387 13,19.3651469 13,19 C13,18.730083 12.9465305,18.4726545 12.8496058,18.2377288 C12.8158833,18.1559783 12.7768382,18.0768478 12.7329403,18.000873 L12.6796896,17.9139089 L12.5763207,17.768916 L12.4349904,17.6068712 L12.3290016,17.5053966 L12.2820212,17.4648752 L12.2036205,17.4025794 L12.0819603,17.3176411 L11.9171512,17.2222197 L11.7721451,17.1544991 L11.6289851,17.1009091 L11.4631804,17.0539061 L11.3144394,17.0245762 L11.1660972,17.0067987 L11.0836207,17.0017146 L11,17 Z M14.9999995,3 C11.6812337,3 8.55798596,3.18248395 5.63025671,3.54745184 C4.12723831,3.73395992 2.99910297,5.01164243 2.99999947,6.52618815 L2.99999947,15 C2.99999947,16.6568542 4.34314575,18 5.99999947,18 L7.12908495,18.000126 C7.22462659,17.6377378 7.37396916,17.2804573 7.57965113,16.9271707 L7.66903015,16.7865351 L7.74773145,16.6717306 L7.81441955,16.5813622 L7.89890115,16.4746787 L8.00315753,16.3518525 L8.11787308,16.227739 L8.24475641,16.1015983 L8.37826613,15.9803372 L8.51983252,15.86296 L8.59161772,15.8061618 C8.74970072,15.686862 8.91652433,15.5793565 9.13450723,15.4615355 L9.22202886,15.4167144 L9.36391273,15.3509237 L9.56030053,15.2690302 L9.76382065,15.1967951 L9.97099677,15.1356379 L10.1503657,15.0915815 L10.2983985,15.0623959 L10.4376135,15.040015 L10.6318095,15.0168499 C10.7539286,15.0056333 10.8767649,15 11.041,15.0003984 L11.2066743,15.0055037 L11.2891508,15.0105879 L11.4040758,15.0210077 L11.5524179,15.0387851 L11.7013643,15.0623608 L11.8501054,15.0916907 L12.0086548,15.1297289 L12.1744595,15.176732 L12.3301414,15.2278422 L12.4733014,15.2814321 L12.6184408,15.3423778 L12.7634469,15.4100984 L12.9192676,15.4913925 L13.0840767,15.5868139 L13.2268589,15.6777609 L13.3485191,15.7626991 L13.4478306,15.8367119 L13.5882896,15.9503908 L13.6352701,15.9909123 L13.7121158,16.060753 L13.8181046,16.1622275 L13.9422575,16.2922815 L14.0835877,16.4543263 L14.2048359,16.6079086 L14.3082049,16.7529016 L14.384739,16.8685349 L14.4623992,16.996392 C14.6446919,17.3110691 14.7828979,17.6485023 14.8735074,18.0000353 L23.9999995,18 C25.6568542,18 26.9999995,16.6568542 26.9999995,15 L26.9999995,6.52618815 C27.000897,5.01164243 25.8727617,3.73395992 24.3697433,3.54745184 C21.442014,3.18248395 18.3187663,3 14.9999995,3 Z M21,6 C22.6568542,6 24,7.34314575 24,9 L24,11 C24,12.6568542 22.6568542,14 21,14 L18,14 C16.3431458,14 15,12.6568542 15,11 L15,9 C15,7.34314575 16.3431458,6 18,6 L21,6 Z M21,8 L18,8 C17.4477153,8 17,8.44771525 17,9 L17,11 C17,11.5522847 17.4477153,12 18,12 L21,12 C21.5522847,12 22,11.5522847 22,11 L22,9 C22,8.44771525 21.5522847,8 21,8 Z" id="Combined-Shape" fill="#000000" fill-rule="nonzero"></path>
    </g>
</svg>