<?xml version="1.0" encoding="UTF-8"?>
<svg width="32px" height="24px" viewBox="0 0 32 24" version="1.1" xmlns="http://www.w3.org/2000/svg" xmlns:xlink="http://www.w3.org/1999/xlink">
    <title>vehicle-motorhome-medium</title>
    <g id="vehicle-motorhome-medium" stroke="none" stroke-width="1" fill="none" fill-rule="evenodd">
        <path d="M22.381966,2 C23.5182822,2 24.5570715,2.64200713 25.0652476,3.65835921 L27.551,8.63 L29.6641006,10.0390329 C30.4430569,10.5583371 30.9316782,11.4089219 30.9933657,12.3355497 L31,12.5351838 L31,16 C31,17.6568542 29.6568542,19 28,19 L27.8737865,19.0007613 C27.429479,20.7256022 25.8635652,22 24,22 C22.1364348,22 20.570521,20.7256022 20.1262135,19.0007613 L11.8737865,19.0007613 C11.429479,20.7256022 9.86356525,22 8,22 C6.13643475,22 4.57052105,20.7256022 4.12621352,19.0007613 L4,19 C2.34314575,19 1,17.6568542 1,16 L1,5 C1,3.34314575 2.34314575,2 4,2 L22.381966,2 Z M8,16 C7.93753581,16 7.87574044,16.0028636 7.81473801,16.0084666 L7.68526337,16.0246231 L7.53723054,16.0538087 L7.33005441,16.114966 L7.13366661,16.1968595 L7.04614498,16.2416806 L6.91804996,16.3176355 L6.76562434,16.4262592 L6.71799679,16.4648557 L6.65481316,16.5199565 L6.52792983,16.6460972 L6.42367344,16.7689235 L6.35698534,16.8592919 L6.26760632,16.9999275 C6.0976323,17.2933392 6,17.635268 6,18 C6,18.3651469 6.09785457,18.7074387 6.26877052,19.0020822 L6.31887,19.0838648 L6.42684461,19.2351206 L6.50680857,19.3305857 L6.60037613,19.4286552 L6.6715926,19.495132 L6.79637954,19.5974206 L6.91803971,19.6823589 L7.08331081,19.778019 L7.22825444,19.8456682 L7.37134755,19.8992009 L7.53706957,19.9461532 L7.68561354,19.9754322 L7.75403682,19.9850273 L7.82344927,19.9923144 C7.88774983,19.9976656 7.9436023,20 8,20 C8.0563977,20 8.11225017,19.9976656 8.16746608,19.9930883 L8,20 L8.08900888,19.9980548 L8.24606582,19.9850153 L8.42793091,19.9541139 L8.58034841,19.9145001 L8.66959336,19.8851592 L8.81455285,19.8271547 L8.95337822,19.7585785 L9.08189044,19.6823969 L9.23380391,19.5741897 L9.34676103,19.4786104 L9.45427306,19.3729932 L9.57340083,19.2348084 L9.65943098,19.116738 L9.71409496,19.0310555 L9.73181186,19.0010775 C9.90214543,18.7074387 10,18.3651469 10,18 C10,17.635268 9.9023677,17.2933392 9.73181186,16.9989225 L9.67968963,16.9139089 L9.57632071,16.768916 L9.43499044,16.6068712 L9.32900165,16.5053966 L9.28202119,16.4648752 L9.20362046,16.4025794 L9.08196029,16.3176411 L8.91715119,16.2222197 L8.7721451,16.1544991 L8.62898506,16.1009091 L8.46318043,16.0539061 L8.31443935,16.0245762 L8.1660972,16.0067987 C8.11156902,16.002306 8.05605381,16 8,16 Z M22.7963795,16.4025794 L22.6548132,16.5199565 L22.5279298,16.6460972 L22.4236734,16.7689235 L22.3569853,16.8592919 L22.2676063,16.9999275 C22.0976323,17.2933392 22,17.635268 22,18 C22,18.3651469 22.0978546,18.7074387 22.2687705,19.0020822 L22.31887,19.0838648 L22.4268446,19.2351206 L22.5068086,19.3305857 L22.6003761,19.4286552 L22.6715926,19.495132 L22.7963795,19.5974206 L22.9180397,19.6823589 L23.0833108,19.778019 L23.2282544,19.8456682 L23.3713476,19.8992009 L23.5370696,19.9461532 L23.6856135,19.9754322 L23.7540368,19.9850273 L23.8234493,19.9923144 C23.8877498,19.9976656 23.9436023,20 24,20 C24.0563977,20 24.1122502,19.9976656 24.1674661,19.9930883 L24,20 L24.0890089,19.9980548 L24.2460658,19.9850153 L24.4279309,19.9541139 L24.5803484,19.9145001 L24.6695934,19.8851592 L24.8145529,19.8271547 L24.9533782,19.7585785 L25.0818904,19.6823969 L25.2338039,19.5741897 L25.346761,19.4786104 L25.4542731,19.3729932 L25.5734008,19.2348084 L25.659431,19.116738 L25.714095,19.0310555 L25.7318119,19.0010775 C25.9021454,18.7074387 26,18.3651469 26,18 C26,17.635268 25.9023677,17.2933392 25.7318119,16.9989225 L25.6796896,16.9139089 L25.5763207,16.768916 L25.4349904,16.6068712 L25.3290016,16.5053966 L25.2820212,16.4648752 L25.2036205,16.4025794 L25.0819603,16.3176411 L24.9171512,16.2222197 L24.7721451,16.1544991 L24.6289851,16.1009091 L24.4631804,16.0539061 L24.3144394,16.0245762 L24.1660972,16.0067987 L24.0836207,16.0017146 L24,16 C23.9375358,16 23.8757404,16.0028636 23.814738,16.0084666 L23.6852634,16.0246231 L23.5372305,16.0538087 L23.3300544,16.114966 L23.1336666,16.1968595 L23.046145,16.2416806 C22.9586955,16.289226 22.8752629,16.3430488 22.7963795,16.4025794 Z M22.381966,4 L4,4 C3.44771525,4 3,4.44771525 3,5 L3,16 C3,16.5522847 3.44771525,17 4,17 L4.12595483,17.0002435 C4.56991294,15.2748927 6.13607289,14 8,14 C9.86392711,14 11.4300871,15.2748927 11.8740452,17.0002435 L20.1259548,17.0002435 C20.5699129,15.2748927 22.1360729,14 24,14 C25.8639271,14 27.4300871,15.2748927 27.8740452,17.0002435 L28,17 C28.5522847,17 29,16.5522847 29,16 L29,12.5351838 C29,12.2008306 28.8328989,11.8885992 28.5547002,11.7031335 L26.220963,10.1473086 C26.0761638,10.0507759 25.9590632,9.91812637 25.881236,9.76247195 L23.2763932,4.5527864 C23.1070012,4.21400238 22.7607381,4 22.381966,4 Z M16,6 C17.6568542,6 19,7.34314575 19,9 L19,12 C19,13.6568542 17.6568542,15 16,15 L15,15 C13.3431458,15 12,13.6568542 12,12 L12,9 C12,7.34314575 13.3431458,6 15,6 L16,6 Z M16,8 L15,8 C14.4477153,8 14,8.44771525 14,9 L14,12 C14,12.5522847 14.4477153,13 15,13 L16,13 C16.5522847,13 17,12.5522847 17,12 L17,9 C17,8.44771525 16.5522847,8 16,8 Z" id="Shape" fill="#000000" fill-rule="nonzero"></path>
    </g>
</svg>