<?xml version="1.0" encoding="UTF-8"?>
<svg width="32px" height="24px" viewBox="0 0 32 24" version="1.1" xmlns="http://www.w3.org/2000/svg" xmlns:xlink="http://www.w3.org/1999/xlink">
    <title>vehicle-trailer</title>
    <g id="vehicle-trailer" stroke="none" stroke-width="1" fill="none" fill-rule="evenodd">
        <path d="M29,18 L17.4638535,18.0008731 L17.3455161,18.1924317 L17.2758552,18.294521 L17.1898251,18.4125913 L17.0882051,18.5407058 L16.9690773,18.6788906 L16.8558577,18.799724 L16.7483456,18.9053411 L16.6386475,19.0053813 L16.5256903,19.1009606 L16.3941316,19.2031893 L16.2422181,19.3113965 L16.1017552,19.4028258 L15.973243,19.4790074 L15.839151,19.551734 L15.7003256,19.6203101 L15.557563,19.6840165 L15.4126035,19.742021 L15.2942386,19.7851114 L15.0834406,19.8501908 L14.9310231,19.8898046 L14.7629559,19.9258538 L14.5810909,19.9567552 L14.4115448,19.9781577 L14.2544879,19.9911972 L14.227,19.992 L14.1666772,19.9965583 L14,20 C13.8862985,20 13.7751272,19.9952069 13.6146319,19.9813834 L13.4078672,19.9560525 L13.1502977,19.9083987 L12.9918895,19.8704137 L12.8261675,19.8234615 L12.6705608,19.7724062 L12.5274677,19.7188735 L12.3823927,19.6579921 L12.2374491,19.5903429 L12.0814199,19.5089767 L11.9161488,19.4133166 L11.7731411,19.3222391 L11.6514809,19.2373009 L11.5284917,19.1441787 L11.4037048,19.04189 L11.3068675,18.9571598 L11.1533395,18.8092656 L11.0597719,18.7111961 L10.9736068,18.6148335 L10.8936428,18.5193684 L10.7990456,18.397132 L10.691071,18.2458762 L10.6134317,18.1286041 L10.535,18 L5,18 C3.34314575,18 2,16.6568542 2,15 L2,7 C2,5.34314575 3.34314575,4 5,4 L19,4 C22.8659932,4 26,7.13400675 26,11 L26,16 L29,16 C29.5522847,16 30,16.4477153 30,17 C30,17.5522847 29.5522847,18 29,18 Z M14,14 C13.9375358,14 13.8757404,14.0028636 13.814738,14.0084666 L13.6852634,14.0246231 L13.5372305,14.0538087 L13.3300544,14.114966 L13.1336666,14.1968595 L13.046145,14.2416806 C12.9586955,14.289226 12.8752629,14.3430488 12.7963795,14.4025794 L12.6548132,14.5199565 L12.5279298,14.6460972 L12.4236734,14.7689235 L12.3569853,14.8592919 L12.2676063,14.9999275 C12.0976323,15.2933392 12,15.635268 12,16 C12,16.3651469 12.0978546,16.7074387 12.2687705,17.0020822 L12.31887,17.0838648 L12.4268446,17.2351206 L12.5068086,17.3305857 L12.6003761,17.4286552 L12.6715926,17.495132 L12.7963795,17.5974206 L12.9180397,17.6823589 L13.0833108,17.778019 L13.2282544,17.8456682 L13.3713476,17.8992009 L13.5370696,17.9461532 L13.6856135,17.9754322 L13.7540368,17.9850273 L13.9146882,17.9981639 L14.029,17.999 L14.2460658,17.9850153 L14.4279309,17.9541139 L14.5803484,17.9145001 L14.6695934,17.8851592 L14.8145529,17.8271547 L14.9533782,17.7585785 L15.0818904,17.6823969 L15.2338039,17.5741897 L15.346761,17.4786104 L15.4542731,17.3729932 L15.5734008,17.2348084 L15.659431,17.116738 L15.714095,17.0310555 L15.7318119,17.0010775 C15.9021454,16.7074387 16,16.3651469 16,16 C16,15.635268 15.9023677,15.2933392 15.7318119,14.9989225 L15.6796896,14.9139089 L15.5763207,14.768916 L15.4349904,14.6068712 L15.3290016,14.5053966 L15.2820212,14.4648752 L15.2036205,14.4025794 L15.0819603,14.3176411 L14.9171512,14.2222197 L14.7721451,14.1544991 L14.6289851,14.1009091 L14.4631804,14.0539061 L14.3144394,14.0245762 L14.1660972,14.0067987 L14.0836207,14.0017146 L14,14 Z M19,6 L5,6 C4.44771525,6 4,6.44771525 4,7 L4,15 C4,15.5522847 4.44771525,16 5,16 L10,16.0010034 C10,15.2893754 10.1873458,14.6010081 10.5796511,13.9271707 L10.6690301,13.7865351 L10.7477315,13.6717306 L10.8144196,13.5813622 L10.8989011,13.4746787 L11.0031575,13.3518525 L11.1178731,13.227739 L11.2447564,13.1015983 L11.3782661,12.9803372 L11.5198325,12.86296 L11.5916177,12.8061618 C11.7497007,12.686862 11.9165243,12.5793565 12.1345072,12.4615355 L12.2220289,12.4167144 L12.3639127,12.3509237 L12.5603005,12.2690302 L12.7638206,12.1967951 L12.9709968,12.1356379 L13.1503657,12.0915815 L13.2983985,12.0623959 L13.4376135,12.040015 L13.6318095,12.0168499 C13.7539286,12.0056333 13.8767649,12 14.041,12.0003984 L14.2066743,12.0055037 L14.2891508,12.0105879 L14.5524179,12.0387851 L14.7013643,12.0623608 L14.8501054,12.0916907 L15.0086548,12.1297289 L15.1744595,12.176732 L15.3301414,12.2278422 L15.4733014,12.2814321 L15.6184408,12.3423778 L15.7634469,12.4100984 L15.9192676,12.4913925 L16.0840767,12.5868139 L16.2268589,12.6777609 L16.3485191,12.7626991 L16.4478306,12.8367119 L16.6352701,12.9909123 L16.7121158,13.060753 L16.8181046,13.1622275 L16.9422575,13.2922815 L17.0835877,13.4543263 L17.2048359,13.6079086 L17.3082049,13.7529016 L17.384739,13.8685349 L17.4623992,13.996392 C17.7687475,14.5252162 17.9505869,15.1183073 17.99126,15.7345824 L18,16 L24,16 L24,11 L23.9953805,10.7831104 C23.8818181,8.12230671 21.6887547,6 19,6 Z" id="Shape" fill="#0D0E10" fill-rule="nonzero"></path>
    </g>
</svg>