<?xml version="1.0" encoding="UTF-8"?>
<svg width="32px" height="24px" viewBox="0 0 32 24" version="1.1" xmlns="http://www.w3.org/2000/svg" xmlns:xlink="http://www.w3.org/1999/xlink">
    <title>vehicle-car-standard</title>
    <g id="vehicle-car-standard" stroke="none" stroke-width="1" fill="none" fill-rule="evenodd">
        <path d="M16.5857864,3 C17.3814359,3 18.1444976,3.31607052 18.7071068,3.87867966 L23.125,8.296 L27.114172,9.89160289 C28.1932011,10.3232145 28.9202977,11.3359944 28.9938452,12.4844447 L29,12.677033 L29,15 C29,16.6568542 27.6568542,18 26,18 L25.8737865,18.0007613 C25.429479,19.7256022 23.8635652,21 22,21 C20.1364348,21 18.570521,19.7256022 18.1262135,18.0007613 L13.8737865,18.0007613 C13.429479,19.7256022 11.8635652,21 10,21 C8.13643475,21 6.57052105,19.7256022 6.12621352,18.0007613 L6,18 C4.34314575,18 3,16.6568542 3,15 L3,9.33333333 C3,8.68422269 3.21053362,8.05262185 3.6,7.53333333 L6.1,4.2 C6.66656315,3.44458247 7.55572809,3 8.5,3 L16.5857864,3 Z M8.79637954,15.4025794 L8.65481316,15.5199565 L8.52792983,15.6460972 L8.42367344,15.7689235 L8.35698534,15.8592919 L8.26760632,15.9999275 C8.0976323,16.2933392 8,16.635268 8,17 C8,17.3651469 8.09785457,17.7074387 8.26877052,18.0020822 L8.31887,18.0838648 L8.42684461,18.2351206 L8.50680857,18.3305857 L8.60037613,18.4286552 L8.6715926,18.495132 L8.79637954,18.5974206 L8.91803971,18.6823589 L9.08331081,18.778019 L9.22825444,18.8456682 L9.37134755,18.8992009 L9.53706957,18.9461532 L9.68561354,18.9754322 L9.75403682,18.9850273 L9.82344927,18.9923144 C9.88774983,18.9976656 9.9436023,19 10,19 C10.0563977,19 10.1122502,18.9976656 10.1674661,18.9930883 L10,19 L10.0890089,18.9980548 L10.2460658,18.9850153 L10.4279309,18.9541139 L10.5803484,18.9145001 L10.6695934,18.8851592 L10.8145529,18.8271547 L10.9533782,18.7585785 L11.0818904,18.6823969 L11.2338039,18.5741897 L11.346761,18.4786104 L11.4542731,18.3729932 L11.5734008,18.2348084 L11.659431,18.116738 L11.714095,18.0310555 L11.7318119,18.0010775 C11.9021454,17.7074387 12,17.3651469 12,17 C12,16.635268 11.9023677,16.2933392 11.7318119,15.9989225 L11.6796896,15.9139089 L11.5763207,15.768916 L11.4349904,15.6068712 L11.3290016,15.5053966 L11.2820212,15.4648752 L11.2036205,15.4025794 L11.0819603,15.3176411 L10.9171512,15.2222197 L10.7721451,15.1544991 L10.6289851,15.1009091 L10.4631804,15.0539061 L10.3144394,15.0245762 L10.1660972,15.0067987 L10.0836207,15.0017146 L10,15 C9.93753581,15 9.87574044,15.0028636 9.81473801,15.0084666 L9.68526337,15.0246231 L9.53723054,15.0538087 L9.33005441,15.114966 L9.13366661,15.1968595 L9.04614498,15.2416806 C8.95869546,15.289226 8.87526293,15.3430488 8.79637954,15.4025794 Z M20.7963795,15.4025794 L20.6548132,15.5199565 L20.5279298,15.6460972 L20.4236734,15.7689235 L20.3569853,15.8592919 L20.2676063,15.9999275 C20.0976323,16.2933392 20,16.635268 20,17 C20,17.3651469 20.0978546,17.7074387 20.2687705,18.0020822 L20.31887,18.0838648 L20.4268446,18.2351206 L20.5068086,18.3305857 L20.6003761,18.4286552 L20.6715926,18.495132 L20.7963795,18.5974206 L20.9180397,18.6823589 L21.0833108,18.778019 L21.2282544,18.8456682 L21.3713476,18.8992009 L21.5370696,18.9461532 L21.6856135,18.9754322 L21.7540368,18.9850273 L21.8234493,18.9923144 C21.8877498,18.9976656 21.9436023,19 22,19 C22.0563977,19 22.1122502,18.9976656 22.1674661,18.9930883 L22,19 L22.0890089,18.9980548 L22.2460658,18.9850153 L22.4279309,18.9541139 L22.5803484,18.9145001 L22.6695934,18.8851592 L22.8145529,18.8271547 L22.9533782,18.7585785 L23.0818904,18.6823969 L23.2338039,18.5741897 L23.346761,18.4786104 L23.4542731,18.3729932 L23.5734008,18.2348084 L23.659431,18.116738 L23.714095,18.0310555 L23.7318119,18.0010775 C23.9021454,17.7074387 24,17.3651469 24,17 C24,16.635268 23.9023677,16.2933392 23.7318119,15.9989225 L23.6796896,15.9139089 L23.5763207,15.768916 L23.4349904,15.6068712 L23.3290016,15.5053966 L23.2820212,15.4648752 L23.2036205,15.4025794 L23.0819603,15.3176411 L22.9171512,15.2222197 L22.7721451,15.1544991 L22.6289851,15.1009091 L22.4631804,15.0539061 L22.3144394,15.0245762 L22.1660972,15.0067987 L22.0836207,15.0017146 L22,15 C21.9375358,15 21.8757404,15.0028636 21.814738,15.0084666 L21.6852634,15.0246231 L21.5372305,15.0538087 L21.3300544,15.114966 L21.1336666,15.1968595 L21.046145,15.2416806 C20.9586955,15.289226 20.8752629,15.3430488 20.7963795,15.4025794 Z M16.5857864,5 L8.5,5 C8.1852427,5 7.88885438,5.14819416 7.7,5.4 L5.2,8.73333333 C5.07017787,8.9064295 5,9.11696312 5,9.33333333 L5,15 C5,15.5522847 5.44771525,16 6,16 L6.12595483,16.0002435 C6.56991294,14.2748927 8.13607289,13 10,13 C11.8639271,13 13.4300871,14.2748927 13.8740452,16.0002435 L18.1259548,16.0002435 C18.5699129,14.2748927 20.1360729,13 22,13 C23.8639271,13 25.4300871,14.2748927 25.8740452,16.0002435 L26,16 C26.5522847,16 27,15.5522847 27,15 L27,12.677033 C27,12.2681284 26.7510491,11.9004196 26.3713907,11.7485563 L22.190577,10.0762308 C22.0648364,10.0259346 21.9506221,9.95062208 21.8548609,9.85486089 L17.2928932,5.29289322 C17.1053568,5.10535684 16.8510029,5 16.5857864,5 Z" id="Shape" fill="#0D0E10" fill-rule="nonzero"></path>
    </g>
</svg>