<?xml version="1.0" encoding="UTF-8"?>
<svg width="32px" height="24px" viewBox="0 0 32 24" version="1.1" xmlns="http://www.w3.org/2000/svg" xmlns:xlink="http://www.w3.org/1999/xlink">
    <title>vehicle-car-large</title>
    <g id="vehicle-car-large" stroke="none" stroke-width="1" fill="none" fill-rule="evenodd">
        <path d="M19.5857864,3 C20.3814359,3 21.1444976,3.31607052 21.7071068,3.87867966 L26.125,8.296 L30.114172,9.89160289 C31.1932011,10.3232145 31.9202977,11.3359944 31.9938452,12.4844447 L32,12.677033 L32,15 C32,16.6568542 30.6568542,18 29,18 L28.8737865,18.0007613 C28.429479,19.7256022 26.8635652,21 25,21 C23.1364348,21 21.570521,19.7256022 21.1262135,18.0007613 L10.8737865,18.0007613 C10.429479,19.7256022 8.86356525,21 7,21 C5.13643475,21 3.57052105,19.7256022 3.12621352,18.0007613 L3,18 C1.34314575,18 0,16.6568542 0,15 L0,9.33333333 C0,8.68422269 0.210533616,8.05262185 0.6,7.53333333 L3.1,4.2 C3.66656315,3.44458247 4.55572809,3 5.5,3 L19.5857864,3 Z M7,15 C6.93753581,15 6.87574044,15.0028636 6.81473801,15.0084666 L6.68526337,15.0246231 L6.53723054,15.0538087 L6.33005441,15.114966 L6.13366661,15.1968595 L6.04614498,15.2416806 L5.91804996,15.3176355 L5.76562434,15.4262592 L5.71799679,15.4648557 L5.65481316,15.5199565 L5.52792983,15.6460972 L5.42367344,15.7689235 L5.35698534,15.8592919 L5.26760632,15.9999275 C5.0976323,16.2933392 5,16.635268 5,17 C5,17.3651469 5.09785457,17.7074387 5.26877052,18.0020822 L5.31887,18.0838648 L5.42684461,18.2351206 L5.50680857,18.3305857 L5.60037613,18.4286552 L5.6715926,18.495132 L5.79637954,18.5974206 L5.91803971,18.6823589 L6.08331081,18.778019 L6.22825444,18.8456682 L6.37134755,18.8992009 L6.53706957,18.9461532 L6.68561354,18.9754322 L6.75403682,18.9850273 L6.82344927,18.9923144 C6.88774983,18.9976656 6.9436023,19 7,19 C7.0563977,19 7.11225017,18.9976656 7.16746608,18.9930883 L7,19 L7.08900888,18.9980548 L7.24606582,18.9850153 L7.42793091,18.9541139 L7.58034841,18.9145001 L7.66959336,18.8851592 L7.81455285,18.8271547 L7.95337822,18.7585785 L8.08189044,18.6823969 L8.23380391,18.5741897 L8.34676103,18.4786104 L8.45427306,18.3729932 L8.57340083,18.2348084 L8.65943098,18.116738 L8.71409496,18.0310555 L8.73181186,18.0010775 C8.90214543,17.7074387 9,17.3651469 9,17 C9,16.635268 8.9023677,16.2933392 8.73181186,15.9989225 L8.67968963,15.9139089 L8.57632071,15.768916 L8.43499044,15.6068712 L8.32900165,15.5053966 L8.28202119,15.4648752 L8.20362046,15.4025794 L8.08196029,15.3176411 L7.91715119,15.2222197 L7.7721451,15.1544991 L7.62898506,15.1009091 L7.46318043,15.0539061 L7.31443935,15.0245762 L7.1660972,15.0067987 C7.11156902,15.002306 7.05605381,15 7,15 Z M23.7963795,15.4025794 L23.6548132,15.5199565 L23.5279298,15.6460972 L23.4236734,15.7689235 L23.3569853,15.8592919 L23.2676063,15.9999275 C23.0976323,16.2933392 23,16.635268 23,17 C23,17.3651469 23.0978546,17.7074387 23.2687705,18.0020822 L23.31887,18.0838648 L23.4268446,18.2351206 L23.5068086,18.3305857 L23.6003761,18.4286552 L23.6715926,18.495132 L23.7963795,18.5974206 L23.9180397,18.6823589 L24.0833108,18.778019 L24.2282544,18.8456682 L24.3713476,18.8992009 L24.5370696,18.9461532 L24.6856135,18.9754322 L24.7540368,18.9850273 L24.8234493,18.9923144 C24.8877498,18.9976656 24.9436023,19 25,19 C25.0563977,19 25.1122502,18.9976656 25.1674661,18.9930883 L25,19 L25.0890089,18.9980548 L25.2460658,18.9850153 L25.4279309,18.9541139 L25.5803484,18.9145001 L25.6695934,18.8851592 L25.8145529,18.8271547 L25.9533782,18.7585785 L26.0818904,18.6823969 L26.2338039,18.5741897 L26.346761,18.4786104 L26.4542731,18.3729932 L26.5734008,18.2348084 L26.659431,18.116738 L26.714095,18.0310555 L26.7318119,18.0010775 C26.9021454,17.7074387 27,17.3651469 27,17 C27,16.635268 26.9023677,16.2933392 26.7318119,15.9989225 L26.6796896,15.9139089 L26.5763207,15.768916 L26.4349904,15.6068712 L26.3290016,15.5053966 L26.2820212,15.4648752 L26.2036205,15.4025794 L26.0819603,15.3176411 L25.9171512,15.2222197 L25.7721451,15.1544991 L25.6289851,15.1009091 L25.4631804,15.0539061 L25.3144394,15.0245762 L25.1660972,15.0067987 L25.0836207,15.0017146 L25,15 C24.9375358,15 24.8757404,15.0028636 24.814738,15.0084666 L24.6852634,15.0246231 L24.5372305,15.0538087 L24.3300544,15.114966 L24.1336666,15.1968595 L24.046145,15.2416806 C23.9586955,15.289226 23.8752629,15.3430488 23.7963795,15.4025794 Z M19.5857864,5 L5.5,5 C5.1852427,5 4.88885438,5.14819416 4.7,5.4 L2.2,8.73333333 C2.07017787,8.9064295 2,9.11696312 2,9.33333333 L2,15 C2,15.5522847 2.44771525,16 3,16 L3.12595483,16.0002435 C3.56991294,14.2748927 5.13607289,13 7,13 C8.86392711,13 10.4300871,14.2748927 10.8740452,16.0002435 L21.1259548,16.0002435 C21.5699129,14.2748927 23.1360729,13 25,13 C26.8639271,13 28.4300871,14.2748927 28.8740452,16.0002435 L29,16 C29.5522847,16 30,15.5522847 30,15 L30,12.677033 C30,12.2681284 29.7510491,11.9004196 29.3713907,11.7485563 L25.190577,10.0762308 C25.0648364,10.0259346 24.9506221,9.95062208 24.8548609,9.85486089 L20.2928932,5.29289322 C20.1053568,5.10535684 19.8510029,5 19.5857864,5 Z" id="Shape" fill="#000000" fill-rule="nonzero"></path>
    </g>
</svg>