<svg xmlns="http://www.w3.org/2000/svg" viewBox="0 0 48 48">
	<path d="M24,1C11.3,1,1,11.3,1,24s10.3,23,23,23s23-10.3,23-23S36.7,1,24,1z M24,44C13,44,4,35,4,24S13,4,24,4
		s20,9,20,20S35,44,24,44z M31.6,23.4L31.6,23.4c-0.5-0.4-1-0.4-1.4,0L25.5,28l0-13.5c0-0.6-0.4-1-1-1h-1c-0.6,0-1,0.4-1,1l0,13.5
		l-4.7-4.6l-0.1-0.1c-0.4-0.3-0.9-0.3-1.2,0l-0.1,0.1l-1,1l-0.1,0.1c-0.3,0.4-0.3,0.9,0,1.2l0.1,0.1l7.9,7.8l0.1,0.1
		c0.2,0.1,0.4,0.2,0.6,0.2h0.1l0.1,0c0.2,0,0.4-0.1,0.5-0.3l7.9-7.8l0.1-0.1c0.3-0.4,0.3-1-0.1-1.3L31.6,23.4z"/>
</svg>
