<svg xmlns="http://www.w3.org/2000/svg" viewBox="0 0 48 48">
	<path d="M40.6,30.2L40.5,30l-0.2-0.3l-0.1-0.2c-0.9-1.2-1.4-2.6-1.6-5l0-0.6l0-0.8l0-0.8l0-0.7l0-0.7l0-1.2l0-3.8
		l0-0.3C38.1,9.2,32.9,4,26.4,4l-0.2,0l-0.1,0l0,0H26V3c0-1.1-0.9-2-2-2s-2,0.9-2,2l0,1l-0.1,0c-6.2,0.3-11.1,5.4-11.3,11.7l0,4.5
		l0,0.7l0,0.7l0,0.7l0,0.6l0,0.7l0,0.7l0,0.5l-0.1,0.5l-0.1,0.4l-0.1,0.3c-0.2,1.3-0.6,2.2-1.1,3L9,29.4l-0.2,0.3
		c-0.1,0.2-0.3,0.3-0.4,0.5L8,30.6C4.3,34.5,5.9,40,11.2,40h26.6l0.2,0c5.1-0.2,6.5-5.6,3-9.4L40.6,30.2z M37.8,37H11.2l-0.2,0
		c-2.3-0.1-2.8-2.3-0.9-4.3l0.4-0.4c1.7-1.7,2.5-3.4,2.9-6.2l0.1-0.5l0.1-0.6l0.1-0.7l0-0.8l0-0.7l0-0.7l0-0.7l0-1.2l0-4.3l0-0.3
		c0.1-4.8,3.9-8.6,8.6-8.7l0.3,0h3.9l0.3,0c4.8,0.1,8.6,4.1,8.6,9l0,4.7l0,0.8l0,0.8l0,0.7l0,0.7l0,0.7l0.1,0.6l0.1,0.6l0,0.4
		c0.4,2.9,1.2,4.7,2.9,6.5l0.3,0.3C40.7,34.8,40.3,37,37.8,37z M28,43h-2.4l0,0.1c-0.1,0.8-0.8,1.5-1.6,1.5c-0.9,0-1.6-0.7-1.6-1.6H20c0,2.2,1.8,4,4,4S28,45.2,28,43z"/>
</svg>
