<svg xmlns="http://www.w3.org/2000/svg" viewBox="0 0 48 48">
<path d="M38,23.5h-3.1l-3.1-2.6l-0.1-0.1c-0.6-0.4-1.3-0.4-1.8,0.1l-1.7,1.5l-1.5-5.7v-0.1c-0.4-1.2-2.1-1.3-2.7-0.2l-4.1,8
	l-0.1,0.1c-0.3,0.7,0,1.5,0.7,1.9l0.1,0.1c0.7,0.3,1.5,0,1.9-0.7l2.4-4.6l1.1,4.3v0.1c0.4,1,1.6,1.3,2.4,0.6L31,24l2.6,2.2l0.1,0.1
	c0.2,0.2,0.5,0.3,0.8,0.3H38h0.1c0.8-0.1,1.4-0.7,1.4-1.5V25C39.4,24.1,38.8,23.5,38,23.5z M43,1H16h-0.2C13.7,1.1,12,2.9,12,5v30H1
	v6c0,3.3,2.7,6,6,6h34h0.4c3.6-0.1,5.5-2.1,5.5-6V5C47,2.8,45.2,1,43,1z M7,44c-1.7,0-3-1.3-3-3v-3h30v2l0,0c0,0.2,0,0.3,0,0.5
	c0,1.3,0.4,2.5,1,3.5H7z M44,41L44,41c-0.3,1.7-1.7,3-3.5,3s-3.2-1.3-3.5-3l0,0v-6H15V5c0-0.6,0.4-1,1-1h27c0.6,0,1,0.4,1,1V41z"/>
</svg>
