<svg xmlns="http://www.w3.org/2000/svg" viewBox="0 0 48 48">
<path d="M3.2,6.9l-1,1.7C0.8,11,1.7,14.1,4,15.5l15.1,8.7l12.2,0.1l-6.2-10.5L10,5.1C7.7,3.7,4.6,4.5,3.2,6.9z M23,16l3.1,5.3
	L20,21.2L9.8,15.3l3.1-5.1L23,16z M4.8,10.1l1-1.7c0.6-1,1.8-1.3,2.7-0.7l1.7,1l-3.1,5.1l-1.6-0.9C4.6,12.3,4.3,11.1,4.8,10.1z
	 M43,1H16h-0.2C13.7,1.1,12,2.9,12,5l3,2V5c0-0.6,0.4-1,1-1h27c0.6,0,1,0.4,1,1v36l0,0c-0.2,1.7-1.7,3-3.5,3s-3.2-1.3-3.5-3l0,0v-6
	H15V23l-3-2v14H1v6c0,3.3,2.7,6,6,6h34h0.4c3.6-0.1,5.5-2.1,5.5-6V5C47,2.8,45.2,1,43,1z M7,44c-1.7,0-3-1.3-3-3v-3h30v2l0,0
	c0,0.2,0,0.3,0,0.5c0,1.3,0.4,2.5,1,3.5H7z"/>
</svg>
