<svg xmlns="http://www.w3.org/2000/svg" viewBox="0 0 48 48">
<path d="M37.5,15h-10c-0.8,0-1.5,0.7-1.5,1.5c0,0.8,0.7,1.5,1.5,1.5h10c0.8,0,1.5-0.7,1.5-1.5S38.3,15,37.5,15z
	 M34.5,20h-7c-0.8,0-1.5,0.7-1.5,1.5s0.7,1.5,1.5,1.5h7c0.8,0,1.5-0.7,1.5-1.5S35.3,20,34.5,20z M37.5,10h-10
	c-0.8,0-1.5,0.7-1.5,1.5s0.7,1.5,1.5,1.5h10c0.8,0,1.5-0.7,1.5-1.5S38.3,10,37.5,10z M43,1H16h-0.2C13.7,1.1,12,2.9,12,5v30H1v6
	c0,3.3,2.7,6,6,6h34h0.4c3.6-0.1,5.5-2.1,5.5-6V5C47,2.8,45.2,1,43,1z M7,44c-1.7,0-3-1.3-3-3v-3h30v2l0,0c0,0.2,0,0.3,0,0.5
	c0,1.3,0.4,2.5,1,3.5H7z M44,41L44,41c-0.3,1.7-1.7,3-3.5,3s-3.2-1.3-3.5-3l0,0v-6H15V5c0-0.6,0.4-1,1-1h27c0.6,0,1,0.4,1,1V41z
	 M21,22c1.1,0,2,0.9,2,2s-0.9,2-2,2s-2-0.9-2-2S19.9,22,21,22z M21,7c-1.1,0-2,0.7-2,1.6v9.8c0,0.9,0.9,1.6,2,1.6s2-0.7,2-1.6V8.6
	C23,7.7,22.1,7,21,7z"/>
</svg>
