<svg xmlns="http://www.w3.org/2000/svg" viewBox="0 0 48 48">
<path d="M19.3,39.3L19.3,39.3c0.5,0.4,1.1,0.4,1.4,0l15.6-15.6l0.1-0.1c0.3-0.4,0.3-1-0.1-1.3l-1.6-1.6l-0.1-0.1
	c-0.4-0.3-1-0.3-1.3,0.1L20,34l-5.3-5.3l-0.1-0.1c-0.4-0.3-1-0.3-1.3,0.1l-1.6,1.6l-0.1,0.1c-0.3,0.4-0.3,1,0.1,1.3L19.3,39.3z
	 M44,6h-5V2c0-0.6-0.4-1-1-1h-1c-0.6,0-1,0.4-1,1v4H12V2c0-0.6-0.4-1-1-1h-1C9.4,1,9,1.4,9,2v4H4C3.4,6,3,6.4,3,7v39
	c0,0.6,0.4,1,1,1h40c0.6,0,1-0.4,1-1V7C45,6.4,44.6,6,44,6z M42,44H6V15h36V44z M42,12H6V9h36V12z"/>
</svg>
