<svg xmlns="http://www.w3.org/2000/svg" viewBox="0 0 48 48">
<path d="M8.5,17h17c0.8,0,1.5-0.7,1.5-1.5S26.3,14,25.5,14h-17C7.7,14,7,14.7,7,15.5C7,16.3,7.7,17,8.5,17z M8.5,11h17
	c0.8,0,1.5-0.7,1.5-1.5S26.3,8,25.5,8h-17C7.7,8,7,8.7,7,9.5S7.7,11,8.5,11z M5,41h27h0.2c2.1-0.1,3.8-1.9,3.8-4V5c0-2.2-1.8-4-4-4
	H5H4.8C2.7,1.1,1,2.9,1,5v32C1,39.2,2.8,41,5,41z M4,5c0-0.6,0.4-1,1-1h27c0.6,0,1,0.4,1,1v32c0,0.6-0.4,1-1,1H5c-0.6,0-1-0.4-1-1V5
	z M43,5h-5v3h5c0.6,0,1,0.4,1,1v34c0,0.6-0.4,1-1,1H16c-0.6,0-1-0.4-1-1h-3c0,2.2,1.8,4,4,4h27h0.2c2.1-0.1,3.8-1.9,3.8-4V9
	C47,6.8,45.2,5,43,5z M8.5,23h13c0.8,0,1.5-0.7,1.5-1.5S22.3,20,21.5,20h-13C7.7,20,7,20.7,7,21.5S7.7,23,8.5,23z"/>
</svg>
