<svg xmlns="http://www.w3.org/2000/svg" viewBox="0 0 48 48">
<path d="M40.3,0.5H7.7c-4,0-7.2,3.2-7.2,7.2v32.6c0,4,3.2,7.2,7.2,7.2h32.6c4,0,7.2-3.2,7.2-7.2V7.7C47.5,3.7,44.3,0.5,40.3,0.5z
	 M44.5,40.3c0,2.3-1.9,4.2-4.2,4.2H7.7c-2.3,0-4.2-1.9-4.2-4.2V7.7c0-2.3,1.9-4.2,4.2-4.2h32.6c2.3,0,4.2,1.9,4.2,4.2V40.3z
	 M13.5,23.9l10.3,10.3l0.1,0.1c0.1,0.1,0.3,0.2,0.4,0.2h0.1h0.1c0.2,0,0.3-0.1,0.4-0.2L35.2,24l0.1-0.1c0.2-0.3,0.2-0.8-0.1-1
	L34,21.5l-0.1-0.1c-0.3-0.2-0.8-0.2-1,0.1l-6.6,6.6V9.2c0-0.4-0.4-0.8-0.8-0.8h-1.6c-0.4,0-0.8,0.4-0.8,0.8v19.4L16,21.5l-0.1-0.1
	c-0.3-0.2-0.7-0.2-1,0l-0.1,0.1l-1.3,1.3l-0.1,0.1C13.2,23.1,13.2,23.5,13.5,23.9L13.5,23.9z M40.5,39.4h-32c-0.8,0-1.5,0.7-1.5,1.5
	s0.7,1.5,1.5,1.5h32c0.8,0,1.5-0.7,1.5-1.5S41.3,39.4,40.5,39.4z"/>
</svg>
