<svg xmlns="http://www.w3.org/2000/svg" viewBox="0 0 48 48">
<path d="M31.5,26h3c0.8,0,1.5-0.7,1.5-1.5S35.3,23,34.5,23h-3c-0.8,0-1.5,0.7-1.5,1.5S30.7,26,31.5,26z M43,9V4H30 c-1.9,0-3.9,1.6-5.8,4.7L24,9c-2-3.3-4-5-6-5H5v5H4.8C2.7,9.1,1,10.9,1,13v27c0,2.2,1.8,4,4,4h38h0.2c2.1-0.1,3.8-1.9,3.8-4V13 C47,10.8,45.2,9,43,9z M5,41c-0.6,0-1-0.4-1-1V13c0-0.6,0.4-1,1-1v25h13c1.6,0,3.3,1.3,4.9,4H5z M24.1,37.2L24.1,37.2L23.7,37 c-1.7-2-3.6-3-5.7-3H8V7h10c0.2,0,0.6,0.1,1.1,0.6c0.7,0.6,1.5,1.6,2.3,3l1.6,2.6V30c0,0.6,0.4,1,1,1s1-0.4,1-1V13.1l1.8-2.9 C27.6,9,28.3,8,29,7.5l0.1-0.1C29.5,7.1,29.8,7,30,7h10v27H30h-0.2C27.6,34.1,25.8,35.2,24.1,37.2z M44,40c0,0.6-0.4,1-1,1H25.1 c1.6-2.7,3.3-4,4.9-4h13V12c0.6,0,1,0.4,1,1V40z M31.5,16h3c0.8,0,1.5-0.7,1.5-1.5S35.3,13,34.5,13h-3c-0.8,0-1.5,0.7-1.5,1.5 S30.7,16,31.5,16z M16.5,23h-3c-0.8,0-1.5,0.7-1.5,1.5s0.7,1.5,1.5,1.5h3c0.8,0,1.5-0.7,1.5-1.5S17.3,23,16.5,23z M16.5,18h-3 c-0.8,0-1.5,0.7-1.5,1.5s0.7,1.5,1.5,1.5h3c0.8,0,1.5-0.7,1.5-1.5S17.3,18,16.5,18z M31.5,21h3c0.8,0,1.5-0.7,1.5-1.5 S35.3,18,34.5,18h-3c-0.8,0-1.5,0.7-1.5,1.5S30.7,21,31.5,21z M16.5,13h-3c-0.8,0-1.5,0.7-1.5,1.5s0.7,1.5,1.5,1.5h3 c0.8,0,1.5-0.7,1.5-1.5S17.3,13,16.5,13z"/>
</svg>
