<svg xmlns="http://www.w3.org/2000/svg" viewBox="0 0 48 48">
<path d="M21.7,22l-0.2,1.1l-0.8,4.7l4.1-0.7c10.2-1.7,16.5-3.7,19.3-6.5c2.2-2.2,3.4-5.2,3.4-8.1l0,0c0-2.9-1.1-5.9-3.4-8.1 c-4.5-4.5-11.8-4.5-16.3,0C25.3,7,23.3,12.8,21.7,22z M42.1,6.5c3.3,3.3,3.3,8.7,0,12c-2.1,2.1-7.7,4-16.6,5.5l-1.1,0.2l0.3-1.6 c1.5-8.6,3.3-14,5.4-16.1C33.4,3.2,38.8,3.2,42.1,6.5z M47,40.5v-21l-3,3v18c0,2.2-1.8,4-4,4H8c-2.2,0-4-1.8-4-4v-33V7.3 c0.1-2.1,1.9-3.8,4-3.8h19l4-3H8c-3.9,0-7,3.1-7,7v33c0,3.9,3.1,7,7,7h32h0.2C44,47.4,47,44.3,47,40.5z M40,16.4 c2.1-2.1,2.1-5.6,0-7.8s-5.6-2.1-7.8,0c-2.1,2.1-2.1,5.6,0,7.8C34.3,18.5,37.8,18.5,40,16.4z M34.3,10.7c1-1,2.6-1,3.5,0 s1,2.6,0,3.5s-2.6,1-3.5,0S33.3,11.7,34.3,10.7z"/>
</svg>
