<svg xmlns="http://www.w3.org/2000/svg" viewBox="0 0 48 48">
	<path d="M38.3,1.5H9.7c-4.5,0-8.2,3.7-8.2,8.2v28.5c0,4.5,3.7,8.2,8.2,8.2h28.5c4.5,0,8.2-3.7,8.2-8.2V9.7 C46.5,5.2,42.8,1.5,38.3,1.5z M9.7,43.5c-0.6,0-1.1-0.1-1.7-0.3c0.4-1.8,2-3.2,3.9-3.2h2.7c2,0,3.7,1.5,4,3.5H9.7z M10.3,15 c0-1.7,1.3-3,3-3s3,1.3,3,3v22.2c-0.5-0.1-1.1-0.2-1.7-0.2H12c-0.6,0-1.1,0.1-1.7,0.2V15z M43.5,38.3v0.2c-0.1,2.8-2.4,5-5.2,5 H21.6l0,0c-0.2-1.9-1-3.5-2.3-4.7V23h22v-9H19.2c-0.5-2.8-2.9-5-5.9-5c-3.3,0-6,2.7-6,6v23.8c-0.8,0.7-1.4,1.6-1.8,2.6 c-0.6-0.9-1-1.9-1-3.1V9.7c0-2.9,2.3-5.2,5.2-5.2h28.5c2.9,0,5.2,2.3,5.2,5.2L43.5,38.3L43.5,38.3z M19.3,20v-3h3.9l-3,3H19.3z M24.5,20l3-3h3.8l-3,3H24.5z M32.5,20l3-3h3.8l-3,3H32.5z M13.3,16c1.1,0,2,0.9,2,2s-0.9,2-2,2s-2-0.9-2-2S12.2,16,13.3,16z"/>
</svg>
