<svg xmlns="http://www.w3.org/2000/svg" viewBox="0 0 48 48">
	<path d="M45.5,35h-1v-7.5h-1.9l0.8-3.9v-0.1c0.1-0.7-0.4-1.4-1.1-1.6L41,21.4v-6.9v-0.1c-0.1-0.8-0.8-1.4-1.6-1.4h-2.8V8.5V8.4 C36.4,7.6,35.7,7,34.9,7h-5.4V2.5c0-0.8-0.7-1.4-1.5-1.5h-0.2h-7.7H20c-0.8,0.1-1.5,0.7-1.5,1.5V7h-5.4H13 c-0.8,0.1-1.5,0.7-1.5,1.5V13H8.6H8.5C7.7,13.1,7,13.7,7,14.5v6.9l-1.4,0.4c-0.8,0.2-1.2,1-1,1.8L7,35H2.5C1.7,35,1,35.7,1,36.5v8 C1,45.3,1.7,46,2.5,46h43h0.1c0.8-0.1,1.4-0.7,1.4-1.5v-8C47,35.7,46.3,35,45.5,35z M42,30v5h-7v-5H42z M10.3,16h2.8h0.2 c0.8-0.1,1.5-0.7,1.5-1.5V10h5.4h0.2c0.8-0.1,1.5-0.7,1.5-1.5V4h4.4v4.5v0.1c0,0.8,0.7,1.4,1.5,1.4h5.4v4.5v0.1 c0.1,0.8,0.8,1.4,1.6,1.4h2.8v4.4l-13.3-3.9h-0.8l-13.3,3.9L10.3,16z M24,19.6l16.2,4.7l-0.7,3.2h-7.1V35H10L7.8,24.3L24,19.6z M44,43H4v-5h40V43z M30,13c0-0.6-0.4-1-1-1H19c-0.6,0-1,0.4-1,1s0.4,1,1,1h10C29.6,14,30,13.6,30,13z"/>
</svg>
