<svg xmlns="http://www.w3.org/2000/svg" viewBox="0 0 48 48">
<path d="M19.5,20.5h-2c-0.6,0-1,0.4-1,1s0.4,1,1,1h2c0.6,0,1-0.4,1-1S20.1,20.5,19.5,20.5z M19.5,16.5h-2c-0.6,0-1,0.4-1,1 s0.4,1,1,1h2c0.6,0,1-0.4,1-1S20.1,16.5,19.5,16.5z M14.5,16.5h-2c-0.6,0-1,0.4-1,1s0.4,1,1,1h2c0.6,0,1-0.4,1-1 S15.1,16.5,14.5,16.5z M41.7,41.2l0.2-0.1c1-0.7,2-1.1,3.7-1.1c0.8,0,1.5-0.7,1.5-1.5S46.3,37,45.5,37c-2.5,0-4,0.6-5.7,1.8 c-0.1,0.1-0.6,0.5-0.7,0.6L39,39.5c-0.1,0.1-0.3,0.2-0.4,0.3l2.1-4.3c0.1-0.1,0.2-0.2,0.2-0.3l0.7-1.4l0.3-0.5 c0-0.1,0.1-0.2,0.1-0.3l4.9-10.4v-0.1c0.4-1-0.4-2-1.4-2H31.3l-3.4-8.4L27.8,12c-0.3-0.5-0.8-0.8-1.3-0.8h-16L8.9,6 C8.7,5.4,8.1,5,7.5,5h-5C1.7,5,1,5.7,1,6.5v34C1,42.3,2.4,43,4.5,43c0.9,0,1.3-0.1,2.7-0.8L7.6,42l1.5-0.8c1.5-0.8,2.5-1.2,3.4-1.2 c0.8,0,1.5,0.2,2.8,0.8l0.5,0.3l1.1,0.6c2.1,1,3.1,1.4,4.6,1.4s2.5-0.4,4.2-1.4l1.1-0.6c1.3-0.8,1.9-1,2.7-1s1.4,0.2,2.7,1l1.1,0.6 c1.7,1,2.7,1.4,4.2,1.4c1.4,0,2.3-0.4,3.4-1.2C41.1,41.7,41.5,41.3,41.7,41.2z M4,8h2.4l1,3H4V8z M35.4,39.4 c-0.2-0.1-0.4-0.2-0.6-0.4l-1.1-0.6C32,37.4,31,37,29.5,37s-2.5,0.4-4.2,1.4L24.2,39c-1.3,0.8-1.9,1-2.7,1c-0.8,0-1.5-0.2-2.8-0.8 l-0.5-0.3l-1.1-0.6c-2.1-1-3.1-1.4-4.6-1.4c-1.6,0-3,0.5-5.1,1.7L6.6,39c-1.2,0.7-1.7,0.8-2,0.9H4.5H4.3c-0.1,0-0.2,0-0.3,0V40v-4 h33.1L35.4,39.4z M4,33V14h21.5l1,2.5h-3c-0.6,0-1,0.4-1,1s0.4,1,1,1h3.8l1.6,3.9l0.1,0.1c0.3,0.5,0.8,0.8,1.3,0.8h12.8l-4.3,9.1 L38.6,33H4z M14.5,20.5h-2c-0.6,0-1,0.4-1,1s0.4,1,1,1h2c0.6,0,1-0.4,1-1S15.1,20.5,14.5,20.5z M9.5,16.5h-2c-0.6,0-1,0.4-1,1 s0.4,1,1,1h2c0.6,0,1-0.4,1-1S10.1,16.5,9.5,16.5z M9.5,20.5h-2c-0.6,0-1,0.4-1,1s0.4,1,1,1h2c0.6,0,1-0.4,1-1S10.1,20.5,9.5,20.5z"	/>
</svg>
