<svg xmlns="http://www.w3.org/2000/svg" viewBox="0 0 48 48">
<path d="M22.6,32c0,0.6,0.4,1,1,1h3c0.6,0,1-0.4,1-1v-1c0-0.6-0.4-1-1-1h-3c-0.6,0-1,0.4-1,1V32z M41.6,9h-18 c-0.6,0-1,0.4-1,1v1c0,0.6,0.4,1,1,1h18c0.6,0,1-0.4,1-1v-1C42.6,9.4,42.2,9,41.6,9z M23.6,26h8c0.6,0,1-0.4,1-1v-1c0-0.6-0.4-1-1-1 h-8c-0.6,0-1,0.4-1,1v1C22.6,25.6,23.1,26,23.6,26z M13.6,38.9l6.2-6.2l0.1-0.1c0.2-0.3,0.2-0.7-0.1-1l-1.2-1.2l-0.1-0.1 c-0.3-0.2-0.7-0.2-1,0.1l-3.2,3V10c0-0.4-0.3-0.8-0.8-0.8h-0.8c-0.4,0-0.8,0.3-0.8,0.8v23.4l-3.3-3l-0.1-0.1c-0.3-0.2-0.7-0.2-1,0 l-0.1,0.1l-1.2,1.2l-0.1,0.1c-0.2,0.3-0.2,0.7,0,1l0.1,0.1l6.2,6.2l0.1,0.1c0.1,0.1,0.3,0.2,0.4,0.2H13h0.1 C13.3,39.1,13.4,39,13.6,38.9z M36.6,16h-13c-0.6,0-1,0.4-1,1v1c0,0.6,0.4,1,1,1h13c0.6,0,1-0.4,1-1v-1C37.6,16.4,37.2,16,36.6,16z" />
</svg>
