<svg xmlns="http://www.w3.org/2000/svg" viewBox="0 0 48 48">
	<path d="M38.4,21.6c0.6,0.6,1.5,0.6,2.1,0l6.1-6.1l-6.1-6.1c-0.6-0.6-1.5-0.6-2.1,0l-0.1,0.1c-0.5,0.6-0.4,1.5,0.1,2 l2.4,2.4l-8,0L25,21.9L17.1,14l-5.3,0c-0.7-2.3-2.8-4-5.3-4c-3,0-5.5,2.5-5.5,5.5S3.5,21,6.5,21c2.5,0,4.6-1.7,5.3-4l4.1,0l7,7 l-7,7l-4.1,0c-0.7-2.3-2.8-4-5.3-4c-3,0-5.5,2.5-5.5,5.5S3.5,38,6.5,38c2.5,0,4.6-1.7,5.3-4l5.3,0l7.9-7.9l7.9,7.9l8,0l-2.4,2.4 c-0.6,0.6-0.6,1.5,0,2.1c0.6,0.6,1.5,0.6,2.1,0l6.1-6.1l-6.1-6.1c-0.6-0.6-1.5-0.6-2.1,0l-0.1,0.1c-0.5,0.6-0.4,1.5,0.1,2l2.4,2.4 l-6.8,0l-7-7l7-7l6.8,0l-2.4,2.4C37.9,20,37.9,21,38.4,21.6z M6.5,18C5.1,18,4,16.9,4,15.5S5.1,13,6.5,13S9,14.1,9,15.5 S7.9,18,6.5,18z M6.5,35C5.1,35,4,33.9,4,32.5S5.1,30,6.5,30S9,31.1,9,32.5S7.9,35,6.5,35z"/>
</svg>
