<svg xmlns="http://www.w3.org/2000/svg" viewBox="0 0 48 48">
<path d="M43,1H5H4.8C2.7,1.1,1,2.9,1,5v38c0,2.2,1.8,4,4,4h38h0.2c2.1-0.1,3.8-1.9,3.8-4V5C47,2.8,45.2,1,43,1z M8.1,44l0.2-0.5 c2.1-3.9,5-6.9,7.9-8.2l0.2-0.1h0.1h0.2h0.2l0.3,0.1l0.4,0.1l0.4,0.1l1.6,0.4c1.9,0.5,3,0.7,4.5,0.7s2.6-0.2,4.5-0.7l1.6-0.4 l0.4-0.1l0.4-0.1l0.3-0.1h0.2h0.2l0.2,0.1l0.3,0.1l0.3,0.2c2.8,1.5,5.5,4.5,7.5,8.3l0.1,0.1C40.1,44,8.1,44,8.1,44z M44,43 c0,0.4-0.2,0.7-0.6,0.9c-2.4-5.2-6.1-9.5-10.2-11.3l-0.4-0.2h-0.1h-0.1h-0.1c-0.3-0.1-0.6-0.1-0.9-0.1h-0.3h-0.2l-0.3,0.1l-0.4,0.1 H30l-0.5,0.1L27.8,33c-1.6,0.4-2.6,0.6-3.7,0.6c-1,0-1.8-0.1-3.1-0.4L20.3,33l-1.6-0.4l-0.5-0.1l-0.4-0.1l-0.4-0.1l-0.3-0.1h-0.3 h-0.3h-0.2h-0.2h-0.2c-0.3,0-0.4,0.1-0.6,0.2L15,32.5c-4,1.8-7.7,5.9-10.1,11L4.8,44H4.7C4.3,43.8,4,43.4,4,43V5c0-0.6,0.4-1,1-1h38 c0.6,0,1,0.4,1,1V43z M24,10c-5,0-9,4-9,9s4,9,9,9s9-4,9-9S29,10,24,10z M24,25c-3.3,0-6-2.7-6-6s2.7-6,6-6s6,2.7,6,6S27.3,25,24,25 z"/>
</svg>
