<svg xmlns="http://www.w3.org/2000/svg" width="24" height="24" viewBox="0 0 24 24">
  <path fill="#FFF" fill-rule="evenodd" d="M22,5 L2,5 C2.11992373,5 2,4.85076158 2,5 L2,3 C2,3.14923842 2.11992373,3 2,3 L22,3 C21.8800763,3 22,3.14923842 22,3 L22,5 C22,4.85076158 21.8800763,5 22,5 Z M22,13 L2,13 C2.11992373,13 2,12.8507616 2,13 L2,11 C2,11.1492384 2.11992373,11 2,11 L22,11 C21.8800763,11 22,11.1492384 22,11 L22,13 C22,12.8507616 21.8800763,13 22,13 Z M22,21 L2,21 C2.11992373,21 2,20.8507616 2,21 L2,19 C2,19.1492384 2.11992373,19 2,19 L22,19 C21.8800763,19 22,19.1492384 22,19 L22,21 C22,20.8507616 21.8800763,21 22,21 Z"/>
</svg>
