<?xml version="1.0" encoding="UTF-8"?>
<svg width="24px" height="24px" viewBox="0 0 24 24" version="1.1" xmlns="http://www.w3.org/2000/svg" xmlns:xlink="http://www.w3.org/1999/xlink">
    <title>account</title>
    <g id="account" stroke="none" stroke-width="1" fill="none" fill-rule="evenodd">
        <path d="M23,14 C23.5522847,14 24,14.4477153 24,15 L24,21 C24,22.6568542 22.6568542,24 21,24 L15,24 C14.4477153,24 14,23.5522847 14,23 C14,22.4477153 14.4477153,22 15,22 L21,22 C21.5522847,22 22,21.5522847 22,21 L22,15 C22,14.4477153 22.4477153,14 23,14 Z M1,14 C1.55228475,14 2,14.4477153 2,15 L2,21 C2,21.5522847 2.44771525,22 3,22 L9,22 C9.55228475,22 10,22.4477153 10,23 C10,23.5522847 9.55228475,24 9,24 L3,24 C1.34314575,24 0,22.6568542 0,21 L0,15 C0,14.4477153 0.44771525,14 1,14 Z M15,14 C16.6568542,14 18,15.3431458 18,17 L18,19 C18,19.5522847 17.5522847,20 17,20 C16.4477153,20 16,19.5522847 16,19 L16,17 C16,16.4477153 15.5522847,16 15,16 L9,16 C8.44771525,16 8,16.4477153 8,17 L8,19 C8,19.5522847 7.55228475,20 7,20 C6.44771525,20 6,19.5522847 6,19 L6,17 C6,15.3431458 7.34314575,14 9,14 L15,14 Z M12,4 C14.209139,4 16,5.790861 16,8 C16,10.209139 14.209139,12 12,12 C9.790861,12 8,10.209139 8,8 C8,5.790861 9.790861,4 12,4 Z M9,0 C9.55228475,0 10,0.44771525 10,1 C10,1.55228475 9.55228475,2 9,2 L3,2 C2.44771525,2 2,2.44771525 2,3 L2,9 C2,9.55228475 1.55228475,10 1,10 C0.44771525,10 0,9.55228475 0,9 L0,3 C0,1.34314575 1.34314575,0 3,0 L9,0 Z M12,6 C10.8954305,6 10,6.8954305 10,8 C10,9.1045695 10.8954305,10 12,10 C13.1045695,10 14,9.1045695 14,8 C14,6.8954305 13.1045695,6 12,6 Z M21,0 C22.6568542,0 24,1.34314575 24,3 L24,9 C24,9.55228475 23.5522847,10 23,10 C22.4477153,10 22,9.55228475 22,9 L22,3 C22,2.44771525 21.5522847,2 21,2 L15,2 C14.4477153,2 14,1.55228475 14,1 C14,0.44771525 14.4477153,0 15,0 L21,0 Z" id="Shape" fill="#0D0E10" fill-rule="nonzero"></path>
    </g>
</svg>