<?xml version="1.0" encoding="UTF-8"?>
<svg width="24px" height="24px" viewBox="0 0 24 24" version="1.1" xmlns="http://www.w3.org/2000/svg" xmlns:xlink="http://www.w3.org/1999/xlink">
    <title>angle-up-double</title>
    <g id="angle-up-double" stroke="none" stroke-width="1" fill="none" fill-rule="evenodd">
        <path d="M7.70710678,11.9480144 L12.271,7.38490759 L16.8355339,11.9480144 C17.2260582,12.3385387 17.8592232,12.3385387 18.2497475,11.9480144 C18.6402718,11.5574901 18.6402718,10.9243251 18.2497475,10.5338008 L13.0071068,5.29116012 C12.8268648,5.11091814 12.594936,5.01386477 12.3590314,5 L12.1836093,5 C11.9477046,5.01386477 11.7157759,5.11091814 11.5355339,5.29116012 L6.29289322,10.5338008 C5.90236893,10.9243251 5.90236893,11.5574901 6.29289322,11.9480144 C6.68341751,12.3385387 7.31658249,12.3385387 7.70710678,11.9480144 Z M7.70710678,17.9480144 L12.271,13.3849076 L16.8355339,17.9480144 C17.2260582,18.3385387 17.8592232,18.3385387 18.2497475,17.9480144 C18.6402718,17.5574901 18.6402718,16.9243251 18.2497475,16.5338008 L13.0071068,11.2911601 C12.8268648,11.1109181 12.594936,11.0138648 12.3590314,11 L12.1836093,11 C11.9477046,11.0138648 11.7157759,11.1109181 11.5355339,11.2911601 L6.29289322,16.5338008 C5.90236893,16.9243251 5.90236893,17.5574901 6.29289322,17.9480144 C6.68341751,18.3385387 7.31658249,18.3385387 7.70710678,17.9480144 Z" id="Shape" fill="#0D0E10" fill-rule="nonzero"></path>
    </g>
</svg>