<?xml version="1.0" encoding="UTF-8"?>
<svg width="24px" height="24px" viewBox="0 0 24 24" version="1.1" xmlns="http://www.w3.org/2000/svg" xmlns:xlink="http://www.w3.org/1999/xlink">
    <title>angle-down-double</title>
    <g id="angle-down-double" stroke="none" stroke-width="1" fill="none" fill-rule="evenodd">
        <path d="M7.70710678,11.2928932 L12.271,15.856 L16.8355339,11.2928932 C17.2260582,10.9023689 17.8592232,10.9023689 18.2497475,11.2928932 C18.6402718,11.6834175 18.6402718,12.3165825 18.2497475,12.7071068 L13.0071068,17.9497475 C12.8268648,18.1299894 12.594936,18.2270428 12.3590314,18.2409076 L12.1836093,18.2409076 C11.9477046,18.2270428 11.7157759,18.1299894 11.5355339,17.9497475 L6.29289322,12.7071068 C5.90236893,12.3165825 5.90236893,11.6834175 6.29289322,11.2928932 C6.68341751,10.9023689 7.31658249,10.9023689 7.70710678,11.2928932 Z M7.70710678,5.29289322 L12.271,9.856 L16.8355339,5.29289322 C17.2260582,4.90236893 17.8592232,4.90236893 18.2497475,5.29289322 C18.6402718,5.68341751 18.6402718,6.31658249 18.2497475,6.70710678 L13.0071068,11.9497475 C12.8268648,12.1299894 12.594936,12.2270428 12.3590314,12.2409076 L12.1836093,12.2409076 C11.9477046,12.2270428 11.7157759,12.1299894 11.5355339,11.9497475 L6.29289322,6.70710678 C5.90236893,6.31658249 5.90236893,5.68341751 6.29289322,5.29289322 C6.68341751,4.90236893 7.31658249,4.90236893 7.70710678,5.29289322 Z" id="Shape" fill="#0D0E10" fill-rule="nonzero"></path>
    </g>
</svg>