<?xml version="1.0" encoding="UTF-8"?>
<svg width="24px" height="24px" viewBox="0 0 24 24" version="1.1" xmlns="http://www.w3.org/2000/svg" xmlns:xlink="http://www.w3.org/1999/xlink">
    <title>angle-left-double</title>
    <g id="angle-left-double" stroke="none" stroke-width="1" fill="none" fill-rule="evenodd">
        <path d="M11.5428932,6.79289322 C11.9334175,6.40236893 12.5665825,6.40236893 12.9571068,6.79289322 L12.9948575,6.83273648 C13.3471972,7.22535891 13.3346136,7.82959997 12.9571068,8.20710678 L8.91425,12.25 L12.9571068,16.2928932 C13.3476311,16.6834175 13.3476311,17.3165825 12.9571068,17.7071068 C12.5665825,18.0976311 11.9334175,18.0976311 11.5428932,17.7071068 L6.79289322,12.9571068 C6.40236893,12.5665825 6.40236893,11.9334175 6.79289322,11.5428932 L11.5428932,6.79289322 Z M16.2928932,6.79289322 C16.6834175,6.40236893 17.3165825,6.40236893 17.7071068,6.79289322 L17.7448575,6.83273648 C18.0971972,7.22535891 18.0846136,7.82959997 17.7071068,8.20710678 L13.66425,12.25 L17.7071068,16.2928932 C18.0976311,16.6834175 18.0976311,17.3165825 17.7071068,17.7071068 C17.3165825,18.0976311 16.6834175,18.0976311 16.2928932,17.7071068 L11.5428932,12.9571068 C11.1523689,12.5665825 11.1523689,11.9334175 11.5428932,11.5428932 L16.2928932,6.79289322 Z" id="Shape" fill="#0D0E10" fill-rule="nonzero"></path>
    </g>
</svg>