<?xml version="1.0" encoding="UTF-8"?>
<svg width="24px" height="24px" viewBox="0 0 24 24" version="1.1" xmlns="http://www.w3.org/2000/svg" xmlns:xlink="http://www.w3.org/1999/xlink">
    <title>animals</title>
    <g id="animals" stroke="none" stroke-width="1" fill="none" fill-rule="evenodd">
        <path d="M20.889853,1.94239136 L21.9698611,3.67583057 C22.5536514,4.61282821 22.2678174,5.84563503 21.3312594,6.43013035 L21.0302296,6.618 L21.0993928,6.8191402 C22.8170559,11.9593676 22.3280761,16.3383977 19.8671796,19.3786766 L19.6835982,19.5987385 C17.7944703,21.796523 14.9881481,23 12.0428423,23 C9.0974668,23 6.2912042,21.7965442 4.40207419,19.5987717 C1.77930749,16.5476173 1.22523455,12.0735726 2.9919111,6.80140718 L3.05522957,6.617 L2.75435949,6.43014017 C1.86461038,5.87486924 1.56215475,4.73447602 2.03467877,3.81846039 L2.11575547,3.675809 L3.19579415,1.94236979 C3.77876359,1.00671617 5.0089285,0.719227377 5.94619311,1.29960321 L9.23000289,3.33301386 C10.1084825,3.87698868 10.4279796,5.00059119 9.96714945,5.92539962 C8.03327869,9.80635206 7.90701283,12.7367991 9.03529474,14.5063701 C9.70394638,15.5550518 10.8212829,16.1422061 12.0428423,16.1422061 C13.2643984,16.1422061 14.3817149,15.5550576 15.0503351,14.5063762 C16.1786126,12.7368252 16.0523255,9.80637882 14.1184348,5.92540262 C13.6576001,5.00058905 13.9771026,3.87697874 14.8555916,3.33300654 L18.1394524,1.29959589 C19.0767249,0.719224206 20.3068931,1.00672652 20.889853,1.94239136 Z M19.1923654,3 L15.9085047,5.03341065 C18.3342922,9.90153654 18.1124593,13.4239384 16.736708,15.5816187 C15.6483404,17.288643 13.8452346,18.1422061 12.0428423,18.1422061 C10.2404501,18.1422061 8.43734428,17.288643 7.3489257,15.5816187 C5.9731846,13.4239384 5.75130074,9.90153654 8.17707803,5.03341065 L4.89326825,3 L3.81322957,4.73343922 L5.29370924,5.65737082 C5.41541149,5.73398336 5.46887159,5.88911637 5.41287305,6.02690469 C3.06648053,11.7772125 3.82729802,15.8619906 5.91874583,18.2950435 C7.46883372,20.0983818 9.75468095,21 12.0428423,21 C14.3309018,21 16.6168204,20.0983818 18.1668981,18.2950435 C20.2558584,15.8648474 21.0171856,11.7870071 18.681008,6.04748366 C18.6127047,5.90986879 18.6588859,5.74019685 18.7919245,5.65737082 L20.2723735,4.73343922 L19.1923654,3 Z" id="Path" fill="#0D0E10" fill-rule="nonzero"></path>
    </g>
</svg>