<?xml version="1.0" encoding="UTF-8"?>
<svg width="24px" height="24px" viewBox="0 0 24 24" version="1.1" xmlns="http://www.w3.org/2000/svg" xmlns:xlink="http://www.w3.org/1999/xlink">
    <title>arrow-up</title>
    <g id="arrow-up" stroke="none" stroke-width="1" fill="none" fill-rule="evenodd">
        <path d="M13,18.5 C13,19.0522847 12.5522847,19.5 12,19.5 C11.4477153,19.5 11,19.0522847 11,18.5 L11,7.80769231 L11.0015,7.76769231 L8.70710678,10.0273159 C8.3371364,10.3814756 7.74939432,10.4001156 7.3565006,10.0832358 L7.29289322,10.0273159 C6.90236893,9.65348067 6.90236893,9.04737403 7.29289322,8.67353881 L11.2928932,4.78037641 C11.6834175,4.4065412 12.3165825,4.4065412 12.7071068,4.78037641 L16.7071068,8.67353881 C17.0976311,9.04737403 17.0976311,9.65348067 16.7071068,10.0273159 C16.3165825,10.4011511 15.6834175,10.4011511 15.2928932,10.0273159 L12.999205,7.76744841 L13,18.5 Z" id="Path" fill="#0D0E10" fill-rule="nonzero"></path>
    </g>
</svg>