<?xml version="1.0" encoding="UTF-8"?>
<svg width="24px" height="24px" viewBox="0 0 24 24" version="1.1" xmlns="http://www.w3.org/2000/svg" xmlns:xlink="http://www.w3.org/1999/xlink">
    <title>arrow-wide-down</title>
    <g id="arrow-wide-down" stroke="none" stroke-width="1" fill="none" fill-rule="evenodd">
        <path d="M13,1.5084317 C13,0.951490252 12.5522847,0.5 12,0.5 C11.4477153,0.5 11,0.951490252 11,1.5084317 L11.0015,20.2047555 L8.70710678,17.9260794 C8.3371364,17.5689336 7.74939432,17.5501364 7.3565006,17.869688 L7.29289322,17.9260794 C6.90236893,18.3030667 6.90236893,18.9142839 7.29289322,19.2912712 L11.2928932,23.2172595 C11.6834175,23.5942468 12.3165825,23.5942468 12.7071068,23.2172595 L16.7071068,19.2912712 C17.0976311,18.9142839 17.0976311,18.3030667 16.7071068,17.9260794 C16.3165825,17.5490921 15.6834175,17.5490921 15.2928932,17.9260794 L12.999205,20.2050014 L13,1.5084317 Z" id="Path" fill="#0D0E10" fill-rule="nonzero"></path>
    </g>
</svg>