<?xml version="1.0" encoding="UTF-8"?>
<svg width="24px" height="24px" viewBox="0 0 24 24" version="1.1" xmlns="http://www.w3.org/2000/svg" xmlns:xlink="http://www.w3.org/1999/xlink">
    <title>arrow-circle-left</title>
    <g id="arrow-circle-left" stroke="none" stroke-width="1" fill="none" fill-rule="evenodd">
        <path d="M12,0 C18.627417,0 24,5.372583 24,12 C24,18.627417 18.627417,24 12,24 C5.372583,24 0,18.627417 0,12 C0,5.372583 5.372583,0 12,0 Z M12,2 C6.4771525,2 2,6.4771525 2,12 C2,17.5228475 6.4771525,22 12,22 C17.5228475,22 22,17.5228475 22,12 C22,6.4771525 17.5228475,2 12,2 Z M10.6735388,7.29289322 C11.047374,6.90236893 11.6534807,6.90236893 12.0273159,7.29289322 L12.0832358,7.3565006 C12.4001156,7.74939432 12.3814756,8.3371364 12.0273159,8.70710678 L9.76769231,11.0015 L16.8076923,11 C17.3599771,11 17.8076923,11.4477153 17.8076923,12 C17.8076923,12.5522847 17.3599771,13 16.8076923,13 L9.76744841,12.999205 L12.0273159,15.2928932 C12.4011511,15.6834175 12.4011511,16.3165825 12.0273159,16.7071068 C11.6534807,17.0976311 11.047374,17.0976311 10.6735388,16.7071068 L6.78037641,12.7071068 C6.4065412,12.3165825 6.4065412,11.6834175 6.78037641,11.2928932 L10.6735388,7.29289322 Z" id="Shape" fill="#0D0E10" fill-rule="nonzero"></path>
    </g>
</svg>