<?xml version="1.0" encoding="UTF-8"?>
<svg width="24px" height="24px" viewBox="0 0 24 24" version="1.1" xmlns="http://www.w3.org/2000/svg" xmlns:xlink="http://www.w3.org/1999/xlink">
    <title>atm</title>
    <g id="atm" stroke="none" stroke-width="1" fill="none" fill-rule="evenodd">
        <path d="M21,1 C22.6568542,1 24,2.34314575 24,4 L24,9 C24,10.6568542 22.6568542,12 21,12 L19.235,12 L19.9833899,20.7206576 C20.0824379,21.8762184 19.2259651,22.8932799 18.0704043,22.992328 L17.8910619,23 L6.1089381,23 C4.94914013,23 4.0089381,22.059798 4.0089381,20.9 L4.01661014,20.7206576 L4.764,12 L3,12 C1.34314575,12 0,10.6568542 0,9 L0,4 C0,2.34314575 1.34314575,1 3,1 L21,1 Z M7.29179525,7 C7.23987715,7 7.19659445,7.03973147 7.19216058,7.09145989 L6.00929898,20.8914599 C6.0089381,20.9388325 6.03107246,20.9724953 6.06341295,20.9890601 C6.07706782,20.9960541 6.09254215,21 6.1089381,21 L14,21 L13,7 L7.29179525,7 Z M21,3 L3,3 C2.44771525,3 2,3.44771525 2,4 L2,9 C2,9.55228475 2.44771525,10 3,10 L4.935,10 L5.19946728,6.9206576 C5.29257843,5.83436083 6.2015153,5 7.29179525,5 L16.7082048,5 C17.7984847,5 18.7074216,5.83436083 18.8005327,6.9206576 L19.064,10 L21,10 C21.5522847,10 22,9.55228475 22,9 L22,4 C22,3.44771525 21.5522847,3 21,3 Z M16,21 L17.8910619,21 C17.9546287,20.9949181 17.9954131,20.9464866 17.9906966,20.8914599 L16.8078394,7.09145989 C16.804514,7.05266357 16.7793361,7.02061554 16.7450521,7.0070163 L16.7082048,7 L15,7 L16,21 Z" id="Shape" fill="#0D0E10" fill-rule="nonzero"></path>
    </g>
</svg>