<?xml version="1.0" encoding="UTF-8"?>
<svg width="24px" height="24px" viewBox="0 0 24 24" version="1.1" xmlns="http://www.w3.org/2000/svg" xmlns:xlink="http://www.w3.org/1999/xlink">
    <title>backspace</title>
    <g id="backspace" stroke="none" stroke-width="1" fill="none" fill-rule="evenodd">
        <path d="M20,5 C21.6568542,5 23,6.34314575 23,8 L23,17 C23,18.6568542 21.6568542,20 20,20 L9.23038779,20 C8.59186724,20 7.97000154,19.7962716 7.45525764,19.4184526 L1.83635606,15.2942115 C1.64836509,15.1562272 1.4771037,14.9967944 1.32604077,14.8191423 C0.252739734,13.5569257 0.40588611,11.6636145 1.66810277,10.5903135 L7.40206178,5.71455456 C7.94452576,5.25328102 8.63337748,5 9.34544521,5 L20,5 Z M20,7 L9.34544521,7 C9.1080893,7 8.87847206,7.08442701 8.69765073,7.23818485 L2.96369172,12.1139438 C2.54295284,12.4717108 2.49190405,13.1028145 2.84967106,13.5235534 C2.90002537,13.5827707 2.9571125,13.635915 3.01977615,13.6819098 L8.63867774,17.8061509 C8.81025904,17.9320905 9.0175476,18 9.23038779,18 L20,18 C20.5522847,18 21,17.5522847 21,17 L21,8 C21,7.44771525 20.5522847,7 20,7 Z M13.7071068,9.29289322 L15.656,11.242 L17.6066017,9.29289322 C17.997126,8.90236893 18.630291,8.90236893 19.0208153,9.29289322 C19.4113396,9.68341751 19.4113396,10.3165825 19.0208153,10.7071068 L17.071,12.656 L19.0208153,14.6066017 C19.4113396,14.997126 19.4113396,15.630291 19.0208153,16.0208153 C18.630291,16.4113396 17.997126,16.4113396 17.6066017,16.0208153 L15.656,14.071 L13.7071068,16.0208153 C13.3165825,16.4113396 12.6834175,16.4113396 12.2928932,16.0208153 C11.9023689,15.630291 11.9023689,14.997126 12.2928932,14.6066017 L14.242,12.656 L12.2928932,10.7071068 C11.9023689,10.3165825 11.9023689,9.68341751 12.2928932,9.29289322 C12.6834175,8.90236893 13.3165825,8.90236893 13.7071068,9.29289322 Z" id="Shape" fill="#0D0E10" fill-rule="nonzero"></path>
    </g>
</svg>