<?xml version="1.0" encoding="UTF-8"?>
<svg width="24px" height="24px" viewBox="0 0 24 24" version="1.1" xmlns="http://www.w3.org/2000/svg" xmlns:xlink="http://www.w3.org/1999/xlink">
    <title>ban</title>
    <g id="ban" stroke="none" stroke-width="1" fill="none" fill-rule="evenodd">
        <path d="M12,0 C18.627417,0 24,5.372583 24,12 C24,18.627417 18.627417,24 12,24 C5.372583,24 0,18.627417 0,12 C0,5.372583 5.372583,0 12,0 Z M2,12 C2,17.5228475 6.4771525,22 12,22 C14.4008955,22 16.6041735,21.1538988 18.3279248,19.7436056 L4.25721107,5.67107713 C2.84642785,7.39497596 2,9.59864107 2,12 Z M12,2 C9.59864107,2 7.39497596,2.84642785 5.67107713,4.25721107 L19.7436056,18.3279248 C21.1538988,16.6041735 22,14.4008955 22,12 C22,6.4771525 17.5228475,2 12,2 Z" id="Shape" fill="#0D0E10" fill-rule="nonzero"></path>
    </g>
</svg>