<?xml version="1.0" encoding="UTF-8"?>
<svg width="24px" height="24px" viewBox="0 0 24 24" version="1.1" xmlns="http://www.w3.org/2000/svg" xmlns:xlink="http://www.w3.org/1999/xlink">
    <title>basket</title>
    <g id="basket" stroke="none" stroke-width="1" fill="none" fill-rule="evenodd">
        <path d="M15.5,3.40192379 C15.9782926,3.12578141 16.589883,3.28965657 16.8660254,3.76794919 L19.309,7.99978222 L22,8 C22.5522847,8 23,8.44771525 23,9 C23,9.55228475 22.5522847,10 22,10 L21.053,9.99978222 L19.2613288,17.6816888 C18.9445165,19.0394559 17.7340439,20 16.3398052,20 L7.66019479,20 C6.26595611,20 5.05548348,19.0394559 4.73867116,17.6816888 L2.946,9.99978222 L2,10 C1.44771525,10 1,9.55228475 1,9 C1,8.44771525 1.44771525,8 2,8 L4.69,7.99978222 L7.1339746,3.76794919 C7.41011697,3.28965657 8.02170738,3.12578141 8.5,3.40192379 C8.97829262,3.67806616 9.14216778,4.28965657 8.8660254,4.76794919 L7,7.99978222 L16.999,7.99978222 L15.1339746,4.76794919 C14.8775567,4.32382033 15.0005416,3.76475613 15.402367,3.46606074 L15.5,3.40192379 Z M19,10 L5,10 L6.68635358,17.2272296 C6.79195768,17.6798186 7.19544856,18 7.66019479,18 L16.3398052,18 C16.8045514,18 17.2080423,17.6798186 17.3136464,17.2272296 L19,10 Z M10,12 C10.5522847,12 11,12.4477153 11,13 L11,15 C11,15.5522847 10.5522847,16 10,16 C9.44771525,16 9,15.5522847 9,15 L9,13 C9,12.4477153 9.44771525,12 10,12 Z M14,12 C14.5522847,12 15,12.4477153 15,13 L15,15 C15,15.5522847 14.5522847,16 14,16 C13.4477153,16 13,15.5522847 13,15 L13,13 C13,12.4477153 13.4477153,12 14,12 Z" id="Shape" fill="#0D0E10" fill-rule="nonzero"></path>
    </g>
</svg>