<?xml version="1.0" encoding="UTF-8"?>
<svg width="24px" height="24px" viewBox="0 0 24 24" version="1.1" xmlns="http://www.w3.org/2000/svg" xmlns:xlink="http://www.w3.org/1999/xlink">
    <title>bell</title>
    <g id="bell" stroke="none" stroke-width="1" fill="none" fill-rule="evenodd">
        <path d="M12,0 C16.8261521,0 20,3.83632754 20,9 C20,10.9865714 20.369391,12.7435594 21.0293638,14.4933991 C21.0979116,14.6751454 21.2089954,14.9467289 21.3300289,15.2356969 L21.453172,15.5277762 C21.7012638,16.1127909 21.9457056,16.6707398 21.9258063,16.6220016 C22.3598401,17.6850518 21.6961615,18.1117365 20.6077677,18.3937633 C20.0894939,18.5280595 19.3579549,18.6371306 18.4312389,18.7253313 C16.7415271,18.8861507 14.4219313,18.9731066 12,18.9731066 C9.57806872,18.9731066 7.2584729,18.8861507 5.56876105,18.7253313 C4.64204514,18.6371306 3.91050613,18.5280595 3.39223227,18.3937633 C2.30383852,18.1117365 1.64015993,17.6850518 2.07419373,16.6220016 C2.05595267,16.6666783 2.2598316,16.2015692 2.48503192,15.6731306 L2.60877607,15.3812942 C2.75279508,15.0397522 2.89066379,14.7054365 2.9706362,14.4933991 C3.63060895,12.7435594 4,10.9865714 4,9 C4,3.83632754 7.17384789,0 12,0 Z M12,2 C8.37108325,2 6,4.86600123 6,9 C6,11.2482357 5.58169761,13.2378677 4.84196118,15.1991914 C4.72816682,15.5009037 4.51804672,16.0041838 4.32744776,16.451776 L4.28815674,16.542 L4.36816151,16.5573129 C4.67474734,16.610982 5.0513324,16.6615478 5.48865094,16.7073976 L5.75825595,16.7343286 C7.37720241,16.8884129 9.63645344,16.9731066 12,16.9731066 C14.3635466,16.9731066 16.6227976,16.8884129 18.2417441,16.7343286 C18.7952336,16.6816499 19.2639355,16.6217159 19.6318385,16.5573129 L19.7101567,16.542 L19.6725522,16.451776 C19.6534923,16.4070168 19.6342372,16.3617007 19.6149028,16.316085 L19.4988703,16.0408532 C19.3645505,15.7203569 19.2376949,15.41039 19.1580388,15.1991914 C18.4183024,13.2378677 18,11.2482357 18,9 C18,4.86600123 15.6289168,2 12,2 Z M14.1055728,20.5527864 C14.3525621,20.0588079 14.9532351,19.8585836 15.4472136,20.1055728 C15.9411921,20.3525621 16.1414164,20.9532351 15.8944272,21.4472136 C15.0639712,23.1081256 13.7261596,24 12,24 C10.2738404,24 8.93602881,23.1081256 8.10557281,21.4472136 C7.85858356,20.9532351 8.05880791,20.3525621 8.5527864,20.1055728 C9.0467649,19.8585836 9.64743794,20.0588079 9.89442719,20.5527864 C10.3973045,21.5585411 11.0594929,22 12,22 C12.9405071,22 13.6026955,21.5585411 14.1055728,20.5527864 Z" id="Combined-Shape" fill="#0D0E10" fill-rule="nonzero"></path>
    </g>
</svg>