<?xml version="1.0" encoding="UTF-8"?>
<svg width="24px" height="24px" viewBox="0 0 24 24" version="1.1" xmlns="http://www.w3.org/2000/svg" xmlns:xlink="http://www.w3.org/1999/xlink">
    <title>bell-filled</title>
    <g id="bell-filled" stroke="none" stroke-width="1" fill="none" fill-rule="evenodd">
        <path d="M12,0 C16.7384039,0 19.8840411,3.69809293 19.9968615,8.71967659 L20,9 C20,10.9865714 20.369391,12.7435594 21.0293638,14.4933991 L21.1299529,14.7499796 L21.7899858,16.3125462 C21.8796203,16.519068 21.9357559,16.6463707 21.9258063,16.6220016 C22.3598401,17.6850518 21.6961615,18.1117365 20.6077677,18.3937633 C20.0894939,18.5280595 19.3579549,18.6371306 18.4312389,18.7253313 C16.7415271,18.8861507 14.4219313,18.9731066 12,18.9731066 L10.9698329,18.967821 C8.92818183,18.9467547 7.0170855,18.8631765 5.56876105,18.7253313 C4.64204514,18.6371306 3.91050613,18.5280595 3.39223227,18.3937633 C2.35115999,18.1239986 1.69867398,17.7218814 2.02375053,16.7570919 L2.09458422,16.5769733 C2.1511861,16.44864 2.31180091,16.0796219 2.48503192,15.6731306 L2.87328154,14.7419348 C2.91088834,14.6483439 2.94397873,14.5640782 2.9706362,14.4933991 C3.57984182,12.8781624 3.94145119,11.2568349 3.99347863,9.45446535 L4,9 C4,3.83632754 7.17384789,0 12,0 Z M14.1055728,20.5527864 C14.3525621,20.0588079 14.9532351,19.8585836 15.4472136,20.1055728 C15.9411921,20.3525621 16.1414164,20.9532351 15.8944272,21.4472136 C15.0639712,23.1081256 13.7261596,24 12,24 C10.2738404,24 8.93602881,23.1081256 8.10557281,21.4472136 C7.85858356,20.9532351 8.05880791,20.3525621 8.5527864,20.1055728 C9.0467649,19.8585836 9.64743794,20.0588079 9.89442719,20.5527864 C10.3973045,21.5585411 11.0594929,22 12,22 C12.9405071,22 13.6026955,21.5585411 14.1055728,20.5527864 Z" id="Shape" fill="#0D0E10" fill-rule="nonzero"></path>
    </g>
</svg>