<?xml version="1.0" encoding="UTF-8"?>
<svg width="24px" height="24px" viewBox="0 0 24 24" version="1.1" xmlns="http://www.w3.org/2000/svg" xmlns:xlink="http://www.w3.org/1999/xlink">
    <title>bookmark</title>
    <g id="bookmark" stroke="none" stroke-width="1" fill="none" fill-rule="evenodd">
        <path d="M18,1 C19.6568542,1 21,2.34314575 21,4 L21,20.9128897 C21,22.2936016 19.8807119,23.412935 18.5,23.412935 C17.9032218,23.412935 17.3261293,23.1994093 16.8730216,22.8110312 L12,18.634 L7.12697843,22.8110312 C6.12424272,23.6705189 4.63665123,23.5968115 3.72281655,22.6713406 L3.60185849,22.5398681 C3.2134804,22.0867603 3,21.5096679 3,20.9128897 L3,4 C3,2.34314575 4.34314575,1 6,1 L18,1 Z M18,3 L6,3 C5.44771525,3 5,3.44771525 5,4 L5,20.9128897 C5,21.0322453 5.04269608,21.1476638 5.1203717,21.2382854 C5.30008277,21.4479483 5.61573277,21.4722291 5.82539569,21.292518 L11.3492086,16.5578212 C11.7236984,16.23683 12.2763016,16.23683 12.6507914,16.5578212 L18.1746043,21.292518 C18.2652259,21.3701936 18.3806444,21.4128987 18.5,21.4128987 C18.7761424,21.4128987 19,21.1890321 19,20.9128897 L19,4 C19,3.44771525 18.5522847,3 18,3 Z" id="Rectangle" fill="#0D0E10" fill-rule="nonzero"></path>
    </g>
</svg>