<?xml version="1.0" encoding="UTF-8"?>
<svg width="24px" height="24px" viewBox="0 0 24 24" version="1.1" xmlns="http://www.w3.org/2000/svg" xmlns:xlink="http://www.w3.org/1999/xlink">
    <title>bunk-bed</title>
    <g id="bunk-bed" stroke="none" stroke-width="1" fill="none" fill-rule="evenodd">
        <path d="M23,22 C23,22.5522847 22.5522847,23 22,23 C21.4477153,23 21,22.5522847 21,22 L21,20 L3,20 L3,22 C3,22.5522847 2.55228475,23 2,23 C1.44771525,23 1,22.5522847 1,22 L1,2 C1,1.44771525 1.44771525,1 2,1 C2.55228475,1 3,1.44771525 3,2 L3,6 L5,6 C7.209139,6 9,7.790861 9,10 L21,10 L21,9 C21,8.44771525 21.4477153,8 22,8 C22.5522847,8 23,8.44771525 23,9 L23,22 Z M5,16 L3,16 L3,18 L7,18 C7,16.8954305 6.1045695,16 5,16 Z M21,12 L3,12 L3,14 L5,14 C7.209139,14 9,15.790861 9,18 L21,18 L21,12 Z M5,8 L3,8 L3,10 L7,10 C7,8.8954305 6.1045695,8 5,8 Z" id="Combined-Shape" fill="#000000" fill-rule="nonzero"></path>
    </g>
</svg>