<?xml version="1.0" encoding="UTF-8"?>
<svg width="24px" height="24px" viewBox="0 0 24 24" version="1.1" xmlns="http://www.w3.org/2000/svg" xmlns:xlink="http://www.w3.org/1999/xlink">
    <title>buy</title>
    <g id="buy" stroke="none" stroke-width="1" fill="none" fill-rule="evenodd">
        <path d="M19,19 L6,19 C4.802,19 4.026,18.245 4,17.061 C3.334,11.045 3,5.383 3,4 C3,3.219 2.781,3 2,3 C1.44771525,3 1,2.55228475 1,2 C1,1.44771525 1.44771525,1 2,1 C3.886,1 5,2.114 5,4 L21.996,4 C22.289976,3.99984135 22.5691299,4.12904499 22.7592545,4.35326488 C22.9493791,4.57748477 23.0312121,4.87400429 22.983,5.164 C21.8571048,10.9311173 20.8627715,13.8764506 20,14 L5.883,15.884 L5.993,16.89 L6,17 L19,17 C19.5522847,17 20,17.4477153 20,18 C20,18.5522847 19.5522847,19 19,19 Z M5.668,13.894 L19,12 C19.2875408,11.958959 19.8928741,9.95895898 20.816,6 L5.106,6 C5.212,7.393 5.4,11.36 5.668,13.894 Z M7.25000001,22.7990381 C6.78589839,23.0669873 6.21410161,23.0669873 5.74999999,22.7990381 C5.28589837,22.5310889 5,22.0358984 5,21.5 C5,20.6715729 5.67157288,20 6.5,20 C7.32842712,20 8,20.6715729 8,21.5 C8,22.0358984 7.71410163,22.5310889 7.25000001,22.7990381 Z M20,21.5 C20,20.6715729 19.3284271,20 18.5,20 C17.6715729,20 17,20.6715729 17,21.5 C17,22.3284271 17.6715729,23 18.5,23 C19.3284271,23 20,22.3284271 20,21.5 Z" id="Shape" fill="#0D0E10" fill-rule="nonzero"></path>
    </g>
</svg>