<?xml version="1.0" encoding="UTF-8"?>
<svg width="24px" height="24px" viewBox="0 0 24 24" version="1.1" xmlns="http://www.w3.org/2000/svg" xmlns:xlink="http://www.w3.org/1999/xlink">
    <title>cafe</title>
    <g id="cafe" stroke="none" stroke-width="1" fill="none" fill-rule="evenodd">
        <path d="M20.5,9 C22.4329966,9 24,10.5670034 24,12.5 C24,14.4329966 22.4329966,16 20.5,16 L20,16 C20,18.3900817 18.9518793,20.5353617 17.290196,22.001282 L21,22 C21.5522847,22 22,22.4477153 22,23 C22,23.5128358 21.6139598,23.9355072 21.1166211,23.9932723 L21,24 L3,24 C2.44771525,24 2,23.5522847 2,23 C2,22.4477153 2.44771525,22 3,22 L6.70980401,22.001282 C5.04812066,20.5353617 4,18.3900817 4,16 L4,9 L20.5,9 Z M18,11 L6,11 L6,16 C6,19.3137085 8.6862915,22 12,22 C15.3137085,22 18,19.3137085 18,16 L18,11 Z M20.5,11 L20,11 L20,14 L20.5,14 C21.3284271,14 22,13.3284271 22,12.5 C22,11.6715729 21.3284271,11 20.5,11 Z M9.75,2.46891109 C10.2282926,2.74505346 10.3921678,3.35664387 10.1160254,3.83493649 L8.1160254,7.29903811 C7.83988303,7.77733073 7.22829262,7.94120588 6.75,7.66506351 C6.27170738,7.38892113 6.10783222,6.77733073 6.3839746,6.29903811 L8.3839746,2.83493649 C8.66011697,2.35664387 9.27170738,2.19276871 9.75,2.46891109 Z M13.75,2.46891109 C14.2282926,2.74505346 14.3921678,3.35664387 14.1160254,3.83493649 L12.1160254,7.29903811 C11.839883,7.77733073 11.2282926,7.94120588 10.75,7.66506351 C10.2717074,7.38892113 10.1078322,6.77733073 10.3839746,6.29903811 L12.3839746,2.83493649 C12.660117,2.35664387 13.2717074,2.19276871 13.75,2.46891109 Z M17.75,2.46891109 C18.2282926,2.74505346 18.3921678,3.35664387 18.1160254,3.83493649 L16.1160254,7.29903811 C15.839883,7.77733073 15.2282926,7.94120588 14.75,7.66506351 C14.2717074,7.38892113 14.1078322,6.77733073 14.3839746,6.29903811 L16.3839746,2.83493649 C16.660117,2.35664387 17.2717074,2.19276871 17.75,2.46891109 Z" id="Combined-Shape" fill="#0D0E10" fill-rule="nonzero"></path>
    </g>
</svg>