<?xml version="1.0" encoding="UTF-8"?>
<svg width="24px" height="24px" viewBox="0 0 24 24" version="1.1" xmlns="http://www.w3.org/2000/svg" xmlns:xlink="http://www.w3.org/1999/xlink">
    <title>cafe</title>
    <g id="cafe" stroke="none" stroke-width="1" fill="none" fill-rule="evenodd">
        <path d="M20.5,7 C22.4329966,7 24,8.56700338 24,10.5 C24,12.4329966 22.4329966,14 20.5,14 L20,14 C20,16.3900817 18.9518793,18.5353617 17.290196,20.001282 L21,20 C21.5522847,20 22,20.4477153 22,21 C22,21.5128358 21.6139598,21.9355072 21.1166211,21.9932723 L21,22 L3,22 C2.44771525,22 2,21.5522847 2,21 C2,20.4477153 2.44771525,20 3,20 L6.70980401,20.001282 C5.04812066,18.5353617 4,16.3900817 4,14 L4,8 C4,7.44771525 4.44771525,7 5,7 L20.5,7 Z M18,9 L6,9 L6,14 C6,17.3137085 8.6862915,20 12,20 C15.3137085,20 18,17.3137085 18,14 L18,9 Z M20.5,9 L20,9 L20,12 L20.5,12 C21.3284271,12 22,11.3284271 22,10.5 C22,9.67157288 21.3284271,9 20.5,9 Z M8,2 C8.55228475,2 9,2.44771525 9,3 L9,5 C9,5.55228475 8.55228475,6 8,6 C7.44771525,6 7,5.55228475 7,5 L7,3 C7,2.44771525 7.44771525,2 8,2 Z M12,2 C12.5522847,2 13,2.44771525 13,3 L13,5 C13,5.55228475 12.5522847,6 12,6 C11.4477153,6 11,5.55228475 11,5 L11,3 C11,2.44771525 11.4477153,2 12,2 Z M16,2 C16.5522847,2 17,2.44771525 17,3 L17,5 C17,5.55228475 16.5522847,6 16,6 C15.4477153,6 15,5.55228475 15,5 L15,3 C15,2.44771525 15.4477153,2 16,2 Z" id="Shape" fill="#0D0E10" fill-rule="nonzero"></path>
    </g>
</svg>