<?xml version="1.0" encoding="UTF-8"?>
<svg width="24px" height="24px" viewBox="0 0 24 24" version="1.1" xmlns="http://www.w3.org/2000/svg" xmlns:xlink="http://www.w3.org/1999/xlink">
    <title>calendar-sort-down</title>
    <g id="calendar-sort-down" stroke="none" stroke-width="1" fill="none" fill-rule="evenodd">
        <path d="M17,0 C17.5522847,0 18,0.44771525 18,1 L18,2 L20,2 C21.6568542,2 23,3.34314575 23,5 L23,21 C23,22.6568542 21.6568542,24 20,24 L4,24 C2.34314575,24 1,22.6568542 1,21 L1,5 C1,3.34314575 2.34314575,2 4,2 L6,2 L6,1 C6,0.44771525 6.44771525,0 7,0 C7.55228475,0 8,0.44771525 8,1 L8,2 L16,2 L16,1 C16,0.44771525 16.4477153,0 17,0 Z M21,10 L3,10 L3,21 C3,21.5522847 3.44771525,22 4,22 L20,22 C20.5522847,22 21,21.5522847 21,21 L21,10 Z M12,12 C12.5522847,12 13,12.4477153 13,13 L13,16.414 L14.1213203,15.2928932 C14.4818043,14.9324093 15.0490354,14.9046797 15.4413266,15.2097046 L15.5355339,15.2928932 C15.9260582,15.6834175 15.9260582,16.3165825 15.5355339,16.7071068 L12.7071068,19.5355339 C12.3165825,19.9260582 11.6834175,19.9260582 11.2928932,19.5355339 L8.46446609,16.7071068 C8.0739418,16.3165825 8.0739418,15.6834175 8.46446609,15.2928932 C8.85499039,14.9023689 9.48815536,14.9023689 9.87867966,15.2928932 L11,16.414 L11,13 C11,12.4477153 11.4477153,12 12,12 Z M6,4 L4,4 C3.44771525,4 3,4.44771525 3,5 L3,8 L21,8 L21,5 C21,4.44771525 20.5522847,4 20,4 L18,4 L18,5 C18,5.55228475 17.5522847,6 17,6 C16.4477153,6 16,5.55228475 16,5 L16,4 L8,4 L8,5 C8,5.55228475 7.55228475,6 7,6 C6.44771525,6 6,5.55228475 6,5 L6,4 Z" id="Shape" fill="#0D0E10" fill-rule="nonzero"></path>
    </g>
</svg>