<?xml version="1.0" encoding="UTF-8"?>
<svg width="24px" height="24px" viewBox="0 0 24 24" version="1.1" xmlns="http://www.w3.org/2000/svg" xmlns:xlink="http://www.w3.org/1999/xlink">
    <title>calendar-manage</title>
    <g id="calendar-manage" stroke="none" stroke-width="1" fill="none" fill-rule="evenodd">
        <path d="M17,0 C17.5522847,0 18,0.44771525 18,1 L18,2 L20,2 C21.6568542,2 23,3.34314575 23,5 L23,21 C23,22.6568542 21.6568542,24 20,24 L4,24 C2.34314575,24 1,22.6568542 1,21 L1,5 C1,3.34314575 2.34314575,2 4,2 L6,2 L6,1 C6,0.44771525 6.44771525,0 7,0 C7.55228475,0 8,0.44771525 8,1 L8,2 L16,2 L16,1 C16,0.44771525 16.4477153,0 17,0 Z M21,10 L3,10 L3,21 C3,21.5522847 3.44771525,22 4,22 L20,22 C20.5522847,22 21,21.5522847 21,21 L21,10 Z M18.5426407,14.232233 C18.933165,14.6227573 18.933165,15.2559223 18.5426407,15.6464466 L14.4213203,19.767767 C14.2066732,19.9824141 13.9187237,20.0790829 13.6380515,20.0577735 C13.356839,20.079314 13.0684573,19.9826709 12.8535534,19.767767 L10.732233,17.6464466 C10.3417088,17.2559223 10.3417088,16.6227573 10.732233,16.232233 C11.1227573,15.8417088 11.7559223,15.8417088 12.1464466,16.232233 L13.6373398,17.7223398 L17.1284271,14.232233 C17.5189514,13.8417088 18.1521164,13.8417088 18.5426407,14.232233 Z M6,4 L4,4 C3.44771525,4 3,4.44771525 3,5 L3,8 L21,8 L21,5 C21,4.44771525 20.5522847,4 20,4 L18,4 L18,5 C18,5.55228475 17.5522847,6 17,6 C16.4477153,6 16,5.55228475 16,5 L16,4 L8,4 L8,5 C8,5.55228475 7.55228475,6 7,6 C6.44771525,6 6,5.55228475 6,5 L6,4 Z" id="Shape" fill="#0D0E10" fill-rule="nonzero"></path>
    </g>
</svg>