<?xml version="1.0" encoding="UTF-8"?>
<svg width="24px" height="24px" viewBox="0 0 24 24" version="1.1" xmlns="http://www.w3.org/2000/svg" xmlns:xlink="http://www.w3.org/1999/xlink">
    <title>calendar-sort-up</title>
    <g id="calendar-sort-up" stroke="none" stroke-width="1" fill="none" fill-rule="evenodd">
        <path d="M17,0 C17.5522847,0 18,0.44771525 18,1 L18,2 L20,2 C21.6568542,2 23,3.34314575 23,5 L23,21 C23,22.6568542 21.6568542,24 20,24 L4,24 C2.34314575,24 1,22.6568542 1,21 L1,5 C1,3.34314575 2.34314575,2 4,2 L6,2 L6,1 C6,0.44771525 6.44771525,0 7,0 C7.55228475,0 8,0.44771525 8,1 L8,2 L16,2 L16,1 C16,0.44771525 16.4477153,0 17,0 Z M21,10 L3,10 L3,21 C3,21.5522847 3.44771525,22 4,22 L20,22 C20.5522847,22 21,21.5522847 21,21 L21,10 Z M12.7071068,12.4644661 L15.5355339,15.2928932 C15.9260582,15.6834175 15.9260582,16.3165825 15.5355339,16.7071068 C15.1450096,17.0976311 14.5118446,17.0976311 14.1213203,16.7071068 L13,15.585 L13,19 C13,19.5522847 12.5522847,20 12,20 C11.4477153,20 11,19.5522847 11,19 L11,15.585 L9.87867966,16.7071068 C9.48815536,17.0976311 8.85499039,17.0976311 8.46446609,16.7071068 C8.0739418,16.3165825 8.0739418,15.6834175 8.46446609,15.2928932 L11.2928932,12.4644661 C11.6834175,12.0739418 12.3165825,12.0739418 12.7071068,12.4644661 Z M6,4 L4,4 C3.44771525,4 3,4.44771525 3,5 L3,8 L21,8 L21,5 C21,4.44771525 20.5522847,4 20,4 L18,4 L18,5 C18,5.55228475 17.5522847,6 17,6 C16.4477153,6 16,5.55228475 16,5 L16,4 L8,4 L8,5 C8,5.55228475 7.55228475,6 7,6 C6.44771525,6 6,5.55228475 6,5 L6,4 Z" id="Shape" fill="#0D0E10" fill-rule="nonzero"></path>
    </g>
</svg>