<?xml version="1.0" encoding="UTF-8"?>
<svg width="24px" height="24px" viewBox="0 0 24 24" version="1.1" xmlns="http://www.w3.org/2000/svg" xmlns:xlink="http://www.w3.org/1999/xlink">
    <title>camera-error</title>
    <g id="camera-error" stroke="none" stroke-width="1" fill="none" fill-rule="evenodd">
        <path d="M17.5857864,16.1715729 L20,18.5854844 L22.4142136,16.1715729 C22.8047379,15.7810486 23.4379028,15.7810486 23.8284271,16.1715729 C24.2189514,16.5620972 24.2189514,17.1952621 23.8284271,17.5857864 L21.4142136,19.999698 L23.8284271,22.4142136 C24.2189514,22.8047379 24.2189514,23.4379028 23.8284271,23.8284271 C23.4379028,24.2189514 22.8047379,24.2189514 22.4142136,23.8284271 L20,21.4139115 L17.5857864,23.8284271 C17.1952621,24.2189514 16.5620972,24.2189514 16.1715729,23.8284271 C15.7810486,23.4379028 15.7810486,22.8047379 16.1715729,22.4142136 L18.5857864,19.999698 L16.1715729,17.5857864 C15.7810486,17.1952621 15.7810486,16.5620972 16.1715729,16.1715729 C16.5620972,15.7810486 17.1952621,15.7810486 17.5857864,16.1715729 Z M15,1 C15.3343532,1 15.6465845,1.16710114 15.8320503,1.4452998 L17.535,4 L20,4 C21.5976809,4 22.9036609,5.24891996 22.9949073,6.82372721 L23,7 L23,13 L21,13 L21,7 C21,6.44771525 20.5522847,6 20,6 L17,6 C16.6656468,6 16.3534155,5.83289886 16.1679497,5.5547002 L14.464,3 L9.535,3 L7.83205029,5.5547002 C7.66976774,5.79812403 7.41043031,5.95648882 7.1241411,5.99227652 L7,6 L4,6 C3.44771525,6 3,6.44771525 3,7 L3,18 C3,18.5522847 3.44771525,19 4,19 L14,19 L14,21 L4,21 C2.34314575,21 1,19.6568542 1,18 L1,7 C1,5.34314575 2.34314575,4 4,4 L6.464,4 L8.16794971,1.4452998 C8.33023226,1.20187597 8.58956969,1.04351118 8.8758589,1.00772348 L9,1 L15,1 Z M12,7 C14.7614237,7 17,9.23857625 17,12 C17,14.7614237 14.7614237,17 12,17 C9.23857625,17 7,14.7614237 7,12 C7,9.23857625 9.23857625,7 12,7 Z M12,9 C10.3431458,9 9,10.3431458 9,12 C9,13.6568542 10.3431458,15 12,15 C13.6568542,15 15,13.6568542 15,12 C15,10.3431458 13.6568542,9 12,9 Z" id="Shape" fill="#0D0E10" fill-rule="nonzero"></path>
    </g>
</svg>