<?xml version="1.0" encoding="UTF-8"?>
<svg width="24px" height="24px" viewBox="0 0 24 24" version="1.1" xmlns="http://www.w3.org/2000/svg" xmlns:xlink="http://www.w3.org/1999/xlink">
    <title>car-rental-desk</title>
    <g id="car-rental-desk" stroke="none" stroke-width="1" fill="none" fill-rule="evenodd">
        <path d="M13,1 C15.7614237,1 18,3.23857625 18,6 L18,8 C18,9.59768088 16.75108,10.9036609 15.1762728,10.9949073 L14.999,11 L15,12.2836511 L14.562,13.794 L15.0595698,16.0533712 L14.574,17.818 L15.2540402,20.2901577 L11.5,23.7029216 L8,20.5211034 L7.999,11 L7.82372721,10.9949073 C6.24891996,10.9036609 5,9.59768088 5,8 L5,6 C5,3.23857625 7.23857625,1 10,1 L13,1 Z M13,11 L10,11 L10,19.6363636 L11.5,21 L13,19.6363636 L12.5,17.8181818 L13,16 L12.5,13.7272727 L13,12 L13,11 Z M13,3 L10,3 C8.34314575,3 7,4.34314575 7,6 L7,8 C7,8.55228475 7.44771525,9 8,9 L15,9 C15.5522847,9 16,8.55228475 16,8 L16,6 C16,4.34314575 14.6568542,3 13,3 Z M13,5 C13.5522847,5 14,5.44771525 14,6 C14,6.55228475 13.5522847,7 13,7 L10,7 C9.44771525,7 9,6.55228475 9,6 C9,5.44771525 9.44771525,5 10,5 L13,5 Z" id="Combined-Shape" fill="#0D0E10" fill-rule="nonzero"></path>
    </g>
</svg>