<?xml version="1.0" encoding="UTF-8"?>
<svg width="24px" height="24px" viewBox="0 0 24 24" version="1.1" xmlns="http://www.w3.org/2000/svg" xmlns:xlink="http://www.w3.org/1999/xlink">
    <title>cargo-metal</title>
    <g id="cargo-metal" stroke="none" stroke-width="1" fill="none" fill-rule="evenodd">
        <g id="Icon-freight-metal-products" transform="translate(11.9897, 12) scale(-1, 1) translate(-11.9897, -12)translate(1.4915, 2.5)" fill="#0D0E10" fill-rule="nonzero">
            <path d="M20.1109359,0 C20.8720026,0 21.2678673,0.916870303 20.7859488,1.43595449 L16.4530008,5.58001758 L16.4530008,7.44901758 L20.1109359,7.44977835 C20.7773773,7.44977835 21.1637076,8.1589695 20.9082373,8.68317149 L20.8564184,8.77357541 L20.8139986,8.85969982 L20.7117501,8.99943895 L10.5409027,18.7647797 C10.4009025,18.9069001 10.1868696,19.0000176 9.9726034,19.0000176 L0.85234612,19.0000176 C0.140888577,19.0000176 -0.267390069,18.1334161 0.199207215,17.5462603 L0.250647023,17.4942709 L4.50900081,13.3850176 L4.50900081,11.5070176 L0.85234612,11.5071946 C0.176461454,11.5071946 -0.225804257,10.7250868 0.13570773,10.1434633 L0.199207215,10.0534373 L0.25153195,10.0005962 L10.4223793,0.235255466 C10.5659009,0.0895604387 10.733901,0.0190803999 10.9190859,0.00373433623 L10.9742992,0.000670594033 L20.1109359,0 Z M4.50858175,15.7984195 L3.02558175,17.2244195 L4.50858175,17.2244195 L4.50858175,15.7984195 Z M17.9305005,9.22489797 L15.9415005,9.22489797 L7.57050049,17.224898 L9.55850049,17.224898 L17.9305005,9.22489797 Z M14.6997625,7.49312804 L14.696,7.268 L10.5409027,11.2719567 C10.4372149,11.3772148 10.3152725,11.4468462 10.1804369,11.4810655 C10.0917062,11.5035841 10.0348002,11.5071946 9.9301836,11.5071946 L6.27304307,11.5071037 L6.27304307,16.0811037 L14.7120431,8.01310371 L14.6997625,7.49312804 Z M17.9305817,1.7751372 L11.4025817,1.7751372 L3.03158175,9.7751372 L9.55858175,9.7751372 L17.9305817,1.7751372 Z" id="Shape"></path>
        </g>
    </g>
</svg>