<?xml version="1.0" encoding="UTF-8"?>
<svg width="24px" height="24px" viewBox="0 0 24 24" version="1.1" xmlns="http://www.w3.org/2000/svg" xmlns:xlink="http://www.w3.org/1999/xlink">
    <title>cargo-construction</title>
    <g id="cargo-construction" stroke="none" stroke-width="1" fill="none" fill-rule="evenodd">
        <path d="M7.5,0.675 L11.3,4.475 C12.1,5.275 12.1,6.375 11.6,7.275 L11.6,10.575 L13.9,8.275 C14.3,7.875 15,7.975 15.2,8.375 L15.3,8.475 L17.3,12.675 L18,14.475 L21.8,22.675 C22.1,23.375 21.4,24.075 20.7,23.875 L20.6,23.875 L6.5,17.275 C6,16.975 5.8,16.275 6.3,15.875 L7.43765011,14.562 L9.6,12.575 L9.6,8.575 C9.1,8.575 8.5,8.375 8.1,8.075 L5,5 C3.8,3.825 3,2 4,1 L4.4,0.675 C5,-1.92901251e-15 6.7,-0.225 7.5,0.675 Z M14.1,10.275 L11.8,12.575 L14,14.775 C14.3,15.075 14.3,15.575 14.1,15.875 L14,15.975 C13.7,16.275 13.2,16.275 12.9,16.075 L10.6,13.775 L8.3,16.075 L19.2,21.175 L14.1,10.275 Z M5.5,1.875 C5.3,2.075 5.3,2.375 5.5,2.575 L9.3,6.375 C9.5,6.575 9.8,6.575 10,6.375 C10.2,6.175 10.2,5.875 10,5.675 L6.2,1.875 C6,1.675 5.7,1.675 5.5,1.875 Z" id="Shape" fill="#0D0E10" fill-rule="nonzero"></path>
    </g>
</svg>