<?xml version="1.0" encoding="UTF-8"?>
<svg width="24px" height="24px" viewBox="0 0 24 24" version="1.1" xmlns="http://www.w3.org/2000/svg" xmlns:xlink="http://www.w3.org/1999/xlink">
    <title>changing-table</title>
    <g id="changing-table" stroke="none" stroke-width="1" fill="none" fill-rule="evenodd">
        <path d="M20,1 C22.209139,1 24,2.790861 24,5 L24,15 C24,19.418278 20.418278,23 16,23 L8,23 C3.66508574,23 0.135457134,19.5521622 0.00380682464,15.2491793 L-0.000496712196,14.8029805 L-9.94760914e-14,5 C-9.94760914e-14,2.790861 1.790861,1 4,1 L20,1 Z M3,14 C2.65907697,14 2.32479504,14.028434 1.99939632,14.0830597 L2,15 C2,18.3137085 4.6862915,21 8,21 L8.91680418,21.0014139 C8.97151883,20.6757598 9,20.341206 9,20 C9,16.6862915 6.3137085,14 3,14 Z M20.9983005,14 C17.684592,14 14.9983005,16.6862915 14.9983005,20 C14.9983005,20.341206 15.0267816,20.6757598 15.0814963,21.0014139 L16,21 C19.3137085,21 22,18.3137085 22,15 L22.0004725,14.0833233 C21.6745796,14.0285254 21.3397712,14 20.9983005,14 Z M20,3 L4,3 C2.8954305,3 2,3.8954305 2,5 L2,7 L6,7 C6.55228475,7 7,7.44771525 7,8 C7,8.55228475 6.55228475,9 6,9 L2,9 L1.99970174,12.061931 C2.32739167,12.0210561 2.66123688,12 3,12 C7.418278,12 11,15.581722 11,20 C11,20.3390168 10.9789124,20.6731082 10.9379772,21.0010343 L13.0603233,21.0010343 C13.0193881,20.6731082 12.9983005,20.3390168 12.9983005,20 C12.9983005,15.581722 16.5800225,12 20.9983005,12 C21.3374065,12 21.6715846,12.0210988 21.9995937,12.0620551 L22,9 L18,9 C17.4477153,9 17,8.55228475 17,8 C17,7.44771525 17.4477153,7 18,7 L22,7 L22,5 C22,3.8954305 21.1045695,3 20,3 Z" id="Shape" fill="#0D0E10" fill-rule="nonzero"></path>
    </g>
</svg>