<?xml version="1.0" encoding="UTF-8"?>
<svg width="24px" height="24px" viewBox="0 0 24 24" version="1.1" xmlns="http://www.w3.org/2000/svg" xmlns:xlink="http://www.w3.org/1999/xlink">
    <title>check-double</title>
    <g id="check-double" stroke="none" stroke-width="1" fill="none" fill-rule="evenodd">
        <path d="M21.9497475,5.29289322 C22.3402718,5.68341751 22.3402718,6.31658249 21.9497475,6.70710678 L10.0502525,18.6066017 C9.87001055,18.7868437 9.6380818,18.8838971 9.40217714,18.8977618 L9.1836093,18.8977618 C8.94770464,18.8838971 8.71577589,18.7868437 8.53553391,18.6066017 L2.29289322,12.363961 C1.90236893,11.9734367 1.90236893,11.3402718 2.29289322,10.9497475 C2.68341751,10.5592232 3.31658249,10.5592232 3.70710678,10.9497475 L9.293,16.535 L20.5355339,5.29289322 C20.9260582,4.90236893 21.5592232,4.90236893 21.9497475,5.29289322 Z M14.9497475,5.29289322 C15.3402718,5.68341751 15.3402718,6.31658249 14.9497475,6.70710678 L10.0502525,11.6066017 C9.87001055,11.7868437 9.6380818,11.8838971 9.40217714,11.8977618 L9.1836093,11.8977618 C8.94770464,11.8838971 8.71577589,11.7868437 8.53553391,11.6066017 L5.29289322,8.36396103 C4.90236893,7.97343674 4.90236893,7.34027176 5.29289322,6.94974747 C5.68341751,6.55922318 6.31658249,6.55922318 6.70710678,6.94974747 L9.293,9.535 L13.5355339,5.29289322 C13.9260582,4.90236893 14.5592232,4.90236893 14.9497475,5.29289322 Z" id="Shape" fill="#0D0E10" fill-rule="nonzero"></path>
    </g>
</svg>