<?xml version="1.0" encoding="UTF-8"?>
<svg width="24px" height="24px" viewBox="0 0 24 24" version="1.1" xmlns="http://www.w3.org/2000/svg" xmlns:xlink="http://www.w3.org/1999/xlink">
    <title>check-circle-filled</title>
    <g id="check-circle-filled" stroke="none" stroke-width="1" fill="none" fill-rule="evenodd">
        <path d="M12,0 C18.627417,0 24,5.372583 24,12 C24,18.627417 18.627417,24 12,24 C5.372583,24 0,18.627417 0,12 C0,5.372583 5.372583,0 12,0 Z M17.5426407,9.23223305 C17.1521164,8.84170876 16.5189514,8.84170876 16.1284271,9.23223305 L11.6373398,13.7223398 L9.14644661,11.232233 C8.75592232,10.8417088 8.12275734,10.8417088 7.73223305,11.232233 C7.34170876,11.6227573 7.34170876,12.2559223 7.73223305,12.6464466 L10.8535534,15.767767 C11.0684573,15.9826709 11.356839,16.079314 11.6380515,16.0577735 C11.9187237,16.0790829 12.2066732,15.9824141 12.4213203,15.767767 L17.5426407,10.6464466 C17.933165,10.2559223 17.933165,9.62275734 17.5426407,9.23223305 Z" id="Shape" fill="#0D0E10" fill-rule="nonzero"></path>
    </g>
</svg>