<?xml version="1.0" encoding="UTF-8"?>
<svg width="24px" height="24px" viewBox="0 0 24 24" version="1.1" xmlns="http://www.w3.org/2000/svg" xmlns:xlink="http://www.w3.org/1999/xlink">
    <title>clear</title>
    <g id="clear" stroke="none" stroke-width="1" fill="none" fill-rule="evenodd">
        <path d="M20,1 C21.6568542,1 23,2.34314575 23,4 L23,20 C23,21.6568542 21.6568542,23 20,23 L4,23 C2.34314575,23 1,21.6568542 1,20 L1,4 C1,2.34314575 2.34314575,1 4,1 L20,1 Z M20,3 L4,3 C3.44771525,3 3,3.44771525 3,4 L3,20 C3,20.5522847 3.44771525,21 4,21 L20,21 C20.5522847,21 21,20.5522847 21,20 L21,4 C21,3.44771525 20.5522847,3 20,3 Z M17,11 C17.5522847,11 18,11.4477153 18,12 C18,12.5522847 17.5522847,13 17,13 L7,13 C6.44771525,13 6,12.5522847 6,12 C6,11.4477153 6.44771525,11 7,11 L17,11 Z" id="Shape" fill="#0D0E10" fill-rule="nonzero"></path>
    </g>
</svg>