<?xml version="1.0" encoding="UTF-8"?>
<svg width="24px" height="24px" viewBox="0 0 24 24" version="1.1" xmlns="http://www.w3.org/2000/svg" xmlns:xlink="http://www.w3.org/1999/xlink">
    <title>clean</title>
    <g id="clean" stroke="none" stroke-width="1" fill="none" fill-rule="evenodd">
        <path d="M16.2724881,2.98367699 L22.0288339,8.74002275 C23.2004068,9.91159562 23.2004068,11.8110906 22.0287847,12.9827126 L13.3037618,21.7071287 C13.1162274,21.89465 12.8618841,21.9999973 12.5966796,21.9999973 L7.10026543,21.9999973 C6.83504453,21.9999973 6.58068676,21.894637 6.39314965,21.7070951 L1.9711661,17.284999 C0.799593224,16.1134262 0.799593224,14.2139312 1.9711661,13.0423583 L12.0298475,2.98367699 C13.2014203,1.81210411 15.1009153,1.81210411 16.2724881,2.98367699 Z M9.71348644,8.12699733 L3.38537966,14.4565719 C2.99485537,14.8470962 2.99485537,15.4802612 3.38537966,15.8707855 L7.22159168,19.7070951 C7.40912879,19.894637 7.66348656,19.9999973 7.92870746,19.9999973 L11.7682933,19.9999973 C12.0334977,19.9999973 12.2878411,19.89465 12.4753754,19.7071287 L16.8844864,15.2979973 L9.71348644,8.12699733 Z M13.444061,4.39789055 L11.1274864,6.71299733 L18.2984864,13.8839973 L20.6146203,11.5684499 C21.0051446,11.1779256 21.0051446,10.5447606 20.6146203,10.1542363 L14.8582746,4.39789055 C14.4677503,4.00736626 13.8345853,4.00736626 13.444061,4.39789055 Z" id="Shape" fill="#0D0E10" fill-rule="nonzero"></path>
    </g>
</svg>