<?xml version="1.0" encoding="UTF-8"?>
<svg width="24px" height="24px" viewBox="0 0 24 24" version="1.1" xmlns="http://www.w3.org/2000/svg" xmlns:xlink="http://www.w3.org/1999/xlink">
    <title>cog-alt</title>
    <g id="cog-alt" stroke="none" stroke-width="1" fill="none" fill-rule="evenodd">
        <path d="M12.4192993,4.44089244e-14 C13.3813551,-0.00281282263 14.3048179,0.382579097 14.9850969,1.07082427 C15.665376,1.75906944 16.0463072,2.69334605 16.0434962,3.66666756 L16.0434962,3.86666591 C16.0434962,4.53332709 16.7024411,4.93332379 17.229597,4.59999321 C18.8769592,3.60000144 20.9855828,4.1999965 21.9740001,5.86664944 L22.4352616,6.66664285 C23.4115938,8.36117816 22.8522736,10.5353097 21.1832663,11.5332694 C20.908967,11.6886548 20.7390801,11.9818777 20.7390801,12.2999298 C20.7390801,12.6179819 20.908967,12.9112048 21.1832663,13.0665901 C22.8807021,14.0343239 23.496745,16.2008833 22.5670505,17.9332167 L22.1057891,18.7332102 C21.1173718,20.3998631 19.0087482,20.9998582 17.361386,19.9998664 L17.229597,19.9332003 C16.7024411,19.6665358 16.1093907,19.9998664 16.1093907,20.5998614 C16.1014498,22.4742763 14.6014912,23.9917996 12.7487718,24 L11.6285655,24 C10.7178594,24.0062793 9.84260557,23.6431156 9.19862335,22.9915923 C8.55464113,22.340069 8.19568082,21.4545659 8.2020521,20.5331953 C8.20195644,20.2480859 8.04913489,19.9854241 7.80278912,19.8469627 C7.55644335,19.7085013 7.255274,19.7159925 7.01595131,19.8665342 L6.81826785,19.9998664 C5.99730344,20.479121 5.02148987,20.6078801 4.10648969,20.3576869 C3.1914895,20.1074936 2.41264094,19.4989483 1.94207572,18.666544 L1.4808143,17.9332167 C0.504482063,16.2386814 1.06380224,14.0645499 2.73280958,13.0665901 C3.00710881,12.9112048 3.17699573,12.6179819 3.17699573,12.2999298 C3.17699573,11.9818777 3.00710881,11.6886548 2.73280958,11.5332694 C1.08544737,10.5332777 0.492396978,8.33329579 1.4808143,6.66664285 L1.87618123,5.93331556 C2.34674646,5.10091134 3.12559501,4.49236595 4.0405952,4.24217273 C4.95559539,3.99197951 5.93140895,4.12073859 6.75237336,4.59999321 C7.34542375,4.93332379 8.13615761,4.53332709 8.13615761,3.79999979 L8.13615761,3.66666756 C8.15333957,1.64888435 9.76592617,0.0174142464 11.7603545,4.44089244e-14 L12.4192993,4.44089244e-14 Z M12.4192993,1.99993936 L11.7778012,1.99993936 C10.8795791,2.00777518 10.1440192,2.75195075 10.1361576,3.66666756 L10.1361576,3.79999979 C10.1361576,6.07282349 7.69130545,7.42199526 5.74406828,6.32722245 C5.38685121,6.11868974 4.96450881,6.06296146 4.56810099,6.17135329 C4.16856496,6.28060049 3.82600329,6.54825756 3.63662376,6.88244259 L3.20104819,7.68683664 C2.7832544,8.39131362 3.04168774,9.381125 3.71859033,9.79308661 C4.62141151,10.3045178 5.17699573,11.26345 5.17699573,12.2999298 C5.17699573,13.3364096 4.62141151,14.2953418 3.75919491,14.783137 C3.0295145,15.2194393 2.78131566,16.1842122 3.17376193,16.868356 L3.6831334,17.6823092 C3.89189778,18.051602 4.23445945,18.3192591 4.63399547,18.4285063 C5.02020163,18.5341086 5.43102466,18.4839295 5.78225567,18.2884333 L5.95104914,18.1736126 C6.75372972,17.6687007 7.75317446,17.6115112 8.60303348,18.010908 L8.78273033,18.1034848 C9.66068369,18.5969483 10.2017146,19.5268442 10.2020043,20.547025 C10.1993001,20.9380782 10.3510878,21.3125163 10.6210449,21.5856346 C10.8864939,21.8541921 11.2440386,22.002555 11.6285655,21.9999524 L12.7400083,21.9999524 C13.4897353,21.9966519 14.1060971,21.3730617 14.1093907,20.5998614 C14.1093907,18.4901404 16.2907285,17.2169396 18.1323738,18.1485451 L18.2641628,18.2152112 L18.3991963,18.2902028 C19.0644184,18.6940099 19.9462161,18.4538228 20.3731618,17.7342093 L20.8047935,16.9874631 C21.222854,16.2084757 20.945563,15.2332719 20.1927093,14.8040587 C19.2946644,14.2953418 18.7390801,13.3364096 18.7390801,12.2999298 C18.7390801,11.26345 19.2946644,10.3045178 20.156881,9.81672257 C20.8865614,9.38042032 21.1347602,8.41564744 20.7026343,7.66564372 L20.2537662,6.88684323 C19.8144271,6.14603679 18.9326294,5.90584968 18.2984768,6.29040612 C16.3907053,7.49672595 14.0434962,6.0549468 14.0434962,3.86666591 L14.0435045,3.6608915 C14.044792,3.21511278 13.8708949,2.78861073 13.5626754,2.47678194 C13.2589351,2.16948484 12.8498506,1.99875835 12.4192993,1.99993936 Z M11.9936243,8.00008024 C13.0582166,7.99332462 14.0811634,8.41324553 14.8339589,9.16604108 C15.5867545,9.91883664 16.0066754,10.9417834 16.0000197,12.0000301 C16.0000197,14.2091525 14.2090923,16 11.9999699,16 C9.79084755,16 8,14.2091525 8,12.0000301 C8,9.79090765 9.79084755,7.99999997 11.9936243,8.00008024 Z M11.9999699,10.0000601 C10.895417,10.0000601 10,10.8954772 10,12.0000301 C10,13.104583 10.895417,14 11.9999699,14 C13.1045228,14 13.9999399,13.104583 14,11.9936844 C14.0033218,11.4639136 13.7943574,10.9548667 13.4197454,10.5802546 C13.0451333,10.2056426 12.5360864,9.99667819 11.9999699,10.0000601 Z" id="Combined-Shape" fill="#000000" fill-rule="nonzero"></path>
    </g>
</svg>