<?xml version="1.0" encoding="UTF-8"?>
<svg width="24px" height="24px" viewBox="0 0 24 24" version="1.1" xmlns="http://www.w3.org/2000/svg" xmlns:xlink="http://www.w3.org/1999/xlink">
    <title>compress</title>
    <g id="compress" stroke="none" stroke-width="1" fill="none" fill-rule="evenodd">
        <path d="M14,11 C13.4477153,11 13,10.5522847 13,10 L13,5 C13,4.44771525 13.4477153,4 14,4 C14.5522847,4 15,4.44771525 15,5 L14.999,7.636 L22.3071208,0.293881001 C22.6966916,-0.0956456058 23.32567,-0.0982858542 23.7119835,0.287983842 C24.098297,0.674253538 24.0956564,1.3031607 23.7060857,1.69268731 L16.364,9 L19,9 C19.5522847,9 20,9.44771525 20,10 C20,10.5522847 19.5522847,11 19,11 L14,11 Z M10,13 C10.5522847,13 11,13.4477153 11,14 L11,19 C11,19.5522847 10.5522847,20 10,20 C9.44771525,20 9,19.5522847 9,19 L9,16.364 L1.69287915,23.706119 C1.3033084,24.0956456 0.674329956,24.0982859 0.288016481,23.7120162 C-0.0982969937,23.3257465 -0.0956564461,22.6968393 0.293914309,22.3073127 L7.634,15 L5,15 C4.44771525,15 4,14.5522847 4,14 C4,13.4477153 4.44771525,13 5,13 L10,13 Z" id="Shape" fill="#0D0E10" fill-rule="nonzero"></path>
    </g>
</svg>