<?xml version="1.0" encoding="UTF-8"?>
<svg width="24px" height="24px" viewBox="0 0 24 24" version="1.1" xmlns="http://www.w3.org/2000/svg" xmlns:xlink="http://www.w3.org/1999/xlink">
    <title>compare</title>
    <g id="compare" stroke="none" stroke-width="1" fill="none" fill-rule="evenodd">
        <path d="M5,3 C6.65685425,3 8,4.34314575 8,6 C8,7.30625206 7.1651499,8.41751442 5.99991107,8.82932572 L6,16 C6,16.5522847 6.44771525,17 7,17 L9.73255159,17.000795 L8.47268411,15.7071068 C8.09884889,15.3165825 8.09884889,14.6834175 8.47268411,14.2928932 C8.84651933,13.9023689 9.45262597,13.9023689 9.82646119,14.2928932 L12.7196236,17.2928932 C13.0934588,17.6834175 13.0934588,18.3165825 12.7196236,18.7071068 L9.82646119,21.7071068 C9.45262597,22.0976311 8.84651933,22.0976311 8.47268411,21.7071068 L8.41676416,21.6434994 C8.09988444,21.2506057 8.11852443,20.6628636 8.47268411,20.2928932 L9.73230769,18.9985 L7,19 C5.34314575,19 4,17.6568542 4,16 L3.99909928,8.82897577 C2.83437743,8.41688515 2,7.30588222 2,6 C2,4.34314575 3.34314575,3 5,3 Z M15.0273159,2.29289322 L15.0832358,2.3565006 C15.4001156,2.74939432 15.3814756,3.3371364 15.0273159,3.70710678 L13.7676923,5.0015 L17,5 C18.6568542,5 20,6.34314575 20,8 L19.9999111,15.1706743 C21.1651499,15.5824856 22,16.6937479 22,18 C22,19.6568542 20.6568542,21 19,21 C17.3431458,21 16,19.6568542 16,18 C16,16.6941178 16.8343774,15.5831148 17.9990993,15.1710242 L18,8 C18,7.44771525 17.5522847,7 17,7 L13.7674484,6.999205 L15.0273159,8.29289322 C15.4011511,8.68341751 15.4011511,9.31658249 15.0273159,9.70710678 C14.6534807,10.0976311 14.047374,10.0976311 13.6735388,9.70710678 L10.7803764,6.70710678 C10.4065412,6.31658249 10.4065412,5.68341751 10.7803764,5.29289322 L13.6735388,2.29289322 C14.047374,1.90236893 14.6534807,1.90236893 15.0273159,2.29289322 Z M19,17 C18.4477153,17 18,17.4477153 18,18 C18,18.5522847 18.4477153,19 19,19 C19.5522847,19 20,18.5522847 20,18 C20,17.4477153 19.5522847,17 19,17 Z M5,5 C4.44771525,5 4,5.44771525 4,6 C4,6.55228475 4.44771525,7 5,7 C5.55228475,7 6,6.55228475 6,6 C6,5.44771525 5.55228475,5 5,5 Z" id="Shape" fill="#0D0E10" fill-rule="nonzero"></path>
    </g>
</svg>