<?xml version="1.0" encoding="UTF-8"?>
<svg width="24px" height="24px" viewBox="0 0 24 24" version="1.1" xmlns="http://www.w3.org/2000/svg" xmlns:xlink="http://www.w3.org/1999/xlink">
    <title>contact-at</title>
    <g id="contact-at" stroke="none" stroke-width="1" fill="none" fill-rule="evenodd">
        <path d="M3,12 C3,16.9705627 7.02943311,21 12,21 C12.6213104,21 13.1249896,20.4963203 13.1249896,19.875 C13.1249896,19.2536797 12.6213104,18.75 12,18.75 C8.27207252,18.75 5.24999769,15.7279221 5.24999769,12 C5.24999769,8.27207794 8.27207252,5.25 12,5.25 C15.727909,5.25 18.7499838,8.27207794 18.7499838,12 L18.7499838,15.375 C18.7499838,15.9963203 18.2463047,16.5 17.624985,16.5 C17.0036653,16.5 16.4999861,15.9963203 16.4999861,15.375 L16.4999861,12 C16.4999861,10.1799199 15.4035974,8.5390566 13.7220644,7.8425421 C12.0405314,7.1460276 10.1050032,7.5310285 8.8180135,8.81801948 C7.53102384,10.1050105 7.14602334,12.0405407 7.84253712,13.7220754 C8.53905091,15.4036102 10.1799125,16.5 12,16.5 C12.8110385,16.4960376 13.6055851,16.2705218 14.2977821,15.8478187 C14.5423046,17.6015914 16.1033696,18.8663333 17.869715,18.7417233 C19.6360604,18.6171133 21.004101,17.1457324 21,15.375 L21,12 C20.9950823,7.03146797 16.9685177,3.00489917 12,3 C7.02943311,3 3,7.02943725 3,12 Z M11.9999928,14 C10.8954224,14 9.9999928,13.1045695 9.9999928,12 C9.9999928,10.8954305 10.8954224,10 11.9999928,10 C13.1045591,10 13.9999928,10.8954305 13.9999928,12 C13.9992441,13.1042609 13.1042505,13.9992554 11.9999928,14 Z" id="Shape" fill="#0D0E10" fill-rule="nonzero"></path>
    </g>
</svg>