<?xml version="1.0" encoding="UTF-8"?>
<svg width="24px" height="24px" viewBox="0 0 24 24" version="1.1" xmlns="http://www.w3.org/2000/svg" xmlns:xlink="http://www.w3.org/1999/xlink">
    <title>copy</title>
    <g id="copy" stroke="none" stroke-width="1" fill="none" fill-rule="evenodd">
        <path d="M21,7 C22.6568542,7 24,8.34314575 24,10 L24,21 C24,22.6568542 22.6568542,24 21,24 L10,24 C8.34314575,24 7,22.6568542 7,21 L7,10 C7,8.34314575 8.34314575,7 10,7 L21,7 Z M21,9 L10,9 C9.44771525,9 9,9.44771525 9,10 L9,21 C9,21.5522847 9.44771525,22 10,22 L21,22 C21.5522847,22 22,21.5522847 22,21 L22,10 C22,9.44771525 21.5522847,9 21,9 Z M14,0 C15.6568542,0 17,1.34314575 17,3 L17,4 C17,4.55228475 16.5522847,5 16,5 C15.4477153,5 15,4.55228475 15,4 L15,3 C15,2.44771525 14.5522847,2 14,2 L3,2 C2.44771525,2 2,2.44771525 2,3 L2,14 C2,14.5522847 2.44771525,15 3,15 L4,15 C4.55228475,15 5,15.4477153 5,16 C5,16.5522847 4.55228475,17 4,17 L3,17 C1.34314575,17 0,15.6568542 0,14 L0,3 C0,1.34314575 1.34314575,0 3,0 L14,0 Z" id="Shape" fill="#0D0E10" fill-rule="nonzero"></path>
    </g>
</svg>