<?xml version="1.0" encoding="UTF-8"?>
<svg width="24px" height="24px" viewBox="0 0 24 24" version="1.1" xmlns="http://www.w3.org/2000/svg" xmlns:xlink="http://www.w3.org/1999/xlink">
    <title>copy-document</title>
    <g id="copy-document" stroke="none" stroke-width="1" fill="none" fill-rule="evenodd">
        <path d="M21,3 C22.6568542,3 24,4.34314575 24,6 L24,21 C24,22.6568542 22.6568542,24 21,24 L10,24 C8.34314575,24 7,22.6568542 7,21 L7,6 C7,4.34314575 8.34314575,3 10,3 L21,3 Z M21,5 L10,5 C9.44771525,5 9,5.44771525 9,6 L9,21 C9,21.5522847 9.44771525,22 10,22 L21,22 C21.5522847,22 22,21.5522847 22,21 L22,6 C22,5.44771525 21.5522847,5 21,5 Z M14.2,18 C14.7522847,18 15.2,18.4477153 15.2,19 C15.2,19.5522847 14.7522847,20 14.2,20 L12,20 C11.4477153,20 11,19.5522847 11,19 C11,18.4477153 11.4477153,18 12,18 L14.2,18 Z M15.6,14 C16.1522847,14 16.6,14.4477153 16.6,15 C16.6,15.5522847 16.1522847,16 15.6,16 L12,16 C11.4477153,16 11,15.5522847 11,15 C11,14.4477153 11.4477153,14 12,14 L15.6,14 Z M17,10 C17.5522847,10 18,10.4477153 18,11 C18,11.5522847 17.5522847,12 17,12 L12,12 C11.4477153,12 11,11.5522847 11,11 C11,10.4477153 11.4477153,10 12,10 L17,10 Z M3,22 C1.34314575,22 0,20.6568542 0,19 L0,3 C0,1.34314575 1.34314575,0 3,0 L5,0 L5,2 L3,2 C2.44771525,2 2,2.44771525 2,3 L2,19 C2,19.5522847 2.44771525,20 3,20 L4,20 C4.55228475,20 5,20.4477153 5,21 C5,21.5522847 4.55228475,22 4,22 L3,22 Z" id="Shape" fill="#0D0E10" fill-rule="nonzero"></path>
        <rect id="Rectangle" fill="#0D0E10" fill-rule="nonzero" x="4" y="0" width="4" height="2" rx="1"></rect>
    </g>
</svg>