<?xml version="1.0" encoding="UTF-8"?>
<svg width="24px" height="24px" viewBox="0 0 24 24" version="1.1" xmlns="http://www.w3.org/2000/svg" xmlns:xlink="http://www.w3.org/1999/xlink">
    <title>details</title>
    <g id="details" stroke="none" stroke-width="1" fill="none" fill-rule="evenodd">
        <path d="M14,0 C15.3062521,0 16.4175144,0.834850101 16.8293257,2.00008893 L19,2 C20.6568542,2 22,3.34314575 22,5 L22,21 C22,22.6568542 20.6568542,24 19,24 L5,24 C3.34314575,24 2,22.6568542 2,21 L2,5 C2,3.34314575 3.34314575,2 5,2 L7.17067428,2.00008893 C7.58248558,0.834850101 8.69374794,0 10,0 L14,0 Z M7.17102423,4.00090072 L5,4 C4.44771525,4 4,4.44771525 4,5 L4,21 C4,21.5522847 4.44771525,22 5,22 L19,22 C19.5522847,22 20,21.5522847 20,21 L20,5 C20,4.44771525 19.5522847,4 19,4 L16.8289758,4.00090072 C16.4168852,5.16562257 15.3058822,6 14,6 L10,6 C8.69411778,6 7.58311485,5.16562257 7.17102423,4.00090072 Z M13,18 C13.5522847,18 14,18.4477153 14,19 C14,19.5522847 13.5522847,20 13,20 L7,20 C6.44771525,20 6,19.5522847 6,19 C6,18.4477153 6.44771525,18 7,18 L13,18 Z M13,14 C13.5522847,14 14,14.4477153 14,15 C14,15.5522847 13.5522847,16 13,16 L7,16 C6.44771525,16 6,15.5522847 6,15 C6,14.4477153 6.44771525,14 7,14 L13,14 Z M14,2 L10,2 C9.44771525,2 9,2.44771525 9,3 C9,3.55228475 9.44771525,4 10,4 L14,4 C14.5522847,4 15,3.55228475 15,3 C15,2.44771525 14.5522847,2 14,2 Z" id="Shape" fill="#0D0E10" fill-rule="nonzero"></path>
    </g>
</svg>