<?xml version="1.0" encoding="UTF-8"?>
<svg width="24px" height="24px" viewBox="0 0 24 24" version="1.1" xmlns="http://www.w3.org/2000/svg" xmlns:xlink="http://www.w3.org/1999/xlink">
    <title>dimensions</title>
    <g id="dimensions" stroke="none" stroke-width="1" fill="none" fill-rule="evenodd">
        <path d="M12,1 C12.5522847,1 13,1.44771525 13,2 L13,4 C13,4.04224175 12.9973809,4.08387177 12.9922961,4.12473652 C14.7216399,4.56565679 16,6.13353989 16,8 C16,9.08073352 15.5713991,10.0613619 14.8749009,10.7811818 L18.3405735,16.7852037 C19.3039545,15.9125383 20.0357061,14.7617007 20.3971553,13.4127538 C20.5400971,12.8792877 21.088434,12.5627052 21.6219001,12.705647 C22.1553662,12.8485889 22.4719487,13.3969258 22.3290069,13.9303919 C21.824331,15.8138682 20.7581642,17.3969507 19.3588556,18.5478021 L21.1160254,21.5932667 C21.3921678,22.0715594 21.2282926,22.6831498 20.75,22.9592921 C20.613345,23.03819 20.4658085,23.081168 20.3183234,23.0911557 L20.20789,23.0925065 C19.8776438,23.0782766 19.5614947,22.9007406 19.3839746,22.5932667 L17.6797485,19.6413639 C15.7761157,20.5996773 13.5268945,20.8893586 11.3063031,20.294353 C10.772837,20.1514111 10.4562545,19.6030742 10.5991963,19.0696081 C10.7421381,18.536142 11.2904751,18.2195595 11.8239412,18.3625013 C13.5109511,18.8145342 15.2192061,18.6100712 16.677462,17.9057152 L13.1683783,11.8266662 C12.7987791,11.9393721 12.4064697,12 12,12 C11.7510535,12 11.5074186,11.977258 11.2710596,11.9337383 L5.1160254,22.5932667 C4.95822976,22.8665768 4.69090007,23.03722 4.4014991,23.0817606 L4.29210997,23.0925065 C4.10863986,23.100412 3.92081879,23.0579144 3.75,22.9592921 C3.27170738,22.6831498 3.10783222,22.0715594 3.3839746,21.5932667 L9.45163975,11.0832983 C8.56494499,10.3496123 8,9.24078114 8,8 C8,6.13353989 9.27836013,4.56565679 11.00728,4.12415108 L11.0018922,4.06281146 L11,2 C11,1.44771525 11.4477153,1 12,1 Z M12,6 C10.8954305,6 10,6.8954305 10,8 C10,9.1045695 10.8954305,10 12,10 C13.1045695,10 14,9.1045695 14,8 C14,6.8954305 13.1045695,6 12,6 Z" id="Shape" fill="#0D0E10" fill-rule="nonzero"></path>
    </g>
</svg>