<?xml version="1.0" encoding="UTF-8"?>
<svg width="24px" height="24px" viewBox="0 0 24 24" version="1.1" xmlns="http://www.w3.org/2000/svg" xmlns:xlink="http://www.w3.org/1999/xlink">
    <title>dots-vertical</title>
    <g id="dots-vertical" stroke="none" stroke-width="1" fill="none" fill-rule="evenodd">
        <path d="M14,19.5 C14,18.3954305 13.1045695,17.5 12,17.5 C10.8954305,17.5 10,18.3954305 10,19.5 C10,20.6045695 10.8954305,21.5 12,21.5 C13.1045695,21.5 14,20.6045695 14,19.5 Z M14,12 C14,10.8954305 13.1045695,10 12,10 C10.8954305,10 10,10.8954305 10,12 C10,13.1045695 10.8954305,14 12,14 C13.1045695,14 14,13.1045695 14,12 Z M14,4.5 C14,3.3954305 13.1045695,2.5 12,2.5 C10.8954305,2.5 10,3.3954305 10,4.5 C10,5.6045695 10.8954305,6.5 12,6.5 C13.1045695,6.5 14,5.6045695 14,4.5 Z" id="Shape" fill="#0D0E10" fill-rule="nonzero"></path>
    </g>
</svg>