<?xml version="1.0" encoding="UTF-8"?>
<svg width="24px" height="24px" viewBox="0 0 24 24" version="1.1" xmlns="http://www.w3.org/2000/svg" xmlns:xlink="http://www.w3.org/1999/xlink">
    <title>dots</title>
    <g id="dots" stroke="none" stroke-width="1" fill="none" fill-rule="evenodd">
        <path d="M4.5,14 C5.6045695,14 6.5,13.1045695 6.5,12 C6.5,10.8954305 5.6045695,10 4.5,10 C3.3954305,10 2.5,10.8954305 2.5,12 C2.5,13.1045695 3.3954305,14 4.5,14 Z M12,14 C13.1045695,14 14,13.1045695 14,12 C14,10.8954305 13.1045695,10 12,10 C10.8954305,10 10,10.8954305 10,12 C10,13.1045695 10.8954305,14 12,14 Z M19.5,14 C20.6045695,14 21.5,13.1045695 21.5,12 C21.5,10.8954305 20.6045695,10 19.5,10 C18.3954305,10 17.5,10.8954305 17.5,12 C17.5,13.1045695 18.3954305,14 19.5,14 Z" id="Shape" fill="#0D0E10" fill-rule="nonzero"></path>
    </g>
</svg>