<?xml version="1.0" encoding="UTF-8"?>
<svg width="24px" height="24px" viewBox="0 0 24 24" version="1.1" xmlns="http://www.w3.org/2000/svg" xmlns:xlink="http://www.w3.org/1999/xlink">
    <title>download</title>
    <g id="download" stroke="none" stroke-width="1" fill="none" fill-rule="evenodd">
        <path d="M23,14 C23.5522847,14 24,14.4477153 24,15 L24,21 C24,22.6568542 22.6568542,24 21,24 L3,24 C1.34314575,24 -1.77635684e-13,22.6568542 -1.77635684e-13,21 L-1.77635684e-13,15 C-1.77635684e-13,14.4477153 0.44771525,14 1,14 C1.55228475,14 2,14.4477153 2,15 L2,21 C2,21.5522847 2.44771525,22 3,22 L21,22 C21.5522847,22 22,21.5522847 22,21 L22,15 C22,14.4477153 22.4477153,14 23,14 Z M12,9.23705556e-14 C12.5522847,9.23705556e-14 13,0.44771525 13,1 L12.999205,13.5402439 L14.2928932,12.2803764 C14.6834175,11.9065412 15.3165825,11.9065412 15.7071068,12.2803764 C16.0976311,12.6542116 16.0976311,13.2603183 15.7071068,13.6341535 L12.7071068,16.5273159 C12.3165825,16.9011511 11.6834175,16.9011511 11.2928932,16.5273159 L8.29289322,13.6341535 C7.90236893,13.2603183 7.90236893,12.6542116 8.29289322,12.2803764 L8.3565006,12.2244565 C8.74939432,11.9075767 9.3371364,11.9262167 9.70710678,12.2803764 L11.0015,13.54 L11,1 C11,0.44771525 11.4477153,9.23705556e-14 12,9.23705556e-14 Z" id="Shape" fill="#0D0E10" fill-rule="nonzero"></path>
    </g>
</svg>