<?xml version="1.0" encoding="UTF-8"?>
<svg width="24px" height="24px" viewBox="0 0 24 24" version="1.1" xmlns="http://www.w3.org/2000/svg" xmlns:xlink="http://www.w3.org/1999/xlink">
    <title>download-pdf</title>
    <g id="download-pdf" stroke="none" stroke-width="1" fill="none" fill-rule="evenodd">
        <path d="M17.0007362,0 C17.2659824,-1.18603066e-15 17.5203623,0.105380385 17.7079036,0.292953859 L21.7071674,4.29290363 C21.8946667,4.48043507 22,4.73476299 22,4.99994977 L22,21 C22,22.6568542 20.6568542,24 19,24 L5,24 C3.34314575,24 2,22.6568542 2,21 L2,2 C2,0.8954305 2.8954305,0 4,0 L17.0007362,0 Z M15.001,2 L4,2 L4,21 C4,21.5522847 4.44771525,22 5,22 L19,22 C19.5522847,22 20,21.5522847 20,21 L20,6.999 L16,7 L15.8833789,6.99327227 C15.3860402,6.93550716 15,6.51283584 15,6 L15.001,2 Z M10.7957174,8 L10.8793501,8.00142228 C11.4066748,8.02884544 12.0161798,8.35106757 12.166844,9.18747394 C12.3677296,10.1259554 12.1627857,11.1511076 11.9560382,12.0269935 L11.8655157,12.4028394 C12.3243566,13.5888911 12.9544068,14.3910185 13.9131788,14.9737606 C15.8718132,14.7269522 17.1319136,14.864068 17.6455415,15.3713965 C18.0016568,15.7278975 18.1043824,16.3929092 17.8852345,16.920805 C17.7619638,17.2224597 17.4263936,17.7229324 16.5840438,17.7229324 C15.7348457,17.7229324 14.4747453,17.3390082 13.3721575,16.7494102 C12.4694175,16.9052236 11.4704608,17.2253494 10.4987741,17.5552617 L10.2082097,17.6543745 C9.97536504,17.736644 9.7425204,17.8120577 9.51652413,17.8874714 C8.02357907,20.444681 6.91414283,21 6.22245728,21 C6.05809636,21 5.91428055,20.9657211 5.79785823,20.9245863 C5.53077173,20.8217495 5.29792708,20.60922 5.15411128,20.3349884 C5.02399221,20.0881799 4.96920524,19.8139483 5.01714384,19.6014189 C5.24998848,18.4290788 6.80456889,17.5035471 7.96194372,16.9070934 C8.58514556,15.810167 9.43434367,13.9659595 9.96851667,12.6976384 L9.86653617,12.2968643 C9.50853436,10.8535737 9.33275948,9.69880161 9.5713111,8.83782865 C9.70205275,8.34701642 10.2134309,8.00612501 10.7957174,8 Z M10.9041769,14 C10.6879607,14.5637255 10.3734644,15.3284314 10,16 L10.1701474,15.9289216 L10.3439803,15.8578431 C10.8402948,15.6568627 11.3955774,15.4313725 12,15.2941176 C11.5823096,14.9656863 11.2039312,14.5196078 10.9041769,14 Z M17.001,2.629 L17,5 L19.372,5 L17.001,2.629 Z" id="Combined-Shape" fill="#0D0E10" fill-rule="nonzero"></path>
    </g>
</svg>