<?xml version="1.0" encoding="UTF-8"?>
<svg width="24px" height="24px" viewBox="0 0 24 24" version="1.1" xmlns="http://www.w3.org/2000/svg" xmlns:xlink="http://www.w3.org/1999/xlink">
    <title>edit</title>
    <g id="edit" stroke="none" stroke-width="1" fill="none" fill-rule="evenodd">
        <path d="M10,0 C10.5522847,0 11,0.44771525 11,1 C11,1.51283584 10.6139598,1.93550716 10.1166211,1.99327227 L10,2 L3,2 C2.44771525,2 2,2.44771525 2,3 L2,21 C2,21.5522847 2.44771525,22 3,22 L21,22 C21.5522847,22 22,21.5522847 22,21 L22,14 C22,13.4477153 22.4477153,13 23,13 C23.5128358,13 23.9355072,13.3860402 23.9932723,13.8833789 L24,14 L24,21 C24,22.6568542 22.6568542,24 21,24 L3,24 C1.34314575,24 0,22.6568542 0,21 L0,3 C0,1.34314575 1.34314575,0 3,0 L10,0 Z M20.8078572,1.10640473 C21.885,1.39502429 22.7263444,2.23636864 23.0149639,3.31351151 C23.3035835,4.39065438 22.9956301,5.53995213 22.2071068,6.32847544 L12.7071068,15.8284754 C12.578948,15.9566343 12.4183681,16.047553 12.2425356,16.0915112 L8.24253563,17.0915112 C7.51015516,17.2746063 6.84676238,16.6112135 7.0298575,15.878833 L8.0298575,11.878833 C8.07381561,11.7030006 8.1647344,11.5424207 8.29289322,11.4142619 L17.7928932,1.91426188 C18.5814165,1.12573857 19.7307143,0.817785166 20.8078572,1.10640473 Z M19.2071068,3.32847544 L9.903,12.632 L9.374,14.747 L11.488,14.218 L20.7928932,4.91426188 C21.0446919,4.66246324 21.1600815,4.30825939 21.1097936,3.96088255 L21.0831123,3.8311496 C20.979427,3.44419085 20.6771778,3.14194166 20.2902191,3.03825638 C19.9032603,2.9345711 19.4903802,3.04520198 19.2071068,3.32847544 Z" id="Shape" fill="#0D0E10" fill-rule="nonzero"></path>
    </g>
</svg>