<?xml version="1.0" encoding="UTF-8"?>
<svg width="24px" height="24px" viewBox="0 0 24 24" version="1.1" xmlns="http://www.w3.org/2000/svg" xmlns:xlink="http://www.w3.org/1999/xlink">
    <title>electric-charger</title>
    <g id="electric-charger" stroke="none" stroke-width="1" fill="none" fill-rule="evenodd">
        <path d="M17,1 C17.5522847,1 18,1.44771525 18,2 L18,4 L19,4 C20.1045695,4 21,4.8954305 21,6 L20.9997156,16.533729 L20.9968301,16.6878533 C20.8968771,19.6464922 18.4673334,22 15.5,22 L8.46627097,21.9997156 L8.31214671,21.9968301 C5.35350782,21.8968771 3,19.4673334 3,16.5 L3,6 C3,4.8954305 3.8954305,4 5,4 L6,4 L6,2 C6,1.44771525 6.44771525,1 7,1 C7.55228475,1 8,1.44771525 8,2 L8,4 L16,4 L16,2 C16,1.44771525 16.4477153,1 17,1 Z M19,6 L5,6 L5,16.5 C5,18.3927259 6.50239169,19.9345493 8.37967512,19.9979705 L8.5,20 L15.5,20 C17.3927259,20 18.9345493,18.4976083 18.9979705,16.6203249 L19,16.5 L19,6 Z M12.3846154,8.07692308 C12.8944167,8.28934029 13.1354941,8.87481408 12.9230769,9.38461538 L11.8323333,12 L15.1666667,12 L12.9230769,17.3846154 C12.7106597,17.8944167 12.1251859,18.1354941 11.6153846,17.9230769 C11.1055833,17.7106597 10.8645059,17.1251859 11.0769231,16.6153846 L12.1663333,14 L8.83333333,14 L11.0769231,8.61538462 C11.2893403,8.10558331 11.8748141,7.86450587 12.3846154,8.07692308 Z" id="Shape" fill="#0D0E10" fill-rule="nonzero"></path>
    </g>
</svg>