<?xml version="1.0" encoding="UTF-8"?>
<svg width="24px" height="24px" viewBox="0 0 24 24" version="1.1" xmlns="http://www.w3.org/2000/svg" xmlns:xlink="http://www.w3.org/1999/xlink">
    <title>elevator</title>
    <g id="elevator" stroke="none" stroke-width="1" fill="none" fill-rule="evenodd">
        <path d="M11,1 C12.6568542,1 14,2.34314575 14,4 L15,4 C16.6568542,4 18,5.34314575 18,7 L18,23 L0,23 L0,7 C0,5.34314575 1.34314575,4 3,4 L4,4 C4,2.34314575 5.34314575,1 7,1 L11,1 Z M8,6 L3,6 C2.44771525,6 2,6.44771525 2,7 L2,21 L8,21 L8,6 Z M15,6 L10,6 L10,21 L16,21 L16,7 C16,6.48716416 15.6139598,6.06449284 15.1166211,6.00672773 L15,6 Z M22.2928932,15.2928932 L23.7071068,16.7071068 L21,19.4142136 L18.2928932,16.7071068 L19.7071068,15.2928932 L21,16.585 L22.2928932,15.2928932 Z M21,9.58578644 L23.7071068,12.2928932 L22.2928932,13.7071068 L21,12.415 L19.7071068,13.7071068 L18.2928932,12.2928932 L21,9.58578644 Z M11,3 L7,3 C6.44771525,3 6,3.44771525 6,4 L12,4 C12,3.44771525 11.5522847,3 11,3 Z" id="Shape" fill="#0D0E10" fill-rule="nonzero"></path>
    </g>
</svg>