<?xml version="1.0" encoding="UTF-8"?>
<svg width="24px" height="24px" viewBox="0 0 24 24" version="1.1" xmlns="http://www.w3.org/2000/svg" xmlns:xlink="http://www.w3.org/1999/xlink">
    <title>empty-read</title>
    <g id="empty-read" stroke="none" stroke-width="1" fill="none" fill-rule="evenodd">
        <path d="M19,4 C19.7575441,4 20.4500704,4.42800475 20.7888544,5.10557281 L23.7888544,9.10557281 C23.9277098,9.38328368 24,9.68950981 24,10 L24,18 C24,19.1045695 23.1045695,20 22,20 L2,20 C0.8954305,20 0,19.1045695 0,18 L0,10 C0,9.68950981 0.0722901835,9.38328368 0.211145618,9.10557281 L3.21114562,5.10557281 C3.54992965,4.42800475 4.24245588,4 5,4 L19,4 Z M22,12 L16,12 C15.5154143,13.8400814 14.022912,15 12.0371595,15 C10.0475334,15 8.4851342,13.8401144 8,12 L2,12 L2,18 L22,18 L22,12 Z M19,6 L5,6 L2,10 L8.59686152,10.0053848 C9.08959146,10.0065848 9.48859103,10.3914515 9.48938229,10.8662918 C9.48938229,12.2190985 10.6084613,13.2786154 12.0371595,13.2786154 C13.4607501,13.2786154 14.5759554,12.2191316 14.5759554,10.8663249 C14.5770105,10.3914044 14.9761424,10.0066021 15.4689561,10.0053848 L22,10 L19,6 Z" id="Shape" fill="#0D0E10" fill-rule="nonzero"></path>
    </g>
</svg>