<?xml version="1.0" encoding="UTF-8"?>
<svg width="24px" height="24px" viewBox="0 0 24 24" version="1.1" xmlns="http://www.w3.org/2000/svg" xmlns:xlink="http://www.w3.org/1999/xlink">
    <title>empty-read-alt</title>
    <g id="empty-read-alt" stroke="none" stroke-width="1" fill="none" fill-rule="evenodd">
        <path d="M17,5 C17,4.44771525 17.4477153,4 18,4 L19,4 C19.7575441,4 20.4500704,4.42800475 20.7888544,5.10557281 L23.7888544,9.10557281 C23.9277098,9.38328368 24,9.68950981 24,10 L24,18 C24,19.1045695 23.1045695,20 22,20 L2,20 C0.8954305,20 0,19.1045695 0,18 L0,10 C0,9.68950981 0.0722901835,9.38328368 0.211145618,9.10557281 L3.21114562,5.10557281 C3.54992965,4.42800475 4.24245588,4 5,4 L6,4 C6.55228475,4 7,4.44771525 7,5 C7,5.51283584 6.61395981,5.93550716 6.11662113,5.99327227 L6,6 L5,6 L2,10 L8.59686152,10.0053848 C9.08959146,10.0065848 9.48859103,10.3914515 9.48938229,10.8662918 C9.48938229,12.2190985 10.6084613,13.2786154 12.0371595,13.2786154 C13.4607501,13.2786154 14.5759554,12.2191316 14.5759554,10.8663249 C14.5770105,10.3914044 14.9761424,10.0066021 15.4689561,10.0053848 L22,10 L19,6 L18,6 C17.4477153,6 17,5.55228475 17,5 Z M8,12 L2,12 L2,18 L22,18 L22,12 L16,12 C15.5154143,13.8400814 14.022912,15 12.0371595,15 C10.0475334,15 8.4851342,13.8401144 8,12 Z M12.6109529,0.376530261 L15.6109529,3.26969265 C16.0014772,3.64352787 16.0014772,4.24963452 15.6109529,4.62346974 L15.5473456,4.67938969 C15.1544518,4.9962694 14.5667098,4.97762942 14.1967394,4.62346974 L12.9023462,3.36384615 L12.9038462,10.9038462 C12.9038462,11.4561309 12.4561309,11.9038462 11.9038462,11.9038462 C11.3515614,11.9038462 10.9038462,11.4561309 10.9038462,10.9038462 L10.9046412,3.36360225 L9.61095294,4.62346974 C9.22042864,4.99730496 8.58726366,4.99730496 8.19673937,4.62346974 C7.80621508,4.24963452 7.80621508,3.64352787 8.19673937,3.26969265 L11.1967394,0.376530261 C11.5872637,0.00269504129 12.2204286,0.00269504129 12.6109529,0.376530261 Z" id="Shape" fill="#0D0E10" fill-rule="nonzero"></path>
    </g>
</svg>