<?xml version="1.0" encoding="UTF-8"?>
<svg width="24px" height="24px" viewBox="0 0 24 24" version="1.1" xmlns="http://www.w3.org/2000/svg" xmlns:xlink="http://www.w3.org/1999/xlink">
    <title>exclamation-triangle-filled</title>
    <g id="exclamation-triangle-filled" stroke="none" stroke-width="1" fill="none" fill-rule="evenodd">
        <path d="M12.9741921,2.2920335 C13.2074207,2.44329988 13.4073712,2.64683264 13.560854,2.8883745 L13.6237489,2.99417796 L22.7298386,18.8996981 C23.267949,19.8691572 22.9771326,21.1266004 22.0802818,21.7082759 C21.8186635,21.8779551 21.5234964,21.9764804 21.2200694,21.9962802 L21.1059466,22 L2.89376724,22 C1.84786848,22 1,21.0834887 1,19.9529147 C1,19.6282707 1.0714197,19.3089672 1.20757771,19.0210792 L1.26987523,18.8996981 L10.3759649,2.99417796 C10.9140754,2.02471877 12.0773413,1.71035799 12.9741921,2.2920335 Z M12,16 C11.1715729,16 10.5,16.6715729 10.5,17.5 C10.5,18.3284271 11.1715729,19 12,19 C12.8284271,19 13.5,18.3284271 13.5,17.5 C13.5,16.6715729 12.8284271,16 12,16 Z M12,7 C11.4477153,7 11,7.44771525 11,8 L11,14 C11,14.5522847 11.4477153,15 12,15 C12.5522847,15 13,14.5522847 13,14 L13,8 C13,7.44771525 12.5522847,7 12,7 Z" id="Shape" fill="#0D0E10" fill-rule="nonzero"></path>
    </g>
</svg>