<?xml version="1.0" encoding="UTF-8"?>
<svg width="24px" height="24px" viewBox="0 0 24 24" version="1.1" xmlns="http://www.w3.org/2000/svg" xmlns:xlink="http://www.w3.org/1999/xlink">
    <title>exclamation-triangle</title>
    <g id="exclamation-triangle" stroke="none" stroke-width="1" fill="none" fill-rule="evenodd">
        <path d="M13.3566285,0.338014707 C13.7023108,0.566375335 13.9835174,0.875987695 14.1672147,1.21343603 L23.6729569,18.1250665 L23.7388566,18.252856 L23.7674503,18.3135665 L23.8142956,18.4211016 C24.2603084,19.5328945 23.8873507,20.8432373 22.8623707,21.5203477 C22.4608478,21.7855971 21.9901582,21.9291401 21.5057049,21.9291401 L2.49422046,21.9291401 L2.36744361,21.9251179 L2.18288783,21.9093235 C0.902645918,21.7456049 5.32907052e-15,20.6370653 5.32907052e-15,19.3849964 C5.32907052e-15,18.9540513 0.107173345,18.5280362 0.326968364,18.1250665 L9.87542733,1.14104368 L9.96695123,0.993130027 L10.0732556,0.85788426 L10.1458882,0.770687494 C10.9547327,-0.146147684 12.3139759,-0.35077036 13.3566285,0.338014707 Z M11.6456675,2.09381334 L11.608677,2.14087451 L11.5761721,2.19340635 L2.07042991,19.1050369 C2.02434423,19.1896052 2,19.2863737 2,19.3849964 C2,19.6640528 2.19078896,19.8940467 2.43658391,19.9254792 L2.49422046,19.9291401 L21.5057049,19.9291401 C21.5952793,19.9291401 21.6831697,19.9023367 21.7599792,19.8515958 C21.9760282,19.708872 22.0573152,19.4130921 21.9580891,19.1657474 L21.9294954,19.1050369 L12.4237532,2.19340635 C12.3820164,2.11681835 12.3237983,2.05271943 12.254237,2.00676663 C12.0536201,1.87423742 11.8019222,1.91669676 11.6456675,2.09381334 Z M12,15 C12.8284271,15 13.5,15.6715729 13.5,16.5 C13.5,17.3284271 12.8284271,18 12,18 C11.1715729,18 10.5,17.3284271 10.5,16.5 C10.5,15.6715729 11.1715729,15 12,15 Z M12,7 C12.5522847,7 13,7.39175084 13,7.875 L13,13.125 C13,13.6082492 12.5522847,14 12,14 C11.4477153,14 11,13.6082492 11,13.125 L11,7.875 C11,7.39175084 11.4477153,7 12,7 Z" id="Shape" fill="#0D0E10" fill-rule="nonzero"></path>
    </g>
</svg>