<?xml version="1.0" encoding="UTF-8"?>
<svg width="24px" height="24px" viewBox="0 0 24 24" version="1.1" xmlns="http://www.w3.org/2000/svg" xmlns:xlink="http://www.w3.org/1999/xlink">
    <title>exclamation-circle-filled</title>
    <g id="exclamation-circle-filled" stroke="none" stroke-width="1" fill="none" fill-rule="evenodd">
        <path d="M12,0.5 C18.3512746,0.5 23.5,5.64872538 23.5,12 C23.5,18.3512746 18.3512746,23.5 12,23.5 C5.64872538,23.5 0.5,18.3512746 0.5,12 C0.5,5.64872538 5.64872538,0.5 12,0.5 Z M12,15.5 C11.1715729,15.5 10.5,16.1715729 10.5,17 C10.5,17.8284271 11.1715729,18.5 12,18.5 C12.8284271,18.5 13.5,17.8284271 13.5,17 C13.5,16.1715729 12.8284271,15.5 12,15.5 Z M12,6 C11.4728191,6 11.0409174,6.4079389 11.0027429,6.92536883 L11,7 L11,13 C11,13.5522847 11.4477153,14 12,14 C12.5271809,14 12.9590826,13.5920611 12.9972571,13.0746312 L13,13 L13,7 C13,6.44771525 12.5522847,6 12,6 Z" id="Shape" fill="#0D0E10" fill-rule="nonzero"></path>
    </g>
</svg>