<?xml version="1.0" encoding="UTF-8"?>
<svg width="24px" height="24px" viewBox="0 0 24 24" version="1.1" xmlns="http://www.w3.org/2000/svg" xmlns:xlink="http://www.w3.org/1999/xlink">
    <title>expand</title>
    <g id="expand" stroke="none" stroke-width="1" fill="none" fill-rule="evenodd">
        <path d="M2,16 C2,15.4477153 2.44771525,15 3,15 C3.55228475,15 4,15.4477153 4,16 L3.999,18.636 L9.30712085,13.293881 C9.6966916,12.9043544 10.32567,12.9017141 10.7119835,13.2879838 C11.098297,13.6742535 11.0956564,14.3031607 10.7060857,14.6926873 L5.363,20 L8,20 C8.55228475,20 9,20.4477153 9,21 C9,21.5522847 8.55228475,22 8,22 L3,22 C2.44771525,22 2,21.5522847 2,21 L2,16 Z M21,2 C21.5522847,2 22,2.44771525 22,3 L22,8 C22,8.55228475 21.5522847,9 21,9 C20.4477153,9 20,8.55228475 20,8 L20,5.364 L14.6928792,10.706119 C14.3033084,11.0956456 13.67433,11.0982859 13.2880165,10.7120162 C12.901703,10.3257465 12.9043436,9.6968393 13.2939143,9.30731269 L18.635,4 L16,4 C15.4477153,4 15,3.55228475 15,3 C15,2.44771525 15.4477153,2 16,2 L21,2 Z" id="Shape" fill="#0D0E10" fill-rule="nonzero"></path>
    </g>
</svg>