<?xml version="1.0" encoding="UTF-8"?>
<svg width="24px" height="24px" viewBox="0 0 24 24" version="1.1" xmlns="http://www.w3.org/2000/svg" xmlns:xlink="http://www.w3.org/1999/xlink">
    <title>external-link</title>
    <g id="external-link" stroke="none" stroke-width="1" fill="none" fill-rule="evenodd">
        <path d="M14,4 C14.5522847,4 15,4.44771525 15,5 C15,5.55228475 14.5522847,6 14,6 L3,6 C2.44771525,6 2,6.44771525 2,7 L2,21 C2,21.5522847 2.44771525,22 3,22 L17,22 C17.5522847,22 18,21.5522847 18,21 L18,11 C18,10.4477153 18.4477153,10 19,10 C19.5522847,10 20,10.4477153 20,11 L20,21 C20,22.6568542 18.6568542,24 17,24 L3,24 C1.34314575,24 0,22.6568542 0,21 L0,7 C0,5.34314575 1.34314575,4 3,4 L14,4 Z M23,0 C23.5522847,0 24,0.44771525 24,1 L24,6 C24,6.55228475 23.5522847,7 23,7 C22.4477153,7 22,6.55228475 22,6 L22,3.711 L8.95570958,16.7930278 C8.56189251,17.1868448 7.9260582,17.1895142 7.53553391,16.7989899 C7.14500961,16.4084656 7.14767894,15.7726313 7.54149602,15.3788142 L20.956,2 L18,2 C17.4477153,2 17,1.55228475 17,1 C17,0.44771525 17.4477153,0 18,0 L23,0 Z" id="Shape" fill="#0D0E10" fill-rule="nonzero"></path>
    </g>
</svg>