<?xml version="1.0" encoding="UTF-8"?>
<svg width="24px" height="24px" viewBox="0 0 24 24" version="1.1" xmlns="http://www.w3.org/2000/svg" xmlns:xlink="http://www.w3.org/1999/xlink">
    <title>extra</title>
    <g id="extra" stroke="none" stroke-width="1" fill="none" fill-rule="evenodd">
        <path d="M20.1918495,0.928753858 L20.2582684,1.00108484 L20.337276,1.09252256 C20.7864171,1.64523549 21.006843,2.31872452 20.9928152,2.99777602 L21.0155785,3.00008433 C21.7264245,2.99439047 22.4363323,3.24378307 22.9983055,3.74084259 L23.1356318,3.8702629 L23.2053814,3.9439159 L23.2717927,4.01770522 L23.3371674,4.09412207 C24.2356011,5.19939446 24.2190137,6.78793262 23.2416296,7.93754293 L23.1211996,8.06560995 L19.255,11.931 L23.2018818,15.880082 L23.2678012,15.9528874 L23.3391103,16.03612 C24.2970918,17.2183683 24.2027269,18.9343244 23.1208862,20.0043988 C22.5348973,20.5840143 21.7625869,20.8718575 20.9915178,20.8596677 L20.856,20.853 L20.8623072,21.0220074 C20.8657862,21.7338497 20.6136117,22.4439577 20.1138925,23.0048827 L19.9838102,23.1419206 C18.9019845,24.2119801 17.1851222,24.2875965 16.0134091,23.316792 L15.9313377,23.2449296 L15.7964979,23.1181393 L11.932,19.253 L8.05418295,23.1319133 L7.98072326,23.2017402 L7.83744315,23.3281468 C6.65305418,24.3001593 4.92263367,24.2075849 3.84871124,23.1147548 C3.31174255,22.5683321 3.02767322,21.8621719 3.00871801,21.139042 L3.009,20.998 L2.97491796,20.9999831 C2.26024922,21.0032896 1.54740012,20.7489312 0.98563299,20.245192 L0.848425128,20.1140665 C-0.222561468,19.0236922 -0.287496716,17.2972456 0.75735116,16.0629133 L0.877916556,15.9346942 L4.743,12.069 L0.865484964,8.19046945 L0.79261881,8.11363023 L0.726691853,8.04031515 L0.659117828,7.96111593 C-0.301014992,6.77460015 -0.201723412,5.05256654 0.888435986,3.9842788 C1.47900178,3.40556141 2.25546525,3.12147748 3.02858722,3.13907698 L3.143,3.145 L3.13742691,2.96839444 C3.1357292,2.25460486 3.39103214,1.54320562 3.89476617,0.982854686 L4.02587037,0.845999822 C5.11614569,-0.222401515 6.84001304,-0.286608355 8.07959924,0.76231081 L8.20226157,0.878238223 L12.068,4.745 L16.0183814,0.798959624 L16.0911963,0.733025258 L16.1707871,0.664667574 C17.3483226,-0.294170738 19.0604086,-0.20632797 20.1918495,0.928753858 Z M21.7188029,5.28185623 C21.371296,4.93306045 20.8161736,4.90458215 20.4343579,5.21544584 L20.3615514,5.2813643 L5.29404281,20.3476677 L5.22861532,20.4185054 C4.90675391,20.7970006 4.92696859,21.3585615 5.27521132,21.7129354 C5.62345404,22.0673094 6.18458443,22.0973289 6.56864905,21.782132 L6.63997978,21.7176894 L11.9322275,16.4255193 L17.2107011,21.7039154 L17.2894109,21.7767208 C17.6694966,22.0916349 18.2264233,22.067106 18.5773504,21.7199956 C18.9282775,21.3728853 18.9588873,20.8162679 18.6481382,20.4327713 L18.5822188,20.3599659 L13.289971,15.0677958 L15.0697955,13.2884894 L20.3477772,18.5668854 L20.4264869,18.6391989 C20.8065727,18.954113 21.3634993,18.9295841 21.7144264,18.5824737 C22.0653535,18.2353634 22.0959633,17.678746 21.7852142,17.2952495 L21.7192948,17.222444 L16.427539,11.9307659 L21.7069964,6.65138601 L21.7724239,6.58054826 C22.0709695,6.2285507 22.0763445,5.71380027 21.7852142,5.35564555 L21.7188029,5.28185623 Z M6.7170558,2.22637207 C6.33857014,1.9070498 5.77937045,1.92787765 5.42568176,2.27447035 C5.07199308,2.62106305 5.03977745,3.17978507 5.3512854,3.56474129 L5.41721236,3.63805636 L10.7100646,8.93101137 L8.9300368,10.7112392 L3.64997631,5.43058542 L3.57962142,5.36465106 C3.20113576,5.04532879 2.64193607,5.06615663 2.28824738,5.41274933 C1.9345587,5.75934203 1.90234307,6.31806405 2.21385102,6.70302027 L2.27977798,6.77633534 L7.57213828,12.0692903 L2.29207778,17.3489601 L2.22664282,17.4198149 C1.90672914,17.7986816 1.9277977,18.3588356 2.27526697,18.712595 C2.62273624,19.0663544 3.18236277,19.0974076 3.56682962,18.7842626 L3.63816849,18.7193124 L18.7069062,3.65035755 L18.7723411,3.57950271 C19.0709967,3.22726171 19.076372,2.71221114 18.7851329,2.35381238 L18.718714,2.28148139 C18.3706754,1.9330935 17.8154896,1.90460833 17.4336303,2.21554703 L17.3608155,2.28148139 L12.0679632,7.5734523 L6.78790268,2.29230644 L6.7170558,2.22637207 Z" id="Combined-Shape" fill="#0D0E10" fill-rule="nonzero"></path>
    </g>
</svg>