<?xml version="1.0" encoding="UTF-8"?>
<svg width="24px" height="24px" viewBox="0 0 24 24" version="1.1" xmlns="http://www.w3.org/2000/svg" xmlns:xlink="http://www.w3.org/1999/xlink">
    <title>eye-show</title>
    <g id="eye-show" stroke="none" stroke-width="1" fill="none" fill-rule="evenodd">
        <path d="M13.0130587,4.00229009 C14.8659257,4.17462321 16.5849376,4.81709369 18.1661569,5.83200727 L19.9338901,7.1668254 C20.247071,7.44034876 20.553966,7.72897746 20.8545372,8.03177512 C21.7188737,8.9025141 22.4694995,9.83225099 23.1056644,10.7625566 C23.4900327,11.3246437 23.7538591,11.7676114 23.8944272,12.0331289 C24.0351909,12.299016 24.0351909,12.6119786 23.8944272,12.8778657 L23.7824845,13.0805262 C23.6306502,13.3461402 23.4046175,13.7112592 23.1056644,14.148438 C22.4694995,15.0787436 21.7188737,16.0084805 20.8545372,16.8792195 C18.3386923,19.4137003 15.3798024,20.9554973 12,20.9554973 C8.62019756,20.9554973 5.66130774,19.4137003 3.1454628,16.8792195 C2.28112631,16.0084805 1.5305005,15.0787436 0.894335622,14.148438 C0.50996726,13.5863509 0.246140906,13.1433832 0.105572809,12.8778657 C-0.0351909363,12.6119786 -0.0351909363,12.299016 0.105572809,12.0331289 L0.217515548,11.8304684 C0.369349755,11.5648544 0.595382452,11.1997354 0.894335622,10.7625566 C1.5305005,9.83225099 2.28112631,8.9025141 3.1454628,8.03177512 C3.44699327,7.72801109 3.75488793,7.4385066 4.06910866,7.16420702 L5.83484385,5.83136499 C7.42287884,4.81227201 9.14988588,4.16883297 11.0118767,4 L13.0130587,4.00229009 Z M12,5.84438619 C9.25480244,5.84438619 6.77619226,7.13592252 4.6045372,9.32366392 C3.82824869,10.1057027 3.149187,10.9467992 2.57441438,11.7873269 C2.47414884,11.9339517 2.38085212,12.0750987 2.29460865,12.2098338 L2.141,12.4554973 L2.17054393,12.503984 C2.24971305,12.6320736 2.33597763,12.7670421 2.42925324,12.9079556 L2.57441438,13.1236677 C3.149187,13.9641954 3.82824869,14.8052919 4.6045372,15.5873307 C6.77619226,17.7750721 9.25480244,19.0666084 12,19.0666084 C14.7451976,19.0666084 17.2238077,17.7750721 19.3954628,15.5873307 C20.1717513,14.8052919 20.850813,13.9641954 21.4255856,13.1236677 C21.5258512,12.9770429 21.6191479,12.8358959 21.7053913,12.7011608 L21.858,12.4554973 L21.8294561,12.4070106 C21.750287,12.278921 21.6640224,12.1439525 21.5707468,12.003039 L21.4255856,11.7873269 C20.850813,10.9467992 20.1717513,10.1057027 19.3954628,9.32366392 C17.2238077,7.13592252 14.7451976,5.84438619 12,5.84438619 Z M12,7.9554973 C14.7614237,7.9554973 17,9.97021592 17,12.4554973 C17,14.9407787 14.7614237,16.9554973 12,16.9554973 C9.23857625,16.9554973 7,14.9407787 7,12.4554973 C7,9.97021592 9.23857625,7.9554973 12,7.9554973 Z M12,9.7554973 C10.3431458,9.7554973 9,10.9643285 9,12.4554973 C9,13.9466661 10.3431458,15.1554973 12,15.1554973 C13.6568542,15.1554973 15,13.9466661 15,12.4554973 C15,10.9643285 13.6568542,9.7554973 12,9.7554973 Z" id="Shape" fill="#0D0E10" fill-rule="nonzero"></path>
    </g>
</svg>