<?xml version="1.0" encoding="UTF-8"?>
<svg width="24px" height="24px" viewBox="0 0 24 24" version="1.1" xmlns="http://www.w3.org/2000/svg" xmlns:xlink="http://www.w3.org/1999/xlink">
    <title>eye-open</title>
    <g id="eye-open" stroke="none" stroke-width="1" fill="none" fill-rule="evenodd">
        <path d="M12.012313,2 C12.5645977,2 13.012313,2.44771525 13.012313,3 L13.0130587,5.04679279 C14.8659257,5.21912591 16.5849376,5.8615964 18.1661569,6.87650997 L20.305313,5.293 C20.5563875,5.03304342 20.9281909,4.9287874 21.2778203,5.02030284 C21.6274497,5.11181828 21.9004947,5.38486324 21.9920101,5.73449268 C22.0835256,6.08412211 21.9792696,6.45592553 21.719313,6.707 L19.9338901,8.21132811 C20.247071,8.48485146 20.553966,8.77348016 20.8545372,9.07627782 C21.7188737,9.9470168 22.4694995,10.8767537 23.1056644,11.8070593 C23.4900327,12.3691464 23.7538591,12.8121141 23.8944272,13.0776316 C24.0351909,13.3435187 24.0351909,13.6564813 23.8944272,13.9223684 L23.7824845,14.1250289 C23.6306502,14.3906429 23.4046175,14.7557619 23.1056644,15.1929407 C22.4694995,16.1232463 21.7188737,17.0529832 20.8545372,17.9237222 C18.3386923,20.458203 15.3798024,22 12,22 C8.62019756,22 5.66130774,20.458203 3.1454628,17.9237222 C2.28112631,17.0529832 1.5305005,16.1232463 0.894335622,15.1929407 C0.50996726,14.6308536 0.246140906,14.1878859 0.105572809,13.9223684 C-0.0351909363,13.6564813 -0.0351909363,13.3435187 0.105572809,13.0776316 L0.217515548,12.8749711 C0.369349755,12.6093571 0.595382452,12.2442381 0.894335622,11.8070593 C1.5305005,10.8767537 2.28112631,9.9470168 3.1454628,9.07627782 C3.44699327,8.77251379 3.75488793,8.4830093 4.06910866,8.20870973 L2.30531299,6.707 C1.92634078,6.31462111 1.93176062,5.69091522 2.31749442,5.30518142 C2.70322822,4.91944763 3.32693411,4.91402779 3.71931299,5.293 L5.83484385,6.8758677 C7.42287884,5.85677471 9.14988588,5.21333567 11.0118767,5.0445027 L11.012313,3 C11.012313,2.44771525 11.4600282,2 12.012313,2 Z M12,6.88888889 C9.25480244,6.88888889 6.77619226,8.18042523 4.6045372,10.3681666 C3.82824869,11.1502054 3.149187,11.9913019 2.57441438,12.8318296 C2.47414884,12.9784544 2.38085212,13.1196014 2.29460865,13.2543365 L2.141,13.5 L2.17054393,13.5484867 C2.24971305,13.6765763 2.33597763,13.8115448 2.42925324,13.9524583 L2.57441438,14.1681704 C3.149187,15.0086981 3.82824869,15.8497946 4.6045372,16.6318334 C6.77619226,18.8195748 9.25480244,20.1111111 12,20.1111111 C14.7451976,20.1111111 17.2238077,18.8195748 19.3954628,16.6318334 C20.1717513,15.8497946 20.850813,15.0086981 21.4255856,14.1681704 C21.5258512,14.0215456 21.6191479,13.8803986 21.7053913,13.7456635 L21.858,13.5 L21.8294561,13.4515133 C21.750287,13.3234237 21.6640224,13.1884552 21.5707468,13.0475417 L21.4255856,12.8318296 C20.850813,11.9913019 20.1717513,11.1502054 19.3954628,10.3681666 C17.2238077,8.18042523 14.7451976,6.88888889 12,6.88888889 Z M12,9 C14.7614237,9 17,11.0147186 17,13.5 C17,15.9852814 14.7614237,18 12,18 C9.23857625,18 7,15.9852814 7,13.5 C7,11.0147186 9.23857625,9 12,9 Z M12,10.8 C10.3431458,10.8 9,12.0088312 9,13.5 C9,14.9911688 10.3431458,16.2 12,16.2 C13.6568542,16.2 15,14.9911688 15,13.5 C15,12.0088312 13.6568542,10.8 12,10.8 Z" id="Shape" fill="#0D0E10" fill-rule="nonzero"></path>
    </g>
</svg>