<?xml version="1.0" encoding="UTF-8"?>
<svg width="24px" height="24px" viewBox="0 0 24 24" version="1.1" xmlns="http://www.w3.org/2000/svg" xmlns:xlink="http://www.w3.org/1999/xlink">
    <title>eye-hide</title>
    <g id="eye-hide" stroke="none" stroke-width="1" fill="none" fill-rule="evenodd">
        <path d="M22.7279221,1.27207794 C23.1184464,1.66260223 23.1184464,2.29576721 22.7279221,2.6862915 L2.92893219,22.4852814 C2.5384079,22.8758057 1.90524292,22.8758057 1.51471863,22.4852814 C1.12419433,22.0947571 1.12419433,21.4615921 1.51471863,21.0710678 L5.02373259,17.5624385 C4.37256788,17.077821 3.74637742,16.529088 3.1454628,15.9237222 C2.28112631,15.0529832 1.5305005,14.1232463 0.894335622,13.1929407 C0.50996726,12.6308536 0.246140906,12.1878859 0.105572809,11.9223684 C-0.0351909363,11.6564813 -0.0351909363,11.3435187 0.105572809,11.0776316 L0.217515548,10.8749711 L0.365800405,10.6235735 C0.504463988,10.3948353 0.680797643,10.1193299 0.894335622,9.80705931 C1.5305005,8.87675369 2.28112631,7.9470168 3.1454628,7.07627782 C5.66130774,4.54179699 8.62019756,3 12,3 C14.1302684,3 16.0933208,3.61251005 17.8836152,4.70003388 L21.3137085,1.27207794 C21.7042328,0.881553647 22.3373978,0.881553647 22.7279221,1.27207794 Z M20.8545372,7.07627782 C21.7188737,7.9470168 22.4694995,8.87675369 23.1056644,9.80705931 C23.4900327,10.3691464 23.7538591,10.8121141 23.8944272,11.0776316 C24.0351909,11.3435187 24.0351909,11.6564813 23.8944272,11.9223684 L23.7824845,12.1250289 L23.6341996,12.3764265 C23.495536,12.6051647 23.3192024,12.8806701 23.1056644,13.1929407 C22.4694995,14.1232463 21.7188737,15.0529832 20.8545372,15.9237222 C18.3386923,18.458203 15.3798024,20 12,20 C10.6404511,20 9.34901031,19.7505209 8.12711825,19.2873041 L9.63280715,17.7817232 C10.3978039,17.997895 11.1872174,18.1111111 12,18.1111111 C14.7451976,18.1111111 17.2238077,16.8195748 19.3954628,14.6318334 C20.1717513,13.8497946 20.850813,13.0086981 21.4255856,12.1681704 C21.5258512,12.0215456 21.6191479,11.8803986 21.7053913,11.7456635 L21.858,11.5 L21.8294561,11.4515133 C21.750287,11.3234237 21.6640224,11.1884552 21.5707468,11.0475417 L21.4255856,10.8318296 C20.850813,9.99130186 20.1717513,9.15020542 19.3954628,8.36816662 L19.218,8.19518472 L20.5943568,6.81926015 L20.8545372,7.07627782 Z M12,4.88888889 C9.25480244,4.88888889 6.77619226,6.18042523 4.6045372,8.36816662 C3.82824869,9.15020542 3.149187,9.99130186 2.57441438,10.8318296 C2.47414884,10.9784544 2.38085212,11.1196014 2.29460865,11.2543365 L2.141,11.5 L2.17054393,11.5484867 C2.24971305,11.6765763 2.33597763,11.8115448 2.42925324,11.9524583 L2.57441438,12.1681704 C3.149187,13.0086981 3.82824869,13.8497946 4.6045372,14.6318334 C5.18290662,15.214487 5.7830483,15.733573 6.4041997,16.1816232 L8.18114283,14.4048394 C7.44427978,13.6209679 7,12.6071791 7,11.5 C7,9.01471863 9.23857625,7 12,7 C13.0407932,7 14.0073123,7.286205 14.8076937,7.77593788 L16.4808075,6.10453552 C15.0812624,5.31947114 13.5850697,4.88888889 12,4.88888889 Z M12,8.8 C10.3431458,8.8 9,10.0088312 9,11.5 C9,12.0744962 9.19936265,12.6070851 9.53921974,13.0447853 L13.4492387,9.13537461 C13.0196387,8.92165082 12.5256044,8.8 12,8.8 Z" id="Shape" fill="#0D0E10" fill-rule="nonzero"></path>
    </g>
</svg>