<?xml version="1.0" encoding="UTF-8"?>
<svg width="24px" height="24px" viewBox="0 0 24 24" version="1.1" xmlns="http://www.w3.org/2000/svg" xmlns:xlink="http://www.w3.org/1999/xlink">
    <title>file-xls-label</title>
    <g id="file-xls-label" stroke="none" stroke-width="1" fill="none" fill-rule="evenodd">
        <path d="M4,0 C2.8954305,0 2,0.8954305 2,2 L2,13 C2,13.5522847 2.44771525,14 3,14 C3.55228475,14 4,13.5522847 4,13 L4,2 L15.001,2 L15,6 C15,6.51283584 15.3860402,6.93550716 15.8833789,6.99327227 L16,7 L20,6.999 L20,13 C20,13.5522847 20.4477153,14 21,14 C21.5522847,14 22,13.5522847 22,13 L22,4.58578644 L17.415,0 L4,0 Z M17.001,2.629 L19.372,5 L17,5 L17.001,2.629 Z M11,16 C11.5522847,16 12,16.4477153 12,17 L12,22 L15,22 C15.5128358,22 15.9355072,22.3860402 15.9932723,22.8833789 L16,23 C16,23.5522847 15.5522847,24 15,24 L11,24 C10.4477153,24 10,23.5522847 10,23 L10,17 C10,16.4477153 10.4477153,16 11,16 Z M19.1913119,16.0000812 C20.012402,16.0105431 20.8043046,16.3061867 21.4313661,16.8363681 C21.8531084,17.1929517 21.9059299,17.8239096 21.5493462,18.2456518 C21.2201921,18.6349524 20.6572516,18.7099062 20.2408814,18.4386713 L20.1400624,18.3636319 C19.8673445,18.1330485 19.5229347,18.0044689 19.1785714,18 C18.7876155,18 18.6057176,18.140781 18.5758763,18.462351 L18.5714286,18.5642857 C18.5714286,18.6191654 18.5639928,18.6067005 18.6339521,18.6524921 C18.7480149,18.7271515 18.9027032,18.7913725 19.209691,18.8881891 L19.5689351,18.9967489 C21.2397743,19.4901686 22,20.0068844 22,21.4357143 C22,23.1455974 20.8133297,24 19.165831,23.9999188 C18.3447409,23.9894569 17.5528382,23.6938133 16.9257767,23.1636319 C16.5040345,22.8070483 16.451213,22.1760904 16.8077967,21.7543482 C17.1369508,21.3650476 17.6998912,21.2900938 18.1162615,21.5613287 L18.2170804,21.6363681 C18.4897984,21.8669515 18.8342081,21.9955311 19.1785714,22 C19.7775034,22 19.9724057,21.8904725 19.9971931,21.5247311 L20,21.4357143 C20,21.2846585 19.8984162,21.1954725 19.3100266,21.0086159 L18.9466978,20.8983925 C17.290293,20.4096236 16.5714072,19.9390934 16.5714072,18.5642857 C16.5714072,17.0480223 17.6609567,16 19.1913119,16.0000812 Z M7.86695248,16.1862665 C8.31636507,16.5072755 8.42045675,17.1318256 8.09944776,17.5812382 L6.37092233,19.999 L8.09944776,22.4187618 C8.42045675,22.8681744 8.31636507,23.4927245 7.86695248,23.8137335 C7.41753989,24.1347425 6.7929898,24.0306508 6.47198081,23.5812382 L5.14292233,21.72 L3.81373347,23.5812382 C3.49272448,24.0306508 2.86817439,24.1347425 2.41876181,23.8137335 C1.96934922,23.4927245 1.86525754,22.8681744 2.18626653,22.4187618 L3.91392233,19.999 L2.18626653,17.5812382 C1.86525754,17.1318256 1.96934922,16.5072755 2.41876181,16.1862665 C2.86817439,15.8652575 3.49272448,15.9693492 3.81373347,16.4187618 L5.14292233,18.279 L6.47198081,16.4187618 C6.7929898,15.9693492 7.41753989,15.8652575 7.86695248,16.1862665 Z" id="Shape" fill="#0D0E10" fill-rule="nonzero"></path>
    </g>
</svg>