<?xml version="1.0" encoding="UTF-8"?>
<svg width="24px" height="24px" viewBox="0 0 24 24" version="1.1" xmlns="http://www.w3.org/2000/svg" xmlns:xlink="http://www.w3.org/1999/xlink">
    <title>file-csv</title>
    <g id="file-csv" stroke="none" stroke-width="1" fill="none" fill-rule="evenodd">
        <path d="M20,0 C21.1045695,0 22,0.8954305 22,2 L22,22 C22,23.1045695 21.1045695,24 20,24 L4,24 L3.85073766,23.9945143 C2.81587779,23.9181651 2,23.0543618 2,22 L2,4.58578644 L6.585,0 L20,0 Z M20,2 L8.999,2 L9,7 L4,6.999 L4,22 L20,22 L20,2 Z M12,18 C12.5522847,18 13,18.4477153 13,19 C13,19.5522847 12.5522847,20 12,20 L7,20 C6.44771525,20 6,19.5522847 6,19 C6,18.4477153 6.44771525,18 7,18 L12,18 Z M6.999,2.629 L4.628,5 L7,5 L6.999,2.629 Z" id="Shape" fill="#0D0E10" fill-rule="nonzero"></path>
    </g>
</svg>