<?xml version="1.0" encoding="UTF-8"?>
<svg width="24px" height="24px" viewBox="0 0 24 24" version="1.1" xmlns="http://www.w3.org/2000/svg" xmlns:xlink="http://www.w3.org/1999/xlink">
    <title>file-xls</title>
    <g id="file-xls" stroke="none" stroke-width="1" fill="none" fill-rule="evenodd">
        <path d="M20,0 C21.1045695,0 22,0.8954305 22,2 L22,22 C22,23.1045695 21.1045695,24 20,24 L4,24 L3.85073766,23.9945143 C2.81587779,23.9181651 2,23.0543618 2,22 L2,4.58578644 L6.585,0 L20,0 Z M20,2 L8.999,2 L9,7 L4,6.999 L4,22 L20,22 L20,2 Z M16,14 C16.5522847,14 17,14.4477153 17,15 L17,19 C17,19.5522847 16.5522847,20 16,20 L8,20 L7.88337887,19.9932723 C7.38604019,19.9355072 7,19.5128358 7,19 L7,15 L7.00672773,14.8833789 C7.06449284,14.3860402 7.48716416,14 8,14 L16,14 Z M11,16 L9,16 L9,18 L11,18 L11,16 Z M15,16 L13,16 L13,18 L15,18 L15,16 Z M6.999,2.629 L4.628,5 L7,5 L6.999,2.629 Z" id="Shape" fill="#0D0E10" fill-rule="nonzero"></path>
    </g>
</svg>