<?xml version="1.0" encoding="UTF-8"?>
<svg width="24px" height="24px" viewBox="0 0 24 24" version="1.1" xmlns="http://www.w3.org/2000/svg" xmlns:xlink="http://www.w3.org/1999/xlink">
    <title>file-pdf</title>
    <g id="file-pdf" stroke="none" stroke-width="1" fill="none" fill-rule="evenodd">
        <path d="M20,0 C21.1045695,0 22,0.8954305 22,2 L22,22 C22,23.1045695 21.1045695,24 20,24 L4,24 L3.85073766,23.9945143 C2.81587779,23.9181651 2,23.0543618 2,22 L2,4.58578644 L6.585,0 L20,0 Z M20,2 L8.999,2 L9,7 L4,6.999 L4,22 L20,22 L20,2 Z M14.5,13 C16.4329966,13 18,14.5670034 18,16.5 C18,18.4329966 16.4329966,20 14.5,20 C12.5670034,20 11,18.4329966 11,16.5 C11,14.5670034 12.5670034,13 14.5,13 Z M14.5,15 C13.6715729,15 13,15.6715729 13,16.5 C13,17.3284271 13.6715729,18 14.5,18 C15.3284271,18 16,17.3284271 16,16.5 C16,15.6715729 15.3284271,15 14.5,15 Z M6.999,2.629 L4.628,5 L7,5 L6.999,2.629 Z" id="Shape" fill="#0D0E10" fill-rule="nonzero"></path>
    </g>
</svg>