<?xml version="1.0" encoding="UTF-8"?>
<svg width="24px" height="24px" viewBox="0 0 24 24" version="1.1" xmlns="http://www.w3.org/2000/svg" xmlns:xlink="http://www.w3.org/1999/xlink">
    <title>finance-pay-partially</title>
    <g id="finance-pay-partially" stroke="none" stroke-width="1" fill="none" fill-rule="evenodd">
        <path d="M19,13 C21.7614237,13 24,15.2385763 24,18 C24,20.7614237 21.7614237,23 19,23 C18.4477153,23 18,22.5522847 18,22 C18,21.4871642 18.3860402,21.0644928 18.8833789,21.0067277 L19,21 C20.6568542,21 22,19.6568542 22,18 C22,16.3431458 20.6568542,15 19,15 C17.3431458,15 16,16.3431458 16,18 C16,18.5522847 15.5522847,19 15,19 C14.4477153,19 14,18.5522847 14,18 C14,15.2385763 16.2385763,13 19,13 Z M21,3 C22.6568542,3 24,4.34314575 24,6 L24,12 C24,12.5522847 23.5522847,13 23,13 C22.4477153,13 22,12.5522847 22,12 L22,11 L2,11 L2,18 C2,18.5522847 2.44771525,19 3,19 L12,19 C12.5522847,19 13,19.4477153 13,20 C13,20.5522847 12.5522847,21 12,21 L3,21 C1.34314575,21 0,19.6568542 0,18 L0,6 C0,4.34314575 1.34314575,3 3,3 L21,3 Z M21,5 L3,5 C2.44771525,5 2,5.44771525 2,6 L2,9 L22,9 L22,6 C22,5.44771525 21.5522847,5 21,5 Z" id="Shape" fill="#0D0E10" fill-rule="nonzero"></path>
    </g>
</svg>