<?xml version="1.0" encoding="UTF-8"?>
<svg width="24px" height="24px" viewBox="0 0 24 24" version="1.1" xmlns="http://www.w3.org/2000/svg" xmlns:xlink="http://www.w3.org/1999/xlink">
    <title>finance-paid</title>
    <g id="finance-paid" stroke="none" stroke-width="1" fill="none" fill-rule="evenodd">
        <path d="M24,12 C24,12.5522847 23.5522847,13 23,13 C22.4477153,13 22,12.5522847 22,12 L22,11 L2,11 L2,18 C2,18.5522847 2.44771525,19 3,19 L11,19 C11.5522847,19 12,19.4477153 12,20 C12,20.5522847 11.5522847,21 11,21 L3,21 C1.34314575,21 0,19.6568542 0,18 L0,6 C0,4.34314575 1.34314575,3 3,3 L21,3 C22.6568542,3 24,4.34314575 24,6 L24,12 Z M21,5 L3,5 C2.44771525,5 2,5.44771525 2,6 L2,9 L22,9 L22,6 C22,5.44771525 21.5522847,5 21,5 Z" id="Shape" fill="#0D0E10" fill-rule="nonzero"></path>
        <path d="M23.1033009,15.2928932 C23.4938252,15.6834175 23.4938252,16.3165825 23.1033009,16.7071068 L17.9819805,21.8284271 C17.7673334,22.0430743 17.4793839,22.1397431 17.1987116,22.1184336 C16.9174992,22.1399742 16.6291175,22.043331 16.4142136,21.8284271 L13.2928932,18.7071068 C12.9023689,18.3165825 12.9023689,17.6834175 13.2928932,17.2928932 C13.6834175,16.9023689 14.3165825,16.9023689 14.7071068,17.2928932 L17.198,19.783 L21.6890873,15.2928932 C22.0796116,14.9023689 22.7127766,14.9023689 23.1033009,15.2928932 Z" id="Path" fill="#0D0E10" fill-rule="nonzero"></path>
    </g>
</svg>