<?xml version="1.0" encoding="UTF-8"?>
<svg width="24px" height="24px" viewBox="0 0 24 24" version="1.1" xmlns="http://www.w3.org/2000/svg" xmlns:xlink="http://www.w3.org/1999/xlink">
    <title>finance-pay</title>
    <g id="finance-pay" stroke="none" stroke-width="1" fill="none" fill-rule="evenodd">
        <path d="M19,13 C19.5522847,13 20,13.4477153 20,14 L20,17 L23,17 C23.5522847,17 24,17.4477153 24,18 C24,18.5522847 23.5522847,19 23,19 L20,19 L20,22 C20,22.5522847 19.5522847,23 19,23 C18.4477153,23 18,22.5522847 18,22 L18,19 L15,19 C14.4477153,19 14,18.5522847 14,18 C14,17.4477153 14.4477153,17 15,17 L18,17 L18,14 C18,13.4477153 18.4477153,13 19,13 Z M24,12 C24,12.5522847 23.5522847,13 23,13 C22.4477153,13 22,12.5522847 22,12 L22,11 L2,11 L2,18 C2,18.5522847 2.44771525,19 3,19 L12,19 C12.5522847,19 13,19.4477153 13,20 C13,20.5522847 12.5522847,21 12,21 L3,21 C1.34314575,21 0,19.6568542 0,18 L0,6 C0,4.34314575 1.34314575,3 3,3 L21,3 C22.6568542,3 24,4.34314575 24,6 L24,12 Z M21,5 L3,5 C2.44771525,5 2,5.44771525 2,6 L2,9 L22,9 L22,6 C22,5.44771525 21.5522847,5 21,5 Z" id="Shape" fill="#0D0E10" fill-rule="nonzero"></path>
    </g>
</svg>