<?xml version="1.0" encoding="UTF-8"?>
<svg width="24px" height="24px" viewBox="0 0 24 24" version="1.1" xmlns="http://www.w3.org/2000/svg" xmlns:xlink="http://www.w3.org/1999/xlink">
    <title>finance-unpaid-alt</title>
    <g id="finance-unpaid-alt" stroke="none" stroke-width="1" fill="none" fill-rule="evenodd">
        <path d="M19,0.607695155 C19.4782926,0.88383753 19.6421678,1.49542793 19.3660254,1.97372056 L6.3660254,23.0262794 C6.08988303,23.5045721 5.47829262,23.6684472 5,23.3923048 C4.52170738,23.1161625 4.35783222,22.5045721 4.6339746,22.0262794 L17.6339746,0.973720558 C17.910117,0.495427935 18.5217074,0.33155278 19,0.607695155 Z M14.041,2.99964435 L12.886,4.99964435 L3,5 C2.44771525,5 2,5.44771525 2,6 L2,9 L10.576,8.99964435 L9.422,10.9996443 L2,11 L2,18 C2,18.5522847 2.44771525,19 3,19 L4.803,18.9996443 L3.648,20.9996443 L3,21 C1.34314575,21 0,19.6568542 0,18 L0,6 C0,4.34314575 1.34314575,3 3,3 L14.041,2.99964435 Z M21,3 C22.6568542,3 24,4.34314575 24,6 L24,18 C24,19.6568542 22.6568542,21 21,21 L9.958,20.9996443 L11.113,18.9996443 L21,19 C21.5522847,19 22,18.5522847 22,18 L22,11 L15.732,10.9996443 L16.887,8.99964435 L22,9 L22,6 C22,5.44771525 21.5522847,5 21,5 L19.196,4.99964435 L20.351,2.99964435 L21,3 Z" id="Shape" fill="#0D0E10" fill-rule="nonzero"></path>
    </g>
</svg>