<?xml version="1.0" encoding="UTF-8"?>
<svg width="24px" height="24px" viewBox="0 0 24 24" version="1.1" xmlns="http://www.w3.org/2000/svg" xmlns:xlink="http://www.w3.org/1999/xlink">
    <title>food-drink</title>
    <g id="food-drink" stroke="none" stroke-width="1" fill="none" fill-rule="evenodd">
        <path d="M12,2 C12.5128358,2 12.9355072,2.38604019 12.9932723,2.88337887 L13,3 L13,7 C13,9.42065531 11.2798287,11.4395431 8.99519477,11.9009548 L9,12 L9,21 C9,21.5522847 8.55228475,22 8,22 C7.44771525,22 7,21.5522847 7,21 L7,12 L7.00480523,11.9009548 C4.72017125,11.4395431 3,9.42065531 3,7 L3,3 C3,2.44771525 3.44771525,2 4,2 C4.51283584,2 4.93550716,2.38604019 4.99327227,2.88337887 L5,3 L5,7 C5,8.65685425 6.34314575,10 8,10 C9.65685425,10 11,8.65685425 11,7 L11,3 C11,2.44771525 11.4477153,2 12,2 Z M8,2 C8.55228475,2 9,2.44771525 9,3 L9,7 C9,7.55228475 8.55228475,8 8,8 C7.44771525,8 7,7.55228475 7,7 L7,3 C7,2.44771525 7.44771525,2 8,2 Z M21,21 C21,21.5522847 20.5522847,22 20,22 C19.4477153,22 19,21.5522847 19,21 L19,13 C16.790861,13 15,11.209139 15,9 L15,6 C15,3.790861 16.790861,2 19,2 L21,2 L21,21 Z M19,4 L18.8507377,4.00548574 C17.8158778,4.08183488 17,4.9456382 17,6 L17,9 C17,10.1045695 17.8954305,11 19,11 L19,4 Z" id="Shape" fill="#0D0E10" fill-rule="nonzero"></path>
    </g>
</svg>