<?xml version="1.0" encoding="UTF-8"?>
<svg width="24px" height="24px" viewBox="0 0 24 24" version="1.1" xmlns="http://www.w3.org/2000/svg" xmlns:xlink="http://www.w3.org/1999/xlink">
    <title>game-room</title>
    <g id="game-room" stroke="none" stroke-width="1" fill="none" fill-rule="evenodd">
        <path d="M19,18 C19.5522847,18 20,18.4477153 20,19 C20,19.5128358 19.6139598,19.9355072 19.1166211,19.9932723 L19,20 L5,20 C4.44771525,20 4,19.5522847 4,19 C4,18.4477153 4.44771525,18 5,18 L19,18 Z M19,4 C21.7614237,4 24,6.23857625 24,9 L24,12 C24,14.7614237 21.7614237,17 19,17 L5,17 C2.23857625,17 0,14.7614237 0,12 L0,9 C0,6.23857625 2.23857625,4 5,4 L19,4 Z M8,6 L5,6 C3.34314575,6 2,7.34314575 2,9 L2,12 C2,13.6568542 3.34314575,15 5,15 L8,15 L8,6 Z M15,6 L10,6 L10,15 L15,15 L15,6 Z M19,6 L17,6 L17,15 L19,15 C20.6568542,15 22,13.6568542 22,12 L22,9 C22,7.34314575 20.6568542,6 19,6 Z M3.6,8 L7.16118742,8 L6.38893635,13.1483405 L4.41106365,12.8516595 L4.839,10 L3.6,10 L3.6,8 Z M10.6,8 L14.1611874,8 L13.3889364,13.1483405 L11.4110636,12.8516595 L11.839,10 L10.6,10 L10.6,8 Z M17.6,8 L21.1611874,8 L20.3889364,13.1483405 L18.4110636,12.8516595 L18.839,10 L17.6,10 L17.6,8 Z" id="Shape" fill="#0D0E10" fill-rule="nonzero"></path>
    </g>
</svg>