<?xml version="1.0" encoding="UTF-8"?>
<svg width="24px" height="24px" viewBox="0 0 24 24" version="1.1" xmlns="http://www.w3.org/2000/svg" xmlns:xlink="http://www.w3.org/1999/xlink">
    <title>hairdryer</title>
    <g id="hairdryer" stroke="none" stroke-width="1" fill="none" fill-rule="evenodd">
        <path d="M7.32981614,2 C7.56984271,2 7.81390208,2.01292862 8.04260696,2.0372436 L23,3.49614147 L23,12.5038631 L13,13.479 L13,19.5 C13,21.4329966 11.4329966,23 9.5,23 C7.56700338,23 6,21.4329966 6,19.5 L6.00010147,13.8681051 C3.15546617,13.2952749 1,10.9230231 1,8.0617074 L1,7.9382926 C1,4.64529076 3.85501353,2 7.32981614,2 Z M11,19.5 L11,13.674 L8,13.966 L8,19.5 C8,20.3284271 8.67157288,21 9.5,21 C10.3284271,21 11,20.3284271 11,19.5 Z M7.32981614,4 C4.92693649,4 3,5.78538814 3,7.9382926 L3,8.0617074 C3,10.2146459 4.92689976,12 7.32974256,12 C7.49976002,12 7.67330923,11.9907473 7.84472423,11.9725332 L21,10.689 L21,5.31 L7.83996787,4.02693318 C7.75642208,4.01806429 7.67125271,4.011331 7.58578551,4.00681493 L7.32981614,4 Z M7,5 C8.65685425,5 10,6.34314575 10,8 C10,9.65685425 8.65685425,11 7,11 C5.34314575,11 4,9.65685425 4,8 C4,6.34314575 5.34314575,5 7,5 Z M7,7 C6.44771525,7 6,7.44771525 6,8 C6,8.55228475 6.44771525,9 7,9 C7.55228475,9 8,8.55228475 8,8 C8,7.48716416 7.61395981,7.06449284 7.11662113,7.00672773 L7,7 Z" id="Shape" fill="#000000" fill-rule="nonzero"></path>
    </g>
</svg>