<?xml version="1.0" encoding="UTF-8"?>
<svg width="24px" height="24px" viewBox="0 0 24 24" version="1.1" xmlns="http://www.w3.org/2000/svg" xmlns:xlink="http://www.w3.org/1999/xlink">
    <title>hazardous</title>
    <g id="hazardous" stroke="none" stroke-width="1" fill="none" fill-rule="evenodd">
        <path d="M20.1961524,15 C20.4722948,15.4782926 20.3084196,16.089883 19.830127,16.3660254 L14.000706,19.732 L17.2942286,21.6339746 C17.7725213,21.910117 17.9363964,22.5217074 17.660254,23 C17.3841117,23.4782926 16.7725213,23.6421678 16.2942286,23.3660254 L11.999706,20.887 L7.70577137,23.3660254 C7.22747874,23.6421678 6.61588834,23.4782926 6.33974596,23 C6.06360359,22.5217074 6.22747874,21.910117 6.70577137,21.6339746 L9.99870601,19.732 L4.16987298,16.3660254 C3.69158036,16.089883 3.5277052,15.4782926 3.80384758,15 C4.07998995,14.5217074 4.69158036,14.3578322 5.16987298,14.6339746 L11.999706,18.576 L18.830127,14.6339746 C19.3084196,14.3578322 19.92001,14.5217074 20.1961524,15 Z M12,0 C15.8665904,0 19,3.09477869 19,6.89981096 C19,8.91810405 18.1101405,10.8138166 16.5720676,12.1227669 L16.5,12.181 L16.5001805,13.001016 C16.4993692,14.5979996 15.2509711,15.9031783 13.6762635,15.9948544 L13.5,16 L10.99942,16.0001932 C9.34235946,15.9998729 7.99929321,14.6561078 8.00019336,12.9996134 L8,12.56 L7.95601021,12.530811 C6.18200398,11.2909891 5.0898307,9.31592999 5.00529525,7.16902798 L5,6.89981096 C5,3.09477869 8.1334096,0 12,0 Z M12,2 C9.21295013,2 7,4.22421278 7,6.89981096 C7,8.56002946 7.85308199,10.0925582 9.26343985,10.9999707 L9.5414584,11.1788455 C9.82755619,11.3629184 10.0004485,11.6798146 10.0003828,12.0200128 L10.0001933,13 C9.99991468,13.5128358 10.3858603,13.9355818 10.8831869,13.993443 L10.9999033,14.0001691 L13.5,14 C14.0522142,13.9998193 14.4999002,13.5522142 14.5001807,13 L14.5004157,11.6997673 C14.5004711,11.3930045 14.6413219,11.1032392 14.8825165,10.9136907 L15.122537,10.7250649 C16.307684,9.79368875 17,8.3978272 17,6.89981096 C17,4.22421278 14.7870499,2 12,2 Z M10,6 C10.5522847,6 11,6.44771525 11,7 C11,7.55228475 10.5522847,8 10,8 C9.44771525,8 9,7.55228475 9,7 C9,6.44771525 9.44771525,6 10,6 Z M14,6 C14.5522847,6 15,6.44771525 15,7 C15,7.55228475 14.5522847,8 14,8 C13.4477153,8 13,7.55228475 13,7 C13,6.44771525 13.4477153,6 14,6 Z" id="Shape" fill="#0D0E10" fill-rule="nonzero"></path>
    </g>
</svg>