<?xml version="1.0" encoding="UTF-8"?>
<svg width="24px" height="24px" viewBox="0 0 24 24" version="1.1" xmlns="http://www.w3.org/2000/svg" xmlns:xlink="http://www.w3.org/1999/xlink">
    <title>help</title>
    <g id="help" stroke="none" stroke-width="1" fill="none" fill-rule="evenodd">
        <path d="M12,0 C14.8665266,0 17.4983011,1.00509358 19.562131,2.68208846 L19.6066017,2.63603897 L21.0208153,4.05025253 L21.0039748,4.06703246 C22.868698,6.18187134 24,8.9588208 24,12 C24,18.627417 18.627417,24 12,24 C5.372583,24 0,18.627417 0,12 C0,5.372583 5.372583,0 12,0 Z M8.32691932,16.7446691 L5.48402576,19.5858809 C7.23418474,21.0905806 9.51088922,22 12,22 C14.4013589,22 16.605024,21.1535722 18.3289229,19.7427889 L15.4756657,16.8913664 C14.4950071,17.5894515 13.2954479,18 12,18 C10.6162636,18 9.34193144,17.5315845 8.32691932,16.7446691 Z M19.5867382,5.48502306 L16.7446691,8.32691932 C17.5315845,9.34193144 18,10.6162636 18,12 C18,13.2954479 17.5894515,14.4950071 16.8913664,15.4756657 L19.7427889,18.3289229 C21.1535722,16.605024 22,14.4013589 22,12 C22,9.51136199 21.090926,7.23504959 19.5867382,5.48502306 Z M2,12 C2,14.3135092 2.78563034,16.4435246 4.10465728,18.1378125 L6.96993387,15.272126 C6.35648915,14.3310356 6,13.207149 6,12 C6,10.7045521 6.41054847,9.50499293 7.1086336,8.52433431 L4.25721107,5.67107713 C2.84642785,7.39497596 2,9.59864107 2,12 Z M12,8 C9.790861,8 8,9.790861 8,12 C8,14.209139 9.790861,16 12,16 C14.209139,16 16,14.209139 16,12 C16,9.790861 14.209139,8 12,8 Z M12,2 C9.59864107,2 7.39497596,2.84642785 5.67107713,4.25721107 L8.52433431,7.1086336 C9.50499293,6.41054847 10.7045521,6 12,6 C13.207149,6 14.3310356,6.35648915 15.272126,6.96993387 L18.1378125,4.10465728 C16.4435246,2.78563034 14.3135092,2 12,2 Z" id="Shape" fill="#0D0E10" fill-rule="nonzero"></path>
    </g>
</svg>