<?xml version="1.0" encoding="UTF-8"?>
<svg width="24px" height="24px" viewBox="0 0 24 24" version="1.1" xmlns="http://www.w3.org/2000/svg" xmlns:xlink="http://www.w3.org/1999/xlink">
    <title>history</title>
    <g id="history" stroke="none" stroke-width="1" fill="none" fill-rule="evenodd">
        <path d="M18,1.60769515 C23.7395115,4.92140365 25.7060133,12.2604885 22.3923048,18 C19.0785963,23.7395115 11.7395115,25.7060133 6,22.3923048 C5.52170738,22.1161625 5.35783222,21.5045721 5.6339746,21.0262794 C5.91011697,20.5479868 6.52170738,20.3841117 7,20.660254 C11.7829262,23.4216778 17.8988303,21.7829262 20.660254,17 C23.4216778,12.2170738 21.7829262,6.10116971 17,3.33974596 C12.2170738,0.578322213 6.10116971,2.21707377 3.33974596,7 L5,7 C5.55228475,7 6,7.44771525 6,8 C6,8.55228475 5.55228475,9 5,9 L1,9 C0.44771525,9 -8.8817842e-16,8.55228475 -8.8817842e-16,8 L-8.8817842e-16,4 C-8.8817842e-16,3.44771525 0.44771525,3 1,3 C1.55228475,3 2,3.44771525 2,4 L1.99857421,5.36818353 C5.47147039,0.119968343 12.4764633,-1.58132026 18,1.60769515 Z M12,5 C12.5522847,5 13,5.44771525 13,6 L13,13.585 L15.7071068,16.2928932 C16.0675907,16.6533772 16.0953203,17.2206082 15.7902954,17.6128994 L15.7071068,17.7071068 C15.3165825,18.0976311 14.6834175,18.0976311 14.2928932,17.7071068 L11.2928932,14.7071068 C11.1053568,14.5195704 11,14.2652165 11,14 L11,6 C11,5.44771525 11.4477153,5 12,5 Z" id="Shape" fill="#0D0E10" fill-rule="nonzero"></path>
    </g>
</svg>