<?xml version="1.0" encoding="UTF-8"?>
<svg width="24px" height="24px" viewBox="0 0 24 24" version="1.1" xmlns="http://www.w3.org/2000/svg" xmlns:xlink="http://www.w3.org/1999/xlink">
    <title>hotel</title>
    <g id="hotel" stroke="none" stroke-width="1" fill="none" fill-rule="evenodd">
        <path d="M14.9129236,1.0494287 C14.9703285,1.1778345 15,1.31690584 15,1.45755924 L15,8.59611848 L22.5547002,13.6327659 C22.8328989,13.8182317 23,14.1304631 23,14.4648162 L23,23 C23,23.5522847 22.5522847,24 22,24 L2,24 C1.44771525,24 1,23.5522847 1,23 L1,6.173942 L13.5918695,0.544635659 C14.0960632,0.319231385 14.6875193,0.545234926 14.9129236,1.0494287 Z M13,3 L3,7.47058824 L3,22 L13,22 L13,3 Z M15,11 L15,22 L21,22 L21,15 L15,11 Z M10,17 C10.5522847,17 11,17.4477153 11,18 C11,18.5522847 10.5522847,19 10,19 L6,19 C5.44771525,19 5,18.5522847 5,18 C5,17.4477153 5.44771525,17 6,17 L10,17 Z M10,13 C10.5522847,13 11,13.4477153 11,14 C11,14.5522847 10.5522847,15 10,15 L6,15 C5.44771525,15 5,14.5522847 5,14 C5,13.4477153 5.44771525,13 6,13 L10,13 Z" id="Shape" fill="#0D0E10" fill-rule="nonzero"></path>
    </g>
</svg>