<?xml version="1.0" encoding="UTF-8"?>
<svg width="24px" height="24px" viewBox="0 0 24 24" version="1.1" xmlns="http://www.w3.org/2000/svg" xmlns:xlink="http://www.w3.org/1999/xlink">
    <title>hotel-bed</title>
    <g id="hotel-bed" stroke="none" stroke-width="1" fill="none" fill-rule="evenodd">
        <path d="M18,1 C19.6568542,1 21,2.34314575 21,4 L21,11 C22.6568542,11 24,12.3431458 24,14 L24,24 L22,24 L22,19 L2,19 L2,24 L0,24 L0,14 C0,12.3431458 1.34314575,11 3,11 L3,4 C3,2.34314575 4.34314575,1 6,1 L18,1 Z M21,13 L3,13 C2.44771525,13 2,13.4477153 2,14 L2,17 L22,17 L22,14 C22,13.4477153 21.5522847,13 21,13 Z M18,3 L6,3 C5.44771525,3 5,3.44771525 5,4 L5,11 L7,11 L7,10 C7,8.34314575 8.34314575,7 10,7 L12,7 C13.6568542,7 15,8.34314575 15,10 L15,11 L19,11 L19,4 C19,3.44771525 18.5522847,3 18,3 Z M12,9 L10,9 C9.44771525,9 9,9.44771525 9,10 L9,11 L13,11 L13,10 C13,9.44771525 12.5522847,9 12,9 Z" id="Shape" fill="#0D0E10" fill-rule="nonzero"></path>
    </g>
</svg>