<?xml version="1.0" encoding="UTF-8"?>
<svg width="32px" height="24px" viewBox="0 0 32 24" version="1.1" xmlns="http://www.w3.org/2000/svg" xmlns:xlink="http://www.w3.org/1999/xlink">
    <title>human-sad</title>
    <g id="human-sad" stroke="none" stroke-width="1" fill="none" fill-rule="evenodd">
        <path d="M16,0 C22.627417,0 28,5.372583 28,12 C28,18.627417 22.627417,24 16,24 C9.372583,24 4,18.627417 4,12 C4,5.372583 9.372583,0 16,0 Z M16,2 C10.4771525,2 6,6.4771525 6,12 C6,17.5228475 10.4771525,22 16,22 C21.5228475,22 26,17.5228475 26,12 C26,6.4771525 21.5228475,2 16,2 Z M10.3392969,16.2493527 C13.7467183,13.2502158 18.2532817,13.2502158 21.6607031,16.2493527 C22.0752742,16.614249 22.1155436,17.2461321 21.7506473,17.6607031 C21.385751,18.0752742 20.7538679,18.1155436 20.3392969,17.7506473 C17.687337,15.4164509 14.312663,15.4164509 11.6607031,17.7506473 C11.2461321,18.1155436 10.614249,18.0752742 10.2493527,17.6607031 C9.88445644,17.2461321 9.92472581,16.614249 10.3392969,16.2493527 Z M20.5606228,8.43937723 C20.9907137,8.86946813 21.1184997,9.51670902 20.8841361,10.0779844 C20.6497725,10.6392598 20.0996617,11.0034413 19.4914312,11.000048 C18.6696973,10.9952931 18.0047069,10.3303027 17.999952,9.50856879 C17.9965587,8.90033829 18.3607402,8.35022746 18.9220156,8.1158639 C19.483291,7.88150033 20.1305319,8.00928634 20.5606228,8.43937723 Z M13.5606228,8.43937723 C13.9907137,8.86946813 14.1184997,9.51670902 13.8841361,10.0779844 C13.6497725,10.6392598 13.0996617,11.0034413 12.4914312,11.000048 C11.6696973,10.9952931 11.0047069,10.3303027 10.999952,9.50856879 C10.9965587,8.90033829 11.3607402,8.35022746 11.9220156,8.1158639 C12.483291,7.88150033 13.1305319,8.00928634 13.5606228,8.43937723 Z" id="Shape" fill="#0D0E10" fill-rule="nonzero"></path>
    </g>
</svg>