<?xml version="1.0" encoding="UTF-8"?>
<svg width="24px" height="24px" viewBox="0 0 24 24" version="1.1" xmlns="http://www.w3.org/2000/svg" xmlns:xlink="http://www.w3.org/1999/xlink">
    <title>info-circle-filled</title>
    <g id="info-circle-filled" stroke="none" stroke-width="1" fill="none" fill-rule="evenodd">
        <path d="M12,0.5 C18.3512746,0.5 23.5,5.64872538 23.5,12 C23.5,18.3512746 18.3512746,23.5 12,23.5 C5.64872538,23.5 0.5,18.3512746 0.5,12 C0.5,5.64872538 5.64872538,0.5 12,0.5 Z M12,10 C11.4753295,10 11.0450329,10.3030473 11.003315,10.6884883 L11,10.75 L11,16.25 C11,16.6642136 11.4477153,17 12,17 C12.5246705,17 12.9549671,16.6969527 12.996685,16.3115117 L13,16.25 L13,10.75 C13,10.3357864 12.5522847,10 12,10 Z M12,7 C11.4477153,7 11,7.44771525 11,8 C11,8.55228475 11.4477153,9 12,9 C12.5522847,9 13,8.55228475 13,8 C13,7.44771525 12.5522847,7 12,7 Z" id="Shape" fill="#0D0E10" fill-rule="nonzero"></path>
    </g>
</svg>