<?xml version="1.0" encoding="UTF-8"?>
<svg width="24px" height="24px" viewBox="0 0 24 24" version="1.1" xmlns="http://www.w3.org/2000/svg" xmlns:xlink="http://www.w3.org/1999/xlink">
    <title>info-megaphone</title>
    <g id="info-megaphone" stroke="none" stroke-width="1" fill="none" fill-rule="evenodd">
        <path d="M24,0.0148845199 L24,22.2049147 L20.5419614,19.6274485 L19.8402892,19.1118158 C18.0396717,17.7941442 17.4250017,17.3983442 16.7133715,17.0875617 C15.9870661,16.7703702 15.2262139,16.6295414 13.8700193,16.5864491 L13.5,16.577 L13.5,20.7619456 C13.5,22.49278 12.1395589,23.899904 10.4340115,23.994889 L10.25,24 C8.45935076,24 7,22.5545955 7,20.7619456 L7,20.0108845 L6.78855071,19.9887909 C3.1056471,19.5972226 0,16.5857837 0,13.0047834 C0,9.30154499 3.08190282,6.24772978 6.87170365,6.00411923 L8.892,5.99988452 L9.33329351,5.95583204 C14.5477697,5.40093995 18.2899931,4.25262059 20.5335699,2.59857122 L24,0.0148845199 Z M9,20.7619456 C9,21.4457042 9.55964406,22 10.25,22 C10.9403559,22 11.5,21.4457042 11.5,20.7619456 L11.5,15.3145063 C11.5,14.9042512 11.8357864,14.5716737 12.25,14.5716737 L13.25,14.5716737 L13.276,14.5741498 L13.5994455,14.5788978 L14.2197005,14.5985341 C17.2815087,14.7347449 18.2295738,15.4378491 21.7287873,18.0176522 L22,18.2197992 L22,4 L21.7287873,4.20214703 C19.0597281,6.16991705 14.816799,7.43586804 9,8 L9,20.7619456 Z M7,8 C4.2593278,8.17617197 2,10.3645569 2,13.0047834 C2,15.5729414 4.36561858,17.7199112 7,18 L7,8 Z" id="Shape" fill="#0D0E10" fill-rule="nonzero"></path>
    </g>
</svg>