<?xml version="1.0" encoding="UTF-8"?>
<svg width="24px" height="24px" viewBox="0 0 24 24" version="1.1" xmlns="http://www.w3.org/2000/svg" xmlns:xlink="http://www.w3.org/1999/xlink">
    <title>info-circle</title>
    <g id="info-circle" stroke="none" stroke-width="1" fill="none" fill-rule="evenodd">
        <path d="M12,0 C18.627417,0 24,5.372583 24,12 C24,18.627417 18.627417,24 12,24 C5.372583,24 0,18.627417 0,12 C0,5.372583 5.372583,0 12,0 Z M12,2 C6.4771525,2 2,6.4771525 2,12 C2,17.5228475 6.4771525,22 12,22 C17.5228475,22 22,17.5228475 22,12 C22,6.4771525 17.5228475,2 12,2 Z M12,11 C12.5522847,11 13,11.3917508 13,11.875 L13,18.125 C13,18.6082492 12.5522847,19 12,19 C11.4477153,19 11,18.6082492 11,18.125 L11,11.875 C11,11.3917508 11.4477153,11 12,11 Z M12,5 C12.5522847,5 13,5.39175084 13,5.875 L13,7.125 C13,7.60824916 12.5522847,8 12,8 C11.4477153,8 11,7.60824916 11,7.125 L11,5.875 C11,5.39175084 11.4477153,5 12,5 Z" id="Shape" fill="#0D0E10" fill-rule="nonzero"></path>
    </g>
</svg>