<?xml version="1.0" encoding="UTF-8"?>
<svg width="24px" height="24px" viewBox="0 0 24 24" version="1.1" xmlns="http://www.w3.org/2000/svg" xmlns:xlink="http://www.w3.org/1999/xlink">
    <title>keyboard</title>
    <g id="keyboard" stroke="none" stroke-width="1" fill="none" fill-rule="evenodd">
        <path d="M12,0 C12.5522847,-1.01453063e-16 13,0.44771525 13,1 L13,5 L21,5 C22.6568542,5 24,6.34314575 24,8 L24,17 C24,18.6568542 22.6568542,20 21,20 L3,20 C1.34314575,20 0,18.6568542 0,17 L0,8 C0,6.34314575 1.34314575,5 3,5 L11,5 L11,1 C11,0.44771525 11.4477153,1.01453063e-16 12,0 Z M21,7 L3,7 C2.44771525,7 2,7.44771525 2,8 L2,17 C2,17.5522847 2.44771525,18 3,18 L21,18 C21.5522847,18 22,17.5522847 22,17 L22,8 C22,7.44771525 21.5522847,7 21,7 Z M16.5,14 C16.7761424,14 17,14.2238576 17,14.5 L17,15.5 C17,15.7761424 16.7761424,16 16.5,16 L15.5,16 C15.2238576,16 15,15.7761424 15,15.5 L15,14.5 C15,14.2238576 15.2238576,14 15.5,14 L16.5,14 Z M13.5,14 C13.7761424,14 14,14.2238576 14,14.5 L14,15.5 C14,15.7761424 13.7761424,16 13.5,16 L12.5,16 C12.2238576,16 12,15.7761424 12,15.5 L12,14.5 C12,14.2238576 12.2238576,14 12.5,14 L13.5,14 Z M19.5,14 C19.7761424,14 20,14.2238576 20,14.5 L20,15.5 C20,15.7761424 19.7761424,16 19.5,16 L18.5,16 C18.2238576,16 18,15.7761424 18,15.5 L18,14.5 C18,14.2238576 18.2238576,14 18.5,14 L19.5,14 Z M16.5,11 C16.7761424,11 17,11.2238576 17,11.5 L17,12.5 C17,12.7761424 16.7761424,13 16.5,13 L15.5,13 C15.2238576,13 15,12.7761424 15,12.5 L15,11.5 C15,11.2238576 15.2238576,11 15.5,11 L16.5,11 Z" id="Combined-Shape" fill="#0D0E10" fill-rule="nonzero"></path>
    </g>
</svg>