<?xml version="1.0" encoding="UTF-8"?>
<svg width="24px" height="24px" viewBox="0 0 24 24" version="1.1" xmlns="http://www.w3.org/2000/svg" xmlns:xlink="http://www.w3.org/1999/xlink">
    <title>keycard</title>
    <g id="keycard" stroke="none" stroke-width="1" fill="none" fill-rule="evenodd">
        <path d="M17,0 C19.209139,0 21,1.790861 21,4 L21,20 C21,22.209139 19.209139,24 17,24 L7,24 C4.790861,24 3,22.209139 3,20 L3,4 C3,1.790861 4.790861,0 7,0 L17,0 Z M17,2 L7,2 C5.8954305,2 5,2.8954305 5,4 L5,20 C5,21.1045695 5.8954305,22 7,22 L17,22 C18.1045695,22 19,21.1045695 19,20 L19,4 C19,2.8954305 18.1045695,2 17,2 Z M12,6 C13.6568542,6 15,7.34314575 15,9 C15,10.3117996 14.1580438,11.4269497 12.9850473,11.8345346 C12.9953052,11.8879864 13,11.9434449 13,12 L13,13 L14,13 C14.5522847,13 15,13.4477153 15,14 C15,14.5522847 14.5522847,15 14,15 L13,15 L13,16 L14,16 C14.5522847,16 15,16.4477153 15,17 C15,17.5522847 14.5522847,18 14,18 L12,18 C11.4477153,18 11,17.5522847 11,17 L11,12 C11,11.9434449 11.0046948,11.8879864 11.013716,11.8339928 C9.84195618,11.4269497 9,10.3117996 9,9 C9,7.34314575 10.3431458,6 12,6 Z M12,8 C11.4477153,8 11,8.44771525 11,9 C11,9.55228475 11.4477153,10 12,10 C12.5522847,10 13,9.55228475 13,9 C13,8.48716416 12.6139598,8.06449284 12.1166211,8.00672773 L12,8 Z" id="Shape" fill="#000000" fill-rule="nonzero"></path>
    </g>
</svg>