<?xml version="1.0" encoding="UTF-8"?>
<svg width="24px" height="24px" viewBox="0 0 24 24" version="1.1" xmlns="http://www.w3.org/2000/svg" xmlns:xlink="http://www.w3.org/1999/xlink">
    <title>keycard-wifi</title>
    <g id="keycard-wifi" stroke="none" stroke-width="1" fill="none" fill-rule="evenodd">
        <path d="M17.5,0 C19.4329966,0 21,1.56700338 21,3.5 L21,20.5 C21,22.4329966 19.4329966,24 17.5,24 L6.5,24 C4.56700338,24 3,22.4329966 3,20.5 L3,3.5 C3,1.56700338 4.56700338,0 6.5,0 L17.5,0 Z M17.5,2 L6.5,2 C5.67157288,2 5,2.67157288 5,3.5 L5,20.5 C5,21.3284271 5.67157288,22 6.5,22 L17.5,22 C18.3284271,22 19,21.3284271 19,20.5 L19,3.5 C19,2.67157288 18.3284271,2 17.5,2 Z M12.01,16 C12.5622847,16 13.01,16.4477153 13.01,17 C13.01,17.5128358 12.6239598,17.9355072 12.1266211,17.9932723 L12,18 C11.4477153,18 11,17.5522847 11,17 C11,16.4871642 11.3860402,16.0644928 11.8833789,16.0067277 L12.01,16 Z M14.7375623,13.9109615 C15.1102953,14.3185011 15.0820789,14.9510371 14.6745392,15.3237701 C14.2669996,15.696503 13.6344636,15.6682867 13.2617307,15.260747 C12.5537132,14.4866133 11.4462868,14.4866133 10.7382693,15.260747 C10.3655364,15.6682867 9.73300041,15.696503 9.32546076,15.3237701 C8.91792112,14.9510371 8.88970475,14.3185011 9.26243774,13.9109615 C10.7633641,12.2698752 13.2366359,12.2698752 14.7375623,13.9109615 Z M11.9999938,9.58585425 C13.7848903,9.58585425 15.4902044,10.3584418 16.7380346,11.7232797 C17.1106958,12.1308849 17.0823681,12.7634159 16.6747629,13.1360771 C16.2671576,13.5087384 15.6346266,13.4804106 15.2619654,13.0728054 C14.3881016,12.1170004 13.2157154,11.5858542 11.9999938,11.5858542 C10.7842846,11.5858542 9.6118984,12.1170004 8.73803461,13.0728054 C8.36537338,13.4804106 7.73284241,13.5087384 7.32523715,13.1360771 C6.91763188,12.7634159 6.88930415,12.1308849 7.26196539,11.7232797 C8.50979561,10.3584418 10.2151097,9.58585425 11.9999938,9.58585425 Z M12.2236068,4.17082039 C12.3203705,4.21920224 12.3988317,4.29766349 12.4472136,4.39442719 L13.1381966,5.7763932 C13.2616912,6.02338245 13.1615791,6.32371897 12.9145898,6.4472136 C12.8451621,6.48192745 12.7686056,6.5 12.690983,6.5 L11.309017,6.5 C11.0328746,6.5 10.809017,6.27614237 10.809017,6 C10.809017,5.92237745 10.8270895,5.84582092 10.8618034,5.7763932 L11.5527864,4.39442719 C11.676281,4.14743794 11.9766175,4.04732577 12.2236068,4.17082039 Z" id="Shape" fill="#000000" fill-rule="nonzero"></path>
    </g>
</svg>