<?xml version="1.0" encoding="UTF-8"?>
<svg width="24px" height="24px" viewBox="0 0 24 24" version="1.1" xmlns="http://www.w3.org/2000/svg" xmlns:xlink="http://www.w3.org/1999/xlink">
    <title>keycard-pin</title>
    <g id="keycard-pin" stroke="none" stroke-width="1" fill="none" fill-rule="evenodd">
        <path d="M17,0 C19.209139,0 21,1.790861 21,4 L21,20 C21,22.209139 19.209139,24 17,24 L7,24 C4.790861,24 3,22.209139 3,20 L3,4 C3,1.790861 4.790861,0 7,0 L17,0 Z M17,2 L7,2 C5.8954305,2 5,2.8954305 5,4 L5,20 C5,21.1045695 5.8954305,22 7,22 L17,22 C18.1045695,22 19,21.1045695 19,20 L19,4 C19,2.8954305 18.1045695,2 17,2 Z M12,8 C13.6568542,8 15,9.34314575 15,11 C15,12.3117996 14.1580438,13.4269497 12.9850473,13.8345346 C12.9953052,13.8879864 13,13.9434449 13,14 L13,15 L14,15 C14.5522847,15 15,15.4477153 15,16 C15,16.5522847 14.5522847,17 14,17 L13,17 L13,18 L14,18 C14.5522847,18 15,18.4477153 15,19 C15,19.5522847 14.5522847,20 14,20 L12,20 C11.4477153,20 11,19.5522847 11,19 L11,14 C11,13.9434449 11.0046948,13.8879864 11.013716,13.8339928 C9.84195618,13.4269497 9,12.3117996 9,11 C9,9.34314575 10.3431458,8 12,8 Z M12,10 C11.4477153,10 11,10.4477153 11,11 C11,11.5522847 11.4477153,12 12,12 C12.5522847,12 13,11.5522847 13,11 C13,10.4871642 12.6139598,10.0644928 12.1166211,10.0067277 L12,10 Z M12.2236068,4.17082039 C12.3203705,4.21920224 12.3988317,4.29766349 12.4472136,4.39442719 L13.1381966,5.7763932 C13.2616912,6.02338245 13.1615791,6.32371897 12.9145898,6.4472136 C12.8451621,6.48192745 12.7686056,6.5 12.690983,6.5 L11.309017,6.5 C11.0328746,6.5 10.809017,6.27614237 10.809017,6 C10.809017,5.92237745 10.8270895,5.84582092 10.8618034,5.7763932 L11.5527864,4.39442719 C11.676281,4.14743794 11.9766175,4.04732577 12.2236068,4.17082039 Z" id="Shape" fill="#000000" fill-rule="nonzero"></path>
    </g>
</svg>