<?xml version="1.0" encoding="UTF-8"?>
<svg width="24px" height="24px" viewBox="0 0 24 24" version="1.1" xmlns="http://www.w3.org/2000/svg" xmlns:xlink="http://www.w3.org/1999/xlink">
    <title>kids-room</title>
    <g id="kids-room" stroke="none" stroke-width="1" fill="none" fill-rule="evenodd">
        <path d="M12,8 C12.1001929,7.35670083 12.5613731,6.59781782 12.9405166,5.84586009 L13.2012137,5.31775504 C13.4304576,4.87584256 13.699938,4.46026144 14.0127843,4.07648804 C15.2658964,2.53927567 16.5299722,1.57934235 17.4134439,1.1148701 C17.8192377,0.901529971 18.3181264,0.991454386 18.6238929,1.33305285 L22.745105,5.93721951 C22.9092455,6.12059521 23,6.35805949 23,6.60416667 L23,9.3125 C23,9.99325818 22.3345748,10.4750366 21.6878355,10.262528 L18.302,9.15 L18.2481063,9.25175484 C18.0828613,9.58126925 17.9497181,9.94178068 17.8473746,10.3304804 L17.7763716,10.6272466 C17.5333945,11.7513734 17.5434012,12.9811129 17.7095496,14.1385011 L17.7523141,14.4134897 C17.7797755,14.5763687 17.8043575,14.6971587 17.821364,14.7686861 C17.9707491,15.3969821 17.4942958,16 16.8484848,16 L16.3156842,15.9999576 L18.4195346,19.9957938 C18.8338198,19.8487123 19.2296333,19.6873814 19.6072576,19.5130932 C20.2964711,19.1949947 20.8704346,18.8573691 21.3334584,18.523992 L21.5342763,18.3746337 C21.5928705,18.3294749 21.6431493,18.2891308 21.6852017,18.2541633 L21.819209,18.1349985 C22.2097333,17.7444742 22.8428983,17.7444742 23.2334226,18.1349985 C23.6239469,18.5255228 23.6239469,19.1586878 23.2334226,19.549212 C22.758553,20.0240816 21.840392,20.6851575 20.445374,21.329012 C18.1765893,22.3761434 15.3692346,23 12,23 C8.63076539,23 5.82341071,22.3761434 3.55462603,21.329012 C2.15960798,20.6851575 1.24144703,20.0240816 0.766577429,19.549212 C0.376053138,19.1586878 0.376053138,18.5255228 0.766577429,18.1349985 C1.12706139,17.7745145 1.69429245,17.746785 2.08658365,18.0518099 L2.31479828,18.2541633 C2.39890304,18.3240983 2.51591364,18.4155399 2.66654157,18.523992 C3.12956539,18.8573691 3.70352886,19.1949947 4.39274239,19.5130932 C4.77025012,19.6873276 5.16593569,19.8486127 5.58008158,19.9956575 L7.68368421,15.9999576 L6.54545455,16 C6.18638224,16 5.85487437,15.8074849 5.67691255,15.4956156 L5.53413938,15.2313334 C5.3308121,14.8363287 5.0797816,14.2735252 4.83083643,13.5755024 C4.4195662,12.422333 4.13817829,11.2207676 4.03924406,10.0009902 L3,10 C2.44771525,10 2,9.55228475 2,9 C2,8.44771525 2.44771525,8 3,8 L12,8 Z M14.1590696,16.0005828 L9.84093041,16.0005828 C9.83356608,16.1404658 9.79654366,16.2810265 9.72702349,16.4131149 L7.54764808,20.5521956 C8.87807505,20.8409447 10.360051,21 12,21 C13.6395389,21 15.1211838,20.8410242 16.4513538,20.5524122 L14.2729765,16.4131149 C14.2034563,16.2810265 14.1664339,16.1404658 14.1590696,16.0005828 Z M21,6.987 L17.702,3.302 L17.5176568,3.43962325 C16.8538106,3.94374506 16.1866852,4.57506153 15.5629733,5.34017862 C15.3393808,5.61446308 15.1444121,5.9151354 14.9765519,6.23871879 C14.6575506,6.8536563 14.449475,7.52216729 14.3336084,8.19223425 C14.2647266,8.59058363 14.2424242,8.89152881 14.2424242,9.04166667 C14.2424242,9.59395142 13.794709,10.0416667 13.2424242,10.0416667 L6.053,10.041 L6.08589809,10.340227 C6.17953594,11.0616109 6.34669418,11.7803637 6.57233558,12.4836507 L6.71461811,12.9036642 C6.83252005,13.234252 6.95656108,13.5422802 7.08172234,13.8239101 L7.16268421,14 L15.675,14 L15.63485,13.5903848 C15.5523293,12.6106147 15.5730344,11.6050235 15.7405887,10.623663 L15.8215156,10.2047093 C16.0538587,9.12978064 16.4638742,8.16649851 17.0829475,7.35282683 C17.3410863,7.01354521 17.7859377,6.8752237 18.1909524,7.00830528 L21,7.931 L21,6.987 Z" id="Shape" fill="#0D0E10" fill-rule="nonzero"></path>
    </g>
</svg>