<?xml version="1.0" encoding="UTF-8"?>
<svg width="24px" height="24px" viewBox="0 0 24 24" version="1.1" xmlns="http://www.w3.org/2000/svg" xmlns:xlink="http://www.w3.org/1999/xlink">
    <title>language</title>
    <g id="language" stroke="none" stroke-width="1" fill="none" fill-rule="evenodd">
        <path d="M12,0 C18.627417,0 24,5.372583 24,12 C24,18.627417 18.627417,24 12,24 C5.372583,24 0,18.627417 0,12 C0,5.372583 5.372583,0 12,0 Z M16.9752924,13.0004018 L7.02470757,13.0004018 C7.27566285,18.0535319 9.40739467,22 12,22 C14.5926053,22 16.7243372,18.0535319 16.9752924,13.0004018 Z M21.9505415,13.0008378 L18.9779235,13.0007548 C18.845464,15.9877143 18.1217727,18.7095007 16.9377734,20.6983233 C19.5984219,19.1841732 21.496636,16.4849328 21.9137896,13.3189639 L21.9505415,13.0008378 Z M5.02207633,13.0007543 L2.04945842,13.0008374 C2.37766243,16.3036624 4.31287752,19.133654 7.06209064,20.6977992 C5.94052306,18.8140985 5.23198615,16.2721764 5.04788488,13.4701065 L5.02207633,13.0007543 Z M7.06222661,3.30167673 L6.87768923,3.40973876 C4.22624545,4.99418204 2.36981829,7.77136446 2.04934014,11.0003536 L5.02203206,11.0002468 C5.15437418,8.01289424 5.87809495,5.29072166 7.06222661,3.30167673 Z M12,2 C9.40722328,2 7.27538101,5.94698988 7.02465783,11.0006003 L16.9753397,11.0006003 C16.7296434,6.04851676 14.6776881,2.15907735 12.1557371,2.00475853 L12,2 Z M16.9379094,3.30220078 L17.0285958,3.45724593 C18.1588542,5.4314393 18.8489965,8.08986491 18.9779547,10.9999476 L21.9506414,11.0001672 C21.62273,7.69691147 19.6874012,4.86650457 16.9379094,3.30220078 Z" id="Shape" fill="#0D0E10" fill-rule="nonzero"></path>
    </g>
</svg>