<?xml version="1.0" encoding="UTF-8"?>
<svg width="24px" height="24px" viewBox="0 0 24 24" version="1.1" xmlns="http://www.w3.org/2000/svg" xmlns:xlink="http://www.w3.org/1999/xlink">
    <title>language</title>
    <g id="language" stroke="none" stroke-width="1" fill="none" fill-rule="evenodd">
        <path d="M13,0 C14.6568542,0 16,1.34314575 16,3 L16,7 L21,7 C22.5976809,7 23.9036609,8.24891996 23.9949073,9.82372721 L24,10 L24,21.5612236 C24,22.1135083 23.5522847,22.5612236 23,22.5612236 C22.7941605,22.5612236 22.5933357,22.4977032 22.4249366,22.3793325 L19.04,20 L11,20 C9.34314575,20 8,18.6568542 8,17 L8,13 L4.96,13 L1.57506335,15.3793325 C1.1232343,15.6969312 0.499489842,15.588116 0.181891121,15.1362869 C0.0635203883,14.9678879 0,14.7670631 0,14.5612236 L0,3 C0,1.34314575 1.34314575,0 3,0 L13,0 Z M10,17 C10,17.5522847 10.4477153,18 11,18 L19.58,18 L22,20 L22,10 C22,9.44771525 21.5522847,9 21,9 L11,9 C10.4477153,9 10,9.44771525 10,10 L10,17 Z M13,2 L3,2 C2.44771525,2 2,2.44771525 2,3 L2,13 L4.42,11 L8,11 L8,10 C8,8.40231912 9.24891996,7.09633912 10.8237272,7.00509269 L11,7 L14,7 L14,3 C14,2.44771525 13.5522847,2 13,2 Z" id="Shape" fill="#0D0E10" fill-rule="nonzero"></path>
    </g>
</svg>