<?xml version="1.0" encoding="UTF-8"?>
<svg width="67px" height="78px" viewBox="0 0 67 78" version="1.1" xmlns="http://www.w3.org/2000/svg" xmlns:xlink="http://www.w3.org/1999/xlink">
    <title>Group 3</title>
    <g id="Travel" stroke="none" stroke-width="1" fill="none" fill-rule="evenodd">
        <g id="Artboard" transform="translate(-289, -227)" fill="#000000">
            <g id="Group-3" transform="translate(289.9437, 227)">
                <g id="Group" transform="translate(3.0563, 0)" fill-rule="nonzero">
                    <path d="M57.524298,75.0009616 L57.093731,75.2069297 C55.0898973,76.1509741 52.7747179,76.1509741 50.7708842,75.2069297 L49.9062113,74.7938029 C47.3439518,73.5842691 44.3820686,73.5842691 41.8198091,74.7938029 L41.7525699,74.8259483 L41.7525699,66.0919484 C41.7525699,65.5166079 41.2904467,65.0502022 40.7203887,65.0502022 L38.0473344,65.0502022 L36.0053852,23.8041975 L37.9364487,23.8041975 C38.2023787,23.8041975 38.4574169,23.6975782 38.6454578,23.5077948 C38.8334987,23.3180114 38.939139,23.0606098 38.939139,22.7922155 L38.939139,18.3144928 C38.939139,18.0460985 38.8334987,17.7886969 38.6454578,17.5989135 C38.4574169,17.40913 38.2023787,17.3025108 37.9364487,17.3025108 L35.9534812,17.3025108 L35.9534812,11.3294359 L37.9364487,11.3294359 C38.5065066,11.3294359 38.9686299,10.8630303 38.9686299,10.2876898 C38.9686299,9.71234925 38.5065066,9.2459436 37.9364487,9.2459436 L35.8886013,9.2459436 C35.5023938,6.41453351 33.3324443,4.16798596 30.5377741,3.70623513 L30.5377741,1.04174608 C30.5377741,0.466405592 30.0756509,0 29.505593,0 C28.9355351,0 28.4734119,0.466405592 28.4734118,1.04174608 L28.4734118,3.70623513 C25.6787416,4.16798596 23.5087922,6.41453351 23.1225847,9.2459436 L21.0735576,9.2459436 C20.5034997,9.2459436 20.0413765,9.71234925 20.0413765,10.2876898 C20.0413765,10.8630303 20.5034997,11.3294359 21.0735576,11.3294359 L23.0565251,11.3294359 L23.0565251,17.3025108 L21.0735576,17.3025108 C20.5197871,17.3025108 20.0708674,17.7555906 20.0708674,18.3144928 L20.0708674,22.7922155 C20.0708674,23.3505914 20.5203085,23.8041975 21.0735576,23.8041975 L23.0046211,23.8041975 L20.9614922,65.0502022 L18.2884379,65.0502022 C17.71838,65.0502022 17.2562568,65.5166079 17.2562568,66.0919484 L17.2562568,74.6449821 C14.8014351,73.6020453 11.9478965,73.6425246 9.5355417,74.7949935 L9.1049747,74.999771 L9.1014358,74.999771 L8.66968916,75.2081203 C6.6658554,76.1521647 4.35067604,76.1521647 2.34684228,75.2081203 L1.48216938,74.7949935 C1.14820728,74.6317223 0.753109873,74.6619455 0.447345106,74.8741527 C0.141580339,75.08636 -0.0277874682,75.4478879 0.00374331295,75.8210528 C0.0352740941,76.1942178 0.262850142,76.5215811 0.599801942,76.6784706 L1.46447485,77.0915973 C2.73022386,77.6964054 4.11865497,77.9976189 5.50826572,77.9976189 C6.89787647,77.9976189 8.28630759,77.6964054 9.55323624,77.0915973 L9.98616251,76.8844387 L9.98970141,76.8820575 L10.4179091,76.6784706 C12.4221463,75.7343845 14.7376985,75.7343845 16.7419357,76.6784706 L17.6066086,77.0915973 C18.8723576,77.6964054 20.2607887,77.9988094 21.6503994,77.9988094 C23.0400102,77.9988094 24.4284413,77.6964054 25.69537,77.0915973 L26.1282962,76.8844387 L26.1318351,76.8820575 L26.5588632,76.6796611 C28.562697,75.7356167 30.8778763,75.7356167 32.8817101,76.6796611 L33.746383,77.0927879 C35.012132,77.697596 36.4017428,78 37.7901739,78 C39.178605,78 40.5682157,77.697596 41.8351444,77.0927879 L42.2680707,76.8856292 L42.2704299,76.8856292 L42.7009969,76.6796611 C44.7050833,75.7367663 47.0197575,75.7367663 49.0238438,76.6796611 L49.8885167,77.0927879 C51.1542657,77.697596 52.5426968,78 53.9323076,78 C55.3219183,78 56.7103495,77.697596 57.9784577,77.0915973 L58.4102044,76.8844387 C58.6576916,76.7663927 58.8484301,76.5537593 58.9402863,76.2935083 C59.0321425,76.0332574 59.0175575,75.7468052 58.8997532,75.4974281 C58.7830348,75.2474231 58.5723665,75.054706 58.3144138,74.9619658 C58.0564611,74.8692255 57.7725167,74.8841174 57.5254777,75.0033427 L57.524298,75.0009616 Z M24.5334289,34.6585972 L34.4742182,34.6585972 L34.9071444,43.3997405 L24.1005026,43.3997405 L24.5334289,34.6585972 L24.5334289,34.6585972 Z M23.9978743,45.4832328 L35.0109524,45.4832328 L35.4438786,54.2255666 L23.564948,54.2255666 L23.9978743,45.4832328 Z M36.9337584,21.7790429 L33.36772,21.7790429 L33.36772,19.3252842 L36.9337584,19.3252842 L36.9337584,21.7790429 Z M27.6476669,21.7790429 L27.6476669,19.3252842 L31.3623394,19.3252842 L31.3623394,21.7790429 L27.6476669,21.7790429 Z M29.5044133,5.69686323 C31.5893702,5.70031519 33.3845531,7.1828026 33.8006462,9.24475303 L25.2081804,9.24475303 C25.6242735,7.1828026 27.4194565,5.70031519 29.5044133,5.69686323 L29.5044133,5.69686323 Z M25.1208874,11.3282454 L33.8891189,11.3282454 L33.8891189,17.3013202 L25.1208874,17.3013202 L25.1208874,11.3282454 Z M22.0762479,19.3252842 L25.6422863,19.3252842 L25.6422863,21.7790429 L22.0762479,21.7790429 L22.0762479,19.3252842 Z M33.937484,23.8030069 L34.3715899,32.5739143 L24.6372368,32.5739143 L25.0713427,23.8030069 L33.937484,23.8030069 L33.937484,23.8030069 Z M23.4623197,56.3078684 L35.5476866,56.3078684 L35.9806129,65.0490117 L23.0305731,65.0490117 L23.4634994,56.3078684 L23.4623197,56.3078684 Z M34.6299301,75.2057391 L33.7652572,74.7926124 C31.2029977,73.5830785 28.2411145,73.5830785 25.6788551,74.7926124 L25.2482881,74.9973899 L25.2435695,74.9973899 L24.8118229,75.2057391 C23.0896836,76.0149941 21.1271432,76.13331 19.3217987,75.5367168 L19.3217987,67.132504 L39.6882076,67.132504 L39.6882076,75.6581546 C38.0014635,76.1076761 36.2120612,75.9476308 34.6299301,75.2057391 L34.6299301,75.2057391 Z" id="Shape"></path>
                </g>
                <g id="Group-2" transform="translate(49, 7)">
                    <path d="M0.882659664,4.07050324 C0.931075956,4.07043812 0.979404519,4.06637769 1.02715453,4.05836316 L15.0330522,1.75882964 C15.344776,1.70768644 15.605569,1.49392478 15.7171929,1.1980666 C15.8288169,0.902208417 15.7742484,0.569201621 15.5742138,0.324486648 C15.3741139,0.0797716751 15.0588176,-0.0394734468 14.7470938,0.0116697667 L0.741196156,2.31120328 C0.288402195,2.38703123 -0.0310967139,2.79720974 0.00576421324,3.2553642 C0.0426251404,3.71351865 0.423581043,4.06720577 0.882659664,4.06949156 L0.882659664,4.07050324 Z" id="Path"></path>
                    <path d="M15.0330522,12.240699 L1.02715453,9.94116546 C0.715430762,9.89002225 0.400134438,10.0092674 0.200034636,10.2539823 C4.54747351e-13,10.4986973 -0.0545685252,10.8317041 0.0570554466,11.1275623 C0.168679419,11.4234205 0.429472384,11.6371821 0.741196156,11.6883253 L14.7470938,13.9878589 C14.978466,14.0266874 15.2157511,13.9715319 15.4063704,13.834614 C15.5969898,13.6976961 15.7252029,13.4903219 15.7625997,13.2584424 C15.8005249,13.0267539 15.7449674,12.7894711 15.6081499,12.5987958 C15.4713324,12.4081205 15.2644628,12.2796726 15.0330522,12.2417107 L15.0330522,12.240699 Z" id="Path"></path>
                    <path d="M16.0301688,6 L11.0824389,6 L11.0824389,6 C10.5157202,6 10.0563039,6.44771525 10.0563039,7 C10.0563039,7.55228475 10.5157202,8 11.0824389,8 L16.0301688,8 C16.5968876,8 17.0563039,7.55228475 17.0563039,7 C17.0563039,6.44771525 16.5968876,6 16.0301688,6 L16.0301688,6 Z" id="Path"></path>
                </g>
                <g id="Group-2" transform="translate(8.5282, 14) scale(-1, 1) translate(-8.5282, -14)translate(0, 7)">
                    <path d="M0.882659664,4.07050324 C0.931075956,4.07043812 0.979404519,4.06637769 1.02715453,4.05836316 L15.0330522,1.75882964 C15.344776,1.70768644 15.605569,1.49392478 15.7171929,1.1980666 C15.8288169,0.902208417 15.7742484,0.569201621 15.5742138,0.324486648 C15.3741139,0.0797716751 15.0588176,-0.0394734468 14.7470938,0.0116697667 L0.741196156,2.31120328 C0.288402195,2.38703123 -0.0310967139,2.79720974 0.00576421324,3.2553642 C0.0426251404,3.71351865 0.423581043,4.06720577 0.882659664,4.06949156 L0.882659664,4.07050324 Z" id="Path"></path>
                    <path d="M15.0330522,12.240699 L1.02715453,9.94116546 C0.715430762,9.89002225 0.400134438,10.0092674 0.200034636,10.2539823 C4.54747351e-13,10.4986973 -0.0545685252,10.8317041 0.0570554466,11.1275623 C0.168679419,11.4234205 0.429472384,11.6371821 0.741196156,11.6883253 L14.7470938,13.9878589 C14.978466,14.0266874 15.2157511,13.9715319 15.4063704,13.834614 C15.5969898,13.6976961 15.7252029,13.4903219 15.7625997,13.2584424 C15.8005249,13.0267539 15.7449674,12.7894711 15.6081499,12.5987958 C15.4713324,12.4081205 15.2644628,12.2796726 15.0330522,12.2417107 L15.0330522,12.240699 Z" id="Path"></path>
                    <path d="M16.0301688,6 L11.0824389,6 L11.0824389,6 C10.5157202,6 10.0563039,6.44771525 10.0563039,7 C10.0563039,7.55228475 10.5157202,8 11.0824389,8 L16.0301688,8 C16.5968876,8 17.0563039,7.55228475 17.0563039,7 C17.0563039,6.44771525 16.5968876,6 16.0301688,6 L16.0301688,6 Z" id="Path"></path>
                </g>
            </g>
        </g>
    </g>
</svg>