<?xml version="1.0" encoding="UTF-8"?>
<svg width="67px" height="78px" viewBox="0 0 67 78" version="1.1" xmlns="http://www.w3.org/2000/svg" xmlns:xlink="http://www.w3.org/1999/xlink">
    <title>Group 3</title>
    <g id="Travel" stroke="none" stroke-width="1" fill="none" fill-rule="evenodd">
        <g id="Group-3" transform="translate(0.9437, 0)">
            <g id="Group" transform="translate(0, 0)" fill="#000000" fill-rule="nonzero">
                <path d="M32.5618968,0 C33.1319547,0 33.5940779,0.466405592 33.594078,1.04174608 L33.594078,3.70623513 C36.3887482,4.16798596 38.5586977,6.41453351 38.9449051,9.2459436 L40.9927526,9.2459436 C41.5628105,9.2459436 42.0249337,9.71234925 42.0249337,10.2876898 C42.0249337,10.8630303 41.5628105,11.3294359 40.9927526,11.3294359 L39.0097851,11.3294359 L39.0097851,17.3025108 L40.9927526,17.3025108 C41.2586825,17.3025108 41.5137207,17.40913 41.7017616,17.5989135 C41.8898025,17.7886969 41.9954428,18.0460985 41.9954428,18.3144928 L41.9954428,22.7922155 C41.9954428,23.0606098 41.8898025,23.3180114 41.7017616,23.5077948 C41.5137207,23.6975782 41.2586825,23.8041975 40.9927526,23.8041975 L39.0616891,23.8041975 L41.1036383,65.0502022 L43.7766926,65.0502022 C44.3467505,65.0502022 44.8088738,65.5166079 44.8088738,66.0919484 L44.8088738,74.8259483 L44.876113,74.7938029 C47.4383725,73.5842691 50.4002556,73.5842691 52.9625151,74.7938029 L53.827188,75.2069297 C55.8310218,76.1509741 58.1462011,76.1509741 60.1500349,75.2069297 L60.5806019,75.0009616 C60.8288206,74.8841174 61.112765,74.8692255 61.3707177,74.9619658 C61.6286704,75.054706 61.8393387,75.2474231 61.956057,75.4974281 C62.0738614,75.7468052 62.0884464,76.0332574 61.9965902,76.2935083 C61.904734,76.5537593 61.7139955,76.7663927 61.4665082,76.8844387 L61.0347616,77.0915973 C59.7666533,77.697596 58.3782222,78 56.9886115,78 C55.5990007,78 54.2105696,77.697596 52.9448206,77.0927879 L52.0801477,76.6796611 C50.0760613,75.7367663 47.7613871,75.7367663 45.7573008,76.6796611 L44.8914483,77.0927879 C43.6245196,77.697596 42.2349089,78 40.8464777,78 C39.4580466,78 38.0684359,77.697596 36.8026869,77.0927879 L35.938014,76.6796611 C33.9341802,75.7356167 31.6190008,75.7356167 29.6151671,76.6796611 L28.7516738,77.0915973 C27.4847452,77.6964054 26.096314,77.9988094 24.7067033,77.9988094 C23.3170925,77.9988094 21.9286614,77.6964054 20.6629124,77.0915973 L19.7982395,76.6784706 C17.7940023,75.7343845 15.4784502,75.7343845 13.474213,76.6784706 L12.6095401,77.0915973 C11.3426114,77.6964054 9.95418033,77.9976189 8.56456958,77.9976189 C7.17495883,77.9976189 5.78652771,77.6964054 4.5207787,77.0915973 L3.6561058,76.6784706 C3.319154,76.5215811 3.09157795,76.1942178 3.06004717,75.8210528 C3.02851639,75.4478879 3.1978842,75.08636 3.50364896,74.8741527 C3.80941373,74.6619455 4.20451114,74.6317223 4.53847324,74.7949935 L5.40314614,75.2081203 C7.4069799,76.1521647 9.72215926,76.1521647 11.725993,75.2081203 L12.1577397,74.999771 L12.5918456,74.7949935 C15.0042004,73.6425246 17.8577389,73.6020453 20.3125606,74.6449821 L20.3125606,66.0919484 C20.3125606,65.5166079 20.7746839,65.0502022 21.3447418,65.0502022 L24.0177961,65.0502022 L26.060925,23.8041975 L24.1298615,23.8041975 C23.5766124,23.8041975 23.1271712,23.3505914 23.1271712,22.7922155 L23.1271712,18.3144928 C23.1271712,17.7555906 23.5760909,17.3025108 24.1298615,17.3025108 L26.1128289,17.3025108 L26.1128289,11.3294359 L24.1298615,11.3294359 C23.5598036,11.3294359 23.0976803,10.8630303 23.0976803,10.2876898 C23.0976803,9.71234925 23.5598036,9.2459436 24.1298615,9.2459436 L26.1788885,9.2459436 C26.565096,6.41453351 28.7350455,4.16798596 31.5297157,3.70623513 L31.5297157,1.04174608 C31.5297157,0.466405592 31.991839,0 32.5618968,0 Z M42.7445114,67.132504 L22.3781026,67.132504 L22.3781026,75.5367168 C24.1834471,76.13331 26.1459875,76.0149941 27.8681267,75.2057391 L28.2998734,74.9973899 L28.7351589,74.7926124 C31.2974184,73.5830785 34.2593016,73.5830785 36.821561,74.7926124 L37.6862339,75.2057391 C39.2683651,75.9476308 41.0577674,76.1076761 42.7445114,75.6581546 L42.7445114,67.132504 Z M38.6039904,56.3078684 L26.5198032,56.3078684 L26.086877,65.0490117 L39.0369167,65.0490117 L38.6039904,56.3078684 Z M38.0672562,45.4832328 L27.0541782,45.4832328 L26.6212519,54.2255666 L38.5001825,54.2255666 L38.0672562,45.4832328 Z M37.530522,34.6585972 L27.5897327,34.6585972 L27.1568065,43.3997405 L37.9634483,43.3997405 L37.530522,34.6585972 Z M36.9937878,23.8030069 L28.1276466,23.8030069 L27.6935407,32.5739143 L37.4278937,32.5739143 L36.9937878,23.8030069 Z M39.9900623,19.3252842 L36.4240238,19.3252842 L36.4240238,21.7790429 L39.9900623,21.7790429 L39.9900623,19.3252842 Z M34.4186433,19.3252842 L30.7039707,19.3252842 L30.7039707,21.7790429 L34.4186433,21.7790429 L34.4186433,19.3252842 Z M28.6985902,19.3252842 L25.1325518,19.3252842 L25.1325518,21.7790429 L28.6985902,21.7790429 L28.6985902,19.3252842 Z M49.9103226,16.929886 L50.0271545,16.9411655 L64.0330522,19.240699 C64.2644628,19.2796726 64.4713324,19.4081205 64.6081499,19.5987958 C64.7449674,19.7894711 64.8005249,20.0267539 64.7625997,20.2584424 C64.7252029,20.4903219 64.5969898,20.6976961 64.4063704,20.834614 C64.2157511,20.9715319 63.978466,21.0266874 63.7470938,20.9878589 L49.7411962,18.6883253 C49.4294724,18.6371821 49.1686794,18.4234205 49.0570554,18.1275623 C48.9454315,17.8317041 49.0000151,17.4986973 49.2000346,17.2539823 C49.375122,17.0398567 49.6384066,16.921794 49.9103226,16.929886 Z M16.8562692,17.2539823 C17.0562887,17.4986973 17.1108724,17.8317041 16.9992484,18.1275623 C16.8876244,18.4234205 16.6268315,18.6371821 16.3151077,18.6883253 L2.30921001,20.9878589 C2.07783789,21.0266874 1.84055279,20.9715319 1.64993341,20.834614 C1.45931403,20.6976961 1.33110092,20.4903219 1.29370412,20.2584424 C1.255779,20.0267539 1.31133648,19.7894711 1.44815399,19.5987958 C1.58497149,19.4081205 1.79184107,19.2796726 2.02325163,19.2417107 L16.0291493,16.9411655 C16.3408731,16.8900223 16.6561694,17.0092674 16.8562692,17.2539823 Z M36.9454228,11.3282454 L28.1771913,11.3282454 L28.1771913,17.3013202 L36.9454228,17.3013202 L36.9454228,11.3282454 Z M65.0301688,13 C65.5968876,13 66.0563039,13.4477153 66.0563039,14 C66.0563039,14.5522847 65.5968876,15 65.0301688,15 L60.0824389,15 C59.5157202,15 59.0563039,14.5522847 59.0563039,14 C59.0563039,13.4477153 59.5157202,13 60.0824389,13 L65.0301688,13 Z M5.97386497,13 C6.5405837,13 7,13.4477153 7,14 C7,14.5522847 6.5405837,15 5.97386497,15 L1.02613503,15 C0.459416302,15 0,14.5522847 0,14 C0,13.4477153 0.459416302,13 1.02613503,13 L5.97386497,13 Z M63.7470938,7.01166977 C64.0588176,6.96052655 64.3741139,7.07977168 64.5742138,7.32448665 C64.7742333,7.56920162 64.8288169,7.90220842 64.7171929,8.1980666 C64.605569,8.49392478 64.344776,8.70768644 64.0330522,8.75882964 L50.0271545,11.0583632 C49.9794045,11.0663777 49.931076,11.0704381 49.8826597,11.0705032 C49.423581,11.0672058 49.0426251,10.7135187 49.0057642,10.2553642 C48.9689033,9.79720974 49.2884022,9.38703123 49.7411962,9.31120328 L63.7470938,7.01166977 Z M2.30921001,7.01166977 L16.3151077,9.31120328 C16.7679017,9.38703123 17.0874006,9.79720974 17.0505396,10.2553642 C17.0136787,10.7135187 16.6327228,11.0672058 16.1736442,11.0694916 C16.1252279,11.0704381 16.0768993,11.0663777 16.0291493,11.0583632 L2.02325163,8.75882964 C1.71152786,8.70768644 1.45073489,8.49392478 1.33911092,8.1980666 C1.22748694,7.90220842 1.28207059,7.56920162 1.48209011,7.32448665 C1.68218991,7.07977168 1.99748624,6.96052655 2.30921001,7.01166977 Z M32.5607172,5.69686323 C30.4757603,5.70031519 28.6805774,7.1828026 28.2644843,9.24475303 L36.8569501,9.24475303 C36.455205,7.25390434 34.76784,5.80324472 32.7753241,5.70245944 L32.5607172,5.69686323 Z" id="Shape"></path>
            </g>
            <g id="Group-2" transform="translate(49, 7)"></g>
            <g id="Group-2" transform="translate(8.5282, 14) scale(-1, 1) translate(-8.5282, -14)translate(0, 7)"></g>
        </g>
    </g>
</svg>