<?xml version="1.0" encoding="UTF-8"?>
<svg width="24px" height="24px" viewBox="0 0 24 24" version="1.1" xmlns="http://www.w3.org/2000/svg" xmlns:xlink="http://www.w3.org/1999/xlink">
    <title>lighthouse</title>
    <g id="lighthouse" stroke="none" stroke-width="1" fill="none" fill-rule="evenodd">
        <path d="M13.7888544,1.89442719 L15.3416408,2.67082039 C16.3579929,3.17899644 17,4.21778579 17,5.35410197 L17,8 C17.5522847,8 18,8.44771525 18,9 C18,9.49677699 17.6377581,9.90894784 17.163006,9.98678073 L18.8477822,20.999833 L19,21 C19.5522847,21 20,21.4477153 20,22 C20,22.5522847 19.5522847,23 19,23 L5,23 C4.44771525,23 4,22.5522847 4,22 C4,21.4477153 4.44771525,21 5,21 L5.14278222,20.999833 L6.83699399,9.98678073 C6.36224194,9.90894784 6,9.49677699 6,9 C6,8.44771525 6.44771525,8 7,8 L7,4.73606798 C7,3.97852386 7.42800475,3.28599762 8.10557281,2.9472136 L10.2111456,1.89442719 C11.3372556,1.33137221 12.6627444,1.33137221 13.7888544,1.89442719 Z M15.153,10 L8.858,10 L7.16578222,20.999833 L16.8347822,20.999833 L15.153,10 Z M19.7679492,6.1339746 L23.2320508,8.1339746 C23.7103434,8.41011697 23.8742186,9.02170738 23.5980762,9.5 C23.3219338,9.97829262 22.7103434,10.1421678 22.2320508,9.8660254 L18.7679492,7.8660254 C18.2896566,7.58988303 18.1257814,6.97829262 18.4019238,6.5 C18.6780662,6.02170738 19.2896566,5.85783222 19.7679492,6.1339746 Z M5.59807621,6.5 C5.87421859,6.97829262 5.71034343,7.58988303 5.23205081,7.8660254 L1.76794919,9.8660254 C1.28965657,10.1421678 0.678066164,9.97829262 0.401923789,9.5 C0.125781414,9.02170738 0.289656569,8.41011697 0.767949192,8.1339746 L4.23205081,6.1339746 C4.71034343,5.85783222 5.32193384,6.02170738 5.59807621,6.5 Z M10.8906707,3.73930641 L9.44300139,4.70409771 C9.16551492,4.88902704 8.99846639,5.2001048 8.99757716,5.53356665 L8.991,8 L15,8 L15,5.53518376 C15,5.20083057 14.8328989,4.88859924 14.5547002,4.70313346 L13.1092155,3.73947703 C12.4375099,3.29167324 11.5624453,3.29160594 10.8906707,3.73930641 Z M23.5980762,0.5 C23.8742186,0.978292623 23.7103434,1.58988303 23.2320508,1.8660254 L19.7679492,3.8660254 C19.2896566,4.14216778 18.6780662,3.97829262 18.4019238,3.5 C18.1257814,3.02170738 18.2896566,2.41011697 18.7679492,2.1339746 L22.2320508,0.133974596 C22.7103434,-0.142167779 23.3219338,0.0217073766 23.5980762,0.5 Z M1.76794919,0.133974596 L5.23205081,2.1339746 C5.71034343,2.41011697 5.87421859,3.02170738 5.59807621,3.5 C5.32193384,3.97829262 4.71034343,4.14216778 4.23205081,3.8660254 L0.767949192,1.8660254 C0.289656569,1.58988303 0.125781414,0.978292623 0.401923789,0.5 C0.678066164,0.0217073766 1.28965657,-0.142167779 1.76794919,0.133974596 Z" id="Shape" fill="#0D0E10" fill-rule="nonzero"></path>
    </g>
</svg>