<?xml version="1.0" encoding="UTF-8"?>
<svg width="24px" height="24px" viewBox="0 0 24 24" version="1.1" xmlns="http://www.w3.org/2000/svg" xmlns:xlink="http://www.w3.org/1999/xlink">
    <title>lightbulb</title>
    <g id="lightbulb" stroke="none" stroke-width="1" fill="none" fill-rule="evenodd">
        <path d="M19,13.0582787 C19,14.9458304 18.264481,16.7080113 16.9404757,18.0316343 C16.0146061,18.9154189 15.5,21.0625618 15.5,22.2582787 L15.5,22.5582787 C15.5,23.4105635 14.8522847,24.0582787 14,24.0582787 L10,24.0582787 C9.14771525,24.0582787 8.5,23.4105635 8.5,22.5582787 L8.5,22.4582787 C8.5,21.1817119 7.9497149,18.9160562 6.99289322,17.9153855 C5.67618642,16.5986787 4.94301742,14.7735559 5.00012595,12.8924077 C5.05843575,9.21889038 8.02122736,6.18470621 11.7024349,6.00941061 C15.7154332,5.83492388 19,9.02875682 19,13.0582787 Z M12.0072459,8.00246159 L11.7934372,8.00733491 C9.16705114,8.13240946 7.04137957,10.309302 6.99954118,12.9385679 C6.95890105,14.2796922 7.4780993,15.5721645 8.42264186,16.5170561 C9.5918191,17.7393778 10.3238284,20.260023 10.4720629,21.8564858 L10.4853099,22.0574212 L13.5043099,22.0574212 L13.5068826,21.9666176 C13.5801154,20.4161632 14.2348636,17.951809 15.3320249,16.8111869 L15.5428932,16.601172 C16.4765638,15.6675014 17,14.4134355 17,13.0582787 C17,10.3053439 14.8860251,8.1121194 12.218927,8.00644888 L12.0072459,8.00246159 Z M22.267767,3.23223305 C22.6582912,3.62275734 22.6582912,4.25592232 22.267767,4.64644661 L20.1464466,6.76776695 C19.7559223,7.15829124 19.1227573,7.15829124 18.732233,6.76776695 C18.3417088,6.37724266 18.3417088,5.74407768 18.732233,5.35355339 L20.8535534,3.23223305 C21.2440777,2.84170876 21.8772427,2.84170876 22.267767,3.23223305 Z M3.14644661,3.23223305 L5.26776695,5.35355339 C5.65829124,5.74407768 5.65829124,6.37724266 5.26776695,6.76776695 C4.87724266,7.15829124 4.24407768,7.15829124 3.85355339,6.76776695 L1.73223305,4.64644661 C1.34170876,4.25592232 1.34170876,3.62275734 1.73223305,3.23223305 C2.12275734,2.84170876 2.75592232,2.84170876 3.14644661,3.23223305 Z M12,0 C12.5522847,0 13,0.44771525 13,1 L13,3 C13,3.55228475 12.5522847,4 12,4 C11.4477153,4 11,3.55228475 11,3 L11,1 C11,0.44771525 11.4477153,0 12,0 Z" id="Shape" fill="#0D0E10" fill-rule="nonzero"></path>
    </g>
</svg>