<?xml version="1.0" encoding="UTF-8"?>
<svg width="24px" height="24px" viewBox="0 0 24 24" version="1.1" xmlns="http://www.w3.org/2000/svg" xmlns:xlink="http://www.w3.org/1999/xlink">
    <title>link</title>
    <g id="link" stroke="none" stroke-width="1" fill="none" fill-rule="evenodd">
        <path d="M8.67049513,10.026204 C9.10983496,10.4655438 9.10983496,11.1778544 8.67049513,11.6171943 L6.0188447,14.2688447 C4.99371843,15.293971 4.99371843,16.956029 6.0188447,17.9811553 C7.04397097,19.0062816 8.70602903,19.0062816 9.7311553,17.9811553 L12.3828057,15.3295049 C12.8221456,14.890165 13.5344562,14.890165 13.973796,15.3295049 C14.4131358,15.7688447 14.4131358,16.4811553 13.973796,16.9204951 L11.3221456,19.5721456 C9.41833964,21.4759515 6.33166036,21.4759515 4.42785444,19.5721456 C2.52404852,17.6683396 2.52404852,14.5816604 4.42785444,12.6778544 L7.07950487,10.026204 C7.5188447,9.58686418 8.2311553,9.58686418 8.67049513,10.026204 Z M19.5721456,4.42785444 C21.4759515,6.33166036 21.4759515,9.41833964 19.5721456,11.3221456 L16.9204951,13.973796 C16.4811553,14.4131358 15.7688447,14.4131358 15.3295049,13.973796 C14.890165,13.5344562 14.890165,12.8221456 15.3295049,12.3828057 L17.9811553,9.7311553 C19.0062816,8.70602903 19.0062816,7.04397097 17.9811553,6.0188447 C16.956029,4.99371843 15.293971,4.99371843 14.2688447,6.0188447 L11.6171943,8.67049513 C11.1778544,9.10983496 10.4655438,9.10983496 10.026204,8.67049513 C9.58686418,8.2311553 9.58686418,7.5188447 10.026204,7.07950487 L12.6778544,4.42785444 C14.5816604,2.52404852 17.6683396,2.52404852 19.5721456,4.42785444 Z" id="Shape" fill="#0D0E10" fill-rule="nonzero"></path>
    </g>
</svg>