<?xml version="1.0" encoding="UTF-8"?>
<svg width="24px" height="24px" viewBox="0 0 24 24" version="1.1" xmlns="http://www.w3.org/2000/svg" xmlns:xlink="http://www.w3.org/1999/xlink">
    <title>logo-plus</title>
    <g id="logo-plus" stroke="none" stroke-width="1" fill="none" fill-rule="evenodd">
        <path d="M21.988,11 L16,11 C15.4477153,11 15,11.4477153 15,12 L15.0067277,12.1166211 C15.0644928,12.6139598 15.4871642,13 16,13 L21.988,13 L21.993,12 L21.988,11 Z M16,9 L21.2687385,8.99910254 C21.2048361,8.93033279 21.1369415,8.86481415 21.06525,8.80291602 C20.577,8.38129106 19.9481667,8.15838275 19.3033333,8.17833275 L17.4491667,8.17833275 C16.9953333,8.13139109 16.5749167,7.91809944 16.269,7.57957447 C15.9630833,7.2410495 15.7933333,6.80125788 15.7925,6.34499959 L15.7925,4.64666642 C15.7909167,3.94419148 15.5108333,3.27101655 15.0135,2.77483576 C14.51625,2.27865664 13.8425,2 13.14,2 L10.7991667,2 C10.0966917,2 9.4229,2.27865664 8.925625,2.77483576 C8.42835,3.27101655 8.14820833,3.94419148 8.14666667,4.64666642 L8.14666667,6.34666625 C8.1479,6.79664955 7.98440833,7.2315245 7.68705,7.56926614 C7.38969167,7.90699944 6.97901667,8.12423275 6.5325,8.17999941 L4.6525,8.17999941 C3.950025,8.17999941 3.27623333,8.45865772 2.77895833,8.95483267 C2.28168583,9.45101596 2.00154488,10.1241909 2,10.8266658 L2,13.1733342 C2.00154488,13.8758091 2.28168583,14.548984 2.77895833,15.0451673 C3.27623333,15.5413423 3.950025,15.8200006 4.6525,15.8200006 L6.5325,15.8200006 C6.97901667,15.8757672 7.38969167,16.0930006 7.68705,16.4307339 C7.98440833,16.7684755 8.1479,17.2033505 8.14666667,17.6533337 L8.14666667,19.3533336 C8.14820833,20.0558085 8.42835,20.7289835 8.925625,21.2251642 C9.4229,21.7213434 10.0966917,22 10.7991667,22 L13.14,22 C13.8425,22 14.51625,21.7213434 15.0135,21.2251642 C15.5108333,20.7289835 15.7909167,20.0558085 15.7925,19.3533336 L15.7925,17.6550004 C15.7933333,17.1987421 15.9630833,16.7589505 16.269,16.4204255 C16.5749167,16.0819006 16.9953333,15.8686089 17.4491667,15.8216673 L19.3033333,15.8216673 C19.9481667,15.8416173 20.577,15.6187089 21.06525,15.197084 C21.1369415,15.1351858 21.2048361,15.0696672 21.2687385,15.0008975 L16,15 C14.3431458,15 13,13.6568542 13,12 C13,10.3431458 14.3431458,9 16,9 Z M22,13 L23.2519385,13.0005411 L23.2795342,13.0021635 C23.6683219,13.0326683 23.9587675,13.372572 23.9282628,13.7613596 C23.7947669,14.9139799 23.2400244,15.9617042 22.3722812,16.7109101 L22.18264,16.8660079 C21.409421,17.4645564 20.4642231,17.7996159 19.4865111,17.8217304 L17.792,17.822 L17.7925,19.3533336 C17.7897177,20.5900091 17.2983628,21.7707482 16.426072,22.6410174 C15.5539835,23.5112279 14.3721764,24 13.14,24 L10.7991667,24 C9.56702216,24 8.38519175,23.5112342 7.51297232,22.640937 L7.34363706,22.462813 C6.57740173,21.6129671 6.14919531,20.507729 6.14667148,19.3577228 L6.146,17.821 L4.6525,17.8200006 C3.42035938,17.8200006 2.23853123,17.3312361 1.3663116,16.460946 C0.494081255,15.5906262 0.00271455129,14.4098754 1.0658141e-14,13.1777325 L1.0658141e-14,10.8222675 C0.00271455129,9.59012456 0.494081255,8.40937385 1.3663116,7.53905402 C2.23853123,6.66876387 3.42035938,6.17999941 4.6525,6.17999941 L6.146,6.179 L6.14667148,4.64227718 C6.14919531,3.49227096 6.57740173,2.38703291 7.34363706,1.53718704 L7.51297232,1.35906304 C8.38519175,0.488765779 9.56702216,0 10.7991667,0 L13.14,0 C14.3721764,0 15.5539835,0.488772114 16.426072,1.35898256 C17.2983628,2.22925181 17.7897177,3.40999085 17.7925,4.64666642 L17.792,6.178 L19.2414865,6.17928923 C20.3054959,6.14637067 21.3449861,6.48556459 22.18264,7.13399205 L22.3722812,7.28908989 C23.2400244,8.03829576 23.7947669,9.08602013 23.9282628,10.2386404 C23.9587675,10.627428 23.6683219,10.9673317 23.2795342,10.9978365 L23.2243004,11 L22,11 L22,13 Z" id="Shape" fill="#0D0E10" fill-rule="nonzero"></path>
    </g>
</svg>