<?xml version="1.0" encoding="UTF-8"?>
<svg width="24px" height="24px" viewBox="0 0 24 24" version="1.1" xmlns="http://www.w3.org/2000/svg" xmlns:xlink="http://www.w3.org/1999/xlink">
    <title>logout</title>
    <g id="logout" stroke="none" stroke-width="1" fill="none" fill-rule="evenodd">
        <path d="M13,2 C14.6568542,2 16,3.34314575 16,5 L16,8 C16,8.55228475 15.5522847,9 15,9 C14.4477153,9 14,8.55228475 14,8 L14,5 C14,4.44771525 13.5522847,4 13,4 L4,4 C3.44771525,4 3,4.44771525 3,5 L3,19 C3,19.5522847 3.44771525,20 4,20 L13,20 C13.5522847,20 14,19.5522847 14,19 L14,16 C14,15.4477153 14.4477153,15 15,15 C15.5522847,15 16,15.4477153 16,16 L16,19 C16,20.6568542 14.6568542,22 13,22 L4,22 C2.34314575,22 1,20.6568542 1,19 L1,5 C1,3.34314575 2.34314575,2 4,2 L13,2 Z M20.1341535,8.29289322 L23.0273159,11.2928932 C23.4011511,11.6834175 23.4011511,12.3165825 23.0273159,12.7071068 L20.1341535,15.7071068 C19.7603183,16.0976311 19.1542116,16.0976311 18.7803764,15.7071068 C18.4065412,15.3165825 18.4065412,14.6834175 18.7803764,14.2928932 L20.0402439,12.999205 L7.5,13 C6.94771525,13 6.5,12.5522847 6.5,12 C6.5,11.4477153 6.94771525,11 7.5,11 L20,11 L20.04,11.0015 L18.7803764,9.70710678 C18.4262167,9.3371364 18.4075767,8.74939432 18.7244565,8.3565006 L18.7803764,8.29289322 C19.1542116,7.90236893 19.7603183,7.90236893 20.1341535,8.29289322 Z" id="Shape" fill="#0D0E10" fill-rule="nonzero"></path>
    </g>
</svg>