<?xml version="1.0" encoding="UTF-8"?>
<svg width="24px" height="24px" viewBox="0 0 24 24" version="1.1" xmlns="http://www.w3.org/2000/svg" xmlns:xlink="http://www.w3.org/1999/xlink">
    <title>mail</title>
    <g id="mail" stroke="none" stroke-width="1" fill="none" fill-rule="evenodd">
        <path d="M21,3 C22.6568542,3 24,4.34314575 24,6 L24,18 C24,19.6568542 22.6568542,21 21,21 L3,21 C1.34314575,21 0,19.6568542 0,18 L0,6 C0,4.34314575 1.34314575,3 3,3 L21,3 Z M2,18 C2,18.5522847 2.44771525,19 3,19 L21,19 C21.5522847,19 22,18.5522847 22,18 L22,9.193 L13.5722923,14.3807951 C12.6080713,14.9741619 11.3919287,14.9741619 10.4277077,14.3807951 L2,9.19314627 L2,18 Z M2.00044571,6.84636952 L11.4759026,12.6774785 C11.7973096,12.8752674 12.2026904,12.8752674 12.5240974,12.6774785 L22,6.845 L22,6 C22,5.44771525 21.5522847,5 21,5 L3,5 C2.44771525,5 2,5.44771525 2,6 L2.00044571,6.84636952 Z" id="Shape" fill="#0D0E10" fill-rule="nonzero"></path>
    </g>
</svg>