<?xml version="1.0" encoding="UTF-8"?>
<svg width="24px" height="24px" viewBox="0 0 24 24" version="1.1" xmlns="http://www.w3.org/2000/svg" xmlns:xlink="http://www.w3.org/1999/xlink">
    <title>mobile</title>
    <g id="mobile" stroke="none" stroke-width="1" fill="none" fill-rule="evenodd">
        <path d="M17,0 C18.6568542,0 20,1.34314575 20,3 L20,21 C20,22.6568542 18.6568542,24 17,24 L7,24 C5.34314575,24 4,22.6568542 4,21 L4,3 C4,1.34314575 5.34314575,0 7,0 L17,0 Z M17,2 L7,2 C6.44771525,2 6,2.44771525 6,3 L6,21 C6,21.5522847 6.44771525,22 7,22 L17,22 C17.5522847,22 18,21.5522847 18,21 L18,3 C18,2.44771525 17.5522847,2 17,2 Z M12,18 C12.5522847,18 13,18.4477153 13,19 C13,19.5522847 12.5522847,20 12,20 C11.4477153,20 11,19.5522847 11,19 C11,18.4477153 11.4477153,18 12,18 Z" id="Shape" fill="#0D0E10" fill-rule="nonzero"></path>
    </g>
</svg>