<svg width="16" height="16" viewBox="0 0 16 16" fill="none" xmlns="http://www.w3.org/2000/svg">
<path d="M8.44893 1.65988C8.46825 1.65312 8.4804 1.65081 8.48721 1.65017C8.49613 1.6574 8.51887 1.67929 8.54325 1.7314C8.61551 1.88581 8.61901 2.13261 8.50102 2.32765C7.35889 4.21561 6.97939 6.52688 7.67288 8.72528C8.36712 10.926 9.99129 12.551 11.9971 13.3506C12.1785 13.4229 12.3133 13.6062 12.344 13.7804C12.3582 13.8606 12.3436 13.9028 12.3383 13.9137C12.336 13.9182 12.334 13.9208 12.3306 13.9237C12.3271 13.9268 12.3141 13.9372 12.2828 13.9482C8.70405 15.2009 4.99405 13.4264 3.93713 10.0759C2.87456 6.70752 4.85809 2.91689 8.44893 1.65988ZM8.49424 1.65039C8.49412 1.65057 8.49267 1.65061 8.49023 1.64998C8.49313 1.64989 8.49436 1.65021 8.49424 1.65039Z" fill="#333333" stroke="#333333" stroke-width="1.3"/>
</svg>
