<?xml version="1.0" encoding="UTF-8"?>
<svg width="24px" height="24px" viewBox="0 0 24 24" version="1.1" xmlns="http://www.w3.org/2000/svg" xmlns:xlink="http://www.w3.org/1999/xlink">
    <title>move-in</title>
    <g id="move-in" stroke="none" stroke-width="1" fill="none" fill-rule="evenodd">
        <path d="M21,0 C22.6568542,0 24,1.34314575 24,3 L24,21 C24,22.6568542 22.6568542,24 21,24 L3,24 C1.34314575,24 0,22.6568542 0,21 L0,3 C0,1.34314575 1.34314575,0 3,0 L21,0 Z M6,2 L3,2 C2.44771525,2 2,2.44771525 2,3 L2,21 C2,21.5522847 2.44771525,22 3,22 L6,22 L6,2 Z M21,2 L8,2 L8,22 L21,22 C21.5522847,22 22,21.5522847 22,21 L22,3 C22,2.44771525 21.5522847,2 21,2 Z M14.5273159,8.29289322 C14.9011511,8.68341751 14.9011511,9.31658249 14.5273159,9.70710678 L13.2674484,11.000795 L18.8076923,11 C19.3599771,11 19.8076923,11.4477153 19.8076923,12 C19.8076923,12.5522847 19.3599771,13 18.8076923,13 L13.2676923,12.9985 L14.5273159,14.2928932 C14.8814756,14.6628636 14.9001156,15.2506057 14.5832358,15.6434994 L14.5273159,15.7071068 C14.1534807,16.0976311 13.547374,16.0976311 13.1735388,15.7071068 L10.2803764,12.7071068 C9.9065412,12.3165825 9.9065412,11.6834175 10.2803764,11.2928932 L13.1735388,8.29289322 C13.547374,7.90236893 14.1534807,7.90236893 14.5273159,8.29289322 Z" id="Shape" fill="#0D0E10" fill-rule="nonzero"></path>
    </g>
</svg>