<?xml version="1.0" encoding="UTF-8"?>
<svg width="24px" height="24px" viewBox="0 0 24 24" version="1.1" xmlns="http://www.w3.org/2000/svg" xmlns:xlink="http://www.w3.org/1999/xlink">
    <title>move</title>
    <g id="move" stroke="none" stroke-width="1" fill="none" fill-rule="evenodd">
        <path d="M11,12.9986923 L4.268,13 L5.52731589,14.2928932 C5.87239456,14.6533772 5.89893907,15.2206082 5.60694943,15.6128994 L5.52731589,15.7071068 C5.15348067,16.0976311 4.54737403,16.0976311 4.17353881,15.7071068 L1.28037641,12.7071068 C0.906541195,12.3165825 0.906541195,11.6834175 1.28037641,11.2928932 L4.17353881,8.29289322 C4.54737403,7.90236893 5.15348067,7.90236893 5.52731589,8.29289322 L5.58323584,8.3565006 C5.90011556,8.74939432 5.88147557,9.3371364 5.52731589,9.70710678 L4.268,11 L10.999,10.9996923 L10.999,4.10969231 L9.70710678,5.37896272 C9.3371364,5.73656085 8.74939432,5.7553818 8.3565006,5.43542559 L8.29289322,5.37896272 C7.90236893,5.00149804 7.90236893,4.38950686 8.29289322,4.01204217 L11.2928932,1.09079082 C11.6834175,0.713326136 12.3165825,0.713326136 12.7071068,1.09079082 L15.7071068,4.01204217 C16.0976311,4.38950686 16.0976311,5.00149804 15.7071068,5.37896272 C15.3165825,5.75642741 14.6834175,5.75642741 14.2928932,5.37896272 L12.999205,4.10686352 L12.999,10.9996923 L19.538,11 L18.2803764,9.70710678 C17.9262167,9.3371364 17.9075767,8.74939432 18.2244565,8.3565006 L18.2803764,8.29289322 C18.6542116,7.90236893 19.2603183,7.90236893 19.6341535,8.29289322 L22.5273159,11.2928932 C22.9011511,11.6834175 22.9011511,12.3165825 22.5273159,12.7071068 L19.6341535,15.7071068 C19.2603183,16.0976311 18.6542116,16.0976311 18.2803764,15.7071068 C17.9065412,15.3165825 17.9065412,14.6834175 18.2803764,14.2928932 L19.539,13 L13,12.9986923 L13,19.5076923 L14.2928932,18.2364219 C14.6533772,17.8879929 15.2206082,17.8611907 15.6128994,18.1560152 L15.7071068,18.2364219 C16.0976311,18.6138866 16.0976311,19.2258778 15.7071068,19.6033424 L12.7071068,22.5245938 C12.3165825,22.9020585 11.6834175,22.9020585 11.2928932,22.5245938 L8.29289322,19.6033424 C7.90236893,19.2258778 7.90236893,18.6138866 8.29289322,18.2364219 L8.3565006,18.179959 C8.74939432,17.8600028 9.3371364,17.8788238 9.70710678,18.2364219 L11,19.5076923 L11,12.9986923 Z" id="Path" fill="#0D0E10" fill-rule="nonzero"></path>
    </g>
</svg>