<?xml version="1.0" encoding="UTF-8"?>
<svg width="24px" height="24px" viewBox="0 0 24 24" version="1.1" xmlns="http://www.w3.org/2000/svg" xmlns:xlink="http://www.w3.org/1999/xlink">
    <title>move-out</title>
    <g id="move-out" stroke="none" stroke-width="1" fill="none" fill-rule="evenodd">
        <path d="M21,0 C22.6568542,0 24,1.34314575 24,3 L24,21 C24,22.6568542 22.6568542,24 21,24 L3,24 C1.34314575,24 0,22.6568542 0,21 L0,3 C0,1.34314575 1.34314575,0 3,0 L21,0 Z M16,2 L3,2 C2.44771525,2 2,2.44771525 2,3 L2,21 C2,21.5522847 2.44771525,22 3,22 L16,22 L16,2 Z M21,2 L18,2 L18,22 L21,22 C21.5522847,22 22,21.5522847 22,21 L22,3 C22,2.44771525 21.5522847,2 21,2 Z M10.6341535,8.29289322 L13.5273159,11.2928932 C13.9011511,11.6834175 13.9011511,12.3165825 13.5273159,12.7071068 L10.6341535,15.7071068 C10.2603183,16.0976311 9.65421163,16.0976311 9.28037641,15.7071068 C8.9065412,15.3165825 8.9065412,14.6834175 9.28037641,14.2928932 L10.5402439,12.999205 L5,13 C4.44771525,13 4,12.5522847 4,12 C4,11.4477153 4.44771525,11 5,11 L10.5,11 L10.54,11.0015 L9.28037641,9.70710678 C8.92621673,9.3371364 8.90757675,8.74939432 9.22445646,8.3565006 L9.28037641,8.29289322 C9.65421163,7.90236893 10.2603183,7.90236893 10.6341535,8.29289322 Z" id="Shape" fill="#0D0E10" fill-rule="nonzero"></path>
    </g>
</svg>