<?xml version="1.0" encoding="UTF-8"?>
<svg width="24px" height="24px" viewBox="0 0 24 24" version="1.1" xmlns="http://www.w3.org/2000/svg" xmlns:xlink="http://www.w3.org/1999/xlink">
    <title>movie-theatre</title>
    <g id="movie-theatre" stroke="none" stroke-width="1" fill="none" fill-rule="evenodd">
        <path d="M22.9761012,4.75709676 C22.9920178,4.88244033 23,5.00866425 23,5.13501437 L23,18.8649856 C23,20.5218399 21.6568542,21.8649856 20,21.8649856 C19.8736499,21.8649856 19.747426,21.8570035 19.6220824,21.8410868 L3.62208239,19.8093408 C2.12337967,19.6190293 1,18.3439773 1,16.8332396 L1,7.1667604 C1,5.65602273 2.12337967,4.38097067 3.62208239,4.19065921 L19.6220824,2.15891318 C21.2657377,1.95019505 22.7673831,3.11344146 22.9761012,4.75709676 Z M19.9905671,4.13490663 L19.8740275,4.14298064 L3.87402746,6.17472667 C3.37445989,6.23816382 3,6.66318118 3,7.1667604 L3,16.8332396 C3,17.3368188 3.37445989,17.7618362 3.87402746,17.8252733 L19.8740275,19.8570194 C19.9158087,19.8623249 19.9578833,19.8649856 20,19.8649856 C20.5522847,19.8649856 21,19.4172704 21,18.8649856 L21,5.13501437 C21,5.09289766 20.9973393,5.05082302 20.9920337,5.00904183 C20.9324,4.53942603 20.556131,4.18746139 20.1048187,4.14029661 L19.9905671,4.13490663 Z M11.5,10.309017 C11.5776225,10.309017 11.6541791,10.3270895 11.7236068,10.3618034 L14.1055728,11.5527864 C14.3525621,11.676281 14.4526742,11.9766175 14.3291796,12.2236068 C14.2807978,12.3203705 14.2023365,12.3988317 14.1055728,12.4472136 L11.7236068,13.6381966 C11.4766175,13.7616912 11.176281,13.6615791 11.0527864,13.4145898 C11.0180725,13.3451621 11,13.2686056 11,13.190983 L11,10.809017 C11,10.5328746 11.2238576,10.309017 11.5,10.309017 Z" id="Shape" fill="#0D0E10" fill-rule="nonzero"></path>
    </g>
</svg>