<?xml version="1.0" encoding="UTF-8"?>
<svg width="24px" height="24px" viewBox="0 0 24 24" version="1.1" xmlns="http://www.w3.org/2000/svg" xmlns:xlink="http://www.w3.org/1999/xlink">
    <title>overview</title>
    <g id="overview" stroke="none" stroke-width="1" fill="none" fill-rule="evenodd">
        <path d="M5,24 C3.34314575,24 2,22.6568542 2,21 L2,4 C2,1.790861 3.790861,0 6,0 L20,0 C21.1045695,0 22,0.8954305 22,2 L22,19 L21.5,19 C20.6715729,19 20,19.6715729 20,20.5 C20,21.3284271 20.6715729,22 21.5,22 L22,22 L22,23 C22,23.5522847 21.5522847,24 21,24 L5,24 Z M18.3368314,18.9999667 L5.5,19 C4.67157288,19 4,19.6715729 4,20.5 C4,21.3284271 4.67157288,22 5.5,22 L18.3373087,22.0010375 C18.1210295,21.5461461 18,21.037207 18,20.5 C18,19.9631883 18.1208514,19.4546029 18.3368314,18.9999667 Z M20,2 L6,2 C4.8954305,2 3.99996673,2.8954305 3.99996673,4 L3.99996673,17.3368314 C4.45460288,17.1208514 4.96318826,17 5.5,17 L20,17 L20,2 Z M12,5 C12.5522847,5 13,5.44771525 13,6 C13,6.55228475 12.5522847,7 12,7 L7,7 C6.44771525,7 6,6.55228475 6,6 C6,5.44771525 6.44771525,5 7,5 L12,5 Z" id="Shape" fill="#0D0E10" fill-rule="nonzero"></path>
    </g>
</svg>