<?xml version="1.0" encoding="UTF-8"?>
<svg width="24px" height="24px" viewBox="0 0 24 24" version="1.1" xmlns="http://www.w3.org/2000/svg" xmlns:xlink="http://www.w3.org/1999/xlink">
    <title>parking</title>
    <g id="parking" stroke="none" stroke-width="1" fill="none" fill-rule="evenodd">
        <path d="M13.6463011,0.491012283 L21.632234,5.71628157 C22.4854946,6.27457783 23,7.22755809 23,8.24969335 L23,20.9755759 C23,22.6459192 21.6505562,24 19.9859329,24 L4.01406709,24 C2.3494438,24 1,22.6459192 1,20.9755759 L1,8.24969335 C1,7.22755809 1.51450538,6.27457783 2.367766,5.71628157 L10.3536989,0.491012283 C11.3542703,-0.163670761 12.6457297,-0.163670761 13.6463011,0.491012283 Z M11.4506606,2.1639377 L3.45639757,7.39772901 C3.17168069,7.58413128 3,7.90230945 3,8.24357688 L3,20.9902144 C3,21.5479036 3.4502838,22 4.00573702,22 L19.994263,22 C20.5497162,22 21,21.5479036 21,20.9902144 L21,8.24357688 C21,7.90230945 20.8283193,7.58413128 20.5436024,7.39772901 L12.5493394,2.1639377 C12.2154678,1.9453541 11.7845322,1.9453541 11.4506606,2.1639377 Z M13.48,9 C15.342,9 16.7,10.344 16.7,12.094 C16.7,13.844 15.342,15.216 13.48,15.216 L10.988,15.216 L10.988,18.52 L9,18.52 L9,9 L13.48,9 Z M13.186,10.722 L10.988,10.722 L10.988,13.494 L13.186,13.494 C13.97,13.494 14.712,13.102 14.712,12.108 C14.712,11.128 13.97,10.722 13.186,10.722 Z" id="Shape" fill="#0D0E10" fill-rule="nonzero"></path>
    </g>
</svg>