<?xml version="1.0" encoding="UTF-8"?>
<svg width="24px" height="24px" viewBox="0 0 24 24" version="1.1" xmlns="http://www.w3.org/2000/svg" xmlns:xlink="http://www.w3.org/1999/xlink">
    <title>percentage</title>
    <g id="percentage" stroke="none" stroke-width="1" fill="none" fill-rule="evenodd">
        <path d="M20.631728,3.86827202 C21.0222523,4.25879631 21.0222523,4.89196129 20.631728,5.28248558 L5.0753788,20.8388348 C4.68485451,21.2293591 4.05168953,21.2293591 3.66116524,20.8388348 C3.27064094,20.4483105 3.27064094,19.8151455 3.66116524,19.4246212 L19.2175144,3.86827202 C19.6080387,3.47774772 20.2412037,3.47774772 20.631728,3.86827202 Z M18,14 C19.6568542,14 21,15.3431458 21,17 C21,18.6568542 19.6568542,20 18,20 C16.3431458,20 15,18.6568542 15,17 C15,15.3431458 16.3431458,14 18,14 Z M18,16 C17.4477153,16 17,16.4477153 17,17 C17,17.5522847 17.4477153,18 18,18 C18.5522847,18 19,17.5522847 19,17 C19,16.4871642 18.6139598,16.0644928 18.1166211,16.0067277 L18,16 Z M7,4 C8.65685425,4 10,5.34314575 10,7 C10,8.65685425 8.65685425,10 7,10 C5.34314575,10 4,8.65685425 4,7 C4,5.34314575 5.34314575,4 7,4 Z M7,6 C6.44771525,6 6,6.44771525 6,7 C6,7.55228475 6.44771525,8 7,8 C7.55228475,8 8,7.55228475 8,7 C8,6.48716416 7.61395981,6.06449284 7.11662113,6.00672773 L7,6 Z" id="Shape" fill="#0D0E10" fill-rule="nonzero"></path>
    </g>
</svg>