<?xml version="1.0" encoding="UTF-8"?>
<svg width="24px" height="24px" viewBox="0 0 24 24" version="1.1" xmlns="http://www.w3.org/2000/svg" xmlns:xlink="http://www.w3.org/1999/xlink">
    <title>performance</title>
    <g id="performance" stroke="none" stroke-width="1" fill="none" fill-rule="evenodd">
        <path d="M12,0 C18.627417,0 24,5.372583 24,12 C24,18.627417 18.627417,24 12,24 C5.372583,24 0,18.627417 0,12 C0,5.372583 5.372583,0 12,0 Z M12,2 C6.4771525,2 2,6.4771525 2,12 C2,17.5228475 6.4771525,22 12,22 C17.5228475,22 22,17.5228475 22,12 C22,6.4771525 17.5228475,2 12,2 Z M19.6650635,7.75 C19.9412059,8.22829262 19.7773307,8.83988303 19.2990381,9.1160254 L14.9752633,11.6129564 C14.9915842,11.739665 15,11.8688497 15,12 C15,13.6568542 13.6568542,15 12,15 C10.3431458,15 9,13.6568542 9,12 C9,10.3431458 10.3431458,9 12,9 C12.801306,9 13.5292359,9.31416031 14.0673391,9.82603022 L18.2990381,7.3839746 C18.7773307,7.10783222 19.3889211,7.27170738 19.6650635,7.75 Z M12,4 C12.5522847,4 13,4.44771525 13,5 C13,5.55228475 12.5522847,6 12,6 C8.6862915,6 6,8.6862915 6,12 C6,12.5522847 5.55228475,13 5,13 C4.44771525,13 4,12.5522847 4,12 C4,7.581722 7.581722,4 12,4 Z M12,11 C11.4477153,11 11,11.4477153 11,12 C11,12.5522847 11.4477153,13 12,13 C12.5522847,13 13,12.5522847 13,12 C13,11.4871642 12.6139598,11.0644928 12.1166211,11.0067277 L12,11 Z" id="Shape" fill="#0D0E10" fill-rule="nonzero"></path>
    </g>
</svg>