<?xml version="1.0" encoding="UTF-8"?>
<svg width="24px" height="24px" viewBox="0 0 24 24" version="1.1" xmlns="http://www.w3.org/2000/svg" xmlns:xlink="http://www.w3.org/1999/xlink">
    <title>pets</title>
    <g id="pets" stroke="none" stroke-width="1" fill="none" fill-rule="evenodd">
        <g id="Icon-micro-info-pets" transform="translate(2, 1)" fill="#0D0E10" fill-rule="nonzero">
            <path d="M15.4729937,0.292791853 L14.4705265,1.28281011 C14.4640184,1.28871035 14.4576045,1.2947112 14.4512873,1.30081044 L11.0044202,4.70687325 L10.9031609,4.79387486 C10.7267185,4.92728869 10.5107365,4.99967712 10.2885169,4.99987865 L3.45699298,4.99987865 L1.72849649,3.29284718 L1.63331273,3.20984565 C1.21093064,2.88730499 0.607533912,2.94407119 0.254412821,3.33956943 C-0.0987082694,3.73506767 -0.0802081707,4.33339003 0.29668979,4.70687325 L2.02518628,6.41390473 L2.02518628,11.5859817 L0.890069369,12.7070023 L0.752356702,12.852005 C0.267436234,13.3989098 0,14.1010967 0,14.8280415 L0,21.0001368 L0.00708815197,21.117139 C0.0703659327,21.6425391 0.537100498,22.0283352 1.07193635,21.9973273 C1.6067722,21.9663194 2.02459203,21.52924 2.02518628,21.0001368 L2.02518628,14.8280415 L2.03429962,14.697039 C2.06342487,14.4790324 2.16449807,14.2765846 2.32187607,14.1210284 L3.45699298,13 L3.57850415,12.8700053 C3.88350259,12.5099496 4.05054027,12.0554154 4.05037256,11.5859817 L4.05037256,6.99991554 L10.2875043,6.99991554 L10.4879977,6.99291541 C11.2226239,6.94488016 11.914587,6.63500042 12.4352143,6.12089933 L15.2512358,3.33984804 L18.7224051,6.08189861 L18.3831864,6.41890482 L18.2880027,6.50190635 C18.0205535,6.70666946 17.6672082,6.76595469 17.346291,6.65990927 L16.4572343,6.36790388 L16.3053453,6.32390307 C15.2794619,6.07189439 14.2298852,6.64155735 13.8953736,7.63192719 L13.2412385,10.5949634 C13.1715748,10.8881342 13.1698441,11.1930562 13.2361755,11.4869798 L13.5764068,13 L6.2578256,13 L6.09176033,13.0070079 L5.92569505,13.0270082 C5.39580287,13.1142059 4.92270099,13.4057485 4.61049699,13.8374813 C4.29829299,14.269214 4.17256934,14.80576 4.26099193,15.3290507 L5.077142,21.1641399 L5.10245683,21.278142 C5.25167678,21.7866781 5.77639401,22.0922195 6.29920719,21.9750065 C6.82202037,21.8577935 7.16171893,21.3584528 7.07397567,20.8361338 L6.2578256,15.0000446 L14.0259981,15.0000446 L15.2006062,21.2171408 L15.2330092,21.3291429 C15.4110065,21.8271647 15.9504588,22.1026342 16.4648405,21.9581734 C16.9792222,21.8137126 17.2911784,21.2991306 17.177188,20.7831328 L15.2127573,11.0529718 L15.8172754,8.26493886 L16.7063322,8.55794427 L16.8997375,8.61494532 C17.9434702,8.88412662 19.0534634,8.58647544 19.8160057,7.8329309 L20.5551987,7.10291744 L20.6594958,6.98791532 C21.1507311,6.39138181 21.1056889,5.52461397 20.5551987,4.9808783 C20.4944431,4.92287723 20.4944431,4.92287723 20.4306497,4.87087628 L16.6921559,1.9168218 L16.9048004,1.70681793 L16.9888457,1.6128162 C17.3015367,1.21472358 17.2655216,0.649066956 16.9048004,0.292791853 C16.509383,-0.0975972843 15.8684112,-0.0975972843 15.4729937,0.292791853 Z" id="Path"></path>
        </g>
    </g>
</svg>