<?xml version="1.0" encoding="UTF-8"?>
<svg width="24px" height="24px" viewBox="0 0 24 24" version="1.1" xmlns="http://www.w3.org/2000/svg" xmlns:xlink="http://www.w3.org/1999/xlink">
    <title>phone</title>
    <g id="phone" stroke="none" stroke-width="1" fill="none" fill-rule="evenodd">
        <path d="M3.9981238,0.999804585 L6.98838007,0.999804585 C8.49414383,0.98527671 9.77753925,2.08904097 9.98953818,3.58924251 C10.1062996,4.47453743 10.3228374,5.34378194 10.6341761,6.17813912 C11.0462786,7.27445166 10.7826987,8.51034851 9.95523058,9.34710678 L9.239,10.0629017 L9.31454478,10.1828293 C10.4558029,11.936582 11.9515418,13.4323209 13.7052945,14.573579 L13.825,14.6479017 L14.5449847,13.9289477 C15.3287876,13.1538676 16.4696673,12.8747921 17.5132984,13.1875097 L17.7077286,13.2531028 C18.5443419,13.5652864 19.4135864,13.7818242 20.3078161,13.899805 C21.8161601,14.1125955 22.9256011,15.4219939 22.8878161,16.944805 L22.8881238,16.92 L22.8881156,19.915941 C22.8915443,20.7606587 22.5386875,21.5676786 21.9162324,22.1387383 C21.2937772,22.7097981 20.4594115,22.9919732 19.6001015,22.9141485 C16.3674444,22.5628939 13.2622496,21.4582649 10.5418023,19.6940138 C8.00172419,18.0799425 5.84818135,15.9263996 4.23884392,13.3936996 C2.4634242,10.6530797 1.35854437,7.53278385 1.01218207,4.27000044 C0.936391888,3.43130894 1.21659008,2.59937908 1.78433074,1.97743203 C2.35202169,1.35553943 3.15494654,1.00084276 3.9981238,0.999804585 Z M3.99924065,2.99985255 C3.71843013,3.00021468 3.45070496,3.11848381 3.26144841,3.32581008 C3.07220153,3.53312577 2.97880213,3.81043572 3.00253253,4.07440043 C3.31418923,7.00920526 4.31277951,9.82932831 5.92213758,12.3136785 C7.37873854,14.6059441 9.32217965,16.5493853 11.622225,18.0109804 C14.0879963,19.6100241 16.894471,20.6083877 19.798132,20.924059 C20.078564,20.949403 20.3566859,20.8553447 20.564171,20.6649914 C20.771656,20.4746382 20.8892749,20.2056315 20.8881238,19.92 L20.8884315,16.895195 C20.9010265,16.3875913 20.5312128,15.9511251 20.0373663,15.8814144 C19.0025283,15.7449298 17.986452,15.4918147 17.0062629,15.1260523 C16.6408254,14.9886848 16.2288598,15.0765448 15.9552306,15.3471068 L14.6852306,16.6171068 C14.3669176,16.9354198 13.8751531,17.0018074 13.4838293,16.7792945 C10.8238118,15.2667668 8.62135698,13.064312 7.10882929,10.4042945 C6.88631641,10.0129707 6.95270401,9.52120622 7.27101702,9.20289322 L8.53707149,7.93686088 C8.81157903,7.65926402 8.89943899,7.2472984 8.76122655,6.87960484 C8.39630914,5.90167182 8.14319403,4.88559547 8.00796545,3.85995157 C7.93771477,3.36292753 7.50986575,2.99496265 6.9981238,2.99985255 L3.99924065,2.99985255 Z" id="Path" fill="#0D0E10" fill-rule="nonzero"></path>
    </g>
</svg>