<?xml version="1.0" encoding="UTF-8"?>
<svg width="24px" height="24px" viewBox="0 0 24 24" version="1.1" xmlns="http://www.w3.org/2000/svg" xmlns:xlink="http://www.w3.org/1999/xlink">
    <title>photo</title>
    <g id="photo" stroke="none" stroke-width="1" fill="none" fill-rule="evenodd">
        <path d="M18.6,1 C21.0300529,1 23,2.9699471 23,5.4 L23,18.6 C23,21.0300529 21.0300529,23 18.6,23 L5.4,23 C2.9699471,23 1,21.0300529 1,18.6 L1,5.4 C1,2.9699471 2.9699471,1 5.4,1 L18.6,1 Z M18.75,3 L5.25,3 C4.00735931,3 3,4.00735931 3,5.25 L3,18.75 C3,19.9926407 4.00735931,21 5.25,21 L18.75,21 C19.9926407,21 21,19.9926407 21,18.75 L21,5.25 C21,4.00735931 19.9926407,3 18.75,3 Z M12,7 C14.7614237,7 17,9.23857625 17,12 C17,14.7614237 14.7614237,17 12,17 C9.23857625,17 7,14.7614237 7,12 C7,9.23857625 9.23857625,7 12,7 Z M12,9 C10.3431458,9 9,10.3431458 9,12 C9,13.6568542 10.3431458,15 12,15 C13.6568542,15 15,13.6568542 15,12 C15,10.3431458 13.6568542,9 12,9 Z M17.5,5 C18.3284271,5 19,5.67157288 19,6.5 C19,7.32842712 18.3284271,8 17.5,8 C16.6715729,8 16,7.32842712 16,6.5 C16,5.67157288 16.6715729,5 17.5,5 Z" id="Shape" fill="#0D0E10" fill-rule="nonzero"></path>
    </g>
</svg>