<?xml version="1.0" encoding="UTF-8"?>
<svg width="24px" height="24px" viewBox="0 0 24 24" version="1.1" xmlns="http://www.w3.org/2000/svg" xmlns:xlink="http://www.w3.org/1999/xlink">
    <title>photobooth</title>
    <g id="photobooth" stroke="none" stroke-width="1" fill="none" fill-rule="evenodd">
        <path d="M3,16 C3.55228475,16 4,16.4477153 4,17 L4,18 C4,19.1253 4.8747,20 6,20 L7,20 C7.55228475,20 8,20.4477153 8,21 C8,21.5522847 7.55228475,22 7,22 L6,22 C3.8013,22 2,20.1987 2,18 L2,17 C2,16.4477153 2.44771525,16 3,16 Z M21,16 C21.5522847,16 22,16.4477153 22,17 L22,18 C22,20.1987 20.1987,22 18,22 L17,22 C16.4477153,22 16,21.5522847 16,21 C16,20.4477153 16.4477153,20 17,20 L18,20 C19.1253,20 20,19.1253 20,18 L20,17 C20,16.4477153 20.4477153,16 21,16 Z M12,7 C14.7614237,7 17,9.23857625 17,12 C17,14.7614237 14.7614237,17 12,17 C9.23857625,17 7,14.7614237 7,12 C7,9.23857625 9.23857625,7 12,7 Z M12,9 C10.3431458,9 9,10.3431458 9,12 C9,13.6568542 10.3431458,15 12,15 C13.6568542,15 15,13.6568542 15,12 C15,10.3431458 13.6568542,9 12,9 Z M7,2 C7.55228475,2 8,2.44771525 8,3 C8,3.55228475 7.55228475,4 7,4 L6,4 C4.8747,4 4,4.8747 4,6 L4,7 C4,7.55228475 3.55228475,8 3,8 C2.44771525,8 2,7.55228475 2,7 L2,6 C2,3.8013 3.8013,2 6,2 L7,2 Z M18,2 C20.1987,2 22,3.8013 22,6 L22,7 C22,7.55228475 21.5522847,8 21,8 C20.4477153,8 20,7.55228475 20,7 L20,6 C20,4.8747 19.1253,4 18,4 L17,4 C16.4477153,4 16,3.55228475 16,3 C16,2.44771525 16.4477153,2 17,2 Z" id="Combined-Shape" fill="#000000" fill-rule="nonzero"></path>
    </g>
</svg>