<?xml version="1.0" encoding="UTF-8"?>
<svg width="24px" height="24px" viewBox="0 0 24 24" version="1.1" xmlns="http://www.w3.org/2000/svg" xmlns:xlink="http://www.w3.org/1999/xlink">
    <title>pin</title>
    <g id="pin" stroke="none" stroke-width="1" fill="none" fill-rule="evenodd">
        <path d="M12,2 C15.3137085,2 18,4.6862915 18,8 C18,10.9744578 15.8355868,13.4433899 12.9958144,13.9177422 L12.9990353,13.9579583 L13,21 C13,21.5522847 12.5522847,22 12,22 C11.4477153,22 11,21.5522847 11,21 L11,14 L11.0041856,13.9177422 C8.16441316,13.4433899 6,10.9744578 6,8 C6,4.6862915 8.6862915,2 12,2 Z M12,4 C9.790861,4 8,5.790861 8,8 C8,10.209139 9.790861,12 12,12 C14.209139,12 16,10.209139 16,8 C16,5.790861 14.209139,4 12,4 Z" id="Shape" fill="#0D0E10" fill-rule="nonzero"></path>
    </g>
</svg>