<?xml version="1.0" encoding="UTF-8"?>
<svg width="24px" height="24px" viewBox="0 0 24 24" version="1.1" xmlns="http://www.w3.org/2000/svg" xmlns:xlink="http://www.w3.org/1999/xlink">
    <title>play-room</title>
    <g id="play-room" stroke="none" stroke-width="1" fill="none" fill-rule="evenodd">
        <path d="M12.0865,3 C19,3 23,6 23,8.21416 L23,18 C23,19.6569 21.6569,21 20,21 L19.145,21 C18.1203,21 17.1665,20.477 16.6155,19.613 L14.8431,17.4623 C14.6595,17.1743 14.3415,17 14,17 L9.59664,17 C9.25507,17 8.93713,17.1743 8.75348,17.4623 L7.38447,19.613 C6.83352,20.477 5.87969,21 4.85499,21 L4,21 C2.34315,21 1,19.6569 1,18 L1,8.21416 C1,6 5.173,3 12.0865,3 Z M12.0865,5 C6.173,5 3,8 3,9 L3,18 C3,18.5523 3.44772,19 4,19 L4.85499,19 C5.19656,19 5.5145,18.8257 5.69815,18.5377 L7.06716,16.387 C7.61811,15.523 8.57193,15 9.59664,15 L14,15 C15.0247,15 15.9785,15.523 16.5294,16.387 L18.3019,18.5377 C18.4855,18.8257 18.8034,19 19.145,19 L20,19 C20.5523,19 21,18.5523 21,18 L21,9 C21,8 18,5 12.0865,5 Z M8,8 C8.55229,8 9,8.44772 9,9 L9,10 L10,10 C10.55228,10 11,10.44771 11,11 C11,11.5523 10.55229,12 10,12 L9,12 L9,13 C9,13.5523 8.55228,14 8,14 C7.44772,14 7,13.5523 7,13 L7,12 L6,12 C5.44772,12 5,11.5523 5,11 C5,10.44772 5.44772,10 6,10 L7,10 L7,9 C7,8.44772 7.44772,8 8,8 Z M16,11 C16.5523,11 17,11.4477 17,12 C17,12.5523 16.5523,13 16,13 C15.4477,13 15,12.5523 15,12 C15,11.4477 15.4477,11 16,11 Z M18,9 C18.5523,9 19,9.44772 19,10 C19,10.5523 18.5523,11 18,11 C17.4477,11 17,10.5523 17,10 C17,9.44772 17.4477,9 18,9 Z M15,8 C15.5523,8 16,8.4477 16,9 C16,9.5523 15.5523,10 15,10 C14.4477,10 14,9.5523 14,9 C14,8.4477 14.4477,8 15,8 Z" id="Shape" fill="#0D0E10" fill-rule="nonzero"></path>
    </g>
</svg>