<?xml version="1.0" encoding="UTF-8"?>
<svg width="24px" height="24px" viewBox="0 0 24 24" version="1.1" xmlns="http://www.w3.org/2000/svg" xmlns:xlink="http://www.w3.org/1999/xlink">
    <title>plus-small</title>
    <g id="plus-small" stroke="none" stroke-width="1" fill="none" fill-rule="evenodd">
        <path d="M13,8 L12.999849,10.9989429 L16,11 C16.5522847,11 17,11.4477153 17,12 C17,12.5522847 16.5522847,13 16,13 L13.0005561,12.999348 L13,16 C13,16.5522847 12.5522847,17 12,17 C11.4477153,17 11,16.5522847 11,16 L10.9994439,12.999348 L8,13 C7.44771525,13 7,12.5522847 7,12 C7,11.4477153 7.44771525,11 8,11 L11.000151,10.9989429 L11,8 C11,7.44771525 11.4477153,7 12,7 C12.5522847,7 13,7.44771525 13,8 Z" id="Path" fill="#0D0E10" fill-rule="nonzero"></path>
    </g>
</svg>