<?xml version="1.0" encoding="UTF-8"?>
<svg width="24px" height="24px" viewBox="0 0 24 24" version="1.1" xmlns="http://www.w3.org/2000/svg" xmlns:xlink="http://www.w3.org/1999/xlink">
    <title>plus-circle</title>
    <g id="plus-circle" stroke="none" stroke-width="1" fill="none" fill-rule="evenodd">
        <path d="M12,0 C18.627417,0 24,5.372583 24,12 C24,18.627417 18.627417,24 12,24 C5.372583,24 0,18.627417 0,12 C0,5.372583 5.372583,0 12,0 Z M12,2 C6.4771525,2 2,6.4771525 2,12 C2,17.5228475 6.4771525,22 12,22 C17.5228475,22 22,17.5228475 22,12 C22,6.4771525 17.5228475,2 12,2 Z M12,5.82842712 C12.5522847,5.82842712 13,6.27614237 13,6.82842712 L12.999849,10.9989429 L17.1715729,11 C17.7238576,11 18.1715729,11.4477153 18.1715729,12 C18.1715729,12.5522847 17.7238576,13 17.1715729,13 L13.0005561,12.999348 L13,17.1715729 C13,17.7238576 12.5522847,18.1715729 12,18.1715729 C11.4477153,18.1715729 11,17.7238576 11,17.1715729 L10.9994439,12.999348 L6.82842712,13 C6.27614237,13 5.82842712,12.5522847 5.82842712,12 C5.82842712,11.4477153 6.27614237,11 6.82842712,11 L11.000151,10.9989429 L11,6.82842712 C11,6.27614237 11.4477153,5.82842712 12,5.82842712 Z" id="Shape" fill="#0D0E10" fill-rule="nonzero"></path>
    </g>
</svg>