<?xml version="1.0" encoding="UTF-8"?>
<svg xmlns="http://www.w3.org/2000/svg" width="24" height="24" viewBox="0 0 24 24">
    <title>question-circle-filled</title>
    <path fill="#0D0E10" d="M12,0 C18.627417,0 24,5.372583 24,12 C24,18.627417 18.627417,24 12,24 C5.372583,24 0,18.627417 0,12 C0,5.372583 5.372583,0 12,0 Z M12,17 C11.4477153,17 11,17.4477153 11,18 C11,18.5522847 11.4477153,19 12,19 C12.5522847,19 13,18.5522847 13,18 C13,17.4477153 12.5522847,17 12,17 Z M12,5 C9.790861,5 8,6.790861 8,9 C8,9.55228475 8.44771525,10 9,10 C9.55228475,10 10,9.55228475 10,9 C10,7.8954305 10.8954305,7 12,7 C13.1045695,7 14,7.8954305 14,9 C14,10.1045695 13.1045695,11 12,11 L11.8833789,11.0067277 C11.3860402,11.0644928 11,11.4871642 11,12 L11,14 C11,14.5522847 11.4477153,15 12,15 C12.5522847,15 13,14.5522847 13,14 L13.0007613,12.8737865 C14.7256022,12.429479 16,10.8635652 16,9 C16,6.790861 14.209139,5 12,5 Z"/>
</svg>