<?xml version="1.0" encoding="UTF-8"?>
<svg width="24px" height="24px" viewBox="0 0 24 24" version="1.1" xmlns="http://www.w3.org/2000/svg" xmlns:xlink="http://www.w3.org/1999/xlink">
    <title>question-bubble</title>
    <g id="question-bubble" stroke="none" stroke-width="1" fill="none" fill-rule="evenodd">
        <path d="M20,2 C21.6568542,2 23,3.34314575 23,5 L23,17 C23,18.6568542 21.6568542,20 20,20 L6.96,20 L1,23.4864727 L1,5 C1,3.34314575 2.34314575,2 4,2 L20,2 Z M20,4 L4,4 C3.44771525,4 3,4.44771525 3,5 L3,20 L6.42,18 L20,18 C20.5522847,18 21,17.5522847 21,17 L21,5 C21,4.44771525 20.5522847,4 20,4 Z M12,14 C12.5522847,14 13,14.4477153 13,15 C13,15.5522847 12.5522847,16 12,16 C11.4477153,16 11,15.5522847 11,15 C11,14.4477153 11.4477153,14 12,14 Z M12,6 C13.6568542,6 15,7.34314575 15,9 C15,10.3058822 14.1656226,11.4168852 13.0009007,11.8289758 L13,12 C13,12.5522847 12.5522847,13 12,13 C11.4477153,13 11,12.5522847 11,12 L11,11 C11,10.4871642 11.3860402,10.0644928 11.8833789,10.0067277 L12,10 C12.5522847,10 13,9.55228475 13,9 C13,8.44771525 12.5522847,8 12,8 C11.4871642,8 11.0644928,8.38604019 11.0067277,8.88337887 L11,9 C11,9.55228475 10.5522847,10 10,10 C9.44771525,10 9,9.55228475 9,9 C9,7.34314575 10.3431458,6 12,6 Z" id="Shape" fill="#0D0E10" fill-rule="nonzero"></path>
    </g>
</svg>