<svg width="24" height="24" viewBox="0 0 24 24" fill="none" xmlns="http://www.w3.org/2000/svg">
  <path fill-rule="evenodd" clip-rule="evenodd" d="M3.66659 14.9308C3.66659 19.5332 7.39755 23.2642 11.9999 23.2642C16.6023 23.2642 20.3333 19.5332 20.3333 14.9308C20.3333 11.9973 18.0722 7.83214 13.5805 2.03872L11.9999 3.05176e-05L10.1096 2.44028C5.82372 8.02521 3.66659 12.0655 3.66659 14.9308ZM18.3333 14.9308C18.3333 18.4286 15.4977 21.2642 11.9999 21.2642C8.50212 21.2642 5.66658 18.4286 5.66658 14.9308C5.66658 12.71 7.58142 9.07691 11.4111 4.03156L11.9999 3.26416C16.2221 8.71007 18.3333 12.599 18.3333 14.9308Z" fill="#333333"/>
</svg>
