<?xml version="1.0" encoding="UTF-8"?>
<svg width="24px" height="24px" viewBox="0 0 24 24" version="1.1" xmlns="http://www.w3.org/2000/svg" xmlns:xlink="http://www.w3.org/1999/xlink">
    <title>rate-thumb-down</title>
    <g id="rate-thumb-down" stroke="none" stroke-width="1" fill="none" fill-rule="evenodd">
        <path d="M6,3 C4.6,3 3.45339578,4.2 3.15339578,5.6 L2.05339578,11.5 C1.75339578,12.9 2.75339578,14.3 4.15339578,14.6 L8.25339578,15.4 L8.25339578,19.2 C8.25339578,20 8.55339578,20.7 9.05339578,21.3 C9.45339578,21.8 10.1533958,22 10.7533958,22 L11.1533958,22 C11.9533958,21.9 12.6533958,21.3 13.0533958,20.5 L16.0533958,14 L19.7533958,14 C20.5533958,14 21.1533958,13.4 21.1533958,12.6 L21.1533958,4.6 C21.1533958,3.8 20.7,3 20,3 L6,3 Z M11.4533958,19.8 C11.3533958,20.1 11.1533958,20.2 10.9533958,20.2 C10.8533958,20.2 10.6533958,20.2 10.4533958,20 C10.2533958,19.8 10.1533958,19.5 10.1533958,19.1 L10.1533958,15.4 C10.1533958,14.6 9.55339578,13.8 8.75339578,13.6 L4.55339578,12.7 C4.05339578,12.6 3.85339578,12.2 3.85339578,11.7 L4.95339578,5.8 C5.05339578,5.4 5.45339578,5 6.05339578,5 L14.9533958,5 L14.9533958,12.3 L11.4533958,19.8 Z M17,12 L17,5 L19,5 L19,12 L17,12 Z" id="Shape" fill="#0D0E10" fill-rule="nonzero"></path>
    </g>
</svg>