<?xml version="1.0" encoding="UTF-8"?>
<svg width="24px" height="24px" viewBox="0 0 24 24" version="1.1" xmlns="http://www.w3.org/2000/svg" xmlns:xlink="http://www.w3.org/1999/xlink">
    <title>rate-thumb-up</title>
    <g id="rate-thumb-up" stroke="none" stroke-width="1" fill="none" fill-rule="evenodd">
        <path d="M6,22 C4.6,22 3.45339578,20.8 3.15339578,19.4 L2.05339578,13.5 C1.75339578,12.1 2.75339578,10.7 4.15339578,10.4 L8.25339578,9.6 L8.25339578,5.8 C8.25339578,5 8.55339578,4.3 9.05339578,3.7 C9.45339578,3.2 10.1533958,3 10.7533958,3 L11.1533958,3 C11.9533958,3.1 12.6533958,3.7 13.0533958,4.5 L16.0533958,11 L19.7533958,11 C20.5533958,11 21.1533958,11.6 21.1533958,12.4 L21.1533958,20.4 C21.1533958,21.2 20.7,22 20,22 L6,22 Z M11.4533958,5.2 C11.3533958,4.9 11.1533958,4.8 10.9533958,4.8 C10.8533958,4.8 10.6533958,4.8 10.4533958,5 C10.2533958,5.2 10.1533958,5.5 10.1533958,5.9 L10.1533958,9.6 C10.1533958,10.4 9.55339578,11.2 8.75339578,11.4 L4.55339578,12.3 C4.05339578,12.4 3.85339578,12.8 3.85339578,13.3 L4.95339578,19.2 C5.05339578,19.6 5.45339578,20 6.05339578,20 L14.9533958,20 L14.9533958,12.7 L11.4533958,5.2 Z M17,13 L17,20 L19,20 L19,13 L17,13 Z" id="Shape" fill="#0D0E10" fill-rule="nonzero"></path>
    </g>
</svg>