<?xml version="1.0" encoding="UTF-8"?>
<svg width="24px" height="24px" viewBox="0 0 24 24" version="1.1" xmlns="http://www.w3.org/2000/svg" xmlns:xlink="http://www.w3.org/1999/xlink">
    <title>refresh</title>
    <g id="refresh" stroke="none" stroke-width="1" fill="none" fill-rule="evenodd">
        <path d="M12,1 C18.627417,1 24,6.372583 24,13 C24,16.6414895 22.9642746,19.3430573 20.8799121,20.999515 L23,21 C23.5522847,21 24,21.4477153 24,22 C24,22.5522847 23.5522847,23 23,23 L18,23 C17.4477153,23 17,22.5522847 17,22 L17,17 C17,16.4477153 17.4477153,16 18,16 C18.5522847,16 19,16.4477153 19,17 L18.9999506,19.8677062 C20.9937723,18.693331 22,16.454698 22,13 C22,7.4771525 17.5228475,3 12,3 C6.4771525,3 2,7.4771525 2,13 C2,13.5522847 1.55228475,14 1,14 C0.44771525,14 -6.51740979e-14,13.5522847 -6.51740979e-14,13 C-6.51740979e-14,6.372583 5.372583,1 12,1 Z" id="Path" fill="#0D0E10" fill-rule="nonzero"></path>
    </g>
</svg>