<?xml version="1.0" encoding="UTF-8"?>
<svg width="24px" height="24px" viewBox="0 0 24 24" version="1.1" xmlns="http://www.w3.org/2000/svg" xmlns:xlink="http://www.w3.org/1999/xlink">
    <title>reg-no</title>
    <g id="reg-no" stroke="none" stroke-width="1" fill="none" fill-rule="evenodd">
        <path d="M21.8,4 C23.0150264,4 24,4.98497355 24,6.2 L24,17.8 C24,19.0150264 23.0150264,20 21.8,20 L2.2,20 C0.984973552,20 0,19.0150264 0,17.8 L0,6.2 C0,4.98497355 0.984973552,4 2.2,4 L21.8,4 Z M2.2,6 C2.08954305,6 2,6.08954305 2,6.2 L2,17.8 C2,17.9104569 2.08954305,18 2.2,18 L4,18 L4,6 L2.2,6 Z M18,11 C18.5522847,11 19,11.4477153 19,12 C19,12.5522847 18.5522847,13 18,13 C17.4477153,13 17,12.5522847 17,12 C17,11.4477153 17.4477153,11 18,11 Z M14,11 C14.5522847,11 15,11.4477153 15,12 C15,12.5522847 14.5522847,13 14,13 C13.4477153,13 13,12.5522847 13,12 C13,11.4477153 13.4477153,11 14,11 Z M10,11 C10.5522847,11 11,11.4477153 11,12 C11,12.5522847 10.5522847,13 10,13 C9.44771525,13 9,12.5522847 9,12 C9,11.4477153 9.44771525,11 10,11 Z M6,18 L21.8,18 C21.9104569,18 22,17.9104569 22,17.8 L22,6.2 C22,6.08954305 21.9104569,6 21.8,6 L6,6 L6,18 Z" id="Shape" fill="#0D0E10" fill-rule="nonzero"></path>
    </g>
</svg>