<svg width="24" height="24" viewBox="0 0 24 24" fill="none" xmlns="http://www.w3.org/2000/svg">
<path d="M11.8344 0C14.0435 0 15.8344 1.79086 15.8344 4C15.8344 5.14209 15.3557 6.17239 14.5881 6.90123C15.5577 7.6099 16.2482 8.68978 16.4426 9.95349L17.6571 17.8479C17.7411 18.3938 17.3667 18.9044 16.8208 18.9884C16.7705 18.9961 16.7197 19 16.6688 19H15.6152C15.1563 19 14.7563 19.3123 14.645 19.7575L13.8344 23C13.8344 23.5523 13.3867 24 12.8344 24H10.8344C10.2821 24 9.83439 23.5523 9.83439 23L9.02376 19.7575C8.91246 19.3123 8.51248 19 8.05361 19H7C6.44772 19 6 18.5523 6 18C6 17.9491 6.00389 17.8983 6.01163 17.8479L7.22616 9.95349C7.42058 8.68978 8.1111 7.60991 9.08112 6.89968L9.18965 7.00096C8.3586 6.26799 7.83439 5.19521 7.83439 4C7.83439 1.79086 9.62525 0 11.8344 0ZM11.8344 8C10.5203 8 9.40272 8.95878 9.2029 10.2576L8.165 17.003L8.23211 17.0053C9.47379 17.0787 10.5432 17.9137 10.9156 19.1005L10.964 19.2724L11.646 22H12.022L12.7047 19.2724C13.0241 17.995 14.1359 17.0822 15.4367 17.0053L15.503 17.003L14.4659 10.2576C14.2747 9.01525 13.2439 8.08401 12.0046 8.00539L11.8344 8ZM11.8344 2C10.7298 2 9.83439 2.89543 9.83439 4C9.83439 5.10457 10.7298 6 11.8344 6C12.939 6 13.8344 5.10457 13.8344 4C13.8344 2.89543 12.939 2 11.8344 2Z" fill="#333333"/>
</svg>
