<svg width="24" height="24" viewBox="0 0 24 24" fill="none" xmlns="http://www.w3.org/2000/svg">
<path d="M12 0C14.2091 0 16 1.79086 16 4C16 5.11947 15.5401 6.13152 14.799 6.85756C16.127 7.75495 17 9.27552 17 11V18L15 19V23C15 23.5523 14.5523 24 14 24H10C9.44772 24 9 23.5523 9 23V19L7 18V11C7 9.27552 7.87301 7.75495 9.20118 6.85613L9.03972 6.69016C8.39374 5.97974 8 5.03585 8 4C8 1.79086 9.79086 0 12 0ZM12 8C10.3431 8 9 9.34315 9 11V16.764L11 17.7639V22H13V17.7639L15 16.764V11C15 9.40232 13.7511 8.09634 12.1763 8.00509L12 8ZM12 2C10.8954 2 10 2.89543 10 4C10 5.10457 10.8954 6 12 6C13.1046 6 14 5.10457 14 4C14 2.89543 13.1046 2 12 2Z" fill="#333333"/>
</svg>
