<?xml version="1.0" encoding="UTF-8"?>
<svg width="24px" height="24px" viewBox="0 0 24 24" version="1.1" xmlns="http://www.w3.org/2000/svg" xmlns:xlink="http://www.w3.org/1999/xlink">
    <title>restrooms</title>
    <g id="restrooms" stroke="none" stroke-width="1" fill="none" fill-rule="evenodd">
        <path d="M5,0 C7.209139,0 9,1.790861 9,4 C9,5.11946617 8.54012718,6.13152328 7.79899017,6.85756273 C9.12698863,7.75495148 10,9.27552437 10,11 L10,18 L8,19 L8,23 C8,23.5522847 7.55228475,24 7,24 L3,24 C2.44771525,24 2,23.5522847 2,23 L2,19 L0,18 L0,11 C0,9.27552437 0.873011372,7.75495148 2.20118389,6.85613155 L2.03971974,6.69016113 C1.39374038,5.97973801 1,5.0358505 1,4 C1,1.790861 2.790861,0 5,0 Z M5,8 C3.34314575,8 2,9.34314575 2,11 L2,16.764 L4,17.763932 L4,22 L6,22 L6,17.763932 L8,16.764 L8,11 C8,9.40231912 6.75108004,8.09633912 5.17627279,8.00509269 L5,8 Z M5,2 C3.8954305,2 3,2.8954305 3,4 C3,5.1045695 3.8954305,6 5,6 C6.1045695,6 7,5.1045695 7,4 C7,2.8954305 6.1045695,2 5,2 Z M18,0 C20.209139,0 22,1.790861 22,4 C22,5.14209158 21.5213505,6.17238857 20.7537098,6.90123248 C21.7232911,7.60990504 22.4138131,8.6897852 22.6082287,9.95348679 L23.8227604,17.8479428 C23.9067393,18.3938054 23.5323085,18.9043928 22.9864459,18.9883717 C22.9361301,18.9961126 22.8852966,19 22.8343887,19 L21.7807764,19 C21.3219088,19 20.9219257,19.3122974 20.8106339,19.7574644 L20,23 C20,23.5522847 19.5522847,24 19,24 L17,24 C16.4477153,24 16,23.5522847 16,23 L15.1893661,19.7574644 C15.0780743,19.3122974 14.6780912,19 14.2192236,19 L13.1656113,19 C12.6133265,19 12.1656113,18.5522847 12.1656113,18 C12.1656113,17.9490922 12.1694987,17.8982587 12.1772396,17.8479428 L13.3917713,9.95348679 C13.5861869,8.6897852 14.2767089,7.60990504 15.2467323,6.89967578 L15.3552593,7.00095612 C14.5242106,6.2679883 14,5.19521212 14,4 C14,1.790861 15.790861,0 18,0 Z M18,8 C16.6858941,8 15.5683339,8.95877609 15.3685147,10.2576012 L14.3306113,17.003 L14.397722,17.0052689 C15.639405,17.0787245 16.7088325,17.9137083 17.0812472,19.1005021 L17.1296511,19.2723931 L17.8116113,22 L18.1876113,22 L18.8703489,19.2723931 C19.1897078,17.9949574 20.3014673,17.0822224 21.602278,17.0052689 L21.6686113,17.003 L20.6314853,10.2576012 C20.4403539,9.01524675 19.4095502,8.08401465 18.1702312,8.00538644 L18,8 Z M18,2 C16.8954305,2 16,2.8954305 16,4 C16,5.1045695 16.8954305,6 18,6 C19.1045695,6 20,5.1045695 20,4 C20,2.8954305 19.1045695,2 18,2 Z" id="Shape" fill="#0D0E10" fill-rule="nonzero"></path>
    </g>
</svg>