<?xml version="1.0" encoding="UTF-8"?>
<svg width="24px" height="24px" viewBox="0 0 24 24" version="1.1" xmlns="http://www.w3.org/2000/svg" xmlns:xlink="http://www.w3.org/1999/xlink">
    <title>robot</title>
    <g id="robot" stroke="none" stroke-width="1" fill="none" fill-rule="evenodd">
        <path d="M19,4 C21.7614237,4 24,6.23857625 24,9 L24,17 C24,19.7614237 21.7614237,22 19,22 L5,22 C2.23857625,22 0,19.7614237 0,17 L0,9 C0,6.23857625 2.23857625,4 5,4 L19,4 Z M19,6 L5,6 C3.34314575,6 2,7.34314575 2,9 L2,17 C2,18.6568542 3.34314575,20 5,20 L19,20 C20.6568542,20 22,18.6568542 22,17 L22,9 C22,7.34314575 20.6568542,6 19,6 Z M14,17 C14.5522847,17 15,17.4477153 15,18 C15,18.5128358 14.6139598,18.9355072 14.1166211,18.9932723 L14,19 L10,19 C9.44771525,19 9,18.5522847 9,18 C9,17.4477153 9.44771525,17 10,17 L14,17 Z M7,8 C8.65685425,8 10,9.34314575 10,11 C10,12.6568542 8.65685425,14 7,14 C5.34314575,14 4,12.6568542 4,11 C4,9.34314575 5.34314575,8 7,8 Z M17,8 C18.6568542,8 20,9.34314575 20,11 C20,12.6568542 18.6568542,14 17,14 C15.3431458,14 14,12.6568542 14,11 C14,9.34314575 15.3431458,8 17,8 Z M7,10 C6.44771525,10 6,10.4477153 6,11 C6,11.5522847 6.44771525,12 7,12 C7.55228475,12 8,11.5522847 8,11 C8,10.4871642 7.61395981,10.0644928 7.11662113,10.0067277 L7,10 Z M17,10 C16.4477153,10 16,10.4477153 16,11 C16,11.5522847 16.4477153,12 17,12 C17.5522847,12 18,11.5522847 18,11 C18,10.4871642 17.6139598,10.0644928 17.1166211,10.0067277 L17,10 Z M12,1 C13.8639271,1 15.4300871,2.27489272 15.8740452,4.00024347 L13.7323937,3.99992752 C13.3865739,3.40216612 12.7402524,3 12,3 C11.2597476,3 10.6134261,3.40216612 10.2676063,3.99992752 L8.12595483,4.00024347 C8.56991294,2.27489272 10.1360729,1 12,1 Z" id="Shape" fill="#0D0E10" fill-rule="nonzero"></path>
    </g>
</svg>