<?xml version="1.0" encoding="UTF-8"?>
<svg width="24px" height="24px" viewBox="0 0 24 24" version="1.1" xmlns="http://www.w3.org/2000/svg" xmlns:xlink="http://www.w3.org/1999/xlink">
    <title>passenger</title>
    <g id="passenger" stroke="none" stroke-width="1" fill="none" fill-rule="evenodd">
        <path d="M13.9346157,5.00187946 L13.9887844,4.99983769 L14.1333842,5.00866456 L14.2625088,5.03481772 L14.3851997,5.07698321 L14.5038905,5.13598818 L14.6096678,5.2069339 L14.7072805,5.29249048 L14.7840211,5.37869721 L14.8743501,5.51435707 L16.4471928,8.658 L19.5529792,7.10557281 C20.0116736,6.87622565 20.5623647,7.03248613 20.836448,7.45148603 L20.89462,7.5527864 C21.1416093,8.0467649 20.9413849,8.64743794 20.4474064,8.89442719 L16.4474064,10.8944272 C15.9534279,11.1414164 15.3527549,10.9411921 15.1057656,10.4472136 L14.255,8.746 L13.1231928,12.708 L16.7072996,16.2928932 C16.8252015,16.4107951 16.9112748,16.5558112 16.9585315,16.7143622 L16.9865868,16.835601 L17.9865868,22.835601 C18.0773818,23.3803713 17.7093621,23.8955989 17.1645918,23.9863939 C16.6198215,24.077189 16.104594,23.7091693 16.0137989,23.164399 L15.0661928,17.481 L11.2930861,13.7071068 C11.0648212,13.4788419 10.9625092,13.1565223 11.0126627,12.8424637 L11.0386689,12.7252789 L12.588,7.301 L9.81719284,7.856 L8.97033534,11.2425356 C8.84595438,11.7400595 8.36892753,12.0564824 7.87242804,11.9919004 L7.75765722,11.9701425 C7.22186231,11.8361938 6.89610161,11.2932593 7.03005034,10.7574644 L8.03005034,6.75746437 C8.12377753,6.3825556 8.42513413,6.09520784 8.80407671,6.01941932 L13.8450235,5.01186928 L13.9346157,5.00187946 Z M11.4474064,15.1055728 C11.9413849,15.3525621 12.1416093,15.9532351 11.89462,16.4472136 L9.89462003,20.4472136 C9.75661419,20.7232253 9.49890679,20.9200611 9.19630898,20.9805807 L4.19630898,21.9805807 C3.65474922,22.0888926 3.12792412,21.7376759 3.01961217,21.1961161 C2.91130021,20.6545564 3.26251695,20.1277313 3.80407671,20.0194193 L8.32419284,19.115 L10.1057656,15.5527864 C10.3527549,15.0588079 10.9534279,14.8585836 11.4474064,15.1055728 Z M16.0001928,4 C17.1047623,4 18.0001928,3.1045695 18.0001928,2 C18.0001928,0.8954305 17.1047623,0 16.0001928,0 C14.8956233,0 14.0001928,0.8954305 14.0001928,2 C14.0001928,3.1045695 14.8956233,4 16.0001928,4 Z" id="Shape" fill="#0D0E10" fill-rule="nonzero"></path>
    </g>
</svg>