<?xml version="1.0" encoding="UTF-8"?>
<svg width="24px" height="24px" viewBox="0 0 24 24" version="1.1" xmlns="http://www.w3.org/2000/svg" xmlns:xlink="http://www.w3.org/1999/xlink">
    <title>sailing-car</title>
    <g id="sailing-car" stroke="none" stroke-width="1" fill="none" fill-rule="evenodd">
        <path d="M8,18 L8,20 C8,21.1045695 7.1045695,22 6,22 L4,22 C2.8954305,22 2,21.1045695 2,20 L2,16 C2,15.8414205 2,15.1867327 2,15 L1.999,10 L1,10 C0.44771525,10 0,9.55228475 0,9 C0,8.44771525 0.44771525,8 1,8 L1.999,8 L1.999,7.907 L5.33801842,3.12591486 C5.90733498,2.41426916 6.76927368,2 7.68062485,2 L16.3193752,2 C17.2307263,2 18.092665,2.41426916 18.6619816,3.12591486 L22.001,7.907 L22.001,8 L23,8 C23.5522847,8 24,8.44771525 24,9 C24,9.55228475 23.5522847,10 23,10 L22.001,10 L22,15 C22,15.1867327 22,15.8414205 22,16 L22,20 C22,21.1045695 21.1045695,22 20,22 L18,22 C16.8954305,22 16,21.1045695 16,20 L16,18 L8,18 Z M4,18 L4,20 L6,20 L6,18 L4,18 Z M20,18 L18,18 L18,20 L20,20 L20,18 Z M19,16 C19.5522847,16 20,15.5522847 20,15 L20,10 L4,10 L4,15 C4,15.5522847 4.44771525,16 5,16 L19,16 Z M7,12 C7.55228475,12 8,12.4477153 8,13 C8,13.5522847 7.55228475,14 7,14 C6.44771525,14 6,13.5522847 6,13 C6,12.4477153 6.44771525,12 7,12 Z M17,12 C17.5522847,12 18,12.4477153 18,13 C18,13.5522847 17.5522847,14 17,14 C16.4477153,14 16,13.5522847 16,13 C16,12.4477153 16.4477153,12 17,12 Z M19.373,8 L17.100244,4.37530495 C16.9104718,4.13808972 16.6231589,4 16.3193752,4 L7.68062485,4 C7.37684113,4 7.08952822,4.13808972 6.89975604,4.37530495 L4.627,8 L19.373,8 Z" id="Shape" fill="#0D0E10" fill-rule="nonzero"></path>
    </g>
</svg>