<?xml version="1.0" encoding="UTF-8"?>
<svg width="24px" height="24px" viewBox="0 0 24 24" version="1.1" xmlns="http://www.w3.org/2000/svg" xmlns:xlink="http://www.w3.org/1999/xlink">
    <title>sailing-on-route-arrow</title>
    <g id="sailing-on-route-arrow" stroke="none" stroke-width="1" fill="none" fill-rule="evenodd">
        <path d="M18.6341535,0.292893219 L20.5273159,2.29289322 C20.9011511,2.68341751 20.9011511,3.31658249 20.5273159,3.70710678 L18.6341535,5.70710678 C18.2603183,6.09763107 17.6542116,6.09763107 17.2803764,5.70710678 C16.9065412,5.31658249 16.9065412,4.68341751 17.2803764,4.29289322 L17.5402439,3.999205 L3,4 C2.44771525,4 2,4.44771525 2,5 L3.33992741,5 C4.27261433,5 5.09354154,5.61516251 5.35543799,6.51032458 L6.083,8.999 L12.9341486,9 C13.8243684,8.99968935 14.6158449,9.56096059 14.9265236,10.4350386 L15.1744786,11.1668001 C15.4989154,12.107378 16.0240892,13.0517779 16.75,14 L23,14 C23.6666667,14 23.7850969,14.3358119 23.3552906,15.0074487 L19.0119654,20.4346698 L19.2338899,20.5524863 C19.4864227,20.6766359 19.7545803,20.8225577 20.0461235,20.9912757 L21.0708244,21.5907624 L21.3457302,21.7434303 L21.5608716,21.8541782 C21.6871632,21.915389 21.781968,21.9527095 21.8619983,21.9742524 L22,21.991 L23,22 C23.5522847,22 24,22.4477153 24,23 C24,23.5522847 23.5522847,24 23,24 L21.887663,23.9974842 C21.7315318,23.9920914 21.5942709,23.976984 21.4510186,23.942409 L21.3048483,23.9009836 C20.7974412,23.7757751 20.3008659,23.5226099 19.619023,23.0941017 L18.9502449,22.6646557 L18.6811894,22.4988088 L18.4415793,22.3603952 C17.9785513,22.1383743 17.61417,22.0263005 17.2739023,22.0041362 L17.1809592,22.0019173 C16.7347546,22.0213166 16.3417005,22.1913031 15.5918157,22.6646557 L14.9230375,23.0941017 C13.9628724,23.6975231 13.0661887,23.9532391 12.2405679,23.9940639 L12.0719384,23.9994731 L11.9279225,23.9994481 L11.7586528,23.993125 C10.9334884,23.9532391 10.0343994,23.6975231 9.07442092,23.0941017 L8.40577275,22.6646557 C7.70601627,22.2228599 7.31703862,22.0453297 6.90557458,22.0078502 L6.804,22.0013333 L6.74626729,22.0027039 C6.40362201,22.0207733 6.03816706,22.1300973 5.57291174,22.3514439 C5.417687,22.4366529 5.24518039,22.5401622 5.04799627,22.6646557 L4.3793481,23.0941017 C3.75364981,23.4874019 3.28399483,23.7329892 2.81922905,23.8676389 L2.67979484,23.9047424 C2.51527438,23.9568638 2.36741614,23.9819007 2.20301568,23.992751 L2,24 L1,24 C0.44771525,24 0,23.5522847 0,23 L0,11.1 L0.003,11 L0,5 C0,3.34314575 1.34314575,2 3,2 L17.54,2.0015 L17.2803764,1.70710678 C16.9262167,1.3371364 16.9075767,0.749394321 17.2244565,0.356500603 L17.2803764,0.292893219 C17.6542116,-0.0976310729 18.2603183,-0.0976310729 18.6341535,0.292893219 Z M12.9341486,11 L2.095,11 L2.06107549,11.0078585 C2.02518398,11.0230393 2,11.0585786 2,11.1 L2,22 C2.04594993,21.9880609 2.08679294,21.9828528 2.1277515,21.9761228 C2.30945646,21.9279863 2.56687444,21.7983919 3.10081117,21.4894654 L3.72599526,21.1221044 C4.11622351,20.8906497 4.4646526,20.6972342 4.78765361,20.5398187 C5.49618181,20.151193 6.02463815,20 6.72688451,20 L6.84860255,20 C7.7281435,20 8.38288873,20.2358011 9.64187977,20.9030281 L10.3413652,21.2790602 L10.7431639,21.4872607 C11.2406276,21.7373697 11.5934763,21.8802517 11.9031918,21.9487827 L11.9982015,21.9678154 C12.4068511,21.8955059 12.8752003,21.6931336 13.6552028,21.2790602 L14.3545523,20.9030281 C15.4367185,20.3294013 16.0723649,20.0746476 16.7881865,20.0144612 L20,16 L16,16 C15.3370768,16 14.3467625,15.0223979 13.0290569,11.0671936 C13.0147561,11.027016 12.9767937,11 12.9341486,11 Z M10,14 C10.5522847,14 11,14.4477153 11,15 C11,15.5522847 10.5522847,16 10,16 L6,16 C5.44771525,16 5,15.5522847 5,15 C5,14.4477153 5.44771525,14 6,14 L10,14 Z M3.33992741,7 L2,7 L2,9 L4,8.999 L3.4359041,7.07192022 C3.42343284,7.02929345 3.38434107,7 3.33992741,7 Z" id="Shape" fill="#0D0E10" fill-rule="nonzero"></path>
    </g>
</svg>