<?xml version="1.0" encoding="UTF-8"?>
<svg width="24px" height="24px" viewBox="0 0 24 24" version="1.1" xmlns="http://www.w3.org/2000/svg" xmlns:xlink="http://www.w3.org/1999/xlink">
    <title>sailing-crane</title>
    <g id="sailing-crane" stroke="none" stroke-width="1" fill="none" fill-rule="evenodd">
        <path d="M19.4396246,15 C20.2623,15 21.0314415,15.4053911 21.4971267,16.0826895 L23.559815,19.0826895 C24.3394866,20.2166537 24.0568776,21.7692358 22.9255017,22.5544461 C22.5076361,22.8444579 22.0111347,23 21.5023129,23 L2.49768732,23 C1.11616371,23 2.28319786e-05,21.8786211 2.28319786e-05,20.5 C2.28319786e-05,19.9940199 0.153416742,19.4997691 0.440185191,19.0826895 L2.50287351,16.0826895 C2.96855867,15.4053911 3.73770016,15 4.56037563,15 L19.4396246,15 Z M19.4396246,17 L4.56037563,17 C4.39688885,17 4.24382926,17.0806731 4.15090906,17.2158174 L2.08822074,20.2158174 C2.03078582,20.2993515 2.00002283,20.3984729 2.00002283,20.5 C2.00002283,20.7761424 2.22283481,21 2.49768732,21 L21.5023129,21 C21.6033657,21 21.7020242,20.9690926 21.7851681,20.9113882 C22.0113102,20.7544385 22.0679961,20.4430208 21.9117795,20.2158174 L19.8490912,17.2158174 C19.7561709,17.0806731 19.6031114,17 19.4396246,17 Z M11,1 C11,0.44771525 11.4477153,2.84217094e-14 12,2.84217094e-14 C12.5522847,2.84217094e-14 13,0.44771525 13,1 L13,9.5 L12.9985,9.54 L15.2928932,7.28037641 C15.6628636,6.92621673 16.2506057,6.90757675 16.6434994,7.22445646 L16.7071068,7.28037641 C17.0976311,7.65421163 17.0976311,8.26031828 16.7071068,8.6341535 L12.7071068,12.5273159 C12.3165825,12.9011511 11.6834175,12.9011511 11.2928932,12.5273159 L7.29289322,8.6341535 C6.90236893,8.26031828 6.90236893,7.65421163 7.29289322,7.28037641 C7.68341751,6.9065412 8.31658249,6.9065412 8.70710678,7.28037641 L11.000795,9.5402439 L11,1 Z" id="Shape" fill="#0D0E10" fill-rule="nonzero"></path>
    </g>
</svg>