<?xml version="1.0" encoding="UTF-8"?>
<svg width="24px" height="24px" viewBox="0 0 24 24" version="1.1" xmlns="http://www.w3.org/2000/svg" xmlns:xlink="http://www.w3.org/1999/xlink">
    <title>sailing-on-route-arrow-flipped</title>
    <g id="sailing-on-route-arrow-flipped" stroke="none" stroke-width="1" fill="none" fill-rule="evenodd">
        <path d="M5.3658465,0.292893219 L3.47268411,2.29289322 C3.09884889,2.68341751 3.09884889,3.31658249 3.47268411,3.70710678 L5.3658465,5.70710678 C5.73968172,6.09763107 6.34578837,6.09763107 6.71962359,5.70710678 C7.0934588,5.31658249 7.0934588,4.68341751 6.71962359,4.29289322 L6.4597561,3.999205 L21,4 C21.5522847,4 22,4.44771525 22,5 L20.6600726,5 C19.7273857,5 18.9064585,5.61516251 18.644562,6.51032458 L17.917,8.999 L11.0658514,9 C10.1756316,8.99968935 9.38415513,9.56096059 9.07347638,10.4350386 L8.82552141,11.1668001 C8.50108464,12.107378 7.97591083,13.0517779 7.25,14 L1,14 C0.333333333,14 0.214903148,14.3358119 0.644709443,15.0074487 L4.98803463,20.4346698 L4.76611013,20.5524863 C4.51357733,20.6766359 4.24541975,20.8225577 3.9538765,20.9912757 L2.92917557,21.5907624 L2.65426978,21.7434303 L2.43912836,21.8541782 L2.27121708,21.9290907 C2.22172565,21.9487651 2.17801687,21.9634809 2.1380017,21.9742524 L2,21.991 L1,22 C0.44771525,22 0,22.4477153 0,23 C0,23.5522847 0.44771525,24 1,24 L2.11233697,23.9974842 C2.26846825,23.9920914 2.40572914,23.976984 2.54898145,23.942409 L2.6951517,23.9009836 C3.20255881,23.7757751 3.6991341,23.5226099 4.38097697,23.0941017 L5.04975512,22.6646557 L5.31881065,22.4988088 L5.55842074,22.3603952 C6.02144875,22.1383743 6.38582995,22.0263005 6.72609773,22.0041362 L6.8190408,22.0019173 C7.26524543,22.0213166 7.6582995,22.1913031 8.40818433,22.6646557 L9.07696247,23.0941017 C10.0371276,23.6975231 10.9338113,23.9532391 11.7594321,23.9940639 L11.9280616,23.9994731 L12.0720775,23.9994481 L12.2413472,23.993125 C13.0665116,23.9532391 13.9656006,23.6975231 14.9255791,23.0941017 L15.5942272,22.6646557 C16.2939837,22.2228599 16.6829614,22.0453297 17.0944254,22.0078502 L17.196,22.0013333 L17.2537327,22.0027039 C17.596378,22.0207733 17.9618329,22.1300973 18.4270883,22.3514439 C18.582313,22.4366529 18.7548196,22.5401622 18.9520037,22.6646557 L19.6206519,23.0941017 C20.2463502,23.4874019 20.7160052,23.7329892 21.1807709,23.8676389 L21.3202052,23.9047424 C21.4847256,23.9568638 21.6325839,23.9819007 21.7969843,23.992751 L22,24 L23,24 C23.5522847,24 24,23.5522847 24,23 L24,11.1 L23.997,11 L24,5 C24,3.34314575 22.6568542,2 21,2 L6.46,2.0015 L6.71962359,1.70710678 C7.07378327,1.3371364 7.09242325,0.749394321 6.77554354,0.356500603 L6.71962359,0.292893219 C6.34578837,-0.0976310729 5.73968172,-0.0976310729 5.3658465,0.292893219 Z M11.0658514,11 L21.905,11 L21.9389245,11.0078585 C21.974816,11.0230393 22,11.0585786 22,11.1 L22,22 C21.9540501,21.9880609 21.9132071,21.9828528 21.8722485,21.9761228 C21.6905435,21.9279863 21.4331256,21.7983919 20.8991888,21.4894654 L20.2740047,21.1221044 C19.8837765,20.8906497 19.5353474,20.6972342 19.2123464,20.5398187 C18.5038182,20.151193 17.9753619,20 17.2731155,20 L17.1513975,20 C16.2718565,20 15.6171113,20.2358011 14.3581202,20.9030281 L13.6586348,21.2790602 L13.2568361,21.4872607 C12.7593724,21.7373697 12.4065237,21.8802517 12.0968082,21.9487827 L12.0017985,21.9678154 C11.5931489,21.8955059 11.1247997,21.6931336 10.3447972,21.2790602 L9.64544774,20.9030281 C8.56328147,20.3294013 7.92763506,20.0746476 7.21181351,20.0144612 L4,16 L8,16 C8.66292318,16 9.65323754,15.0223979 10.9709431,11.0671936 C10.9852439,11.027016 11.0232063,11 11.0658514,11 Z M14,14 C13.4477153,14 13,14.4477153 13,15 C13,15.5522847 13.4477153,16 14,16 L18,16 C18.5522847,16 19,15.5522847 19,15 C19,14.4477153 18.5522847,14 18,14 L14,14 Z M20.6600726,7 L22,7 L22,9 L20,8.999 L20.5640959,7.07192022 C20.5765672,7.02929345 20.6156589,7 20.6600726,7 Z" id="Shape" fill="#0D0E10" fill-rule="nonzero"></path>
    </g>
</svg>