<?xml version="1.0" encoding="UTF-8"?>
<svg width="24px" height="24px" viewBox="0 0 24 24" version="1.1" xmlns="http://www.w3.org/2000/svg" xmlns:xlink="http://www.w3.org/1999/xlink">
    <title>sailing-trailer</title>
    <g id="sailing-trailer" stroke="none" stroke-width="1" fill="none" fill-rule="evenodd">
        <path d="M19,0 C20.6568542,0 22,1.34314575 22,3 L22,4 L22,15 L22,18 C22,18.8885473 21.6137081,19.6868712 20.9999017,20.2361945 L21,22 C21,23.1045695 20.1045695,24 19,24 L17,24 C15.8954305,24 15,23.1045695 15,22 L14.999,21 L8.999,21 L9,22 C9,23.1045695 8.1045695,24 7,24 L5,24 C3.8954305,24 3,23.1045695 3,22 L2.99911749,20.2353163 C2.3858804,19.6860206 2,18.8880739 2,18 L2,3 C2,1.34314575 3.34314575,0 5,0 L19,0 Z M19,21 L16.999,21 L17,22 L19,22 L19,21 Z M6.999,21 L5,21 L5,22 L7,22 L6.999,21 Z M19,2 L5,2 C4.48716416,2 4.06449284,2.38604019 4.00672773,2.88337887 L4,3 L4,18 C4,18.5522847 4.44771525,19 5,19 L19,19 C19.5522847,19 20,18.5522847 20,18 L20,3 C20,2.44771525 19.5522847,2 19,2 Z M12,2.5 C12.5522847,2.5 13,2.94771525 13,3.5 L13,17.5 C13,18.0522847 12.5522847,18.5 12,18.5 C11.4477153,18.5 11,18.0522847 11,17.5 L11,3.5 C11,2.94771525 11.4477153,2.5 12,2.5 Z M17,13 C17.5522847,13 18,13.4477153 18,14 C18,14.5522847 17.5522847,15 17,15 L16,15 C15.4477153,15 15,14.5522847 15,14 C15,13.4477153 15.4477153,13 16,13 L17,13 Z M8,13 C8.55228475,13 9,13.4477153 9,14 C9,14.5522847 8.55228475,15 8,15 L7,15 C6.44771525,15 6,14.5522847 6,14 C6,13.4477153 6.44771525,13 7,13 L8,13 Z" id="Combined-Shape" fill="#0D0E10" fill-rule="nonzero"></path>
    </g>
</svg>