<?xml version="1.0" encoding="UTF-8"?>
<svg width="24px" height="24px" viewBox="0 0 24 24" version="1.1" xmlns="http://www.w3.org/2000/svg" xmlns:xlink="http://www.w3.org/1999/xlink">
    <title>sailing-location</title>
    <g id="sailing-location" stroke="none" stroke-width="1" fill="none" fill-rule="evenodd">
        <path d="M12,0 C16.6023729,0 20.3333333,3.73096042 20.3333333,8.33333333 C20.3333333,11.1986428 18.176194,15.2389556 13.8903507,20.8238857 L12,23.2641305 L10.4194008,21.2254412 C5.92774976,15.4320176 3.66666667,11.2668645 3.66666667,8.33333333 C3.66666667,3.73096042 7.39762708,0 12,0 Z M12,2 C8.50219658,2 5.66666667,4.83552992 5.66666667,8.33333333 C5.66666667,10.6652023 7.77777778,14.5540912 12,20 L12.5888133,19.232605 C16.4184933,14.1872515 18.3333333,10.5541609 18.3333333,8.33333333 C18.3333333,4.83552992 15.4978034,2 12,2 Z M12,5 C13.6568542,5 15,6.34314575 15,8 C15,9.65685425 13.6568542,11 12,11 C10.3431458,11 9,9.65685425 9,8 C9,6.34314575 10.3431458,5 12,5 Z M12,7 C11.4477153,7 11,7.44771525 11,8 C11,8.55228475 11.4477153,9 12,9 C12.5522847,9 13,8.55228475 13,8 C13,7.48716416 12.6139598,7.06449284 12.1166211,7.00672773 L12,7 Z" id="Shape" fill="#0D0E10" fill-rule="nonzero"></path>
    </g>
</svg>