<?xml version="1.0" encoding="UTF-8"?>
<svg width="24px" height="24px" viewBox="0 0 24 24" version="1.1" xmlns="http://www.w3.org/2000/svg" xmlns:xlink="http://www.w3.org/1999/xlink">
    <title>sailing-ship</title>
    <g id="sailing-ship" stroke="none" stroke-width="1" fill="none" fill-rule="evenodd">
        <path d="M14,2.84217094e-14 C14.5522847,2.84217094e-14 15,0.44771525 15,1 L15,3 L18,3 C18.5522847,3 19,3.44771525 19,4 L19,6 L20,6 C20.5522847,6 21,6.44771525 21,7 L20.9987798,11.387 L22.2713907,11.8965233 C22.7574124,12.090932 23.0112649,12.6272575 22.8535041,13.12638 L20.06,20.999 L21.0708244,21.5907624 C21.4827792,21.8249704 21.7019376,21.9311666 21.8619983,21.9742524 L22,21.991 L23,22 C23.5522847,22 24,22.4477153 24,23 C24,23.5522847 23.5522847,24 23,24 L21.976,23.999 L21.887663,23.9974842 C21.7315318,23.9920914 21.5942709,23.976984 21.4510186,23.942409 L21.3048483,23.9009836 C20.7974412,23.7757751 20.3008659,23.5226099 19.619023,23.0941017 L18.9502449,22.6646557 L18.6811894,22.4988088 L18.4415793,22.3603952 C17.9785513,22.1383743 17.61417,22.0263005 17.2739023,22.0041362 L17.1809592,22.0019173 C16.7347546,22.0213166 16.3417005,22.1913031 15.5918157,22.6646557 L14.9230375,23.0941017 C13.9628724,23.6975231 13.0661887,23.9532391 12.2405679,23.9940639 L12.0719384,23.9994731 L11.9279225,23.9994481 L11.7586528,23.993125 C10.9334884,23.9532391 10.0343994,23.6975231 9.07442092,23.0941017 L8.40577275,22.6646557 C7.70601627,22.2228599 7.31703862,22.0453297 6.90557458,22.0078502 L6.804,22.0013333 L6.74626729,22.0027039 C6.40362201,22.0207733 6.03816706,22.1300973 5.57291174,22.3514439 C5.417687,22.4366529 5.24518039,22.5401622 5.04799627,22.6646557 L4.3793481,23.0941017 C3.75364981,23.4874019 3.28399483,23.7329892 2.81922905,23.8676389 L2.67979484,23.9047424 C2.51527438,23.9568638 2.36741614,23.9819007 2.20301568,23.992751 L2,24 L1,24 C0.44771525,24 0,23.5522847 0,23 C0,22.4477153 0.44771525,22 1,22 L2,22 C2.04594993,21.9880609 2.08679294,21.9828528 2.1277515,21.9761228 C2.30945646,21.9279863 2.56687444,21.7983919 3.10081117,21.4894654 L3.931,21.002 L0.952615319,13.1450973 C0.78262701,12.6419867 1.03553989,12.0937511 1.52860932,11.8965233 L2.99977975,11.307 L3,7 C3,6.44771525 3.44771525,6 4,6 C4.04154354,6 4.08249541,6.00253328 4.12270954,6.00745378 L5,6 L5,4 L5.00672773,3.88337887 C5.06449284,3.38604019 5.48716416,3 6,3 C6.04119444,3 6.0818071,3.00249088 6.12169559,3.00733024 L7.28651534,3.01589128 L8.99979288,3.01647268 L9,1 C9,0.487164161 9.38604019,0.0644928393 9.88337887,0.00672773133 L10,2.84217094e-14 L14,2.84217094e-14 Z M11.8987798,9.90173399 L3.15,13.401 L5.73766121,20.1304067 C6.05350632,20.0396136 6.36742831,20 6.72688451,20 L6.84860255,20 C7.7281435,20 8.38288873,20.2358011 9.64187977,20.9030281 L10.3413652,21.2790602 L10.7431639,21.4872607 C11.2406276,21.7373697 11.5934763,21.8802517 11.9031918,21.9487827 L11.9982015,21.9678154 C12.4068511,21.8955059 12.8752003,21.6931336 13.6552028,21.2790602 L14.3545523,20.9030281 C15.5433683,20.2728692 16.1933167,20.0275317 17.0026638,20.0022169 L17.2710303,20 C17.6268203,20 17.9380089,20.0387946 18.2505907,20.127572 L20.666,13.408 L11.8987798,9.90173399 Z M13.1201217,2 L11,2 L11,4 C11,4.37950651 10.5470377,4.88169807 10.1210814,4.91707638 L7,5 L7,7 C7,7.37950651 6.50685218,7.96127947 6.08089593,7.99665779 L6,8 L5,8 L4.99977975,10.507 L11.5286093,7.89652331 L11.6451144,7.85792273 L11.7577512,7.83494599 L11.9006293,7.82473444 L11.9863256,7.82851603 L12.0930777,7.84368691 L12.20246,7.87180207 L12.2713907,7.89652331 L18.9997798,10.588 L19,8 L18,8 C17.5633792,8 17.0445478,7.44055095 17.0038452,7.07031395 L17,7 L17,5 L13.9601043,4.92041859 C13.5234835,4.92041859 13.1646695,4.63086489 13.1239669,4.2606279 L13.1201217,4.19031394 L13.1201217,2 Z" id="Shape" fill="#0D0E10" fill-rule="nonzero"></path>
    </g>
</svg>