<?xml version="1.0" encoding="UTF-8"?>
<svg width="24px" height="24px" viewBox="0 0 24 24" version="1.1" xmlns="http://www.w3.org/2000/svg" xmlns:xlink="http://www.w3.org/1999/xlink">
    <title>sailing-on-quay</title>
    <g id="sailing-on-quay" stroke="none" stroke-width="1" fill="none" fill-rule="evenodd">
        <path d="M15.1002202,1 C15.652505,1 16.1002202,1.44771525 16.1002202,2 L16.1002202,4 L19.1002202,4 C19.652505,4 20.1002202,4.44771525 20.1002202,5 L20.1002202,7 L21.1002202,7 C21.652505,7 22.1002202,7.44771525 22.1002202,8 L22.099,12.387 L23.3716109,12.8965233 C23.8576326,13.090932 24.1114852,13.6272575 23.9537243,14.12638 L21.16,22 L23,22 C23.5522847,22 24,22.4477153 24,23 C24,23.5522847 23.5522847,24 23,24 L1,24 C0.44771525,24 0,23.5522847 0,23 L0,17 C0,16.4477153 0.44771525,16 1,16 C1.55228475,16 2,16.4477153 2,17 L2,22 L5.031,22 L2.05283556,14.1450973 C1.88284726,13.6419867 2.13576013,13.0937511 2.62882957,12.8965233 L4.1,12.307 L4.10022025,8 C4.10022025,7.44771525 4.5479355,7 5.10022025,7 C5.14176379,7 5.18271565,7.00253328 5.22292979,7.00745378 L6.10022025,7 L6.10022025,5 L6.10694798,4.88337887 C6.16471308,4.38604019 6.58738441,4 7.10022025,4 C7.14141468,4 7.18202734,4.00249088 7.22191583,4.00733024 L8.38673559,4.01589128 L10.1000131,4.01647268 L10.1002202,2 C10.1002202,1.48716416 10.4862604,1.06449284 10.9835991,1.00672773 L11.1002202,1 L15.1002202,1 Z M21.7662202,14.408 L12.999,10.901734 L4.25022025,14.401 L7.04760493,21.6799027 C7.08347593,21.7860693 7.10050557,21.8940576 7.10049205,22.000234 L19.0999522,22.0007302 C19.0999057,21.9007364 19.1149765,21.7990378 19.1467161,21.69862 L21.7662202,14.408 Z M14.220342,3 L12.1002202,3 L12.1002202,5 C12.1002202,5.37950651 11.6472579,5.88169807 11.2213016,5.91707638 L8.10022025,6 L8.10022025,8 C8.10022025,8.37950651 7.60707243,8.96127947 7.18111618,8.99665779 L7.10022025,9 L6.10022025,9 L6.1,11.507 L12.6288296,8.89652331 L12.7063095,8.86911074 L12.8339626,8.83877169 L12.914257,8.82847485 L13.0008495,8.82473444 L13.0865458,8.82851603 L13.193298,8.84368691 L13.3026803,8.87180207 L13.3716109,8.89652331 L20.1,11.588 L20.1002202,9 L19.1002202,9 C18.6635995,9 18.1447681,8.44055095 18.1040654,8.07031395 L18.1002202,8 L18.1002202,6 L15.0603246,5.92041859 C14.6237038,5.92041859 14.2648898,5.63086489 14.2241872,5.2606279 L14.220342,5.19031394 L14.220342,3 Z" id="Shape" fill="#0D0E10" fill-rule="nonzero"></path>
    </g>
</svg>