<?xml version="1.0" encoding="UTF-8"?>
<svg width="24px" height="24px" viewBox="0 0 24 24" version="1.1" xmlns="http://www.w3.org/2000/svg" xmlns:xlink="http://www.w3.org/1999/xlink">
    <title>sailing-trailer-pu</title>
    <g id="sailing-trailer-pu" stroke="none" stroke-width="1" fill="none" fill-rule="evenodd">
        <path d="M21.5,3 C22.8807119,3 24,4.11928813 24,5.5 L24,15.5 C24,16.8807119 22.8807119,18 21.5,18 L15.236,18 L15.0652476,18.3416408 C14.5869643,19.2982075 13.6386567,19.9231744 12.5813919,19.99339 L12.381966,20 L10.8728682,20.0006195 C10.7811759,20.3546659 10.6406206,20.6963091 10.4535994,21.018647 L10.3455161,21.1924317 L10.2758552,21.294521 L10.1898251,21.4125913 L10.0882051,21.5407058 L9.96907734,21.6788906 L9.85585766,21.799724 L9.74834563,21.9053411 L9.63864747,22.0053813 L9.52569034,22.1009606 L9.39413155,22.2031893 L9.24221809,22.3113965 L9.10175525,22.4028258 L8.97324303,22.4790074 L8.83915102,22.551734 L8.70032565,22.6203101 L8.55756297,22.6840165 L8.41260348,22.742021 L8.29423861,22.7851114 L8.08344057,22.8501908 L7.93102307,22.8898046 L7.76295595,22.9258538 L7.58109086,22.9567552 L7.41154482,22.9781577 L7.25448788,22.9911972 L7.227,22.992 L7.1666772,22.9965583 L7,23 C6.88629854,23 6.77512719,22.9952069 6.61463191,22.9813834 L6.40786716,22.9560525 L6.15029774,22.9083987 L5.99188955,22.8704137 L5.82616753,22.8234615 L5.67056077,22.7724062 L5.52746766,22.7188735 L5.3823927,22.6579921 L5.23744908,22.5903429 L5.08141985,22.5089767 L4.91614875,22.4133166 L4.77314107,22.3222391 L4.6514809,22.2373009 L4.52849175,22.1441787 L4.4037048,22.04189 L4.30686754,21.9571598 L4.15333949,21.8092656 L4.05977193,21.7111961 L3.97360681,21.6148335 L3.89364285,21.5193684 L3.79904562,21.397132 L3.69107102,21.2458762 L3.61343171,21.1286041 L3.53876616,21.0056183 C3.35611513,20.6907447 3.2176239,20.3530499 3.12681497,20.0012148 L0,20 L0,5.5 C0,4.11928813 1.11928813,3 2.5,3 L21.5,3 Z M7,17 C6.93753581,17 6.87574044,17.0028636 6.81473801,17.0084666 L6.68526337,17.0246231 L6.53723054,17.0538087 L6.33005441,17.114966 L6.13366661,17.1968595 L6.04614498,17.2416806 C5.95869546,17.289226 5.87526293,17.3430488 5.79637954,17.4025794 L5.65481316,17.5199565 L5.52792983,17.6460972 L5.42367344,17.7689235 L5.35698534,17.8592919 L5.26760632,17.9999275 C5.0976323,18.2933392 5,18.635268 5,19 C5,19.3651469 5.09785457,19.7074387 5.26877052,20.0020822 L5.31887,20.0838648 L5.42684461,20.2351206 L5.50680857,20.3305857 L5.60037613,20.4286552 L5.6715926,20.495132 L5.79637954,20.5974206 L5.91803971,20.6823589 L6.08331081,20.778019 L6.22825444,20.8456682 L6.37134755,20.8992009 L6.53706957,20.9461532 L6.68561354,20.9754322 L6.75403682,20.9850273 L6.91468821,20.9981639 L7.08900888,20.9980548 L7.16746608,20.9930883 L7.131,20.994 L7.24606582,20.9850153 L7.42793091,20.9541139 L7.58034841,20.9145001 L7.66959336,20.8851592 L7.81455285,20.8271547 L7.95337822,20.7585785 L8.08189044,20.6823969 L8.23380391,20.5741897 L8.34676103,20.4786104 L8.45427306,20.3729932 L8.57340083,20.2348084 L8.65943098,20.116738 L8.71409496,20.0310555 L8.73181186,20.0010775 C8.90214543,19.7074387 9,19.3651469 9,19 C9,18.7201427 8.94251971,18.4537107 8.83872106,18.2118659 C8.80754155,18.1392188 8.77217964,18.0687852 8.7329403,18.000873 L8.67968963,17.9139089 L8.57632071,17.768916 L8.43499044,17.6068712 L8.32900165,17.5053966 L8.28202119,17.4648752 L8.20362046,17.4025794 L8.08196029,17.3176411 L7.91715119,17.2222197 L7.7721451,17.1544991 L7.62898506,17.1009091 L7.46318043,17.0539061 L7.31443935,17.0245762 L7.1660972,17.0067987 L7.08362071,17.0017146 L7,17 Z M21.5,5 L2.5,5 C2.22385763,5 2,5.22385763 2,5.5 L2,18.000126 L3.12908495,18.000126 C3.22462659,17.6377378 3.37396916,17.2804573 3.57965113,16.9271707 L3.66903015,16.7865351 L3.74773145,16.6717306 L3.81441955,16.5813622 L3.89890115,16.4746787 L4.00315753,16.3518525 L4.11787308,16.227739 L4.24475641,16.1015983 L4.37826613,15.9803372 L4.51983252,15.86296 L4.59161772,15.8061618 C4.74970072,15.686862 4.91652433,15.5793565 5.13450723,15.4615355 L5.22202886,15.4167144 L5.36391273,15.3509237 L5.56030053,15.2690302 L5.76382065,15.1967951 L5.97099677,15.1356379 L6.1503657,15.0915815 L6.29839853,15.0623959 L6.43761353,15.040015 L6.63180948,15.0168499 C6.75392857,15.0056333 6.87676486,15 7.041,15.0003984 L7.2066743,15.0055037 L7.28915078,15.0105879 L7.55241794,15.0387851 L7.70136431,15.0623608 L7.85010538,15.0916907 L8.00865484,15.1297289 L8.17445947,15.176732 L8.3301414,15.2278422 L8.47330144,15.2814321 L8.61844076,15.3423778 L8.76344685,15.4100984 L8.91926758,15.4913925 L9.08407668,15.5868139 L9.22685893,15.6777609 L9.3485191,15.7626991 L9.44783064,15.8367119 L9.63527006,15.9909123 L9.7121158,16.060753 L9.81810459,16.1622275 L9.94225746,16.2922815 L10.0835877,16.4543263 L10.2048359,16.6079086 L10.3082049,16.7529016 L10.384739,16.8685349 L10.4623992,16.996392 C10.6446919,17.3110691 10.7828979,17.6485023 10.8735074,18.000126 L12.381966,18.000126 C12.7607381,18.000126 13.1070012,17.7859976 13.2763932,17.4472136 L13.7236068,16.5527864 C13.8929988,16.2140024 14.2392619,16 14.618034,16 L21.5,16 C21.7761424,16 22,15.7761424 22,15.5 L22,5.5 C22,5.22385763 21.7761424,5 21.5,5 Z M16.1967394,7.37653026 C16.5872637,7.00269504 17.2204286,7.00269504 17.6109529,7.37653026 L19.6109529,9.26969265 C20.0014772,9.64352787 20.0014772,10.2496345 19.6109529,10.6234697 L19.5473456,10.6793897 C19.1544518,10.9962694 18.5667098,10.9776294 18.1967394,10.6234697 L17.9023462,10.3638462 L17.9038462,12.9038462 C17.9038462,13.4561309 17.4561309,13.9038462 16.9038462,13.9038462 C16.3515614,13.9038462 15.9038462,13.4561309 15.9038462,12.9038462 L15.9046412,10.3636023 L15.6109529,10.6234697 C15.2204286,10.997305 14.5872637,10.997305 14.1967394,10.6234697 C13.8062151,10.2496345 13.8062151,9.64352787 14.1967394,9.26969265 L16.1967394,7.37653026 Z" id="Shape" fill="#0D0E10" fill-rule="nonzero"></path>
    </g>
</svg>