<?xml version="1.0" encoding="UTF-8"?>
<svg width="24px" height="24px" viewBox="0 0 24 24" version="1.1" xmlns="http://www.w3.org/2000/svg" xmlns:xlink="http://www.w3.org/1999/xlink">
    <title>sailing-bus</title>
    <g id="sailing-bus" stroke="none" stroke-width="1" fill="none" fill-rule="evenodd">
        <path d="M20,22 C20,23.1045695 19.1045695,24 18,24 L16,24 C14.8954305,24 14,23.1045695 14,22 L14,21 L10,21.001 L10,22 C10,23.1045695 9.1045695,24 8,24 L6,24 C4.8954305,24 4,23.1045695 4,22 L4,19 L4.01556722,19.0011995 C3.38076225,18.1653335 3,17.1261445 3,16 L3.00101139,7 L2,7 L2,8 C2,8.55228475 1.55228475,9 1,9 C0.44771525,9 0,8.55228475 0,8 L0,6 C0,5.44771525 0.44771525,5 1,5 L3,5 C3,2.23857625 5.28945298,0 8,0 L16,0 C18.710547,0 21,2.23857625 21,5 L23,5 C23.5522847,5 24,5.44771525 24,6 L24,8 C24,8.55228475 23.5522847,9 23,9 C22.4477153,9 22,8.55228475 22,8 L22,7 L21,7 L21,16 C21,17.1261445 20.6192378,18.1653335 19.9844328,19.0011995 L20,19 L20,22 Z M18.0005187,20.5741632 C17.4465525,20.8202872 16.8427274,20.9680511 16.2130817,20.9953805 L16,21 L16,22 L18,22 L18.0005187,20.5741632 Z M6.00047415,20.5746042 L6,22 L8,22 L8,21.001 C7.29390706,21 6.61638929,20.8480916 6.00047415,20.5746042 Z M19,13 C16.6666667,13.6666667 14.3333333,14 12,14 C9.66666667,14 7.33333333,13.6666667 5,13 L5,16 C5,17.6568542 6.38265004,19 8,19 L16,19 C17.61735,19 19,17.6568542 19,16 L19,13 Z M9,15 C9.55228475,15 10,15.4477153 10,16 C10,16.5522847 9.55228475,17 9,17 C8.44771525,17 8,16.5522847 8,16 C8,15.4477153 8.44771525,15 9,15 Z M15,15 C15.5522847,15 16,15.4477153 16,16 C16,16.5522847 15.5522847,17 15,17 C14.4477153,17 14,16.5522847 14,16 C14,15.4477153 14.4477153,15 15,15 Z M16,2 L8,2 C6.38265004,2 5,3.34314575 5,5 L5,11 C7.33333333,11.6666667 9.66666667,12 12,12 C14.3333333,12 16.6666667,11.6666667 19,11 L19,5 C19,3.34314575 17.61735,2 16,2 Z" id="Shape" fill="#0D0E10" fill-rule="nonzero"></path>
    </g>
</svg>