<?xml version="1.0" encoding="UTF-8"?>
<svg width="24px" height="24px" viewBox="0 0 24 24" version="1.1" xmlns="http://www.w3.org/2000/svg" xmlns:xlink="http://www.w3.org/1999/xlink">
    <title>sailing-import-export</title>
    <g id="sailing-import-export" stroke="none" stroke-width="1" fill="none" fill-rule="evenodd">
        <path d="M14.9999971,11 L14.9999971,8 C14.9999971,7.07663508 16.1445366,6.64659247 16.7525767,7.34149539 L23.7525767,15.3414954 C24.0992556,15.7376998 24.079373,16.3348406 23.7071068,16.7071068 L16.7071068,23.7071068 L16.6225268,23.7832252 C15.9855136,24.2974338 14.9999971,23.8521699 14.9999971,23 L14.9999971,20 L12.9999971,20 C12.4477153,20 11.9999971,19.5522847 11.9999971,19 C11.9999971,18.4477153 12.4477153,18 12.9999971,18 L15.9999971,18 L16.1166211,18.0067277 C16.6139598,18.0644928 16.9999971,18.4871642 16.9999971,19 L16.9999971,20.585 L21.632,15.953 L16.9999971,10.66 L16.9999971,12 C16.9999971,12.5522847 16.5522847,13 15.9999971,13 L8.9999971,13 L8.9999971,16 C8.9999971,16.8848914 7.94885437,17.3167142 7.32610096,16.7395541 L7.24742331,16.6585046 L0.247423305,8.65850461 C-0.0992555813,8.26230017 -0.0793729562,7.66515939 0.292893219,7.29289322 L7.29289322,0.292893219 C7.92285808,-0.337071642 8.9999971,0.109095149 8.9999971,1 L8.9999971,4 L10.9999971,4 C11.5128358,4 11.9355072,4.38604019 11.9932723,4.88337887 L11.9999971,5 C11.9999971,5.55228475 11.5522847,6 10.9999971,6 L7.9999971,6 C7.44771525,6 6.9999971,5.55228475 6.9999971,5 L6.9999971,3.414 L2.368,8.046 L6.9999971,13.339 L6.9999971,12 C6.9999971,11.4871642 7.38604019,11.0644928 7.88337887,11.0067277 L7.9999971,11 L14.9999971,11 Z" id="Path" fill="#0D0E10" fill-rule="nonzero"></path>
    </g>
</svg>