<?xml version="1.0" encoding="UTF-8"?>
<svg width="24px" height="24px" viewBox="0 0 24 24" version="1.1" xmlns="http://www.w3.org/2000/svg" xmlns:xlink="http://www.w3.org/1999/xlink">
    <title>sailing-ticket-filled</title>
    <g id="sailing-ticket-filled" stroke="none" stroke-width="1" fill="none" fill-rule="evenodd">
        <path d="M21.5,5 C22.3284208,5 23.0000147,5.67156657 23.0000147,6.5 L23.0000147,18.5 C23.0000147,19.3284334 22.3284208,20 21.5,20 L2.5,20 C1.67157288,20 1,19.3284271 1,18.499875 L1.00043316,15.0351037 L1.6250462,14.7821979 C2.92574576,14.2555447 3.5,13.5817347 3.5,12.5 C3.5,11.4182653 2.92574576,10.7444553 1.6250462,10.2178021 L1.00043316,9.96489628 L1,6.5 C1,5.67157288 1.67157288,5 2.5,5 L21.5,5 Z M9,7 C8.44771525,7 8,7.44771525 8,8 L8,17 C8,17.5522847 8.44771525,18 9,18 C9.55228475,18 10,17.5522847 10,17 L10,8 C10,7.44771525 9.55228475,7 9,7 Z" id="Shape" fill="#0D0E10" fill-rule="nonzero"></path>
    </g>
</svg>