<?xml version="1.0" encoding="UTF-8"?>
<svg width="24px" height="24px" viewBox="0 0 24 24" version="1.1" xmlns="http://www.w3.org/2000/svg" xmlns:xlink="http://www.w3.org/1999/xlink">
    <title>sailing-trailer</title>
    <g id="sailing-trailer" stroke="none" stroke-width="1" fill="none" fill-rule="evenodd">
        <path d="M21,3 C22.6568542,3 24,4.34314575 24,6 L24,17 C24,18.6568542 22.6568542,20 21,20 L20,20 L11,20 C11,22.209139 9.209139,24 7,24 C4.790861,24 3,22.209139 3,20 C1.34314575,20 0,18.6568542 0,17 L0,6 C0,4.34314575 1.34314575,3 3,3 L21,3 Z M7,18 C5.9456382,18 5.08183488,18.8158778 5.00548574,19.8507377 L5,20 C5,21.1045695 5.8954305,22 7,22 C8.1045695,22 9,21.1045695 9,20 C9,18.8954305 8.1045695,18 7,18 Z M21,5 L3,5 C2.44771525,5 2,5.44771525 2,6 L2,17 C2,17.5522847 2.44771525,18 3,18 L3.53519846,18 C4.22683444,16.8043432 5.51948501,16 7,16 C8.48051499,16 9.77316556,16.8043432 10.4648015,18 L21,18 C21.5522847,18 22,17.5522847 22,17 L22,6 C22,5.44771525 21.5522847,5 21,5 Z" id="Shape" fill="#0D0E10" fill-rule="nonzero"></path>
    </g>
</svg>