<?xml version="1.0" encoding="UTF-8"?>
<svg width="24px" height="24px" viewBox="0 0 24 24" version="1.1" xmlns="http://www.w3.org/2000/svg" xmlns:xlink="http://www.w3.org/1999/xlink">
    <title>sailing-car</title>
    <g id="sailing-car" stroke="none" stroke-width="1" fill="none" fill-rule="evenodd">
        <path d="M18.2854819,2 C19.6133136,2.00190604 20.772065,2.89346669 21.1335234,4.18308236 L21.7986818,7.11580464 C22.0079698,7.04187313 22.2466499,7 22.5,7 C23.3284271,7 24,7.44771525 24,8 C24,8.55228475 23.3284271,9 22.5,9 C22.4054815,9 22.3130048,8.9941719 22.2233344,8.98302534 L22.2937164,9.29251502 C23.3029496,9.77562669 24,10.8064109 24,12 L24,19.9230769 C24,21.0542526 23.121806,22 22,22 L19,22 C17.878194,22 17,21.0542526 17,19.9230769 L17,19 L7,19 L7,19.9230769 C7,21.0542526 6.121806,22 5,22 L2,22 C0.878193995,22 0,21.0542526 0,19.9230769 L0,12 C0,10.8692654 0.625569964,9.88464051 1.54949806,9.37333713 L1.636,8.995 L1.5,9 C0.723349571,9 0.0845593213,8.60650027 0.00774433091,8.10224419 L0,8 C0,7.44771525 0.671572875,7 1.5,7 C1.70521712,7 1.90080893,7.02747391 2.07895108,7.0772055 L2.7449249,4.18017691 C2.78896728,4.02300414 2.84533913,3.87036311 2.91403845,3.72214444 C2.99685801,3.54414794 3.09522117,3.37697599 3.20879113,3.22077733 C3.32713122,3.0579033 3.46141172,2.90769074 3.64026694,2.74532988 L3.82234402,2.5956648 L3.9982564,2.47325185 L4.26030367,2.32110965 L4.43030115,2.24079635 L4.59704086,2.1750253 L4.83261821,2.10054996 L5.01676349,2.05742967 L5.16989978,2.03057588 C5.2980134,2.01178827 5.42761636,2.00159387 5.55801298,2 L18.2854819,2 Z M22,18.235 L21.8944272,18.2888544 C20.9946257,18.7387551 20.0059432,18.9811747 19.0010978,18.9989466 L19,19.9230769 C19,19.9814376 19.0172365,20 19,20 L22,20 C21.9827635,20 22,19.9814376 22,19.9230769 L22,18.235 Z M2,18.236 L2,19.9230769 C2,19.9814376 2.0172365,20 2,20 L5,20 C4.9827635,20 5,19.9814376 5,19.9230769 L5,18.997 L4.77009743,18.9910088 C3.8442826,18.9431264 2.93698583,18.7045609 2.10557281,18.2888544 L2,18.236 Z M21,11 L3,11 C2.44771525,11 2,11.4477153 2,12 L2,15.381966 C2,15.7607381 2.21400238,16.1070012 2.5527864,16.2763932 L3,16.5 C3.65762878,16.8288144 4.38278266,17 5.11803399,17 L18.881966,17 C19.6172173,17 20.3423712,16.8288144 21,16.5 L21.4472136,16.2763932 C21.7859976,16.1070012 22,15.7607381 22,15.381966 L22,12 C22,11.4477153 21.5522847,11 21,11 Z M5,13 C5.55228475,13 6,13.4477153 6,14 C6,14.5522847 5.55228475,15 5,15 C4.44771525,15 4,14.5522847 4,14 C4,13.4477153 4.44771525,13 5,13 Z M19,13 C19.5522847,13 20,13.4477153 20,14 C20,14.5522847 19.5522847,15 19,15 C18.4477153,15 18,14.5522847 18,14 C18,13.4477153 18.4477153,13 19,13 Z M18.2786712,4.00006886 L5.581,3.999 L5.49078034,4.00442213 L5.43114249,4.01297763 L5.38417817,4.02143375 L5.29026434,4.04967024 L5.20938455,4.0794152 L5.09676873,4.1422935 L5.05186504,4.17135648 L4.95889776,4.24850524 C4.91016586,4.29305245 4.86589175,4.34257959 4.82660371,4.39665247 C4.78872713,4.44874612 4.7558774,4.50457549 4.72798411,4.5645214 C4.70496816,4.61417916 4.68581623,4.66603783 4.67058786,4.72038228 L3.749,9 L20.115,9 L19.2069119,4.71988674 C19.0975547,4.32972602 18.7760728,4.05455305 18.3947207,4.00729567 L18.2786712,4.00006886 Z" id="Shape" fill="#0D0E10" fill-rule="nonzero"></path>
    </g>
</svg>