<?xml version="1.0" encoding="UTF-8"?>
<svg width="24px" height="24px" viewBox="0 0 24 24" version="1.1" xmlns="http://www.w3.org/2000/svg" xmlns:xlink="http://www.w3.org/1999/xlink">
    <title>sailing-no-ticket</title>
    <g id="sailing-no-ticket" stroke="none" stroke-width="1" fill="none" fill-rule="evenodd">
        <path d="M18.45789,0.474480802 L18.5683234,0.475831638 C18.7158085,0.48581931 18.863345,0.528797333 19,0.607695155 C19.4782926,0.88383753 19.6421678,1.49542793 19.3660254,1.97372056 L6.3660254,23.0262794 C6.20822976,23.2995895 5.94090007,23.4702327 5.6514991,23.5147733 L5.54210997,23.5255192 C5.35863986,23.5334247 5.17081879,23.4909271 5,23.3923048 C4.52170738,23.1161625 4.35783222,22.5045721 4.6339746,22.0262794 L17.6339746,0.973720558 C17.8114947,0.666246729 18.1276438,0.488710731 18.45789,0.474480802 Z M14.59,3.99938661 L13.355,5.99938661 L10,6 L10,11.4323866 L8,14.6713866 L8,6 L2,6 L2,9 C3.65685425,9 5,10.3431458 5,12 C5,13.6568542 3.65685425,15 2,15 L2.00099983,18 L5.945,17.9993866 L4.71,19.9993866 L1.5,20 C0.671572463,20 0,19.3679314 0,18.5881176 L0,14 L0.00672773133,13.8833789 C0.0644928393,13.3860402 0.487164161,13 1,13 L2,13 C2.55228475,13 3,12.5522847 3,12 C3,11.4477153 2.55228475,11 2,11 L1,11 L0.883378875,10.9932723 C0.38604019,10.9355072 0,10.5128358 0,10 L0,5.41176471 C0,4.63206859 0.671572463,4 1.5,4 L14.59,3.99938661 Z M19.29,3.99938661 L22.4999862,4 C23.3284065,4 24,4.63206265 24,5.41176471 L24,18.5882353 C24,19.3679373 23.3284065,20 22.4999862,20 L9.409,19.9993866 L10.644,17.9993866 L22,18 L22,6 L18.055,5.99938661 L19.29,3.99938661 Z" id="Shape" fill="#0D0E10" fill-rule="nonzero"></path>
    </g>
</svg>