<?xml version="1.0" encoding="UTF-8"?>
<svg width="24px" height="24px" viewBox="0 0 24 24" version="1.1" xmlns="http://www.w3.org/2000/svg" xmlns:xlink="http://www.w3.org/1999/xlink">
    <title>sailing-route</title>
    <g id="sailing-route" stroke="none" stroke-width="1" fill="none" fill-rule="evenodd">
        <path d="M12,0 C18.627417,0 24,5.372583 24,12 C24,18.627417 18.627417,24 12,24 C5.372583,24 0,18.627417 0,12 C0,5.372583 5.372583,0 12,0 Z M12,2 C6.4771525,2 2,6.4771525 2,12 C2,17.5228475 6.4771525,22 12,22 C17.5228475,22 22,17.5228475 22,12 C22,6.4771525 17.5228475,2 12,2 Z M18.3537317,7.47854423 L15.1696259,14.2000928 C15.0712008,14.405223 14.9057669,14.5706568 14.7006367,14.669082 L7.97803332,17.8532864 C7.12886003,18.2554431 6.24405493,17.3705633 6.64628339,16.521424 L9.83091801,9.79936326 C9.92934319,9.59423309 10.094777,9.42879924 10.2999072,9.33037406 L17.0219985,6.14669853 C17.8711542,5.74458673 18.7559152,6.6294225 18.3537317,7.47854423 Z M15.347519,9.15248099 L11.4831804,10.9817662 L9.65248099,14.8461048 L13.5175267,13.0161124 L15.347519,9.15248099 Z" id="Shape" fill="#0D0E10" fill-rule="nonzero"></path>
    </g>
</svg>