<?xml version="1.0" encoding="UTF-8"?>
<svg width="24px" height="24px" viewBox="0 0 24 24" version="1.1" xmlns="http://www.w3.org/2000/svg" xmlns:xlink="http://www.w3.org/1999/xlink">
    <title>sailing-shoulder</title>
    <g id="sailing-shoulder" stroke="none" stroke-width="1" fill="none" fill-rule="evenodd">
        <path d="M12,0 C18.627417,0 24,5.372583 24,12 C24,18.627417 18.627417,24 12,24 C5.372583,24 0,18.627417 0,12 C0,5.372583 5.372583,0 12,0 Z M12,2 C6.4771525,2 2,6.4771525 2,12 C2,17.5228475 6.4771525,22 12,22 C17.5228475,22 22,17.5228475 22,12 C22,6.4771525 17.5228475,2 12,2 Z M13.0119267,4.06339009 C16.9566407,4.31049867 20,7.92449316 20,12 C20,16.0704977 16.9648251,19.6844563 13.0264524,19.9347629 C12,20 12,20 12,19 C12,13.5068603 12,7.8615433 12,5 C12,4 12,4 13.0119267,4.06339009 Z" id="Shape" fill="#0D0E10" fill-rule="nonzero"></path>
    </g>
</svg>