<?xml version="1.0" encoding="UTF-8"?>
<svg width="24px" height="24px" viewBox="0 0 24 24" version="1.1" xmlns="http://www.w3.org/2000/svg" xmlns:xlink="http://www.w3.org/1999/xlink">
    <title>sailing-tram</title>
    <g id="sailing-tram" stroke="none" stroke-width="1" fill="none" fill-rule="evenodd">
        <path d="M15,3 C17.710547,3 20,5.23857625 20,8 L20,16 C20,18.0451698 18.7441888,19.8035472 16.9915794,20.5781244 L18.9497475,22.5355339 C19.3402718,22.9260582 19.3402718,23.5592232 18.9497475,23.9497475 C18.5592232,24.3402718 17.9260582,24.3402718 17.5355339,23.9497475 L14.7071068,21.1213203 C14.6691146,21.0833282 14.6348185,21.0430395 14.6042185,21.0009013 L10.0526358,21.0009013 C10.0220358,21.0430395 9.98773965,21.0833282 9.94974747,21.1213203 L7.12132034,23.9497475 C6.73079605,24.3402718 6.09763107,24.3402718 5.70710678,23.9497475 C5.31658249,23.5592232 5.31658249,22.9260582 5.70710678,22.5355339 L7.48418964,20.7599498 C5.48758004,20.1120956 4,18.2259088 4,16 L4,8 C4,5.23857625 6.28945298,3 9,3 L15,3 Z M18,10 L6,10 L6,16 C6,17.6568542 7.38265004,19 9,19 L15,19 C16.61735,19 18,17.6568542 18,16 L18,10 Z M9,15 C9.55228475,15 10,15.4477153 10,16 C10,16.5522847 9.55228475,17 9,17 C8.44771525,17 8,16.5522847 8,16 C8,15.4477153 8.44771525,15 9,15 Z M15,15 C15.5522847,15 16,15.4477153 16,16 C16,16.5522847 15.5522847,17 15,17 C14.4477153,17 14,16.5522847 14,16 C14,15.4477153 14.4477153,15 15,15 Z M15,5 L9,5 C7.38265004,5 6,6.34314575 6,8 L18,8 C18,6.34314575 16.61735,5 15,5 Z M10,0 L14,0 C14.5522847,-1.01453063e-16 15,0.44771525 15,1 C15,1.55228475 14.5522847,2 14,2 L10,2 C9.44771525,2 9,1.55228475 9,1 C9,0.44771525 9.44771525,6.76353751e-17 10,0 Z" id="Combined-Shape" fill="#0D0E10" fill-rule="nonzero"></path>
    </g>
</svg>