<?xml version="1.0" encoding="UTF-8"?>
<svg width="24px" height="24px" viewBox="0 0 24 24" version="1.1" xmlns="http://www.w3.org/2000/svg" xmlns:xlink="http://www.w3.org/1999/xlink">
    <title>sailing-truck-side</title>
    <g id="sailing-truck-side" stroke="none" stroke-width="1" fill="none" fill-rule="evenodd">
        <path d="M10,0 C11.3062521,0 12.4175144,0.834850101 12.8293257,2.00008893 L17.8091175,2 C19.6757839,2 21.2942756,3.29110426 21.709098,5.11109483 L22.4354861,8.29804846 C22.9526387,10.5670024 23.1742829,12.8932953 23.0949078,15.2190852 L23,18 C23,20.209139 21.209139,22 19,22 L18.4642293,22.0011092 C17.7724528,23.1961002 16.4801068,24 15,24 C13.5198932,24 12.2275472,23.1961002 11.5357707,22.0011092 L1,22 L1,0 L10,0 Z M15,18 C13.8954305,18 13,18.8954305 13,20 C13,21.1045695 13.8954305,22 15,22 C16.1045695,22 17,21.1045695 17,20 C17,18.9456382 16.1841222,18.0818349 15.1492623,18.0054857 L15,18 Z M11.5351985,17.9998796 L3,18 L3,20 L11,20 C11,19.271376 11.1948152,18.5882535 11.5351985,17.9998796 Z M18.4648015,17.9998796 C18.7739115,18.5341956 18.9629732,19.1466497 18.9951047,19.8003597 L19,20 C20.1045695,20 21,19.1045695 21,18 L18.4648015,17.9998796 Z M17.8091175,4 L13,4 L13,16 L21.067,16 L21.0960715,15.1508684 C21.1622175,13.2127101 21.0025989,11.2741747 20.6209357,9.37430523 L20.4854959,8.74250104 L19.7591078,5.55554741 C19.5516966,4.64555213 18.7424507,4 17.8091175,4 Z M10,2 L3,2 L3,16 L11,16 L11,2.994 L10.9932723,2.88337887 C10.9355072,2.38604019 10.5128358,2 10,2 Z M18,8 C18.5522847,8 19,8.44771525 19,9 C19,9.55228475 18.5522847,10 18,10 L15,10 C14.4477153,10 14,9.55228475 14,9 C14,8.44771525 14.4477153,8 15,8 L18,8 Z" id="Shape" fill="#0D0E10" fill-rule="nonzero"></path>
    </g>
</svg>