<?xml version="1.0" encoding="UTF-8"?>
<svg width="24px" height="24px" viewBox="0 0 24 24" version="1.1" xmlns="http://www.w3.org/2000/svg" xmlns:xlink="http://www.w3.org/1999/xlink">
    <title>sailing-truck-alt</title>
    <g id="sailing-truck-alt" stroke="none" stroke-width="1" fill="none" fill-rule="evenodd">
        <path d="M9.18695652,0 C10.6839519,0 12,1.1465486 12,2.70832808 L12,6 L17.3796146,6 C18.5407378,6 19.6325528,6.59305948 20.2262634,7.58903198 L23.717926,13.4464307 C23.9025378,13.7561241 24,14.1099627 24,14.470506 L24,18.9998729 C24,20.0541597 23.184282,20.9179552 22.1495051,20.9944869 L22.0002541,21 L20.9644196,21.0009499 C20.7213961,22.6966339 19.2629068,24 17.5,24 C15.7367468,24 14.2780307,22.6961216 14.0354373,20.9999503 L0,21 L0,19 L10,19 L10,2.70832808 C10,2.31712929 9.63598804,2 9.18695652,2 L0,2 L0,0 L9.18695652,0 Z M17.5,19 C16.6786305,19 16.011454,19.660179 16.0001459,20.4788617 L16,20.521 L16.0068666,20.64446 C16.0795513,21.4051119 16.7203039,22 17.5,22 C18.3284271,22 19,21.3284271 19,20.5 C19,19.6715729 18.3284271,19 17.5,19 Z M17.3796146,8 L12,8 L12,18.9999667 L14.3368314,18.9999667 C14.8985702,17.817511 16.1038151,17 17.5,17 C18.8961849,17 20.1014298,17.817511 20.6631686,18.9999667 L22,18.9999667 L22,15.0213913 C22,14.6608479 21.9025378,14.3070094 21.717926,13.997316 L18.5083375,8.61310735 L18.5083375,8.61310735 C18.2830377,8.23515826 17.8501143,8 17.3796146,8 Z M17,10 C17.5522847,10 18,10.4477153 18,11 C18,11.5522847 17.5522847,12 17,12 L15,12 C14.4477153,12 14,11.5522847 14,11 C14,10.4477153 14.4477153,10 15,10 L17,10 Z" id="Shape" fill="#0D0E10" fill-rule="nonzero"></path>
    </g>
</svg>