<?xml version="1.0" encoding="UTF-8"?>
<svg width="24px" height="24px" viewBox="0 0 24 24" version="1.1" xmlns="http://www.w3.org/2000/svg" xmlns:xlink="http://www.w3.org/1999/xlink">
    <title>sailing-cargo</title>
    <g id="sailing-cargo" stroke="none" stroke-width="1" fill="none" fill-rule="evenodd">
        <path d="M17.49755,1 C18.2701372,1 19.0110812,1.30690906 19.5573828,1.85321068 L22.1467893,4.44261717 C22.6930909,4.98891879 23,5.7298628 23,6.50244996 L23,20.0869565 C23,21.695786 21.695786,23 20.0869565,23 L2.91304348,23 C1.36167219,23 1.02339362,21.7872806 1.00120966,20.25812 L1,6.50244996 C1,5.7298628 1.30690906,4.98891879 1.85321068,4.44261717 L4.44261717,1.85321068 C4.98891879,1.30690906 5.7298628,1 6.50244996,1 L17.49755,1 Z M10,13 L9.88337887,12.9932723 C9.38604019,12.9355072 9,12.5128358 9,12 L9,9 L3,9 L3,20.0869565 C3,20.5912165 3.40878349,21 3.91304348,21 L20.0869565,21 C20.5912165,21 21,20.5912165 21,20.0869565 L21,9 L15,9 L15,12 C15,12.5522847 14.5522847,13 14,13 L10,13 Z M13,9 L11,9 L11,11 L13,11 L13,9 Z M17.49755,3 L6.50244996,3 C6.26029578,3 6.0280596,3.09619538 5.85683073,3.26742424 L3.26742424,5.85683073 C3.09619538,6.0280596 3,6.26029578 3,6.50244996 L3,7 L21,7 L21,6.50244996 C21,6.26029578 20.9038046,6.0280596 20.7325758,5.85683073 L18.1431693,3.26742424 C17.9719404,3.09619538 17.7397042,3 17.49755,3 Z" id="Shape" fill="#0D0E10" fill-rule="nonzero"></path>
    </g>
</svg>