<?xml version="1.0" encoding="UTF-8"?>
<svg width="24px" height="24px" viewBox="0 0 24 24" version="1.1" xmlns="http://www.w3.org/2000/svg" xmlns:xlink="http://www.w3.org/1999/xlink">
    <title>sailing-gate</title>
    <g id="sailing-gate" stroke="none" stroke-width="1" fill="none" fill-rule="evenodd">
        <path d="M6,2 C7.65685425,2 9,3.34314575 9,5 L9,6 L20,6 C21.6568542,6 23,7.34314575 23,9 L23,10 C23,11.6568542 21.6568542,13 20,13 L9,13 L9,20 C9,21.6568542 7.65685425,23 6,23 L4,23 C2.34314575,23 1,21.6568542 1,20 L1,5 C1,3.34314575 2.34314575,2 4,2 L6,2 Z M6,4 L4,4 C3.44771525,4 3,4.44771525 3,5 L3,20 C3,20.5522847 3.44771525,21 4,21 L6,21 C6.55228475,21 7,20.5522847 7,20 L7,5 C7,4.44771525 6.55228475,4 6,4 Z M20,8 L9,8 L9,11 L20,11 C20.5522847,11 21,10.5522847 21,10 L21,9 C21,8.44771525 20.5522847,8 20,8 Z" id="Shape" fill="#0D0E10" fill-rule="nonzero"></path>
        <circle id="Oval" fill="#0D0E10" fill-rule="nonzero" cx="5" cy="7" r="1"></circle>
    </g>
</svg>