<?xml version="1.0" encoding="UTF-8"?>
<svg width="24px" height="24px" viewBox="0 0 24 24" version="1.1" xmlns="http://www.w3.org/2000/svg" xmlns:xlink="http://www.w3.org/1999/xlink">
    <title>search-error</title>
    <g id="search-error" stroke="none" stroke-width="1" fill="none" fill-rule="evenodd">
        <path d="M12,3 C16.9705627,3 21,7.02943725 21,12 C21,14.1265997 20.2624274,16.0809302 19.0291408,17.6211326 L19.0857864,17.6715729 L22.9748737,21.5606602 C23.365398,21.9511845 23.365398,22.5843494 22.9748737,22.9748737 C22.5843494,23.365398 21.9511845,23.365398 21.5606602,22.9748737 L17.6715729,19.0857864 L17.6211326,19.0291408 C16.0809302,20.2624274 14.1265997,21 12,21 C7.02943725,21 3,16.9705627 3,12 C3,7.02943725 7.02943725,3 12,3 Z M12,5 C8.13400675,5 5,8.13400675 5,12 C5,15.8659932 8.13400675,19 12,19 C15.8659932,19 19,15.8659932 19,12 C19,8.13400675 15.8659932,5 12,5 Z M10.8284271,9.41421356 L12.2426407,10.8284271 L13.6568542,9.41421356 C14.0473785,9.02368927 14.6805435,9.02368927 15.0710678,9.41421356 C15.4615921,9.80473785 15.4615921,10.4379028 15.0710678,10.8284271 L13.6568542,12.2426407 L15.0710678,13.6568542 C15.4615921,14.0473785 15.4615921,14.6805435 15.0710678,15.0710678 C14.6805435,15.4615921 14.0473785,15.4615921 13.6568542,15.0710678 L12.2426407,13.6568542 L10.8284271,15.0710678 C10.4379028,15.4615921 9.80473785,15.4615921 9.41421356,15.0710678 C9.02368927,14.6805435 9.02368927,14.0473785 9.41421356,13.6568542 L10.82772,12.2419336 L9.41421356,10.8284271 C9.02368927,10.4379028 9.02368927,9.80473785 9.41421356,9.41421356 C9.80473785,9.02368927 10.4379028,9.02368927 10.8284271,9.41421356 Z" id="Shape" fill="#0D0E10" fill-rule="nonzero"></path>
    </g>
</svg>