<?xml version="1.0" encoding="UTF-8"?>
<svg width="24px" height="24px" viewBox="0 0 24 24" version="1.1" xmlns="http://www.w3.org/2000/svg" xmlns:xlink="http://www.w3.org/1999/xlink">
    <title>service</title>
    <g id="service" stroke="none" stroke-width="1" fill="none" fill-rule="evenodd">
        <path d="M23,22 C23,22.5522847 22.5522847,23 22,23 C21.4477153,23 21,22.5522847 21,22 L21,17 C21,16.4477153 20.5522847,16 20,16 L4,16 C3.44771525,16 3,16.4477153 3,17 L3,22 C3,22.5522847 2.55228475,23 2,23 C1.44771525,23 1,22.5522847 1,22 L1,17 C1,15.3431458 2.34314575,14 4,14 L5,14 C5,11.790861 6.790861,10 9,10 L15,10 C17.209139,10 19,11.790861 19,14 L20,14 C21.6568542,14 23,15.3431458 23,17 L23,22 Z M18,18 C18.5522847,18 19,18.4477153 19,19 C19,19.5522847 18.5522847,20 18,20 L16,20 C15.4477153,20 15,19.5522847 15,19 C15,18.4477153 15.4477153,18 16,18 L18,18 Z M15,12 L9,12 C7.8954305,12 7,12.8954305 7,14 L17,14 C17,12.8954305 16.1045695,12 15,12 Z M12,1 C14.209139,1 16,2.790861 16,5 C16,7.209139 14.209139,9 12,9 C9.790861,9 8,7.209139 8,5 C8,2.790861 9.790861,1 12,1 Z M12,3 C10.8954305,3 10,3.8954305 10,5 C10,6.1045695 10.8954305,7 12,7 C13.1045695,7 14,6.1045695 14,5 C14,3.8954305 13.1045695,3 12,3 Z" id="Shape" fill="#0D0E10" fill-rule="nonzero"></path>
    </g>
</svg>