<?xml version="1.0" encoding="UTF-8"?>
<svg width="24px" height="24px" viewBox="0 0 24 24" version="1.1" xmlns="http://www.w3.org/2000/svg" xmlns:xlink="http://www.w3.org/1999/xlink">
    <title>settings</title>
    <g id="settings" stroke="none" stroke-width="1" fill="none" fill-rule="evenodd">
        <path d="M18.5,0 C21.5375661,0 24,2.46243388 24,5.5 C24,8.53756612 21.5375661,11 18.5,11 L5.5,11 C2.46243388,11 0,8.53756612 0,5.5 C0,2.46243388 2.46243388,0 5.5,0 L18.5,0 Z M18.5,2 L5.5,2 C3.56700338,2 2,3.56700338 2,5.5 C2,7.43299662 3.56700338,9 5.5,9 L18.5,9 C20.4329966,9 22,7.43299662 22,5.5 C22,3.56700338 20.4329966,2 18.5,2 Z M5.5,4 C6.32842712,4 7,4.67157288 7,5.5 C7,6.32842712 6.32842712,7 5.5,7 C4.67157288,7 4,6.32842712 4,5.5 C4,4.67157288 4.67157288,4 5.5,4 Z M18.5,13 C21.5375661,13 24,15.4624339 24,18.5 C24,21.5375661 21.5375661,24 18.5,24 L5.5,24 C2.46243388,24 0,21.5375661 0,18.5 C0,15.4624339 2.46243388,13 5.5,13 L18.5,13 Z M18.5,15 L5.5,15 C3.56700338,15 2,16.5670034 2,18.5 C2,20.4329966 3.56700338,22 5.5,22 L18.5,22 C20.4329966,22 22,20.4329966 22,18.5 C22,16.5670034 20.4329966,15 18.5,15 Z M18.5,17 C19.3284271,17 20,17.6715729 20,18.5 C20,19.3284271 19.3284271,20 18.5,20 C17.6715729,20 17,19.3284271 17,18.5 C17,17.6715729 17.6715729,17 18.5,17 Z" id="Combined-Shape" fill="#0D0E10" fill-rule="nonzero"></path>
    </g>
</svg>