<?xml version="1.0" encoding="UTF-8"?>
<svg width="24px" height="24px" viewBox="0 0 24 24" version="1.1" xmlns="http://www.w3.org/2000/svg" xmlns:xlink="http://www.w3.org/1999/xlink">
    <title>share-alt</title>
    <g id="share-alt" stroke="none" stroke-width="1" fill="none" fill-rule="evenodd">
        <path d="M23,21 C23,22.6568542 21.6568542,24 20,24 L4,24 C2.34314575,24 1,22.6568542 1,21 L1,9 C1,8.44771525 1.44771525,8 2,8 C2.51283584,8 2.93550716,8.38604019 2.99327227,8.88337887 L3,9 L3,21 C3,21.5522847 3.44771525,22 4,22 L20,22 C20.5522847,22 21,21.5522847 21,21 L21,9 C21,8.44771525 21.4477153,8 22,8 C22.5522847,8 23,8.44771525 23,9 L23,21 Z M12.7071068,0.280376415 L16.7071068,4.17353881 C17.0976311,4.54737403 17.0976311,5.15348067 16.7071068,5.52731589 C16.3165825,5.90115111 15.6834175,5.90115111 15.2928932,5.52731589 L12.999205,3.26744841 L13,16.8076923 C13,17.3599771 12.5522847,17.8076923 12,17.8076923 C11.4477153,17.8076923 11,17.3599771 11,16.8076923 L11.0015,3.26769231 L8.70710678,5.52731589 C8.3371364,5.88147557 7.74939432,5.90011556 7.3565006,5.58323584 L7.29289322,5.52731589 C6.90236893,5.15348067 6.90236893,4.54737403 7.29289322,4.17353881 L11.2928932,0.280376415 C11.6834175,-0.0934588049 12.3165825,-0.0934588049 12.7071068,0.280376415 Z" id="Shape" fill="#0D0E10" fill-rule="nonzero"></path>
    </g>
</svg>