<?xml version="1.0" encoding="UTF-8"?>
<svg width="24px" height="24px" viewBox="0 0 24 24" version="1.1" xmlns="http://www.w3.org/2000/svg" xmlns:xlink="http://www.w3.org/1999/xlink">
    <title>share</title>
    <g id="share" stroke="none" stroke-width="1" fill="none" fill-rule="evenodd">
        <path d="M6,6 C6.55228475,6 7,6.44771525 7,7 C7,7.51283584 6.61395981,7.93550716 6.11662113,7.99327227 L6,8 L4,8 C3.44771525,8 3,8.44771525 3,9 L3,21 C3,21.5522847 3.44771525,22 4,22 L20,22 C20.5522847,22 21,21.5522847 21,21 L21,9 C21,8.44771525 20.5522847,8 20,8 L18,8 C17.4477153,8 17,7.55228475 17,7 C17,6.44771525 17.4477153,6 18,6 L20,6 C21.6568542,6 23,7.34314575 23,9 L23,21 C23,22.6568542 21.6568542,24 20,24 L4,24 C2.34314575,24 1,22.6568542 1,21 L1,9 C1,7.34314575 2.34314575,6 4,6 L6,6 Z M12.7071068,0.280376415 L15.7071068,3.17353881 C16.0976311,3.54737403 16.0976311,4.15348067 15.7071068,4.52731589 C15.3165825,4.90115111 14.6834175,4.90115111 14.2928932,4.52731589 L12.999205,3.26744841 L13,16.8076923 C13,17.3599771 12.5522847,17.8076923 12,17.8076923 C11.4477153,17.8076923 11,17.3599771 11,16.8076923 L11,3.30769231 L11.0015,3.26769231 L9.70710678,4.52731589 C9.3371364,4.88147557 8.74939432,4.90011556 8.3565006,4.58323584 L8.29289322,4.52731589 C7.90236893,4.15348067 7.90236893,3.54737403 8.29289322,3.17353881 L11.2928932,0.280376415 C11.6834175,-0.0934588049 12.3165825,-0.0934588049 12.7071068,0.280376415 Z" id="Shape" fill="#0D0E10" fill-rule="nonzero"></path>
    </g>
</svg>