<?xml version="1.0" encoding="UTF-8"?>
<svg width="24px" height="24px" viewBox="0 0 24 24" version="1.1" xmlns="http://www.w3.org/2000/svg" xmlns:xlink="http://www.w3.org/1999/xlink">
    <title>shower</title>
    <g id="shower" stroke="none" stroke-width="1" fill="none" fill-rule="evenodd">
        <path d="M19,2 C20.6568542,2 22,3.34314575 22,5 L22,21 C22,21.5522847 21.5522847,22 21,22 C20.4477153,22 20,21.5522847 20,21 L20,5 C20,4.44771525 19.5522847,4 19,4 L11,4 C10.4477153,4 10,4.44771525 10,5 L10,6 L14,6 C14.5522847,6 15,6.44771525 15,7 C15,7.55228475 14.5522847,8 14,8 L4,8 C3.44771525,8 3,7.55228475 3,7 C3,6.44771525 3.44771525,6 4,6 L8,6 L8,5 C8,3.34314575 9.34314575,2 11,2 L19,2 Z M7.09190866,16.0004604 L7.20950272,16.0093095 C7.67072825,16.066414 8.01536903,16.3784577 7.99947163,16.7452427 L7.87118741,19.3123957 C7.85163631,19.6966143 7.4389769,20.0002913 6.93681879,20 L6.90043968,20 C6.38519392,19.9841045 5.98327948,19.6527801 6.00053548,19.2581497 L6.12307563,16.6895306 C6.14280324,16.2946364 6.57613712,15.9864332 7.09190866,16.0004604 Z M3.17271579,16.001756 L3.31101858,16.0176885 C3.49192251,16.0506094 3.65675784,16.1294149 3.78069148,16.2442022 C3.93560853,16.3876864 4.01382027,16.5755401 3.99799129,16.7661262 L3.77045362,19.334116 C3.73469849,19.7090689 3.35121727,19.99883 2.88919664,20 L2.82779759,20 C2.59237584,19.9887249 2.37238091,19.9009588 2.21720673,19.7564073 C2.06203254,19.6118558 1.98468201,19.4226317 2.00252209,19.23122 L2.23547732,16.6397111 C2.28671341,16.2566854 2.70052098,15.9750168 3.17271579,16.001756 Z M10.9449057,16 C11.4569172,15.999046 11.8767066,16.3078657 11.8913939,16.6962901 L11.9997852,19.265504 C12.0107039,19.658612 11.6039449,19.9856283 11.0862015,20 L11.053297,20 C10.5418574,20.0024909 10.122293,19.693223 10.1106798,19.305166 L10.000353,16.7344831 C9.98625935,16.3398908 10.3959613,16.011205 10.9158723,16 Z M14.8332997,16.0005654 C15.0685544,15.9933111 15.2988984,16.0560689 15.4804436,16.1768813 C15.6585245,16.3018145 15.7668959,16.4791573 15.7812287,16.6690965 L15.9981587,19.2359621 C16.0294234,19.6311567 15.6588447,19.9725147 15.1687208,20 L15.1103867,20 C14.6409426,20.000964 14.2506761,19.7088756 14.2171458,19.3314665 L14.0020389,16.7660703 C13.9860399,16.5756563 14.0646906,16.3879356 14.220639,16.2443233 C14.3765875,16.100711 14.5970182,16.0130087 14.8332997,16.0005654 Z M7.09190866,10.0004604 L7.20950272,10.0093095 C7.67072825,10.066414 8.01536903,10.3784577 7.99947163,10.7452427 L7.87118741,13.3123957 C7.85163631,13.6966143 7.4389769,14.0002913 6.93681879,14 L6.90043968,14 C6.38519392,13.9841045 5.98327948,13.6527801 6.00053548,13.2581497 L6.12307563,10.6895306 C6.14280324,10.2946364 6.57613712,9.98643315 7.09190866,10.0004604 Z M3.17271579,10.001756 L3.31101858,10.0176885 C3.49192251,10.0506094 3.65675784,10.1294149 3.78069148,10.2442022 C3.93560853,10.3876864 4.01382027,10.5755401 3.99799129,10.7661262 L3.77045362,13.334116 C3.73469849,13.7090689 3.35121727,13.99883 2.88919664,14 L2.82779759,14 C2.59237584,13.9887249 2.37238091,13.9009588 2.21720673,13.7564073 C2.06203254,13.6118558 1.98468201,13.4226317 2.00252209,13.23122 L2.23547732,10.6397111 C2.28671341,10.2566854 2.70052098,9.97501677 3.17271579,10.001756 Z M10.9449057,10 C11.4569172,9.99904603 11.8767066,10.3078657 11.8913939,10.6962901 L11.9997852,13.265504 C12.0107039,13.658612 11.6039449,13.9856283 11.0862015,14 L11.053297,14 C10.5418574,14.0024909 10.122293,13.693223 10.1106798,13.305166 L10.000353,10.7344831 C9.98625935,10.3398908 10.3959613,10.011205 10.9158723,10 Z M14.8332997,10.0005654 C15.0685544,9.99331112 15.2988984,10.0560689 15.4804436,10.1768813 C15.6585245,10.3018145 15.7668959,10.4791573 15.7812287,10.6690965 L15.9981587,13.2359621 C16.0294234,13.6311567 15.6588447,13.9725147 15.1687208,14 L15.1103867,14 C14.6409426,14.000964 14.2506761,13.7088756 14.2171458,13.3314665 L14.0020389,10.7660703 C13.9860399,10.5756563 14.0646906,10.3879356 14.220639,10.2443233 C14.3765875,10.100711 14.5970182,10.0130087 14.8332997,10.0005654 Z" id="Combined-Shape" fill="#000000" fill-rule="nonzero"></path>
    </g>
</svg>