<?xml version="1.0" encoding="UTF-8"?>
<svg width="24px" height="24px" viewBox="0 0 24 24" version="1.1" xmlns="http://www.w3.org/2000/svg" xmlns:xlink="http://www.w3.org/1999/xlink">
    <title>sign-in</title>
    <g id="sign-in" stroke="none" stroke-width="1" fill="none" fill-rule="evenodd">
        <path d="M20,2 C21.6568542,2 23,3.34314575 23,5 L23,19 C23,20.6568542 21.6568542,22 20,22 L10,22 C8.34314575,22 7,20.6568542 7,19 L7,16 C7,15.4477153 7.44771525,15 8,15 C8.55228475,15 9,15.4477153 9,16 L9,19 C9,19.5522847 9.44771525,20 10,20 L20,20 C20.5522847,20 21,19.5522847 21,19 L21,5 C21,4.44771525 20.5522847,4 20,4 L10,4 C9.44771525,4 9,4.44771525 9,5 L9,8 C9,8.55228475 8.55228475,9 8,9 C7.44771525,9 7,8.55228475 7,8 L7,5 C7,3.34314575 8.34314575,2 10,2 L20,2 Z M14.1341535,8.29289322 L17.0273159,11.2928932 C17.4011511,11.6834175 17.4011511,12.3165825 17.0273159,12.7071068 L14.1341535,15.7071068 C13.7603183,16.0976311 13.1542116,16.0976311 12.7803764,15.7071068 C12.4065412,15.3165825 12.4065412,14.6834175 12.7803764,14.2928932 L14.0402439,12.999205 L1.5,13 C0.94771525,13 0.5,12.5522847 0.5,12 C0.5,11.4477153 0.94771525,11 1.5,11 L14,11 L14.04,11.0015 L12.7803764,9.70710678 C12.4262167,9.3371364 12.4075767,8.74939432 12.7244565,8.3565006 L12.7803764,8.29289322 C13.1542116,7.90236893 13.7603183,7.90236893 14.1341535,8.29289322 Z" id="Shape" fill="#0D0E10" fill-rule="nonzero"></path>
    </g>
</svg>