<?xml version="1.0" encoding="UTF-8"?>
<svg width="24px" height="24px" viewBox="0 0 24 24" version="1.1" xmlns="http://www.w3.org/2000/svg" xmlns:xlink="http://www.w3.org/1999/xlink">
    <title>sliders</title>
    <g id="sliders" stroke="none" stroke-width="1" fill="none" fill-rule="evenodd">
        <path d="M3,0 C3.55228475,0 4,0.44771525 4,1 L4.00090072,5.17102423 C5.16562257,5.58311485 6,6.69411778 6,8 C6,9.30588222 5.16562257,10.4168852 4.00090072,10.8289758 L4,23 C4,23.5522847 3.55228475,24 3,24 C2.44771525,24 2,23.5522847 2,23 L2.00008893,10.8293257 C0.834850101,10.4175144 0,9.30625206 0,8 C0,6.69374794 0.834850101,5.58248558 2.00008893,5.17067428 L2,1 C2,0.44771525 2.44771525,0 3,0 Z M3,7 C2.44771525,7 2,7.44771525 2,8 C2,8.55228475 2.44771525,9 3,9 C3.55228475,9 4,8.55228475 4,8 C4,7.48716416 3.61395981,7.06449284 3.11662113,7.00672773 L3,7 Z M12,0 C12.5522847,0 13,0.44771525 13,1 L13.0009007,13.1710242 C14.1656226,13.5831148 15,14.6941178 15,16 C15,17.3058822 14.1656226,18.4168852 13.0009007,18.8289758 L13,23 C13,23.5522847 12.5522847,24 12,24 C11.4477153,24 11,23.5522847 11,23 L11.0000889,18.8293257 C9.8348501,18.4175144 9,17.3062521 9,16 C9,14.6937479 9.8348501,13.5824856 11.0000889,13.1706743 L11,1 C11,0.44771525 11.4477153,0 12,0 Z M12,15 C11.4477153,15 11,15.4477153 11,16 C11,16.5522847 11.4477153,17 12,17 C12.5522847,17 13,16.5522847 13,16 C13,15.4871642 12.6139598,15.0644928 12.1166211,15.0067277 L12,15 Z M21,0 C21.5522847,0 22,0.44771525 22,1 L22.0009007,5.17102423 C23.1656226,5.58311485 24,6.69411778 24,8 C24,9.30588222 23.1656226,10.4168852 22.0009007,10.8289758 L22,23 C22,23.5522847 21.5522847,24 21,24 C20.4477153,24 20,23.5522847 20,23 L20.0000889,10.8293257 C18.8348501,10.4175144 18,9.30625206 18,8 C18,6.69374794 18.8348501,5.58248558 20.0000889,5.17067428 L20,1 C20,0.44771525 20.4477153,0 21,0 Z M21,7 C20.4477153,7 20,7.44771525 20,8 C20,8.55228475 20.4477153,9 21,9 C21.5522847,9 22,8.55228475 22,8 C22,7.48716416 21.6139598,7.06449284 21.1166211,7.00672773 L21,7 Z" id="Shape" fill="#0D0E10" fill-rule="nonzero"></path>
    </g>
</svg>