<?xml version="1.0" encoding="UTF-8"?>
<svg width="24px" height="24px" viewBox="0 0 24 24" version="1.1" xmlns="http://www.w3.org/2000/svg" xmlns:xlink="http://www.w3.org/1999/xlink">
    <title>sliders-mini</title>
    <g id="sliders-mini" stroke="none" stroke-width="1" fill="none" fill-rule="evenodd">
        <path d="M18,3 C20.209139,3 22,4.790861 22,7 C22,9.209139 20.209139,11 18,11 C15.790861,11 14,9.209139 14,7 C14,4.790861 15.790861,3 18,3 Z M18,5 C16.8954305,5 16,5.8954305 16,7 C16,8.1045695 16.8954305,9 18,9 C19.1045695,9 20,8.1045695 20,7 C20,5.8954305 19.1045695,5 18,5 Z M6,13 C3.790861,13 2,14.790861 2,17 C2,19.209139 3.790861,21 6,21 C8.209139,21 10,19.209139 10,17 C10,14.790861 8.209139,13 6,13 Z M6,15 C7.1045695,15 8,15.8954305 8,17 C8,18.1045695 7.1045695,19 6,19 C4.8954305,19 4,18.1045695 4,17 C4,15.8954305 4.8954305,15 6,15 Z M21,16 L13,16 C12.4477153,16 12,16.4477153 12,17 C12,17.5522847 12.4477153,18 13,18 L21,18 C21.5522847,18 22,17.5522847 22,17 C22,16.4477153 21.5522847,16 21,16 Z M3,6 L11,6 C11.5522847,6 12,6.44771525 12,7 C12,7.55228475 11.5522847,8 11,8 L3,8 C2.44771525,8 2,7.55228475 2,7 C2,6.44771525 2.44771525,6 3,6 Z" id="Shape" fill="#0D0E10" fill-rule="nonzero"></path>
    </g>
</svg>