<?xml version="1.0" encoding="UTF-8"?>
<svg width="24px" height="24px" viewBox="0 0 24 24" version="1.1" xmlns="http://www.w3.org/2000/svg" xmlns:xlink="http://www.w3.org/1999/xlink">
    <title>smoking-no</title>
    <defs>
        <path d="M3.36827202,2.45405845 L12.9131652,11.9991652 L14.7,12 C14.8656854,12 15,12.1343146 15,12.3 L14.9991652,14.0851652 L15.9991652,15.0851652 L16,12.3 C16,12.1343146 16.1343146,12 16.3,12 L17.7,12 C17.8656854,12 18,12.1343146 18,12.3 L17.9991652,17.0851652 L21.7530483,20.8388348 C22.1435726,21.2293591 22.1435726,21.862524 21.7530483,22.2530483 C21.362524,22.6435726 20.7293591,22.6435726 20.3388348,22.2530483 L14.9991652,16.9131652 L15,17.7 C15,17.8656854 14.8656854,18 14.7,18 L3.30000001,18 C3.13431458,18 3,17.8656854 3,17.7 L3,12.3 C3,12.1343146 3.13431458,12 3.30000001,12 L10.0841652,11.9991652 L1.95405845,3.86827202 C1.56353416,3.47774772 1.56353416,2.84458275 1.95405845,2.45405845 C2.34458275,2.06353416 2.97774772,2.06353416 3.36827202,2.45405845 Z M20.7,12 C20.8656854,12 21,12.1343146 21,12.3 L21,17.7 C21,17.8656854 20.8656854,18 20.7,18 L19.3,18 C19.1343146,18 19,17.8656854 19,17.7 L19,12.3 C19,12.1343146 19.1343146,12 19.3,12 L20.7,12 Z M12.0851652,13.9991652 L5,14 L5,16 L12.7,16 C12.8656854,16 13,15.8656854 13,15.7 L12.9991652,14.9131652 L12.0851652,13.9991652 Z M14.75,4 C14.8875,4 15,4.12586806 15,4.27777778 L15,5.43923611 C15,6.44618056 15.49375,6.34027778 16.24375,6.91666667 C17.34375,7.77430556 18,8.16666667 18,9.67361111 L18,10.7222222 C18,10.875 17.8875,11 17.75,11 L16.25,11 C16.1125,11 16,10.875 16,10.7222222 L16,9.67361111 C16,8.71875 15.5875,8.83333333 14.884375,8.28819444 C13.76875,7.41666667 13,7.10069444 13,5.58263889 L13,4.27777778 C13,4.12586806 13.1125,4 13.25,4 L14.75,4 Z M17.75,4 C17.8875,4 18,4.12586806 18,4.27777778 L18,4.43923611 C18,5.44618056 18.49375,5.34027778 19.24375,5.91666667 C20.34375,6.77430556 21,7.16666667 21,8.67361111 L21,10.7222222 C21,10.875 20.8875,11 20.75,11 L19.25,11 C19.1125,11 19,10.875 19,10.7222222 L19,8.67361111 C19,7.71875 18.5875,7.83333333 17.884375,7.28819444 C16.76875,6.41666667 16,6.10069444 16,4.58263889 L16,4.27777778 C16,4.12586806 16.1125,4 16.25,4 L17.75,4 Z" id="path-1"></path>
        <filter x="-9.8%" y="-9.8%" width="119.6%" height="119.6%" filterUnits="objectBoundingBox" id="filter-2">
            <feGaussianBlur stdDeviation="1.5" in="SourceAlpha" result="shadowBlurInner1"></feGaussianBlur>
            <feOffset dx="0" dy="1" in="shadowBlurInner1" result="shadowOffsetInner1"></feOffset>
            <feComposite in="shadowOffsetInner1" in2="SourceAlpha" operator="arithmetic" k2="-1" k3="1" result="shadowInnerInner1"></feComposite>
            <feColorMatrix values="0 0 0 0 0   0 0 0 0 0   0 0 0 0 0  0 0 0 0.5 0" type="matrix" in="shadowInnerInner1"></feColorMatrix>
        </filter>
    </defs>
    <g id="smoking-no" stroke="none" stroke-width="1" fill="none" fill-rule="evenodd">
        <g id="Combined-Shape" fill-rule="nonzero">
            <use fill="#000000" xlink:href="#path-1"></use>
            <use fill="black" fill-opacity="1" filter="url(#filter-2)" xlink:href="#path-1"></use>
        </g>
    </g>
</svg>