<?xml version="1.0" encoding="UTF-8"?>
<svg width="24px" height="24px" viewBox="0 0 24 24" version="1.1" xmlns="http://www.w3.org/2000/svg" xmlns:xlink="http://www.w3.org/1999/xlink">
    <title>soap</title>
    <g id="soap" stroke="none" stroke-width="1" fill="none" fill-rule="evenodd">
        <g id="Group" transform="translate(2, 1)" fill="#000000" fill-rule="nonzero">
            <path d="M11,4.199 L12.1966721,4.19996114 C13.0563777,4.19712766 13.8907864,4.47199433 14.5247013,4.97912622 C15.2059687,5.52414015 15.6043086,6.29805033 15.6000553,7.12 L15.6,8 L16,8 C18.209139,8 20,9.790861 20,12 L20,22 L0,22 L0,12 C0,9.79119572 1.79031836,8.00054269 3.99899587,8 L3.999958,7.12519983 C3.99569139,6.29805033 4.39403132,5.52414015 5.07529874,4.97912622 C5.7092136,4.47199433 6.54362229,4.19712766 7.4,4.19996114 L9,4.199 L9,2 L7.4,2 C6.84771525,2 6.4,1.55228475 6.4,1 C6.4,0.44771525 6.84771525,0 7.4,0 L13.8,0 C15.1930303,0 16.4,0.965575724 16.4,2.28 C16.4,2.83228475 15.9522847,3.28 15.4,3.28 C14.8477153,3.28 14.4,2.83228475 14.4,2.28 C14.4,2.18057532 14.1742809,2 13.8,2 L11,2 L11,4.199 Z M16,10 L4,10 C2.8954305,10 2,10.8954305 2,12 L2,20 L18,20 L18,12 C18,10.9456382 17.1841222,10.0818349 16.1492623,10.0054857 L16,10 Z M12.2,6.1999666 L7.39667208,6.1999666 C6.98169424,6.19859661 6.59210029,6.32693467 6.32468883,6.54086384 C6.10462993,6.71691096 5.999,6.92220289 5.99997896,7.12 L5.999,8 L13.6000416,8 L13.6000416,7.11480017 C13.601036,6.92220289 13.4953701,6.71691096 13.2753112,6.54086384 C13.0078997,6.32693467 12.6183058,6.19859661 12.2,6.1999666 Z" id="Shape"></path>
        </g>
    </g>
</svg>