<?xml version="1.0" encoding="UTF-8"?>
<svg width="24px" height="24px" viewBox="0 0 24 24" version="1.1" xmlns="http://www.w3.org/2000/svg" xmlns:xlink="http://www.w3.org/1999/xlink">
    <title>sort-up</title>
    <g id="sort-up" stroke="none" stroke-width="1" fill="none" fill-rule="evenodd">
        <path d="M6,19.9885584 C6,20.5471621 6.44771525,21 7,21 C7.55228475,21 8,20.5471621 8,19.9885584 L8,6.34553776 L7.9985,6.30508009 L9.29289322,7.57911585 C9.6628636,7.9373277 10.2506057,7.95618095 10.6434994,7.63567561 L10.7071068,7.57911585 C11.0976311,7.20100334 11.0976311,6.58796183 10.7071068,6.20984932 L7.70710678,3.28358438 C7.31658249,2.90547187 6.68341751,2.90547187 6.29289322,3.28358438 L3.29289322,6.20984932 C2.90236893,6.58796183 2.90236893,7.20100334 3.29289322,7.57911585 C3.68341751,7.95722836 4.31658249,7.95722836 4.70710678,7.57911585 L6.000795,6.3048334 L6,19.9885584 Z M12,19 L20,19 C20.5522847,19 21,19.4477153 21,20 C21,20.5522847 20.5522847,21 20,21 L12,21 C11.4477153,21 11,20.5522847 11,20 C11,19.4477153 11.4477153,19 12,19 Z M12,15 L18,15 C18.5522847,15 19,15.4477153 19,16 C19,16.5522847 18.5522847,17 18,17 L12,17 C11.4477153,17 11,16.5522847 11,16 C11,15.4477153 11.4477153,15 12,15 Z M12,11 L16,11 C16.5522847,11 17,11.4477153 17,12 C17,12.5522847 16.5522847,13 16,13 L12,13 C11.4477153,13 11,12.5522847 11,12 C11,11.4477153 11.4477153,11 12,11 Z" id="Shape" fill="#0D0E10" fill-rule="nonzero"></path>
    </g>
</svg>