<?xml version="1.0" encoding="UTF-8"?>
<svg width="24px" height="24px" viewBox="0 0 24 24" version="1.1" xmlns="http://www.w3.org/2000/svg" xmlns:xlink="http://www.w3.org/1999/xlink">
    <title>sort-up</title>
    <g id="sort-up" stroke="none" stroke-width="1" fill="none" fill-rule="evenodd">
        <path d="M6,4.01144165 C6,3.45283785 6.44771525,3 7,3 C7.55228475,3 8,3.45283785 8,4.01144165 L8,17.6544622 L7.9985,17.6949199 L9.29289322,16.4208842 C9.6628636,16.0626723 10.2506057,16.043819 10.6434994,16.3643244 L10.7071068,16.4208842 C11.0976311,16.7989967 11.0976311,17.4120382 10.7071068,17.7901507 L7.70710678,20.7164156 C7.31658249,21.0945281 6.68341751,21.0945281 6.29289322,20.7164156 L3.29289322,17.7901507 C2.90236893,17.4120382 2.90236893,16.7989967 3.29289322,16.4208842 C3.68341751,16.0427716 4.31658249,16.0427716 4.70710678,16.4208842 L6.000795,17.6951666 L6,4.01144165 Z M12,3 L20,3 C20.5522847,3 21,3.44771525 21,4 C21,4.55228475 20.5522847,5 20,5 L12,5 C11.4477153,5 11,4.55228475 11,4 C11,3.44771525 11.4477153,3 12,3 Z M12,7 L18,7 C18.5522847,7 19,7.44771525 19,8 C19,8.55228475 18.5522847,9 18,9 L12,9 C11.4477153,9 11,8.55228475 11,8 C11,7.44771525 11.4477153,7 12,7 Z M12,11 L16,11 C16.5522847,11 17,11.4477153 17,12 C17,12.5522847 16.5522847,13 16,13 L12,13 C11.4477153,13 11,12.5522847 11,12 C11,11.4477153 11.4477153,11 12,11 Z" id="Shape" fill="#0D0E10" fill-rule="nonzero"></path>
    </g>
</svg>