<?xml version="1.0" encoding="UTF-8"?>
<svg width="24px" height="24px" viewBox="0 0 24 24" version="1.1" xmlns="http://www.w3.org/2000/svg" xmlns:xlink="http://www.w3.org/1999/xlink">
    <title>spa</title>
    <g id="spa" stroke="none" stroke-width="1" fill="none" fill-rule="evenodd">
        <path d="M21.5069685,6.99998455 L2.50696855,6.99998455 C1.42964608,6.99277159 0.469840308,7.67916682 0.128470609,8.70100012 C-0.21289909,9.72283342 0.141605059,10.8483077 1.00696855,11.4900417 L1.00696855,14.4900417 C1.01597609,17.2681107 2.76875796,19.7412138 5.38696855,20.6700417 L7.54696855,21.0000417 L16.4669685,21.0000417 L18.6269685,20.6200417 C21.2451791,19.6912138 22.997961,17.2181107 23.0069685,14.4400417 L23.0069685,11.4400417 C23.8298365,10.7870328 24.1543697,9.68784852 23.8181432,8.69261789 C23.4819166,7.69738726 22.5572661,7.0202245 21.5069685,6.99998455 Z M2.50696855,9.00004175 L21.5069685,9.00004175 C21.7831109,9.00004175 22.0069685,9.22389937 22.0069685,9.50004175 C22.0069685,9.77618412 21.7831109,10.0000417 21.5069685,10.0000417 L2.50696855,10.0000417 C2.23082617,10.0000417 2.00696855,9.77618412 2.00696855,9.50004175 C2.00696855,9.22389937 2.23082617,9.00004175 2.50696855,9.00004175 Z M21.0069685,14.4400417 C21.0014688,16.9561786 18.9631054,18.994542 16.4469685,19.0000417 L7.56696855,19.0000417 C5.05083169,18.994542 3.01246832,16.9561786 3.00696855,14.4400417 L3.00696855,12.0000417 L21.0069685,12.0000417 L21.0069685,14.4400417 Z M8,1 C8.55228475,1 9,1.44771525 9,2 L9,5 C9,5.55228475 8.55228475,6 8,6 C7.44771525,6 7,5.55228475 7,5 L7,2 C7,1.44771525 7.44771525,1 8,1 Z M12,1 C12.5522847,1 13,1.44771525 13,2 L13,5 C13,5.55228475 12.5522847,6 12,6 C11.4477153,6 11,5.55228475 11,5 L11,2 C11,1.44771525 11.4477153,1 12,1 Z M16,1 C16.5522847,1 17,1.44771525 17,2 L17,5 C17,5.55228475 16.5522847,6 16,6 C15.4477153,6 15,5.55228475 15,5 L15,2 C15,1.44771525 15.4477153,1 16,1 Z" id="Shape" fill="#0D0E10" fill-rule="nonzero"></path>
        <rect id="Rectangle" fill="#000000" transform="translate(6, 21) rotate(-315) translate(-6, -21)" x="5" y="19" width="2" height="4" rx="1"></rect>
        <rect id="Rectangle" fill="#000000" transform="translate(18, 21) scale(-1, 1) rotate(-315) translate(-18, -21)" x="17" y="19" width="2" height="4" rx="1"></rect>
    </g>
</svg>