<?xml version="1.0" encoding="UTF-8"?>
<svg width="24px" height="24px" viewBox="0 0 24 24" version="1.1" xmlns="http://www.w3.org/2000/svg" xmlns:xlink="http://www.w3.org/1999/xlink">
    <title>spa</title>
    <g id="spa" stroke="none" stroke-width="1" fill="none" fill-rule="evenodd">
        <path d="M12.1813744,0.0806457345 L13.6383044,1.62983399 C15.0360497,3.1160897 16.0478306,5.72740126 16.6609978,7.44847074 C17.1730878,7.25799037 17.7319667,7.11697797 18.3315485,7.02374793 L19.8866622,6.78194052 L20.4874017,8.23657503 C20.8781925,9.18283856 21.0495082,10.1146325 20.9881241,11.0024854 C21.3578515,11.0058552 21.7365403,11.0249913 22.1227589,11.0586974 L23.7953336,11.2046664 L23.9413026,12.8772411 C24.2436506,16.3416737 23.3736511,19.2002435 21.2869473,21.2869473 C19.2002435,23.3736511 16.3416737,24.2436506 12.8772411,23.9413026 L11.9993106,23.8636457 L11.1227589,23.9413026 C7.65832626,24.2436506 4.79975649,23.3736511 2.71305269,21.2869473 C0.626348889,19.2002435 -0.243650605,16.3416737 0.0586973974,12.8772411 L0.204666362,11.2046664 L1.87724113,11.0586974 C2.26376585,11.0249646 2.64274896,11.0058249 3.0139599,11.0013398 C2.95049183,10.1146325 3.12180745,9.18283856 3.5125983,8.23657503 L4.11333778,6.78194052 L5.6684515,7.02374793 C6.39418821,7.13659402 7.06029195,7.3194451 7.65976376,7.57454335 L7.90673011,6.87379101 C8.52885964,5.16026482 9.4716104,2.96200207 10.7244444,1.62983399 L12.1813744,0.0806457345 Z M2.05112423,13.0511242 C1.79718808,15.9608331 2.48923543,18.2347029 4.12726625,19.8727337 C5.76529708,21.5107646 8.03916692,22.2028119 10.9488758,21.9488758 C10.9858542,21.5251607 11.0027726,21.114929 10.999631,20.7181805 L10.9833439,20.1933182 L10.9580093,19.8403353 L10.9175273,19.4662847 C10.8467792,18.9130178 10.7305135,18.3903454 10.5687303,17.8982675 L10.5201545,17.7553324 L10.4099565,17.4614568 L10.3126577,17.229715 L10.1946241,16.9755807 L10.0545518,16.7043205 L9.92668513,16.4797146 L9.83367371,16.3278239 L9.6930359,16.1137925 L9.49126887,15.8344202 L9.26448812,15.5523244 L9.13666354,15.4058063 L8.9391038,15.1945151 L8.67311802,14.9352433 L8.43036305,14.720878 L8.19954053,14.5347565 L7.97894394,14.3715695 L7.73054919,14.2035449 L7.62999409,14.1399466 L7.4546902,14.0348073 C7.27005317,13.9277922 7.07983715,13.8290774 6.88404213,13.7386628 L6.58616537,13.6092661 L6.28736043,13.494978 L5.90728326,13.3701859 L5.69451117,13.309655 L5.37644405,13.2307727 L5.04735872,13.162863 L4.97366886,13.1494668 C4.86801304,13.1307207 4.761172,13.113738 4.65314574,13.0985186 C4.44970815,13.0696535 4.23281344,13.0463534 4.0113351,13.0298726 L3.66207172,13.0096928 L3.84460671,13.0188046 C3.27634037,12.9855975 2.67851288,12.9963708 2.05112423,13.0511242 Z M20.601048,13.0018864 L20.4016461,13.0076884 L20.0460603,13.0257613 C19.8068033,13.0431617 19.5760813,13.067333 19.3516075,13.0988087 L18.9719422,13.1592918 L18.6236305,13.2307558 L18.402315,13.2848158 L18.0935806,13.3704276 L17.7211555,13.4919363 L17.5719928,13.5469174 L17.5078618,13.5720006 C17.3035558,13.6519543 17.1049088,13.74031 16.9119167,13.8370658 L16.6266693,13.9884992 L16.3720516,14.1387462 L16.2697275,14.2033665 L15.9989379,14.387319 L15.7839551,14.5475267 L15.6677362,14.6397657 L15.5530138,14.7349311 L15.4408097,14.832142 C15.3338267,14.9268449 15.2293126,15.0252199 15.1272663,15.1272663 L14.8726539,15.3954427 L14.7016677,15.5925396 L14.5204895,15.8190221 L14.4439601,15.920901 C14.1706454,16.2919094 13.9361308,16.688997 13.7404161,17.1121639 L13.7496721,17.0979586 C13.6612177,17.2870917 13.5806094,17.4814839 13.5078372,17.6811309 L13.4045549,17.9845421 L13.3182221,18.2767819 L13.2407226,18.5825261 L13.2188736,18.6767675 L13.175049,18.8902842 C13.1297226,19.1236833 13.0932087,19.362997 13.0654957,19.6082205 L13.0224895,20.0952638 L13.0061436,20.4334433 L13.000799,20.6745146 L13.0000103,20.8272597 C13.0004861,21.1899996 13.0175241,21.5638716 13.0511242,21.9488758 C15.9608331,22.2028119 18.2347029,21.5107646 19.8727337,19.8727337 C21.5107646,18.2347029 22.2028119,15.9608331 21.9488758,13.0511242 C21.6385068,13.0240377 21.3353723,13.0077144 21.0394722,13.0021542 L20.601048,13.0018864 Z M12.1813744,3 C11.4078838,3.82247091 10.7754378,4.99910098 10.2840365,6.16932635 L10.2427244,6.2576063 C9.41424146,8.05098934 9,9.81704197 9,11.5557642 C9,11.9377925 9.01999789,12.3148543 9.05999368,12.6869495 C9.49463095,12.9877788 9.90380043,13.3299058 10.2869473,13.7130527 C10.9996444,14.4257497 11.5704117,15.2284857 12.0010165,16.1146468 C12.4295883,15.2284857 13.0003556,14.4257497 13.7130527,13.7130527 C14.2081737,13.2179317 14.7467501,12.79131 15.3265642,12.432595 L15.3467694,12.1429885 L15.3572256,11.9021369 L15.3627488,11.5557642 C15.3627488,11.3867079 15.3588327,11.2173933 15.3510004,11.0478202 L15.3468469,10.9696631 C15.2571206,9.27648326 14.7764445,7.55634959 13.9051486,5.81044402 C13.4414418,4.76308706 12.8667834,3.72881166 12.1813744,3 Z M5.36116053,9 C5.04083035,9.77564961 4.93358704,10.4870196 5.03943061,11.1341099 C5.7277327,11.237776 6.38227383,11.4014549 7.00148901,11.6257955 L7,11.5557642 C7,10.8739479 7.05374717,10.2050518 7.16063722,9.54980649 C6.65882212,9.29128019 6.05844461,9.10842195 5.36116053,9 Z M18.6388395,9 C18.090791,9.08521703 17.6026074,9.21641767 17.1742886,9.39360194 C17.2970964,10.0819235 17.3596949,10.7850879 17.3626398,11.5026012 C17.8720011,11.3404546 18.4047813,11.2178846 18.9592818,11.1343967 C19.0665223,10.4877451 18.959333,9.77604514 18.6388395,9 Z" id="Shape" fill="#0D0E10" fill-rule="nonzero"></path>
    </g>
</svg>