<?xml version="1.0" encoding="UTF-8"?>
<svg width="24px" height="24px" viewBox="0 0 24 24" version="1.1" xmlns="http://www.w3.org/2000/svg" xmlns:xlink="http://www.w3.org/1999/xlink">
    <title>stack-check</title>
    <g id="stack-check" stroke="none" stroke-width="1" fill="none" fill-rule="evenodd">
        <path d="M22.1033009,17.2928932 C22.4938252,17.6834175 22.4938252,18.3165825 22.1033009,18.7071068 L17.9819805,22.8284271 C17.7673334,23.0430743 17.4793839,23.1397431 17.1987116,23.1184336 C16.9174992,23.1399742 16.6291175,23.043331 16.4142136,22.8284271 L14.2928932,20.7071068 C13.9023689,20.3165825 13.9023689,19.6834175 14.2928932,19.2928932 C14.6834175,18.9023689 15.3165825,18.9023689 15.7071068,19.2928932 L17.198,20.783 L20.6890873,17.2928932 C21.0796116,16.9023689 21.7127766,16.9023689 22.1033009,17.2928932 Z M18,1 C19.6568542,1 21,2.34314575 21,4 L21,14 C21,14.5522847 20.5522847,15 20,15 C19.4477153,15 19,14.5522847 19,14 L19,4 C19,3.44771525 18.5522847,3 18,3 L6,3 C5.44771525,3 5,3.44771525 5,4 L5,20 C5,20.5522847 5.44771525,21 6,21 L12,21 C12.5522847,21 13,21.4477153 13,22 C13,22.5522847 12.5522847,23 12,23 L6,23 C4.34314575,23 3,21.6568542 3,20 L3,4 C3,2.34314575 4.34314575,1 6,1 L18,1 Z M16,9 C16.5522847,9 17,9.44771525 17,10 C17,10.5128358 16.6139598,10.9355072 16.1166211,10.9932723 L16,11 L8,11 C7.44771525,11 7,10.5522847 7,10 C7,9.44771525 7.44771525,9 8,9 L16,9 Z M16,5 C16.5522847,5 17,5.44771525 17,6 C17,6.51283584 16.6139598,6.93550716 16.1166211,6.99327227 L16,7 L8,7 C7.44771525,7 7,6.55228475 7,6 C7,5.44771525 7.44771525,5 8,5 L16,5 Z" id="Shape" fill="#0D0E10" fill-rule="nonzero"></path>
    </g>
</svg>