<?xml version="1.0" encoding="UTF-8"?>
<svg width="24px" height="24px" viewBox="0 0 24 24" version="1.1" xmlns="http://www.w3.org/2000/svg" xmlns:xlink="http://www.w3.org/1999/xlink">
    <title>status-todo</title>
    <g id="status-todo" stroke="none" stroke-width="1" fill="none" fill-rule="evenodd">
        <path d="M19.7736644,18.5991058 L20.9120168,20.0360645 C18.7158061,22.4701188 15.5365645,24 12,24 C11.318641,24 10.6505452,23.9432133 10.0001873,23.8341145 L10,22 L12,22 C14.2874541,22 16.4522955,21.2321491 18.2064058,19.8415633 L19.7736644,18.5991058 Z M1.87411085,13.2342284 L2.50026192,15.1336848 C3.20500513,17.271554 4.62172331,19.1135027 6.49989673,20.353174 L8.16908414,21.454906 L7.16005813,22.9839568 C3.47152433,21.3562819 0.757458373,17.9251431 0.13530429,13.8079844 L1.87411085,13.2342284 Z M22.3853115,5.98394808 C23.4120842,7.75261105 24,9.80764798 24,12 C24,14.013113 23.5042864,15.910446 22.6282659,17.5765919 L20.8875711,17.0085043 L21.5083948,15.1073 C21.829021,14.1254174 21.9961243,13.0936357 21.9999204,12.0440834 C21.9999858,10.7922551 21.7865852,9.61167193 21.3704389,8.49857534 L20.6700587,6.62521803 L22.3853115,5.98394808 Z M16.1033009,9.29289322 C16.4938252,9.68341751 16.4938252,10.3165825 16.1033009,10.7071068 L11.9819805,14.8284271 C11.7673334,15.0430743 11.4793839,15.1397431 11.1987116,15.1184336 C10.9174992,15.1399742 10.6291175,15.043331 10.4142136,14.8284271 L8.29289322,12.7071068 C7.90236893,12.3165825 7.90236893,11.6834175 8.29289322,11.2928932 C8.68341751,10.9023689 9.31658249,10.9023689 9.70710678,11.2928932 L11.198,12.783 L14.6890873,9.29289322 C15.0796116,8.90236893 15.7127766,8.90236893 16.1033009,9.29289322 Z M6.63657174,1.26236826 L7.71805082,2.74147107 L6.10377132,3.92219191 C4.28734192,5.2507698 2.96116315,7.15575985 2.3606458,9.32724553 L1.82756138,11.254892 L0.0626120961,10.7666132 C0.48845187,6.59580105 3.05029961,3.05719153 6.63657174,1.26236826 Z M12,0 C15.33563,0 18.3533871,1.36097538 20.5282698,3.55792461 L19.4571359,5.04521626 L17.8338383,3.87692481 C16.1466302,2.66263676 14.1258228,2 12,2 C11.8496374,2 11.6997367,2.00330441 11.5503601,2.009892 L9.55230209,2.09800747 L9.47109267,0.266951674 C10.2864017,0.0920627506 11.1324496,0 12,0 Z" id="Shape" fill="#0D0E10" fill-rule="nonzero"></path>
    </g>
</svg>