<?xml version="1.0" encoding="UTF-8"?>
<svg width="24px" height="24px" viewBox="0 0 24 24" version="1.1" xmlns="http://www.w3.org/2000/svg" xmlns:xlink="http://www.w3.org/1999/xlink">
    <title>status-noshow</title>
    <g id="status-noshow" stroke="none" stroke-width="1" fill="none" fill-rule="evenodd">
        <path d="M12,0 C18.627417,0 24,5.372583 24,12 C24,18.627417 18.627417,24 12,24 C5.372583,24 0,18.627417 0,12 C0,5.372583 5.372583,0 12,0 Z M21.9505155,13.0010997 L2.04948449,13.0010997 C2.55171825,18.0538953 6.81502805,22 12,22 C17.0906997,22 21.2929476,18.1960855 21.919408,13.2755921 L21.9505155,13.0010997 Z M12,2 C6.81468642,2 2.55115644,5.94662476 2.04938526,10.9998991 L21.9506147,10.9998991 C21.4488436,5.94662476 17.1853136,2 12,2 Z" id="Shape" fill="#0D0E10" fill-rule="nonzero"></path>
    </g>
</svg>