<?xml version="1.0" encoding="UTF-8"?>
<svg width="24px" height="24px" viewBox="0 0 24 24" version="1.1" xmlns="http://www.w3.org/2000/svg" xmlns:xlink="http://www.w3.org/1999/xlink">
    <title>status-missing</title>
    <g id="status-missing" stroke="none" stroke-width="1" fill="none" fill-rule="evenodd">
        <path d="M11.9999492,4.92222132e-05 C18.627417,4.92222132e-05 24,5.372583 24,12 C24,18.627417 18.627417,24 12,24 C11.0137268,23.9967038 10.0009273,23.8738952 9.05934791,23.6365693 L9.54872076,21.6973647 C10.193309,21.8597939 10.8871464,21.9596833 11.5827823,21.9901244 L12,22 C17.5228475,22 22,17.5228475 22,12 C22,6.4771525 17.5228475,2 12,2 C11.3941801,2 10.8009427,2.05387197 10.224817,2.15708671 L9.87295337,0.188281847 C10.5659205,0.0641848558 11.2689718,0.00143073732 11.9999492,4.92222132e-05 Z M4.48844129,18.6014421 C5.15084851,19.3545796 5.92473235,20.0072828 6.78430208,20.5337611 L5.73923756,22.2390002 C4.71121509,21.6092838 3.78308257,20.8277118 2.98706764,19.9227587 L4.48844129,18.6014421 Z M12,15 C12.5522847,15 13,15.4477153 13,16 C13,16.5522847 12.5522847,17 12,17 C11.4477153,17 11,16.5522847 11,16 C11,15.4477153 11.4477153,15 12,15 Z M2.06782664,13.170931 C2.18665213,14.189763 2.45862212,15.1618373 2.86010683,16.0635243 L1.03306972,16.8771184 C0.543923068,15.7785731 0.221948105,14.6092513 0.0812096669,13.4019146 L2.06782664,13.170931 Z M12,7 C13.6568542,7 15,8.34314575 15,10 C15,11.3058822 14.1656226,12.4168852 13.0009007,12.8289758 L13,13 C13,13.5522847 12.5522847,14 12,14 C11.4477153,14 11,13.5522847 11,13 L11,12 C11,11.4871642 11.3860402,11.0644928 11.8833789,11.0067277 L12,11 C12.5522847,11 13,10.5522847 13,10 C13,9.44771525 12.5522847,9 12,9 C11.4871642,9 11.0644928,9.38604019 11.0067277,9.88337887 L11,10 C11,10.5522847 10.5522847,11 10,11 C9.44771525,11 9,10.5522847 9,10 C9,8.34314575 10.3431458,7 12,7 Z M1.35065452,6.46457667 L3.12456521,7.38828704 C2.66747783,8.26617743 2.33681939,9.22040045 2.15672852,10.2268175 L0.187820493,9.87553124 C0.40150484,8.6807939 0.79453849,7.53264475 1.35065452,6.46457667 Z M6.42634263,1.37064969 L7.35646158,3.14120857 C6.46222172,3.61091068 5.64782332,4.21204517 4.93894093,4.9189375 L3.52738791,3.50206813 C4.38104968,2.65093664 5.35842381,1.93159005 6.42634263,1.37064969 Z" id="Shape" fill="#0D0E10" fill-rule="nonzero"></path>
    </g>
</svg>