<?xml version="1.0" encoding="UTF-8"?>
<svg width="24px" height="24px" viewBox="0 0 24 24" version="1.1" xmlns="http://www.w3.org/2000/svg" xmlns:xlink="http://www.w3.org/1999/xlink">
    <title>status-block</title>
    <g id="status-block" stroke="none" stroke-width="1" fill="none" fill-rule="evenodd">
        <path d="M19.4425425,18.6791258 L20.9300852,20.0159941 C18.7332622,22.461706 15.546275,24 12,24 L12,22 C14.8786031,22 17.5558812,20.7797565 19.4425425,18.6791258 Z M2.50026192,15.1336848 C3.38724615,17.82439 5.39488032,20.0257804 7.98764665,21.1630561 L7.1839763,22.9944801 C4.08462176,21.6348996 1.67002296,19.0031826 0.600863892,15.7600132 L2.50026192,15.1336848 Z M22.3643715,5.94802157 C23.404087,7.7247577 24,9.79278738 24,12 C24,13.301471 23.7928125,14.5545508 23.4096214,15.7280555 L21.5083948,15.1073 C21.829021,14.1254174 21.9961243,13.0936357 21.9999204,12.0441173 C21.9999854,10.2053717 21.5281044,8.47888869 20.6382387,6.95820246 L22.3643715,5.94802157 Z M6.10377132,3.92219191 C3.82041175,5.59229318 2.33377777,8.1506205 2.0500359,10.9918658 L0.0599783864,10.7926894 C0.407811865,7.31093947 2.2439092,4.26758802 4.92283643,2.30806898 L6.10377132,3.92219191 Z M12,0 C14.6131712,0 17.0312531,0.835276495 19.0018218,2.25340553 L17.8338383,3.87692481 C16.1466302,2.66263676 14.1258228,2 12,2 C11.284762,2 10.5805057,2.07476787 9.89456817,2.22160987 L9.47610109,0.265878459 C10.2898663,0.0916861392 11.1342259,0 12,0 Z" id="Oval" fill="#0D0E10" fill-rule="nonzero"></path>
    </g>
</svg>