<?xml version="1.0" encoding="UTF-8"?>
<svg width="24px" height="24px" viewBox="0 0 24 24" version="1.1" xmlns="http://www.w3.org/2000/svg" xmlns:xlink="http://www.w3.org/1999/xlink">
    <title>support</title>
    <g id="support" stroke="none" stroke-width="1" fill="none" fill-rule="evenodd">
        <path d="M12,1.13686838e-13 C17.5228475,1.13686838e-13 22,4.4771525 22,10 L22,12 C22,16.4968206 19.0318427,20.3003909 14.9478061,21.558433 C14.6861844,22.9486552 13.4658696,24 12,24 C10.3431458,24 9,22.6568542 9,21 C9,19.3431458 10.3431458,18 12,18 C13.1339549,18 14.1209667,18.6291383 14.6310199,19.5573993 C16.8550789,18.7835166 18.6329143,17.0545069 19.4731275,14.8613115 C19.1639244,14.952218 18.8375422,15 18.5,15 L18,15 C16.3431458,15 15,13.6568542 15,12 L15,10 C15,8.34314575 16.3431458,7 18,7 L18.5,7 C18.8379083,7 19.1646323,7.04788566 19.4737563,7.1372412 C18.3215545,4.1334085 15.4099194,2 12,2 C8.59008061,2 5.67844548,4.1334085 4.52704369,7.13827643 C4.83536767,7.04788566 5.16209169,7 5.5,7 L6,7 C7.65685425,7 9,8.34314575 9,10 L9,12 C9,13.6568542 7.65685425,15 6,15 L5.5,15 C3.56700338,15 2,13.4329966 2,11.5 L2,10.5 C2,10.3892021 2.00514838,10.2796067 2.01521896,10.17144 C2.00504902,10.1161202 2,10.0586497 2,10 C2,4.4771525 6.4771525,1.13686838e-13 12,1.13686838e-13 Z M12,20 C11.4477153,20 11,20.4477153 11,21 C11,21.5522847 11.4477153,22 12,22 C12.5522847,22 13,21.5522847 13,21 C13,20.624708 12.7932649,20.2977017 12.4874652,20.1266515 L12.4032754,20.0846468 L12.3190234,20.0519665 L12.2313353,20.0268926 L12.1680525,20.0140599 L12.091442,20.0041248 L12,20 Z M6,9 L5.5,9 C4.67157288,9 4,9.67157288 4,10.5 L4,11.5 C4,12.3284271 4.67157288,13 5.5,13 L6,13 C6.55228475,13 7,12.5522847 7,12 L7,10 C7,9.44771525 6.55228475,9 6,9 Z M18.5,9 L18,9 C17.4477153,9 17,9.44771525 17,10 L17,12 C17,12.5522847 17.4477153,13 18,13 L18.5,13 C19.3284271,13 20,12.3284271 20,11.5 L20,10.5 C20,9.67157288 19.3284271,9 18.5,9 Z" id="Shape" fill="#0D0E10" fill-rule="nonzero"></path>
    </g>
</svg>