<?xml version="1.0" encoding="UTF-8"?>
<svg width="24px" height="24px" viewBox="0 0 24 24" version="1.1" xmlns="http://www.w3.org/2000/svg" xmlns:xlink="http://www.w3.org/1999/xlink">
    <title>switch</title>
    <g id="switch" stroke="none" stroke-width="1" fill="none" fill-rule="evenodd">
        <path d="M15.7071068,14.5649712 L18.778,17.636 L18.7781746,15 C18.7781746,14.4477153 19.2258898,14 19.7781746,14 C20.3304593,14 20.7781746,14.4477153 20.7781746,15 L20.7781746,20 C20.7781746,20.5128358 20.3921344,20.9355072 19.8947957,20.9932723 L19.7781746,21 L14.7781746,21 C14.2258898,21 13.7781746,20.5522847 13.7781746,20 C13.7781746,19.4477153 14.2258898,19 14.7781746,19 L17.313,19 L14.2928932,15.9791847 C13.9023689,15.5886604 13.9023689,14.9554954 14.2928932,14.5649712 C14.6834175,14.1744469 15.3165825,14.1744469 15.7071068,14.5649712 Z M19.7781746,3 C20.3304593,3 20.7781746,3.44771525 20.7781746,4 L20.7781746,9 C20.7781746,9.55228475 20.3304593,10 19.7781746,10 C19.2258898,10 18.7781746,9.55228475 18.7781746,9 L18.778,6.414 L4.70710678,20.4852814 C4.31658249,20.8758057 3.68341751,20.8758057 3.29289322,20.4852814 C2.90236893,20.0947571 2.90236893,19.4615921 3.29289322,19.0710678 L17.362,5 L14.7781746,5 C14.2258898,5 13.7781746,4.55228475 13.7781746,4 C13.7781746,3.44771525 14.2258898,3 14.7781746,3 L19.7781746,3 Z M5,3.85786438 L9.77817459,8.63603897 C10.1686989,9.02656326 10.1686989,9.65972824 9.77817459,10.0502525 C9.3876503,10.4407768 8.75448532,10.4407768 8.36396103,10.0502525 L3.58578644,5.27207794 C3.19526215,4.88155365 3.19526215,4.24838867 3.58578644,3.85786438 C3.97631073,3.46734008 4.60947571,3.46734008 5,3.85786438 Z" id="Shape" fill="#0D0E10" fill-rule="nonzero"></path>
    </g>
</svg>