<?xml version="1.0" encoding="UTF-8"?>
<svg width="24px" height="24px" viewBox="0 0 24 24" version="1.1" xmlns="http://www.w3.org/2000/svg" xmlns:xlink="http://www.w3.org/1999/xlink">
    <title>tag</title>
    <g id="tag" stroke="none" stroke-width="1" fill="none" fill-rule="evenodd">
        <path d="M18.7552016,2.39879371 L22.9996368,4.86403245 C23.6209805,5.22491924 24.0031632,5.89779053 24,6.62520312 L23.9780812,11.594201 C23.9733408,12.6707951 23.406401,13.6638113 22.4891533,14.2021137 L8.18976469,22.5939532 C6.7654497,23.4298367 4.94418519,22.9337863 4.12185655,21.4859936 L0.399462256,14.9323423 C-0.422866384,13.4845497 0.0651399698,11.6332644 1.48945496,10.7973809 L15.7888436,2.40554136 C16.7060913,1.86723893 17.8355929,1.86466962 18.7552016,2.39879371 Z M16.7743807,4.13547004 L2.49576378,12.5452865 C2.02168178,12.8245112 1.85924929,13.4429283 2.13296066,13.9265596 L5.84994771,20.4942501 C6.12365908,20.9778815 6.72986538,21.1435858 7.20394737,20.8643611 L21.4825643,12.4545447 C21.7878694,12.2747261 21.9765748,11.9430117 21.9781527,11.5833782 L22,6.60373577 L17.7617304,4.133216 C17.4556394,3.95479324 17.0796858,3.95565151 16.7743807,4.13547004 Z M18.5,7 C19.3284271,7 20,7.67157288 20,8.5 C20,9.32842712 19.3284271,10 18.5,10 C17.6715729,10 17,9.32842712 17,8.5 C17,7.67157288 17.6715729,7 18.5,7 Z" id="Shape" fill="#0D0E10" fill-rule="nonzero"></path>
    </g>
</svg>