<?xml version="1.0" encoding="UTF-8"?>
<svg width="24px" height="24px" viewBox="0 0 24 24" version="1.1" xmlns="http://www.w3.org/2000/svg" xmlns:xlink="http://www.w3.org/1999/xlink">
    <title>tags</title>
    <g id="tags" stroke="none" stroke-width="1" fill="none" fill-rule="evenodd">
        <path d="M19.8942923,0.395236333 C19.9647578,0.435500148 20.0327071,0.480015734 20.0977634,0.528536159 L23.3736758,2.97178415 C23.88298,3.35163448 24.1815034,3.95087967 24.1780285,4.58622547 L24.1559054,8.50861751 C24.151723,9.44307834 23.7131301,10.3140059 22.9943122,10.8680181 L22.98317,13.5125064 C22.978566,14.541157 22.4279445,15.4899517 21.537098,16.0042822 L8.68454265,23.4247085 C7.30122384,24.223368 5.53238093,23.7494079 4.73372145,22.3660891 L1.3879645,16.5710681 C0.589305013,15.1877493 1.06326504,13.4189064 2.44658385,12.6202469 L3.496,12.014 L3.31578961,11.6559769 C2.63876705,10.3017568 3.08100195,8.64964297 4.33062244,7.82339595 L4.48443239,7.72828239 L16.9059355,0.401923798 C17.8299856,-0.131576799 18.9678637,-0.134123189 19.8942923,0.395236333 Z M20.989,12.076 L10.2505009,18.4102482 C8.81562306,19.2386754 6.98085184,18.7470499 6.15242471,17.312172 L6.09593432,17.2072253 L4.393,13.805 L3.44658385,14.3522977 C3.01985029,14.5986724 2.87364057,15.1443345 3.12001531,15.5710681 L6.46577225,21.3660891 C6.71214699,21.7928227 7.25780909,21.9390324 7.68454265,21.6926577 L20.537098,14.2722314 C20.8119111,14.1135679 20.9817698,13.8208787 20.98319,13.5035551 L20.989,12.076 Z M17.9059355,2.13397461 L5.50050093,9.45095611 C5.05637206,9.70737403 4.88334805,10.2530303 5.08199135,10.7126208 L7.88447552,16.312172 C8.06199562,16.6196459 8.37814475,16.7971819 8.70839096,16.8114118 L8.81882431,16.810061 C8.9663094,16.8000733 9.11384589,16.7570953 9.25050093,16.6781974 L21.6559355,9.36121594 C21.9639522,9.18338241 22.1543336,8.8553297 22.1559254,8.4996662 L22.1779668,4.57499344 L18.9020544,2.13174545 C18.5932449,1.95529228 18.2139522,1.95614107 17.9059355,2.13397461 Z M18.500334,5.00000001 C19.3287611,5.00000001 20.000334,5.67157288 20.000334,6.50000001 C20.000334,7.32842713 19.3287611,8.00000001 18.500334,8.00000001 C17.6719068,8.00000001 17.000334,7.32842713 17.000334,6.50000001 C17.000334,5.67157288 17.6719068,5.00000001 18.500334,5.00000001 Z" id="Shape" fill="#0D0E10" fill-rule="nonzero"></path>
    </g>
</svg>