<?xml version="1.0" encoding="UTF-8"?>
<svg width="24px" height="24px" viewBox="0 0 24 24" version="1.1" xmlns="http://www.w3.org/2000/svg" xmlns:xlink="http://www.w3.org/1999/xlink">
    <title>temperature</title>
    <g id="temperature" stroke="none" stroke-width="1" fill="none" fill-rule="evenodd">
        <path d="M12,2 C14.209139,2 16,3.790861 16,6 L16.0008689,11.5285648 C17.2278632,12.6271816 18,14.2234197 18,16 C18,19.3137085 15.3137085,22 12,22 C8.6862915,22 6,19.3137085 6,16 C6,14.2229369 6.77255645,12.6263141 8.0001315,11.5276693 L8,6 C8,3.790861 9.790861,2 12,2 Z M12,4 C10.8954305,4 10,4.8954305 10,5.99995242 L10.0001528,12.4217146 L9.33391549,13.0179781 C8.48945679,13.7737446 8,14.8450843 8,16 C8,18.209139 9.790861,20 12,20 C14.209139,20 16,18.209139 16,16 C16,14.8453974 15.5108121,13.7743236 14.6667534,13.0185768 L14.0010093,12.422488 L14,6 C14,4.8954305 13.1045695,4 12,4 Z M12,14 C13.1045695,14 14,14.8954305 14,16 C14,17.1045695 13.1045695,18 12,18 C10.8954305,18 10,17.1045695 10,16 C10,14.8954305 10.8954305,14 12,14 Z" id="Shape" fill="#0D0E10" fill-rule="nonzero"></path>
    </g>
</svg>