<?xml version="1.0" encoding="UTF-8"?>
<svg width="24px" height="24px" viewBox="0 0 24 24" version="1.1" xmlns="http://www.w3.org/2000/svg" xmlns:xlink="http://www.w3.org/1999/xlink">
    <title>times</title>
    <g id="times" stroke="none" stroke-width="1" fill="none" fill-rule="evenodd">
        <path d="M7.05025253,5.63603897 L11.9991458,10.5851458 L16.9497475,5.63603897 C17.3402718,5.24551468 17.9734367,5.24551468 18.363961,5.63603897 C18.7544853,6.02656326 18.7544853,6.65972824 18.363961,7.05025253 L13.4141458,11.9991458 L18.363961,16.9497475 C18.7544853,17.3402718 18.7544853,17.9734367 18.363961,18.363961 C17.9734367,18.7544853 17.3402718,18.7544853 16.9497475,18.363961 L11.9991458,13.4141458 L7.05025253,18.363961 C6.65972824,18.7544853 6.02656326,18.7544853 5.63603897,18.363961 C5.24551468,17.9734367 5.24551468,17.3402718 5.63603897,16.9497475 L10.5851458,11.9991458 L5.63603897,7.05025253 C5.24551468,6.65972824 5.24551468,6.02656326 5.63603897,5.63603897 C6.02656326,5.24551468 6.65972824,5.24551468 7.05025253,5.63603897 Z" id="Path" fill="#0D0E10" fill-rule="nonzero"></path>
    </g>
</svg>