<?xml version="1.0" encoding="UTF-8"?>
<svg width="24px" height="24px" viewBox="0 0 24 24" version="1.1" xmlns="http://www.w3.org/2000/svg" xmlns:xlink="http://www.w3.org/1999/xlink">
    <title>times-small</title>
    <g id="times-small" stroke="none" stroke-width="1" fill="none" fill-rule="evenodd">
        <path d="M9.17157288,7.75735931 L11.9994661,10.5844661 L14.8284271,7.75735931 C15.2189514,7.36683502 15.8521164,7.36683502 16.2426407,7.75735931 C16.633165,8.1478836 16.633165,8.78104858 16.2426407,9.17157288 L13.4144661,11.9994661 L16.2426407,14.8284271 C16.633165,15.2189514 16.633165,15.8521164 16.2426407,16.2426407 C15.8521164,16.633165 15.2189514,16.633165 14.8284271,16.2426407 L11.9994661,13.4144661 L9.17157288,16.2426407 C8.78104858,16.633165 8.1478836,16.633165 7.75735931,16.2426407 C7.36683502,15.8521164 7.36683502,15.2189514 7.75735931,14.8284271 L10.5844661,11.9994661 L7.75735931,9.17157288 C7.36683502,8.78104858 7.36683502,8.1478836 7.75735931,7.75735931 C8.1478836,7.36683502 8.78104858,7.36683502 9.17157288,7.75735931 Z" id="Path" fill="#0D0E10" fill-rule="nonzero"></path>
    </g>
</svg>