<?xml version="1.0" encoding="UTF-8"?>
<svg width="24px" height="24px" viewBox="0 0 24 24" version="1.1" xmlns="http://www.w3.org/2000/svg" xmlns:xlink="http://www.w3.org/1999/xlink">
    <title>times-circle</title>
    <g id="times-circle" stroke="none" stroke-width="1" fill="none" fill-rule="evenodd">
        <path d="M12,0 C18.627417,0 24,5.372583 24,12 C24,18.627417 18.627417,24 12,24 C5.372583,24 0,18.627417 0,12 C0,5.372583 5.372583,0 12,0 Z M12,2 C6.4771525,2 2,6.4771525 2,12 C2,17.5228475 6.4771525,22 12,22 C17.5228475,22 22,17.5228475 22,12 C22,6.4771525 17.5228475,2 12,2 Z M9.05025253,7.63603897 L11.9991458,10.5851458 L14.9497475,7.63603897 C15.3402718,7.24551468 15.9734367,7.24551468 16.363961,7.63603897 C16.7544853,8.02656326 16.7544853,8.65972824 16.363961,9.05025253 L13.4141458,11.9991458 L16.363961,14.9497475 C16.7544853,15.3402718 16.7544853,15.9734367 16.363961,16.363961 C15.9734367,16.7544853 15.3402718,16.7544853 14.9497475,16.363961 L11.9991458,13.4141458 L9.05025253,16.363961 C8.65972824,16.7544853 8.02656326,16.7544853 7.63603897,16.363961 C7.24551468,15.9734367 7.24551468,15.3402718 7.63603897,14.9497475 L10.5851458,11.9991458 L7.63603897,9.05025253 C7.24551468,8.65972824 7.24551468,8.02656326 7.63603897,7.63603897 C8.02656326,7.24551468 8.65972824,7.24551468 9.05025253,7.63603897 Z" id="Shape" fill="#0D0E10" fill-rule="nonzero"></path>
    </g>
</svg>