<?xml version="1.0" encoding="UTF-8"?>
<svg width="24px" height="24px" viewBox="0 0 24 24" version="1.1" xmlns="http://www.w3.org/2000/svg" xmlns:xlink="http://www.w3.org/1999/xlink">
    <title>times-thick</title>
    <g id="times-thick" stroke="none" stroke-width="1" fill="none" fill-rule="evenodd">
        <path d="M4.5753788,3.05761184 L11.9994953,10.4824953 L19.4246212,3.05761184 C19.9127766,2.56945648 20.7042328,2.56945648 21.1923882,3.05761184 C21.6805435,3.54576721 21.6805435,4.33722343 21.1923882,4.8253788 L13.7664953,12.2494953 L21.1923882,19.6746212 C21.6805435,20.1627766 21.6805435,20.9542328 21.1923882,21.4423882 C20.7042328,21.9305435 19.9127766,21.9305435 19.4246212,21.4423882 L11.9994953,14.0164953 L4.5753788,21.4423882 C4.08722343,21.9305435 3.29576721,21.9305435 2.80761184,21.4423882 C2.31945648,20.9542328 2.31945648,20.1627766 2.80761184,19.6746212 L10.2324953,12.2494953 L2.80761184,4.8253788 C2.31945648,4.33722343 2.31945648,3.54576721 2.80761184,3.05761184 C3.29576721,2.56945648 4.08722343,2.56945648 4.5753788,3.05761184 Z" id="Path" fill="#0D0E10" fill-rule="nonzero"></path>
    </g>
</svg>