<?xml version="1.0" encoding="UTF-8"?>
<svg width="24px" height="24px" viewBox="0 0 24 24" version="1.1" xmlns="http://www.w3.org/2000/svg" xmlns:xlink="http://www.w3.org/1999/xlink">
    <title>todo-done</title>
    <g id="todo-done" stroke="none" stroke-width="1" fill="none" fill-rule="evenodd">
        <path d="M18,0 C18.5522847,0 19,0.44771525 19,1 L19,2 C20.6568542,2 22,3.34314575 22,5 L22,21 C22,22.6568542 20.6568542,24 19,24 L5,24 C3.34314575,24 2,22.6568542 2,21 L2,5 C2,3.34314575 3.34314575,2 5,2 L5,1 C5,0.44771525 5.44771525,0 6,0 C6.55228475,0 7,0.44771525 7,1 L7,2 L9,2 L9,1 C9,0.44771525 9.44771525,0 10,0 C10.5522847,0 11,0.44771525 11,1 L11,2 L13,2 L13,1 C13,0.44771525 13.4477153,0 14,0 C14.5522847,0 15,0.44771525 15,1 L15,2 L17,2 L17,1 C17,0.44771525 17.4477153,0 18,0 Z M9,4 L7,4 L7,5 C7,5.55228475 6.55228475,6 6,6 C5.44771525,6 5,5.55228475 5,5 L5,4 C4.44771525,4 4,4.44771525 4,5 L4,21 C4,21.5522847 4.44771525,22 5,22 L19,22 C19.5522847,22 20,21.5522847 20,21 L20,5 C20,4.44771525 19.5522847,4 19,4 L19,5 C19,5.55228475 18.5522847,6 18,6 C17.4477153,6 17,5.55228475 17,5 L17,4 L15,4 L15,5 C15,5.55228475 14.5522847,6 14,6 C13.4477153,6 13,5.55228475 13,5 L13,4 L11,4 L11,5 C11,5.55228475 10.5522847,6 10,6 C9.44771525,6 9,5.55228475 9,5 L9,4 Z M17.1033009,13.2928932 C17.4938252,13.6834175 17.4938252,14.3165825 17.1033009,14.7071068 L12.9819805,18.8284271 C12.7673334,19.0430743 12.4793839,19.1397431 12.1987116,19.1184336 C11.9174992,19.1399742 11.6291175,19.043331 11.4142136,18.8284271 L9.29289322,16.7071068 C8.90236893,16.3165825 8.90236893,15.6834175 9.29289322,15.2928932 C9.68341751,14.9023689 10.3165825,14.9023689 10.7071068,15.2928932 L12.198,16.783 L15.6890873,13.2928932 C16.0796116,12.9023689 16.7127766,12.9023689 17.1033009,13.2928932 Z" id="Shape" fill="#0D0E10" fill-rule="nonzero"></path>
    </g>
</svg>