<?xml version="1.0" encoding="UTF-8"?>
<svg width="24px" height="24px" viewBox="0 0 24 24" version="1.1" xmlns="http://www.w3.org/2000/svg" xmlns:xlink="http://www.w3.org/1999/xlink">
    <title>towels</title>
    <g id="towels" stroke="none" stroke-width="1" fill="none" fill-rule="evenodd">
        <path d="M18,2 C20.2522847,2 22,3.74771525 22,6 L22,14 C22,14.5522847 21.5522847,15 21,15 L16,15 L16,21 C16,21.5522847 15.5522847,22 15,22 L3,22 C2.44771525,22 2,21.5522847 2,21 L2,6.2 C2,3.84771525 3.84771525,2 6.2,2 L18,2 Z M14,6 C14,5.26537048 14.1859349,4.5844208 14.5146669,4.00028868 L6.2,4 C4.95228475,4 4,4.95228475 4,6.2 L4,20 L14,20 L14,6 Z M18,4 C16.8522847,4 16,4.85228475 16,6 L16,13 L20,13 L20,6 C20,4.90445362 19.2234348,4.07809083 18.1546231,4.00523046 L18,4 Z" id="Shape" fill="#000000" fill-rule="nonzero"></path>
    </g>
</svg>