<?xml version="1.0" encoding="UTF-8"?>
<svg width="24px" height="24px" viewBox="0 0 24 24" version="1.1" xmlns="http://www.w3.org/2000/svg" xmlns:xlink="http://www.w3.org/1999/xlink">
    <title>trash</title>
    <g id="trash" stroke="none" stroke-width="1" fill="none" fill-rule="evenodd">
        <path d="M10.4285714,0 L13.5714286,0 L13.8089868,0.0138742989 L14.0084378,0.044572352 C14.8153207,0.210813459 15.3563246,0.754241956 15.6382901,1.4121614 L15.7014175,1.55945878 L16.061,3 L22,3 C22.5522847,3 23,3.44771525 23,4 C23,4.55228475 22.5522847,5 22,5 L21,5 L21,21 C21,22.6568542 19.6568542,24 18,24 L6,24 C4.34314575,24 3,22.6568542 3,21 L3,5 L2,5 C1.44771525,5 1,4.55228475 1,4 C1,3.44771525 1.44771525,3 2,3 L7.938,3 L8.30966882,1.51511348 L8.46466368,1.1997022 C8.83767401,0.513855902 9.52030839,0 10.4285714,0 Z M19,5 L5,5 L5,21 C5,21.5522847 5.44771525,22 6,22 L18,22 C18.5522847,22 19,21.5522847 19,21 L19,5 Z M13.5714286,2 L10.4285714,2 C10.3498821,2 10.275211,2.05673058 10.2216248,2.15525834 L10.2,2.2 L10,3 L14,3 L13.8,2.2 C13.7527864,2.08983494 13.6820498,2.01933374 13.6048568,2.00342976 L13.5714286,2 Z" id="Shape" fill="#0D0E10" fill-rule="nonzero"></path>
    </g>
</svg>