<?xml version="1.0" encoding="UTF-8"?>
<svg width="24px" height="24px" viewBox="0 0 24 24" version="1.1" xmlns="http://www.w3.org/2000/svg" xmlns:xlink="http://www.w3.org/1999/xlink">
    <title>travel-enjoy-hygge</title>
    <g id="travel-enjoy-hygge" stroke="none" stroke-width="1" fill="none" fill-rule="evenodd">
        <path d="M3.38196601,1 C4.28076983,1 5.11855599,1.40167175 5.68100001,2.07255543 L5.80151871,2.00796618 C7.27778666,1.25577009 9.0843137,1.8427463 9.83650979,3.31901425 C10.5887059,4.7952822 10.0017297,6.60180923 8.52546171,7.35400532 L8.43356579,7.396 L8.81956579,8.168 L14.7605682,7.17898446 C16.3033694,6.92185093 17.784847,7.89317674 18.1641927,9.41055935 L18.8955658,12.339 L21.5883484,12.8780619 C22.990621,13.1585164 24,14.3897608 24,15.8198039 L24,16 C24,17.0880399 23.4207792,18.0407954 22.5538664,18.566738 L23.1041544,20.6230824 C23.2470962,21.1565485 22.9305137,21.7048855 22.3970476,21.8478273 C21.8635815,21.9907691 21.3152446,21.6741866 21.1723027,21.1407205 L20.5985658,19 L6.72075922,19 C6.53801629,19 6.35817489,18.9834512 6.18291631,18.9515656 L4.8660254,21.2320508 C4.58988303,21.7103434 3.97829262,21.8742186 3.5,21.5980762 C3.02170738,21.3219338 2.85783222,20.7103434 3.1339746,20.2320508 L4.44712508,17.9574159 C4.19751999,17.6676487 4.00088164,17.3272002 3.87470933,16.9486833 L2.4727095,12.7426838 C2.35897929,12.4014932 2.30996147,12.0543125 2.31899713,11.7144596 C2.11481747,11.4219644 1.96080057,11.0894135 1.87034891,10.7276069 L0.302250625,4.45521375 C-0.070230835,2.96528791 0.835636817,1.45550849 2.32556266,1.08302703 C2.54613552,1.02788382 2.7726387,1 3,1 L3.38196601,1 Z M15.2075224,9.13915826 L15.0893662,9.15177231 L5.15436041,10.8076066 C5.1028437,10.8161927 5.05207881,10.8288015 5.00253163,10.8453172 C4.47858831,11.019965 4.19542832,11.586285 4.3700761,12.1102283 L5.77207592,16.3162278 C5.90818997,16.7245699 6.29032881,17 6.72075922,17 L18,17 L16.2239077,9.8956306 C16.1169127,9.46765089 15.7468843,9.16999243 15.3240054,9.14046098 L15.2075224,9.13915826 Z M19.4325658,14.486 L20,17 L21,17 C21.5522847,17 22,16.5522847 22,16 L22,15.8198039 C22,15.3431229 21.6635403,14.9327081 21.1961161,14.8392232 L19.4325658,14.486 Z M3.38196601,3 L3,3 C2.93616231,3 2.87256556,3.00782912 2.81063391,3.02331203 C2.39229788,3.12789604 2.13795162,3.55180648 2.24253563,3.9701425 L3.58660612,9.34361319 C3.82114303,9.17795312 4.08361339,9.0434382 4.3700761,8.94795063 C4.51871763,8.89840345 4.67101232,8.8605771 4.82556243,8.83481875 L6.75556579,8.512 L4.2763932,3.5527864 C4.10700119,3.21400238 3.76073807,3 3.38196601,3 Z M6.70949971,3.78997923 L6.64756579,3.824 L7.53945509,5.6076822 L7.61748071,5.57199227 C8.10957003,5.32126024 8.30522877,4.71908457 8.05449674,4.22699525 C7.80376471,3.73490593 7.20158903,3.5392472 6.70949971,3.78997923 Z" id="Shape" fill="#0D0E10" fill-rule="nonzero"></path>
    </g>
</svg>