<?xml version="1.0" encoding="UTF-8"?>
<svg width="24px" height="24px" viewBox="0 0 24 24" version="1.1" xmlns="http://www.w3.org/2000/svg" xmlns:xlink="http://www.w3.org/1999/xlink">
    <title>undo</title>
    <g id="undo" stroke="none" stroke-width="1" fill="none" fill-rule="evenodd">
        <path d="M12,1 C18.627417,1 24,6.372583 24,13 C24,13.5522847 23.5522847,14 23,14 C22.4477153,14 22,13.5522847 22,13 C22,7.4771525 17.5228475,3 12,3 C6.4771525,3 2,7.4771525 2,13 C2,16.454698 3.00622773,18.693331 5.0000494,19.8677062 L5,17 C5,16.4477153 5.44771525,16 6,16 C6.55228475,16 7,16.4477153 7,17 L7,22 C7,22.5128358 6.61395981,22.9355072 6.11662113,22.9932723 L5.98269085,23 L1,23 C0.44771525,23 -1.42108547e-14,22.5522847 -1.42108547e-14,22 C-1.42108547e-14,21.4477153 0.44771525,21 1,21 L3.12008786,20.999515 C1.03572545,19.3430573 -1.42108547e-14,16.6414895 -1.42108547e-14,13 C-1.42108547e-14,6.372583 5.372583,1 12,1 Z" id="Path" fill="#0D0E10" fill-rule="nonzero"></path>
    </g>
</svg>