<?xml version="1.0" encoding="UTF-8"?>
<svg width="24px" height="24px" viewBox="0 0 24 24" version="1.1" xmlns="http://www.w3.org/2000/svg" xmlns:xlink="http://www.w3.org/1999/xlink">
    <title>upload</title>
    <g id="upload" stroke="none" stroke-width="1" fill="none" fill-rule="evenodd">
        <path d="M23,14 C23.5522847,14 24,14.4477153 24,15 L24,21 C24,22.6568542 22.6568542,24 21,24 L3,24 C1.34314575,24 -1.77635684e-13,22.6568542 -1.77635684e-13,21 L-1.77635684e-13,15 C-1.77635684e-13,14.4477153 0.44771525,14 1,14 C1.55228475,14 2,14.4477153 2,15 L2,21 C2,21.5522847 2.44771525,22 3,22 L21,22 C21.5522847,22 22,21.5522847 22,21 L22,15 C22,14.4477153 22.4477153,14 23,14 Z M12.7071068,0.280376415 L15.7071068,3.17353881 C16.0976311,3.54737403 16.0976311,4.15348067 15.7071068,4.52731589 C15.3165825,4.90115111 14.6834175,4.90115111 14.2928932,4.52731589 L12.999205,3.26744841 L13,15.8076923 C13,16.3599771 12.5522847,16.8076923 12,16.8076923 C11.4477153,16.8076923 11,16.3599771 11,15.8076923 L11.0015,3.26769231 L9.70710678,4.52731589 C9.3371364,4.88147557 8.74939432,4.90011556 8.3565006,4.58323584 L8.29289322,4.52731589 C7.90236893,4.15348067 7.90236893,3.54737403 8.29289322,3.17353881 L11.2928932,0.280376415 C11.6834175,-0.0934588049 12.3165825,-0.0934588049 12.7071068,0.280376415 Z" id="Shape" fill="#0D0E10" fill-rule="nonzero"></path>
    </g>
</svg>