<?xml version="1.0" encoding="UTF-8"?>
<svg width="24px" height="24px" viewBox="0 0 24 24" version="1.1" xmlns="http://www.w3.org/2000/svg" xmlns:xlink="http://www.w3.org/1999/xlink">
    <title>user</title>
    <g id="user" stroke="none" stroke-width="1" fill="none" fill-rule="evenodd">
        <path d="M21,0 C22.6568542,0 24,1.34314575 24,3 L24,21 C24,22.6568542 22.6568542,24 21,24 L3,24 C1.34314575,24 0,22.6568542 0,21 L0,3 C0,1.34314575 1.34314575,0 3,0 L21,0 Z M21,2 L3,2 C2.44771525,2 2,2.44771525 2,3 L2,21 C2,21.5522847 2.44771525,22 3,22 L5,22 L5,19 C5,16.790861 6.790861,15 9,15 L15,15 C17.209139,15 19,16.790861 19,19 L19,22 L21,22 C21.5522847,22 22,21.5522847 22,21 L22,3 C22,2.44771525 21.5522847,2 21,2 Z M15,17 L9,17 C7.8954305,17 7,17.8954305 7,19 L7,22 L17,22 L17,19 C17,17.8954305 16.1045695,17 15,17 Z M12,5 C14.209139,5 16,6.790861 16,9 C16,11.209139 14.209139,13 12,13 C9.790861,13 8,11.209139 8,9 C8,6.790861 9.790861,5 12,5 Z M12,7 C10.8954305,7 10,7.8954305 10,9 C10,10.1045695 10.8954305,11 12,11 C13.1045695,11 14,10.1045695 14,9 C14,7.8954305 13.1045695,7 12,7 Z" fill="#0D0E10" fill-rule="nonzero"></path>
    </g>
</svg>