<?xml version="1.0" encoding="UTF-8"?>
<svg width="24px" height="24px" viewBox="0 0 24 24" version="1.1" xmlns="http://www.w3.org/2000/svg" xmlns:xlink="http://www.w3.org/1999/xlink">
    <title>user-circle</title>
    <g id="user-circle" stroke="none" stroke-width="1" fill="none" fill-rule="evenodd">
        <path d="M12,0 C18.627417,0 24,5.372583 24,12 C24,18.627417 18.627417,24 12,24 C5.372583,24 0,18.627417 0,12 C0,5.372583 5.372583,0 12,0 Z M15,17 L9,17 C7.8954305,17 7,17.8954305 7,19 L7,20.6621855 C8.4708768,21.5130314 10.1785696,22 12,22 C13.8218428,22 15.5298964,21.5128109 17.0009861,20.6616075 L17,19 C17,17.8954305 16.1045695,17 15,17 Z M12,2 C6.4771525,2 2,6.4771525 2,12 C2,14.7975441 3.14876093,17.3267806 5.00029777,19.1417247 L5,19 C5,16.790861 6.790861,15 9,15 L15,15 C17.209139,15 19,16.790861 19,19 L19.0007123,19.1407345 C20.8516568,17.3258607 22,14.7970353 22,12 C22,6.4771525 17.5228475,2 12,2 Z M12,5 C14.209139,5 16,6.790861 16,9 C16,11.209139 14.209139,13 12,13 C9.790861,13 8,11.209139 8,9 C8,6.790861 9.790861,5 12,5 Z M12,7 C10.8954305,7 10,7.8954305 10,9 C10,10.1045695 10.8954305,11 12,11 C13.1045695,11 14,10.1045695 14,9 C14,7.8954305 13.1045695,7 12,7 Z" id="Shape" fill="#0D0E10" fill-rule="nonzero"></path>
    </g>
</svg>