<?xml version="1.0" encoding="UTF-8"?>
<svg width="24px" height="24px" viewBox="0 0 24 24" version="1.1" xmlns="http://www.w3.org/2000/svg" xmlns:xlink="http://www.w3.org/1999/xlink">
    <title>user-add</title>
    <g id="user-add" stroke="none" stroke-width="1" fill="none" fill-rule="evenodd">
        <path d="M11,13 C13.209139,13 15,14.790861 15,17 L15,20 C15,20.5522847 14.5522847,21 14,21 C13.4477153,21 13,20.5522847 13,20 L13,17 C13,15.8954305 12.1045695,15 11,15 L5,15 C3.8954305,15 3,15.8954305 3,17 L3,20 C3,20.5522847 2.55228475,21 2,21 C1.44771525,21 1,20.5522847 1,20 L1,17 C1,14.790861 2.790861,13 5,13 L11,13 Z M19,6.82842712 C19.5522847,6.82842712 20,7.27614237 20,7.82842712 L19.999849,9.99924494 L22.1715729,10 C22.7238576,10 23.1715729,10.4477153 23.1715729,11 C23.1715729,11.5522847 22.7238576,12 22.1715729,12 L20.0005561,11.99965 L20,14.1715729 C20,14.7238576 19.5522847,15.1715729 19,15.1715729 C18.4477153,15.1715729 18,14.7238576 18,14.1715729 L17.9994439,11.99965 L15.8284271,12 C15.2761424,12 14.8284271,11.5522847 14.8284271,11 C14.8284271,10.4477153 15.2761424,10 15.8284271,10 L18.000151,9.99924494 L18,7.82842712 C18,7.27614237 18.4477153,6.82842712 19,6.82842712 Z M8,3 C10.209139,3 12,4.790861 12,7 C12,9.209139 10.209139,11 8,11 C5.790861,11 4,9.209139 4,7 C4,4.790861 5.790861,3 8,3 Z M8,5 C6.8954305,5 6,5.8954305 6,7 C6,8.1045695 6.8954305,9 8,9 C9.1045695,9 10,8.1045695 10,7 C10,5.8954305 9.1045695,5 8,5 Z" id="Shape" fill="#0D0E10" fill-rule="nonzero"></path>
    </g>
</svg>