<?xml version="1.0" encoding="UTF-8"?>
<svg width="24px" height="24px" viewBox="0 0 24 24" version="1.1" xmlns="http://www.w3.org/2000/svg" xmlns:xlink="http://www.w3.org/1999/xlink">
    <title>user-multiple</title>
    <g id="user-multiple" stroke="none" stroke-width="1" fill="none" fill-rule="evenodd">
        <path d="M10,16 C12.209139,16 14,17.790861 14,20 L14,22 C14,22.5522847 13.5522847,23 13,23 C12.4477153,23 12,22.5522847 12,22 L12,20 C12,18.8954305 11.1045695,18 10,18 L4,18 C2.8954305,18 2,18.8954305 2,20 L2,22 C2,22.5522847 1.55228475,23 1,23 C0.44771525,23 0,22.5522847 0,22 L0,20 C0,17.790861 1.790861,16 4,16 L10,16 Z M20,12 C22.209139,12 24,13.790861 24,16 L24,18 C24,18.5522847 23.5522847,19 23,19 C22.4477153,19 22,18.5522847 22,18 L22,16 C22,14.8954305 21.1045695,14 20,14 L15,14 C14.4477153,14 14,13.5522847 14,13 C14,12.4477153 14.4477153,12 15,12 L20,12 Z M7,4 C9.76142375,4 12,6.23857625 12,9 C12,11.7614237 9.76142375,14 7,14 C4.23857625,14 2,11.7614237 2,9 C2,6.23857625 4.23857625,4 7,4 Z M7,6 C5.34314575,6 4,7.34314575 4,9 C4,10.6568542 5.34314575,12 7,12 C8.65685425,12 10,10.6568542 10,9 C10,7.34314575 8.65685425,6 7,6 Z M18.5,1 C20.9852814,1 23,3.01471863 23,5.5 C23,7.98528137 20.9852814,10 18.5,10 C16.0147186,10 14,7.98528137 14,5.5 C14,3.01471863 16.0147186,1 18.5,1 Z M18.5,3 C17.1192881,3 16,4.11928813 16,5.5 C16,6.88071187 17.1192881,8 18.5,8 C19.8807119,8 21,6.88071187 21,5.5 C21,4.11928813 19.8807119,3 18.5,3 Z" id="Shape" fill="#0D0E10" fill-rule="nonzero"></path>
    </g>
</svg>