<?xml version="1.0" encoding="UTF-8"?>
<svg width="24px" height="24px" viewBox="0 0 24 24" version="1.1" xmlns="http://www.w3.org/2000/svg" xmlns:xlink="http://www.w3.org/1999/xlink">
    <title>vending-machine</title>
    <g id="vending-machine" stroke="none" stroke-width="1" fill="none" fill-rule="evenodd">
        <path d="M11,1 C12.6568542,1 14,2.34314575 14,4 L14.0003218,5.34129768 L13.9590742,5.35604487 C14.5961616,5.1256219 15.2834105,5 16,5 C19.3137085,5 22,7.6862915 22,11 C22,14.3137085 19.3137085,17 16,17 C15.3857805,17 14.7931173,16.9077064 14.2351221,16.7362307 L14.0003218,16.6587023 L14,20 C14,21.6568542 12.6568542,23 11,23 L5,23 C3.34314575,23 2,21.6568542 2,20 L2,4 C2,2.34314575 3.34314575,1 5,1 L11,1 Z M11,3 L5,3 C4.44771525,3 4,3.44771525 4,4 L4,20 C4,20.5522847 4.44771525,21 5,21 L11,21 C11.5522847,21 12,20.5522847 12,20 L12.0001315,15.4723307 L12.0121516,15.4830595 C10.7776017,14.3840939 10,12.7828563 10,11 C10,9.31097826 10.6979029,7.78496049 11.8210668,6.69458862 L12.0001315,6.52766929 L12,4 C12,3.44771525 11.5522847,3 11,3 Z M8,6 C8.55228475,6 9,6.44771525 9,7 L9,17 C9,17.5128358 8.61395981,17.9355072 8.11662113,17.9932723 L8,18 C7.44771525,18 7,17.5522847 7,17 L7,7 C7,6.44771525 7.44771525,6 8,6 Z M16,7 C13.790861,7 12,8.790861 12,11 C12,13.209139 13.790861,15 16,15 C18.209139,15 20,13.209139 20,11 C20,8.790861 18.209139,7 16,7 Z" id="Shape" fill="#0D0E10" fill-rule="nonzero"></path>
    </g>
</svg>