<?xml version="1.0" encoding="UTF-8"?>
<svg width="24px" height="24px" viewBox="0 0 24 24" version="1.1" xmlns="http://www.w3.org/2000/svg" xmlns:xlink="http://www.w3.org/1999/xlink">
    <title>weather</title>
    <g id="weather" stroke="none" stroke-width="1" fill="none" fill-rule="evenodd">
        <path d="M21.5669873,6.4694955 C23.2410115,7.43599381 23.8145745,9.57656023 22.8480762,11.2505844 C22.0971242,12.5512715 21.0919086,13.1322664 19.2556099,13.1803289 L19,13.1835971 L2,13.1835971 C1.44771525,13.1835971 1,12.7358819 1,12.1835971 C1,11.6313124 1.44771525,11.1835971 2,11.1835971 L19,11.1835971 C20,11.1835971 20.7018118,10.9680233 21.1160254,10.2505844 C21.530239,9.53314548 21.2844262,8.61575987 20.5669873,8.20154631 C19.8917507,7.81169825 19.0393986,8.00651016 18.5961258,8.62891166 L18.5179492,8.75058441 C18.2418068,9.22887704 17.6302164,9.39275219 17.1519238,9.11660982 C16.6736312,8.84046744 16.509756,8.22887704 16.7858984,7.75058441 C17.7523967,6.07656023 19.8929631,5.50299719 21.5669873,6.4694955 Z M12.5669873,2.4694955 C14.2410115,3.43599381 14.8145745,5.57656023 13.8480762,7.25058441 C13.0971242,8.5512715 12.0919086,9.13226637 10.2556099,9.18032889 L10,9.18359712 L2,9.18359712 C1.44771525,9.18359712 1,8.73588187 1,8.18359712 C1,7.63131237 1.44771525,7.18359712 2,7.18359712 L10,7.18359712 C11,7.18359712 11.7018118,6.96802335 12.1160254,6.25058441 C12.530239,5.53314548 12.2844262,4.61575987 11.5669873,4.20154631 C10.8917507,3.81169825 10.0393986,4.00651016 9.59612583,4.62891166 L9.51794919,4.75058441 C9.24180682,5.22887704 8.63021641,5.39275219 8.15192379,5.11660982 C7.67363117,4.84046744 7.50975601,4.22887704 7.78589838,3.75058441 C8.7523967,2.07656023 10.8929631,1.50299719 12.5669873,2.4694955 Z M2,15 C1.44771525,15 1,15.4477153 1,16 C1,16.5522847 1.44771525,17 2,17 L15,17 C16,17 16.7018118,17.2155738 17.1160254,17.9330127 C17.530239,18.6504516 17.2844262,19.5678372 16.5669873,19.9820508 C15.8917507,20.3718989 15.0393986,20.177087 14.5961258,19.5546855 L14.5179492,19.4330127 C14.2418068,18.9547201 13.6302164,18.7908449 13.1519238,19.0669873 C12.6736312,19.3431297 12.509756,19.9547201 12.7858984,20.4330127 C13.7523967,22.1070369 15.8929631,22.6805999 17.5669873,21.7141016 C19.2410115,20.7476033 19.8145745,18.6070369 18.8480762,16.9330127 C18.0971242,15.6323256 17.0919086,15.0513307 15.2556099,15.0032682 L15,15 L2,15 Z" id="Shape" fill="#0D0E10" fill-rule="nonzero"></path>
    </g>
</svg>