<?xml version="1.0" encoding="UTF-8"?>
<svg width="24px" height="24px" viewBox="0 0 24 24" version="1.1" xmlns="http://www.w3.org/2000/svg" xmlns:xlink="http://www.w3.org/1999/xlink">
    <title>weight</title>
    <g id="weight" stroke="none" stroke-width="1" fill="none" fill-rule="evenodd">
        <path d="M12,2 C14.2091295,2 16,3.7908705 16,6 C16,6.72902906 15.8049655,7.41250768 15.4642273,8.001105 L16.9714053,8 C18.3770133,8 19.5941685,8.97593306 19.8996836,10.3479369 L21.6811075,18.3479369 C22.041232,19.9651803 21.0221358,21.5681538 19.4048923,21.9282783 C19.1908131,21.975949 18.9721518,22 18.7528292,22 L5.24759466,22 C3.59074041,22 2.24759466,20.6568542 2.24759466,19 C2.24759466,18.7803447 2.27171866,18.5613538 2.31953281,18.3469657 L4.10374188,10.3469657 C4.40963086,8.97542696 5.62656832,8 7.03180372,8 L8.53577275,8.001105 C8.19503453,7.41250768 8,6.72902906 8,6 C8,3.7908705 9.7908705,2 12,2 Z M16.9714053,10 L7.03180372,10 C6.56339192,10 6.1577461,10.3251423 6.05578311,10.7823219 L4.27157404,18.7823219 C4.25563599,18.8537846 4.24759466,18.9267816 4.24759466,19 C4.24759466,19.5522847 4.69530991,20 5.24759466,20 L18.7528292,20 C18.8259368,20 18.8988238,19.991983 18.9701836,19.9760928 C19.5092647,19.8560513 19.8489635,19.3217268 19.728922,18.7826456 L17.947498,10.7826456 C17.8456597,10.325311 17.4399413,10 16.9714053,10 Z M12,4 C10.89544,4 10,4.89544 10,6 C10,7.10456 10.89544,8 12,8 C13.10456,8 14,7.10456 14,6 C14,4.89544 13.10456,4 12,4 Z" id="Shape" fill="#0D0E10" fill-rule="nonzero"></path>
    </g>
</svg>