<?xml version="1.0" encoding="UTF-8"?>
<svg width="24px" height="24px" viewBox="0 0 24 24" version="1.1" xmlns="http://www.w3.org/2000/svg" xmlns:xlink="http://www.w3.org/1999/xlink">
    <title>wifi-off</title>
    <g id="wifi-off" stroke="none" stroke-width="1" fill="none" fill-rule="evenodd">
        <path d="M19,0.607695155 C19.4782926,0.88383753 19.6421678,1.49542793 19.3660254,1.97372056 L6.3660254,23.0262794 C6.08988303,23.5045721 5.47829262,23.6684472 5,23.3923048 C4.52170738,23.1161625 4.35783222,22.5045721 4.6339746,22.0262794 L17.6339746,0.973720558 C17.910117,0.495427935 18.5217074,0.33155278 19,0.607695155 Z M13.008871,14.1738359 C14.1694579,14.5881501 15.0000589,15.6970764 15.0000589,17 C15.0000589,18.6568542 13.6569131,20 12.0000589,20 C11.194808,20 10.4636574,19.6827388 9.92478623,19.1663955 L11.0566225,17.3323748 C11.1936303,17.7212729 11.5642945,18 12.0000589,18 C12.5523436,18 13.0000589,17.5522847 13.0000589,17 C13.0000589,16.4477153 12.5523436,16 12.0000589,16 C11.9578171,16 11.9161871,16.0026191 11.8753223,16.0077039 L13.008871,14.1738359 Z M15.7808897,9.68316802 C17.2037932,10.229051 18.5152787,11.1006741 19.7070589,12.293 C20.0860311,12.6853789 20.0806112,13.3090848 19.6948774,13.6948186 C19.3091436,14.0805524 18.6854377,14.0859722 18.2930589,13.707 C17.1975827,12.6121271 16.0060388,11.8531278 14.7067927,11.4231972 L15.7808897,9.68316802 Z M11.4951697,9.01106105 L10.1492794,11.1908386 C8.51261826,11.5413013 7.03884614,12.3759461 5.70705885,13.707 C5.31467996,14.0859722 4.69097407,14.0805524 4.30524028,13.6948186 C3.91950648,13.3090848 3.91408664,12.6853789 4.29305885,12.293 C6.35103954,10.234077 8.76596693,9.13145154 11.4951697,9.01106105 Z M18.3962256,5.44924462 C19.7254116,6.1665884 20.8626018,7.15019931 21.8000589,8.4 C22.0144182,8.68581247 22.0600153,9.06427345 21.9196741,9.39282035 C21.7793329,9.72136724 21.4743747,9.95008595 21.1196741,9.99282036 C20.7649736,10.0355548 20.4144182,9.88581249 20.2000589,9.6 C19.4194666,8.55921036 18.4696177,7.74409636 17.3423564,7.154658 L18.3962256,5.44924462 Z M12.0000589,4 C12.86779,4 13.6947988,4.05973978 14.4802633,4.17921111 L13.3221688,6.05463633 C12.8965176,6.01821211 12.4558766,6 12.0000589,6 C8.30005885,6 5.60005885,7.2 3.80005885,9.6 C3.468688,10.0418278 2.84188665,10.1313708 2.40005885,9.8 C1.95823105,9.46862915 1.868688,8.8418278 2.20005885,8.4 C4.40005885,5.467 7.70005885,4 12.0000589,4 Z" id="Shape" fill="#0D0E10" fill-rule="nonzero"></path>
    </g>
</svg>