<?xml version="1.0" encoding="UTF-8"?>
<svg width="24px" height="24px" viewBox="0 0 24 24" version="1.1" xmlns="http://www.w3.org/2000/svg" xmlns:xlink="http://www.w3.org/1999/xlink">
    <title>wifi</title>
    <g id="wifi" stroke="none" stroke-width="1" fill="none" fill-rule="evenodd">
        <path d="M21.8000589,7.4 C19.6000589,4.467 16.3000589,3 12.0000589,3 C7.70005885,3 4.40005885,4.467 2.20005885,7.4 C1.868688,7.8418278 1.95823105,8.46862915 2.40005885,8.8 C2.84188665,9.13137085 3.468688,9.0418278 3.80005885,8.6 C5.60005885,6.2 8.30005885,5 12.0000589,5 C15.7000589,5 18.4000589,6.2 20.2000589,8.6 C20.4144182,8.88581249 20.7649736,9.03555477 21.1196741,8.99282036 C21.4743747,8.95008595 21.7793329,8.72136724 21.9196741,8.39282035 C22.0600153,8.06427345 22.0144182,7.68581247 21.8000589,7.4 Z M12.0000589,7 C14.9370589,7 17.5230589,8.108 19.7070589,10.293 C20.0860311,10.6853789 20.0806112,11.3090848 19.6948774,11.6948186 C19.3091436,12.0805524 18.6854377,12.0859722 18.2930589,11.707 C16.4770589,9.892 14.3970589,9 12.0000589,9 C9.60305885,9 7.52305885,9.892 5.70705885,11.707 C5.31467996,12.0859722 4.69097407,12.0805524 4.30524028,11.6948186 C3.91950648,11.3090848 3.91408664,10.6853789 4.29305885,10.293 C6.47705885,8.108 9.06305885,7 12.0000589,7 Z M16.7070589,13.293 C15.2010589,11.786 13.6270589,11 12.0000589,11 C10.3720589,11 8.80005885,11.786 7.29305885,13.293 C7.03310227,13.5440745 6.92884625,13.9158779 7.0203617,14.2655073 C7.11187714,14.6151368 7.3849221,14.8881817 7.73455153,14.9796972 C8.08418096,15.0712126 8.45598438,14.9669566 8.70705885,14.707 C9.86705885,13.547 10.9610589,13 12.0000589,13 C13.0390589,13 14.1330589,13.547 15.2930589,14.707 C15.6854377,15.0859722 16.3091436,15.0805524 16.6948774,14.6948186 C17.0509394,14.3387566 17.0829469,13.7799255 16.7876923,13.3874418 L16.7070589,13.293 Z M12.0000589,16 C13.6569131,16 15.0000589,17.3431458 15.0000589,19 C15.0000589,20.6568542 13.6569131,22 12.0000589,22 C10.3432046,22 9.00005885,20.6568542 9.00005885,19 C9.00005885,17.3431458 10.3432046,16 12.0000589,16 Z M12.0000589,18 C11.4477741,18 11.0000589,18.4477153 11.0000589,19 C11.0000589,19.5522847 11.4477741,20 12.0000589,20 C12.5523436,20 13.0000589,19.5522847 13.0000589,19 C13.0000589,18.4477153 12.5523436,18 12.0000589,18 Z" id="Shape" fill="#0D0E10" fill-rule="nonzero"></path>
    </g>
</svg>