<?xml version="1.0" encoding="UTF-8"?>
<svg width="24px" height="24px" viewBox="0 0 24 24" version="1.1" xmlns="http://www.w3.org/2000/svg" xmlns:xlink="http://www.w3.org/1999/xlink">
    <title>window-excluded</title>
    <g id="window-excluded" stroke="none" stroke-width="1" fill="none" fill-rule="evenodd">
        <path d="M15,1 C17.7614237,1 20,3.23857625 20,6 L20,18 C20,18.7205386 19.8475876,19.4054793 19.5732433,20.0243419 L21.4601551,21.9119669 C21.8506794,22.3024912 21.8506794,22.9356562 21.4601551,23.3261805 C21.0696308,23.7167048 20.4364658,23.7167048 20.0459415,23.3261805 L18.3928804,21.6726837 C17.5014892,22.4965682 16.309536,23 15,23 L9,23 C6.23857625,23 4,20.7614237 4,18 L3.99916524,7.28 L0.954058454,4.23429742 C0.563534162,3.84377313 0.563534162,3.21060815 0.954058454,2.82008386 C1.34458275,2.42955957 1.97774772,2.42955957 2.36827202,2.82008386 L4.18734403,4.63943392 C4.77990148,2.53922286 6.71019836,1 9,1 L15,1 Z M5.99916524,9.28 L6,18 C6,19.6568542 7.34314575,21 9,21 L15,21 C15.7569457,21 16.4484146,20.7196607 16.9762454,20.2571436 L5.99916524,9.28 Z M15,3 L9,3 C7.34314575,3 6,4.34314575 6,6 L5.99916524,6.451 L17.9705398,18.4220838 C17.9899581,18.2841783 18,18.1432618 18,18 L18,6 C18,4.34314575 16.6568542,3 15,3 Z M14,4.5 C15.3807119,4.5 16.5,5.61928813 16.5,7 C16.5,7.27614237 16.2761424,7.5 16,7.5 C15.7238576,7.5 15.5,7.27614237 15.5,7 C15.5,6.17157288 14.8284271,5.5 14,5.5 C13.7238576,5.5 13.5,5.27614237 13.5,5 C13.5,4.72385763 13.7238576,4.5 14,4.5 Z" id="Combined-Shape" fill="#000000" fill-rule="nonzero"></path>
    </g>
</svg>