<?xml version="1.0" encoding="UTF-8"?>
<svg width="24px" height="24px" viewBox="0 0 24 24" version="1.1" xmlns="http://www.w3.org/2000/svg" xmlns:xlink="http://www.w3.org/1999/xlink">
    <title>window</title>
    <g id="window" stroke="none" stroke-width="1" fill="none" fill-rule="evenodd">
        <path d="M15,1 C17.7614237,1 20,3.23857625 20,6 L20,18 C20,20.7614237 17.7614237,23 15,23 L9,23 C6.23857625,23 4,20.7614237 4,18 L4,6 C4,3.23857625 6.23857625,1 9,1 L15,1 Z M15,3 L9,3 C7.34314575,3 6,4.34314575 6,6 L6,18 C6,19.6568542 7.34314575,21 9,21 L15,21 C16.6568542,21 18,19.6568542 18,18 L18,6 C18,4.34314575 16.6568542,3 15,3 Z M14,4.5 C15.3807119,4.5 16.5,5.61928813 16.5,7 C16.5,7.27614237 16.2761424,7.5 16,7.5 C15.7238576,7.5 15.5,7.27614237 15.5,7 C15.5,6.17157288 14.8284271,5.5 14,5.5 C13.7238576,5.5 13.5,5.27614237 13.5,5 C13.5,4.72385763 13.7238576,4.5 14,4.5 Z" id="Combined-Shape" fill="#000000" fill-rule="nonzero"></path>
    </g>
</svg>