<?xml version="1.0" encoding="UTF-8"?>
<svg width="80px" height="80px" viewBox="0 0 80 80" version="1.1" xmlns="http://www.w3.org/2000/svg" xmlns:xlink="http://www.w3.org/1999/xlink">
    <title>Artboard</title>
    <g id="Artboard" stroke="none" stroke-width="1" fill="none" fill-rule="evenodd">
        <path d="M66.624695,12.2191312 C70.3063116,15.1644244 73.4180225,19.0622517 75.0692002,23.7956278 C77.2959194,30.1788897 76.5538971,37.3024517 72.1266184,45.0505313 L71.8619342,45.5070201 C65.4142238,56.4681278 63.1194196,65.1247657 64.8803522,71.4448141 C65.2162792,71.6057781 65.5288447,71.8274083 65.8027769,72.1092806 C65.8888576,72.1978564 65.9698251,72.2912615 66.0452865,72.3890424 C66.4683911,72.9372905 67.255828,73.0387395 67.8040761,72.6156349 C67.8417568,72.5865552 67.8777513,72.5553537 67.9118847,72.5221817 L68.1581383,72.2828649 C69.6921968,70.7920193 72.1338902,70.7920193 73.6679486,72.2828649 L74.6969341,73.2828649 C75.0929969,73.667771 75.1020412,74.3008713 74.7171351,74.6969341 C74.332229,75.0929969 73.6991287,75.1020412 73.3030659,74.7171351 L72.2740803,73.7171351 C71.5161921,72.9805959 70.3098948,72.9805959 69.5520066,73.7171351 L69.305753,73.956452 C69.2171773,74.0425326 69.1237722,74.1235002 69.0259912,74.1989616 C67.6541065,75.2576988 65.705074,75.0507208 64.5831437,73.7589434 L64.4619599,73.6109576 C64.4328801,73.5732768 64.4016786,73.5372824 64.3685066,73.5031489 C63.885861,73.0065136 63.091997,72.9951727 62.5953616,73.4778183 L62.3491081,73.7171351 C60.8150496,75.2079807 58.3733562,75.2079807 56.8392977,73.7171351 C56.0814095,72.9805959 54.8751122,72.9805959 54.117224,73.7171351 C52.5831655,75.2079807 50.1414722,75.2079807 48.6074137,73.7171351 C47.8916304,73.0215147 46.7758772,72.9828692 46.0156528,73.6011984 L45.8853399,73.7171351 C44.4221278,75.1391301 42.1331782,75.204801 40.5936971,73.914148 C40.4166969,73.8350087 40.262638,73.7052432 40.1553268,73.5356857 C39.8170887,73.287708 39.4157907,73.1647307 39.0144928,73.1647307 L38.8509644,73.1715505 C38.4157089,73.2079228 37.9902951,73.3897844 37.6534559,73.7171351 L37.4072023,73.956452 C37.3186266,74.0425326 37.2252215,74.1235002 37.1274405,74.1989616 C35.7555557,75.2576988 33.8065232,75.0507208 32.684593,73.7589434 L32.5634091,73.6109576 C32.5343294,73.5732768 32.5031279,73.5372824 32.4699559,73.5031489 C31.9873103,73.0065136 31.1934463,72.9951727 30.6968109,73.4778183 L30.4505573,73.7171351 C28.9164989,75.2079807 26.4748055,75.2079807 24.940747,73.7171351 C24.1828588,72.9805959 22.9765615,72.9805959 22.2186733,73.7171351 C20.6846148,75.2079807 18.2429214,75.2079807 16.708863,73.7171351 C15.9509747,72.9805959 14.7446774,72.9805959 13.9867892,73.7171351 C12.4527307,75.2079807 10.0110374,75.2079807 8.4769789,73.7171351 C7.76119559,73.0215147 6.64544243,72.9828692 5.88521802,73.6011984 L5.75490516,73.7171351 C5.35884236,74.1020412 4.72574198,74.0929969 4.34083588,73.6969341 C3.95592978,73.3008713 3.96497407,72.667771 4.36103687,72.2828649 C4.91620996,71.7433305 5.59025631,71.3990526 6.29713587,71.2500313 L6.51436119,71.0437501 C11.406529,66.2808026 11.5358382,59.9405285 6.77111487,51.7513633 L6.54052356,51.3600045 C2.8061508,45.099827 1.87804426,38.9753594 3.25983113,33.3655201 C4.32257004,29.0509658 6.76358956,25.2794273 9.38064369,23.21489 C14.4065529,19.2500589 24.3877186,17.0196169 27.7021401,20.2879611 C28.1374485,20.7172179 28.6046737,21.0600505 29.1075759,21.3311484 L29.4316029,21.4976842 C30.1671059,21.8550044 30.7952062,22.0048045 32.0827748,22.1848503 L32.6772013,22.2645577 C34.4029866,22.4884779 35.1501677,22.8233842 35.1501677,24.1336737 C35.1501677,26.6356351 29.5914621,28.3485814 25.9661786,27.4548602 C24.8121238,27.1703574 22.2262911,27.9971712 19.8570995,29.5151508 L19.4649072,30.1762705 C16.3103926,35.5689354 15.9937054,38.0790111 18.0614865,40.2611333 C19.6312415,39.6960271 21.5309262,40.3422968 22.7928793,41.6977102 C23.5577381,42.5192145 24.0117317,43.5354967 24.0676409,44.5189206 C24.8261765,45.0389265 25.5273304,45.5493877 26.1942638,46.0733478 C27.0003007,45.6070487 27.8655616,45.299694 28.7790253,45.1375286 C30.7470839,44.7881429 32.7285758,45.1007509 34.965548,45.8698561 L36.8305722,46.5517518 C36.9215459,46.5838264 36.9939297,46.6084546 37.0397714,46.6224924 L37.0832809,46.6304047 C37.1808791,46.6129902 37.334662,46.5370027 37.5332376,46.4019815 L37.6997593,46.2823597 L38.0764687,45.9901388 C38.3467198,45.7819119 38.4799272,45.6958277 38.7342936,45.6363824 C39.6976421,45.4112482 40.123711,46.1950136 40.023063,46.894671 C39.9926647,47.1059855 39.9154504,47.3557541 39.7781248,47.7219557 C39.0040458,49.7861663 36.5211571,50.7484591 33.9756485,50.8103184 L33.7121642,50.8135139 C31.6725259,50.8135139 30.6760488,51.2932992 30.7997667,52.6541961 C30.8277029,52.9614942 30.9479026,53.2916649 31.173376,53.6664527 C31.4784327,54.173526 31.9481021,54.7262922 32.7112446,55.5000282 L33.7841765,56.5645965 L34.7018624,57.4857431 C34.8195273,57.6053956 34.9211727,57.709861 34.9982048,57.7907736 C36.1980915,59.051104 37.1165071,60.2109576 37.8644837,61.4973392 C38.0162172,61.7582928 38.1597822,62.0131141 38.2960731,62.2635201 C38.8482211,61.5405987 39.5456179,60.9718283 40.3138586,60.5976555 C41.0529184,59.0531336 41.9007054,57.5085934 42.8572802,55.9654134 C42.5866125,54.7683357 42.7911096,53.4164674 43.4740598,52.2335628 C44.3461783,50.7230092 45.8470172,49.7503745 47.3893205,49.6458648 C48.2896424,48.5387635 49.2481828,47.4311805 50.2628459,46.3242754 L50.6876639,45.8633946 C50.4556011,44.5584933 50.9465699,43.1070479 51.9806075,42.0362706 C52.9861688,40.9949814 54.3694246,40.4543855 55.6503141,40.5969332 L58.9680055,37.1004683 L59.1146831,36.9381948 C58.4977918,35.7979076 58.7081592,34.2929077 59.5115816,33.1017851 C60.3536663,31.8533431 61.7595148,31.0797981 63.1056954,31.3238793 L63.0331563,31.5208404 C63.6449772,29.9751879 63.6524722,28.4237078 63.0384761,26.2747211 C61.7840119,21.8840967 59.6462357,19.1355272 56.6286093,17.9284767 C56.5199618,17.8850177 56.4231374,17.8246407 56.3399545,17.7515883 L56.5,17.75 C54.3557146,17.75 52.1030565,18.1076666 49.5448388,18.7621954 L48.9919005,18.9069732 C48.1656694,19.1281038 45.6530129,19.8675232 45.2425356,19.9701425 C40.8177722,21.0763334 34,18.9457795 34,16 C34,14.5966114 34.7878889,14.1865027 36.6642006,13.9188455 L37.5138413,13.8036803 C39.4853885,13.5286653 40.2813186,13.3158032 41.4647728,12.6688482 C42.0255229,12.3623048 42.5523481,11.9861066 43.047781,11.528522 L43.2928932,11.2928932 C47.5700793,7.01570716 61.0858254,7.78803551 66.624695,12.2191312 Z M29.1286153,47.1067383 C28.3377876,47.2471324 27.6046645,47.5278852 26.9273705,47.9661343 C23.9162578,49.9145013 23.4874586,51.8635885 24.192503,55.7413326 L24.213829,55.8200844 C24.3796994,56.3514601 25.4137601,58.9022743 26.3972569,61.45618 L26.6059721,62.000335 C27.0550947,63.1762973 27.4794559,64.3222859 27.7883255,65.2391797 C28.5845048,67.6026755 28.381997,70.127488 27.2113469,72.774674 C27.8490797,72.9370541 28.5522197,72.7731238 29.056689,72.2828649 L29.3029426,72.043548 C30.5917036,70.7910902 32.6517684,70.8205197 33.9042262,72.1092806 C33.9903068,72.1978564 34.0712744,72.2912615 34.1467358,72.3890424 C34.5698403,72.9372905 35.3572772,73.0387395 35.9055253,72.6156349 C35.9432061,72.5865552 35.9792006,72.5553537 36.013334,72.5221817 L36.2595876,72.2828649 C37.0530661,71.5117379 38.089372,71.1394696 39.1173046,71.1660602 L39.3227051,71.1766965 L39.3540791,71.1809848 L39.1608404,70.5008512 C39.1139438,70.3330428 39.0639816,70.1527265 39.0100949,69.9571101 C37.3540319,68.7835352 36.7020249,66.6177655 37.2040573,64.5407763 C36.9028715,63.8860204 36.5534377,63.2214084 36.1355163,62.5026608 C35.5496855,61.4951402 34.831927,60.5589508 33.9065708,59.5513166 L33.5496833,59.1698259 C33.4348157,59.0491719 33.2590148,58.8701114 33.055067,58.6645695 L31.2873169,56.9044604 C30.4216549,56.0267819 29.8656503,55.3724054 29.4596032,54.6974634 C29.0881781,54.0800708 28.8655512,53.4685475 28.8079803,52.8352676 C28.5412341,49.9010595 30.5396255,48.8641724 33.4891844,48.8153381 L33.9381175,48.8102222 C34.6908607,48.7883362 35.4360702,48.6578983 36.0780993,48.4364753 L36.127,48.418 L35.5818911,48.2261065 C35.0142224,48.0208373 34.4289483,47.8002729 34.3152781,47.7611913 C32.3706662,47.0926041 30.6962426,46.8284404 29.1286153,47.1067383 Z M60.9705275,18.4309357 C62.7432226,20.1765946 64.0732676,22.6163815 64.9615239,25.7252789 C65.6893066,28.2725181 65.6796618,30.2689992 64.8927696,32.2569373 L64.8486794,32.3656193 C65.7896592,33.5340157 65.6383619,35.2782867 64.7315464,36.6226959 C63.781293,38.0315045 62.1131389,38.8355759 60.6229432,38.2550188 L59.871444,39.0581262 C59.3421515,39.6166513 58.5179284,40.4828467 57.5783089,41.4717734 L57.6427551,41.5314229 C59.2261705,43.0605094 58.9114974,45.5760797 57.3358211,47.2077403 C55.7653579,48.8340025 53.2736415,49.2389991 51.6894199,47.7277016 L51.7371541,47.6757246 C50.9849485,48.4963126 50.2650586,49.3165023 49.5777601,50.1359913 L49.6301242,50.1637771 C51.7807032,51.4054145 52.2177161,54.274767 50.9156694,56.5299781 C49.6136227,58.7851891 46.9101841,59.8414011 44.7596051,58.5997637 C44.4627238,58.4283592 44.198498,58.2259353 43.9669947,57.9983899 C43.5518157,58.6996161 43.1621162,59.4015292 42.7961678,60.1031412 C43.3443492,60.1454898 43.8901703,60.2885278 44.4146958,60.544356 C46.9122541,61.7624966 47.691944,64.9354934 46.4055238,67.5730457 C45.3994604,69.6357815 43.3573289,70.9043443 41.3203497,70.7766297 L41.4579158,71.234002 C41.5027292,71.378611 41.5470793,71.5173404 41.5927017,71.6560967 L41.6828657,71.9256532 C41.726989,72.0554575 41.773182,72.1885307 41.8228657,72.3295068 L41.7693979,72.2828649 C42.5272861,73.0194041 43.7335834,73.0194041 44.4914717,72.2828649 C46.0255301,70.7920193 48.4672235,70.7920193 50.001282,72.2828649 C50.4769889,72.7451716 51.1293578,72.9173003 51.7366163,72.799251 C49.8669997,69.2176926 50.0003945,64.8064314 52.0715233,59.6286093 C54.2342421,54.2218125 57.3252993,49.756952 61.3310353,46.2567059 C67.707275,40.5180901 69.5967804,33.5899038 67.044221,25.2940858 C65.9198552,21.639897 63.8632967,19.4465692 60.9705275,18.4309357 Z M44.8823512,12.5420038 L44.7071068,12.7071068 C44.0050765,13.4091371 43.2435889,13.9757659 42.4241161,14.4237444 C41.0374574,15.1817844 40.1074824,15.4483057 38.1182337,15.7378623 L36.9570875,15.8970965 C36.4776875,15.9640773 36.1989595,16.0206532 36.0203836,16.0885058 L36.0264579,16.1057696 C36.1929697,16.4714756 37.1353784,17.1141226 38.5680338,17.5958576 L38.798275,17.67052 C40.7911121,18.2932816 43.0705819,18.4515781 44.7574644,18.0298575 L48.1866499,17.0537829 C48.2952907,17.023623 48.3924299,16.997023 48.474824,16.9749712 C51.417634,16.1873643 53.997439,15.75 56.5,15.75 C62.6124032,15.75 67.0381184,18.473517 68.955779,24.7059142 C71.736553,33.7434295 69.6260583,41.4819099 62.6580115,47.7530079 C58.88537,51.0497082 55.9764272,55.2515144 53.9284767,60.3713907 C52.0870388,64.9749855 51.9436264,68.74165 53.4370458,71.7326357 C54.879764,70.8608992 56.7562484,70.9934949 58.06567,72.1290599 L58.233166,72.2828649 C58.9910542,73.0194041 60.1973516,73.0194041 60.9552398,72.2828649 L61.2014934,72.043548 C61.6489142,71.6087305 62.1892988,71.3284163 62.7565793,71.2016615 C61.2270425,64.4678309 63.6047717,55.7617882 69.8080458,45.0581727 L70.1380658,44.4929799 C74.5068141,37.0661078 75.2543108,30.398437 73.1807998,24.4543722 C71.6689341,20.120357 68.7867116,16.5099942 65.375305,13.7808688 C60.6455575,9.99707089 48.5841053,9.25117526 44.8823512,12.5420038 L44.8823512,12.5420038 Z M10.6193563,24.78511 C8.35043172,26.5750155 6.15772694,29.9628911 5.20178828,33.843853 C3.97763623,38.8137196 4.75155011,44.2468853 8.00311893,49.9001078 L8.25813459,50.335401 C13.3922226,58.9420143 13.6122387,66.0906986 8.80204881,71.5410261 C9.10971716,71.6862347 9.40300333,71.8735494 9.67292609,72.1029365 L9.87084719,72.2828649 C10.6287354,73.0194041 11.8350327,73.0194041 12.5929209,72.2828649 C14.1269794,70.7920193 16.5686728,70.7920193 18.1027312,72.2828649 C18.8185146,72.9784853 19.9342677,73.0171308 20.6944921,72.3988016 L20.824805,72.2828649 C22.1058703,71.0378859 24.0198864,70.832567 25.509721,71.6669083 C26.3730055,69.5749586 26.4920255,67.6559614 25.8929766,65.8776566 C25.5491975,64.8571322 25.0273185,63.4719839 24.4840132,62.063508 L22.790387,57.7028447 C22.4734548,56.8733773 22.257477,56.2790295 22.2247632,56.0991035 C22.1304789,55.5805397 22.0545684,55.0855947 21.9996496,54.6119573 C15.9812027,51.4816817 12.8540557,47.7418864 12.0061163,40.1104315 C11.5128333,35.6708853 13.6417726,31.7190403 17.4227935,28.7833172 C20.3945531,26.4759342 24.134162,25.0913855 26.2457143,25.4707502 L26.6393413,25.5566763 C28.9407286,26.0254012 32.355183,25.0797054 33.0313747,24.3665962 L33.0491677,24.3467782 L32.9564073,24.3284158 C32.8206565,24.3034533 32.6455198,24.2772118 32.419859,24.2479324 L31.7798181,24.1620139 C30.0822949,23.9242077 29.3180445,23.7166906 28.1585501,23.0916456 C27.490667,22.7316119 26.8698587,22.2760856 26.2978599,21.7120389 C23.9170685,19.3643453 14.951038,21.3679401 10.6193563,24.78511 Z M39.0385687,65.8825058 L39.0395687,66.0265058 L39.0549912,66.2554312 L39.0679144,66.3704355 L39.0885687,66.5055058 L39.1101777,66.6242921 L39.1390985,66.7504977 L39.1727807,66.8745445 C39.2325483,67.0783257 39.3117787,67.2725166 39.4096291,67.4536882 L39.5232209,67.6452307 L39.5895753,67.7426702 L39.7001632,67.886776 C39.7617973,67.9615297 39.8275176,68.0326441 39.8972322,68.0997451 L40.0331189,68.2211907 L40.1302636,68.2976473 L40.1964762,68.3453718 L40.295737,68.4108396 C40.365729,68.4545721 40.4384289,68.495013 40.5137817,68.5319405 L40.3484723,68.4428618 C40.4033638,68.4752423 40.4598502,68.5056411 40.5179069,68.5339573 L40.668117,68.6010383 L40.7026992,68.6147885 C42.0976048,69.1569324 43.8096383,68.3330558 44.6079357,66.6963034 C45.4418986,64.9864262 44.9628512,63.0369131 43.5379535,62.3419441 C42.9846886,62.0720988 42.3701725,62.0310708 41.7765639,62.1819463 L41.6008359,62.23236 L41.3579032,62.3215707 L41.1838081,62.3998501 L41.0008185,62.4957725 L40.8540016,62.5834552 L40.7339956,62.6626851 L40.6809234,62.7000105 C40.6055007,62.7540828 40.5315532,62.8115245 40.459314,62.8722309 L40.3421256,62.9749585 L40.1762325,63.1361229 L40.0978121,63.2194841 L39.9606101,63.3780268 L39.8369364,63.5368991 L39.7121656,63.7156801 L39.6119921,63.8756618 L39.5442831,63.993905 L39.4479247,64.1795979 C39.3673317,64.3448382 39.2990009,64.5123164 39.242601,64.680684 C39.1360947,65.0042398 39.0716206,65.3296463 39.048577,65.6488506 L39.0385687,65.8825058 Z M47.5379218,51.6466396 L47.4842295,51.6505087 C47.3801299,51.6592912 47.27562,51.6755369 47.1713685,51.6989845 L46.9808615,51.7499255 L46.8049821,51.8114538 L46.633104,51.8853902 L46.4801768,51.9631312 L46.3359934,52.0473134 L46.1977151,52.1386433 L45.9998023,52.2891481 L45.9299878,52.3483415 L45.7918108,52.4759883 C45.6398972,52.6245028 45.4982905,52.791181 45.3705331,52.9746389 L45.2266351,53.1984651 L45.1077871,53.4156015 L45.008102,53.6309128 L44.9518889,53.7722101 L44.8849063,53.9698325 C44.848951,54.0875531 44.8198855,54.2055203 44.7976032,54.3230285 L44.7753152,54.4552318 L44.7559068,54.6159888 L44.7449294,54.7757991 L44.742699,54.955266 L44.7510225,55.1285002 L44.766147,55.2726314 C44.80997,55.6054045 44.9136488,55.9159411 45.074205,56.1844745 C45.2410283,56.4658125 45.4709427,56.7010536 45.7596051,56.8677129 C46.8579636,57.5018505 48.3909466,56.9029262 49.1836186,55.5299781 C49.9762906,54.1570299 49.7284827,52.5299655 48.6301242,51.895828 C48.4626245,51.799122 48.2850171,51.7310924 48.101469,51.6901112 L48.0212866,51.6739896 L47.8791033,51.6538627 L47.796514,51.6469306 C47.7109409,51.6415093 47.6246141,51.6414628 47.5379218,51.6466396 Z M15.511565,33.707049 C14.3052323,35.5769439 13.747166,37.6691086 13.9938837,39.8895685 C14.7091346,46.3268259 17.114364,49.5686383 21.9183877,52.2934755 C22.0528345,50.2992227 22.8055189,48.7209707 24.488445,47.2846787 C24.1724289,47.043905 23.8447918,46.8043365 23.5048754,46.5635072 C23.3035367,46.8451032 23.0465739,47.1024152 22.7303791,47.3259101 C21.0562316,48.5092419 18.6908732,47.8959292 17.2071207,46.3022898 C15.8889964,44.8865451 15.4941285,42.8923185 16.4634311,41.4829758 C14.6086391,39.4415033 14.2541873,37.1102064 15.511565,33.707049 Z M55.1071282,42.5858992 L54.9553415,42.6011762 L54.870269,42.614736 L54.7136602,42.6488546 L54.5615037,42.6932523 L54.4071342,42.7496765 L54.2467598,42.820724 L54.1485241,42.870728 L54.0065011,42.9521781 L53.9116692,43.0129255 C53.7391527,43.1282765 53.5732938,43.2661088 53.4192871,43.4255874 L53.2925609,43.5650352 L53.176749,43.7091937 L53.0529657,43.886354 L53.0326249,43.9183273 C52.9680385,44.0213666 52.9114053,44.1260439 52.8626038,44.2317256 C52.8373448,44.2864351 52.8142509,44.3412401 52.7932604,44.3961704 C52.6885736,44.6700852 52.6361907,44.947246 52.6383635,45.209903 C52.6390673,45.291553 52.6449537,45.3711608 52.6560927,45.4488711 C52.6680221,45.532218 52.6860483,45.6135247 52.7102369,45.692046 L52.764232,45.8391031 L52.807516,45.9305333 L52.8803319,46.0543488 L52.9626606,46.1654792 L53.0629902,46.2739084 C53.7472308,46.9346718 55.0161235,46.7307443 55.8971415,45.8184235 C56.7781594,44.9061027 56.937679,43.630866 56.2534384,42.9701025 L56.146539,42.8774537 L56.0835555,42.8314927 L56.0182102,42.7894878 L55.9045641,42.7282974 L55.8301811,42.6953574 L55.7178785,42.6548891 L55.6223292,42.6283039 L55.4825955,42.6009797 L55.4294168,42.5938989 L55.3342157,42.5854797 C55.2597381,42.5809621 55.1838994,42.5811249 55.1071282,42.5858992 Z M19.2575432,42.0637403 C18.9441255,42.0649817 18.6558189,42.1434546 18.4240163,42.3072988 C18.3709214,42.3448277 18.3222452,42.3858077 18.2779488,42.4298825 L18.1975687,42.5175058 L18.1345687,42.6055058 L18.1096081,42.6456884 L18.0784562,42.7015235 L18.0231591,42.8248494 C17.7975277,43.4177821 18.0249821,44.2456889 18.6708998,44.9394433 C19.5412915,45.8742963 20.8419419,46.2115414 21.5759837,45.6927012 C21.7020936,45.6035634 21.8032751,45.4949565 21.8797891,45.371732 C21.9216837,45.3043051 21.9562725,45.2324372 21.9836255,45.1568742 L22.0192368,45.0408515 C22.0305996,44.9962281 22.0396691,44.9505467 22.0464578,44.9039412 L22.0595687,44.7505058 L22.0615808,44.7045676 L22.0580948,44.5814789 L22.0415687,44.4345058 L22.030001,44.3618813 L22.0150066,44.2897991 L21.9753546,44.1409007 L21.9265687,43.9985058 L21.8565687,43.8335058 L21.7893573,43.6977582 L21.6935687,43.5325058 L21.6050255,43.3997412 L21.4750297,43.228166 L21.3291002,43.0605567 C20.7793791,42.4701232 20.0580313,42.1180708 19.4161993,42.0695179 L19.2575432,42.0637403 Z M62.5562077,33.297699 L62.4471447,33.3088274 L62.3775005,33.321401 L62.3013112,33.3398154 L62.1744552,33.3809253 L62.1143618,33.4048732 L62.0318105,33.4424351 C61.7183603,33.5953378 61.410613,33.8629385 61.1696567,34.2201709 C61.0034355,34.466604 60.8886689,34.7265286 60.8254741,34.9782686 C60.7816048,35.1563674 60.7630575,35.3239432 60.7685024,35.4807466 L60.7807146,35.6255535 L60.8073793,35.7628605 C60.8327828,35.8626943 60.8703042,35.9549198 60.919957,36.0370774 C60.9566842,36.0977932 60.999828,36.1528047 61.0495529,36.201376 C61.0825865,36.2336924 61.1190303,36.263506 61.1584596,36.2901014 C61.25589,36.355819 61.3647113,36.3972742 61.4807409,36.4161833 L61.6010636,36.4277077 L61.7253788,36.4240875 L61.8481174,36.4066297 L61.9132933,36.39212 L62.051753,36.349782 L62.1056494,36.3291585 L62.2334331,36.2710625 L62.3300993,36.2184325 L62.3644673,36.1978806 C62.6236965,36.0391647 62.8719442,35.8030863 63.0734713,35.5043101 C63.1882951,35.3340767 63.2785654,35.1574053 63.3442434,34.9814411 L63.4017225,34.8059774 L63.4217213,34.729842 L63.4512423,34.5854234 L63.4701431,34.4331018 L63.4757124,34.2969 L63.473646,34.2181067 L63.4591208,34.0764007 L63.4507685,34.0286438 C63.4344349,33.9447635 63.4100773,33.8655644 63.3776885,33.7923721 C63.3335653,33.6926611 63.2745337,33.6040947 63.200577,33.5300291 C63.1650876,33.4945297 63.1265632,33.462638 63.0846683,33.4343796 C63.0177587,33.3892484 62.9454769,33.3555599 62.8691776,33.3327579 L62.8128498,33.3180529 L62.7552147,33.3071589 C62.6908248,33.2972052 62.6242527,33.294149 62.5562077,33.297699 Z" id="Shape" fill="#000000" fill-rule="nonzero"></path>
    </g>
</svg>