<svg version="1.1" xmlns="http://www.w3.org/2000/svg" width="1024" height="1024" viewBox="0 0 1024 1024">
  <title></title>
  <path fill="#000"
        d="M409.060 273.855c6.145 0 10.755 3.075 12.29 7.68v1.535l18.435 72.21h318.035c7.68 0 13.83 6.145 13.83 13.83 0 6.145-4.61 12.29-10.755 13.83h-23.045l50.7 116.765h196.66c9.22 0 15.365 9.22 12.29 18.435l-1.535 1.535-122.915 204.341c3.075 0 6.145 1.535 9.22 1.535 9.22 0 15.365-3.075 24.585-7.68l13.83-9.22c23.045-15.365 46.090-23.045 84.505-23.045 7.68 0 13.83 6.145 13.83 13.83s-6.145 13.83-13.83 13.83c-32.265 0-50.7 6.145-69.14 18.435l-13.83 9.22c-13.83 9.22-24.585 12.29-39.945 12.29s-26.12-4.61-39.945-12.29l-13.83-9.22c-18.435-12.29-36.875-18.435-69.14-18.435s-50.7 6.145-69.14 18.435l-13.83 9.22c-13.83 9.22-24.585 12.29-39.945 12.29s-26.12-4.61-39.945-12.29l-13.83-9.22c-18.435-12.29-36.875-18.435-69.14-18.435s-50.7 6.145-69.14 18.435l-13.83 9.22c-13.83 9.22-24.585 12.29-39.945 12.29s-26.12-4.61-39.945-12.29l-13.83-9.22c-18.435-12.29-36.875-18.435-69.14-18.435s-50.7 6.145-69.14 18.435l-13.83 9.22c-13.83 9.22-24.585 12.29-39.945 12.29s-26.12-4.61-39.945-12.29l-13.83-9.22c-18.435-12.29-36.875-18.435-69.14-18.435-7.68 0-13.83-6.145-13.83-13.83s6.145-13.83 13.83-13.83c27.655 0 49.165 4.61 66.065 12.29l-18.435-182.833c0-7.68 4.61-13.83 10.755-13.83h69.14c12.29 0 24.585-9.22 26.12-21.51v-3.075l13.83-99.865c1.535-10.755 10.755-18.435 21.51-19.975h82.965v-69.14c0-6.145 4.61-12.29 10.755-13.83h1.535c0 0 102.94 0 102.94 0zM885.346 648.74h-775.885l6.145 64.53c1.535 1.535 3.075 1.535 3.075 3.075 9.22 6.145 15.365 7.68 24.585 7.68s15.365-3.075 24.585-7.68l13.83-9.22c23.045-15.365 46.090-23.045 84.505-23.045 35.335 0 58.385 6.145 79.895 19.975l4.61 3.075c3.075 1.535 12.29 9.22 13.83 9.22 9.22 6.145 15.365 7.68 24.585 7.68s15.365-3.075 24.585-7.68l13.83-9.22c23.045-15.365 46.090-23.045 84.505-23.045 35.335 0 58.385 6.145 79.895 19.975l4.61 3.075c3.075 1.535 12.29 9.22 13.83 9.22 9.22 6.145 15.365 7.68 24.585 7.68s15.365-3.075 24.585-7.68l13.83-9.22c23.045-15.365 46.090-23.045 84.505-23.045 35.335 0 58.385 6.145 79.895 19.975l4.61 3.075c1.535 1.535 4.61 3.075 6.145 4.61v0l36.875-62.995zM708.66 381.405h-491.65l-13.83 96.795c-3.075 26.12-24.585 44.555-50.7 46.090h-55.31l9.22 96.795h795.859l58.385-96.795h-182.833c-4.61 0-9.22-3.075-10.755-6.145l-1.535-1.535-32.265-73.75h-58.385c-7.68 0-13.83-6.145-13.83-13.83 0-6.145 4.61-12.29 10.755-13.83h49.165l-12.29-33.8zM409.060 478.2c7.68 0 13.83 6.145 13.83 13.83 0 6.145-4.61 12.29-10.755 13.83h-23.045c-7.68 0-13.83-6.145-13.83-13.83 0-6.145 4.61-12.29 10.755-13.83h23.045zM470.515 478.2c7.68 0 13.83 6.145 13.83 13.83 0 6.145-4.61 12.29-10.755 13.83h-23.045c-7.68 0-13.83-6.145-13.83-13.83 0-6.145 4.61-12.29 10.755-13.83h23.045zM531.975 478.2c7.68 0 13.83 6.145 13.83 13.83 0 6.145-4.61 12.29-10.755 13.83h-23.045c-7.68 0-13.83-6.145-13.83-13.83 0-6.145 4.61-12.29 10.755-13.83h23.045zM593.43 478.2c7.68 0 13.83 6.145 13.83 13.83 0 6.145-4.61 12.29-10.755 13.83h-23.045c-7.68 0-13.83-6.145-13.83-13.83 0-6.145 4.61-12.29 10.755-13.83h23.045zM347.605 478.2c7.68 0 13.83 6.145 13.83 13.83 0 6.145-4.61 12.29-10.755 13.83h-23.045c-7.68 0-13.83-6.145-13.83-13.83 0-6.145 4.61-12.29 10.755-13.83h23.045zM286.15 478.2c7.68 0 13.83 6.145 13.83 13.83 0 6.145-4.61 12.29-10.755 13.83h-23.045c-7.68 0-13.83-6.145-13.83-13.83 0-6.145 4.61-12.29 10.755-13.83h23.045zM409.060 416.745c7.68 0 13.83 6.145 13.83 13.83 0 6.145-4.61 12.29-10.755 13.83h-23.045c-7.68 0-13.83-6.145-13.83-13.83 0-6.145 4.61-12.29 10.755-13.83h23.045zM470.515 416.745c7.68 0 13.83 6.145 13.83 13.83 0 6.145-4.61 12.29-10.755 13.83h-23.045c-7.68 0-13.83-6.145-13.83-13.83 0-6.145 4.61-12.29 10.755-13.83h23.045zM531.975 416.745c7.68 0 13.83 6.145 13.83 13.83 0 6.145-4.61 12.29-10.755 13.83h-23.045c-7.68 0-13.83-6.145-13.83-13.83 0-6.145 4.61-12.29 10.755-13.83h23.045zM593.43 416.745c7.68 0 13.83 6.145 13.83 13.83 0 6.145-4.61 12.29-10.755 13.83h-23.045c-7.68 0-13.83-6.145-13.83-13.83 0-6.145 4.61-12.29 10.755-13.83h23.045zM347.605 416.745c7.68 0 13.83 6.145 13.83 13.83 0 6.145-4.61 12.29-10.755 13.83h-23.045c-7.68 0-13.83-6.145-13.83-13.83 0-6.145 4.61-12.29 10.755-13.83h23.045zM286.15 416.745c7.68 0 13.83 6.145 13.83 13.83 0 6.145-4.61 12.29-10.755 13.83h-23.045c-7.68 0-13.83-6.145-13.83-13.83 0-6.145 4.61-12.29 10.755-13.83h23.045zM399.84 299.975h-78.355v55.31h92.185l-13.83-55.31z"></path>
</svg>
