<?xml version="1.0" encoding="UTF-8"?>
<svg width="24px" height="24px" viewBox="0 0 24 24" version="1.1" xmlns="http://www.w3.org/2000/svg" xmlns:xlink="http://www.w3.org/1999/xlink">
    <title>arrow-down</title>
    <g id="arrow-down" stroke="none" stroke-width="1" fill="none" fill-rule="evenodd">
        <path d="M13,5.5 C13,4.94771525 12.5522847,4.5 12,4.5 C11.4477153,4.5 11,4.94771525 11,5.5 L11,16.1923077 L11.0015,16.2323077 L8.70710678,13.9726841 C8.3371364,13.6185244 7.74939432,13.5998844 7.3565006,13.9167642 L7.29289322,13.9726841 C6.90236893,14.3465193 6.90236893,14.952626 7.29289322,15.3264612 L11.2928932,19.2196236 C11.6834175,19.5934588 12.3165825,19.5934588 12.7071068,19.2196236 L16.7071068,15.3264612 C17.0976311,14.952626 17.0976311,14.3465193 16.7071068,13.9726841 C16.3165825,13.5988489 15.6834175,13.5988489 15.2928932,13.9726841 L12.999205,16.2325516 L13,5.5 Z" id="Path" fill="#0D0E10" fill-rule="nonzero"></path>
    </g>
</svg>