<?xml version="1.0" encoding="UTF-8"?>
<svg width="24px" height="24px" viewBox="0 0 24 24" version="1.1" xmlns="http://www.w3.org/2000/svg" xmlns:xlink="http://www.w3.org/1999/xlink">
    <title>arrow-wide-up</title>
    <g id="arrow-wide-up" stroke="none" stroke-width="1" fill="none" fill-rule="evenodd">
        <path d="M13,22.4915683 C13,23.0485097 12.5522847,23.5 12,23.5 C11.4477153,23.5 11,23.0485097 11,22.4915683 L11,3.83558179 L11.0015,3.79524452 L8.70710678,6.07392058 C8.3371364,6.43106643 7.74939432,6.44986358 7.3565006,6.13031203 L7.29289322,6.07392058 C6.90236893,5.69693329 6.90236893,5.08571614 7.29289322,4.70872885 L11.2928932,0.782740465 C11.6834175,0.405753178 12.3165825,0.405753178 12.7071068,0.782740465 L16.7071068,4.70872885 C17.0976311,5.08571614 17.0976311,5.69693329 16.7071068,6.07392058 C16.3165825,6.45090787 15.6834175,6.45090787 15.2928932,6.07392058 L12.999205,3.79499856 L13,22.4915683 Z" id="Path" fill="#0D0E10" fill-rule="nonzero"></path>
    </g>
</svg>