<?xml version="1.0" encoding="UTF-8"?>
<svg width="24px" height="24px" viewBox="0 0 24 24" version="1.1" xmlns="http://www.w3.org/2000/svg" xmlns:xlink="http://www.w3.org/1999/xlink">
    <title>arrow-short-down</title>
    <g id="arrow-short-down" stroke="none" stroke-width="1" fill="none" fill-rule="evenodd">
        <path d="M10.9038462,7.09615385 C10.9038462,6.5438691 11.3515614,6.09615385 11.9038462,6.09615385 C12.4561309,6.09615385 12.9038462,6.5438691 12.9038462,7.09615385 L12.9023462,14.6361538 L15.1967394,12.3765303 C15.5667098,12.0223706 16.1544518,12.0037306 16.5473456,12.3206103 L16.6109529,12.3765303 C17.0014772,12.7503655 17.0014772,13.3564721 16.6109529,13.7303073 L12.6109529,17.6234697 C12.2204286,17.997305 11.5872637,17.997305 11.1967394,17.6234697 L7.19673937,13.7303073 C6.80621508,13.3564721 6.80621508,12.7503655 7.19673937,12.3765303 C7.58726366,12.002695 8.22042864,12.002695 8.61095294,12.3765303 L10.9046412,14.6363977 L10.9038462,7.09615385 Z" id="Path" fill="#0D0E10" fill-rule="nonzero"></path>
    </g>
</svg>