<?xml version="1.0" encoding="UTF-8"?>
<svg width="24px" height="24px" viewBox="0 0 24 24" version="1.1" xmlns="http://www.w3.org/2000/svg" xmlns:xlink="http://www.w3.org/1999/xlink">
    <title>arrow-wide-right</title>
    <g id="arrow-wide-right" stroke="none" stroke-width="1" fill="none" fill-rule="evenodd">
        <path d="M1.5,13 C0.94771525,13 0.5,12.5522847 0.5,12 C0.5,11.4477153 0.94771525,11 1.5,11 L20,11 L20.04,11.0015 L17.7803764,8.70710678 C17.4262167,8.3371364 17.4075767,7.74939432 17.7244565,7.3565006 L17.7803764,7.29289322 C18.1542116,6.90236893 18.7603183,6.90236893 19.1341535,7.29289322 L23.0273159,11.2928932 C23.4011511,11.6834175 23.4011511,12.3165825 23.0273159,12.7071068 L19.1341535,16.7071068 C18.7603183,17.0976311 18.1542116,17.0976311 17.7803764,16.7071068 C17.4065412,16.3165825 17.4065412,15.6834175 17.7803764,15.2928932 L20.0402439,12.999205 L1.5,13 Z" id="Path" fill="#0D0E10" fill-rule="nonzero"></path>
    </g>
</svg>