<?xml version="1.0" encoding="UTF-8"?>
<svg width="24px" height="24px" viewBox="0 0 24 24" version="1.1" xmlns="http://www.w3.org/2000/svg" xmlns:xlink="http://www.w3.org/1999/xlink">
    <title>arrow-short-down copy</title>
    <g id="arrow-short-down-copy" stroke="none" stroke-width="1" fill="none" fill-rule="evenodd">
        <path d="M10.9038462,16.9038462 C10.9038462,17.4561309 11.3515614,17.9038462 11.9038462,17.9038462 C12.4561309,17.9038462 12.9038462,17.4561309 12.9038462,16.9038462 L12.9023462,9.36384615 L15.1967394,11.6234697 C15.5667098,11.9776294 16.1544518,11.9962694 16.5473456,11.6793897 L16.6109529,11.6234697 C17.0014772,11.2496345 17.0014772,10.6435279 16.6109529,10.2696927 L12.6109529,6.37653026 C12.2204286,6.00269504 11.5872637,6.00269504 11.1967394,6.37653026 L7.19673937,10.2696927 C6.80621508,10.6435279 6.80621508,11.2496345 7.19673937,11.6234697 C7.58726366,11.997305 8.22042864,11.997305 8.61095294,11.6234697 L10.9046412,9.36360225 L10.9038462,16.9038462 Z" id="Path" fill="#0D0E10" fill-rule="nonzero"></path>
    </g>
</svg>