<?xml version="1.0" encoding="UTF-8"?>
<svg width="24px" height="24px" viewBox="0 0 24 24" version="1.1" xmlns="http://www.w3.org/2000/svg" xmlns:xlink="http://www.w3.org/1999/xlink">
    <title>arrow-double-vertical</title>
    <g id="arrow-double-vertical" stroke="none" stroke-width="1" fill="none" fill-rule="evenodd">
        <path d="M18.1341535,12.2928932 L22.0273159,16.2928932 C22.4011511,16.6834175 22.4011511,17.3165825 22.0273159,17.7071068 L18.1341535,21.7071068 C17.7603183,22.0976311 17.1542116,22.0976311 16.7803764,21.7071068 C16.4065412,21.3165825 16.4065412,20.6834175 16.7803764,20.2928932 L19.0402439,17.999205 L8.5,18 C7.94771525,18 7.5,17.5522847 7.5,17 C7.5,16.4477153 7.94771525,16 8.5,16 L19,16 L19.04,16.0015 L16.7803764,13.7071068 C16.4262167,13.3371364 16.4075767,12.7493943 16.7244565,12.3565006 L16.7803764,12.2928932 C17.1542116,11.9023689 17.7603183,11.9023689 18.1341535,12.2928932 Z M5.67353881,2.29289322 C6.04737403,1.90236893 6.65348067,1.90236893 7.02731589,2.29289322 L7.08323584,2.3565006 C7.40011556,2.74939432 7.38147557,3.3371364 7.02731589,3.70710678 L4.76769231,6.0015 L4.80769231,6 L15.3076923,6 C15.8599771,6 16.3076923,6.44771525 16.3076923,7 C16.3076923,7.55228475 15.8599771,8 15.3076923,8 L4.76744841,7.999205 L7.02731589,10.2928932 C7.40115111,10.6834175 7.40115111,11.3165825 7.02731589,11.7071068 C6.65348067,12.0976311 6.04737403,12.0976311 5.67353881,11.7071068 L1.78037641,7.70710678 C1.4065412,7.31658249 1.4065412,6.68341751 1.78037641,6.29289322 L5.67353881,2.29289322 Z" id="Shape" fill="#0D0E10" fill-rule="nonzero" transform="translate(11.9038, 12) rotate(-270) translate(-11.9038, -12)"></path>
    </g>
</svg>