<?xml version="1.0" encoding="UTF-8"?>
<svg width="24px" height="24px" viewBox="0 0 24 24" version="1.1" xmlns="http://www.w3.org/2000/svg" xmlns:xlink="http://www.w3.org/1999/xlink">
    <title>arrow-short-left</title>
    <g id="arrow-short-left" stroke="none" stroke-width="1" fill="none" fill-rule="evenodd">
        <path d="M16.8076923,13 C17.3599771,13 17.8076923,12.5522847 17.8076923,12 C17.8076923,11.4477153 17.3599771,11 16.8076923,11 L9.26769231,11.0015 L11.5273159,8.70710678 C11.8814756,8.3371364 11.9001156,7.74939432 11.5832358,7.3565006 L11.5273159,7.29289322 C11.1534807,6.90236893 10.547374,6.90236893 10.1735388,7.29289322 L6.28037641,11.2928932 C5.9065412,11.6834175 5.9065412,12.3165825 6.28037641,12.7071068 L10.1735388,16.7071068 C10.547374,17.0976311 11.1534807,17.0976311 11.5273159,16.7071068 C11.9011511,16.3165825 11.9011511,15.6834175 11.5273159,15.2928932 L9.26744841,12.999205 L16.8076923,13 Z" id="Path" fill="#0D0E10" fill-rule="nonzero"></path>
    </g>
</svg>