<?xml version="1.0" encoding="UTF-8"?>
<svg width="24px" height="24px" viewBox="0 0 24 24" version="1.1" xmlns="http://www.w3.org/2000/svg" xmlns:xlink="http://www.w3.org/1999/xlink">
    <title>arrow-short-right</title>
    <g id="arrow-short-right" stroke="none" stroke-width="1" fill="none" fill-rule="evenodd">
        <path d="M7,13 C6.44771525,13 6,12.5522847 6,12 C6,11.4477153 6.44771525,11 7,11 L14.5,11 L14.54,11.0015 L12.2803764,8.70710678 C11.9262167,8.3371364 11.9075767,7.74939432 12.2244565,7.3565006 L12.2803764,7.29289322 C12.6542116,6.90236893 13.2603183,6.90236893 13.6341535,7.29289322 L17.5273159,11.2928932 C17.9011511,11.6834175 17.9011511,12.3165825 17.5273159,12.7071068 L13.6341535,16.7071068 C13.2603183,17.0976311 12.6542116,17.0976311 12.2803764,16.7071068 C11.9065412,16.3165825 11.9065412,15.6834175 12.2803764,15.2928932 L14.5402439,12.999205 L7,13 Z" id="Path" fill="#0D0E10" fill-rule="nonzero"></path>
    </g>
</svg>