<?xml version="1.0" encoding="UTF-8"?>
<svg width="24px" height="24px" viewBox="0 0 24 24" version="1.1" xmlns="http://www.w3.org/2000/svg" xmlns:xlink="http://www.w3.org/1999/xlink">
    <title>arrow-wide-left</title>
    <g id="arrow-wide-left" stroke="none" stroke-width="1" fill="none" fill-rule="evenodd">
        <path d="M22.3076923,13 C22.8599771,13 23.3076923,12.5522847 23.3076923,12 C23.3076923,11.4477153 22.8599771,11 22.3076923,11 L3.80769231,11 L3.76769231,11.0015 L6.02731589,8.70710678 C6.38147557,8.3371364 6.40011556,7.74939432 6.08323584,7.3565006 L6.02731589,7.29289322 C5.65348067,6.90236893 5.04737403,6.90236893 4.67353881,7.29289322 L0.780376415,11.2928932 C0.406541195,11.6834175 0.406541195,12.3165825 0.780376415,12.7071068 L4.67353881,16.7071068 C5.04737403,17.0976311 5.65348067,17.0976311 6.02731589,16.7071068 C6.40115111,16.3165825 6.40115111,15.6834175 6.02731589,15.2928932 L3.76744841,12.999205 L22.3076923,13 Z" id="Path" fill="#0D0E10" fill-rule="nonzero"></path>
    </g>
</svg>