<?xml version="1.0" encoding="UTF-8"?>
<svg width="24px" height="24px" viewBox="0 0 24 24" version="1.1" xmlns="http://www.w3.org/2000/svg" xmlns:xlink="http://www.w3.org/1999/xlink">
    <title>arrow-double-vertical</title>
    <g id="arrow-double-vertical" stroke="none" stroke-width="1" fill="none" fill-rule="evenodd">
        <path d="M11.6109529,18.2303073 L7.61095294,22.1234697 C7.22042864,22.497305 6.58726366,22.497305 6.19673937,22.1234697 L2.19673937,18.2303073 C1.80621508,17.8564721 1.80621508,17.2503655 2.19673937,16.8765303 C2.58726366,16.502695 3.22042864,16.502695 3.61095294,16.8765303 L5.90464116,19.1363977 L5.90384615,8.59615385 C5.90384615,8.0438691 6.3515614,7.59615385 6.90384615,7.59615385 C7.4561309,7.59615385 7.90384615,8.0438691 7.90384615,8.59615385 L7.90234615,19.1361538 L10.1967394,16.8765303 C10.5667098,16.5223706 11.1544518,16.5037306 11.5473456,16.8206103 L11.6109529,16.8765303 C12.0014772,17.2503655 12.0014772,17.8564721 11.6109529,18.2303073 Z M21.6109529,5.76969265 C22.0014772,6.14352787 22.0014772,6.74963452 21.6109529,7.12346974 L21.5473456,7.17938969 C21.1544518,7.4962694 20.5667098,7.47762942 20.1967394,7.12346974 L17.9023462,4.86384615 L17.9038462,15.4038462 C17.9038462,15.9561309 17.4561309,16.4038462 16.9038462,16.4038462 C16.3515614,16.4038462 15.9038462,15.9561309 15.9038462,15.4038462 L15.9046412,4.86360225 L13.6109529,7.12346974 C13.2204286,7.49730496 12.5872637,7.49730496 12.1967394,7.12346974 C11.8062151,6.74963452 11.8062151,6.14352787 12.1967394,5.76969265 L16.1967394,1.87653026 C16.5872637,1.50269504 17.2204286,1.50269504 17.6109529,1.87653026 L21.6109529,5.76969265 Z" id="Shape" fill="#0D0E10" fill-rule="nonzero"></path>
    </g>
</svg>