<?xml version="1.0" encoding="UTF-8"?>
<svg width="24px" height="24px" viewBox="0 0 24 24" version="1.1" xmlns="http://www.w3.org/2000/svg" xmlns:xlink="http://www.w3.org/1999/xlink">
    <title>arrow-right-angle</title>
    <g id="arrow-right-angle" stroke="none" stroke-width="1" fill="none" fill-rule="evenodd">
        <path d="M5.5,12 L18.54,12.0015 L16.2803764,9.70710678 C15.9262167,9.3371364 15.9075767,8.74939432 16.2244565,8.3565006 L16.2803764,8.29289322 C16.6542116,7.90236893 17.2603183,7.90236893 17.6341535,8.29289322 L21.5273159,12.2928932 C21.9011511,12.6834175 21.9011511,13.3165825 21.5273159,13.7071068 L17.6341535,17.7071068 C17.2603183,18.0976311 16.6542116,18.0976311 16.2803764,17.7071068 C15.9065412,17.3165825 15.9065412,16.6834175 16.2803764,16.2928932 L18.5402439,13.999205 L5.5,14 C3.94771525,14 3,13.0522847 3,11.5 L3,6 C3,5.44771525 3.44771525,5 4,5 C4.55228475,5 5,5.44771525 5,6 L5.00048453,11.5674558 C5.00659903,11.9530741 5.07584871,12 5.5,12 Z" id="Path" fill="#0D0E10" fill-rule="nonzero"></path>
    </g>
</svg>