<?xml version="1.0" encoding="UTF-8"?>
<svg width="24px" height="24px" viewBox="0 0 24 24" version="1.1" xmlns="http://www.w3.org/2000/svg" xmlns:xlink="http://www.w3.org/1999/xlink">
    <title>arrow-circle-down</title>
    <g id="arrow-circle-down" stroke="none" stroke-width="1" fill="none" fill-rule="evenodd">
        <path d="M12,0 C18.627417,0 24,5.372583 24,12 C24,18.627417 18.627417,24 12,24 C5.372583,24 0,18.627417 0,12 C0,5.372583 5.372583,0 12,0 Z M12,2 C6.4771525,2 2,6.4771525 2,12 C2,17.5228475 6.4771525,22 12,22 C17.5228475,22 22,17.5228475 22,12 C22,6.4771525 17.5228475,2 12,2 Z M12.1538462,6.34615385 C12.7061309,6.34615385 13.1538462,6.7938691 13.1538462,7.34615385 L13.1523462,14.3861538 L15.4467394,12.1265303 C15.8167098,11.7723706 16.4044518,11.7537306 16.7973456,12.0706103 L16.8609529,12.1265303 C17.2514772,12.5003655 17.2514772,13.1064721 16.8609529,13.4803073 L12.8609529,17.3734697 C12.4704286,17.747305 11.8372637,17.747305 11.4467394,17.3734697 L7.44673937,13.4803073 C7.05621508,13.1064721 7.05621508,12.5003655 7.44673937,12.1265303 C7.83726366,11.752695 8.47042864,11.752695 8.86095294,12.1265303 L11.1546412,14.3863977 L11.1538462,7.34615385 C11.1538462,6.7938691 11.6015614,6.34615385 12.1538462,6.34615385 Z" id="Shape" fill="#0D0E10" fill-rule="nonzero"></path>
    </g>
</svg>