<?xml version="1.0" encoding="UTF-8"?>
<svg width="24px" height="24px" viewBox="0 0 24 24" version="1.1" xmlns="http://www.w3.org/2000/svg" xmlns:xlink="http://www.w3.org/1999/xlink">
    <title>expand</title>
    <g id="expand" stroke="none" stroke-width="1" fill="none" fill-rule="evenodd">
        <path d="M2,16 C2,15.4477153 2.44771525,15 3,15 C3.55228475,15 4,15.4477153 4,16 L3.999,18.636 L10.3071208,12.293881 C10.6966916,11.9043544 11.32567,11.9017141 11.7119835,12.2879838 C12.098297,12.6742535 12.0956564,13.3031607 11.7060857,13.6926873 L5.363,20 L8,20 C8.55228475,20 9,20.4477153 9,21 C9,21.5522847 8.55228475,22 8,22 L3,22 C2.44771525,22 2,21.5522847 2,21 L2,16 Z M21,2 C21.5522847,2 22,2.44771525 22,3 L22,8 C22,8.55228475 21.5522847,9 21,9 C20.4477153,9 20,8.55228475 20,8 L20,5.364 L13.6928792,11.706119 C13.3033084,12.0956456 12.67433,12.0982859 12.2880165,11.7120162 C11.901703,11.3257465 11.9043436,10.6968393 12.2939143,10.3073127 L18.635,4 L16,4 C15.4477153,4 15,3.55228475 15,3 C15,2.44771525 15.4477153,2 16,2 L21,2 Z" id="Shape" fill="#0D0E10" fill-rule="nonzero"></path>
    </g>
</svg>