<?xml version="1.0" encoding="UTF-8"?>
<svg width="24px" height="24px" viewBox="0 0 24 24" version="1.1" xmlns="http://www.w3.org/2000/svg" xmlns:xlink="http://www.w3.org/1999/xlink">
    <title>merge</title>
    <g id="merge" stroke="none" stroke-width="1" fill="none" fill-rule="evenodd">
        <path d="M9,0 C10.6568542,0 12,1.34314575 12,3 L12,9 C12,10.3210759 12.6544656,10.9876863 13.9633968,10.999831 L20,11 L20.04,11.0015 L18.7803764,9.70710678 C18.4262167,9.3371364 18.4075767,8.74939432 18.7244565,8.3565006 L18.7803764,8.29289322 C19.1542116,7.90236893 19.7603183,7.90236893 20.1341535,8.29289322 L23.0273159,11.2928932 C23.4011511,11.6834175 23.4011511,12.3165825 23.0273159,12.7071068 L20.1341535,15.7071068 C19.7603183,16.0976311 19.1542116,16.0976311 18.7803764,15.7071068 C18.4065412,15.3165825 18.4065412,14.6834175 18.7803764,14.2928932 L20.0402439,12.999205 L14,13 C12.7272727,13 12.0619835,13.607438 12.0041322,14.822314 L12,15 L12,21 C12,22.6568542 10.6568542,24 9,24 L2,24 C1.44771525,24 1,23.5522847 1,23 C1,22.4477153 1.44771525,22 2,22 L9,22 C9.55228475,22 10,21.5522847 10,21 L10,3 C10,2.44771525 9.55228475,2 9,2 L2,2 C1.44771525,2 1,1.55228475 1,1 C1,0.44771525 1.44771525,0 2,0 L9,0 Z" id="Path" fill="#0D0E10" fill-rule="nonzero"></path>
    </g>
</svg>