<?xml version="1.0" encoding="UTF-8"?>
<svg width="24px" height="24px" viewBox="0 0 24 24" version="1.1" xmlns="http://www.w3.org/2000/svg" xmlns:xlink="http://www.w3.org/1999/xlink">
    <title>sailing-round-trip</title>
    <g id="sailing-round-trip" stroke="none" stroke-width="1" fill="none" fill-rule="evenodd">
        <path d="M3.35335742,12.7581297 L4.93023317,14.3976469 C5.27607593,14.7642073 5.27607593,15.3585192 4.93023317,15.7250797 C4.58439041,16.0916401 4.0236685,16.0916401 3.67782573,15.7250797 L0.759382073,12.6637164 C0.413539309,12.2971559 0.413539309,11.7028441 0.759382073,11.3362836 L3.67782573,8.27492033 C3.83153363,8.11200458 4.02768679,8.02149583 4.22855609,8.00339408 L4.30402945,8 C4.53067062,8 4.75731179,8.09164011 4.93023317,8.27492033 L4.98196588,8.33462455 C5.27511792,8.70340902 5.25787368,9.25508532 4.93023317,9.6023531 L3.35335742,11.2418703 L20.6466426,11.2418703 L19.0697668,9.6023531 C18.7239241,9.23579266 18.7239241,8.64148077 19.0697668,8.27492033 C19.4156096,7.90835989 19.9763315,7.90835989 20.3221743,8.27492033 L23.2406179,11.3362836 C23.5864607,11.7028441 23.5864607,12.2971559 23.2406179,12.6637164 L20.3221743,15.7250797 C20.1684664,15.8879954 19.9723132,15.9785042 19.7714439,15.9966059 L19.6959705,16 C19.4693294,16 19.2426882,15.9083599 19.0697668,15.7250797 L19.0180341,15.6653754 C18.7248821,15.296591 18.7421263,14.7449147 19.0697668,14.3976469 L20.6466426,12.7581297 L3.35335742,12.7581297 Z" id="Path" fill="#0D0E10" fill-rule="nonzero"></path>
    </g>
</svg>