<?xml version="1.0" encoding="UTF-8"?>
<svg width="24px" height="24px" viewBox="0 0 24 24" version="1.1" xmlns="http://www.w3.org/2000/svg" xmlns:xlink="http://www.w3.org/1999/xlink">
    <title>sync</title>
    <g id="sync" stroke="none" stroke-width="1" fill="none" fill-rule="evenodd">
        <path d="M9.569158,4.29289322 C9.94644826,4.68341751 9.94644826,5.31658249 9.569158,5.70710678 L8.29764664,7.000795 L20.9722736,7 C22.6444407,7 24,8.34314575 24,10 L24,21 C24,22.6568542 22.6444407,24 20.9722736,24 L11,24 C9.34314575,24 8,22.6568542 8,21 L8,20 C8,19.4477153 8.44771525,19 9,19 C9.51283584,19 9.93550716,19.3860402 9.99327227,19.8833789 L10,20 L10,21 C10,21.5522847 10.4477153,22 11,22 L20.9722736,22 C21.5296626,22 21.9815157,21.5522847 21.9815157,21 L21.9815157,10 C21.9815157,9.44771525 21.5296626,9 20.9722736,9 L8.29789279,8.9985 L9.569158,10.2928932 C9.92659088,10.6628636 9.94540313,11.2506057 9.62559477,11.6434994 L9.569158,11.7071068 C9.19186774,12.0976311 8.58015937,12.0976311 8.20286911,11.7071068 L5.28296769,8.70710678 C4.90567744,8.31658249 4.90567744,7.68341751 5.28296769,7.29289322 L8.20286911,4.29289322 C8.58015937,3.90236893 9.19186774,3.90236893 9.569158,4.29289322 Z M13,0 C14.6568542,0 16,1.34314575 16,3 L16,4 C16,4.55228475 15.5522847,5 15,5 C14.4477153,5 14,4.55228475 14,4 L14,3 C14,2.44771525 13.5522847,2 13,2 L3,2 C2.44771525,2 2,2.44771525 2,3 L2,14 C2,14.5522847 2.44771525,15 3,15 L15.54,15.0015 L14.2803764,13.7071068 C13.9262167,13.3371364 13.9075767,12.7493943 14.2244565,12.3565006 L14.2803764,12.2928932 C14.6542116,11.9023689 15.2603183,11.9023689 15.6341535,12.2928932 L18.5273159,15.2928932 C18.9011511,15.6834175 18.9011511,16.3165825 18.5273159,16.7071068 L15.6341535,19.7071068 C15.2603183,20.0976311 14.6542116,20.0976311 14.2803764,19.7071068 C13.9065412,19.3165825 13.9065412,18.6834175 14.2803764,18.2928932 L15.5402439,16.999205 L3,17 C1.34314575,17 0,15.6568542 0,14 L0,3 C0,1.34314575 1.34314575,0 3,0 L13,0 Z" id="Shape" fill="#0D0E10" fill-rule="nonzero"></path>
    </g>
</svg>