<?xml version="1.0" encoding="UTF-8"?>
<svg width="32px" height="24px" viewBox="0 0 32 24" version="1.1" xmlns="http://www.w3.org/2000/svg" xmlns:xlink="http://www.w3.org/1999/xlink">
    <title>human-child</title>
    <g id="human-child" stroke="none" stroke-width="1" fill="none" fill-rule="evenodd">
        <path d="M16,0 C21.0893475,0 25.5157943,3.19010035 27.2372627,7.7798798 L27.354,8.106 L27.4304386,8.12502338 C28.8525486,8.51620184 29.9123152,9.7821547 29.9948211,11.3079648 L30,11.5 C30,12.9819641 29.0789502,14.2488055 27.7780615,14.7593134 L27.67,14.798 L27.6588433,14.8519024 C26.3973478,20.034281 21.7854351,23.8588162 16.3053278,23.996177 L16,24 C10.4887103,24 5.79949656,20.2698162 4.41450094,15.1387485 L4.328,14.797 L4.22193854,14.7593134 C2.97761014,14.2710015 2.08080932,13.0906945 2.00517886,11.6920352 L2,11.5 C2,9.88916948 3.08819679,8.53250094 4.56956136,8.12502338 L4.647,8.106 L4.66133047,8.0628803 C6.27135736,3.41482911 10.6311031,0.130814951 15.6953181,0.00381710724 L16,0 Z M16,2 C11.1064619,2 7.03388927,5.51497087 6.17031817,10.1577408 C5.96858573,10.0568005 5.7409261,10 5.5,10 C4.67157288,10 4,10.6715729 4,11.5 C4,12.3284271 4.67157288,13 5.5,13 C5.69046012,13 5.87262945,12.9645029 6.03995822,12.9000774 C6.49501606,18.0011994 10.7805231,22 16,22 C21.2194769,22 25.5049839,18.0011994 25.9597469,12.8997636 C26.1273705,12.9645029 26.3095399,13 26.5,13 C27.3284271,13 28,12.3284271 28,11.5 C28,10.6715729 27.3284271,10 26.5,10 C26.2590739,10 26.0314143,10.0568005 25.8306851,10.1578798 C24.9661107,5.51497087 20.8935381,2 16,2 Z M18.9220156,11.1158639 C19.483291,10.8815003 20.1305319,11.0092863 20.5606228,11.4393772 C20.9907137,11.8694681 21.1184997,12.516709 20.8841361,13.0779844 C20.6497725,13.6392598 20.0996617,14.0034413 19.4914312,14.0000242 C18.6696973,13.9952931 18.0047069,13.3303027 17.9999758,12.5085688 C17.9965587,11.9003383 18.3607402,11.3502275 18.9220156,11.1158639 Z M17.9630751,3.33695291 C18.5032911,3.45177937 18.8481374,3.9827962 18.733311,4.52301221 C18.0821395,7.58653306 15.9438128,9.95194793 13.2346783,11.0241738 L13.3693569,11.0056541 L13.5085688,11 C14.33225,11 15,11.66775 15,12.4914312 C15.0034413,13.0996617 14.6392598,13.6497725 14.0779844,13.8841361 C13.516709,14.1184997 12.8694681,13.9907137 12.4393772,13.5606228 C12.0092863,13.1305319 11.8815003,12.483291 12.1158639,11.9220156 C12.2472105,11.6074546 12.477731,11.3547994 12.7620751,11.1940681 C11.2950199,11.6841242 9.68151002,11.8000579 8.05877734,11.4551354 C7.51856134,11.3403089 7.17371498,10.8092921 7.28854143,10.2690761 C7.40336789,9.7288601 7.93438472,9.38401374 8.47460072,9.49884019 C12.2561127,10.3026254 15.9732306,7.88870084 16.7770158,4.10718882 C16.8918422,3.56697282 17.4228591,3.22212646 17.9630751,3.33695291 Z" id="Shape" fill="#0D0E10" fill-rule="nonzero"></path>
    </g>
</svg>