<?xml version="1.0" encoding="UTF-8"?>
<svg width="32px" height="24px" viewBox="0 0 32 24" version="1.1" xmlns="http://www.w3.org/2000/svg" xmlns:xlink="http://www.w3.org/1999/xlink">
    <title>human-adult</title>
    <g id="human-adult" stroke="none" stroke-width="1" fill="none" fill-rule="evenodd">
        <path d="M25,0 C25.7986954,0 26.2750868,0.890145467 25.8320503,1.5547002 C25.3768042,2.23756927 24.9208916,2.88339561 24.4641998,3.49218084 C25.6696981,4.69077794 26.6247211,6.14672114 27.2372627,7.7798798 L27.354,8.106 L27.4304386,8.12502338 C28.8525486,8.51620184 29.9123152,9.7821547 29.9948211,11.3079648 L30,11.5 C30,12.9819641 29.0789502,14.2488055 27.7780615,14.7593134 L27.67,14.798 L27.6588433,14.8519024 C26.3973478,20.034281 21.7854351,23.8588162 16.3053278,23.996177 L16,24 C10.4887103,24 5.79949656,20.2698162 4.41450094,15.1387485 L4.328,14.797 L4.22193854,14.7593134 C2.97761014,14.2710015 2.08080932,13.0906945 2.00517886,11.6920352 L2,11.5 C2,9.88916948 3.08819679,8.53250094 4.56956136,8.12502338 L4.647,8.106 L4.66133047,8.0628803 C6.27135736,3.41482911 10.6311031,0.130814951 15.6953181,0.00381710724 L16,0 L16,2 C11.1064619,2 7.03388927,5.51497087 6.17031817,10.1577408 C5.96858573,10.0568005 5.7409261,10 5.5,10 C4.67157288,10 4,10.6715729 4,11.5 C4,12.3284271 4.67157288,13 5.5,13 C5.69046012,13 5.87262945,12.9645029 6.03995822,12.9000774 C6.49501606,18.0011994 10.7805231,22 16,22 C21.2194769,22 25.5049839,18.0011994 25.9597469,12.8997636 C26.1273705,12.9645029 26.3095399,13 26.5,13 C27.3284271,13 28,12.3284271 28,11.5 C28,10.6715729 27.3284271,10 26.5,10 C26.2590739,10 26.0314143,10.0568005 25.8306851,10.1578798 C25.4664739,8.2020044 24.5329692,6.44629362 23.208619,5.06919534 C22.7087282,5.66033831 22.2085137,6.20569983 21.7071068,6.70710678 C20.2369074,8.17730621 18.9988939,8.41668955 16.651784,8.15022717 L15.8344786,8.05287661 C15.4786648,8.01405589 15.2528733,8 15,8 C13.9612039,8 12.8672232,8.54699035 11.7071068,9.70710678 C11.3165825,10.0976311 10.6834175,10.0976311 10.2928932,9.70710678 C9.90236893,9.31658249 9.90236893,8.68341751 10.2928932,8.29289322 C11.7994435,6.78634298 13.3721294,6 15,6 L15.2742195,6.00430797 C15.5886633,6.01465184 15.9016355,6.04463011 16.3990317,6.10497136 L16.6240347,6.13272212 C18.5959944,6.37921709 19.3196388,6.26614766 20.2928932,5.29289322 C21.1486472,4.43713927 22.0084333,3.43371939 22.8713469,2.28264673 L23.08,2 L17,2 C16.4871642,2 16.0644928,1.61395981 16.0067277,1.11662113 L16,1 C16,0.44771525 16.4477153,0 17,0 L25,0 Z M20.5606228,11.4393772 C20.9907137,11.8694681 21.1184997,12.516709 20.8841361,13.0779844 C20.6497725,13.6392598 20.0996617,14.0034413 19.4914312,14.000048 C18.6696973,13.9952931 18.0047069,13.3303027 17.999952,12.5085688 C17.9965587,11.9003383 18.3607402,11.3502275 18.9220156,11.1158639 C19.483291,10.8815003 20.1305319,11.0092863 20.5606228,11.4393772 Z M13.5606228,11.4393772 C13.9907137,11.8694681 14.1184997,12.516709 13.8841361,13.0779844 C13.6497725,13.6392598 13.0996617,14.0034413 12.4914312,14.000048 C11.6696973,13.9952931 11.0047069,13.3303027 10.999952,12.5085688 C10.9965587,11.9003383 11.3607402,11.3502275 11.9220156,11.1158639 C12.483291,10.8815003 13.1305319,11.0092863 13.5606228,11.4393772 Z" id="Shape" fill="#0D0E10" fill-rule="nonzero"></path>
        <polygon id="Rectangle" fill="#000000" points="16 0 17 0 17 2 15 2"></polygon>
    </g>
</svg>