<?xml version="1.0" encoding="UTF-8"?>
<svg width="32px" height="24px" viewBox="0 0 32 24" version="1.1" xmlns="http://www.w3.org/2000/svg" xmlns:xlink="http://www.w3.org/1999/xlink">
    <title>human-student</title>
    <g id="human-student" stroke="none" stroke-width="1" fill="none" fill-rule="evenodd">
        <path d="M31,0 L25.9801973,5.33222128 C26.4615349,6.05132114 26.8677623,6.82678069 27.1869665,7.64815521 L27.354,8.106 L27.4304386,8.12502338 C28.8525486,8.51620184 29.9123152,9.7821547 29.9948211,11.3079648 L30,11.5 C30,12.9819641 29.0789502,14.2488055 27.7780615,14.7593134 L27.67,14.798 L27.6588433,14.8519024 C26.3973478,20.034281 21.7854351,23.8588162 16.3053278,23.996177 L16,24 C10.4887103,24 5.79949656,20.2698162 4.41450094,15.1387485 L4.328,14.797 L4.22193854,14.7593134 C2.97761014,14.2710015 2.08080932,13.0906945 2.00517886,11.6920352 L2,11.5 C2,9.88916948 3.08819679,8.53250094 4.56956136,8.12502338 L4.647,8.106 L4.66133047,8.0628803 C4.787023,7.70001349 4.92947426,7.34546008 5.0877111,7.00007318 L1,7 L7.59090909,0 L31,0 Z M24.5646703,6.8351054 L24.4090909,7 L23,7 L23,9 C23,9.55228475 22.5522847,10 22,10 C21.4477153,10 21,9.55228475 21,9 L21,7 L7.33829307,6.99987598 C6.78153361,7.96255303 6.38069941,9.0266797 6.17031817,10.1577408 C5.96858573,10.0568005 5.7409261,10 5.5,10 C4.67157288,10 4,10.6715729 4,11.5 C4,12.3284271 4.67157288,13 5.5,13 C5.69046012,13 5.87262945,12.9645029 6.03995822,12.9000774 C6.49501606,18.0011994 10.7805231,22 16,22 C21.2194769,22 25.5049839,18.0011994 25.9597469,12.8997636 C26.1273705,12.9645029 26.3095399,13 26.5,13 C27.3284271,13 28,12.3284271 28,11.5 C28,10.6715729 27.3284271,10 26.5,10 C26.2590739,10 26.0314143,10.0568005 25.8306851,10.1578798 C25.6079649,8.9618347 25.1723577,7.84064104 24.5646703,6.8351054 Z M20.5606228,11.4393772 C20.9907137,11.8694681 21.1184997,12.516709 20.8841361,13.0779844 C20.6497725,13.6392598 20.0996617,14.0034413 19.4914312,14.0000242 C18.6696973,13.9952931 18.0047069,13.3303027 17.9999758,12.5085688 C17.9965587,11.9003383 18.3607402,11.3502275 18.9220156,11.1158639 C19.483291,10.8815003 20.1305319,11.0092863 20.5606228,11.4393772 Z M13.5085688,10.9999758 C14.33225,10.9999758 15.0000242,11.66775 15.0000242,12.4914312 C15.0034413,13.0996617 14.6392598,13.6497725 14.0779844,13.8841361 C13.516709,14.1184997 12.8694681,13.9907137 12.4393772,13.5606228 C12.0092863,13.1305319 11.8815003,12.483291 12.1158639,11.9220156 C12.3502275,11.3607402 12.9003383,10.9965587 13.5085688,10.9999758 Z M8.455,2 L5.63,5 L23.543,5 L26.369,2 L8.455,2 Z" id="Shape" fill="#0D0E10" fill-rule="nonzero"></path>
    </g>
</svg>