<?xml version="1.0" encoding="UTF-8"?>
<svg width="32px" height="24px" viewBox="0 0 32 24" version="1.1" xmlns="http://www.w3.org/2000/svg" xmlns:xlink="http://www.w3.org/1999/xlink">
    <title>human-senior</title>
    <g id="human-senior" stroke="none" stroke-width="1" fill="none" fill-rule="evenodd">
        <path d="M16,0 C18.2439486,0 20.3636657,0.620955522 22.1794934,1.71250649 L22.4073915,1.70306861 C24.2889455,1.63217558 25.8980892,2.19994801 27.0843583,3.4283656 C28.2047235,4.58853777 28.7230047,6.1051083 28.6621303,7.85204642 L28.6555203,7.99118566 C29.4762659,8.86115288 29.9509102,10.1642128 29.9963965,11.3187092 L30,11.5 C30,12.9819641 29.0789502,14.2488055 27.7780615,14.7593134 L27.67,14.798 L27.6588433,14.8519024 C26.3973478,20.034281 21.7854351,23.8588162 16.3053278,23.996177 L16,24 C10.4887103,24 5.79949656,20.2698162 4.41450094,15.1387485 L4.328,14.797 L4.22193854,14.7593134 C2.97761014,14.2710015 2.08080932,13.0906945 2.00517886,11.6920352 L2,11.5 C2,10.4299164 2.38386466,9.2011364 3.08239462,8.29827194 L3.07395932,8.16269532 C2.93744418,6.28476158 3.44871244,4.65678319 4.63498151,3.4283656 C5.82125059,2.19994801 7.43039425,1.63217558 9.31194832,1.70306861 L9.80449707,1.72211002 C11.5412104,0.674474043 13.5569645,0.0577297765 15.6940584,0.00385334984 L16,0 Z M16,2 C14.263456,2 12.6302954,2.44263663 11.2072104,3.22119512 L11.2313823,3.55664448 C11.3678974,5.43457822 10.8566292,7.06255661 9.67036012,8.2909742 C8.48409104,9.51939179 6.87494738,10.0871642 4.99339331,10.0162712 L4.41144138,9.99401857 C4.15643639,10.5039351 4,11.1001689 4,11.5 C4,12.3284271 4.67157288,13 5.5,13 C5.69046012,13 5.87262945,12.9645029 6.03995822,12.9000774 C6.49501606,18.0011994 10.7805231,22 16,22 C21.2194769,22 25.5049839,18.0011994 25.9597469,12.8997636 C26.1273705,12.9645029 26.3095399,13 26.5,13 C27.3284271,13 28,12.3284271 28,11.5 C28,11.0972924 27.8413046,10.495346 27.5830396,9.98302668 L26.7259465,10.0162712 C24.8443924,10.0871642 23.2352488,9.51939179 22.0489797,8.2909742 C20.8627106,7.06255661 20.3514424,5.43457822 20.4879575,3.55664448 L20.5231628,3.07902093 C19.164869,2.38896354 17.6278581,2 16,2 Z M18.9220156,11.1158639 C19.483291,10.8815003 20.1305319,11.0092863 20.5606228,11.4393772 C20.9907137,11.8694681 21.1184997,12.516709 20.8841361,13.0779844 C20.6497725,13.6392598 20.0996617,14.0034413 19.4914312,14 C18.6696973,13.9952931 18.0047069,13.3303027 18,12.5085688 C17.9965587,11.9003383 18.3607402,11.3502275 18.9220156,11.1158639 Z M12.5085688,11 C13.33225,11 14,11.66775 14,12.4914312 C14.0034413,13.0996617 13.6392598,13.6497725 13.0779844,13.8841361 C12.516709,14.1184997 11.8694681,13.9907137 11.4393772,13.5606228 C11.0092863,13.1305319 10.8815003,12.483291 11.1158639,11.9220156 C11.3502275,11.3607402 11.9003383,10.9965587 12.5085688,11 Z M7.10352031,4.08031742 L6.88188044,4.19389864 L6.7487329,4.27217774 C6.50329796,4.4239646 6.27827403,4.60579946 6.07366111,4.81768234 C5.96615263,4.92901064 5.86713111,5.04568086 5.77659654,5.16769302 L5.65358534,5.34478183 L5.58992575,5.44671346 L5.49173823,5.62158232 L5.40182933,5.80624518 L5.29849702,6.06098831 L5.22593875,6.28278193 L5.17488965,6.47465936 L5.16404287,6.52116023 C5.14775525,6.59290394 5.1332938,6.66550573 5.12060061,6.73922052 C5.05270314,7.13353033 5.0354015,7.55968659 5.0686957,8.0176893 C6.27293719,8.06306261 7.24583122,7.76785837 7.9873778,7.1320766 C8.07179326,7.05970265 8.15323686,6.98288824 8.23168052,6.90165746 L8.37937607,6.73911719 C8.57218409,6.51338426 8.73308052,6.26756528 8.86206538,6.00166025 L8.94941436,5.80675181 L9.01549957,5.63418878 L9.08201375,5.42761959 L9.12913392,5.25016661 L9.18711046,4.96622751 L9.2186938,4.74577847 L9.22979118,4.64227859 C9.25834591,4.3466786 9.26069479,4.0324723 9.23664593,3.7016505 C8.41893543,3.67084087 7.70789356,3.79706318 7.10352031,4.08031742 Z M22.7471384,3.69717659 L22.4826939,3.7016505 C22.3853724,5.04042767 22.7203608,6.10709665 23.4876593,6.90165746 C23.5583062,6.97481449 23.6313864,7.04438943 23.7068998,7.11038229 L23.8736131,7.24721756 L24.0737026,7.39019314 L24.2718642,7.51190942 L24.5327547,7.64612097 L24.7118555,7.72322587 L24.8551068,7.77701861 L24.9758671,7.81733956 L25.1007308,7.85450014 C25.5643856,7.98454156 26.081695,8.03912612 26.6506441,8.0176893 C26.7479656,6.67891213 26.4129771,5.61224315 25.6456787,4.81768234 C24.9295335,4.07609226 23.9633534,3.70259034 22.7471384,3.69717659 Z" id="Combined-Shape" fill="#0D0E10" fill-rule="nonzero"></path>
    </g>
</svg>