<?xml version="1.0" encoding="UTF-8"?>
<svg width="32px" height="24px" viewBox="0 0 32 24" version="1.1" xmlns="http://www.w3.org/2000/svg" xmlns:xlink="http://www.w3.org/1999/xlink">
    <title>human-adult</title>
    <g id="human-adult" stroke="none" stroke-width="1" fill="none" fill-rule="evenodd">
        <path d="M16,0 C20.8339952,0 25.0213471,3.283263 26.2083536,7.92037419 L26.2466078,8.079 C27.7625381,8.4111569 28.9088774,9.71857928 28.9948211,11.3079648 L29,11.5 C29,12.659798 28.4358788,13.6878384 27.5670545,14.324703 L27.5116078,14.362 L28.4827149,19.2155355 C28.9024237,21.3140795 27.5971049,23.3573111 25.5456782,23.8768506 L25.3448567,23.9223227 C25.086564,23.9739813 24.8238001,24 24.5603922,24 L20,24 C18.8954305,24 18,23.1045695 18,22 L17.9996078,21 L13.9996078,21 L14,22 C14,23.0543618 13.1841222,23.9181651 12.1492623,23.9945143 L12,24 L7.43960781,24 C5.23046881,24 3.43960781,22.209139 3.43960781,20 C3.43960781,19.7365921 3.46562656,19.4738282 3.5172851,19.2155355 L5.6660257,8.47183246 C6.65122758,3.54582305 10.9764364,0 16,0 Z M16,2 C11.9297984,2 8.42541926,4.87290371 7.62718705,8.86406473 L7.49860781,9.503 L7.71083562,9.54490377 C11.4097282,10.2014516 14.9899761,7.80991934 15.7770158,4.10718882 C15.8918422,3.56697282 16.4228591,3.22212646 16.9630751,3.33695291 C17.5032911,3.45177937 17.8481374,3.9827962 17.733311,4.52301221 C17.2320003,6.88149356 15.8492764,8.82621866 14.0032537,10.0856609 C14.5841638,10.2885362 15,10.8414312 15,11.4914312 C15.0034413,12.0996617 14.6392598,12.6497725 14.0779844,12.8841361 C13.516709,13.1184997 12.8694681,12.9907137 12.4393772,12.5606228 C12.0520482,12.1732938 11.9098991,11.6098486 12.0566401,11.091682 C10.5270255,11.6610644 8.82285282,11.8203916 7.10685967,11.4652214 L5.47844645,19.6077677 C5.45261718,19.7369141 5.43960781,19.868296 5.43960781,20 C5.43960781,21.1045695 6.33503831,22 7.43960781,22 L12,22 L11.9999214,19.7946146 C10.6252698,19.0297417 9.43351433,17.8944624 8.58974596,16.4330127 C8.31360359,15.9547201 8.47747874,15.3431297 8.95577137,15.0669873 C9.43406399,14.7908449 10.0456544,14.9547201 10.3217968,15.4330127 C12.2547934,18.7810611 16.5359262,19.9281872 19.8839746,17.9951905 C21.7947039,16.8920305 22.9885976,15.0240875 23.3022337,13.0012604 L25.5,13 C26.3284271,13 27,12.3284271 27,11.5 C27,10.6715729 26.3284271,10 25.5,10 C25.1854239,10 24.8934651,10.0968358 24.6523062,10.2623246 L24.3728129,8.86406473 C23.5745807,4.87290371 20.0702016,2 16,2 Z M20.8839746,19.7272413 C20.5944817,19.8943801 20.2995629,20.0436081 20.0005015,20.1752691 L20,22 L24.5603922,22 C24.6920962,22 24.8234781,21.9869906 24.9526245,21.9611614 C26.035744,21.7445375 26.7381774,20.6908872 26.5215535,19.6077677 L25.1864654,13.8085137 C24.6731688,16.2138727 23.1816997,18.4006491 20.8839746,19.7272413 Z M18.9220156,10.1158639 C19.483291,9.88150033 20.1305319,10.0092863 20.5606228,10.4393772 C20.9907137,10.8694681 21.1184997,11.516709 20.8841361,12.0779844 C20.6497725,12.6392598 20.0996617,13.0034413 19.4914312,13.0000242 C18.6696973,12.9952931 18.0047069,12.3303027 17.9999758,11.5085688 C17.9965587,10.9003383 18.3607402,10.3502275 18.9220156,10.1158639 Z" id="Shape" fill="#0D0E10" fill-rule="nonzero"></path>
    </g>
</svg>