<?xml version="1.0" encoding="UTF-8"?>
<svg width="32px" height="24px" viewBox="0 0 32 24" version="1.1" xmlns="http://www.w3.org/2000/svg" xmlns:xlink="http://www.w3.org/1999/xlink">
    <title>human-infant</title>
    <g id="human-infant" stroke="none" stroke-width="1" fill="none" fill-rule="evenodd">
        <path d="M16.0077041,-0.00102756723 C21.0893475,-1.61082085e-14 25.5157943,3.19010035 27.2372627,7.7798798 L27.354,8.106 L27.4304386,8.12502338 C28.8525486,8.51620184 29.9123152,9.7821547 29.9948211,11.3079648 L30,11.5 C30,12.9819641 29.0789502,14.2488055 27.7780615,14.7593134 L27.67,14.798 L27.6588433,14.8519024 C26.3973478,20.034281 21.7854351,23.8588162 16.3053278,23.996177 L16,24 C10.4887103,24 5.79949656,20.2698162 4.41450094,15.1387485 L4.328,14.797 L4.22193854,14.7593134 C2.97761014,14.2710015 2.08080932,13.0906945 2.00517886,11.6920352 L2,11.5 C2,9.88916948 3.08819679,8.53250094 4.56956136,8.12502338 L4.647,8.106 L4.66133047,8.0628803 C6.27135736,3.41482911 10.6311031,0.130814951 15.6953181,0.00381710724 L16.0077041,-0.00102756723 Z M15.9575396,1.99995955 C15.8452285,2.00241823 16,1.99995955 14.8601783,2.06610017 C10.4848976,2.56063503 6.96587909,5.88061026 6.17031817,10.1577408 C5.96858573,10.0568005 5.7409261,10 5.5,10 C4.67157288,10 4,10.6715729 4,11.5 C4,12.3284271 4.67157288,13 5.5,13 C5.69046012,13 5.87262945,12.9645029 6.03995822,12.9000774 C6.49501606,18.0011994 10.7805231,22 16,22 C21.2194769,22 25.5049839,18.0011994 25.9597469,12.8997636 C26.1273705,12.9645029 26.3095399,13 26.5,13 C27.3284271,13 28,12.3284271 28,11.5 C28,10.6715729 27.3284271,10 26.5,10 C26.2590739,10 26.0314143,10.0568005 25.8306851,10.1578798 C25.2036312,6.7904953 22.889095,4.01643264 19.797757,2.74637229 L19.8450468,2.89745058 C20.453968,5.02101128 19.2261101,7.23612555 17.1025494,7.84504678 C14.9789887,8.45396802 12.7638744,7.22611012 12.1549532,5.10254942 C12.0027229,4.57165925 12.3096874,4.01788068 12.8405776,3.86565037 C13.3714677,3.71342006 13.9252463,4.02038454 14.0774766,4.55127471 C14.3819372,5.61305506 15.4894944,6.22698401 16.5512747,5.92252339 C17.6130551,5.61806278 18.226984,4.51050564 17.9225234,3.44872529 C17.6766354,2.5912119 16.9069296,2.02580849 16.0605647,2.0003791 L15.9575396,1.99995955 Z M12.5085688,12 C13.33225,12 14,12.66775 14,13.4914312 C14.0034413,14.0996617 13.6392598,14.6497725 13.0779844,14.8841361 C12.516709,15.1184997 11.8694681,14.9907137 11.4393772,14.5606228 C11.0092863,14.1305319 10.8815003,13.483291 11.1158639,12.9220156 C11.3502275,12.3607402 11.9003383,11.9965587 12.5085688,12 Z M18.9220156,12.1158639 C19.483291,11.8815003 20.1305319,12.0092863 20.5606228,12.4393772 C20.9907137,12.8694681 21.1184997,13.516709 20.8841361,14.0779844 C20.6497725,14.6392598 20.0996617,15.0034413 19.4914312,15 C18.6696973,14.9952931 18.0047069,14.3303027 18,13.5085688 C17.9965587,12.9003383 18.3607402,12.3502275 18.9220156,12.1158639 Z" id="Combined-Shape" fill="#0D0E10" fill-rule="nonzero"></path>
    </g>
</svg>