<svg xmlns="http://www.w3.org/2000/svg" width="24" height="24" viewBox="0 0 24 24">
  <g fill="#FFF" fill-rule="evenodd" transform="translate(4 4)">
    <path d="M18,9 L-2,9 C-1.88007627,9 -2,8.85076158 -2,9 L-2,7 C-2,7.14923842 -1.88007627,7 -2,7 L18,7 C17.8800763,7 18,7.14923842 18,7 L18,9 C18,8.85076158 17.8800763,9 18,9 Z" transform="rotate(45 8 8)"/>
    <path d="M18,9 L-2,9 C-1.88007627,9 -2,8.85076158 -2,9 L-2,7 C-2,7.14923842 -1.88007627,7 -2,7 L18,7 C17.8800763,7 18,7.14923842 18,7 L18,9 C18,8.85076158 17.8800763,9 18,9 Z" transform="rotate(-45 8 8)"/>
  </g>
</svg>
