<?xml version="1.0" encoding="UTF-8"?>
<svg width="24px" height="24px" viewBox="0 0 24 24" version="1.1" xmlns="http://www.w3.org/2000/svg" xmlns:xlink="http://www.w3.org/1999/xlink">
    <title>user-group-small</title>
    <g id="user-group-small" stroke="none" stroke-width="1" fill="none" fill-rule="evenodd">
        <path d="M11,15 C13.209139,15 15,16.790861 15,19 L15,21 C15,21.5522847 14.5522847,22 14,22 C13.4477153,22 13,21.5522847 13,21 L13,19 C13,17.8954305 12.1045695,17 11,17 L5,17 C3.8954305,17 3,17.8954305 3,19 L3,21 C3,21.5522847 2.55228475,22 2,22 C1.44771525,22 1,21.5522847 1,21 L1,19 C1,16.790861 2.790861,15 5,15 L11,15 Z M19,11 C21.209139,11 23,12.790861 23,15 L23,16 C23,16.5522847 22.5522847,17 22,17 C21.4477153,17 21,16.5522847 21,16 L21,15 C21,13.8954305 20.1045695,13 19,13 L16,13 C15.4477153,13 15,12.5522847 15,12 C15,11.4477153 15.4477153,11 16,11 L19,11 Z M8,5 C10.209139,5 12,6.790861 12,9 C12,11.209139 10.209139,13 8,13 C5.790861,13 4,11.209139 4,9 C4,6.790861 5.790861,5 8,5 Z M8,7 C6.8954305,7 6,7.8954305 6,9 C6,10.1045695 6.8954305,11 8,11 C9.1045695,11 10,10.1045695 10,9 C10,7.8954305 9.1045695,7 8,7 Z M18,3 C19.6568542,3 21,4.34314575 21,6 C21,7.65685425 19.6568542,9 18,9 C16.3431458,9 15,7.65685425 15,6 C15,4.34314575 16.3431458,3 18,3 Z M18,5 C17.4477153,5 17,5.44771525 17,6 C17,6.55228475 17.4477153,7 18,7 C18.5522847,7 19,6.55228475 19,6 C19,5.48716416 18.6139598,5.06449284 18.1166211,5.00672773 L18,5 Z" id="Shape" fill="#0D0E10" fill-rule="nonzero"></path>
    </g>
</svg>