<?xml version="1.0" encoding="UTF-8"?>
<svg width="24px" height="24px" viewBox="0 0 24 24" version="1.1" xmlns="http://www.w3.org/2000/svg" xmlns:xlink="http://www.w3.org/1999/xlink">
    <title>user-group-large</title>
    <g id="user-group-large" stroke="none" stroke-width="1" fill="none" fill-rule="evenodd">
        <path d="M16,14 C18.209139,14 20,15.790861 20,18 L20,21 C20,21.5522847 19.5522847,22 19,22 C18.4477153,22 18,21.5522847 18,21 L18,18 C18,16.8954305 17.1045695,16 16,16 L8,16 C6.8954305,16 6,16.8954305 6,18 L6,21 C6,21.5522847 5.55228475,22 5,22 C4.44771525,22 4,21.5522847 4,21 L4,18 C4,15.790861 5.790861,14 8,14 L16,14 Z M20,10 C22.209139,10 24,11.790861 24,14 L24,15 C24,15.5522847 23.5522847,16 23,16 C22.4477153,16 22,15.5522847 22,15 L22,14 C22,12.8954305 21.1045695,12 20,12 L19,12 C18.4477153,12 18,11.5522847 18,11 C18,10.4477153 18.4477153,10 19,10 L20,10 Z M5,10 C5.55228475,10 6,10.4477153 6,11 C6,11.5522847 5.55228475,12 5,12 L4,12 C2.8954305,12 2,12.8954305 2,14 L2,15 C2,15.5522847 1.55228475,16 1,16 C0.44771525,16 0,15.5522847 0,15 L0,14 C0,11.790861 1.790861,10 4,10 L5,10 Z M12,4 C14.209139,4 16,5.790861 16,8 C16,10.209139 14.209139,12 12,12 C9.790861,12 8,10.209139 8,8 C8,5.790861 9.790861,4 12,4 Z M12,6 C10.8954305,6 10,6.8954305 10,8 C10,9.1045695 10.8954305,10 12,10 C13.1045695,10 14,9.1045695 14,8 C14,6.8954305 13.1045695,6 12,6 Z M20,2 C21.6568542,2 23,3.34314575 23,5 C23,6.65685425 21.6568542,8 20,8 C18.3431458,8 17,6.65685425 17,5 C17,3.34314575 18.3431458,2 20,2 Z M4,2 C5.65685425,2 7,3.34314575 7,5 C7,6.65685425 5.65685425,8 4,8 C2.34314575,8 1,6.65685425 1,5 C1,3.34314575 2.34314575,2 4,2 Z M20,4 C19.4477153,4 19,4.44771525 19,5 C19,5.55228475 19.4477153,6 20,6 C20.5522847,6 21,5.55228475 21,5 C21,4.48716416 20.6139598,4.06449284 20.1166211,4.00672773 L20,4 Z M4,4 L3.88337887,4.00672773 C3.38604019,4.06449284 3,4.48716416 3,5 C3,5.55228475 3.44771525,6 4,6 C4.55228475,6 5,5.55228475 5,5 C5,4.44771525 4.55228475,4 4,4 Z" id="Shape" fill="#0D0E10" fill-rule="nonzero"></path>
    </g>
</svg>