<?xml version="1.0" encoding="UTF-8"?>
<svg width="24px" height="24px" viewBox="0 0 24 24" version="1.1" xmlns="http://www.w3.org/2000/svg" xmlns:xlink="http://www.w3.org/1999/xlink">
    <title>users</title>
    <g id="users" stroke="none" stroke-width="1" fill="none" fill-rule="evenodd">
        <path d="M21,0 C22.6568542,0 24,1.34314575 24,3 L24,21 C24,22.6568542 22.6568542,24 21,24 L3,24 C1.34314575,24 0,22.6568542 0,21 L0,3 C0,1.34314575 1.34314575,0 3,0 L21,0 Z M21,2 L3,2 C2.44771525,2 2,2.44771525 2,3 L2,21 C2,21.5522847 2.44771525,22 3,22 L21,22 C21.5522847,22 22,21.5522847 22,21 L22,3 C22,2.44771525 21.5522847,2 21,2 Z M9,14 C10.6568542,14 12,15.3431458 12,17 L12,18 C12,18.5522847 11.5522847,19 11,19 C10.4477153,19 10,18.5522847 10,18 L10,17 C10,16.4477153 9.55228475,16 9,16 L7,16 C6.44771525,16 6,16.4477153 6,17 L6,18 C6,18.5522847 5.55228475,19 5,19 C4.44771525,19 4,18.5522847 4,18 L4,17 C4,15.3431458 5.34314575,14 7,14 L9,14 Z M18,15 C18,14.4477153 17.5522847,14 17,14 L14,14 C13.4477153,14 13,13.5522847 13,13 C13,12.4477153 13.4477153,12 14,12 L17,12 C18.6568542,12 20,13.3431458 20,15 L20,17 C20,17.5522847 19.5522847,18 19,18 C18.4477153,18 18,17.5522847 18,17 L18,15 Z M8,7 C9.65685425,7 11,8.34314575 11,10 C11,11.6568542 9.65685425,13 8,13 C6.34314575,13 5,11.6568542 5,10 C5,8.34314575 6.34314575,7 8,7 Z M8,9 C7.44771525,9 7,9.44771525 7,10 C7,10.5522847 7.44771525,11 8,11 C8.55228475,11 9,10.5522847 9,10 C9,9.48716416 8.61395981,9.06449284 8.11662113,9.00672773 L8,9 Z M16,5 C17.6568542,5 19,6.34314575 19,8 C19,9.65685425 17.6568542,11 16,11 C14.3431458,11 13,9.65685425 13,8 C13,6.34314575 14.3431458,5 16,5 Z M16,7 C15.4477153,7 15,7.44771525 15,8 C15,8.55228475 15.4477153,9 16,9 C16.5522847,9 17,8.55228475 17,8 C17,7.48716416 16.6139598,7.06449284 16.1166211,7.00672773 L16,7 Z" id="Shape" fill="#0D0E10" fill-rule="nonzero"></path>
    </g>
</svg>