<?xml version="1.0" encoding="UTF-8"?>
<svg width="24px" height="24px" viewBox="0 0 24 24" version="1.1" xmlns="http://www.w3.org/2000/svg" xmlns:xlink="http://www.w3.org/1999/xlink">
    <title>business-signature</title>
    <g id="business-signature" stroke="none" stroke-width="1" fill="none" fill-rule="evenodd">
        <path d="M19.9828154,0.67925006 C21.1830387,1.00084891 22.1205198,1.93832997 22.4421186,3.13855321 C22.7637174,4.33877645 22.4205756,5.6193994 21.5419512,6.49802379 L6.94031476,21.0996602 C6.81215594,21.227819 6.65157606,21.3187378 6.47574361,21.3626959 L1.80321995,22.5308268 C1.07083949,22.7139219 0.407446713,22.0505292 0.59054183,21.3181487 L1.75867274,16.6456251 C1.80263086,16.4697926 1.89354964,16.3092127 2.02170846,16.1810539 L16.6233449,1.57941749 C17.5019693,0.700793098 18.7825922,0.357651212 19.9828154,0.67925006 Z M21,20.1213687 C21.5522847,20.1213687 22,20.5690839 22,21.1213687 C22,21.6736534 21.5522847,22.1213687 21,22.1213687 L12,22.1213687 C11.4477153,22.1213687 11,21.6736534 11,21.1213687 C11,20.5690839 11.4477153,20.1213687 12,20.1213687 L21,20.1213687 Z M18.0375584,2.99363105 L3.63168433,17.3986843 L2.93468433,20.1856843 L5.72168433,19.4886843 L20.1277376,5.08381023 C20.4637747,4.74777313 20.6154921,4.27336316 20.5428467,3.81002302 L20.5102669,3.6561913 C20.3736024,3.14615218 19.9752165,2.74776628 19.4651774,2.61110171 C18.9551382,2.47443714 18.410933,2.6202565 18.0375584,2.99363105 Z" id="Shape" fill="#0D0E10" fill-rule="nonzero"></path>
    </g>
</svg>