<?xml version="1.0" encoding="UTF-8"?>
<svg width="24px" height="24px" viewBox="0 0 24 24" version="1.1" xmlns="http://www.w3.org/2000/svg" xmlns:xlink="http://www.w3.org/1999/xlink">
    <title>business-nslh</title>
    <g id="business-nslh" stroke="none" stroke-width="1" fill="none" fill-rule="evenodd">
        <path d="M19,0 C20.6568542,0 22,1.34314575 22,3 L22,21 C22,22.6568542 20.6568542,24 19,24 L5,24 C3.34314575,24 2,22.6568542 2,21 L2,3 C2,1.34314575 3.34314575,0 5,0 L19,0 Z M19,2 L5,2 C4.44771525,2 4,2.44771525 4,3 L4,21 C4,21.5522847 4.44771525,22 5,22 L19,22 C19.5522847,22 20,21.5522847 20,21 L20,3 C20,2.44771525 19.5522847,2 19,2 Z M15,17 C15.8284271,17 16.5,17.6715729 16.5,18.5 C16.5,19.3284271 15.8284271,20 15,20 C14.1715729,20 13.5,19.3284271 13.5,18.5 C13.5,17.6715729 14.1715729,17 15,17 Z M15,9 C15.5522847,9 16,9.39175084 16,9.875 L16,15.125 C16,15.6082492 15.5522847,16 15,16 C14.4477153,16 14,15.6082492 14,15.125 L14,9.875 C14,9.39175084 14.4477153,9 15,9 Z" id="Shape" fill="#0D0E10" fill-rule="nonzero"></path>
    </g>
</svg>