<?xml version="1.0" encoding="UTF-8"?>
<svg width="24px" height="24px" viewBox="0 0 24 24" version="1.1" xmlns="http://www.w3.org/2000/svg" xmlns:xlink="http://www.w3.org/1999/xlink">
    <title>business-agreement</title>
    <g id="business-agreement" stroke="none" stroke-width="1" fill="none" fill-rule="evenodd">
        <path d="M21.4827586,0 C22.8581052,0 24,1.10383166 24,2.5020448 L23.9814456,20.6489467 L23.9599709,20.7937905 C23.6863689,22.6391997 22.075623,24 20.1896552,24 L3.5,24 C1.56700338,24 -1.77635684e-15,22.4329966 -1.77635684e-15,20.5 L-1.77635684e-15,17 L5,17 L5,2.5 C5,1.1596784 6.05237027,0.0887742716 7.3533785,0.0052464563 L7.51724138,0 L21.4827586,0 Z M16,19 L2,19 L2,20.5 C2,21.3284271 2.67157288,22 3.5,22 L16.5112961,22.0006046 C16.1876479,21.495329 16,20.8945782 16,20.25 L16,19 Z M18,20 C18,21.1045695 18.8954305,22 20,22 C21.1045695,22 22,21.1045695 22,20 L22,2.5 C22,2.22385763 21.7684231,2 21.4827586,2 L7.51724138,2 C7.23157685,2 7,2.22385763 7,2.5 L7,17 L18,17 L18,20 Z" id="Shape" fill="#0D0E10" fill-rule="nonzero"></path>
    </g>
</svg>