<?xml version="1.0" encoding="UTF-8"?>
<svg width="24px" height="24px" viewBox="0 0 24 24" version="1.1" xmlns="http://www.w3.org/2000/svg" xmlns:xlink="http://www.w3.org/1999/xlink">
    <title>business-invoice</title>
    <g id="business-invoice" stroke="none" stroke-width="1" fill="none" fill-rule="evenodd">
        <path d="M19,0 C20.6568542,0 22,1.34314575 22,3 L22,21 C22,22.6568542 20.6568542,24 19,24 L5,24 C3.34314575,24 2,22.6568542 2,21 L2,3 C2,1.34314575 3.34314575,0 5,0 L19,0 Z M19,2 L5,2 C4.44771525,2 4,2.44771525 4,3 L4,21 C4,21.5522847 4.44771525,22 5,22 L19,22 C19.5522847,22 20,21.5522847 20,21 L20,3 C20,2.44771525 19.5522847,2 19,2 Z M17,18 C17.5522847,18 18,18.4477153 18,19 C18,19.5522847 17.5522847,20 17,20 L15,20 C14.4477153,20 14,19.5522847 14,19 C14,18.4477153 14.4477153,18 15,18 L17,18 Z M13,8 C13.5522847,8 14,8.44771525 14,9 C14,9.55228475 13.5522847,10 13,10 L7,10 C6.44771525,10 6,9.55228475 6,9 C6,8.44771525 6.44771525,8 7,8 L13,8 Z M13,4 C13.5522847,4 14,4.44771525 14,5 C14,5.55228475 13.5522847,6 13,6 L7,6 C6.44771525,6 6,5.55228475 6,5 C6,4.44771525 6.44771525,4 7,4 L13,4 Z" id="Shape" fill="#0D0E10" fill-rule="nonzero"></path>
    </g>
</svg>