<?xml version="1.0" encoding="UTF-8"?>
<svg width="24px" height="24px" viewBox="0 0 24 24" version="1.1" xmlns="http://www.w3.org/2000/svg" xmlns:xlink="http://www.w3.org/1999/xlink">
    <title>business-agreement</title>
    <g id="business-agreement" stroke="none" stroke-width="1" fill="none" fill-rule="evenodd">
        <path d="M15.4827586,0 C16.8581052,0 18,1.10383166 18,2.5020448 L17.996,7 L21.4827586,7 C22.8581052,7 24,8.10383166 24,9.5020448 L23.9814456,20.6489467 L23.9599709,20.7937905 C23.6863689,22.6391997 22.075623,24 20.1896552,24 L3.5,24 C1.56700338,24 0,22.4329966 0,20.5 L0,2.5 C0,1.1596784 1.05237027,0.0887742716 2.3533785,0.0052464563 L2.51724138,0 L15.4827586,0 Z M15.4827586,2 L2.51724138,2 C2.23157685,2 2,2.22385763 2,2.5 L2,20.5 C2,21.3284271 2.67157288,22 3.5,22 L16.5112961,22.0006046 C16.1876479,21.495329 16,20.8945782 16,20.25 L16,2.5 C16,2.22385763 15.7684231,2 15.4827586,2 Z M21.4827586,9 L17.994,9 L17.988,17 L18,17 L18,20 C18,21.1045695 18.8954305,22 20,22 C21.1045695,22 22,21.1045695 22,20 L22,9.5 C22,9.22385763 21.7684231,9 21.4827586,9 Z M12,18 C12.5522847,18 13,18.4477153 13,19 C13,19.5522847 12.5522847,20 12,20 L8,20 C7.44771525,20 7,19.5522847 7,19 C7,18.4477153 7.44771525,18 8,18 L12,18 Z" id="Shape" fill="#0D0E10" fill-rule="nonzero"></path>
    </g>
</svg>