<?xml version="1.0" encoding="UTF-8"?>
<svg width="24px" height="24px" viewBox="0 0 24 24" version="1.1" xmlns="http://www.w3.org/2000/svg" xmlns:xlink="http://www.w3.org/1999/xlink">
    <title>finance-wallet</title>
    <g id="finance-wallet" stroke="none" stroke-width="1" fill="none" fill-rule="evenodd">
        <path d="M17.1681392,0.179862402 L19.108,5.9998624 L19.5135135,6 C20.9176396,6 22,7.15692299 22,8.52 L22,11.9998624 L23,12 C23.5522847,12 24,12.4477153 24,13 L24,17 C24,17.5522847 23.5522847,18 23,18 L22,17.9998624 L22,20.48 C22,21.843077 20.9176396,23 19.5135135,23 L2.48648649,23 C1.08236039,23 0,21.843077 0,20.48 L0,8.52 C0,7.15692299 1.08236039,6 2.48648649,6 L5.527,5.9998624 L17.1681392,0.179862402 Z M19.5135135,8 L2.48648649,8 C2.21780742,8 2,8.23281193 2,8.52 L2,20.48 C2,20.7671881 2.21780742,21 2.48648649,21 L19.5135135,21 C19.7821926,21 20,20.7671881 20,20.48 L20,17.9998624 C18.3431458,18 17,16.6568542 17,15 C17,13.4023191 18.24892,12.0963391 19.8237272,12.0050927 L20,11.9998624 L20,8.52 C20,8.23281193 19.7821926,8 19.5135135,8 Z M22,14 L20,14 C19.4477153,14 19,14.4477153 19,15 C19,15.5522847 19.4477153,16 20,16 L22,16 L22,14 Z M16,3 L10,6 L17,6 L16,3 Z" id="Shape" fill="#0D0E10" fill-rule="nonzero"></path>
    </g>
</svg>