<?xml version="1.0" encoding="UTF-8"?>
<svg width="24px" height="24px" viewBox="0 0 24 24" version="1.1" xmlns="http://www.w3.org/2000/svg" xmlns:xlink="http://www.w3.org/1999/xlink">
    <title>finance-pay</title>
    <g id="finance-pay" stroke="none" stroke-width="1" fill="none" fill-rule="evenodd">
        <path d="M18,12 C18.5522847,12 19,12.4477153 19,13 L19,17 L23,17 C23.5522847,17 24,17.4477153 24,18 C24,18.5522847 23.5522847,19 23,19 L19,19 L19,23 C19,23.5522847 18.5522847,24 18,24 C17.4477153,24 17,23.5522847 17,23 L17,19 L13,19 C12.4477153,19 12,18.5522847 12,18 C12,17.4477153 12.4477153,17 13,17 L17,17 L17,13 C17,12.4477153 17.4477153,12 18,12 Z M24,12 C24,12.5522847 23.5522847,13 23,13 C22.4477153,13 22,12.5522847 22,12 L22,10 L2,10 L2,18 C2,18.5522847 2.44771525,19 3,19 L9,19 C9.55228475,19 10,19.4477153 10,20 C10,20.5522847 9.55228475,21 9,21 L3,21 C1.34314575,21 0,19.6568542 0,18 L0,6 C0,4.34314575 1.34314575,3 3,3 L21,3 C22.6568542,3 24,4.34314575 24,6 L24,12 Z M21,5 L3,5 C2.44771525,5 2,5.44771525 2,6 L2,8 L22,8 L22,6 C22,5.44771525 21.5522847,5 21,5 Z" id="Shape" fill="#0D0E10" fill-rule="nonzero"></path>
    </g>
</svg>