<?xml version="1.0" encoding="UTF-8"?>
<svg width="24px" height="24px" viewBox="0 0 24 24" version="1.1" xmlns="http://www.w3.org/2000/svg" xmlns:xlink="http://www.w3.org/1999/xlink">
    <title>finance-raise</title>
    <g id="finance-raise" stroke="none" stroke-width="1" fill="none" fill-rule="evenodd">
        <path d="M13.5656854,8.22315674 L15.7656854,10.3217962 C16.0781049,10.6193385 16.0781049,11.1017499 15.7656854,11.3992922 C15.453266,11.6968346 14.946734,11.6968346 14.6343146,11.3992922 L13.799364,10.6006222 L13.8,22.2040816 C13.8,22.6436552 13.4418278,23 13,23 C12.5581722,23 12.2,22.6436552 12.2,22.2040816 L12.2,10.6326531 L12.2012,10.6008163 L11.3656854,11.3992922 C11.0697091,11.6811744 10.5995155,11.6960103 10.2852005,11.4438 L10.2343146,11.3992922 C9.92189514,11.1017499 9.92189514,10.6193385 10.2343146,10.3217962 L12.4343146,8.22315674 C12.746734,7.92561442 13.253266,7.92561442 13.5656854,8.22315674 Z M18.7552016,1.39879371 L22.9996368,3.86403245 C23.6209805,4.22491924 24.0031632,4.89779053 24.0000765,5.62520312 L23.9780812,10.594201 C23.9733408,11.6707951 23.406401,12.6638113 22.4891533,13.2021137 L17.4460254,16.1320508 C16.9677328,16.4081932 16.3561424,16.244318 16.08,15.7660254 C15.8038576,15.2877328 15.9677328,14.6761424 16.4460254,14.4 L21.4825643,11.4545447 C21.7878694,11.2747261 21.9765748,10.9430117 21.9781527,10.5833782 L22,5.60373577 L17.7617304,3.133216 C17.4556394,2.95479324 17.0796858,2.95565151 16.7743807,3.13547004 L2.49576378,11.5452865 C2.02168178,11.8245112 1.85924929,12.4429283 2.13296066,12.9265596 L5.84994771,19.4942501 C6.12365908,19.9778815 6.72986538,20.1435858 7.20394737,19.8643611 L9.5669873,18.48 C10.0452799,18.2038576 10.6568703,18.3677328 10.9330127,18.8460254 C11.2091551,19.324318 11.0452799,19.9359084 10.5669873,20.2120508 L8.18976469,21.5939532 C6.7654497,22.4298367 4.94418519,21.9337863 4.12185655,20.4859936 L0.399462256,13.9323423 C-0.422866384,12.4845497 0.0651399698,10.6332644 1.48945496,9.79738088 L15.7888436,1.40554136 C16.7060913,0.867238927 17.8355929,0.864669619 18.7552016,1.39879371 Z M18.5,6 C19.3284271,6 20,6.67157288 20,7.5 C20,8.32842712 19.3284271,9 18.5,9 C17.6715729,9 17,8.32842712 17,7.5 C17,6.67157288 17.6715729,6 18.5,6 Z" id="Shape" fill="#0D0E10" fill-rule="nonzero"></path>
    </g>
</svg>