<?xml version="1.0" encoding="UTF-8"?>
<svg width="24px" height="24px" viewBox="0 0 24 24" version="1.1" xmlns="http://www.w3.org/2000/svg" xmlns:xlink="http://www.w3.org/1999/xlink">
    <title>finance-rebate</title>
    <g id="finance-rebate" stroke="none" stroke-width="1" fill="none" fill-rule="evenodd">
        <path d="M10.0472162,1.09911027 C10.3326186,1.17794318 10.6028936,1.3023378 10.8477683,1.4670598 L11.0265012,1.59808089 C11.5757585,2.03590344 12.3501615,2.05301868 12.8835221,1.6659637 L12.9611486,1.60769075 C14.1512645,0.659866537 15.8777278,0.841609947 16.8275469,2.03317744 C17.0121055,2.26470991 17.1576452,2.52421092 17.2589319,2.80140755 L17.3265176,3.01246243 C17.513947,3.69102157 18.132607,4.1604318 18.7957843,4.15895838 L18.8869309,4.15737554 C20.4064762,4.09004417 21.6959088,5.25248112 21.7639188,6.77423207 C21.7771385,7.07002657 21.7423517,7.36551341 21.6613622,7.64930497 L21.5919853,7.85977784 C21.3450379,8.5182023 21.5688718,9.2608225 22.1040984,9.64897134 L22.1810647,9.70297098 C23.4501182,10.5418002 23.8103908,12.2400373 22.9708056,13.5113524 C22.8076369,13.7584255 22.605811,13.9770323 22.3734806,14.15902 L22.1936406,14.2885174 C21.6068438,14.676042 21.351428,15.4084006 21.5562873,16.0370179 L21.5868142,16.1259442 C22.1204485,17.5505022 21.4137165,19.1361677 19.9872175,19.6711875 C19.7099853,19.7751657 19.4182109,19.833392 19.123282,19.8440628 L18.9016717,19.8431211 C18.1984048,19.8116907 17.5607927,20.2550156 17.3572609,20.8861901 L17.3306004,20.9733648 C16.925071,22.4393448 15.4210712,23.3064553 13.9527838,22.9008897 C13.6673814,22.8220568 13.3971064,22.6976622 13.1522317,22.5329402 L12.9734988,22.4019191 C12.4242415,21.9640966 11.6498385,21.9469813 11.1164779,22.3340363 L11.0388514,22.3923092 C9.84873548,23.3401335 8.12227216,23.1583901 7.17245305,21.9668226 C6.9878945,21.7352901 6.84235476,21.4757891 6.74106814,21.1985925 L6.67348243,20.9875376 C6.48605304,20.3089784 5.86739303,19.8395682 5.20421569,19.8410416 L5.11306905,19.8426245 C3.59352379,19.9099558 2.30409116,18.7475189 2.23608117,17.2257679 C2.22286154,16.9299734 2.25764828,16.6344866 2.33863777,16.350695 L2.40801473,16.1402222 C2.65496206,15.4817977 2.43112819,14.7391775 1.89590159,14.3510287 L1.81893526,14.297029 C0.549881824,13.4581998 0.189609242,11.7599627 1.02919441,10.4886476 C1.19236315,10.2415745 1.39418902,10.0229677 1.62651939,9.84097998 L1.80635938,9.7114826 C2.39315615,9.32395802 2.64857195,8.59159941 2.4437127,7.9629821 L2.41318582,7.8740558 C1.87955145,6.44949784 2.58628353,4.86383226 4.01278251,4.32881247 C4.2900147,4.22483433 4.58178908,4.16660803 4.87671802,4.1559372 L5.09832828,4.15687891 C5.80159524,4.18830927 6.43920735,3.74498437 6.64273912,3.11380993 L6.67274818,3.012 L6.7210018,2.86017971 C7.19056845,1.49583709 8.6354014,0.709143392 10.0472162,1.09911027 Z M8.59700645,3.55986296 L8.55830183,3.68880513 C8.0672474,5.21468694 6.6142564,6.22662504 5.00903354,6.15488452 C4.90892645,6.15041055 4.80894951,6.16624534 4.71512454,6.20143514 C4.33115193,6.34544712 4.13662541,6.7734632 4.28609254,7.17247158 L4.33186462,7.30352603 C4.82893545,8.82556641 4.24792666,10.4958338 2.90851665,11.3803892 C2.82489857,11.4356112 2.75332299,11.5071868 2.69810104,11.5908048 C2.4721088,11.9330064 2.56631507,12.3936185 2.92176776,12.6285685 L3.03583003,12.7076896 C4.33260166,13.6468753 4.8443142,15.3396583 4.2806374,16.8425642 C4.2454476,16.9363892 4.2296128,17.0363661 4.23408678,17.1364732 C4.25239626,17.546155 4.59935174,17.8634249 5.0245355,17.844585 L5.15912719,17.8415499 C6.76207118,17.837047 8.17348043,18.9062175 8.60129228,20.4550442 C8.62797207,20.5516343 8.67392642,20.6418248 8.73638742,20.7201834 C8.99200502,21.0408609 9.4591845,21.0936023 9.79288571,20.8278382 L9.90699625,20.7411916 C11.2007016,19.8010379 12.966382,19.8385941 14.220138,20.8379847 C14.2984966,20.9004457 14.3886871,20.9464001 14.4852771,20.9730799 C14.8805656,21.0822652 15.2895224,20.8503327 15.4029935,20.440137 L15.4416982,20.3111949 C15.9327526,18.7853131 17.3857436,17.773375 18.9909665,17.8451155 C19.0910736,17.8495895 19.1910505,17.8337547 19.2848755,17.7985649 C19.6688481,17.6545529 19.8633746,17.2265368 19.7139075,16.8275284 L19.6681354,16.696474 C19.1710645,15.1744336 19.7520733,13.5041662 21.0914833,12.6196108 C21.1751014,12.5643888 21.246677,12.4928132 21.301899,12.4091952 C21.5278912,12.0669936 21.4336849,11.6063815 21.0782322,11.3714315 L20.96417,11.2923104 C19.6673983,10.3531247 19.1556858,8.66034166 19.7193626,7.15743581 C19.7545524,7.06361084 19.7703872,6.9636339 19.7659132,6.86352681 C19.7476037,6.45384501 19.4006483,6.13657505 18.9754645,6.15541503 L18.8408728,6.15845007 C17.2379288,6.16295296 15.8265196,5.09378248 15.3987077,3.54495578 C15.3720279,3.44836574 15.3260736,3.35817524 15.2636126,3.27981664 C15.007995,2.95913914 14.5408155,2.90639767 14.2071143,3.17216178 L14.0930038,3.25880839 C12.7992984,4.19896209 11.033618,4.16140589 9.779862,3.16201526 C9.7015034,3.09955426 9.6113129,3.05359991 9.51472286,3.02692012 C9.11943438,2.91773483 8.71047758,3.14966729 8.59700645,3.55986296 Z M12,7 C14.7614237,7 17,9.23857625 17,12 C17,14.7614237 14.7614237,17 12,17 C9.23857625,17 7,14.7614237 7,12 C7,9.23857625 9.23857625,7 12,7 Z M12,9 C10.3431458,9 9,10.3431458 9,12 C9,13.6568542 10.3431458,15 12,15 C13.6568542,15 15,13.6568542 15,12 C15,10.3431458 13.6568542,9 12,9 Z" id="Shape" fill="#0D0E10" fill-rule="nonzero"></path>
    </g>
</svg>