<?xml version="1.0" encoding="UTF-8"?>
<svg width="24px" height="24px" viewBox="0 0 24 24" version="1.1" xmlns="http://www.w3.org/2000/svg" xmlns:xlink="http://www.w3.org/1999/xlink">
    <title>finance-unpaid</title>
    <g id="finance-unpaid" stroke="none" stroke-width="1" fill="none" fill-rule="evenodd">
        <path d="M15.5857864,14.1715729 L19,17.5854844 L22.4142136,14.1715729 C22.8047379,13.7810486 23.4379028,13.7810486 23.8284271,14.1715729 C24.2189514,14.5620972 24.2189514,15.1952621 23.8284271,15.5857864 L20.4142136,18.999698 L23.8284271,22.4142136 C24.2189514,22.8047379 24.2189514,23.4379028 23.8284271,23.8284271 C23.4379028,24.2189514 22.8047379,24.2189514 22.4142136,23.8284271 L19,20.4139115 L15.5857864,23.8284271 C15.1952621,24.2189514 14.5620972,24.2189514 14.1715729,23.8284271 C13.7810486,23.4379028 13.7810486,22.8047379 14.1715729,22.4142136 L17.5857864,18.999698 L14.1715729,15.5857864 C13.7810486,15.1952621 13.7810486,14.5620972 14.1715729,14.1715729 C14.5620972,13.7810486 15.1952621,13.7810486 15.5857864,14.1715729 Z M21,3 C22.6568542,3 24,4.34314575 24,6 L24,11 C24,11.5522847 23.5522847,12 23,12 C22.4477153,12 22,11.5522847 22,11 L22,10 L2,10 L2,18 C2,18.5522847 2.44771525,19 3,19 L10.2,19 L10.1988177,19.0197644 C10.6558547,19.1119611 11,19.5157908 11,20 C11,20.5522847 10.5522847,21 10,21 L3,21 C1.34314575,21 0,19.6568542 0,18 L0,6 C0,4.34314575 1.34314575,3 3,3 L21,3 Z M21,5 L3,5 C2.44771525,5 2,5.44771525 2,6 L2,8 L22,8 L22,6 C22,5.44771525 21.5522847,5 21,5 Z" id="Shape" fill="#0D0E10" fill-rule="nonzero"></path>
    </g>
</svg>