<?xml version="1.0" encoding="UTF-8"?>
<svg width="24px" height="24px" viewBox="0 0 24 24" version="1.1" xmlns="http://www.w3.org/2000/svg" xmlns:xlink="http://www.w3.org/1999/xlink">
    <title>finance-unpaid</title>
    <g id="finance-unpaid" stroke="none" stroke-width="1" fill="none" fill-rule="evenodd">
        <path d="M16.5857864,15.1715729 L19,17.5854844 L21.4142136,15.1715729 C21.8047379,14.7810486 22.4379028,14.7810486 22.8284271,15.1715729 C23.2189514,15.5620972 23.2189514,16.1952621 22.8284271,16.5857864 L20.4142136,18.999698 L22.8284271,21.4142136 C23.2189514,21.8047379 23.2189514,22.4379028 22.8284271,22.8284271 C22.4379028,23.2189514 21.8047379,23.2189514 21.4142136,22.8284271 L19,20.4139115 L16.5857864,22.8284271 C16.1952621,23.2189514 15.5620972,23.2189514 15.1715729,22.8284271 C14.7810486,22.4379028 14.7810486,21.8047379 15.1715729,21.4142136 L17.5857864,18.999698 L15.1715729,16.5857864 C14.7810486,16.1952621 14.7810486,15.5620972 15.1715729,15.1715729 C15.5620972,14.7810486 16.1952621,14.7810486 16.5857864,15.1715729 Z M21,3 C22.6568542,3 24,4.34314575 24,6 L24,11 L22,11 L22,6 C22,5.44771525 21.5522847,5 21,5 L3,5 C2.44771525,5 2,5.44771525 2,6 L2,18 C2,18.5522847 2.44771525,19 3,19 L12.2,19 L12.1988177,19.0197644 C12.6558547,19.1119611 13,19.5157908 13,20 C13,20.5522847 12.5522847,21 12,21 L3,21 C1.34314575,21 0,19.6568542 0,18 L0,6 C0,4.34314575 1.34314575,3 3,3 L21,3 Z" id="Shape" fill="#0D0E10" fill-rule="nonzero"></path>
        <rect id="Rectangle" fill="#0D0E10" fill-rule="nonzero" x="2" y="9" width="20" height="2"></rect>
        <rect id="Rectangle" fill="#0D0E10" fill-rule="nonzero" transform="translate(23, 11.5) rotate(-90) translate(-23, -11.5)" x="21.5" y="10.5" width="3" height="2" rx="1"></rect>
    </g>
</svg>