<?xml version="1.0" encoding="UTF-8"?>
<svg width="24px" height="24px" viewBox="0 0 24 24" version="1.1" xmlns="http://www.w3.org/2000/svg" xmlns:xlink="http://www.w3.org/1999/xlink">
    <title>finance-paid</title>
    <g id="finance-paid" stroke="none" stroke-width="1" fill="none" fill-rule="evenodd">
        <path d="M23.6810264,14.3245803 C24.1063245,14.7573539 24.1063245,15.4590187 23.6810264,15.8917924 L17.0146396,22.6753557 C16.7808794,22.9132248 16.4672898,23.0203518 16.1616254,22.996737 C15.8553726,23.0206079 15.5413123,22.9135093 15.3072725,22.6753557 L10.8189736,18.108165 C10.3936755,17.6753913 10.3936755,16.9737265 10.8189736,16.5409529 C11.2442717,16.1081792 11.9338162,16.1081792 12.3591143,16.5409529 L16.1608504,20.4086414 L22.1408857,14.3245803 C22.5661838,13.8918066 23.2557283,13.8918066 23.6810264,14.3245803 Z M21,3 C22.6568542,3 24,4.34314575 24,6 L24,11 C24,11.5522847 23.5522847,12 23,12 C22.4477153,12 22,11.5522847 22,11 L22,10 L2,10 L2,18 C2,18.5522847 2.44771525,19 3,19 L8,19 C8.55228475,19 9,19.4477153 9,20 C9,20.5522847 8.55228475,21 8,21 L3,21 C1.34314575,21 0,19.6568542 0,18 L0,6 C0,4.34314575 1.34314575,3 3,3 L21,3 Z M21,5 L3,5 C2.44771525,5 2,5.44771525 2,6 L2,8 L22,8 L22,6 C22,5.44771525 21.5522847,5 21,5 Z" id="Shape" fill="#0D0E10" fill-rule="nonzero"></path>
    </g>
</svg>