<?xml version="1.0" encoding="UTF-8"?>
<svg width="24px" height="24px" viewBox="0 0 24 24" version="1.1" xmlns="http://www.w3.org/2000/svg" xmlns:xlink="http://www.w3.org/1999/xlink">
    <title>finance-pay-partially</title>
    <g id="finance-pay-partially" stroke="none" stroke-width="1" fill="none" fill-rule="evenodd">
        <path d="M18,12 C21.3137085,12 24,14.6862915 24,18 C24,21.3137085 21.3137085,24 18,24 C17.4477153,24 17,23.5522847 17,23 C17,22.4477153 17.4477153,22 18,22 C20.209139,22 22,20.209139 22,18 C22,15.790861 20.209139,14 18,14 C15.790861,14 14,15.790861 14,18 C14,18.5522847 13.5522847,19 13,19 C12.4477153,19 12,18.5522847 12,18 C12,14.6862915 14.6862915,12 18,12 Z M21,3 C22.6568542,3 24,4.34314575 24,6 L24,11 C24,11.5522847 23.5522847,12 23,12 C22.4477153,12 22,11.5522847 22,11 L22,10 L2,10 L2,18 C2,18.5522847 2.44771525,19 3,19 L9,19 C9.55228475,19 10,19.4477153 10,20 C10,20.5522847 9.55228475,21 9,21 L3,21 C1.34314575,21 0,19.6568542 0,18 L0,6 C0,4.34314575 1.34314575,3 3,3 L21,3 Z M21,5 L3,5 C2.44771525,5 2,5.44771525 2,6 L2,8 L22,8 L22,6 C22,5.44771525 21.5522847,5 21,5 Z" id="Combined-Shape" fill="#0D0E10" fill-rule="nonzero"></path>
    </g>
</svg>