<svg xmlns="http://www.w3.org/2000/svg" viewBox="0 0 48 48">
	<path d="M24,1C11.3,1,1,11.3,1,24s10.3,23,23,23s23-10.3,23-23S36.7,1,24,1z M24,44C13,44,4,35,4,24S13,4,24,4
		s20,9,20,20S35,44,24,44z M32.6,22.2l-7.9-7.8l-0.1-0.1c-0.2-0.1-0.4-0.2-0.6-0.2h-0.1l-0.1,0c-0.2,0-0.4,0.1-0.5,0.3l-7.9,7.8l-0.1,0.1
		c-0.3,0.4-0.3,1,0.1,1.3l1,1l0.1,0.1c0.4,0.3,1,0.3,1.3-0.1l4.7-4.6l0,13.5c0,0.6,0.4,1,1,1h1c0.6,0,1-0.4,1-1l0-13.5l4.7,4.6
		l0.1,0.1c0.4,0.3,0.9,0.3,1.2,0l0.1-0.1l1-1l0.1-0.1C33,23.1,33,22.6,32.6,22.2L32.6,22.2z"/>
</svg>
