<svg xmlns="http://www.w3.org/2000/svg" viewBox="0 0 48 48">
	<path d="M24,1C11.3,1,1,11.3,1,24s10.3,23,23,23s23-10.3,23-23S36.7,1,24,1z M24,44C13,44,4,35,4,24S13,4,24,4
		s20,9,20,20S35,44,24,44z M33.6,23.3l-7.8-7.9l-0.1-0.1c-0.4-0.3-1-0.3-1.3,0.1l-1,1l-0.1,0.1c-0.3,0.4-0.3,1,0.1,1.3l4.6,4.7l-13.5,0
		c-0.6,0-1,0.4-1,1v1c0,0.6,0.4,1,1,1l13.5,0l-4.6,4.7l-0.1,0.1c-0.3,0.4-0.3,0.9,0,1.2l0.1,0.1l1,1l0.1,0.1c0.4,0.3,0.9,0.3,1.2,0
		l0.1-0.1l7.8-7.9l0.1-0.1c0.1-0.2,0.2-0.4,0.2-0.6v-0.1l0-0.1C33.9,23.6,33.8,23.4,33.6,23.3z"/>
</svg>
