<svg xmlns="http://www.w3.org/2000/svg" viewBox="0 0 48 48">
	<path d="M24,1C11.3,1,1,11.3,1,24s10.3,23,23,23s23-10.3,23-23S36.7,1,24,1z M24,44C13,44,4,35,4,24S13,4,24,4
		s20,9,20,20S35,44,24,44z M33.5,22.5l-13.5,0l4.6-4.7l0.1-0.1c0.3-0.4,0.3-0.9,0-1.2l-0.1-0.1l-1-1l-0.1-0.1c-0.4-0.3-0.9-0.3-1.2,0
		l-0.1,0.1l-7.8,7.9l-0.1,0.1c-0.1,0.2-0.2,0.4-0.2,0.6v0.1l0,0.1c0,0.2,0.1,0.4,0.3,0.5l7.8,7.9l0.1,0.1c0.4,0.3,1,0.3,1.3-0.1l1-1
		l0.1-0.1c0.3-0.4,0.3-1-0.1-1.3L20,25.5l13.5,0c0.6,0,1-0.4,1-1v-1C34.5,22.9,34.1,22.5,33.5,22.5z"/>
</svg>
