<svg xmlns="http://www.w3.org/2000/svg" viewBox="0 0 48 48">
<path d="M43,11H17.6c-0.8,0-1.5,0.3-2.1,0.9L3.4,23.7c-0.1,0.1-0.1,0.1-0.2,0.2c-1.1,1.3-0.9,3.2,0.4,4.2l12,10.2
	c0.5,0.5,1.2,0.7,1.9,0.7H43c1.7,0,3-1.3,3-3V14C46,12.3,44.7,11,43,11z M42,35H17.9l-11-9.2L18,15h24V35z M24.3,30.6l1.4,1.4
	c0.4,0.4,1,0.4,1.4,0l4-4l4,4c0.4,0.4,1,0.4,1.4,0l1.4-1.4c0.4-0.4,0.4-1,0-1.4l-4-4l4-4c0.4-0.4,0.4-1,0-1.4l-1.4-1.4
	c-0.4-0.4-1-0.4-1.4,0l-4,4l-4-4c-0.4-0.4-1-0.4-1.4,0l-1.4,1.4c-0.4,0.4-0.4,1,0,1.4l4,4l-4,4C23.9,29.6,23.9,30.2,24.3,30.6z"/>
</svg>
