<svg xmlns="http://www.w3.org/2000/svg" viewBox="0 0 48 48">
<path d="M32.5,20h-13c-0.8,0-1.5,0.7-1.5,1.5s0.7,1.5,1.5,1.5h13c0.8,0,1.5-0.7,1.5-1.5S33.3,20,32.5,20z M43,1H16h-0.2
	C13.7,1.1,12,2.9,12,5v30H1v6c0,3.3,2.7,6,6,6h34h0.4c3.6-0.1,5.5-2.1,5.5-6V5C47,2.8,45.2,1,43,1z M7,44c-1.7,0-3-1.3-3-3v-3h30v2
	l0,0c0,0.2,0,0.3,0,0.5c0,1.3,0.4,2.5,1,3.5H7z M44,41L44,41c-0.3,1.7-1.7,3-3.5,3s-3.2-1.3-3.5-3l0,0v-6H15V5c0-0.6,0.4-1,1-1h27
	c0.6,0,1,0.4,1,1V41z M36.5,8h-17C18.7,8,18,8.7,18,9.5s0.7,1.5,1.5,1.5h17c0.8,0,1.5-0.7,1.5-1.5S37.3,8,36.5,8z M36.5,14h-17
	c-0.8,0-1.5,0.7-1.5,1.5c0,0.8,0.7,1.5,1.5,1.5h17c0.8,0,1.5-0.7,1.5-1.5S37.3,14,36.5,14z"/>
</svg>
