<svg xmlns="http://www.w3.org/2000/svg" viewBox="0 0 48 48">
<path d="M45.5,39.5H16.4l-3.1-2.6l-0.1-0.1c-0.6-0.4-1.3-0.4-1.8,0.1l-1.7,1.5l-1.5-5.7v-0.1c-0.4-1.2-2.1-1.3-2.7-0.2
	l-4.1,8l-0.1,0.1C1,41.2,1.3,42,2,42.4l0.1,0.1c0.7,0.3,1.5,0,1.9-0.7l2.4-4.6l1.1,4.3v0.1c0.4,1,1.6,1.3,2.4,0.6l2.6-2.2l2.6,2.2
	l0.1,0.1c0.2,0.2,0.5,0.3,0.8,0.3h29.6h0.1c0.8-0.1,1.4-0.7,1.4-1.5V41C46.9,40.1,46.3,39.5,45.5,39.5z M39.9,6
	c-1.6-1.4-4-1.4-5.6,0.2L18.8,21.7l-0.2,0.2c-0.6,0.6-0.9,1.4-1,2.3L16.5,34l9.9-1.1h0.2c0.8-0.1,1.6-0.5,2.2-1.1l15.5-15.5l0.2-0.2
	c1.4-1.6,1.4-4-0.2-5.6L40,6.2L39.9,6z M26.6,29.6l-0.1,0.1c-0.1,0.1-0.3,0.2-0.5,0.2l-6.1,0.7l0.7-6.1v-0.1c0-0.2,0.1-0.3,0.3-0.5
	l10-10l5.7,5.7L26.6,29.6z M42.2,12.7c0.3,0.4,0.3,1-0.1,1.3l-2.7,2.7L33.7,11l2.7-2.7l0.1-0.1c0.4-0.3,1-0.3,1.3,0.1L42.2,12.7
	L42.2,12.7z"/>
</svg>
