<svg xmlns="http://www.w3.org/2000/svg" viewBox="0 0 48 48">
<path d="M43.8,23.4l-5.3-5.3L38.4,18c-0.3-0.2-0.7-0.2-0.9,0l-0.1,0.1l-1.2,1.2l-0.1,0.1c-0.2,0.3-0.2,0.7,0,0.9 l0.1,0.1l2.3,2.3l-12.7,0l0-12.7l1.8,1.8c0.3,0.3,0.7,0.3,1,0.1l0.1-0.1l1.2-1.2c0.3-0.3,0.3-0.7,0.1-1l-0.1-0.1l-5.3-5.3 C24.4,4.1,24.3,4,24.1,4l-0.1,0h-0.1c-0.2,0-0.3,0.1-0.4,0.2l-0.1,0.1l-5.3,5.3L18,9.6c-0.2,0.3-0.2,0.7,0,0.9l0.1,0.1l1.2,1.2 l0.1,0.1c0.3,0.2,0.7,0.2,0.9,0l0.1-0.1l2.3-2.3l0,13.2l-13.2,0l2.3-2.3l0.1-0.1c0.2-0.3,0.2-0.7,0-0.9l-0.1-0.1l-1.2-1.2L10.6,18 c-0.3-0.2-0.7-0.2-0.9,0l-0.1,0.1l-5.3,5.3l-0.1,0.1C4.1,23.6,4,23.8,4,23.9v0.1l0,0.1c0,0.1,0.1,0.3,0.2,0.4l5.3,5.3L9.6,30 c0.3,0.2,0.7,0.2,1-0.1l1.2-1.2l0.1-0.1c0.2-0.3,0.2-0.7-0.1-1l-1.8-1.8l12.7,0l0,12.7l-2.3-2.3l-0.1-0.1c-0.3-0.2-0.7-0.2-0.9,0 l-0.1,0.1l-1.2,1.2L18,37.4c-0.2,0.3-0.2,0.7,0,0.9l0.1,0.1l5.3,5.3l0.1,0.1c0.1,0.1,0.3,0.2,0.4,0.2h0.1l0.1,0 c0.1,0,0.3-0.1,0.4-0.2l5.3-5.3l0.1-0.1c0.2-0.3,0.2-0.7-0.1-1l-1.2-1.2l-0.1-0.1c-0.3-0.2-0.7-0.2-1,0.1l-1.8,1.8l0-12.2l12.2,0 l-1.8,1.8c-0.3,0.3-0.3,0.7-0.1,1l0.1,0.1l1.2,1.2c0.3,0.3,0.7,0.3,1,0.1l0.1-0.1l5.3-5.3c0.1-0.1,0.2-0.3,0.2-0.4l0-0.1v-0.1 C44,23.8,43.9,23.6,43.8,23.4L43.8,23.4z"/>
</svg>
