<svg xmlns="http://www.w3.org/2000/svg" viewBox="0 0 48 48">
	<path d="M45.5,24.4l-10-10l-0.1-0.1c-0.4-0.3-1-0.3-1.3,0.1L32.5,16l-0.1,0.1c-0.3,0.4-0.3,1,0.1,1.3l5.4,5.4H26.7v-3.7 c1.9-0.8,3.2-2.7,3.2-4.8c0-2.9-2.3-5.2-5.2-5.2s-5.2,2.3-5.2,5.2c0,2.2,1.3,4,3.2,4.8v3.7h-10v-3.7c1.9-0.8,3.2-2.7,3.2-4.8 c0-2.9-2.3-5.2-5.2-5.2s-5.2,2.3-5.2,5.2c0,2.2,1.3,4,3.2,4.8v3.7H4c-0.6,0-1,0.4-1,1v2c0,0.6,0.4,1,1,1h11.7v2.8 c-1.9,0.8-3.2,2.7-3.2,4.8c0,2.9,2.3,5.2,5.2,5.2s5.2-2.3,5.2-5.2c0-2.2-1.3-4-3.2-4.8v-2.8h18.8l-6,6l-0.1,0.1 c-0.3,0.4-0.3,0.9,0,1.2l0.1,0.1l1.6,1.6l0.1,0.1c0.4,0.3,0.9,0.3,1.2,0l0.1-0.1l10-10l0.1-0.1c0.1-0.2,0.2-0.4,0.2-0.6V25v-0.1 C45.7,24.7,45.6,24.5,45.5,24.4z M10.7,16.5c-1.2,0-2.2-1-2.2-2.2s1-2.2,2.2-2.2s2.2,1,2.2,2.2S11.9,16.5,10.7,16.5z M19.9,34.4 c0,1.2-1,2.2-2.2,2.2s-2.2-1-2.2-2.2s1-2.2,2.2-2.2S19.9,33.1,19.9,34.4z M24.7,16.5c-1.2,0-2.2-1-2.2-2.2s1-2.2,2.2-2.2 s2.2,1,2.2,2.2C26.9,15.5,25.9,16.5,24.7,16.5z"/>
</svg>
