<svg xmlns="http://www.w3.org/2000/svg" viewBox="0 0 48 48">
<path d="M39.3,1.5H8.7c-4,0-7.2,3.2-7.2,7.2v30.6c0,4,3.2,7.2,7.2,7.2h30.6c4,0,7.2-3.2,7.2-7.2V8.7C46.5,4.7,43.3,1.5,39.3,1.5z M43.5,39.3c0,2.3-1.9,4.2-4.2,4.2H8.7c-2.3,0-4.2-1.9-4.2-4.2V8.7c0-2.3,1.9-4.2,4.2-4.2h30.6c2.3,0,4.2,1.9,4.2,4.2V39.3z M32.4,13.4c-0.6,0.6-0.6,1.6,0,2.2c4.7,4.6,4.7,12.2,0,16.8s-12.2,4.6-16.9,0s-4.7-12.2,0-16.8c0.6-0.6,0.6-1.6,0-2.2 c-0.6-0.6-1.6-0.6-2.2,0c-5.9,5.8-5.9,15.3,0,21.2c5.9,5.8,15.4,5.8,21.2,0c5.9-5.8,5.9-15.3,0-21.2C34,12.9,33,12.9,32.4,13.4z M24,23c1.1,0,2-0.9,2-2V11c0-1.1-0.9-2-2-2s-2,0.9-2,2v10C22,22.1,22.9,23,24,23z"/>
</svg>
