<svg xmlns="http://www.w3.org/2000/svg" viewBox="0 0 48 48">
<path d="M36.6,4.5c-0.7,0.5-0.8,1.4-0.3,2.1c1.9,2.6,2.8,4.9,2.8,7.1c0,2.1-0.9,4.1-2.7,6c-0.6,0.6-0.5,1.6,0.1,2.1 c0.6,0.6,1.6,0.5,2.1-0.1c2.3-2.5,3.5-5.2,3.5-8.1c0-2.8-1.1-5.8-3.4-8.8C38.2,4.1,37.2,4,36.6,4.5z M28.8,13.7 c-0.5,0.6-0.4,1.5,0.2,2c0.6,0.6,1.6,0.5,2.1-0.1c0.6-0.7,1-1.5,1-2.3s-0.3-1.6-0.9-2.4c-0.5-0.7-1.4-0.8-2.1-0.3s-0.8,1.4-0.3,2.1 c0.2,0.3,0.3,0.5,0.3,0.6s0,0.1-0.2,0.3L28.8,13.7z M6,24.7c0,6.6,2.2,12.3,6.6,17.2c1.5,1.6,3.9,2,5.7,0.8l3.9-2.4l0.2-0.1 c1.7-1.2,2.4-3.4,1.6-5.3l-1.4-3.8l-0.1-0.2c-0.7-1.7-2.3-2.7-4.1-2.7h-2.1h-0.1c-0.5,0-1-0.4-1.2-0.9l-0.3-0.7l-0.2-0.5l-0.1-0.3 c-0.2-0.5-0.3-1.1-0.3-2.1c0-1.4,0.2-2.1,0.6-2.8l0.2-0.4l0.2-0.4c0.2-0.5,0.8-0.9,1.4-0.9h2.1c1.9,0,3.6-1.2,4.2-2.9l1.4-3.8 c0.8-2,0-4.3-1.8-5.4l-3.9-2.4c-1.8-1.2-4.3-0.8-5.7,0.8C8.2,10.3,6,16.1,6,22.7c0,0.4,0,0.7,0,1v0.4V24.7z M9,22.9v-0.2 c0-5.8,1.9-10.9,5.8-15.2c0.5-0.5,1.3-0.7,1.9-0.3l3.9,2.4c0.6,0.4,0.9,1.1,0.6,1.8l-1.4,3.8c-0.2,0.6-0.8,1-1.4,1h-2.1 c-1.8,0-3.4,1-4.1,2.7l-0.4,0.9l-0.2,0.4C11.2,21,11,21.9,11,23.6c0,1.6,0.2,2.6,0.6,3.5l0.2,0.4l0.3,0.6l0.2,0.4 c0.7,1.5,2.1,2.5,3.8,2.6h0.2h2.2c0.6,0,1.1,0.3,1.4,0.9l0.1,0.1l1.4,3.7c0.2,0.6,0,1.4-0.5,1.7l-0.1,0.1L16.9,40 c-0.6,0.4-1.4,0.3-1.9-0.3c-4.1-4.1-6-9.2-6-15c0-0.3,0-0.6,0-1V22.9z M34.9,8.1c-0.5-0.7-1.4-0.8-2.1-0.3c-0.7,0.5-0.8,1.4-0.3,2.1 c1,1.3,1.4,2.5,1.4,3.5s-0.4,1.9-1.3,2.9c-0.6,0.6-0.5,1.6,0.1,2.1c0.6,0.6,1.6,0.5,2.1-0.1c1.4-1.5,2.1-3.2,2.1-4.9 S36.2,9.9,34.9,8.1z"/>
</svg>
