<svg xmlns="http://www.w3.org/2000/svg" viewBox="0 0 48 48">
	<path d="M46.6,35c-2.3,0-3.7,0.6-5.2,1.8c-0.1,0.1-0.6,0.5-0.7,0.6l-0.2,0.1l-0.1,0.1l3-14l0-0.1 c0.1-0.7-0.4-1.4-1.1-1.6L41,21.4l0-6.9l0-0.1c-0.1-0.8-0.8-1.4-1.6-1.4h-2.8l0-4.5l0-0.1C36.4,7.6,35.7,7,34.9,7h-5.4V2.5 c0-0.8-0.7-1.4-1.5-1.5l-0.2,0h-7.7L20,1c-0.8,0.1-1.5,0.7-1.5,1.5V7h-5.4L13,7c-0.8,0.1-1.5,0.7-1.5,1.5l0,4.5H8.6l-0.1,0 C7.7,13.1,7,13.7,7,14.5l0,6.9l-1.4,0.4c-0.8,0.2-1.2,1-1,1.8l3,14l-0.1-0.1l-0.2-0.1l-0.7-0.6C5.1,35.6,3.7,35,1.4,35 C0.6,35,0,35.7,0,36.5S0.6,38,1.4,38c1.5,0,2.4,0.3,3.4,1.1l0.2,0.1c0.1,0.1,0.5,0.5,0.7,0.6l0.2,0.2C6.7,40.7,7.6,41,8.7,41l0.1,0 l0.1,0c0.4,0,0.7,0,1.1-0.1l0.2-0.1c0.7-0.2,1.4-0.6,2.3-1.2l1-0.6c0.3-0.2,0.6-0.3,0.8-0.5c0.7-0.3,1.2-0.5,1.8-0.5l0.1,0l0.2,0 c0.6,0.1,1.2,0.3,2.3,1l1,0.6c1.4,0.9,2.8,1.3,4,1.3l0,0l0.2,0l0.2,0l0.3,0c1.2-0.1,2.6-0.4,4-1.3l1-0.6c1.1-0.7,1.7-1,2.4-1l0.1,0 c0.5,0,1.1,0.2,1.8,0.5c0.1,0.1,0.2,0.1,0.4,0.2l0.4,0.2l1,0.6c1,0.6,1.8,1,2.5,1.2c0.4,0.1,0.7,0.1,1.1,0.1l0.1,0l0.1,0 c1.2,0,2.1-0.4,3.2-1.2c0.1-0.1,0.3-0.3,0.5-0.4l0.3-0.3c1-0.7,1.8-1.1,3.4-1.1c0.8,0,1.4-0.7,1.4-1.5S47.4,35,46.6,35z M10.3,16 h2.8l0.2,0c0.8-0.1,1.5-0.7,1.5-1.5l0-4.5h5.4l0.2,0c0.8-0.1,1.5-0.7,1.5-1.5V4h4.4v4.5l0,0.1C26.3,9.4,27,10,27.8,10h5.4l0,4.5 l0,0.1c0.1,0.8,0.8,1.4,1.6,1.4h2.8l0,4.4l-13.3-3.9h-0.8l-13.3,3.9L10.3,16z M37.5,37.3l-1.4-0.8c-0.4-0.3-0.8-0.5-1.2-0.7 C33.8,35.2,33,35,31.9,35l-0.4,0c-1.2,0-2.2,0.4-4,1.4l-1,0.6c-1.2,0.6-1.9,0.9-2.5,1l-0.1,0c-0.6-0.1-1.3-0.4-2.3-1l-1-0.6 c-1.9-1-2.9-1.4-4.2-1.4h-0.2c-1.1,0-1.8,0.2-2.9,0.8c-0.5,0.2-1,0.5-1.6,0.9l-0.7,0.4l-0.3,0.2l-2.8-13L24,19.6l16.2,4.7 L37.5,37.3z M30,13c0-0.6-0.4-1-1-1H19c-0.6,0-1,0.4-1,1s0.4,1,1,1h10C29.6,14,30,13.6,30,13z M46.6,41c-2.3,0-3.7,0.6-5.2,1.8c-0.1,0.1-0.6,0.5-0.7,0.6l-0.2,0.1c-0.5,0.4-0.8,0.5-1.3,0.5 c-0.2,0-0.3,0-0.5,0c-0.3-0.1-0.7-0.3-1.6-0.8l-1.1-0.6c-0.4-0.3-0.8-0.5-1.2-0.7C33.8,41.2,33,41,31.9,41l-0.4,0 c-1.2,0-2.2,0.4-4,1.4l-1,0.6c-1.2,0.6-1.9,0.9-2.5,1l-0.1,0c-0.6-0.1-1.3-0.4-2.3-1l-1-0.6c-1.9-1-2.9-1.4-4.2-1.4h-0.2 c-1.1,0-1.8,0.2-2.9,0.8c-0.5,0.2-1,0.5-1.6,0.9l-0.9,0.6c-0.8,0.5-1.2,0.7-1.5,0.7c-0.1,0-0.2,0-0.4,0l-0.1,0l-0.2,0 c-0.4,0-0.7-0.2-1.2-0.5l-0.2-0.1l-0.7-0.6C5.1,41.6,3.7,41,1.4,41C0.6,41,0,41.7,0,42.5S0.6,44,1.4,44c1.5,0,2.4,0.3,3.4,1.1 l0.2,0.1c0.1,0.1,0.5,0.5,0.7,0.6l0.2,0.2C6.7,46.7,7.6,47,8.7,47l0.1,0l0.1,0c0.4,0,0.7,0,1.1-0.1l0.2-0.1 c0.7-0.2,1.4-0.6,2.3-1.2l1-0.6c0.3-0.2,0.6-0.3,0.8-0.5c0.7-0.3,1.2-0.5,1.8-0.5l0.1,0l0.2,0c0.6,0.1,1.2,0.3,2.3,1l1,0.6 c1.4,0.9,2.8,1.3,4,1.3l0,0l0.2,0l0.2,0l0.3,0c1.2-0.1,2.6-0.4,4-1.3l1-0.6c1.1-0.7,1.7-1,2.4-1l0.1,0c0.5,0,1.1,0.2,1.8,0.5 c0.1,0.1,0.2,0.1,0.4,0.2l0.4,0.2l1,0.6c1,0.6,1.8,1,2.5,1.2c0.4,0.1,0.7,0.1,1.1,0.1l0.1,0l0.1,0c1.2,0,2.1-0.4,3.2-1.2 c0.1-0.1,0.3-0.3,0.5-0.4l0.3-0.3c1-0.7,1.8-1.1,3.4-1.1c0.8,0,1.4-0.7,1.4-1.5S47.4,41,46.6,41z"/>
</svg>
