<svg xmlns="http://www.w3.org/2000/svg" viewBox="0 0 48 48">
	<path d="M47.6,12.5L47.6,12.5c0-2.9-1.1-5.9-3.4-8.1c-4.5-4.5-11.8-4.5-16.3,0c-2.6,2.6-4.4,8-6,16.5L21.7,22l-0.2,1.1l-0.8,4.7 l4.1-0.7c10.2-1.7,16.5-3.7,19.3-6.5C46.5,18.4,47.6,15.4,47.6,12.5z M26.6,23.8L25.5,24l-1.1,0.2l0.3-1.6c1.5-8.6,3.3-14,5.4-16.1 c3.3-3.3,8.7-3.3,12,0s3.3,8.7,0,12C40.1,20.6,34.9,22.3,26.6,23.8z M32.2,8.6c-2.1,2.1-2.1,5.6,0,7.8c2.1,2.1,5.6,2.1,7.8,0s2.1-5.6,0-7.8S34.3,6.5,32.2,8.6z M37.9,14.3c-1,1-2.6,1-3.5,0 s-1-2.6,0-3.5s2.6-1,3.5,0S38.8,13.3,37.9,14.3z M47,40.5v-21l-3,3v18c0,2.2-1.8,4-4,4H8c-2.2,0-4-1.8-4-4v-33V7.3c0.1-2.1,1.9-3.8,4-3.8h19l4-3H8c-3.9,0-7,3.1-7,7v33 c0,3.9,3.1,7,7,7h32h0.2C44,47.4,47,44.3,47,40.5z"/>
</svg>
