<svg xmlns="http://www.w3.org/2000/svg" viewBox="0 0 48 48">
<path d="M18,35h12c5,0,9-4,9-9V13c0-5-4-9-9-9H18c-5,0-9,4-9,9v13C9,31,13,35,18,35z M12,13c0-3.3,2.7-6,6-6h12c3.3,0,6,2.7,6,6v7 H12V13z M12,23h24v3c0,3.3-2.7,6-6,6H18c-3.3,0-6-2.7-6-6V23z M16.3,35.5c-0.7-0.4-1.6-0.2-2,0.5l-1.1,2H13v0.1l-3.8,6.6 c-0.4,0.7-0.2,1.6,0.5,2s1.6,0.2,2-0.5l0.7-1.2h23l0.7,1.2c0.4,0.7,1.3,1,2,0.5l0.1-0.1c0.6-0.4,0.8-1.3,0.4-2L35,38.1V38h-0.1 l-1.1-2c-0.4-0.7-1.3-1-2-0.5l-0.1,0.1c-0.6,0.4-0.8,1.3-0.4,2l0.3,0.5h-15l0.3-0.5C17.2,36.8,17,35.9,16.3,35.5z M33.2,41l0.6,1 H14.2l0.6-1H33.2z M17.5,25c1.4,0,2.5,1.1,2.5,2.5S18.9,30,17.5,30S15,28.9,15,27.5S16.1,25,17.5,25z M18,2c0,0.6,0.4,1,1,1h10 c0.6,0,1-0.4,1-1s-0.4-1-1-1H19C18.4,1,18,1.4,18,2z M30.5,25c1.4,0,2.5,1.1,2.5,2.5S31.9,30,30.5,30S28,28.9,28,27.5 S29.1,25,30.5,25z"/>
</svg>
