<svg xmlns="http://www.w3.org/2000/svg" viewBox="0 0 48 48">
<path d="M44,17h-3V2c0-0.6-0.4-1-1-1h-1c-0.6,0-1,0.4-1,1v15h-3c-0.6,0-1,0.4-1,1v6c0,0.6,0.4,1,1,1h3v21c0,0.6,0.4,1,1,1h1 c0.6,0,1-0.4,1-1V25h3c0.6,0,1-0.4,1-1v-6C45,17.4,44.6,17,44,17z M42,22h-5v-2h5V22z M25,46V36h3c0.6,0,1-0.4,1-1v-6 c0-0.6-0.4-1-1-1h-3V2c0-0.6-0.4-1-1-1h-1c-0.6,0-1,0.4-1,1v26h-3c-0.6,0-1,0.4-1,1v6c0,0.6,0.4,1,1,1h3v10c0,0.6,0.4,1,1,1h1 C24.6,47,25,46.6,25,46z M21,33v-2h5v2H21z M10,46V20h3c0.6,0,1-0.4,1-1v-6c0-0.6-0.4-1-1-1h-3V2c0-0.6-0.4-1-1-1H8C7.4,1,7,1.4,7,2 v10H4c-0.6,0-1,0.4-1,1v6c0,0.6,0.4,1,1,1h3v26c0,0.6,0.4,1,1,1h1C9.6,47,10,46.6,10,46z M6,17v-2h5v2H6z"/>
</svg>
