<svg xmlns="http://www.w3.org/2000/svg" viewBox="0 0 48 48">
<path d="M41.6,9h-18c-0.6,0-1,0.4-1,1v1c0,0.6,0.4,1,1,1h18c0.6,0,1-0.4,1-1v-1C42.6,9.4,42.2,9,41.6,9z M22.6,32c0,0.6,0.4,1,1,1h3 c0.6,0,1-0.4,1-1v-1c0-0.6-0.4-1-1-1h-3c-0.6,0-1,0.4-1,1V32z M14.3,38.4V15l3.2,3c0.3,0.3,0.7,0.3,1,0.1l0.1-0.1l1.2-1.2 c0.3-0.3,0.3-0.7,0.1-1l-0.1-0.1l-6.2-6.2c-0.1-0.1-0.3-0.2-0.4-0.2h-0.1H13c-0.2,0-0.3,0.1-0.4,0.2l-0.1,0.1l-6.2,6.2l-0.1,0.1 c-0.2,0.3-0.2,0.7,0,1L6.3,17l1.2,1l0.1,0.1c0.3,0.2,0.7,0.2,1,0V18l3.3-3v23.4c0,0.4,0.3,0.8,0.8,0.8h0.8 C13.9,39.1,14.3,38.8,14.3,38.4z M36.6,16h-13c-0.6,0-1,0.4-1,1v1c0,0.6,0.4,1,1,1h13c0.6,0,1-0.4,1-1v-1C37.6,16.4,37.2,16,36.6,16 z M23.6,26h8c0.6,0,1-0.4,1-1v-1c0-0.6-0.4-1-1-1h-8c-0.6,0-1,0.4-1,1v1C22.6,25.6,23.1,26,23.6,26z"/>
</svg>
