<svg xmlns="http://www.w3.org/2000/svg" viewBox="0 0 48 48">
<path d="M24,1C11.3,1,1,11.3,1,24s10.3,23,23,23s23-10.3,23-23S36.7,1,24,1z M24,44c-4.9,0-9.5-1.8-12.9-4.7l0.4-0.3l0.7-0.5 l0.7-0.5c0.7-0.6,1.4-1,2-1.4l0.4-0.2l0.2-0.1l0.4-0.2c0.6-0.3,1.1-0.5,1.3-0.5h0.1h0.1h0.1h0.1h0.1l0.2,0.1l0.3,0.1l0.4,0.2 l1.4,0.6c1.6,0.7,2.7,1,4.1,1c1.5,0,2.7-0.4,4.5-1.1l1.1-0.5l0.3-0.1l0.2-0.1l0.3-0.1h0.2h0.1h0.1H31h0.1c0.2,0,0.6,0.2,1.3,0.5 l0.4,0.2l0.2,0.1l0.4,0.2c0.6,0.4,1.3,0.8,2,1.4l0.7,0.5l0.7,0.5l0.4,0.3C33.5,42.2,28.9,44,24,44z M39.1,37.1L38.9,37l-0.8-0.7 l-0.9-0.7l-0.7-0.5l-0.6-0.4l-0.3-0.2l-0.5-0.3c-1.7-1.1-3-1.6-4.1-1.6c-0.1,0-0.2,0-0.3,0h-0.3h-0.3c-0.1,0-0.1,0-0.2,0l-0.2,0.1 c-0.2,0-0.3,0.1-0.5,0.2L28.9,33l-0.5,0.2L27,33.8c-1.2,0.5-2,0.7-3,0.7s-1.9-0.3-3.3-0.9l-0.3-0.1L19.3,33L19,32.9l-0.4-0.2 c-0.1,0-0.3-0.1-0.4-0.1l-0.2,0c-0.1,0-0.1,0-0.2,0h-0.2c-0.1,0-0.2,0-0.2,0h-0.2h-0.1c-1,0-2.3,0.5-4.1,1.6l-0.5,0.3l-0.3,0.2 l-0.6,0.4L11,35.5c-0.2,0.1-0.4,0.3-0.6,0.5l-0.6,0.5L9,37.2C5.9,33.6,4,29,4,24C4,13,13,4,24,4s20,9,20,20 C44,29,42.1,33.6,39.1,37.1z M24,12.5c-4.7,0-8.5,3.8-8.5,8.5s3.8,8.5,8.5,8.5s8.5-3.8,8.5-8.5S28.7,12.5,24,12.5z M24,26.5 c-3,0-5.5-2.5-5.5-5.5s2.5-5.5,5.5-5.5s5.5,2.5,5.5,5.5S27,26.5,24,26.5z"/>
</svg>
