<svg xmlns="http://www.w3.org/2000/svg" viewBox="0 0 550 370">
  <path d="M21.6 368s19.3-7.2 28.2-10.3c7.8-2.8 24.3-8.7 47.3-8.9 18.1-.1 31.3 6.5 49.3 4 11.7-1.5 33.9-8.1 55.3-8 24.2.2 27.6 4.4 48 1.8 19.2-2.5 36.6-5.7 57.6 4.9 20.1 10.2 48.4 5.6 61 3 13-2.7 37.1-3.8 59-3 20.9.7 45.8 7.8 66 8 18.1.1 48.1-2.1 53.7-3.9 1.2-28.7-4.8-53.9-5.3-58.1-4.3-23.6-6.2-52-5.8-65 .4-9.5 4.4-58.3 5.8-67.4 1.1-9.8 4.8-49.7 4.7-86.5-.1-22.1-3.9-57.5-7.2-66.9 0 0-12.9 5.3-31.9 7.4-27.9 2.8-42.7 0-55.1-2.8-14.8-3.3-49.2-2.4-79.3 1-32.2 3.8-40.3 1.4-47.5.3-17.6-2.7-30.3-12.9-56.4-12.4-8.2.1-24.7 1.6-31.6 1.9-11.8.4-31.8-4.7-43.4-5.1-7-.2-13.8 1.3-21 2.7-7.5 1.4-19.7 4.1-37 4.7-17.4.7-24.3-.6-32.6-1.9C94.1 6.2 78 4.6 61.5 5.3c-22 .8-58.7 10-58.7 10 4 11.5 17.2 50.8 22.1 75.8 3.1 16.2 9 43.6 11 64.2 1.8 19.3 3.7 41.9 2.7 62-.2 7.6-.7 17.9-1.2 25.4-1 17.9-3.4 37.1-5 49-2 15.1-7.8 61.8-10.8 76.3" fill="#fff"/>
  <path fill="#e41f1f" d="M489.8 64.8c-17.4.1-42.4-5.4-53.4-6.7-9.7-1.3-44.2-1.3-53.9-.2-13.7 1.5-36.3 4-53.4 2.3-16.8-1.6-35.9-10.9-48.8-13.4-10.2-1.8-31.4 1-43 2-11.7 1-30.4-4.3-46.1-4.1-23.4.3-40.5 7.4-58.7 7.2-13.6-.1-29.1-2.6-36.6-3.6-18.4-2.7-30.1-1.7-45.1.3a264 264 0 0 0-22.3 4.2c3.8 12.7 7.9 27.8 10.6 40.7 3.3 15.7 7.9 43.1 9.8 63.1 1.9 18.7 3.7 40.6 2.8 60.3-.3 7.2-.7 17.2-1.3 24.6-1.1 17.4-2.9 32.5-4.3 44.1-.7 5.4-1.5 15.3-2.6 27.1 6.8-2 19-5.3 25.7-6.4 9.4-1.3 29.5-4.5 39.6-3.2 7.6.8 18.1 4.3 33.6 4.3 15.4 0 36.6-5.2 50.2-6.3 14.9-1.5 23.9-.9 37.2.8 6.8.8 18.6.2 24.9-.5 7.4-1 24.4-4 37.1-1.5 16.4 3.3 31 12.3 46.7 12.3 12.5 0 19.9-.2 31.6-1.7 11.6-1.5 34.3-5.4 53.9-4.6 19.8.6 42.9 6 66 8.3 21.7 2.1 35.4-.1 40.8-1.4-.7-4.7-1.6-9.3-2.4-13.4-4-22.9-5.3-58.1-4.7-68.3.4-9.2 4.9-57.2 6.2-65.8 1.2-9.6 4.9-47.9 3.9-83.6-.3-8.6-.6-16-.9-22.4-6.9 1.8-22.7 5.2-43.1 5.5z"/>
  <path fill="#004b91" d="M49.4 34.5c16.8-2.5 36.8-2.3 46.2-1.1 7.3.9 20.4 3.9 33.9 4.1 20 .7 47.4-6.7 60.7-7.2 15.9-.6 32 4.5 44.7 4.3 11.6-.4 32.7-3.6 43.2-2.1 13.6 2.1 31.1 11.4 50 14.1 17.6 2.5 40.2-.7 49.9-1.8 14.7-1.8 46.6-2.7 57-1.1 11 1.8 35 6.7 52.3 6.5 24.3-.1 38.4-3.3 44.2-5.1-1.1-10.5-2.2-15.5-2.2-15.5s-10.2 2.9-28.7 4.9c-27.2 2.8-42.2-1.8-54.2-4.5-14.4-3.3-47.9-2.5-77.2.9-31.3 3.7-39.6.7-46.6-.4-17.2-2.8-29.5-12.5-55.1-12.1-7.9.1-24.1 1.6-30.7 1.8-11.6.4-31-4.6-42.2-4.8-6.8-.2-13.4 1.1-20.5 2.5s-19.1 4-35.8 4.5c-16.8.6-23.7-.5-31.8-1.8-9.2-1.3-26.6-3.2-42.7-2.2C46 19.4 20 25.1 20 25.1s2 5.9 4.6 14.6c4.8-1.4 13.7-3.7 24.8-5.2zm439 294.5c-25.6-2-48.6-7.1-66.2-8-20.7-1.1-41.8 2.4-53.6 4-13.1 1.7-20.5 1.4-33.1 1.4-15.8 0-25.6-7.7-42-11.1-12.7-2.6-31.5-.2-39 .8-6.2.9-19.3 1.2-26 .4-13.3-1.6-17.2-2.2-32-1.3-20.1 1.2-37 7.1-52.6 7.1-15.6 0-24.6-3.5-36.8-4.4-12.4-.9-29.4 1.8-38.8 3.2-8.1 1.2-20.2 4.9-26.7 7.2-1.2 9.2-2.4 17.7-2.4 17.7s7.7-2.7 15.2-5.4c7.5-2.9 26.6-6.9 45.7-7 17.5 0 29.3 6.7 46.8 4.2 11.3-1.5 33.4-8.3 54.2-8.2 23.5.1 26.9 4.4 46.6 1.8 18.5-2.4 42.5-4.8 62.6 5.3 19.3 9.7 42.8 4.6 54.2 3.4 11.1-1.3 37.5-4.6 56.7-4 20.1.5 46.3 7.2 65.6 8 17.5.7 41.6-1.3 46.5-2.2.5-4.3.1-9.5-.3-15-4.1.9-19.5 4-44.6 2.1z"/>
  <path d="M295.5 126.8s14.2 0 18.1.2c4 .2 20.1.3 20.1.3s0-18.4-.5-21.4-2-14.1-11.6-19.9c-7.6-4.8-26.5-7.5-44.6-7.5-13.1 0-30.5 2.4-40.1 8.9-4.6 2.9-8.7 6.5-11.4 15.2-3.2 10.2-2.6 26-2.4 29.3.1 3.4.6 12.5 3.8 18.2 4.6 7.8 10.4 11.4 21.1 18 10.6 6.5 32.3 17.9 37.4 20.7 5.1 2.8 7.7 7.3 8.1 12 .4 3.6 1.2 19 .5 26.2-.5 7.2-1.6 11.2-5.2 12.8-4.1 1.9-10.8 1.9-16.6.7-7.1-1.5-7.4-8.3-7.5-12.5 0-4.4-.2-13.2-.2-13.2l-42.6.2s.2 22.1.5 25.8c.3 3.4 1.3 14.9 7.9 22.2 6.7 7.4 13.3 11.7 26.3 11.1 12.8-.6 19-1.7 25.2-1.6 8.5.2 14.9 2.9 23.8 1.6 9-1.1 20.5-5 26.4-18.1 4.5-9.6 4.1-17.5 4.5-23.5.4-5.9.5-31.5.5-34.8-.3-11.4-2.8-18.4-10.6-25.3-12.5-10.8-49.3-28.2-55.8-35.1-4-4.1-4.4-10.2-4.3-13.6.2-4.4-.2-10.5 5.7-12.4 6.9-2.4 16.3-1.3 19.2.6 3 2.1 3.2 5 3.6 7 .7 1.8.7 7.9.7 7.9z" fill="#fff"/>
</svg>
