<?xml version="1.0" encoding="utf-8"?>
<!-- Generator: Adobe Illustrator 24.2.3, SVG Export Plug-In . SVG Version: 6.00 Build 0)  -->
<svg version="1.1" xmlns="http://www.w3.org/2000/svg" x="0px" y="0px"
     viewBox="0 0 550 370" style="enable-background:new 0 0 550 370;" xml:space="preserve">
	<g>
		<path fill="#FFFFFF" d="M21.6,368c0,0,19.3-7.2,28.2-10.3c7.8-2.8,24.3-8.7,47.3-8.9c18.1-0.1,31.3,6.5,49.3,4
			c11.7-1.5,33.9-8.1,55.3-8c24.2,0.2,27.6,4.4,48,1.8c19.2-2.5,36.6-5.7,57.6,4.9c20.1,10.2,48.4,5.6,61,3c13-2.7,37.1-3.8,59-3
			c20.9,0.7,45.8,7.8,66,8c18.1,0.1,48.1-2.1,53.7-3.9c1.2-28.7-4.8-53.9-5.3-58.1c-4.3-23.6-6.2-52-5.8-65
			c0.4-9.5,4.4-58.3,5.8-67.4c1.1-9.8,4.8-49.7,4.7-86.5c-0.1-22.1-3.9-57.5-7.2-66.9c0,0-12.9,5.3-31.9,7.4
			c-27.9,2.8-42.7,0-55.1-2.8c-14.8-3.3-49.2-2.4-79.3,1c-32.2,3.8-40.3,1.4-47.5,0.3c-17.6-2.7-30.3-12.9-56.4-12.4
			c-8.2,0.1-24.7,1.6-31.6,1.9C225.6,7.5,205.6,2.4,194,2c-7-0.2-13.8,1.3-21,2.7c-7.5,1.4-19.7,4.1-37,4.7
			c-17.4,0.7-24.3-0.6-32.6-1.9C94.1,6.2,78,4.6,61.5,5.3c-22,0.8-58.7,10-58.7,10c4,11.5,17.2,50.8,22.1,75.8
			c3.1,16.2,9,43.6,11,64.2c1.8,19.3,3.7,41.9,2.7,62c-0.2,7.6-0.7,17.9-1.2,25.4c-1,17.9-3.4,37.1-5,49
			C30.4,306.8,24.6,353.5,21.6,368"/>
    <path fill="#E41F1F" d="M489.8,64.8c-17.4,0.1-42.4-5.4-53.4-6.7c-9.7-1.3-44.2-1.3-53.9-0.2c-13.7,1.5-36.3,4-53.4,2.3
			c-16.8-1.6-35.9-10.9-48.8-13.4c-10.2-1.8-31.4,1-43,2c-11.7,1-30.4-4.3-46.1-4.1c-23.4,0.3-40.5,7.4-58.7,7.2
			c-13.6-0.1-29.1-2.6-36.6-3.6c-18.4-2.7-30.1-1.7-45.1,0.3c-9.6,1.4-17.2,3-22.3,4.2c3.8,12.7,7.9,27.8,10.6,40.7
			c3.3,15.7,7.9,43.1,9.8,63.1c1.9,18.7,3.7,40.6,2.8,60.3c-0.3,7.2-0.7,17.2-1.3,24.6c-1.1,17.4-2.9,32.5-4.3,44.1
			c-0.7,5.4-1.5,15.3-2.6,27.1c6.8-2,19-5.3,25.7-6.4c9.4-1.3,29.5-4.5,39.6-3.2c7.6,0.8,18.1,4.3,33.6,4.3
			c15.4,0,36.6-5.2,50.2-6.3c14.9-1.5,23.9-0.9,37.2,0.8c6.8,0.8,18.6,0.2,24.9-0.5c7.4-1,24.4-4,37.1-1.5
			c16.4,3.3,31,12.3,46.7,12.3c12.5,0,19.9-0.2,31.6-1.7c11.6-1.5,34.3-5.4,53.9-4.6c19.8,0.6,42.9,6,66,8.3
			c21.7,2.1,35.4-0.1,40.8-1.4c-0.7-4.7-1.6-9.3-2.4-13.4c-4-22.9-5.3-58.1-4.7-68.3c0.4-9.2,4.9-57.2,6.2-65.8
			c1.2-9.6,4.9-47.9,3.9-83.6c-0.3-8.6-0.6-16-0.9-22.4C526,61.1,510.2,64.5,489.8,64.8z"/>
    <path fill="#004B91" d="M49.4,34.5c16.8-2.5,36.8-2.3,46.2-1.1c7.3,0.9,20.4,3.9,33.9,4.1c20,0.7,47.4-6.7,60.7-7.2
			c15.9-0.6,32,4.5,44.7,4.3c11.6-0.4,32.7-3.6,43.2-2.1c13.6,2.1,31.1,11.4,50,14.1c17.6,2.5,40.2-0.7,49.9-1.8
			c14.7-1.8,46.6-2.7,57-1.1c11,1.8,35,6.7,52.3,6.5c24.3-0.1,38.4-3.3,44.2-5.1c-1.1-10.5-2.2-15.5-2.2-15.5s-10.2,2.9-28.7,4.9
			c-27.2,2.8-42.2-1.8-54.2-4.5c-14.4-3.3-47.9-2.5-77.2,0.9c-31.3,3.7-39.6,0.7-46.6-0.4c-17.2-2.8-29.5-12.5-55.1-12.1
			c-7.9,0.1-24.1,1.6-30.7,1.8c-11.6,0.4-31-4.6-42.2-4.8c-6.8-0.2-13.4,1.1-20.5,2.5c-7.1,1.4-19.1,4-35.8,4.5
			c-16.8,0.6-23.7-0.5-31.8-1.8c-9.2-1.3-26.6-3.2-42.7-2.2c-17.8,1-43.8,6.7-43.8,6.7S22,31,24.6,39.7C29.4,38.3,38.3,36,49.4,34.5
			z"/>
    <path fill="#004B91" d="M488.4,329c-25.6-2-48.6-7.1-66.2-8c-20.7-1.1-41.8,2.4-53.6,4c-13.1,1.7-20.5,1.4-33.1,1.4
			c-15.8,0-25.6-7.7-42-11.1c-12.7-2.6-31.5-0.2-39,0.8c-6.2,0.9-19.3,1.2-26,0.4c-13.3-1.6-17.2-2.2-32-1.3
			c-20.1,1.2-37,7.1-52.6,7.1c-15.6,0-24.6-3.5-36.8-4.4c-12.4-0.9-29.4,1.8-38.8,3.2c-8.1,1.2-20.2,4.9-26.7,7.2
			c-1.2,9.2-2.4,17.7-2.4,17.7s7.7-2.7,15.2-5.4c7.5-2.9,26.6-6.9,45.7-7c17.5,0,29.3,6.7,46.8,4.2c11.3-1.5,33.4-8.3,54.2-8.2
			c23.5,0.1,26.9,4.4,46.6,1.8c18.5-2.4,42.5-4.8,62.6,5.3c19.3,9.7,42.8,4.6,54.2,3.4c11.1-1.3,37.5-4.6,56.7-4
			c20.1,0.5,46.3,7.2,65.6,8c17.5,0.7,41.6-1.3,46.5-2.2c0.5-4.3,0.1-9.5-0.3-15C528.9,327.8,513.5,330.9,488.4,329z"/>
    <path fill="#FFFFFF" d="M295.5,126.8c0,0,14.2,0,18.1,0.2c4,0.2,20.1,0.3,20.1,0.3s0-18.4-0.5-21.4c-0.5-3-2-14.1-11.6-19.9
			c-7.6-4.8-26.5-7.5-44.6-7.5c-13.1,0-30.5,2.4-40.1,8.9c-4.6,2.9-8.7,6.5-11.4,15.2c-3.2,10.2-2.6,26-2.4,29.3
			c0.1,3.4,0.6,12.5,3.8,18.2c4.6,7.8,10.4,11.4,21.1,18c10.6,6.5,32.3,17.9,37.4,20.7c5.1,2.8,7.7,7.3,8.1,12
			c0.4,3.6,1.2,19,0.5,26.2c-0.5,7.2-1.6,11.2-5.2,12.8c-4.1,1.9-10.8,1.9-16.6,0.7c-7.1-1.5-7.4-8.3-7.5-12.5
			c0-4.4-0.2-13.2-0.2-13.2l-42.6,0.2c0,0,0.2,22.1,0.5,25.8c0.3,3.4,1.3,14.9,7.9,22.2c6.7,7.4,13.3,11.7,26.3,11.1
			c12.8-0.6,19-1.7,25.2-1.6c8.5,0.2,14.9,2.9,23.8,1.6c9-1.1,20.5-5,26.4-18.1c4.5-9.6,4.1-17.5,4.5-23.5
			c0.4-5.9,0.5-31.5,0.5-34.8c-0.3-11.4-2.8-18.4-10.6-25.3c-12.5-10.8-49.3-28.2-55.8-35.1c-4-4.1-4.4-10.2-4.3-13.6
			c0.2-4.4-0.2-10.5,5.7-12.4c6.9-2.4,16.3-1.3,19.2,0.6c3,2.1,3.2,5,3.6,7C295.5,120.7,295.5,126.8,295.5,126.8z"/>
	</g>
</svg>
