<svg width="80" height="80" viewBox="0 0 80 80" fill="none" xmlns="http://www.w3.org/2000/svg">
<path fill-rule="evenodd" clip-rule="evenodd" d="M53.1 47.2998C53.6 47.2998 54 47.6998 54 48.1998V61.7998C54 62.2998 53.6 62.6998 53.1 62.6998C52.6 62.6998 52.2001 62.2998 52.2001 61.7998V48.1998C52.2001 47.6998 52.6 47.2998 53.1 47.2998ZM27.1 28.9998C27.9 28.9998 28.5001 29.5998 28.7001 30.2998L29.5 34.3998L32 47.2998H44.7001C46.8001 47.2998 48.5 48.9998 48.5 51.0998V61.6998C48.5 62.1998 48.1 62.5998 47.6 62.5998C47.1 62.5998 46.7001 62.1998 46.7001 61.6998V57.0998H23.1V61.6998C23.1 62.1998 22.7001 62.5998 22.2001 62.5998C21.7001 62.5998 21.3 62.1998 21.3 61.6998V32.6998C21.3 30.5998 23.0001 28.8998 25.1 28.8998H27.1V28.9998ZM26.9 30.7998H25.1C24 30.7998 23.1 31.6998 23.1 32.7998V55.4998H46.7001V51.1998C46.7001 50.0998 45.8001 49.1998 44.7001 49.1998H31.9C31.1 49.1998 30.5 48.6998 30.3 47.8998L27.7001 34.8998L26.9 30.7998ZM33.5 29.0998C35.3 29.0998 36.8001 30.3998 37.2001 32.0998L39.2001 41.3998C39.3001 41.5998 39.5001 41.7998 39.7001 41.7998L51.6 40.9998C52.8 40.8998 53.9001 41.3998 54.7001 42.1998L63.7001 52.0998C64.0001 52.4998 64 52.9998 63.6 53.3998C63.4 53.5998 63.2 53.5998 63 53.5998C62.8 53.5998 62.5 53.4998 62.3 53.2998L53.3 43.3998C52.9 42.8998 52.3001 42.6998 51.7001 42.7998L39.7001 43.5998C38.6001 43.5998 37.6001 42.7998 37.4001 41.6998L35.4001 32.3998C35.2001 31.4998 34.4001 30.7998 33.4001 30.7998H32.1C31.6 30.7998 31.2001 30.3998 31.2001 29.8998C31.2001 29.3998 31.6 28.9998 32.1 28.9998H33.5V29.0998ZM34.9001 17.2998C37.4001 17.2998 39.4001 19.2998 39.4001 21.7998C39.4001 24.2998 37.4001 26.2998 34.9001 26.2998C32.4001 26.2998 30.4 24.2998 30.4 21.7998C30.4 19.2998 32.4001 17.2998 34.9001 17.2998ZM34.9001 19.0998C33.4001 19.0998 32.2001 20.2998 32.2001 21.7998C32.2001 23.2998 33.4001 24.4998 34.9001 24.4998C36.4001 24.4998 37.6 23.2998 37.6 21.7998C37.7 20.3998 36.5001 19.0998 34.9001 19.0998Z" fill="black"/>
</svg>
