<svg width="80" height="80" viewBox="0 0 80 80" fill="none" xmlns="http://www.w3.org/2000/svg">
<path d="M32.3 36.9C32.4 36.9 32.5 36.9 32.6 36.8L42.6 32.8C43.1 32.6 43.3 32.1 43.1 31.6C42.9 31.2 42.4 30.9 42 31.1L32 35.1C31.5 35.3 31.3 35.8 31.5 36.3C31.6 36.6 31.9 36.9 32.3 36.9Z" fill="#1D1D1B"/>
<path d="M63.2999 53C63.1999 51.2 61.6999 49.7 59.8999 49.5L53.1999 48.8H52.9999L52.0999 42.6C51.8999 40.8 50.8999 39.2 49.3999 38.1C47.9999 37 46.1999 36.6 44.3999 36.9L30.1999 39L26.3999 26.7C28.8999 25.9 30.2999 23.3 29.5999 20.8C28.7999 18.3 26.1999 16.9 23.6999 17.6C23.4999 17.7 23.1999 17.8 22.9999 17.9C22.1999 17.2 21.0999 16.9 19.9999 17.1L18.1999 17.4C17.3999 17.6 16.7999 18.4 16.8999 19.2L20.3999 42.3C20.0999 43 20.0999 43.8 20.2999 44.6L23.1999 56L20.5999 61.2C20.3999 61.6 20.5999 62.2 20.9999 62.4C21.0999 62.5 21.2999 62.5 21.3999 62.5C21.6999 62.5 22.0999 62.3 22.1999 62L24.6999 57H61.8999L62.2999 61.7C62.2999 62.2 62.6999 62.5 63.1999 62.5H63.2999C63.7999 62.5 64.1999 62 64.0999 61.5L63.2999 53ZM25.4999 19.5C27.0999 19.9 27.9999 21.6 27.5999 23.2C27.3999 24.1 26.7999 24.8 25.9999 25.1L24.3999 19.9C24.3999 19.8 24.2999 19.7 24.2999 19.5C24.6999 19.4 25.0999 19.4 25.4999 19.5ZM18.7999 19.3L20.3999 19C21.3999 18.8 22.3999 19.4 22.6999 20.4L28.5999 39.4L23.5999 40.2C23.0999 40.3 22.5999 40.5 22.0999 40.7L18.7999 19.3ZM22.0999 44.4C21.9999 43.8 22.0999 43.2 22.3999 42.8C22.6999 42.3 23.1999 42 23.7999 41.9L44.7999 38.7C46.0999 38.5 47.3999 38.8 48.4999 39.6C49.5999 40.4 50.2999 41.6 50.4999 42.9L52.1999 55.2H24.7999L22.0999 44.4ZM53.8999 55.2L53.1999 50.6L59.6999 51.3C60.6999 51.4 61.3999 52.2 61.4999 53.1L61.6999 55.2H53.8999Z" fill="#1D1D1B"/>
</svg>
