<svg width="80" height="80" viewBox="0 0 80 80" fill="none" xmlns="http://www.w3.org/2000/svg">
<path fill-rule="evenodd" clip-rule="evenodd" d="M53.3 13.3V65.7C53.3 66.2 52.9 66.6 52.4 66.6C51.9 66.6 51.5 66.2 51.5 65.7V39.7001L48.4 38.3C46.5 37.5 45.3 35.5001 45.3 33.4001V20.7C45.3 16.6 48.5 13.4 52.4 13.4H53.3V13.3ZM35.6 14.3C36.1 14.3 36.5 14.7 36.5 15.2V29.1C36.5 30.1 36.1 31.0001 35.3 31.7001L35 31.8C33.8 32.7 32.4 33.3001 31 33.5001V65.8001C31 66.3001 30.6 66.7 30.1 66.7C29.6 66.7 29.2 66.3001 29.2 65.8001V33.5001C27.6 33.4001 26.1 32.7 24.9 31.6C24.4 31 24 30.1 24 29.1V15.1C24 14.6 24.4 14.2 24.9 14.2C25.4 14.2 25.8 14.6 25.8 15.1V29.1C25.8 29.5 26 29.9001 26.3 30.2001C28.3 32.1001 31.5 32.2 34 30.3L34.2 30.2001C34.5 29.9001 34.7 29.5 34.7 29.1V15.2C34.7 14.7 35.1 14.3 35.6 14.3ZM51.6 15.2C49.1 15.6 47.1 17.9 47.1 20.7V33.4001C47.1 34.8001 47.9 36.1 49.2 36.6L51.6 37.7001V15.2ZM30.2 14.3C30.7 14.3 31.1 14.7 31.1 15.2V28C31.1 28.5 30.7 28.9 30.2 28.9C29.7 28.9 29.3 28.5 29.3 28V15.2C29.3 14.7 29.7 14.3 30.2 14.3Z" fill="black"/>
</svg>
