<svg width="80" height="80" viewBox="0 0 80 80" fill="none" xmlns="http://www.w3.org/2000/svg">
<path fill-rule="evenodd" clip-rule="evenodd" d="M14.6701 28.47C14.8771 28.4704 15.077 28.5455 15.2332 28.6814C15.3893 28.8173 15.4912 29.005 15.5201 29.21V33.8H23.0001C24.5824 33.8101 26.1215 34.3176 27.3993 35.2509C28.6772 36.1842 29.629 37.4958 30.1201 39L30.2201 39.31L31.3201 43.18H64.4701V40C64.4696 39.5524 64.3023 39.121 64.0009 38.7901C63.6996 38.4591 63.2857 38.2523 62.8401 38.21H36.0001C35.7693 38.21 35.548 38.1184 35.3849 37.9552C35.2217 37.7921 35.1301 37.5708 35.1301 37.34C35.1304 37.133 35.2055 36.9331 35.3414 36.7769C35.4774 36.6208 35.6651 36.5189 35.8701 36.49H62.6701C63.5676 36.4908 64.4312 36.8335 65.0851 37.4484C65.739 38.0633 66.1341 38.9042 66.1901 39.8V50.67C66.206 50.8981 66.1306 51.1232 65.9806 51.2957C65.8306 51.4682 65.6181 51.5741 65.3901 51.59C65.162 51.6059 64.9369 51.5306 64.7644 51.3806C64.5918 51.2305 64.486 51.0181 64.4701 50.79V44.87H15.5301V50.67C15.5379 50.783 15.5235 50.8963 15.4876 51.0037C15.4516 51.1111 15.3949 51.2103 15.3206 51.2957C15.2463 51.3811 15.1559 51.4511 15.0546 51.5016C14.9533 51.5521 14.843 51.5821 14.7301 51.59C14.6171 51.5979 14.5037 51.5835 14.3964 51.5475C14.289 51.5116 14.1898 51.4549 14.1044 51.3806C14.0189 51.3063 13.949 51.2159 13.8985 51.1146C13.848 51.0132 13.8179 50.903 13.8101 50.79V29.33C13.8101 29.2162 13.8326 29.1036 13.8765 28.9986C13.9203 28.8936 13.9846 28.7983 14.0655 28.7184C14.1464 28.6384 14.2424 28.5752 14.3479 28.5326C14.4534 28.49 14.5663 28.4687 14.6801 28.47H14.6701ZM15.5301 43.13H29.5301L28.5301 39.74C28.1955 38.5744 27.5045 37.5427 26.5541 36.7895C25.6036 36.0363 24.4413 35.5994 23.2301 35.54H15.5301V43.13Z" fill="#333333"/>
</svg>
