<?xml version="1.0" encoding="UTF-8"?>
<svg width="24px" height="24px" viewBox="0 0 24 24" version="1.1" xmlns="http://www.w3.org/2000/svg" xmlns:xlink="http://www.w3.org/1999/xlink">
    <title>angle-right-double</title>
    <g id="angle-right-double" stroke="none" stroke-width="1" fill="none" fill-rule="evenodd">
        <path d="M12.9571068,6.79289322 L17.7071068,11.5428932 C18.0976311,11.9334175 18.0976311,12.5665825 17.7071068,12.9571068 L12.9571068,17.7071068 C12.5665825,18.0976311 11.9334175,18.0976311 11.5428932,17.7071068 C11.1523689,17.3165825 11.1523689,16.6834175 11.5428932,16.2928932 L15.58575,12.25 L11.5428932,8.20710678 C11.1653864,7.82959997 11.1528028,7.22535891 11.5051425,6.83273648 L11.5428932,6.79289322 C11.9334175,6.40236893 12.5665825,6.40236893 12.9571068,6.79289322 Z M8.20710678,6.79289322 L12.9571068,11.5428932 C13.3476311,11.9334175 13.3476311,12.5665825 12.9571068,12.9571068 L8.20710678,17.7071068 C7.81658249,18.0976311 7.18341751,18.0976311 6.79289322,17.7071068 C6.40236893,17.3165825 6.40236893,16.6834175 6.79289322,16.2928932 L10.83575,12.25 L6.79289322,8.20710678 C6.4153864,7.82959997 6.40280284,7.22535891 6.75514254,6.83273648 L6.79289322,6.79289322 C7.18341751,6.40236893 7.81658249,6.40236893 8.20710678,6.79289322 Z" id="Shape" fill="#0D0E10" fill-rule="nonzero"></path>
    </g>
</svg>