<?xml version="1.0" encoding="UTF-8"?>
<svg width="24px" height="24px" viewBox="0 0 24 24" version="1.1" xmlns="http://www.w3.org/2000/svg" xmlns:xlink="http://www.w3.org/1999/xlink">
    <title>arrow-path</title>
    <g id="arrow-path" stroke="none" stroke-width="1" fill="none" fill-rule="evenodd">
        <path d="M9,1 C10.6568542,1 12,2.34314575 12,4 L12,6 C12,6.04224175 11.9973809,6.08387177 11.9922961,6.12473652 C13.7216399,6.56565679 15,8.13353989 15,10 C15,12.209139 13.209139,14 11,14 C8.790861,14 7,12.209139 7,10 C7,8.13353989 8.27836013,6.56565679 10.00728,6.12415108 L10,6 L10,4 C10,3.44771525 9.55228475,3 9,3 L4.02772643,3 C3.47033739,3 3.01848429,3.44771525 3.01848429,4 L3.01848429,17 C3.01848429,17.5522847 3.47033739,18 4.02772643,18 L19.7021072,18.0015 L18.430842,16.7071068 C18.0734091,16.3371364 18.0545969,15.7493943 18.3744052,15.3565006 L18.430842,15.2928932 C18.8081323,14.9023689 19.4198406,14.9023689 19.7971309,15.2928932 L22.7170323,18.2928932 C23.0943226,18.6834175 23.0943226,19.3165825 22.7170323,19.7071068 L19.7971309,22.7071068 C19.4198406,23.0976311 18.8081323,23.0976311 18.430842,22.7071068 C18.0535517,22.3165825 18.0535517,21.6834175 18.430842,21.2928932 L19.7023534,19.999205 L4.02772643,20 C2.3555593,20 1,18.6568542 1,17 L1,4 C1,2.34314575 2.3555593,1 4.02772643,1 L9,1 Z M11,8 C9.8954305,8 9,8.8954305 9,10 C9,11.1045695 9.8954305,12 11,12 C12.1045695,12 13,11.1045695 13,10 C13,8.8954305 12.1045695,8 11,8 Z" id="Shape" fill="#0D0E10" fill-rule="nonzero"></path>
    </g>
</svg>