<?xml version="1.0" encoding="UTF-8"?>
<svg width="24px" height="24px" viewBox="0 0 24 24" version="1.1" xmlns="http://www.w3.org/2000/svg" xmlns:xlink="http://www.w3.org/1999/xlink">
    <title>arrow-left</title>
    <g id="arrow-left" stroke="none" stroke-width="1" fill="none" fill-rule="evenodd">
        <path d="M18.3076923,13 C18.8599771,13 19.3076923,12.5522847 19.3076923,12 C19.3076923,11.4477153 18.8599771,11 18.3076923,11 L7.80769231,11 L7.76769231,11.0015 L10.0273159,8.70710678 C10.3814756,8.3371364 10.4001156,7.74939432 10.0832358,7.3565006 L10.0273159,7.29289322 C9.65348067,6.90236893 9.04737403,6.90236893 8.67353881,7.29289322 L4.78037641,11.2928932 C4.4065412,11.6834175 4.4065412,12.3165825 4.78037641,12.7071068 L8.67353881,16.7071068 C9.04737403,17.0976311 9.65348067,17.0976311 10.0273159,16.7071068 C10.4011511,16.3165825 10.4011511,15.6834175 10.0273159,15.2928932 L7.76744841,12.999205 L18.3076923,13 Z" id="Path" fill="#0D0E10" fill-rule="nonzero"></path>
    </g>
</svg>