<?xml version="1.0" encoding="UTF-8"?>
<svg width="24px" height="24px" viewBox="0 0 24 24" version="1.1" xmlns="http://www.w3.org/2000/svg" xmlns:xlink="http://www.w3.org/1999/xlink">
    <title>arrow-circle-up</title>
    <g id="arrow-circle-up" stroke="none" stroke-width="1" fill="none" fill-rule="evenodd">
        <path d="M12,0 C18.627417,0 24,5.372583 24,12 C24,18.627417 18.627417,24 12,24 C5.372583,24 0,18.627417 0,12 C0,5.372583 5.372583,0 12,0 Z M12,2 C6.4771525,2 2,6.4771525 2,12 C2,17.5228475 6.4771525,22 12,22 C17.5228475,22 22,17.5228475 22,12 C22,6.4771525 17.5228475,2 12,2 Z M12.8609529,6.62653026 L16.8609529,10.5196927 C17.2514772,10.8935279 17.2514772,11.4996345 16.8609529,11.8734697 C16.4704286,12.247305 15.8372637,12.247305 15.4467394,11.8734697 L13.1530512,9.61360225 L13.1538462,16.6538462 C13.1538462,17.2061309 12.7061309,17.6538462 12.1538462,17.6538462 C11.6015614,17.6538462 11.1538462,17.2061309 11.1538462,16.6538462 L11.1538462,9.65384615 L11.1553462,9.61384615 L8.86095294,11.8734697 C8.49098255,12.2276294 7.90324047,12.2462694 7.51034676,11.9293897 L7.44673937,11.8734697 C7.05621508,11.4996345 7.05621508,10.8935279 7.44673937,10.5196927 L11.4467394,6.62653026 C11.8372637,6.25269504 12.4704286,6.25269504 12.8609529,6.62653026 Z" id="Shape" fill="#0D0E10" fill-rule="nonzero"></path>
    </g>
</svg>