<?xml version="1.0" encoding="UTF-8"?>
<svg width="24px" height="24px" viewBox="0 0 24 24" version="1.1" xmlns="http://www.w3.org/2000/svg" xmlns:xlink="http://www.w3.org/1999/xlink">
    <title>arrow-right</title>
    <g id="arrow-right" stroke="none" stroke-width="1" fill="none" fill-rule="evenodd">
        <path d="M5.5,13 C4.94771525,13 4.5,12.5522847 4.5,12 C4.5,11.4477153 4.94771525,11 5.5,11 L16,11 L16.04,11.0015 L13.7803764,8.70710678 C13.4262167,8.3371364 13.4075767,7.74939432 13.7244565,7.3565006 L13.7803764,7.29289322 C14.1542116,6.90236893 14.7603183,6.90236893 15.1341535,7.29289322 L19.0273159,11.2928932 C19.4011511,11.6834175 19.4011511,12.3165825 19.0273159,12.7071068 L15.1341535,16.7071068 C14.7603183,17.0976311 14.1542116,17.0976311 13.7803764,16.7071068 C13.4065412,16.3165825 13.4065412,15.6834175 13.7803764,15.2928932 L16.0402439,12.999205 L5.5,13 Z" id="Path" fill="#0D0E10" fill-rule="nonzero"></path>
    </g>
</svg>