<?xml version="1.0" encoding="UTF-8"?>
<svg width="24px" height="24px" viewBox="0 0 24 24" version="1.1" xmlns="http://www.w3.org/2000/svg" xmlns:xlink="http://www.w3.org/1999/xlink">
    <title>business-article</title>
    <g id="business-article" stroke="none" stroke-width="1" fill="none" fill-rule="evenodd">
        <path d="M19,0 C20.6256183,0 22,1.34314575 22,3 L22,21 C22,22.6568542 20.6256183,24 19,24 L5,24 C3.3743817,24 2,22.6568542 2,21 L2,3 C2,1.34314575 3.3743817,0 5,0 L19,0 Z M19,2 L5,2 C4.46050711,2 4,2.44771525 4,3 L4,21 C4,21.5522847 4.46050711,22 5,22 L19,22 C19.5394929,22 20,21.5522847 20,21 L20,3 C20,2.44771525 19.5394929,2 19,2 Z" id="Rectangle" fill="#0D0E10" fill-rule="nonzero"></path>
        <path d="M14.1055728,6.5527864 C14.3525621,6.05880791 14.9532351,5.85858356 15.4472136,6.10557281 C15.9411921,6.35256206 16.1414164,6.9532351 15.8944272,7.4472136 C15.0639712,9.1081256 13.7261596,10 12,10 C10.2738404,10 8.93602881,9.1081256 8.10557281,7.4472136 C7.85858356,6.9532351 8.05880791,6.35256206 8.5527864,6.10557281 C9.0467649,5.85858356 9.64743794,6.05880791 9.89442719,6.5527864 C10.3973045,7.55854107 11.0594929,8 12,8 C12.9405071,8 13.6026955,7.55854107 14.1055728,6.5527864 Z" id="Path-7" fill="#0D0E10" fill-rule="nonzero"></path>
    </g>
</svg>