<?xml version="1.0" encoding="UTF-8"?>
<svg width="24px" height="24px" viewBox="0 0 24 24" version="1.1" xmlns="http://www.w3.org/2000/svg" xmlns:xlink="http://www.w3.org/1999/xlink">
    <title>business-claim</title>
    <g id="business-claim" stroke="none" stroke-width="1" fill="none" fill-rule="evenodd">
        <path d="M20.4242641,-0.102553079 C21.9022103,0.108582094 23,1.37434427 23,2.8672954 L22,16.2872099 C22,17.2353031 21.5518313,18.1276006 20.7913031,18.693708 L13.7913031,23.1598734 C12.7281954,23.9512093 11.2718046,23.9512093 10.2086969,23.1598734 L3.20869689,18.693708 C2.44816873,18.1276006 2,17.2353031 2,16.2872099 L1,2.8672954 C1,1.37434427 2.09778972,0.108582094 3.57573593,-0.102553079 L20.4242641,-0.102553079 Z M20.1414214,1.87734591 L3.85857864,1.87734591 C3.36592991,1.9477243 3,2.36964503 3,2.8672954 L4,16.2872099 C4,16.6032409 4.14938958,16.9006734 4.40289896,17.0893759 L11.402899,21.5555413 C11.7218313,21.7929421 12.14695,21.8166822 12.4871196,21.6267616 L19.597101,17.0893759 C19.8506104,16.9006734 20,16.6032409 20,16.2872099 L21,2.8672954 C21,2.36964503 20.6340701,1.9477243 20.1414214,1.87734591 Z M12,15 C12.5522847,15 13,15.4477153 13,16 C13,16.5522847 12.5522847,17 12,17 C11.4477153,17 11,16.5522847 11,16 C11,15.4477153 11.4477153,15 12,15 Z M12,5 C12.5522847,5 13,5.44771525 13,6 L13,12 C13,12.5522847 12.5522847,13 12,13 C11.4477153,13 11,12.5522847 11,12 L11,6 C11,5.44771525 11.4477153,5 12,5 Z" id="Shape" fill="#0D0E10" fill-rule="nonzero"></path>
    </g>
</svg>