<?xml version="1.0" encoding="UTF-8"?>
<svg width="24px" height="24px" viewBox="0 0 24 24" version="1.1" xmlns="http://www.w3.org/2000/svg" xmlns:xlink="http://www.w3.org/1999/xlink">
    <title>clock-filled</title>
    <g id="clock-filled" stroke="none" stroke-width="1" fill="none" fill-rule="evenodd">
        <path d="M12,0.5 C18.3512746,0.5 23.5,5.64872538 23.5,12 C23.5,18.3512746 18.3512746,23.5 12,23.5 C5.64872538,23.5 0.5,18.3512746 0.5,12 C0.5,5.64872538 5.64872538,0.5 12,0.5 Z M12,5 C11.4477153,5 11,5.44771525 11,6 L11,13 C11,13.2652165 11.1053568,13.5195704 11.2928932,13.7071068 L14.2928932,16.7071068 C14.6834175,17.0976311 15.3165825,17.0976311 15.7071068,16.7071068 L15.7902954,16.6128994 C16.0953203,16.2206082 16.0675907,15.6533772 15.7071068,15.2928932 L13,12.585 L13,6 C13,5.44771525 12.5522847,5 12,5 Z" id="Shape" fill="#0D0E10" fill-rule="nonzero"></path>
    </g>
</svg>