<?xml version="1.0" encoding="UTF-8"?>
<svg width="24px" height="24px" viewBox="0 0 24 24" version="1.1" xmlns="http://www.w3.org/2000/svg" xmlns:xlink="http://www.w3.org/1999/xlink">
    <title>cloud-arrow</title>
    <g id="cloud-arrow" stroke="none" stroke-width="1" fill="none" fill-rule="evenodd">
        <path d="M12.2928932,21.7272529 C12.6834175,22.0909157 13.3165825,22.0909157 13.7071068,21.7272529 L16.7071068,18.9400269 C17.0976311,18.576364 17.0976311,17.9867501 16.7071068,17.6230873 L16.6434994,17.5686889 C16.2506057,17.2604318 15.6628636,17.2785646 15.2928932,17.6230873 L13.9985,18.8212245 L14,18.7823129 L14,11.9727891 C14,11.4355325 13.5522847,11 13,11 C12.4477153,11 12,11.4355325 12,11.9727891 L12.000795,18.8214618 L10.7071068,17.6230873 C10.3165825,17.2594244 9.68341751,17.2594244 9.29289322,17.6230873 C8.90236893,17.9867501 8.90236893,18.576364 9.29289322,18.9400269 L12.2928932,21.7272529 Z M9,3 C12.4457212,3 15.4986834,4.95178826 17.0069043,7.88503407 L17.071,8.015 L17.1809677,8.00773842 L17.5,8 C21.0898509,8 24,10.9101491 24,14.5 C24,18.0898509 22,21 19,21 C18.8797997,21 18.7601431,20.9967063 18.6411341,20.9901851 C18.5955574,20.9965932 18.5481765,21 18.5,21 C17.9477153,21 17.5,20.5522847 17.5,20 C17.5,19.4477153 17.9477153,19 18.5,19 L18.5007271,18.9726159 C18.6646595,18.9907108 18.831245,19 19,19 C21,19 22,16.9852814 22,14.5 C22,12.0147186 19.9852814,10 17.5,10 C16.8979587,10 16.3235308,10.1182268 15.8004181,10.3335324 C15.0527818,7.27209128 12.2917286,5 9,5 C5.13400675,5 2,7 2,12 C2,16.893617 4.87369851,18.9135355 6.64540724,18.9934688 L7,19 C7.55228475,19 8,19.4477153 8,20 C8,20.5128358 7.61395981,20.9355072 7.11662113,20.9932723 L7,21 C4,21 0,18 0,12 C0,6 4.02943725,3 9,3 Z" id="Shape" fill="#0D0E10" fill-rule="nonzero"></path>
    </g>
</svg>