<?xml version="1.0" encoding="UTF-8"?>
<svg width="24px" height="24px" viewBox="0 0 24 24" version="1.1" xmlns="http://www.w3.org/2000/svg" xmlns:xlink="http://www.w3.org/1999/xlink">
    <title>cloud</title>
    <g id="cloud" stroke="none" stroke-width="1" fill="none" fill-rule="evenodd">
        <path d="M19.7753654,20.5898216 L19.5869068,20.657743 L19.2706698,20.7557871 L18.9778194,20.8315389 L18.7457002,20.8812626 L18.6396693,20.9004212 C18.3668223,20.9494865 18.092711,20.9802728 17.8189076,20.9935279 L17.5,21 L17.3548198,20.9983967 L17.0435066,20.9846052 L17.0004329,20.9809518 L17,21 L9,21 C4.02943725,21 0,16.9705627 0,12 C0,7.02943725 4.02943725,3 9,3 C12.4457212,3 15.4986834,4.95178826 17.0069043,7.88503407 L17.0692344,8.01272268 C17.2631201,8 17.4569784,7.99605362 17.6502214,8.00071202 L17.9842816,8.01776812 L18.2902617,8.04777125 L18.5543507,8.08583658 C19.4104481,8.22479619 20.2098434,8.53143363 20.9185551,8.97052028 L21.1030761,9.08919335 C21.6689587,9.46438311 22.1819462,9.93387654 22.6165511,10.4898223 L22.736595,10.6483181 C22.8173185,10.7581082 22.8949465,10.8706912 22.9690418,10.9857641 L23.0085482,11.0493576 C23.2837762,11.4866035 23.5078187,11.9590624 23.6728868,12.458354 L23.7864648,12.8412301 L23.8521393,13.1148753 L23.8647708,13.1746161 C23.985704,13.7525368 24.0249947,14.3386861 23.9873107,14.9168484 L23.9718438,15.1098891 L23.9511405,15.3010515 L23.9177907,15.5318083 C23.8041633,16.2483365 23.5729036,16.9257179 23.2447381,17.5438157 L23.0380637,17.9047291 L23.0238235,17.9276677 C22.681046,18.4816907 22.2516966,18.9886753 21.7418129,19.4266938 L21.4254528,19.6812603 L21.1775015,19.8600757 L21.1287314,19.8931117 C20.8032647,20.1129439 20.4565121,20.3039149 20.0923504,20.4624766 L19.7753654,20.5898216 Z M17.9720629,10.024481 L17.7195084,10.0048147 L17.6758655,10.0033734 C17.6175216,10.0011313 17.5588929,10 17.5,10 L17.2543465,10.0065935 L16.9679952,10.0303973 L16.8435761,10.0469201 L16.5707859,10.0962214 C16.4481896,10.1220378 16.3274763,10.1528727 16.2088865,10.1885114 L16.0326246,10.2455456 C15.9541789,10.2727635 15.8767522,10.3021144 15.8004181,10.3335324 L15.6474706,10.3986442 C15.5130902,10.4595356 15.3804434,10.5275741 15.25,10.6028857 L14.8169873,10.8528857 C14.3386947,11.1290281 13.7271043,10.9651529 13.4509619,10.4868603 C13.1748195,10.0085677 13.3386947,9.39697725 13.8169873,9.12083488 L14.5346619,8.72644143 L14.8053769,8.58499394 C14.8990463,8.53799316 14.9571848,8.51214539 14.9797921,8.50745065 L15.0509957,8.47843 C13.8376226,6.39802614 11.5820745,5 9,5 C5.13400675,5 2,8.13400675 2,12 C2,15.8659932 5.13400675,19 9,19 L17,19 L17.0007271,18.9726159 C17.1646595,18.9907108 17.331245,19 17.5,19 C18.0990077,19 18.6706797,18.8829617 19.1933956,18.6705053 L19.4143564,18.5736737 L19.5645099,18.49953 L19.7653468,18.389062 L19.9597879,18.2688323 C20.3878265,17.9888963 20.7652648,17.6380098 21.0754009,17.2328746 L21.2247831,17.0258635 L21.3343901,16.8565114 L21.4331338,16.6881039 L21.4765515,16.6076989 C21.7467157,16.0968153 21.916212,15.5382814 21.976241,14.964937 C21.9919764,14.8118023 22,14.6568381 22,14.5 C22,14.2197967 21.97439,13.945575 21.925383,13.6795478 C21.8915843,13.4956521 21.8458291,13.3127467 21.7879602,13.1318764 L21.6920517,12.8622278 L21.6071829,12.6603843 C21.5471149,12.5267072 21.4799898,12.3947281 21.4056843,12.2649079 L21.3397999,12.1524752 L21.197327,11.9344606 L21.2701311,12.0421993 C21.0244718,11.6661392 20.7240674,11.329088 20.3802318,11.0423594 L20.1479452,10.8601527 L19.9598088,10.730646 L19.7768325,10.6175993 L19.6076989,10.5234485 L19.5133205,10.4744072 L19.2482496,10.3522155 L19.1878016,10.3282941 C18.8873404,10.206973 18.5745788,10.1182628 18.2553652,10.0637304 L17.9720629,10.024481 Z" id="Shape" fill="#0D0E10" fill-rule="nonzero"></path>
    </g>
</svg>