<?xml version="1.0" encoding="UTF-8"?>
<svg width="24px" height="24px" viewBox="0 0 24 24" version="1.1" xmlns="http://www.w3.org/2000/svg" xmlns:xlink="http://www.w3.org/1999/xlink">
    <title>cog</title>
    <g id="cog" stroke="none" stroke-width="1" fill="none" fill-rule="evenodd">
        <path d="M13,0 C14.1044762,0 14.999868,0.895284857 15,1.99976102 L14.999,2.984 C15.3424192,3.09806651 15.6727415,3.22930884 15.994521,3.37858371 L16.298,3.526 L16.9834137,2.84128912 C17.7233536,2.10134342 18.8988415,2.06239669 19.6846312,2.72445054 L19.8118463,2.8412836 L21.1587164,4.18815366 C21.9397671,4.9692044 21.9397647,6.23553861 21.1587109,7.0165863 L20.473,7.701 L20.6215307,8.0057255 C20.7708153,8.32755024 20.9020625,8.65791939 21.0145034,8.99543565 L21.9998486,9 C23.0542668,8.99992018 23.9181568,9.81581666 23.9945137,10.8507298 L24,11 L24,13 C24,14.1044762 23.1047151,14.999868 22.000239,15 L21.015,14.999 C20.9019335,15.3424192 20.7706912,15.6727415 20.6214163,15.994521 L20.473,16.298 L21.1587109,16.9834137 C21.8986566,17.7233536 21.9376033,18.8988415 21.2755495,19.6846312 L21.1587164,19.8118463 L19.8118463,21.1587164 C19.0307956,21.9397671 17.7644614,21.9397647 16.9834137,21.1587109 L16.298,20.473 L15.994521,20.6214163 C15.6727415,20.7706912 15.3424192,20.9019335 15.004951,21.0143745 L15,22.000239 C14.999874,23.0545117 14.1840257,23.9181783 13.14925,23.9945151 L13,24 L11,24 C9.89537137,24 8.99991638,23.1044772 9,21.9998486 L9,21.016 C8.65791939,20.9020625 8.32755024,20.7708153 8.0057255,20.6215307 L7.701,20.473 L7.0165863,21.1587109 C6.27664639,21.8986566 5.10115845,21.9376033 4.31536878,21.2755495 L4.18815366,21.1587164 L2.8412836,19.8118463 C2.06023286,19.0307956 2.06023533,17.7644614 2.84128912,16.9834137 L3.526,16.298 L3.37858371,15.994521 C3.22930884,15.6727415 3.09806651,15.3424192 2.98562546,15.004951 L1.99976102,15 C0.945488319,14.999874 0.0818217459,14.1840257 0.00548485227,13.14925 L0,13 L0,11 C0,9.89537137 0.895522779,8.99991638 2.0001514,9 L2.983,9 C3.09793749,8.65791939 3.22918472,8.32755024 3.37846932,8.0057255 L3.526,7.701 L2.84128912,7.0165863 C2.10134342,6.27664639 2.06239669,5.10115845 2.72445054,4.31536878 L2.8412836,4.18815366 L4.18815366,2.8412836 C4.9692044,2.06023286 6.23553861,2.06023533 7.0165863,2.84128912 L7.701,3.526 L8.0057255,3.37846932 C8.32755024,3.22918472 8.65791939,3.09793749 8.99543565,2.98549662 L9,2.0001514 C8.99992018,0.945733171 9.81581666,0.0818431986 10.8507298,0.00548629663 L11,0 L13,0 Z M13,2 L11,2 L11.0001943,4.56605979 C9.66022164,4.74455726 8.43209042,5.27685326 7.41280214,6.06594623 L5.60236722,4.25549716 L4.25549716,5.60236722 L6.06594623,7.41280214 C5.27685326,8.43209042 4.74455726,9.66022164 4.56605979,11.0001943 L2,11 L2,13 L4.56612653,13.0003066 C4.74468991,14.3400844 5.27695158,15.5680366 6.06594623,16.5871979 L4.25549716,18.3976328 L5.60236722,19.7445028 L7.41280214,17.9340538 C8.43209042,18.7231467 9.66022164,19.2554427 11.0001943,19.4339402 L11,22 L13,22 L13.0003066,19.4338735 C14.3400844,19.2553101 15.5680366,18.7230484 16.5871979,17.9340538 L18.3976328,19.7445028 L19.7445028,18.3976328 L17.9340538,16.5871979 C18.7230484,15.5680366 19.2553101,14.3400844 19.4338735,13.0003066 L22,13 L22,11 L19.4339402,11.0001943 C19.2554427,9.66022164 18.7231467,8.43209042 17.9340538,7.41280214 L19.7445028,5.60236722 L18.3976328,4.25549716 L16.5871979,6.06594623 C15.5680366,5.27695158 14.3400844,4.74468991 13.0003066,4.56612653 L13,2 Z M12,8 C14.209139,8 16,9.790861 16,12 C16,14.209139 14.209139,16 12,16 C9.790861,16 8,14.209139 8,12 C8,9.790861 9.790861,8 12,8 Z M12,10 C10.8954305,10 10,10.8954305 10,12 C10,13.1045695 10.8954305,14 12,14 C13.1045695,14 14,13.1045695 14,12 C14,10.8954305 13.1045695,10 12,10 Z" id="Shape" fill="#0D0E10" fill-rule="nonzero"></path>
    </g>
</svg>