<?xml version="1.0" encoding="UTF-8"?>
<svg width="24px" height="24px" viewBox="0 0 24 24" version="1.1" xmlns="http://www.w3.org/2000/svg" xmlns:xlink="http://www.w3.org/1999/xlink">
    <title>cookies</title>
    <g id="cookies" stroke="none" stroke-width="1" fill="none" fill-rule="evenodd">
        <path d="M12.0000694,0 C13.2176937,0 14.3554586,0.586987235 15.0389528,1.53311584 L15.2680275,1.8671864 C15.6739532,2.39393014 16.3579246,2.629101 17.065631,2.44650143 L17.3414826,2.39364127 C18.5145077,2.21667736 19.7049837,2.60192729 20.5658537,3.45015975 C21.2561919,4.15617319 21.6423446,5.10461844 21.6410986,6.1188213 L21.6329466,6.351556 C21.6208417,6.49160713 21.6009003,6.6310443 21.5770547,6.75129435 L21.5190177,7.01313401 L21.4955958,7.24323546 L21.4888883,7.37557728 C21.4918402,7.9057745 21.7450172,8.39996369 22.1975728,8.73281571 L22.5679205,8.98349233 C23.1587948,9.42075541 23.6077619,10.0202244 23.8749186,10.740288 C24.0021337,11.1229424 24.0675399,11.5245112 24.0675399,11.9307397 C24.0675399,13.1483353 23.4806037,14.2860812 22.5214676,14.9786011 L22.1812503,15.2076124 C21.6810286,15.5780592 21.4273229,16.1930133 21.5211467,16.8352386 L21.6047566,17.2720828 C21.7817033,18.4450768 21.3964899,19.6355244 20.5483275,20.4963842 C19.8423579,21.1867284 18.8939622,21.5728883 17.8992796,21.5719911 C17.6149872,21.5696674 17.3316051,21.5395182 17.0009136,21.469699 C16.8751719,21.4365838 16.7457103,21.4196963 16.6231614,21.4194342 C16.0930516,21.4223858 15.598936,21.6755434 15.2787271,22.1088226 L15.1880195,22.2441399 C14.496228,23.3373376 13.2927251,24 11.9990639,24 C11.0450217,24 10.1299898,23.6389672 9.40524007,22.9686707 C9.25655261,22.8204931 9.12032099,22.659984 9.00529947,22.4997924 L8.78999732,22.1796913 C8.64470635,21.9845238 8.46027322,21.8248373 8.23588313,21.7023065 C7.99371299,21.5653557 7.7205309,21.4914757 7.44690465,21.4887974 C7.36673116,21.4885588 7.28672147,21.4955705 7.23972396,21.5034754 L6.97772329,21.5583752 L6.67441844,21.6081482 C6.5074398,21.628354 6.33946083,21.6394281 6.16089724,21.6413763 C5.28565672,21.6421424 4.43825589,21.3386755 3.72969995,20.7557338 L3.5036382,20.549979 C2.81330002,19.8439655 2.42714731,18.8955203 2.42804448,17.9007909 C2.43036819,17.6164844 2.46051675,17.333088 2.53033316,17.0023855 C2.56345204,16.8766208 2.58034148,16.7471351 2.58060367,16.6245614 C2.57765176,16.0943642 2.32447477,15.600175 1.89117533,15.2799266 L1.75585193,15.1892083 C0.662653558,14.4973673 0,13.2937952 0,12.0000694 C0,11.8614396 0.00761600907,11.7232882 0.0228825569,11.5842369 C0.122516491,10.6846915 0.542601474,9.85073872 1.2033461,9.23682738 C1.37352867,9.07850751 1.5583588,8.93591586 1.75139831,8.81376546 C2.0243467,8.63900254 2.2381339,8.38905847 2.35645221,8.12409385 L2.3952383,8.03755484 L2.45995493,7.83606578 C2.53174284,7.56186091 2.53267502,7.27375234 2.44788098,6.94289142 L2.39835099,6.68809498 L2.37331129,6.5001994 L2.36495057,6.3964687 L2.35865824,6.1614032 C2.35779409,5.17397166 2.7439468,4.22552641 3.4475293,3.50621975 C4.32102039,2.64580222 5.55401819,2.26661172 6.71850698,2.47095723 L7.120052,2.55326016 C7.78541898,2.65456598 8.44993344,2.34658199 8.83442675,1.72041504 L8.99423108,1.49177101 C9.70664231,0.553336641 10.8184435,0 12.0000694,0 Z M12.0000694,2 C11.4446488,2 10.9219385,2.2601497 10.6122235,2.66662758 L10.5093101,2.81190811 C9.7360538,4.07777047 8.27950193,4.75284181 6.77668493,4.52309598 L6.5098504,4.46978238 C5.91436112,4.32694801 5.2873104,4.50131505 4.86428421,4.91776266 C4.53977253,5.24964291 4.35825126,5.69548463 4.35825548,6.1321626 L4.363,6.305 L4.36944567,6.35630217 L4.39535907,6.49078455 C4.55490364,7.10240234 4.55284482,7.73872401 4.38116746,8.38972409 L4.27530331,8.71485817 L4.19650743,8.90715654 C3.90735915,9.55771892 3.43375686,10.1114194 2.82538454,10.5009304 C2.73241384,10.5597678 2.6455499,10.6267811 2.56514146,10.7015844 C2.25508649,10.9896629 2.057529,11.3818541 2.0108318,11.8034558 C2.0035995,11.8693311 2,11.9346247 2,12.0000694 C2,12.6082194 2.31149779,13.1739901 2.80873745,13.4888999 C3.90248058,14.1514554 4.57345315,15.3346759 4.58058635,16.6209049 C4.58001179,16.9215777 4.54096438,17.2209412 4.47666975,17.4594315 C4.44554312,17.6100456 4.42923466,17.7633451 4.4280107,17.9098391 C4.42760448,18.3740073 4.60912575,18.819849 4.88659742,19.1066566 L5.0321753,19.2386264 C5.34945012,19.4990912 5.74777448,19.6417371 6.14881289,19.6414395 L6.32591733,19.6342921 C6.35090259,19.6325892 6.37249662,19.6307919 6.38901173,19.6291427 L6.6037992,19.5941371 L6.85429953,19.5412336 C7.0517815,19.5057651 7.25211523,19.4882087 7.45958658,19.488849 C8.07971256,19.4948675 8.68476651,19.6584998 9.20699633,19.9539631 C9.67062863,20.2068588 10.0759105,20.5577611 10.4197435,21.0212467 L10.5702837,21.2441074 C10.6411648,21.3561088 10.7238997,21.4592267 10.7895825,21.525705 C11.1189601,21.8298879 11.5501065,22 11.9990639,22 C12.607116,22 13.1728046,21.6885254 13.4876777,21.1913083 C14.1501855,20.0975665 15.3333381,19.4265848 16.6195046,19.4194515 C16.9201649,19.4200261 17.2195158,19.4590746 17.4579902,19.5233697 C17.6085819,19.5544939 17.7618582,19.570801 17.9083284,19.5720249 C18.3724197,19.5724311 18.8181918,19.3909253 19.1367344,19.0796793 C19.5291597,18.6812631 19.7102727,18.1215592 19.6344318,17.6126452 L19.5974449,17.4186771 C19.2556193,15.9791991 19.8067996,14.4773241 21.0258255,13.5756901 L21.2422387,13.4298614 C21.7560677,13.1046567 22.0675399,12.5388924 22.0675399,11.9307397 C22.0675399,11.7396096 22.0368259,11.5510372 21.9887141,11.404366 C21.8679042,11.0795486 21.6562015,10.7968793 21.412667,10.6155483 L21.2607545,10.5112389 C20.1670114,9.84868331 19.4960388,8.66546287 19.4889056,7.37923386 C19.4891119,7.27127591 19.4942783,7.16341054 19.5051169,7.0484628 L19.5424817,6.72137217 L19.5979673,6.44061346 C19.6186516,6.35437277 19.6327911,6.26708372 19.6370433,6.2377983 L19.6414812,6.09029966 C19.6418875,5.62613141 19.4603662,5.18028969 19.1490988,4.86170267 C18.7506749,4.46924197 18.1909738,4.2881171 17.6820684,4.36396201 L17.5094706,4.39562704 C16.0849048,4.76726083 14.578902,4.24944972 13.6584556,3.05354459 L13.4992083,2.82538454 C13.1739901,2.31149779 12.6082194,2 12.0000694,2 Z M12,15 C12.5522847,15 13,15.4477153 13,16 C13,16.5522847 12.5522847,17 12,17 C11.4477153,17 11,16.5522847 11,16 C11,15.4477153 11.4477153,15 12,15 Z M8,11 C8.55228475,11 9,11.4477153 9,12 C9,12.5522847 8.55228475,13 8,13 C7.44771525,13 7,12.5522847 7,12 C7,11.4477153 7.44771525,11 8,11 Z M16,11 C16.5522847,11 17,11.4477153 17,12 C17,12.5522847 16.5522847,13 16,13 C15.4477153,13 15,12.5522847 15,12 C15,11.4477153 15.4477153,11 16,11 Z M12,7 C12.5522847,7 13,7.44771525 13,8 C13,8.55228475 12.5522847,9 12,9 C11.4477153,9 11,8.55228475 11,8 C11,7.44771525 11.4477153,7 12,7 Z" id="Shape" fill="#0D0E10" fill-rule="nonzero"></path>
        <g id="Group" transform="translate(7, 7)"></g>
    </g>
</svg>