<?xml version="1.0" encoding="UTF-8"?>
<svg width="24px" height="24px" viewBox="0 0 24 24" version="1.1" xmlns="http://www.w3.org/2000/svg" xmlns:xlink="http://www.w3.org/1999/xlink">
    <title>eye-close</title>
    <g id="eye-close" stroke="none" stroke-width="1" fill="none" fill-rule="evenodd">
        <path d="M13.012313,16.000158 L13.012313,13.970158 C15.280313,13.828158 17.176313,13.195158 18.677313,12.079158 L20.305313,13.707158 C20.6976919,14.0861302 21.3213978,14.0807103 21.7071316,13.6949765 C22.0928654,13.3092427 22.0982852,12.6855369 21.719313,12.293158 L20.129313,10.703158 C20.907313,9.76915797 21.519313,8.64015797 21.961313,7.31715797 C22.0743876,6.97811292 21.9979944,6.6044978 21.7609101,6.33704983 C21.5238257,6.06960186 21.1620689,5.94895274 20.81191,6.02054983 C20.4617511,6.09214691 20.1763875,6.34511291 20.063313,6.68415797 C18.872313,10.261158 16.263313,12.000158 12.012313,12.000158 C7.76231299,12.000158 5.15331299,10.261158 3.96131299,6.68415797 C3.78651486,6.16003975 3.21993122,5.87685986 2.695813,6.05165798 C2.17169478,6.2264561 1.88851488,6.79303974 2.06331299,7.31715797 C2.50431299,8.64015797 3.11731299,9.76915797 3.89531299,10.703158 L2.30531299,12.293158 C2.04535641,12.5442324 1.9411004,12.9160359 2.03261584,13.2656653 C2.12413128,13.6152947 2.39717624,13.8883397 2.74680567,13.9798551 C3.0964351,14.0713706 3.46823852,13.9671146 3.71931299,13.707158 L5.34731299,12.079158 C6.84731299,13.195158 8.74431299,13.829158 11.012313,13.969158 L11.012313,16.000158 C11.012313,16.5524427 11.4600282,17.000158 12.012313,17.000158 C12.5645977,17.000158 13.012313,16.5524427 13.012313,16.000158 Z" id="Path" fill="#0D0E10" fill-rule="nonzero"></path>
    </g>
</svg>