<?xml version="1.0" encoding="UTF-8"?>
<svg width="24px" height="24px" viewBox="0 0 24 24" version="1.1" xmlns="http://www.w3.org/2000/svg" xmlns:xlink="http://www.w3.org/1999/xlink">
    <title>file-csv-label</title>
    <g id="file-csv-label" stroke="none" stroke-width="1" fill="none" fill-rule="evenodd">
        <path d="M4,0 C2.8954305,0 2,0.8954305 2,2 L2,13 C2,13.5522847 2.44771525,14 3,14 C3.55228475,14 4,13.5522847 4,13 L4,2 L15.001,2 L15,6 C15,6.51283584 15.3860402,6.93550716 15.8833789,6.99327227 L16,7 L20,6.999 L20,13 C20,13.5522847 20.4477153,14 21,14 C21.5522847,14 22,13.5522847 22,13 L22,4.58578644 L17.415,0 L4,0 Z M17.001,2.629 L19.372,5 L17,5 L17.001,2.629 Z M11.9055982,16.0002495 C12.7266851,16.0107114 13.5185846,16.3063539 14.1456437,16.8365332 C14.567386,17.1931168 14.6202074,17.8240747 14.2636238,18.2458169 C13.9344696,18.6351175 13.3715292,18.7100713 12.9551589,18.4388364 L12.85434,18.363797 C12.5816245,18.1332156 12.2372178,18.0046372 11.8928577,18.0001683 C11.5019066,18.0001683 11.320012,18.1409466 11.2901712,18.4625122 L11.2857236,18.5644456 C11.2857236,18.6083476 11.2809641,18.6091494 11.3148785,18.6311587 L11.3482443,18.6526469 C11.462306,18.7273056 11.6169932,18.7915261 11.923979,18.888342 L12.2832208,18.9969011 C13.9540532,19.4903188 14.7142764,20.007033 14.7142764,21.4358585 C14.7142764,23.1457358 13.5276098,24.0001358 11.8801173,24.0000546 C11.0590304,23.9895927 10.2671308,23.6939502 9.64007176,23.1637709 C9.2183295,22.8071873 9.16550801,22.1762294 9.52209168,21.7544872 C9.85124583,21.3651866 10.4141862,21.2902328 10.8305565,21.5614677 L10.9313754,21.6365071 C11.204091,21.8670884 11.5484976,21.9956669 11.8928577,22.0001358 C12.5378552,22.0001358 12.7142764,21.8731125 12.7142764,21.4358585 C12.7142764,21.2848065 12.6126944,21.1956222 12.0243098,21.0087674 L11.6609838,20.8985448 C10.0045857,20.409778 9.28570222,19.9392493 9.28570222,18.5644456 C9.28570222,17.0481874 10.3752483,16.0001683 11.9055982,16.0002495 Z M20.9263378,16.634516 C21.1282821,16.1204761 21.7087018,15.8674726 22.2227417,16.0694168 C22.7367816,16.2713611 22.9897851,16.8517809 22.7878408,17.3658207 L20.4307108,23.3657881 C20.0984334,24.211585 18.9014851,24.211585 18.5692078,23.3657881 L16.2120777,17.3658207 C16.0101335,16.8517809 16.263137,16.2713611 16.7771768,16.0694168 C17.2912167,15.8674726 17.8716365,16.1204761 18.0735807,16.634516 L19.4998292,20.2661683 L20.9263378,16.634516 Z M4.92509629,16.0001142 C5.66883785,15.997545 6.39506161,16.2257926 7.00357019,16.6534188 C7.45543607,16.9709652 7.56432356,17.594697 7.24677722,18.0465629 C6.95365752,18.4636698 6.39964604,18.5885348 5.96074319,18.355518 L5.85363317,18.2897699 C5.58385236,18.1001829 5.26187467,17.9989873 4.92860983,18.000152 C3.95559733,18.000152 3.14291067,18.8755259 3.14291067,20.000152 C3.14291067,21.1247782 3.95559733,22.000152 4.93212336,22.0001582 C5.20691612,22.0011237 5.47631053,21.9310099 5.71459869,21.7978971 L5.85363317,21.7105342 C6.30549904,21.3929879 6.92923088,21.5018754 7.24677722,21.9537412 C7.56432356,22.4056071 7.45543607,23.0293389 7.00357019,23.3468853 C6.39506161,23.7745115 5.66883785,24.0027591 4.92860983,24.0001958 C2.81645969,24.0001958 1.14291067,22.1975126 1.14291067,20.000152 C1.14291067,17.8027915 2.81645969,16.0001142 4.92509629,16.0001142 Z" id="Shape" fill="#0D0E10" fill-rule="nonzero"></path>
    </g>
</svg>