<?xml version="1.0" encoding="UTF-8"?>
<svg width="24px" height="24px" viewBox="0 0 24 24" version="1.1" xmlns="http://www.w3.org/2000/svg" xmlns:xlink="http://www.w3.org/1999/xlink">
    <title>file-pdf-label</title>
    <g id="file-pdf-label" stroke="none" stroke-width="1" fill="none" fill-rule="evenodd">
        <path d="M3.77777778,16 C5.54938837,16 7,17.3988041 7,19.1428571 C7,20.8869102 5.54938837,22.2857143 3.77777778,22.2857143 L3,22.285 L3,23 C3,23.5128358 2.61395981,23.9355072 2.11662113,23.9932723 L2,24 C1.44771525,24 1,23.5522847 1,23 L1,17 C1,16.4477153 1.44771525,16 2,16 L3.77777778,16 Z M3,20.285 L3.77777778,20.2857143 C4.46076608,20.2857143 5,19.7657387 5,19.1428571 C5,18.5199756 4.46076608,18 3.77777778,18 L3,18 L3,20.285 Z M11.8181818,16 C14.1150092,16 16,17.777277 16,20 C16,22.222723 14.1150092,24 11.8181818,24 L10,24 C9.44771525,24 9,23.5522847 9,23 L9,17 C9,16.4477153 9.44771525,16 10,16 L11.8181818,16 Z M11,22 L11.8181818,22 C13.0358937,22 14,21.0909855 14,20 C14,18.9090145 13.0358937,18 11.8181818,18 L11,18 L11,22 Z M22,16 C22.5522847,16 23,16.4477153 23,17 C23,17.5522847 22.5522847,18 22,18 L20,18 L20,23 C20,23.5128358 19.6139598,23.9355072 19.1166211,23.9932723 L19,24 C18.4477153,24 18,23.5522847 18,23 L18,17 C18,16.4477153 18.4477153,16 19,16 L22,16 Z M4,0 C2.8954305,0 2,0.8954305 2,2 L2,13 C2,13.5522847 2.44771525,14 3,14 C3.55228475,14 4,13.5522847 4,13 L4,2 L15.001,2 L15,6 C15,6.51283584 15.3860402,6.93550716 15.8833789,6.99327227 L16,7 L20,6.999 L20,13 C20,13.5522847 20.4477153,14 21,14 C21.5522847,14 22,13.5522847 22,13 L22,4.58578644 L17.415,0 L4,0 Z M17.001,2.629 L19.372,5 L17,5 L17.001,2.629 Z" id="Shape" fill="#0D0E10" fill-rule="nonzero"></path>
        <path d="M21,19 C21.5522847,19 22,19.4477153 22,20 C22,20.5522847 21.5522847,21 21,21 L19,21 C18.4477153,21 18,20.5522847 18,20 C18,19.4477153 18.4477153,19 19,19 L21,19 Z" id="Path" fill="#0D0E10" fill-rule="nonzero"></path>
    </g>
</svg>