<?xml version="1.0" encoding="UTF-8"?>
<svg width="24px" height="24px" viewBox="0 0 24 24" version="1.1" xmlns="http://www.w3.org/2000/svg" xmlns:xlink="http://www.w3.org/1999/xlink">
    <title>sanitary</title>
    <g id="sanitary" stroke="none" stroke-width="1" fill="none" fill-rule="evenodd">
        <path d="M16.0045996,2 C16.0045996,3.1045695 15.1091691,4 14.0045996,4 C12.9000301,4 12.0045996,3.1045695 12.0045996,2 C12.0045996,0.8954305 12.9000301,0 14.0045996,0 C15.1091691,0 16.0045996,0.8954305 16.0045996,2 Z M12.0045996,4.99999943 C12.2927631,4.99982201 12.5669966,5.12396196 12.7570111,5.34060153 C12.9470257,5.55724111 13.0343491,5.84531974 12.9965996,6.131 L12.9745996,6.243 L11.2855996,13.9999994 L18.0055996,13.9999994 C18.3934399,14.0002569 18.7461554,14.2247476 18.9105996,14.576 L18.9535996,14.684 L20.9535996,20.684 C21.1189832,21.1858915 20.8653235,21.7298278 20.3745352,21.9257195 C19.8837469,22.1216113 19.3252603,21.9018326 19.0995996,21.424 L19.0555996,21.316 L17.2845996,15.9999994 L10.0045996,15.9999994 C9.71641147,15.999928 9.44226488,15.8755291 9.25243739,15.6586928 C9.0626099,15.4418566 8.9755588,15.1536665 9.01359965,14.868 L9.03359965,14.758 L10.7245996,6.99999943 L9.67059965,6.99999943 C9.49813328,7.00018156 9.32864538,7.04496494 9.17859965,7.13 L9.07059965,7.2 L5.60459965,9.8 C5.18234133,10.1205063 4.58334522,10.0558053 4.23926742,9.65252276 C3.89518962,9.24924021 3.92560693,8.6475282 4.30859965,8.281 L4.40459965,8.2 L7.87159965,5.6 C8.33191037,5.25486152 8.88175681,5.04936336 9.45559965,5.008 L9.67159965,4.99999943 L12.0045996,4.99999943 Z M6.87110916,11.6574315 C6.61598047,11.5837068 6.34200414,11.6144927 6.10959965,11.743 C3.85715314,12.9846459 2.64662192,15.5237966 3.10013714,18.0555003 C3.55365236,20.5872041 5.57032387,22.5482517 8.11371898,22.9307975 C10.6571141,23.3133432 13.1614227,22.032285 14.3395996,19.746 C14.5154976,19.4272902 14.5043094,19.038171 14.3103897,18.7300944 C14.11647,18.4220178 13.7704557,18.2436559 13.4070214,18.2644302 C13.0435872,18.2852045 12.7201509,18.5018329 12.5625996,18.83 C11.777431,20.3546717 10.1077041,21.2091723 8.41179349,20.9542196 C6.7158829,20.6992668 5.37120313,19.3915988 5.06902821,17.7034626 C4.76685329,16.0153264 5.57443038,14.3224063 7.07659965,13.495 C7.30926383,13.3669634 7.48144348,13.1516382 7.55516817,12.8965095 C7.62889286,12.6413808 7.59810697,12.3674045 7.46959965,12.135 C7.3415631,11.9033358 7.12623784,11.7311562 6.87110916,11.6574315 Z" id="Shape" fill="#0D0E10" fill-rule="nonzero"></path>
    </g>
</svg>