<?xml version="1.0" encoding="UTF-8"?>
<svg width="24px" height="24px" viewBox="0 0 24 24" version="1.1" xmlns="http://www.w3.org/2000/svg" xmlns:xlink="http://www.w3.org/1999/xlink">
    <title>intermodal</title>
    <g id="intermodal" stroke="none" stroke-width="1" fill="none" fill-rule="evenodd">
        <path d="M12,16 C14.209139,16 16,17.790861 16,20 C16,22.209139 14.209139,24 12,24 C9.790861,24 8,22.209139 8,20 C8,17.790861 9.790861,16 12,16 Z M12,18 C10.8954305,18 10,18.8954305 10,20 C10,21.1045695 10.8954305,22 12,22 C13.1045695,22 14,21.1045695 14,20 C14,18.8954305 13.1045695,18 12,18 Z M12,7 C12.5522847,7 13,7.44771525 13,8 L13,13 C13,13.5522847 12.5522847,14 12,14 C11.4477153,14 11,13.5522847 11,13 L11,8 C11,7.44771525 11.4477153,7 12,7 Z M4,0 C6.209139,0 8,1.790861 8,4 C8,6.209139 6.209139,8 4,8 C1.790861,8 0,6.209139 0,4 C0,1.790861 1.790861,0 4,0 Z M20,0 C22.209139,0 24,1.790861 24,4 C24,6.209139 22.209139,8 20,8 C17.790861,8 16,6.209139 16,4 C16,1.790861 17.790861,0 20,0 Z M4,2 C2.8954305,2 2,2.8954305 2,4 C2,5.1045695 2.8954305,6 4,6 C5.1045695,6 6,5.1045695 6,4 C6,2.8954305 5.1045695,2 4,2 Z M20,2 C18.8954305,2 18,2.8954305 18,4 C18,5.1045695 18.8954305,6 20,6 C21.1045695,6 22,5.1045695 22,4 C22,2.8954305 21.1045695,2 20,2 Z M17,3 C17.5522847,3 18,3.44771525 18,4 C18,4.55228475 17.5522847,5 17,5 L7,5 C6.44771525,5 6,4.55228475 6,4 C6,3.44771525 6.44771525,3 7,3 L17,3 Z" id="Shape" fill="#0D0E10" fill-rule="nonzero"></path>
    </g>
</svg>