<?xml version="1.0" encoding="UTF-8"?>
<svg width="24px" height="24px" viewBox="0 0 24 24" version="1.1" xmlns="http://www.w3.org/2000/svg" xmlns:xlink="http://www.w3.org/1999/xlink">
    <title>lightning</title>
    <g id="lightning" stroke="none" stroke-width="1" fill="none" fill-rule="evenodd">
        <path d="M15.75,0 C16.3897479,0 16.8649679,0.592416798 16.7261871,1.21693046 L14.996,9 L19,9 C19.7682494,9 20.2353908,9.82174953 19.8814987,10.4729354 L19.8221922,10.56921 L10.8221922,23.56921 C10.2325577,24.4209043 8.89604687,23.9243049 9.00560906,22.894233 L10.057,13 L5.26,13 C4.65705662,13 4.20108273,12.4741165 4.26566976,11.8920371 L4.28563867,11.7750111 L6.82563867,0.775011111 C6.93039492,0.321342316 7.33439368,0 7.8,0 L15.75,0 Z M14.503,2 L8.595,2 L6.517,11 L11.17,11 C11.7245267,11 12.1649025,11.4485907 12.1700635,11.9887477 L12.1643909,12.105767 L11.409,19.206 L17.09,11 L13.75,11 C13.1502363,11 12.6950773,10.4793212 12.7548771,9.89965292 L12.7738129,9.78306954 L14.503,2 Z" id="Path" fill="#0D0E10" fill-rule="nonzero"></path>
    </g>
</svg>