<?xml version="1.0" encoding="UTF-8"?>
<svg width="24px" height="24px" viewBox="0 0 24 24" version="1.1" xmlns="http://www.w3.org/2000/svg" xmlns:xlink="http://www.w3.org/1999/xlink">
    <title>lock-closed</title>
    <g id="lock-closed" stroke="none" stroke-width="1" fill="none" fill-rule="evenodd">
        <path d="M12,0 C14.7614237,0 17,2.23857625 17,5 L17,9 L18,9 C19.6568542,9 21,10.3431458 21,12 L21,21 C21,22.6568542 19.6568542,24 18,24 L6,24 C4.34314575,24 3,22.6568542 3,21 L3,12 C3,10.3431458 4.34314575,9 6,9 L7,9 L7,5 C7,2.3112453 9.12230671,0.118181885 11.7831104,0.00461951385 L12,0 Z M18,11 L6,11 C5.44771525,11 5,11.4477153 5,12 L5,21 C5,21.5522847 5.44771525,22 6,22 L18,22 C18.5522847,22 19,21.5522847 19,21 L19,12 C19,11.4477153 18.5522847,11 18,11 Z M12,2 C10.3431458,2 9,3.34314575 9,5 L9,9 L15,9 L15,5 C15,3.34314575 13.6568542,2 12,2 Z" id="Shape" fill="#0D0E10" fill-rule="nonzero"></path>
    </g>
</svg>