<?xml version="1.0" encoding="UTF-8"?>
<svg width="24px" height="24px" viewBox="0 0 24 24" version="1.1" xmlns="http://www.w3.org/2000/svg" xmlns:xlink="http://www.w3.org/1999/xlink">
    <title>lock-open</title>
    <g id="lock-open" stroke="none" stroke-width="1" fill="none" fill-rule="evenodd">
        <path d="M12.5,0 C14.9142733,0 16.8844891,1.90123652 16.995102,4.2881643 L17,4.53081839 C17,5.08310314 16.5522847,5.53081839 16,5.53081839 C15.4871642,5.53081839 15.0644928,5.1447782 15.0067277,4.64743952 L15,4.5 C15,3.11928813 13.8807119,2 12.5,2 C11.1192881,2 10,3.11928813 10,4.5 L10,9 L18,9 C19.6568542,9 21,10.3431458 21,12 L21,21 C21,22.6568542 19.6568542,24 18,24 L6,24 C4.34314575,24 3,22.6568542 3,21 L3,12 C3,10.3431458 4.34314575,9 6,9 L8,9 L8,4.5 C8,2.01471863 10.0147186,0 12.5,0 Z M18,11 L6,11 C5.44771525,11 5,11.4477153 5,12 L5,21 C5,21.5522847 5.44771525,22 6,22 L18,22 C18.5522847,22 19,21.5522847 19,21 L19,12 C19,11.4477153 18.5522847,11 18,11 Z" id="Shape" fill="#0D0E10" fill-rule="nonzero"></path>
    </g>
</svg>