<?xml version="1.0" encoding="UTF-8"?>
<svg width="24px" height="24px" viewBox="0 0 24 24" version="1.1" xmlns="http://www.w3.org/2000/svg" xmlns:xlink="http://www.w3.org/1999/xlink">
    <title>map-navigation</title>
    <g id="map-navigation" stroke="none" stroke-width="1" fill="none" fill-rule="evenodd">
        <path d="M7.62900007,1.07129836 C7.84844503,0.983674707 8.09182926,0.976589285 8.31600007,1.05129836 L15.9690001,4.93529836 L21.6290001,3.07229836 C21.9369694,2.94926082 22.2859034,2.98690809 22.5605412,3.17280442 C22.835179,3.35870075 22.9999999,3.66866103 22.9999999,4.00029836 L22.9999999,20.0002984 C22.9999999,20.4094903 22.7509892,20.7774882 22.3710001,20.9292984 L16.3710001,22.9292984 C16.1515551,23.016922 15.9081709,23.0240074 15.6840001,22.9492984 L8.03100007,19.0642984 L2.37100007,20.9282984 C2.06303071,21.0513359 1.71409674,21.0136886 1.43945895,20.8277923 C1.16482115,20.641896 0.999999932,20.3319357 0.999999932,20.0002984 L0.999999932,4.00029836 C0.999999932,3.59110644 1.24901097,3.22310855 1.62900007,3.07129836 L7.62900007,1.07129836 Z M9.00000007,3.38729836 L9.00000007,17.2792984 L15.0000001,20.6132984 L15.0000001,6.72129836 L9.00000007,3.38729836 Z M21.0000001,5.47729836 L17.0000001,6.67729836 L17.0000001,20.5232984 L21.0000001,19.3232984 L21.0000001,5.47729836 Z M7.00000007,3.47729836 L3.00000007,4.67729836 L3.00000007,18.5232984 L7.00000007,17.3232984 L7.00000007,3.47729836 Z" id="Shape" fill="#0D0E10" fill-rule="nonzero"></path>
    </g>
</svg>