<?xml version="1.0" encoding="UTF-8"?>
<svg width="24px" height="24px" viewBox="0 0 24 24" version="1.1" xmlns="http://www.w3.org/2000/svg" xmlns:xlink="http://www.w3.org/1999/xlink">
    <title>pen</title>
    <g id="pen" stroke="none" stroke-width="1" fill="none" fill-rule="evenodd">
        <path d="M20.4230412,1.11858851 C21.6232645,1.44018735 22.5607455,2.37766842 22.8823444,3.57789166 C23.2039432,4.77811489 22.8608013,6.05873784 21.9821769,6.93736224 L7.38054053,21.5389986 C7.25238171,21.6671575 7.09180183,21.7580763 6.91596938,21.8020344 L2.24344573,22.9701653 C1.51106526,23.1532604 0.847672484,22.4898676 1.0307676,21.7574872 L2.19889851,17.0849635 C2.24285663,16.909131 2.33377541,16.7485512 2.46193423,16.6203923 L17.0635706,2.01875594 C17.942195,1.14013154 19.222818,0.796989659 20.4230412,1.11858851 Z M15.748,6.161 L4.0719101,17.8380228 L3.3749101,20.6250228 L6.1619101,19.9280228 L17.838,8.251 L15.748,6.161 Z M18.4777842,3.4329695 L17.162,4.747 L19.252,6.837 L20.5679634,5.52314867 C20.9040005,5.18711158 21.0557179,4.71270161 20.9830725,4.24936147 L20.9504927,4.09552975 C20.8138281,3.58549063 20.4154422,3.18710473 19.9054031,3.05044016 C19.395364,2.91377559 18.8511588,3.05959495 18.4777842,3.4329695 Z" id="Shape" fill="#0D0E10" fill-rule="nonzero"></path>
    </g>
</svg>