<?xml version="1.0" encoding="UTF-8"?>
<svg width="24px" height="24px" viewBox="0 0 24 24" version="1.1" xmlns="http://www.w3.org/2000/svg" xmlns:xlink="http://www.w3.org/1999/xlink">
    <title>plugin</title>
    <g id="plugin" stroke="none" stroke-width="1" fill="none" fill-rule="evenodd">
        <path d="M15,0 C15.5522847,0 16,0.44771525 16,1 L16,4 L17,4 C18.1045695,4 19,4.8954305 19,6 L18.9997156,11.533729 L18.9968301,11.6878533 C18.8968771,14.6464922 16.4673334,17 13.5,17 L13,17 L13,23 C13,23.5522847 12.5522847,24 12,24 C11.4477153,24 11,23.5522847 11,23 L11,16.999 L10.466271,16.9997156 L10.3121467,16.9968301 C7.35350782,16.8968771 5,14.4673334 5,11.5 L5,6 C5,4.8954305 5.8954305,4 7,4 L8,4 L8,1 C8,0.44771525 8.44771525,0 9,0 C9.55228475,0 10,0.44771525 10,1 L10,4 L14,4 L14,1 C14,0.44771525 14.4477153,0 15,0 Z M17,6 L7,6 L7,11.5 C7,13.3927259 8.50239169,14.9345493 10.3796751,14.9979705 L10.5,15 L13.5,15 C15.3927259,15 16.9345493,13.4976083 16.9979705,11.6203249 L17,11.5 L17,6 Z" id="Shape" fill="#0D0E10" fill-rule="nonzero"></path>
    </g>
</svg>