<?xml version="1.0" encoding="UTF-8"?>
<svg width="24px" height="24px" viewBox="0 0 24 24" version="1.1" xmlns="http://www.w3.org/2000/svg" xmlns:xlink="http://www.w3.org/1999/xlink">
    <title>plugin-check</title>
    <g id="plugin-check" stroke="none" stroke-width="1" fill="none" fill-rule="evenodd">
        <path d="M12,0 C12.5522847,0 13,0.44771525 13,1 L13,4 L14,4 C15.1045695,4 16,4.8954305 16,6 L15.9997156,11.533729 L15.9968301,11.6878533 C15.8968771,14.6464922 13.4673334,17 10.5,17 L10,17 L10,23 C10,23.5522847 9.55228475,24 9,24 C8.44771525,24 8,23.5522847 8,23 L8,16.999 L7.46627097,16.9997156 L7.31214671,16.9968301 C4.35350782,16.8968771 2,14.4673334 2,11.5 L2,6 C2,4.8954305 2.8954305,4 4,4 L5,4 L5,1 C5,0.44771525 5.44771525,0 6,0 C6.55228475,0 7,0.44771525 7,1 L7,4 L11,4 L11,1 C11,0.44771525 11.4477153,0 12,0 Z M21.5426407,16.232233 C21.933165,16.6227573 21.933165,17.2559223 21.5426407,17.6464466 L17.4213203,21.767767 C17.2066732,21.9824141 16.9187237,22.0790829 16.6380515,22.0577735 C16.356839,22.079314 16.0684573,21.9826709 15.8535534,21.767767 L13.732233,19.6464466 C13.3417088,19.2559223 13.3417088,18.6227573 13.732233,18.232233 C14.1227573,17.8417088 14.7559223,17.8417088 15.1464466,18.232233 L16.6373398,19.7223398 L20.1284271,16.232233 C20.5189514,15.8417088 21.1521164,15.8417088 21.5426407,16.232233 Z M14,6 L4,6 L4,11.5 C4,13.3927259 5.50239169,14.9345493 7.37967512,14.9979705 L7.5,15 L10.5,15 C12.3927259,15 13.9345493,13.4976083 13.9979705,11.6203249 L14,11.5 L14,6 Z" id="Shape" fill="#0D0E10" fill-rule="nonzero"></path>
    </g>
</svg>