<?xml version="1.0" encoding="UTF-8"?>
<svg width="24px" height="24px" viewBox="0 0 24 24" version="1.1" xmlns="http://www.w3.org/2000/svg" xmlns:xlink="http://www.w3.org/1999/xlink">
    <title>print</title>
    <g id="print" stroke="none" stroke-width="1" fill="none" fill-rule="evenodd">
        <path d="M18,0 C19.1045695,0 20,0.8954305 20,2 L20,7 L21,7 C22.6568542,7 24,8.34314575 24,10 L24,16 C24,17.6568542 22.6568542,19 21,19 L20,19 L20,22 C20,23.1045695 19.1045695,24 18,24 L6,24 C4.8954305,24 4,23.1045695 4,22 L4,19 L3,19 C1.34314575,19 0,17.6568542 0,16 L0,10 C0,8.34314575 1.34314575,7 3,7 L4,7 L4,2 C4,0.8954305 4.8954305,0 6,0 L18,0 Z M18,16 L6,16 L6,22 L18,22 L18,16 Z M21,9 L3,9 C2.44771525,9 2,9.44771525 2,10 L2,16 C2,16.5522847 2.44771525,17 3,17 L4,17 L4,16 C4,14.8954305 4.8954305,14 6,14 L18,14 C19.1045695,14 20,14.8954305 20,16 L20,17 L21,17 C21.5522847,17 22,16.5522847 22,16 L22,10 C22,9.44771525 21.5522847,9 21,9 Z M18,2 L6,2 L6,7 L18,7 L18,2 Z" id="Shape" fill="#0D0E10" fill-rule="nonzero"></path>
    </g>
</svg>