<?xml version="1.0" encoding="UTF-8"?>
<svg width="24px" height="24px" viewBox="0 0 24 24" version="1.1" xmlns="http://www.w3.org/2000/svg" xmlns:xlink="http://www.w3.org/1999/xlink">
    <title>sailing-train</title>
    <g id="sailing-train" stroke="none" stroke-width="1" fill="none" fill-rule="evenodd">
        <path d="M16,0 C18.710547,0 21,2.23857625 21,5 L21,15 C21,17.0451698 19.7441888,18.8035472 17.9915794,19.5781244 L19.9497475,21.5355339 C20.3402718,21.9260582 20.3402718,22.5592232 19.9497475,22.9497475 C19.5592232,23.3402718 18.9260582,23.3402718 18.5355339,22.9497475 L15.7071068,20.1213203 C15.6691146,20.0833282 15.6348185,20.0430395 15.6042185,20.0009013 L9.0526358,20.0009013 C9.02203576,20.0430395 8.98773965,20.0833282 8.94974747,20.1213203 L6.12132034,22.9497475 C5.73079605,23.3402718 5.09763107,23.3402718 4.70710678,22.9497475 C4.31658249,22.5592232 4.31658249,21.9260582 4.70710678,21.5355339 L6.48418964,19.7599498 C4.48758004,19.1120956 3,17.2259088 3,15 L3,5 C3,2.23857625 5.28945298,0 8,0 L16,0 Z M19,7 L5,7 L5,15 C5,16.6568542 6.38265004,18 8,18 L16,18 C17.61735,18 19,16.6568542 19,15 L19,7 Z M15,14 C15.5522847,14 16,14.4477153 16,15 C16,15.5522847 15.5522847,16 15,16 L9,16 C8.44771525,16 8,15.5522847 8,15 C8,14.4477153 8.44771525,14 9,14 L15,14 Z M16,2 L8,2 C6.38265004,2 5,3.34314575 5,5 L19,5 C19,3.34314575 17.61735,2 16,2 Z" id="Shape" fill="#0D0E10" fill-rule="nonzero"></path>
    </g>
</svg>