<?xml version="1.0" encoding="UTF-8"?>
<svg width="24px" height="24px" viewBox="0 0 24 24" version="1.1" xmlns="http://www.w3.org/2000/svg" xmlns:xlink="http://www.w3.org/1999/xlink">
    <title>sailing-route-alt</title>
    <g id="sailing-route-alt" stroke="none" stroke-width="1" fill="none" fill-rule="evenodd">
        <path d="M6.5,13 C5.11928813,13 4,14.1192881 4,15.5 C4,16.8807119 5.11928813,18 6.5,18 L18.54,18.0015 L17.2803764,16.7071068 C16.9262167,16.3371364 16.9075767,15.7493943 17.2244565,15.3565006 L17.2803764,15.2928932 C17.6542116,14.9023689 18.2603183,14.9023689 18.6341535,15.2928932 L21.5273159,18.2928932 C21.9011511,18.6834175 21.9011511,19.3165825 21.5273159,19.7071068 L18.6341535,22.7071068 C18.2603183,23.0976311 17.6542116,23.0976311 17.2803764,22.7071068 C16.9065412,22.3165825 16.9065412,21.6834175 17.2803764,21.2928932 L18.5402439,19.999205 L6.5,20 C4.01471863,20 2,17.9852814 2,15.5 C2,13.0147186 4.01471863,11 6.5,11 L17.5,11 C18.8807119,11 20,9.88071187 20,8.5 C20,7.11928813 18.8807119,6 17.5,6 L9.87378648,6.00076134 C9.42947895,7.72560224 7.86356525,9 6,9 C3.790861,9 2,7.209139 2,5 C2,2.790861 3.790861,1 6,1 C7.86392711,1 9.43008706,2.27489272 9.87404517,4.00024347 L17.5,4 C19.9852814,4 22,6.01471863 22,8.5 C22,10.9852814 19.9852814,13 17.5,13 L6.5,13 Z M6,3 C4.8954305,3 4,3.8954305 4,5 C4,6.1045695 4.8954305,7 6,7 C7.1045695,7 8,6.1045695 8,5 C8,3.8954305 7.1045695,3 6,3 Z" id="Shape" fill="#0D0E10" fill-rule="nonzero"></path>
    </g>
</svg>