<?xml version="1.0" encoding="UTF-8"?>
<svg width="24px" height="24px" viewBox="0 0 24 24" version="1.1" xmlns="http://www.w3.org/2000/svg" xmlns:xlink="http://www.w3.org/1999/xlink">
    <title>sailing-on-route</title>
    <g id="sailing-on-route" stroke="none" stroke-width="1" fill="none" fill-rule="evenodd">
        <path d="M3.33992741,2 C4.27261433,2 5.09354154,2.61516251 5.35543799,3.51032458 L6.083,5.999 L12.9341486,6 C13.8243684,5.99968935 14.6158449,6.56096059 14.9265236,7.43503855 L15.1744786,8.16680011 C15.6611338,9.5776669 16.0917975,10.671896 16.4581382,11.4368935 L16.6058948,11.7323078 L16.75,12 L23,12 C23.6666667,12 23.7850969,12.3358119 23.3552906,13.0074487 L19.0119654,18.4346698 L19.2338899,18.5524863 C19.4864227,18.6766359 19.7545803,18.8225577 20.0461235,18.9912757 L21.0708244,19.5907624 L21.3457302,19.7434303 C21.5886648,19.8741241 21.7419528,19.941938 21.8619983,19.9742524 L22,19.991 L23,20 C23.5522847,20 24,20.4477153 24,21 C24,21.5522847 23.5522847,22 23,22 L21.976,21.999 L21.887663,21.9974842 C21.7315318,21.9920914 21.5942709,21.976984 21.4510186,21.942409 L21.3048483,21.9009836 C20.7974412,21.7757751 20.3008659,21.5226099 19.619023,21.0941017 L18.9502449,20.6646557 L18.6811894,20.4988088 L18.4415793,20.3603952 C17.9785513,20.1383743 17.61417,20.0263005 17.2739023,20.0041362 L17.1809592,20.0019173 C16.7347546,20.0213166 16.3417005,20.1913031 15.5918157,20.6646557 L14.9230375,21.0941017 C13.9628724,21.6975231 13.0661887,21.9532391 12.2405679,21.9940639 L12.0719384,21.9994731 L11.9279225,21.9994481 L11.7586528,21.993125 C10.9334884,21.9532391 10.0343994,21.6975231 9.07442092,21.0941017 L8.40577275,20.6646557 C7.70601627,20.2228599 7.31703862,20.0453297 6.90557458,20.0078502 L6.804,20.0013333 L6.74626729,20.0027039 C6.40362201,20.0207733 6.03816706,20.1300973 5.57291174,20.3514439 C5.417687,20.4366529 5.24518039,20.5401622 5.04799627,20.6646557 L4.3793481,21.0941017 C3.75364981,21.4874019 3.28399483,21.7329892 2.81922905,21.8676389 L2.67979484,21.9047424 C2.51527438,21.9568638 2.36741614,21.9819007 2.20301568,21.992751 L2,22 L1,22 C0.44771525,22 0,21.5522847 0,21 L0,8.1 L0.003,8 L0,2 L3.33992741,2 Z M12.9341486,8 L2.095,8 L2.06107549,8.00785849 C2.02518398,8.02303932 2,8.05857864 2,8.1 L2,20 C2.04594993,19.9880609 2.08679294,19.9828528 2.1277515,19.9761228 C2.30945646,19.9279863 2.56687444,19.7983919 3.10081117,19.4894654 L3.72599526,19.1221044 C4.11622351,18.8906497 4.4646526,18.6972342 4.78765361,18.5398187 C5.49618181,18.151193 6.02463815,18 6.72688451,18 L6.84860255,18 C7.7281435,18 8.38288873,18.2358011 9.64187977,18.9030281 L10.3413652,19.2790602 L10.7431639,19.4872607 C11.2406276,19.7373697 11.5934763,19.8802517 11.9031918,19.9487827 L11.9982015,19.9678154 C12.4068511,19.8955059 12.8752003,19.6931336 13.6552028,19.2790602 L14.3545523,18.9030281 C15.4367185,18.3294013 16.0723649,18.0746476 16.7881865,18.0144612 L20,14 L16,14 C15.3370768,14 14.3467625,12.0223979 13.0290569,8.06719363 C13.0147561,8.02701601 12.9767937,8 12.9341486,8 Z M10,10 C10.5522847,10 11,10.4477153 11,11 C11,11.5522847 10.5522847,12 10,12 L6,12 C5.44771525,12 5,11.5522847 5,11 C5,10.4477153 5.44771525,10 6,10 L10,10 Z M3.33992741,4 L2,4 L2,6 L4,5.999 L3.4359041,4.07192022 C3.42343284,4.02929345 3.38434107,4 3.33992741,4 Z" id="Shape" fill="#0D0E10" fill-rule="nonzero"></path>
    </g>
</svg>