<?xml version="1.0" encoding="UTF-8"?>
<svg width="24px" height="24px" viewBox="0 0 24 24" version="1.1" xmlns="http://www.w3.org/2000/svg" xmlns:xlink="http://www.w3.org/1999/xlink">
    <title>sailing-ticket</title>
    <g id="sailing-ticket" stroke="none" stroke-width="1" fill="none" fill-rule="evenodd">
        <path d="M22.4999862,4 C23.3284065,4 24,4.63206265 24,5.41176471 L24,18.5882353 C24,19.3679373 23.3284065,20 22.4999862,20 L1.5,20 C0.671572463,20 0,19.3679314 0,18.5881176 L0,14 L0.00672773133,13.8833789 C0.0644928393,13.3860402 0.487164161,13 1,13 L2,13 C2.55228475,13 3,12.5522847 3,12 C3,11.4477153 2.55228475,11 2,11 L1,11 L0.883378875,10.9932723 C0.38604019,10.9355072 0,10.5128358 0,10 L0,5.41176471 C0,4.63206859 0.671572463,4 1.5,4 L22.4999862,4 Z M8,6 L2,6 L2,9 C3.65685425,9 5,10.3431458 5,12 C5,13.6568542 3.65685425,15 2,15 L2.00099983,18 L8,18 L8,6 Z M22,6 L10,6 L10,18 L22,18 L22,6 Z" id="Shape" fill="#0D0E10" fill-rule="nonzero"></path>
    </g>
</svg>