<?xml version="1.0" encoding="UTF-8"?>
<svg width="24px" height="24px" viewBox="0 0 24 24" version="1.1" xmlns="http://www.w3.org/2000/svg" xmlns:xlink="http://www.w3.org/1999/xlink">
    <title>sailing-vehicle</title>
    <g id="sailing-vehicle" stroke="none" stroke-width="1" fill="none" fill-rule="evenodd">
        <path d="M19,0 C20.6568542,0 22,1.34314575 22,3 L22,18 C22,18.8885473 21.6137081,19.6868712 20.9999017,20.2361945 L21,22 C21,23.1045695 20.1045695,24 19,24 L17,24 C15.8954305,24 15,23.1045695 15,22 L14.999,21 L8.999,21 L9,22 C9,23.1045695 8.1045695,24 7,24 L5,24 C3.8954305,24 3,23.1045695 3,22 L2.99911749,20.2353163 C2.3858804,19.6860206 2,18.8880739 2,18 L2,12 C1.44771525,12 1,11.5522847 1,11 L1,9 C1,8.44771525 1.44771525,8 2,8 L2,3 C2,1.34314575 3.34314575,0 5,0 L19,0 Z M19,21 L16.999,21 L17,22 L19,22 L19,21 Z M6.999,21 L5,21 L5,22 L7,22 L6.999,21 Z M19.999,13 L3.999,13 L4,18 C4,18.5522847 4.44771525,19 5,19 L19,19 C19.5522847,19 20,18.5522847 20,18 L19.999,13 Z M19,6 L5,6 C4.44771525,6 4,6.44771525 4,7 L4,11 L20,11 L20,7 C20,6.44771525 19.5522847,6 19,6 Z M19,2 L5,2 C4.44771525,2 4,2.44771525 4,3 L3.99909928,4.17102423 C4.3121327,4.06026977 4.64902797,4 5,4 L19,4 C19.3506022,4 19.6871573,4.06014282 20,4.17067428 L20,3 C20,2.44771525 19.5522847,2 19,2 Z M23,9 L23,11 C23,11.5522847 22.5522847,12 22,12 L22,8 C22.5522847,8 23,8.44771525 23,9 Z" id="Shape" fill="#0D0E10" fill-rule="nonzero"></path>
        <rect id="Rectangle" fill="#000000" x="9" y="15" width="6" height="2" rx="1"></rect>
    </g>
</svg>