<?xml version="1.0" encoding="UTF-8"?>
<svg width="24px" height="24px" viewBox="0 0 24 24" version="1.1" xmlns="http://www.w3.org/2000/svg" xmlns:xlink="http://www.w3.org/1999/xlink">
    <title>shield</title>
    <g id="shield" stroke="none" stroke-width="1" fill="none" fill-rule="evenodd">
        <path d="M12,0.816401055 L12.482776,0.936488541 L20.482776,2.92643804 L22.1872459,3.35041416 L21.9869534,5.09536581 L20.9299312,14.3041621 C20.6462098,16.775948 19.3519135,19.0200084 17.3544459,20.503365 L13.6795208,23.2324326 L13.5753611,23.3097835 L13.4620809,23.3730292 C12.4333021,23.9474082 11.1589904,23.8672347 10.2086969,23.1598734 L6.63798166,20.5019726 C4.64499595,19.018472 3.35392166,16.7770932 3.0706006,14.3087951 L2.01304658,5.09536581 L1.8127541,3.35041416 L3.51722398,2.92643804 L11.517224,0.936488541 L12,0.816401055 Z M12,2.87734591 L4,4.8672954 L5.05755402,14.0807247 C5.27791485,16.0005121 6.28208374,17.7438067 7.83218374,18.8976405 L11.402899,21.5555413 C11.7218313,21.7929421 12.14695,21.8166822 12.4871196,21.6267616 L16.1620448,18.8976939 C17.7156307,17.7439722 18.7223056,15.9985918 18.9429778,14.0760916 L20,4.8672954 L12,2.87734591 Z" id="Path" fill="#0D0E10" fill-rule="nonzero"></path>
    </g>
</svg>