<?xml version="1.0" encoding="UTF-8"?>
<svg width="24px" height="24px" viewBox="0 0 24 24" version="1.1" xmlns="http://www.w3.org/2000/svg" xmlns:xlink="http://www.w3.org/1999/xlink">
    <title>star</title>
    <g id="star" stroke="none" stroke-width="1" fill="none" fill-rule="evenodd">
        <path d="M11.1189038,1.76651393 C11.3770244,1.21656297 12.0320959,0.979987756 12.5820468,1.23810839 C12.8144467,1.34718575 13.001375,1.53411409 13.1104524,1.76651393 L15.917322,7.74722332 L22.1837694,8.70464531 C22.7442767,8.79028729 23.1409346,9.28488375 23.1167275,9.83871346 L23.1050048,9.95817044 C23.0703085,10.1852498 22.9653915,10.3957695 22.8049739,10.5601929 L18.237322,15.2402233 L19.3170681,21.8560991 C19.4083478,22.4157159 19.0600818,22.9455026 18.5257521,23.0931685 L18.4084974,23.118834 C18.1649746,23.1585553 17.9151685,23.1152483 17.699227,22.9958731 L12.114322,19.9082233 L6.53012913,22.9958731 C6.03389444,23.2701979 5.41779432,23.1205857 5.0988857,22.6671426 L5.03524897,22.5653695 C4.91587377,22.349428 4.87256676,22.0996219 4.91228806,21.8560991 L5.99132198,15.2402233 L1.42438225,10.5601929 C1.03043852,10.156412 1.00970472,9.52707851 1.35691074,9.09955787 L1.44356428,9.00467626 C1.60798773,8.84425863 1.81850736,8.73934161 2.04558675,8.70464531 L8.31132198,7.74722332 L11.1189038,1.76651393 Z M12.114322,4.35222332 L9.91830695,9.03170525 C9.76244609,9.36378187 9.45130341,9.59630983 9.08867749,9.65171678 L4.07832198,10.4172233 L7.73999583,14.1695553 C7.95332397,14.3882105 8.06474679,14.6841156 8.05161767,14.9855092 L8.03829925,15.1148047 L7.18332198,20.3492233 L11.5824898,17.917605 C11.8722675,17.7574122 12.216292,17.7373881 12.5196314,17.8575327 L12.6468664,17.917605 L17.044322,20.3482233 L16.1910569,15.1148047 C16.1418793,14.8133075 16.2204889,14.5070471 16.4042391,14.267785 L16.4893603,14.1695553 L20.150322,10.4172233 L15.1406786,9.65171678 C14.8233809,9.6032357 14.5455001,9.41914634 14.3765731,9.15141613 L14.3110492,9.03170525 L12.114322,4.35222332 Z" id="Star" fill="#0D0E10" fill-rule="nonzero"></path>
    </g>
</svg>