<?xml version="1.0" encoding="UTF-8"?>
<svg width="24px" height="24px" viewBox="0 0 24 24" version="1.1" xmlns="http://www.w3.org/2000/svg" xmlns:xlink="http://www.w3.org/1999/xlink">
    <title>statistics-line</title>
    <g id="statistics-line" stroke="none" stroke-width="1" fill="none" fill-rule="evenodd">
        <path d="M23,4 C23.5522847,4 24,4.44771525 24,5 L24,10 C24,10.5522847 23.5522847,11 23,11 C22.4477153,11 22,10.5522847 22,10 L22,7.414 L12.7071068,16.7071068 C12.3165825,17.0976311 11.6834175,17.0976311 11.2928932,16.7071068 L8,13.415 L1.70710678,19.7071068 C1.34662282,20.0675907 0.779391764,20.0953203 0.387100557,19.7902954 L0.292893219,19.7071068 C-0.0976310729,19.3165825 -0.0976310729,18.6834175 0.292893219,18.2928932 L7.29289322,11.2928932 C7.68341751,10.9023689 8.31658249,10.9023689 8.70710678,11.2928932 L12,14.585 L20.584,6 L18,6 C17.4477153,6 17,5.55228475 17,5 C17,4.44771525 17.4477153,4 18,4 L23,4 Z" id="Path" fill="#0D0E10" fill-rule="nonzero"></path>
    </g>
</svg>