<?xml version="1.0" encoding="UTF-8"?>
<svg width="24px" height="24px" viewBox="0 0 24 24" version="1.1" xmlns="http://www.w3.org/2000/svg" xmlns:xlink="http://www.w3.org/1999/xlink">
    <title>statistics-pie</title>
    <g id="statistics-pie" stroke="none" stroke-width="1" fill="none" fill-rule="evenodd">
        <path d="M12,0 C18.627417,0 24,5.372583 24,12 C24,18.627417 18.627417,24 12,24 C5.372583,24 0,18.627417 0,12 C0,5.372583 5.372583,0 12,0 Z M2,12 C2,17.5228475 6.4771525,22 12,22 C17.1849719,22 21.4482817,18.0538953 21.9505155,13.0010997 L12,13 C11.4477153,13 11,12.5522847 11,12 L10.9998991,2.04938526 C5.94662476,2.55115644 2,6.81468642 2,12 Z M13.0010997,2.04948449 L13,11 L21.9506147,10.9998991 C21.4907366,6.36852412 17.8710185,2.66672377 13.277841,2.08087857 L13.0010997,2.04948449 Z" id="Shape" fill="#0D0E10" fill-rule="nonzero"></path>
    </g>
</svg>