<?xml version="1.0" encoding="UTF-8"?>
<svg width="24px" height="24px" viewBox="0 0 24 24" version="1.1" xmlns="http://www.w3.org/2000/svg" xmlns:xlink="http://www.w3.org/1999/xlink">
    <title>todo-list</title>
    <g id="todo-list" stroke="none" stroke-width="1" fill="none" fill-rule="evenodd">
        <path d="M18,0 C18.5522847,0 19,0.44771525 19,1 L19,2 C20.6568542,2 22,3.34314575 22,5 L22,21 C22,22.6568542 20.6568542,24 19,24 L5,24 C3.34314575,24 2,22.6568542 2,21 L2,5 C2,3.34314575 3.34314575,2 5,2 L5,1 C5,0.44771525 5.44771525,0 6,0 C6.55228475,0 7,0.44771525 7,1 L7,2 L9,2 L9,1 C9,0.44771525 9.44771525,0 10,0 C10.5522847,0 11,0.44771525 11,1 L11,2 L13,2 L13,1 C13,0.44771525 13.4477153,0 14,0 C14.5522847,0 15,0.44771525 15,1 L15,2 L17,2 L17,1 C17,0.44771525 17.4477153,0 18,0 Z M9,4 L7,4 L7,5 C7,5.55228475 6.55228475,6 6,6 C5.44771525,6 5,5.55228475 5,5 L5,4 C4.44771525,4 4,4.44771525 4,5 L4,21 C4,21.5522847 4.44771525,22 5,22 L19,22 C19.5522847,22 20,21.5522847 20,21 L20,5 C20,4.44771525 19.5522847,4 19,4 L19,5 C19,5.55228475 18.5522847,6 18,6 C17.4477153,6 17,5.55228475 17,5 L17,4 L15,4 L15,5 C15,5.55228475 14.5522847,6 14,6 C13.4477153,6 13,5.55228475 13,5 L13,4 L11,4 L11,5 C11,5.55228475 10.5522847,6 10,6 C9.44771525,6 9,5.55228475 9,5 L9,4 Z M10,18 C10.5522847,18 11,18.4477153 11,19 C11,19.5522847 10.5522847,20 10,20 L7,20 C6.44771525,20 6,19.5522847 6,19 C6,18.4477153 6.44771525,18 7,18 L10,18 Z M10,14 C10.5522847,14 11,14.4477153 11,15 C11,15.5522847 10.5522847,16 10,16 L7,16 C6.44771525,16 6,15.5522847 6,15 C6,14.4477153 6.44771525,14 7,14 L10,14 Z" id="Shape" fill="#0D0E10" fill-rule="nonzero"></path>
    </g>
</svg>