<?xml version="1.0" encoding="UTF-8"?>
<svg width="24px" height="24px" viewBox="0 0 24 24" version="1.1" xmlns="http://www.w3.org/2000/svg" xmlns:xlink="http://www.w3.org/1999/xlink">
    <title>unlink</title>
    <g id="unlink" stroke="none" stroke-width="1" fill="none" fill-rule="evenodd">
        <path d="M8.17157288,11.5857864 C8.53420257,11.9484161 8.5601047,12.5202615 8.24927924,12.9127792 L8.17157288,13 L5.34314575,15.8284271 C4.56209717,16.6094757 4.56209717,17.8758057 5.34314575,18.6568542 C6.12419433,19.4379028 7.39052429,19.4379028 8.17157288,18.6568542 L11,15.8284271 C11.3905243,15.4379028 12.0236893,15.4379028 12.4142136,15.8284271 C12.8047379,16.2189514 12.8047379,16.8521164 12.4142136,17.2426407 L9.58578644,20.0710678 C8.02368927,21.633165 5.49102936,21.633165 3.92893219,20.0710678 C2.36683502,18.5089706 2.36683502,15.9763107 3.92893219,14.4142136 L6.75735931,11.5857864 C7.1478836,11.1952621 7.78104858,11.1952621 8.17157288,11.5857864 Z M7.05025253,5.63603897 L18.363961,16.9497475 C18.7544853,17.3402718 18.7544853,17.9734367 18.363961,18.363961 C17.9734367,18.7544853 17.3402718,18.7544853 16.9497475,18.363961 L5.63603897,7.05025253 C5.24551468,6.65972824 5.24551468,6.02656326 5.63603897,5.63603897 C6.02656326,5.24551468 6.65972824,5.24551468 7.05025253,5.63603897 Z M20.0710678,3.92893219 C21.633165,5.49102936 21.633165,8.02368927 20.0710678,9.58578644 L17.2426407,12.4142136 C16.8521164,12.8047379 16.2189514,12.8047379 15.8284271,12.4142136 C15.4379028,12.0236893 15.4379028,11.3905243 15.8284271,11 L18.6568542,8.17157288 C19.4379028,7.39052429 19.4379028,6.12419433 18.6568542,5.34314575 C17.8758057,4.56209717 16.6094757,4.56209717 15.8284271,5.34314575 L13,8.17157288 C12.6094757,8.56209717 11.9763107,8.56209717 11.5857864,8.17157288 C11.1952621,7.78104858 11.1952621,7.1478836 11.5857864,6.75735931 L14.4142136,3.92893219 C15.9763107,2.36683502 18.5089706,2.36683502 20.0710678,3.92893219 Z" id="Shape" fill="#0D0E10" fill-rule="nonzero"></path>
    </g>
</svg>