<?xml version="1.0" encoding="UTF-8"?>
<svg width="24px" height="24px" viewBox="0 0 24 24" version="1.1" xmlns="http://www.w3.org/2000/svg" xmlns:xlink="http://www.w3.org/1999/xlink">
    <title>warehouse</title>
    <g id="warehouse" stroke="none" stroke-width="1" fill="none" fill-rule="evenodd">
        <path d="M13.6463011,0.491012283 L21.632234,5.71628157 C22.4854946,6.27457783 23,7.22755809 23,8.24969335 L23,20.9755759 C23,22.6459192 21.6505562,24 19.9859329,24 L4.01406709,24 C2.3494438,24 1,22.6459192 1,20.9755759 L1,8.24969335 C1,7.22755809 1.51450538,6.27457783 2.367766,5.71628157 L10.3536989,0.491012283 C11.3542703,-0.163670761 12.6457297,-0.163670761 13.6463011,0.491012283 Z M11.4506606,2.1639377 L3.45639757,7.39772901 C3.17168069,7.58413128 3,7.90230945 3,8.24357688 L3,20.9902144 C3,21.5479036 3.4502838,22 4.00573702,22 L9,22 L9,18 C9,16.3431458 10.3431458,15 12,15 L15,15 C16.6568542,15 18,16.3431458 18,18 L18,22 L19.994263,22 C20.5497162,22 21,21.5479036 21,20.9902144 L21,8.24357688 C21,7.90230945 20.8283193,7.58413128 20.5436024,7.39772901 L12.5493394,2.1639377 C12.2154678,1.9453541 11.7845322,1.9453541 11.4506606,2.1639377 Z M15,17 L12,17 C11.4477153,17 11,17.4477153 11,18 L11,22 L16,22 L16,18 C16,17.4477153 15.5522847,17 15,17 Z" id="Shape" fill="#0D0E10" fill-rule="nonzero"></path>
    </g>
</svg>